# This file uses centimeters as units for non-parametric coordinates.

mtllib attack.mtl
g default
v 0.000000 -0.037840 -0.000000
v 0.000000 0.037840 -0.000000
v 0.021994 -0.016429 -0.038095
v -0.021994 -0.016429 -0.038095
v -0.043988 -0.016429 -0.000000
v -0.021994 -0.016429 0.038095
v 0.021994 -0.016429 0.038095
v 0.043988 -0.016429 0.000000
v -0.021994 0.016429 -0.038095
v 0.021994 0.016429 -0.038095
v -0.043988 0.016429 -0.000000
v -0.021994 0.016429 0.038095
v 0.021994 0.016429 0.038095
v 0.043988 0.016429 0.000000
v -0.028726 0.010178 0.060675
v -0.007512 0.010178 0.066710
v -0.028726 -0.010178 0.060675
v -0.007512 -0.010178 0.066710
v -0.066909 -0.010178 0.005460
v -0.061529 -0.010178 0.026849
v -0.061529 0.010178 0.026849
v -0.066909 0.010178 0.005460
v -0.038183 0.010178 -0.055215
v -0.054016 0.010178 -0.039861
v -0.038183 -0.010178 -0.055215
v -0.054016 -0.010178 -0.039861
v 0.028726 -0.010178 -0.060675
v 0.007512 -0.010178 -0.066710
v 0.007512 0.010178 -0.066710
v 0.028726 0.010178 -0.060675
v 0.066909 -0.010178 -0.005460
v 0.061529 -0.010178 -0.026849
v 0.061529 0.010178 -0.026849
v 0.066909 0.010178 -0.005460
v 0.038183 -0.010178 0.055215
v 0.054016 -0.010178 0.039861
v 0.054016 0.010178 0.039861
v 0.038183 0.010178 0.055215
v -0.049238 -0.000000 0.078029
v -0.092194 -0.000000 -0.003627
v -0.042956 -0.000000 -0.081656
v 0.049238 -0.000000 -0.078029
v 0.092194 -0.000000 0.003627
v 0.042956 -0.000000 0.081656
vt 0.175614 0.178538
vt 0.963523 0.296113
vt 0.895547 0.296167
vt 0.854497 0.288774
vt 0.879093 0.243577
vt 0.897704 0.250780
vt 0.965157 0.248423
vt 0.504029 0.530000
vt 0.918685 0.369677
vt 0.903024 0.330675
vt 0.910795 0.415177
vt 0.897287 0.375692
vt 0.935946 0.323333
vt 0.875103 0.353920
vt 0.841786 0.334536
vt 0.875062 0.293028
vt 0.912791 0.425652
vt 0.889888 0.489074
vt 0.849335 0.459572
vt 0.861031 0.415348
vt 0.940494 0.452082
vt 0.910715 0.423952
vt 0.905689 0.118599
vt 0.973769 0.180832
vt 0.905925 0.176443
vt 0.866969 0.155131
vt 0.903959 0.122732
vt 0.919620 0.298824
vt 0.907062 0.258211
vt 0.966946 0.202704
vt 0.899924 0.205069
vt 0.859155 0.196219
vt 0.884894 0.151895
vt 0.920679 0.324374
vt 0.905027 0.285354
vt 0.856579 0.243199
vt 0.881125 0.198194
vt 0.793274 0.300767
vt 0.785240 0.331723
vt 0.797611 0.445207
vt 0.804995 0.142513
vt 0.796757 0.207682
vt 0.795208 0.255001
vt 0.618484 0.753331
vt 0.388704 0.751660
vt 0.274611 0.529289
vt 0.389574 0.306669
vt 0.619354 0.308340
vt 0.733447 0.530711
vt 0.357311 0.182422
vt 0.466815 0.150489
vt 0.163728 0.499281
vt 0.191962 0.376510
vt 0.310940 0.846589
vt 0.229460 0.757920
vt 0.650747 0.877579
vt 0.541243 0.909511
vt 0.844329 0.560719
vt 0.816097 0.683490
vt 0.697117 0.213411
vt 0.778598 0.302080
vt 0.251956 0.079953
vt 0.031670 0.551082
vt 0.284350 1.000688
vt 0.756102 0.980048
vt 0.976388 0.508918
vt 0.723708 0.059312
vt 0.205555 0.262248
vt 0.124095 0.251588
vt 0.256773 0.189595
vt 0.227133 0.105488
vt 0.145673 0.094827
vt 0.094455 0.167481
vt 0.207186 0.046996
vt 0.244596 0.063391
vt 0.293278 0.139914
vt 0.297416 0.184498
vt 0.261306 0.272263
vt 0.228332 0.299620
vt 0.144042 0.310080
vt 0.106631 0.293685
vt 0.057950 0.217162
vt 0.053812 0.172577
vt 0.089923 0.084812
vt 0.122896 0.057456
vt 0.286826 0.032329
vt 0.341503 0.209298
vt 0.229989 0.355145
vt 0.064402 0.324746
vt 0.009725 0.147778
vt 0.121239 0.001931
vt 0.973103 0.059552
vt 0.879710 0.085480
vt 0.918258 0.008517
vn 0.000000 -1.000000 -0.000000
vn -0.150676 -0.948289 -0.279366
vn 0.166600 -0.948289 -0.270172
vn -0.317277 -0.948288 -0.009194
vn -0.166600 -0.948289 0.270172
vn 0.150676 -0.948289 0.279366
vn 0.317277 -0.948288 0.009194
vn 0.000000 1.000000 -0.000000
vn 0.166600 0.948289 -0.270172
vn -0.150676 0.948289 -0.279366
vn -0.317277 0.948288 -0.009194
vn -0.166600 0.948289 0.270172
vn 0.150676 0.948289 0.279366
vn 0.317277 0.948288 0.009194
vn -0.067505 0.947338 0.313039
vn -0.067505 0.947338 0.313039
vn -0.958319 0.000000 -0.285700
vn -0.958319 0.000000 -0.285700
vn -0.836908 0.000000 -0.547343
vn -0.836908 0.000000 -0.547343
vn -0.067505 -0.947338 0.313039
vn -0.067505 -0.947338 0.313039
vn 0.696185 0.000000 0.717863
vn 0.696185 0.000000 0.717863
vn 0.494690 0.000000 0.869069
vn 0.494690 0.000000 0.869069
vn -0.304852 -0.947338 0.098058
vn -0.304852 -0.947338 0.098058
vn -0.273596 -0.000000 0.961845
vn -0.273596 -0.000000 0.961845
vn -0.505292 0.000000 0.862949
vn -0.505292 0.000000 0.862949
vn -0.304852 0.947338 0.098059
vn -0.304852 0.947338 0.098059
vn -0.231737 -0.000000 -0.972778
vn -0.231737 -0.000000 -0.972778
vn 0.055558 -0.000000 -0.998455
vn 0.055558 -0.000000 -0.998455
vn -0.237348 0.947338 -0.214980
vn -0.237348 0.947338 -0.214980
vn 0.726581 0.000000 -0.687081
vn 0.726581 0.000000 -0.687081
vn 0.892466 0.000000 -0.451115
vn 0.892466 0.000000 -0.451115
vn -0.237348 -0.947338 -0.214980
vn -0.237348 -0.947338 -0.214980
vn -0.969780 0.000000 0.243983
vn -0.969780 0.000000 0.243983
vn -0.999981 0.000000 -0.006120
vn -0.999981 0.000000 -0.006120
vn 0.067505 -0.947338 -0.313039
vn 0.067505 -0.947338 -0.313039
vn -0.696185 0.000000 -0.717863
vn -0.696185 0.000000 -0.717863
vn -0.494690 0.000000 -0.869069
vn -0.494690 0.000000 -0.869069
vn 0.067505 0.947338 -0.313039
vn 0.067505 0.947338 -0.313039
vn 0.958319 0.000000 0.285700
vn 0.958319 0.000000 0.285700
vn 0.836908 0.000000 0.547343
vn 0.836908 0.000000 0.547343
vn 0.304852 -0.947338 -0.098058
vn 0.304852 -0.947338 -0.098058
vn 0.273596 0.000000 -0.961845
vn 0.273596 0.000000 -0.961845
vn 0.505292 0.000000 -0.862949
vn 0.505292 0.000000 -0.862949
vn 0.304852 0.947338 -0.098058
vn 0.304852 0.947338 -0.098058
vn 0.231737 0.000000 0.972779
vn 0.231737 0.000000 0.972779
vn -0.055558 0.000000 0.998455
vn -0.055558 0.000000 0.998455
vn 0.237348 -0.947338 0.214980
vn 0.237348 -0.947338 0.214980
vn 0.969779 0.000000 -0.243983
vn 0.969779 0.000000 -0.243983
vn 0.999981 0.000000 0.006119
vn 0.999981 0.000000 0.006119
vn 0.237348 0.947338 0.214980
vn 0.237348 0.947338 0.214980
vn -0.726581 0.000000 0.687081
vn -0.726581 0.000000 0.687081
vn -0.892466 0.000000 0.451115
vn -0.892466 0.000000 0.451115
vn -0.113599 0.909745 0.399324
vn -0.645869 0.000000 -0.763449
vn -0.113599 -0.909745 0.399324
vn 0.261801 0.000000 0.965122
vn -0.402624 -0.909745 0.101282
vn -0.704920 0.000000 0.709287
vn -0.402624 0.909745 0.101282
vn 0.338231 0.000000 -0.941063
vn -0.289026 0.909745 -0.298041
vn 0.984100 0.000000 -0.177616
vn -0.289026 -0.909745 -0.298041
vn -0.966721 0.000000 -0.255834
vn 0.113599 -0.909745 -0.399324
vn -0.261801 0.000000 -0.965122
vn 0.113599 0.909745 -0.399324
vn 0.645869 0.000000 0.763448
vn 0.402624 -0.909745 -0.101282
vn 0.704920 0.000000 -0.709287
vn 0.402624 0.909745 -0.101282
vn -0.338231 0.000000 0.941063
vn 0.289026 -0.909744 0.298042
vn 0.966721 0.000000 0.255834
vn 0.289026 0.909745 0.298041
vn -0.984100 0.000000 0.177617
s 1
g pSphere1
usemtl initialShadingGroup
f 1/1/1 4/68/2 3/69/3
f 1/1/1 5/70/4 4/68/2
f 1/1/1 6/71/5 5/70/4
f 1/1/1 7/72/6 6/71/5
f 1/1/1 8/73/7 7/72/6
f 1/1/1 3/69/3 8/73/7
s 2
f 2/8/8 10/44/9 9/45/10
f 2/8/8 9/45/10 11/46/11
f 2/8/8 11/46/11 12/47/12
f 2/8/8 12/47/12 13/48/13
f 2/8/8 13/48/13 14/49/14
f 2/8/8 14/49/14 10/44/9
f 13/48/13 12/47/12 15/50/15 16/51/16
s 3
f 12/2/17 6/3/18 17/4/19 15/5/20
s 1
f 6/71/5 7/72/6 18/74/21 17/75/22
s 4
f 7/6/23 13/7/24 16/9/25 18/10/26
s 1
f 5/70/4 6/71/5 20/76/27 19/77/28
s 5
f 6/3/29 12/2/30 21/11/31 20/12/32
s 2
f 12/47/12 11/46/11 22/52/33 21/53/34
s 6
f 11/13/35 5/14/36 19/15/37 22/16/38
s 2
f 11/46/11 9/45/10 23/54/39 24/55/40
s 7
f 9/17/41 4/18/42 25/19/43 23/20/44
s 1
f 4/68/2 5/70/4 26/78/45 25/79/46
s 8
f 5/14/47 11/13/48 24/21/49 26/22/50
s 1
f 3/69/3 4/68/2 28/80/51 27/81/52
s 9
f 4/94/53 9/92/54 29/23/55 28/93/56
s 2
f 9/45/10 10/44/9 30/56/57 29/57/58
s 10
f 10/24/59 3/25/60 27/26/61 30/27/62
s 1
f 8/73/7 3/69/3 32/82/63 31/83/64
s 11
f 3/25/65 10/24/66 33/28/67 32/29/68
s 2
f 10/44/9 14/49/14 34/58/69 33/59/70
s 12
f 14/30/71 8/31/72 31/32/73 34/33/74
s 1
f 7/72/6 8/73/7 36/84/75 35/85/76
s 13
f 8/31/77 14/30/78 37/34/79 36/35/80
s 2
f 14/49/14 13/48/13 38/60/81 37/61/82
s 14
f 13/7/83 7/6/84 35/36/85 38/37/86
s 2
f 16/51/16 15/50/15 39/62/87
s 3
f 15/5/20 17/4/19 39/38/88
s 1
f 17/75/22 18/74/21 39/86/89
s 4
f 18/10/26 16/9/25 39/38/90
s 1
f 19/77/28 20/76/27 40/87/91
s 5
f 20/12/32 21/11/31 40/39/92
s 2
f 21/53/34 22/52/33 40/63/93
s 6
f 22/16/38 19/15/37 40/39/94
s 2
f 24/55/40 23/54/39 41/64/95
s 7
f 23/20/44 25/19/43 41/40/96
s 1
f 25/79/46 26/78/45 41/88/97
s 8
f 26/22/50 24/21/49 41/40/98
s 1
f 27/81/52 28/80/51 42/89/99
s 9
f 28/93/56 29/23/55 42/41/100
s 2
f 29/57/58 30/56/57 42/65/101
s 10
f 30/27/62 27/26/61 42/41/102
s 1
f 31/83/64 32/82/63 43/90/103
s 11
f 32/29/68 33/28/67 43/42/104
s 2
f 33/59/70 34/58/69 43/66/105
s 12
f 34/33/74 31/32/73 43/42/106
s 1
f 35/85/76 36/84/75 44/91/107
s 13
f 36/35/80 37/34/79 44/43/108
s 2
f 37/61/82 38/60/81 44/67/109
s 14
f 38/37/86 35/36/85 44/43/110
