# Blender v2.65 (sub 0) OBJ File: ''
# www.blender.org
o kreuzung:polySurface7
v 0.480757 0.592277 -0.002064
v 0.604238 0.559262 -0.002064
v 0.682352 0.477461 -0.002064
v -0.480757 0.592277 -0.002064
v -0.682352 0.477461 -0.002064
v -0.604237 0.559262 -0.002064
v -0.000000 -0.827379 0.000432
v -0.132109 -0.826763 0.000432
v -0.259042 -0.748503 0.000432
v 0.323933 -0.281193 0.000432
v -0.323932 -0.281193 0.000432
v -0.000000 0.335186 0.000432
v -0.128422 -0.803353 -0.171425
v -0.128422 -0.594157 -0.245028
v -0.251815 -0.727276 -0.171425
v -0.251815 -0.594157 -0.171425
v -0.128422 -0.401873 -0.262730
v -0.314895 -0.277798 -0.189127
v -0.000000 -0.803951 -0.214229
v -0.000000 -0.594157 -0.279634
v -0.000000 -0.429887 -0.318956
v -0.000000 -0.106691 -0.341249
v -0.587378 0.540150 -0.172388
v -0.394558 0.358647 -0.245992
v -0.467343 0.572242 -0.172388
v -0.321957 0.435390 -0.172388
v -0.177419 0.193294 -0.262730
v -0.000000 0.246635 -0.189127
v -0.663313 0.460631 -0.215193
v -0.470121 0.278777 -0.280598
v -0.279021 0.090306 -0.318956
v -0.618284 0.122163 -0.172388
v -0.545682 0.198906 -0.245992
v -0.763669 0.259016 -0.172388
v -0.738502 0.380409 -0.172388
v -0.350873 -0.051029 -0.262730
v 0.251815 -0.594157 -0.171425
v 0.128423 -0.594157 -0.183965
v 0.251815 -0.727276 -0.171425
v 0.128423 -0.803353 -0.171425
v 0.314895 -0.277798 -0.189127
v 0.128423 -0.401873 -0.262730
v 0.321957 0.435390 -0.172388
v 0.394560 0.358647 -0.245992
v 0.467343 0.572242 -0.172388
v 0.587378 0.540150 -0.172388
v 0.177418 0.193294 -0.262730
v 0.663313 0.460631 -0.215193
v 0.470121 0.278777 -0.280598
v 0.279021 0.090306 -0.318956
v 0.738502 0.380409 -0.172388
v 0.545682 0.198906 -0.245992
v 0.763670 0.259016 -0.172388
v 0.618284 0.122163 -0.172388
v 0.350873 -0.051029 -0.262730
v -0.289399 -0.837655 -0.128097
v -0.147590 -0.966775 -0.128097
v -0.289399 -0.684668 -0.128097
v -0.361893 -0.295453 -0.128097
v -0.000000 -0.967463 -0.138193
v -0.537095 0.676419 -0.128659
v -0.675046 0.639536 -0.128659
v -0.370011 0.519141 -0.128659
v -0.000000 0.393157 -0.128097
v -0.762314 0.548148 -0.138755
v -0.877649 0.316443 -0.128659
v -0.848724 0.455953 -0.128659
v -0.710564 0.159164 -0.128659
v 0.289399 -0.837655 -0.128097
v 0.147590 -0.966775 -0.128097
v 0.289399 -0.684668 -0.128097
v 0.361893 -0.295453 -0.128097
v 0.537095 0.676419 -0.128659
v 0.675046 0.639536 -0.128659
v 0.370011 0.519141 -0.128659
v 0.762315 0.548148 -0.138755
v 0.710564 0.159164 -0.128659
v 0.877649 0.316443 -0.128659
v 0.848724 0.455953 -0.128659
v -0.259042 -0.611563 0.000432
v -0.331198 0.451496 -0.002064
v -0.759698 0.394936 -0.002064
v -0.785589 0.270060 -0.002064
v -0.636030 0.129279 -0.002064
v 0.132109 -0.826763 0.000432
v 0.259043 -0.748503 0.000432
v 0.259043 -0.611563 0.000432
v 0.331198 0.451496 -0.002064
v 0.785589 0.270060 -0.002064
v 0.636030 0.129279 -0.002064
v 0.759699 0.394936 -0.002064
vn 0.274972 -0.597064 -0.753563
vn -0.235694 -0.421369 -0.875698
vn -0.319590 -0.294443 -0.900632
vn -0.274972 -0.597064 -0.753563
vn 0.319590 -0.294443 -0.900632
vn 0.235694 -0.421369 -0.875698
vn 0.000000 0.381207 -0.924467
vn 0.155278 0.417859 -0.895138
vn 0.603168 0.220923 -0.766381
vn -0.484664 0.214484 -0.847957
vn 0.484664 0.214484 -0.847957
vn 0.000000 -0.450636 -0.892666
vn 0.222938 0.306497 0.925382
vn 0.371776 0.178167 0.911039
vn 0.504044 0.146916 0.851070
vn 0.576495 0.077395 0.813410
vn 0.427900 0.087497 0.899564
vn 0.535691 0.267983 0.800714
vn -0.042299 0.325785 0.944487
vn -0.159398 0.281961 0.946074
vn -0.022126 0.135075 0.990570
vn 0.000000 0.016236 0.999847
vn 0.070315 -0.382336 0.921323
vn -0.179388 -0.395825 0.900601
vn -0.274270 -0.497055 0.823206
vn -0.296823 -0.491989 0.818415
vn -0.214881 -0.389569 0.895535
vn 0.000000 -0.412305 0.911008
vn 0.270333 -0.258522 0.927396
vn 0.135594 -0.131443 0.981994
vn 0.080416 -0.051088 0.995422
vn 0.484237 0.401318 0.777429
vn 0.389172 0.195349 0.900174
vn 0.442061 0.267586 0.856105
vn 0.380718 -0.045595 0.923551
vn 0.366619 0.295083 0.882321
vn -0.426069 0.129917 0.895291
vn -0.308817 0.230873 0.922666
vn -0.420637 0.087008 0.903012
vn -0.203375 0.201758 0.958068
vn -0.535691 0.267983 0.800714
vn -0.416120 0.157201 0.895596
vn 0.296823 -0.491989 0.818415
vn 0.179388 -0.395825 0.900601
vn 0.274270 -0.497055 0.823206
vn -0.070315 -0.382336 0.921323
vn 0.214881 -0.389569 0.895535
vn -0.270333 -0.258522 0.927396
vn -0.135594 -0.131443 0.981994
vn -0.080416 -0.051088 0.995422
vn -0.380718 -0.045595 0.923551
vn -0.389172 0.195349 0.900174
vn -0.442061 0.267586 0.856105
vn -0.484237 0.401318 0.777429
vn -0.366619 0.295083 0.882321
vn 0.813898 0.522874 0.253212
vn 0.326762 0.926725 0.185308
vn 0.967345 0.048738 0.248604
vn 0.888150 0.406659 0.213904
vn 0.000000 0.969543 0.244881
vn -0.105258 -0.962737 0.249001
vn 0.499985 -0.836024 0.225867
vn -0.585192 -0.780633 0.219398
vn 0.000000 -0.909146 0.416456
vn 0.704459 -0.653035 0.277902
vn 0.954436 0.170690 0.244636
vn 0.862972 -0.454543 0.220496
vn 0.695425 0.677755 0.238716
vn -0.813898 0.522874 0.253212
vn -0.326762 0.926725 0.185308
vn -0.967345 0.048738 0.248604
vn -0.888150 0.406659 0.213904
vn 0.105258 -0.962737 0.249001
vn -0.499985 -0.836024 0.225867
vn 0.585192 -0.780633 0.219398
vn -0.704459 -0.653035 0.277902
vn -0.695425 0.677755 0.238716
vn -0.954436 0.170690 0.244636
vn -0.862972 -0.454543 0.220527
vn 0.568377 0.069033 -0.819849
vn -0.242683 -0.470962 -0.848079
vn 0.428510 -0.221809 -0.875881
vn 0.565203 0.297647 -0.769341
vn 0.441572 0.376141 -0.814539
vn -0.155278 0.417859 -0.895138
vn -0.603168 0.220923 -0.766381
vn -0.568377 0.069033 -0.819849
vn 0.242683 -0.470962 -0.848079
vn -0.565203 0.297647 -0.769341
vn -0.441572 0.376141 -0.814539
vn -0.428510 -0.221809 -0.875881
s 1
f 1//1 2//2 3//3
f 4//4 5//5 6//6
f 7//7 8//8 9//9
f 10//10 11//11 12//12
f 13//13 14//14 15//15
f 15//15 14//14 16//16
f 14//14 17//17 16//16
f 16//16 17//17 18//18
f 13//13 19//19 14//14
f 14//14 19//19 20//20
f 17//17 14//14 21//21
f 21//21 14//14 20//20
f 22//22 17//17 21//21
f 18//18 17//17 22//22
f 23//23 24//24 25//25
f 25//25 24//24 26//26
f 24//24 27//27 26//26
f 26//26 27//27 28//28
f 23//23 29//29 24//24
f 24//24 29//29 30//30
f 27//27 24//24 31//31
f 31//31 24//24 30//30
f 22//22 27//27 31//31
f 28//28 27//27 22//22
f 32//32 33//33 34//34
f 34//34 33//33 35//35
f 18//18 36//36 32//32
f 32//32 36//36 33//33
f 35//35 33//33 29//29
f 29//29 33//33 30//30
f 36//36 31//31 33//33
f 33//33 31//31 30//30
f 22//22 31//31 36//36
f 18//18 22//22 36//36
f 37//37 38//38 39//39
f 39//39 38//38 40//40
f 41//41 42//42 37//37
f 37//37 42//42 38//38
f 40//40 38//38 19//19
f 19//19 38//38 20//20
f 21//21 20//20 42//42
f 42//42 20//20 38//38
f 22//22 21//21 42//42
f 41//41 22//22 42//42
f 43//43 44//44 45//45
f 45//45 44//44 46//46
f 28//28 47//47 43//43
f 43//43 47//47 44//44
f 46//46 44//44 48//48
f 48//48 44//44 49//49
f 47//47 50//50 44//44
f 44//44 50//50 49//49
f 22//22 50//50 47//47
f 28//28 22//22 47//47
f 51//51 52//52 53//53
f 53//53 52//52 54//54
f 52//52 55//55 54//54
f 54//54 55//55 41//41
f 51//51 48//48 52//52
f 52//52 48//48 49//49
f 55//55 52//52 50//50
f 50//50 52//52 49//49
f 22//22 55//55 50//50
f 41//41 55//55 22//22
f 56//56 13//13 15//15
f 13//13 56//56 57//57
f 16//16 58//58 15//15
f 15//15 58//58 56//56
f 18//18 59//59 16//16
f 16//16 59//59 58//58
f 19//19 13//13 60//60
f 60//60 13//13 57//57
f 25//25 61//61 23//23
f 23//23 61//61 62//62
f 26//26 63//63 25//25
f 25//25 63//63 61//61
f 28//28 64//64 26//26
f 26//26 64//64 63//63
f 29//29 23//23 65//65
f 65//65 23//23 62//62
f 34//34 35//35 66//66
f 66//66 35//35 67//67
f 32//32 34//34 68//68
f 68//68 34//34 66//66
f 18//18 32//32 59//59
f 59//59 32//32 68//68
f 29//29 65//65 35//35
f 35//35 65//65 67//67
f 39//39 40//40 69//69
f 69//69 40//40 70//70
f 37//37 39//39 71//71
f 71//71 39//39 69//69
f 41//41 37//37 72//72
f 72//72 37//37 71//71
f 19//19 60//60 40//40
f 40//40 60//60 70//70
f 45//45 46//46 73//73
f 73//73 46//46 74//74
f 43//43 45//45 75//75
f 75//75 45//45 73//73
f 28//28 43//43 64//64
f 64//64 43//43 75//75
f 48//48 76//76 46//46
f 46//46 76//76 74//74
f 54//54 77//77 53//53
f 53//53 77//77 78//78
f 53//53 78//78 51//51
f 51//51 78//78 79//79
f 41//41 72//72 54//54
f 54//54 72//72 77//77
f 48//48 51//51 76//76
f 76//76 51//51 79//79
f 57//57 56//56 8//8
f 8//8 56//56 9//9
f 56//56 58//58 9//9
f 9//9 58//58 80//80
f 58//58 59//59 80//80
f 80//80 59//59 11//11
f 57//57 8//8 60//60
f 60//60 8//8 7//7
f 62//62 61//61 6//6
f 6//6 61//61 4//4
f 61//61 63//63 4//4
f 4//4 63//63 81//81
f 63//63 64//64 81//81
f 81//81 64//64 12//12
f 65//65 62//62 5//5
f 5//5 62//62 6//6
f 67//67 82//82 66//66
f 66//66 82//82 83//83
f 66//66 83//83 68//68
f 68//68 83//83 84//84
f 68//68 84//84 59//59
f 59//59 84//84 11//11
f 67//67 65//65 82//82
f 82//82 65//65 5//5
f 70//70 85//85 69//69
f 69//69 85//85 86//86
f 69//69 86//86 71//71
f 71//71 86//86 87//87
f 71//71 87//87 72//72
f 72//72 87//87 10//10
f 70//70 60//60 85//85
f 85//85 60//60 7//7
f 74//74 2//2 73//73
f 2//2 1//1 73//73
f 73//73 1//1 75//75
f 75//75 1//1 88//88
f 75//75 88//88 64//64
f 64//64 88//88 12//12
f 76//76 3//3 74//74
f 74//74 3//3 2//2
f 78//78 77//77 89//89
f 89//89 77//77 90//90
f 79//79 78//78 91//91
f 91//91 78//78 89//89
f 77//77 72//72 90//90
f 90//90 72//72 10//10
f 79//79 91//91 76//76
f 76//76 91//91 3//3
f 88//88 90//90 12//12
f 12//12 90//90 10//10
f 88//88 1//1 90//90
f 90//90 1//1 89//89
f 1//1 3//3 89//89
f 89//89 3//3 91//91
f 11//11 84//84 12//12
f 12//12 84//84 81//81
f 81//81 84//84 4//4
f 4//4 84//84 83//83
f 82//82 5//5 83//83
f 83//83 5//5 4//4
f 80//80 11//11 87//87
f 87//87 11//11 10//10
f 9//9 80//80 86//86
f 86//86 80//80 87//87
f 85//85 7//7 86//86
f 86//86 7//7 9//9
