# Blender v2.65 (sub 0) OBJ File: ''
# www.blender.org
o pCylinder1
v -0.752196 0.546503 0.165003
v -0.884259 0.287313 0.165003
v -0.546503 0.752196 0.165003
v -0.287313 0.884259 0.165004
v -0.000000 0.929765 0.165004
v 0.287313 0.884259 0.165004
v 0.546502 0.752196 0.165004
v 0.752196 0.546502 0.165004
v 0.884259 0.287313 0.165004
v 0.929765 0.000000 0.165004
v 0.884259 -0.287313 0.165004
v 0.752196 -0.546502 0.165003
v 0.546502 -0.752196 0.165003
v 0.287313 -0.884259 0.165003
v -0.000000 -0.929765 0.165003
v -0.287313 -0.884259 0.165003
v -0.546502 -0.752196 0.165003
v -0.752196 -0.546502 0.165003
v -0.884259 -0.287313 0.165003
v -0.929765 0.000000 0.165003
vn 0.000000 0.000000 1.000000
s 1
f 6//1 5//1 4//1
f 7//1 6//1 4//1
f 7//1 4//1 3//1
f 8//1 7//1 3//1
f 1//1 8//1 3//1
f 1//1 2//1 8//1
f 2//1 9//1 8//1
f 2//1 10//1 9//1
f 2//1 20//1 10//1
f 20//1 11//1 10//1
f 20//1 19//1 11//1
f 19//1 12//1 11//1
f 19//1 18//1 12//1
f 18//1 13//1 12//1
f 18//1 17//1 13//1
f 17//1 14//1 13//1
f 17//1 16//1 14//1
f 16//1 15//1 14//1
