# Blender v2.65 (sub 0) OBJ File: ''
# www.blender.org
o pSphere3
v 0.020773 0.088430 0.012416
v 0.020773 0.088430 -0.012416
v -0.020277 0.088546 -0.012416
v -0.020277 0.088546 0.012416
v 0.035725 0.029107 0.020619
v 0.035725 0.029106 -0.020619
v 0.029781 0.035641 -0.020619
v 0.029781 0.035641 0.020619
v 0.088431 -0.020772 0.012416
v 0.088431 -0.020773 -0.012416
v 0.088546 0.020276 -0.012416
v 0.088546 0.020276 0.012416
v 0.029381 -0.035725 0.020619
v 0.029381 -0.035725 -0.020619
v 0.035642 -0.029504 -0.020619
v 0.035642 -0.029504 0.020619
v -0.020773 -0.088431 0.012416
v -0.020773 -0.088431 -0.012416
v 0.020277 -0.088546 -0.012416
v 0.020277 -0.088546 0.012416
v -0.035725 -0.029107 0.020619
v -0.035725 -0.029107 -0.020619
v -0.029781 -0.035642 -0.020619
v -0.029781 -0.035642 0.020619
v -0.088431 0.020772 0.012416
v -0.088431 0.020772 -0.012416
v -0.088546 -0.020277 -0.012416
v -0.088546 -0.020276 0.012416
v -0.029381 0.035724 0.020619
v -0.029381 0.035724 -0.020619
v -0.035642 0.029503 -0.020619
v -0.035642 0.029503 0.020619
v 0.000000 0.000000 0.029160
v 0.000000 -0.000000 -0.029160
vn 0.528459 0.660207 0.533677
vn 0.528459 0.660207 -0.533677
vn -0.526200 0.662160 -0.533494
vn -0.526200 0.662160 0.533494
vn 0.403546 0.526170 0.748466
vn 0.403546 0.526170 -0.748497
vn 0.555498 0.381939 -0.738578
vn 0.555467 0.381939 0.738578
vn 0.658925 -0.530259 0.533464
vn 0.658925 -0.530290 -0.533464
vn 0.660878 0.528001 -0.533280
vn 0.660878 0.528001 0.533280
vn 0.539872 -0.394726 0.743431
vn 0.539872 -0.394726 -0.743431
vn 0.391247 -0.542131 -0.743614
vn 0.391247 -0.542131 0.743614
vn -0.528459 -0.660207 0.533677
vn -0.528459 -0.660207 -0.533677
vn 0.526200 -0.662160 -0.533494
vn 0.526200 -0.662160 0.533494
vn -0.403577 -0.526170 0.748497
vn -0.403577 -0.526170 -0.748497
vn -0.555498 -0.381939 -0.738578
vn -0.555498 -0.381939 0.738578
vn -0.658925 0.530259 0.533464
vn -0.658925 0.530259 -0.533464
vn -0.660878 -0.528001 -0.533280
vn -0.660909 -0.528001 0.533280
vn -0.539872 0.394726 0.743431
vn -0.539872 0.394726 -0.743431
vn -0.391247 0.542131 -0.743614
vn -0.391247 0.542131 0.743614
vn 0.000000 0.000000 1.000000
vn 0.000000 0.000000 -1.000000
s 1
f 1//1 2//2 3//3
f 1//1 3//3 4//4
f 5//5 6//6 7//7
f 5//5 7//7 8//8
f 9//9 10//10 11//11
f 9//9 11//11 12//12
f 13//13 14//14 15//15
f 13//13 15//15 16//16
f 17//17 18//18 19//19
f 17//17 19//19 20//20
f 21//21 22//22 23//23
f 21//21 23//23 24//24
f 25//25 26//26 27//27
f 25//25 27//27 28//28
f 29//29 30//30 31//31
f 29//29 31//31 32//32
f 5//5 8//8 33//33
f 13//13 16//16 33//33
f 21//21 24//24 33//33
f 29//29 32//32 33//33
f 7//7 6//6 34//34
f 15//15 14//14 34//34
f 23//23 22//22 34//34
f 31//31 30//30 34//34
f 2//2 1//1 8//8
f 2//2 8//8 7//7
f 30//30 29//29 4//4
f 30//30 4//4 3//3
f 16//16 15//15 10//10
f 16//16 10//10 9//9
f 6//6 5//5 12//12
f 6//6 12//12 11//11
f 24//24 23//23 18//18
f 24//24 18//18 17//17
f 14//14 13//13 20//20
f 14//14 20//20 19//19
f 32//32 31//31 26//26
f 32//32 26//26 25//25
f 22//22 21//21 28//28
f 22//22 28//28 27//27
f 8//8 29//29 33//33
f 16//16 5//5 33//33
f 24//24 13//13 33//33
f 32//32 21//21 33//33
f 30//30 7//7 34//34
f 6//6 15//15 34//34
f 14//14 23//23 34//34
f 22//22 31//31 34//34
f 7//7 30//30 3//3
f 7//7 3//3 2//2
f 1//1 4//4 29//29
f 1//1 29//29 8//8
f 15//15 6//6 11//11
f 15//15 11//11 10//10
f 5//5 16//16 9//9
f 5//5 9//9 12//12
f 23//23 14//14 19//19
f 23//23 19//19 18//18
f 13//13 24//24 17//17
f 13//13 17//17 20//20
f 31//31 22//22 27//27
f 31//31 27//27 26//26
f 21//21 32//32 25//25
f 21//21 25//25 28//28
