# Blender v2.65 (sub 0) OBJ File: ''
# www.blender.org
o pCylinder1
v 0.809018 0.587786 -0.165003
v 0.951057 0.309017 -0.165003
v 0.000000 -0.000000 -0.165003
v 0.587786 0.809017 -0.165003
v 0.309017 0.951057 -0.165004
v 0.000000 1.000000 -0.165004
v -0.309017 0.951057 -0.165004
v -0.587785 0.809017 -0.165004
v -0.809017 0.587785 -0.165004
v -0.951057 0.309017 -0.165004
v -1.000000 -0.000000 -0.165004
v -0.951057 -0.309017 -0.165004
v -0.809017 -0.587785 -0.165003
v -0.587785 -0.809017 -0.165003
v -0.309017 -0.951057 -0.165003
v 0.000000 -1.000000 -0.165003
v 0.309017 -0.951057 -0.165003
v 0.587785 -0.809017 -0.165003
v 0.809017 -0.587785 -0.165003
v 0.951057 -0.309017 -0.165003
v 1.000000 -0.000000 -0.165003
v 0.871802 0.283266 -0.070471
v 0.741599 0.538803 -0.070471
v -0.000000 0.000000 -0.070471
v 0.538803 0.741599 -0.070471
v 0.283266 0.871802 -0.070472
v -0.000000 0.916667 -0.070472
v -0.283266 0.871802 -0.070472
v -0.538803 0.741599 -0.070472
v -0.741599 0.538803 -0.070472
v -0.871802 0.283266 -0.070472
v -0.916667 0.000000 -0.070472
v -0.871802 -0.283266 -0.070472
v -0.741599 -0.538803 -0.070471
v -0.538803 -0.741599 -0.070471
v -0.283266 -0.871802 -0.070471
v -0.000000 -0.916667 -0.070471
v 0.283266 -0.871802 -0.070471
v 0.538803 -0.741599 -0.070471
v 0.741599 -0.538803 -0.070471
v 0.871802 -0.283266 -0.070471
v 0.916667 0.000000 -0.070471
v 0.809018 0.587786 0.130427
v 0.951057 0.309017 0.130427
v 0.587786 0.809017 0.130427
v 0.309017 0.951057 0.130426
v -0.000000 1.000000 0.130426
v -0.309017 0.951057 0.130426
v -0.587785 0.809017 0.130426
v -0.809017 0.587785 0.130426
v -0.951057 0.309017 0.130426
v -1.000000 0.000000 0.130426
v -0.951057 -0.309017 0.130426
v -0.809017 -0.587785 0.130427
v -0.587785 -0.809017 0.130427
v -0.309017 -0.951057 0.130427
v -0.000000 -1.000000 0.130427
v 0.309017 -0.951057 0.130427
v 0.587785 -0.809017 0.130427
v 0.809017 -0.587785 0.130427
v 0.951057 -0.309017 0.130427
v 1.000000 0.000000 0.130427
v 0.871802 0.283266 0.130427
v 0.741599 0.538803 0.130427
v 0.538803 0.741599 0.130427
v 0.283266 0.871802 0.130426
v -0.000000 0.916667 0.130426
v -0.283266 0.871802 0.130426
v -0.538803 0.741599 0.130426
v -0.741599 0.538803 0.130426
v -0.871802 0.283266 0.130426
v -0.916667 0.000000 0.130426
v -0.871802 -0.283266 0.130426
v -0.741599 -0.538803 0.130427
v -0.538803 -0.741599 0.130427
v -0.283266 -0.871802 0.130427
v -0.000000 -0.916667 0.130427
v 0.283266 -0.871802 0.130427
v 0.538803 -0.741599 0.130427
v 0.741599 -0.538803 0.130427
v 0.871802 -0.283266 0.130427
v 0.916667 0.000000 0.130427
vn 0.597980 0.434462 -0.673513
vn 0.702963 0.228401 -0.673513
vn 0.000000 0.000000 -1.000000
vn 0.434462 0.597980 -0.673513
vn 0.228401 0.702963 -0.673513
vn 0.000000 0.739128 -0.673513
vn -0.228401 0.702963 -0.673513
vn -0.434462 0.597980 -0.673513
vn -0.597980 0.434462 -0.673513
vn -0.702963 0.228401 -0.673513
vn -0.739128 0.000000 -0.673513
vn -0.702963 -0.228401 -0.673513
vn -0.597980 -0.434462 -0.673513
vn -0.434462 -0.597980 -0.673513
vn -0.228401 -0.702963 -0.673513
vn 0.000000 -0.739128 -0.673513
vn 0.228401 -0.702963 -0.673513
vn 0.434462 -0.597980 -0.673513
vn 0.597980 -0.434462 -0.673513
vn 0.702963 -0.228401 -0.673513
vn 0.739128 0.000000 -0.673513
vn -0.702963 -0.228401 0.673513
vn -0.597980 -0.434462 0.673513
vn 0.000000 0.000000 1.000000
vn -0.434462 -0.597980 0.673513
vn -0.228401 -0.702963 0.673513
vn 0.000000 -0.739128 0.673513
vn 0.228401 -0.702963 0.673513
vn 0.434462 -0.597980 0.673513
vn 0.597980 -0.434462 0.673513
vn 0.702963 -0.228401 0.673513
vn 0.739128 0.000000 0.673513
vn 0.702963 0.228401 0.673513
vn 0.597980 0.434462 0.673513
vn 0.434462 0.597980 0.673513
vn 0.228401 0.702963 0.673513
vn 0.000000 0.739128 0.673513
vn -0.228401 0.702963 0.673513
vn -0.434462 0.597980 0.673513
vn -0.597980 0.434462 0.673513
vn -0.702963 0.228401 0.673513
vn -0.739128 0.000000 0.673513
vn -0.635395 -0.206427 0.744041
vn -0.540483 -0.392682 0.744041
vn -0.392682 -0.540483 0.744041
vn -0.206427 -0.635395 0.744041
vn 0.000000 -0.668081 0.744041
vn 0.206427 -0.635395 0.744041
vn 0.392682 -0.540483 0.744041
vn 0.540483 -0.392682 0.744041
vn 0.635395 -0.206427 0.744041
vn 0.668081 0.000000 0.744041
vn 0.635395 0.206427 0.744041
vn 0.540483 0.392682 0.744041
vn 0.392682 0.540483 0.744041
vn 0.206427 0.635395 0.744041
vn 0.000000 0.668081 0.744041
vn -0.206427 0.635395 0.744041
vn -0.392682 0.540483 0.744041
vn -0.540483 0.392682 0.744041
vn -0.635395 0.206427 0.744041
vn -0.668081 0.000000 0.744041
s 1
f 1//1 2//2 3//3
f 4//4 1//1 3//3
f 5//5 4//4 3//3
f 6//6 5//5 3//3
f 7//7 6//6 3//3
f 8//8 7//7 3//3
f 9//9 8//8 3//3
f 10//10 9//9 3//3
f 11//11 10//10 3//3
f 12//12 11//11 3//3
f 13//13 12//12 3//3
f 14//14 13//13 3//3
f 15//15 14//14 3//3
f 16//16 15//15 3//3
f 17//17 16//16 3//3
f 18//18 17//17 3//3
f 19//19 18//18 3//3
f 20//20 19//19 3//3
f 21//21 20//20 3//3
f 2//2 21//21 3//3
f 22//22 23//23 24//24
f 23//23 25//25 24//24
f 25//25 26//26 24//24
f 26//26 27//27 24//24
f 27//27 28//28 24//24
f 28//28 29//29 24//24
f 29//29 30//30 24//24
f 30//30 31//31 24//24
f 31//31 32//32 24//24
f 32//32 33//33 24//24
f 33//33 34//34 24//24
f 34//34 35//35 24//24
f 35//35 36//36 24//24
f 36//36 37//37 24//24
f 37//37 38//38 24//24
f 38//38 39//39 24//24
f 39//39 40//40 24//24
f 40//40 41//41 24//24
f 41//41 42//42 24//24
f 42//42 22//22 24//24
f 1//1 43//34 2//2
f 2//2 43//34 44//33
f 45//35 1//1 4//4
f 1//1 45//35 43//34
f 5//5 46//36 4//4
f 4//4 46//36 45//35
f 6//6 47//37 5//5
f 5//5 47//37 46//36
f 7//7 48//38 6//6
f 6//6 48//38 47//37
f 8//8 49//39 7//7
f 7//7 49//39 48//38
f 9//9 50//40 8//8
f 8//8 50//40 49//39
f 10//10 51//41 9//9
f 9//9 51//41 50//40
f 11//11 52//42 10//10
f 10//10 52//42 51//41
f 12//12 53//22 11//11
f 11//11 53//22 52//42
f 13//13 54//23 12//12
f 12//12 54//23 53//22
f 14//14 55//25 13//13
f 13//13 55//25 54//23
f 15//15 56//26 14//14
f 14//14 56//26 55//25
f 16//16 57//27 15//15
f 15//15 57//27 56//26
f 17//17 58//28 16//16
f 16//16 58//28 57//27
f 18//18 59//29 17//17
f 17//17 59//29 58//28
f 19//19 60//30 18//18
f 18//18 60//30 59//29
f 20//20 61//31 19//19
f 19//19 61//31 60//30
f 21//21 62//32 20//20
f 20//20 62//32 61//31
f 2//2 44//33 21//21
f 21//21 44//33 62//32
f 44//33 43//34 63//43
f 63//43 43//34 64//44
f 43//34 45//35 64//44
f 64//44 45//35 65//45
f 45//35 46//36 65//45
f 65//45 46//36 66//46
f 46//36 47//37 66//46
f 66//46 47//37 67//47
f 47//37 48//38 67//47
f 67//47 48//38 68//48
f 48//38 49//39 68//48
f 68//48 49//39 69//49
f 49//39 50//40 69//49
f 69//49 50//40 70//50
f 50//40 51//41 70//50
f 70//50 51//41 71//51
f 51//41 52//42 71//51
f 71//51 52//42 72//52
f 52//42 53//22 72//52
f 72//52 53//22 73//53
f 53//22 54//23 73//53
f 73//53 54//23 74//54
f 54//23 55//25 74//54
f 74//54 55//25 75//55
f 55//25 56//26 75//55
f 75//55 56//26 76//56
f 56//26 57//27 76//56
f 76//56 57//27 77//57
f 57//27 58//28 77//57
f 77//57 58//28 78//58
f 58//28 59//29 78//58
f 78//58 59//29 79//59
f 59//29 60//30 79//59
f 79//59 60//30 80//60
f 60//30 61//31 80//60
f 80//60 61//31 81//61
f 61//31 62//32 81//61
f 81//61 62//32 82//62
f 62//32 44//33 82//62
f 82//62 44//33 63//43
f 63//43 64//44 22//22
f 22//22 64//44 23//23
f 64//44 65//45 23//23
f 23//23 65//45 25//25
f 65//45 66//46 25//25
f 25//25 66//46 26//26
f 66//46 67//47 26//26
f 26//26 67//47 27//27
f 67//47 68//48 27//27
f 27//27 68//48 28//28
f 68//48 69//49 28//28
f 28//28 69//49 29//29
f 69//49 70//50 29//29
f 29//29 70//50 30//30
f 70//50 71//51 30//30
f 30//30 71//51 31//31
f 71//51 72//52 31//31
f 31//31 72//52 32//32
f 72//52 73//53 32//32
f 32//32 73//53 33//33
f 73//53 74//54 33//33
f 33//33 74//54 34//34
f 74//54 75//55 34//34
f 34//34 75//55 35//35
f 75//55 76//56 35//35
f 35//35 76//56 36//36
f 76//56 77//57 36//36
f 36//36 77//57 37//37
f 77//57 78//58 37//37
f 37//37 78//58 38//38
f 78//58 79//59 38//38
f 38//38 79//59 39//39
f 79//59 80//60 39//39
f 39//39 80//60 40//40
f 80//60 81//61 40//40
f 40//40 81//61 41//41
f 81//61 82//62 41//41
f 41//41 82//62 42//42
f 82//62 63//43 42//42
f 42//42 63//43 22//22
