# This file uses centimeters as units for non-parametric coordinates.

mtllib vitamin.mtl
g default
v 0.000000 0.000000 -0.058943
v -0.058943 0.000000 -0.000000
v -0.000000 0.000000 0.058943
v 0.058943 0.000000 0.000000
v 0.000000 0.042735 -0.090946
v -0.090946 0.042735 -0.000000
v -0.000000 0.042735 0.090946
v 0.090946 0.042735 0.000000
v 0.000000 0.026411 -0.126220
v -0.126220 0.026411 -0.000000
v -0.000000 0.026411 0.126220
v 0.126220 0.026411 0.000000
v 0.000000 0.006808 -0.152018
v -0.152018 0.006808 -0.000000
v -0.000000 0.006808 0.152018
v 0.152018 0.006808 0.000000
v 0.000000 -0.007969 -0.075982
v -0.075982 -0.007969 -0.000000
v -0.000000 -0.007969 0.075982
v 0.075982 -0.007969 0.000000
vt 0.529690 0.502892
vt 0.498812 0.533771
vt 0.496095 0.791679
vt 0.200495 0.496079
vt 0.498812 0.472014
vt 0.496095 0.200479
vt 0.467933 0.502892
vt 0.791695 0.496079
vt 0.496095 0.906330
vt 0.085843 0.496079
vt 0.496095 0.085828
vt 0.906346 0.496079
vt 0.498812 0.582530
vt 0.578449 0.502892
vt 0.498812 0.423255
vt 0.419174 0.502892
vt 0.498812 0.542697
vt 0.538616 0.502892
vt 0.498812 0.463087
vt 0.459007 0.502892
vt 0.990197 0.496079
vt 0.496095 0.990181
vt 0.496095 0.001976
vt 0.001992 0.496079
vt 0.687677 0.496079
vt 0.496095 0.687662
vt 0.496095 0.304496
vt 0.304512 0.496079
vn 0.624902 0.467968 0.624902
vn 0.624902 0.467968 0.624902
vn 0.624902 0.467968 0.624902
vn 0.624902 0.467968 0.624902
vn 0.624902 0.467968 -0.624902
vn 0.624902 0.467968 -0.624902
vn 0.624902 0.467968 -0.624902
vn 0.624902 0.467968 -0.624902
vn -0.624902 0.467968 -0.624902
vn -0.624902 0.467968 -0.624902
vn -0.624902 0.467968 -0.624902
vn -0.624902 0.467968 -0.624902
vn -0.624902 0.467968 0.624902
vn -0.624902 0.467968 0.624902
vn -0.624902 0.467968 0.624902
vn -0.624902 0.467968 0.624902
vn -0.387205 0.836746 -0.387205
vn -0.387205 0.836746 -0.387205
vn -0.387205 0.836746 -0.387205
vn -0.387205 0.836746 -0.387205
vn -0.387205 0.836746 0.387205
vn -0.387205 0.836746 0.387205
vn -0.387205 0.836746 0.387205
vn -0.387205 0.836746 0.387205
vn 0.387205 0.836746 0.387205
vn 0.387205 0.836746 0.387205
vn 0.387205 0.836746 0.387205
vn 0.387205 0.836746 0.387205
vn 0.387205 0.836746 -0.387205
vn 0.387205 0.836746 -0.387205
vn 0.387205 0.836746 -0.387205
vn 0.387205 0.836746 -0.387205
vn -0.517650 0.681232 -0.517650
vn -0.517650 0.681232 -0.517650
vn -0.517650 0.681232 -0.517650
vn -0.517650 0.681232 -0.517650
vn -0.517650 0.681232 0.517650
vn -0.517650 0.681232 0.517650
vn -0.517650 0.681232 0.517650
vn -0.517650 0.681232 0.517650
vn 0.517650 0.681232 0.517650
vn 0.517650 0.681232 0.517650
vn 0.517650 0.681232 0.517650
vn 0.517650 0.681232 0.517650
vn 0.517650 0.681232 -0.517650
vn 0.517650 0.681232 -0.517650
vn 0.517650 0.681232 -0.517650
vn 0.517650 0.681232 -0.517650
vn -0.187399 -0.964242 -0.187399
vn -0.187399 -0.964242 -0.187399
vn -0.187399 -0.964242 -0.187399
vn -0.187399 -0.964242 -0.187399
vn -0.187399 -0.964242 0.187399
vn -0.187399 -0.964242 0.187399
vn -0.187399 -0.964242 0.187399
vn -0.187399 -0.964242 0.187399
vn 0.187399 -0.964242 0.187399
vn 0.187399 -0.964242 0.187399
vn 0.187399 -0.964242 0.187399
vn 0.187399 -0.964242 0.187399
vn 0.187399 -0.964242 -0.187399
vn 0.187399 -0.964242 -0.187399
vn 0.187399 -0.964242 -0.187399
vn 0.187399 -0.964242 -0.187399
vn 0.390092 -0.834060 0.390092
vn 0.390092 -0.834060 0.390092
vn 0.390092 -0.834060 0.390092
vn 0.390092 -0.834060 0.390092
vn 0.390092 -0.834060 -0.390092
vn 0.390092 -0.834060 -0.390092
vn 0.390092 -0.834060 -0.390092
vn 0.390092 -0.834060 -0.390092
vn -0.390092 -0.834060 -0.390092
vn -0.390092 -0.834060 -0.390092
vn -0.390092 -0.834060 -0.390092
vn -0.390092 -0.834060 -0.390092
vn -0.390092 -0.834060 0.390092
vn -0.390092 -0.834060 0.390092
vn -0.390092 -0.834060 0.390092
vn -0.390092 -0.834060 0.390092
s off
g pTorus1
usemtl initialShadingGroup
f 2/28/1 1/26/2 5/3/3 6/4/4
f 3/27/5 2/28/6 6/4/7 7/6/8
f 4/25/9 3/27/10 7/6/11 8/8/12
f 1/26/13 4/25/14 8/8/15 5/3/16
f 6/4/17 5/3/18 9/9/19 10/10/20
f 7/6/21 6/4/22 10/10/23 11/11/24
f 8/8/25 7/6/26 11/11/27 12/12/28
f 5/3/29 8/8/30 12/12/31 9/9/32
f 10/10/33 9/9/34 13/22/35 14/24/36
f 11/11/37 10/10/38 14/24/39 15/23/40
f 12/12/41 11/11/42 15/23/43 16/21/44
f 9/9/45 12/12/46 16/21/47 13/22/48
f 14/14/49 13/13/50 17/17/51 18/18/52
f 15/15/53 14/14/54 18/18/55 19/19/56
f 16/16/57 15/15/58 19/19/59 20/20/60
f 13/13/61 16/16/62 20/20/63 17/17/64
f 18/18/65 17/17/66 1/2/67 2/1/68
f 19/19/69 18/18/70 2/1/71 3/5/72
f 20/20/73 19/19/74 3/5/75 4/7/76
f 17/17/77 20/20/78 4/7/79 1/2/80
