<?xml version="1.0" encoding="utf-8"?>
<!-- Generator: Adobe Illustrator 15.0.0, SVG Export Plug-In . SVG Version: 6.00 Build 0)  -->
<!DOCTYPE svg PUBLIC "-//W3C//DTD SVG 1.1//EN" "http://www.w3.org/Graphics/SVG/1.1/DTD/svg11.dtd">
<svg version="1.1" xmlns="http://www.w3.org/2000/svg" xmlns:xlink="http://www.w3.org/1999/xlink" x="0px" y="0px" width="40px"
	 height="40px" viewBox="0 0 40 40" enable-background="new 0 0 40 40" xml:space="preserve">
<g id="Ebene_1">
	<circle fill="#CFCFCF" stroke="#000000" stroke-width="0.5" stroke-miterlimit="10" cx="-40" cy="20" r="14.75"/>
	<g>
		<circle cx="-42.188" cy="21.271" r="6.979"/>
		<circle fill="#D2FFBD" cx="-42.042" cy="20.917" r="5.042"/>
	</g>
	<g>
		<g>
			<path fill="#FF5C5C" d="M-39,21c0,0.553,0.448,1,1,1h2c0.552,0,1-0.447,1-1V11c0-0.552-0.448-1-1-1h-2c-0.552,0-1,0.448-1,1V21z"
				/>
		</g>
		<g>
			<path fill="#FF5C5C" d="M-43,17c0,0.552,0.448,1,1,1h10c0.552,0,1-0.448,1-1v-2c0-0.552-0.448-1-1-1h-10c-0.552,0-1,0.448-1,1V17
				z"/>
		</g>
	</g>
</g>
<g id="Ebene_1_Kopie">
	<circle fill="#2DE081" stroke="#000000" stroke-width="0.5" stroke-miterlimit="10" cx="20" cy="20" r="19.75"/>
	<polygon points="19.093,3.417 19.757,15.859 23.034,4.168 21.031,16.355 26.656,6.364 22.146,17.307 29.663,9.826 23.017,18.64 
		31.814,14.271 23.568,20.242 32.937,19.343 23.756,21.986 28.411,24.049 23.568,23.729 27.773,27.694 23.017,25.332 25.691,30.19 
		22.146,26.665 23.732,32.413 21.031,27.617 21.198,33.254 19.757,28.113 19.093,33.678 18.431,28.113 17.054,33.026 17.157,27.617 
		14.481,32.37 16.041,26.665 11.857,30.83 15.171,25.332 9.9,28.321 14.619,23.729 8.572,24.31 14.433,21.986 5.25,19.343 
		14.619,20.242 6.373,14.271 15.171,18.64 8.523,9.826 16.041,17.307 11.531,6.364 17.157,16.355 15.153,4.168 18.431,15.859 	"/>
	<g>
		<circle cx="19.093" cy="23.698" r="10.302"/>
		<circle fill="#D2FFBD" cx="19.308" cy="23.176" r="7.444"/>
	</g>
	<g>
		<g>
			<path fill="#FF5C5C" d="M24,20c0,0.552,0.447,1,1,1h3c0.553,0,1-0.448,1-1V6c0-0.552-0.447-1-1-1h-3c-0.553,0-1,0.448-1,1V20z"/>
		</g>
		<g>
			<path fill="#FF5C5C" d="M18.5,14c0,0.552,0.447,1,1,1h14c0.553,0,1-0.448,1-1v-3c0-0.552-0.447-1-1-1h-14c-0.553,0-1,0.448-1,1
				V14z"/>
		</g>
	</g>
</g>
</svg>
