<?xml version="1.0" encoding="utf-8"?>
<!-- Generator: Adobe Illustrator 15.0.0, SVG Export Plug-In  -->
<!DOCTYPE svg PUBLIC "-//W3C//DTD SVG 1.1//EN" "http://www.w3.org/Graphics/SVG/1.1/DTD/svg11.dtd" [
	<!ENTITY ns_flows "http://ns.adobe.com/Flows/1.0/">
]>
<svg version="1.1"
	 xmlns="http://www.w3.org/2000/svg" xmlns:xlink="http://www.w3.org/1999/xlink" xmlns:a="http://ns.adobe.com/AdobeSVGViewerExtensions/3.0/"
	 x="0px" y="0px" width="30px" height="30px" viewBox="0 0 30 30" enable-background="new 0 0 30 30" xml:space="preserve">
<defs>
</defs>
<circle fill="#CFCFCF" stroke="#000000" stroke-width="0.5" stroke-miterlimit="10" cx="15" cy="15" r="14.75"/>
<circle cx="12.813" cy="16.271" r="6.979"/>
<circle fill="#D2FFBD" cx="12.958" cy="15.917" r="5.042"/>
<g>
	<path fill="#FF5C5C" d="M16,16c0,0.553,0.448,1,1,1h2c0.552,0,1-0.447,1-1V6c0-0.552-0.448-1-1-1h-2c-0.552,0-1,0.448-1,1V16z"/>
</g>
<g>
	<path fill="#FF5C5C" d="M12,12c0,0.552,0.448,1,1,1h10c0.552,0,1-0.448,1-1v-2c0-0.552-0.448-1-1-1H13c-0.552,0-1,0.448-1,1V12z"/>
</g>
</svg>
