<?xml version="1.0" encoding="utf-8"?>
<!-- Generator: Adobe Illustrator 15.0.0, SVG Export Plug-In . SVG Version: 6.00 Build 0)  -->
<!DOCTYPE svg PUBLIC "-//W3C//DTD SVG 1.1//EN" "http://www.w3.org/Graphics/SVG/1.1/DTD/svg11.dtd">
<svg version="1.1" xmlns="http://www.w3.org/2000/svg" xmlns:xlink="http://www.w3.org/1999/xlink" x="0px" y="0px" width="30px"
	 height="30px" viewBox="0 0 30 30" enable-background="new 0 0 30 30" xml:space="preserve">
<g id="Ebene_1">
	<circle fill="#CFCFCF" stroke="#000000" stroke-width="0.5" stroke-miterlimit="10" cx="15" cy="15" r="14.75"/>
	<g>
		<circle cx="12.813" cy="16.271" r="6.979"/>
		<circle fill="#D2FFBD" cx="12.958" cy="15.917" r="5.042"/>
	</g>
	<g>
		<g>
			<path fill="#FF5C5C" d="M16,16c0,0.553,0.448,1,1,1h2c0.552,0,1-0.447,1-1V6c0-0.552-0.448-1-1-1h-2c-0.552,0-1,0.448-1,1V16z"/>
		</g>
		<g>
			<path fill="#FF5C5C" d="M12,12c0,0.552,0.448,1,1,1h10c0.552,0,1-0.448,1-1v-2c0-0.552-0.448-1-1-1H13c-0.552,0-1,0.448-1,1V12z"
				/>
		</g>
	</g>
</g>
<g id="Ebene_1_Kopie">
	<circle fill="#2DE081" stroke="#000000" stroke-width="0.5" stroke-miterlimit="10" cx="75" cy="15" r="19.75"/>
	<polygon points="74.093,-1.583 74.757,10.859 78.034,-0.832 76.031,11.355 81.656,1.364 77.146,12.307 84.663,4.826 78.017,13.64 
		86.814,9.271 78.568,15.242 87.937,14.343 78.756,16.986 83.411,19.049 78.568,18.729 82.773,22.694 78.017,20.332 80.691,25.19 
		77.146,21.665 78.732,27.413 76.031,22.617 76.198,28.254 74.757,23.113 74.093,28.678 73.431,23.113 72.054,28.026 72.157,22.617 
		69.481,27.37 71.041,21.665 66.857,25.83 70.171,20.332 64.9,23.321 69.619,18.729 63.572,19.31 69.433,16.986 60.25,14.343 
		69.619,15.242 61.373,9.271 70.171,13.64 63.523,4.826 71.041,12.307 66.531,1.364 72.157,11.355 70.153,-0.832 73.431,10.859 	"/>
	<g>
		<circle cx="74.093" cy="18.698" r="10.302"/>
		<circle fill="#D2FFBD" cx="74.308" cy="18.176" r="7.444"/>
	</g>
	<g>
		<g>
			<path fill="#FF5C5C" d="M79,15c0,0.552,0.447,1,1,1h3c0.553,0,1-0.448,1-1V1c0-0.552-0.447-1-1-1h-3c-0.553,0-1,0.448-1,1V15z"/>
		</g>
		<g>
			<path fill="#FF5C5C" d="M73.5,9c0,0.552,0.447,1,1,1h14c0.553,0,1-0.448,1-1V6c0-0.552-0.447-1-1-1h-14c-0.553,0-1,0.448-1,1V9z"
				/>
		</g>
	</g>
</g>
</svg>
