<?xml version="1.0" encoding="utf-8"?>
<!-- Generator: Adobe Illustrator 15.0.0, SVG Export Plug-In . SVG Version: 6.00 Build 0)  -->
<!DOCTYPE svg PUBLIC "-//W3C//DTD SVG 1.1//EN" "http://www.w3.org/Graphics/SVG/1.1/DTD/svg11.dtd">
<svg version="1.1" xmlns="http://www.w3.org/2000/svg" xmlns:xlink="http://www.w3.org/1999/xlink" x="0px" y="0px" width="382px"
	 height="56px" viewBox="0 0 382 56" enable-background="new 0 0 382 56" xml:space="preserve">
<g id="Ebene_1">
	<circle fill="#CFCFCF" stroke="#000000" stroke-width="0.5" stroke-miterlimit="10" cx="143.333" cy="-101.334" r="14.75"/>
	<g>
		<circle cx="141.146" cy="-100.063" r="6.979"/>
		<circle fill="#D2FFBD" cx="141.291" cy="-100.417" r="5.042"/>
	</g>
	<g>
		<g>
			<path fill="#FF5C5C" d="M144.333-100.334c0,0.553,0.448,1,1,1h2c0.552,0,1-0.447,1-1v-10c0-0.552-0.448-1-1-1h-2
				c-0.552,0-1,0.448-1,1V-100.334z"/>
		</g>
		<g>
			<path fill="#FF5C5C" d="M140.333-104.334c0,0.552,0.448,1,1,1h10c0.552,0,1-0.448,1-1v-2c0-0.552-0.448-1-1-1h-10
				c-0.552,0-1,0.448-1,1V-104.334z"/>
		</g>
	</g>
</g>
<g id="Ebene_1_Kopie">
	<circle fill="#26BD6C" stroke="#FF5C5C" stroke-width="0.5" stroke-miterlimit="10" cx="203.333" cy="-101.334" r="19.75"/>
	<polygon points="202.426,-117.917 203.09,-105.475 206.367,-117.166 204.364,-104.979 209.989,-114.97 205.479,-104.027 
		212.996,-111.508 206.35,-102.694 215.147,-107.063 206.901,-101.092 216.27,-101.991 207.089,-99.348 211.744,-97.285 
		206.901,-97.604 211.106,-93.64 206.35,-96.002 209.024,-91.144 205.479,-94.669 207.065,-88.921 204.364,-93.717 204.531,-88.08 
		203.09,-93.221 202.426,-87.656 201.764,-93.221 200.387,-88.308 200.49,-93.717 197.814,-88.964 199.374,-94.669 195.19,-90.504 
		198.504,-96.002 193.233,-93.013 197.952,-97.604 191.905,-97.024 197.766,-99.348 188.583,-101.991 197.952,-101.092 
		189.706,-107.063 198.504,-102.694 191.856,-111.508 199.374,-104.027 194.864,-114.97 200.49,-104.979 198.486,-117.166 
		201.764,-105.475 	"/>
	<g>
		<circle cx="202.426" cy="-97.636" r="10.302"/>
		<circle fill="#D2FFBD" cx="202.641" cy="-98.158" r="7.444"/>
	</g>
	<g>
		<g>
			<path fill="#FF5C5C" d="M207.333-101.334c0,0.552,0.447,1,1,1h3c0.553,0,1-0.448,1-1v-14c0-0.552-0.447-1-1-1h-3
				c-0.553,0-1,0.448-1,1V-101.334z"/>
		</g>
		<g>
			<path fill="#FF5C5C" d="M201.833-107.334c0,0.552,0.447,1,1,1h14c0.553,0,1-0.448,1-1v-3c0-0.552-0.447-1-1-1h-14
				c-0.553,0-1,0.448-1,1V-107.334z"/>
		</g>
	</g>
</g>
<g id="Ebene_3">
	<text transform="matrix(1 0 0 1 3.6665 -35.001)" fill="#26BD6C" font-family="'Yearsupplyoffairycakes'" font-size="44">Connect</text>
	<text transform="matrix(1 0 0 1 6.3335 41.666)" fill="#26BD6C" font-family="'Yearsupplyoffairycakes'" font-size="44">start server</text>
	<text transform="matrix(1 0 0 1 6.3335 117.999)" fill="#26BD6C" font-family="'Yearsupplyoffairycakes'" font-size="44">exit</text>
</g>
</svg>
