<?xml version="1.0" encoding="utf-8"?>
<!-- Generator: Adobe Illustrator 15.1.0, SVG Export Plug-In . SVG Version: 6.00 Build 0)  -->
<!DOCTYPE svg PUBLIC "-//W3C//DTD SVG 1.1//EN" "http://www.w3.org/Graphics/SVG/1.1/DTD/svg11.dtd">
<svg version="1.1" id="Ebene_1" xmlns="http://www.w3.org/2000/svg" xmlns:xlink="http://www.w3.org/1999/xlink" x="0px" y="0px"
	 width="119.619px" height="88.773px" viewBox="0 0 119.619 88.773" enable-background="new 0 0 119.619 88.773"
	 xml:space="preserve">
<g id="Ebene_1_1_">
	<g>
		<path fill="#096D52" d="M217.422,553.602c-2.354,25.016-0.136,31.56,25.864,40.56c21,7,45,8,64-7c10-7,15-14,19-26c5-14,5-16-4-26
			c-22-24-73.153-29.173-91-10C221.247,535.946,218.431,542.881,217.422,553.602z"/>
	</g>
	<g>
		<path fill="#FFFFFF" d="M271.864,521.527c-5,0-13.578,1.635-19.578,3.635c-20,6-37,37-23,53c30,35,121-5,79-44
			C300.286,526.16,271.864,521.527,271.864,521.527z"/>
	</g>
	<g>
		<path fill="#096D52" d="M261.875,568.821c-0.319,0.256-0.368,0.712-0.144,1.366c0.224,0.656,0.08,1.112-0.434,1.368
			c0.063,0.77-0.384,1.576-1.344,2.424c-0.96,0.849-1.811,1.271-2.544,1.271c-0.576,0-1.376-0.416-2.4-1.247
			c-1.022-0.832-1.743-1.248-2.159-1.248c-0.513,0-0.959,0.432-1.345,1.296c0.097,0.189,0.146,0.368,0.146,0.525
			c0,0.354-0.209,0.703-0.625,1.059c-0.607,0.544-0.911,0.849-0.911,0.912c-0.224-0.063-0.464-0.032-0.72,0.096
			c-0.354,0.128-0.595,0.192-0.722,0.192c-0.096,0-0.176-0.02-0.239-0.05c-0.642-0.643-0.959-1.377-0.959-2.209
			c0-0.189,0.03-0.365,0.096-0.525c0.096-0.354,0.384-0.544,0.863-0.576c0.353,0,0.721,0.017,1.104,0.05
			c0.416-1.187,0.624-2.708,0.624-4.564c0-0.354,0-1.313,0-2.887c-0.032-1.15-0.022-2.083,0.022-2.788
			c0.08-0.063,0.121-0.157,0.121-0.285c0-0.064-0.033-0.193-0.097-0.388c-0.063-0.189-0.08-0.337-0.048-0.434
			c0.031-0.384,0.08-0.979,0.145-1.778c-0.018-0.705-0.023-1.764-0.023-3.174c-0.208-0.255-0.232-0.632-0.072-1.128
			c0.16-0.497,0.145-0.856-0.048-1.083c0.096-0.158,0.146-0.416,0.146-0.771c0-0.286,0-0.593,0-0.911c0-0.191,0-0.399,0-0.625
			c0-0.227,0.039-0.567,0.118-1.032c0.08-0.466,0.12-0.826,0.12-1.083c0-0.19-0.041-0.438-0.12-0.744
			c-0.079-0.307-0.118-0.536-0.118-0.696s0.039-0.368,0.118-0.624c0.08-0.257,0.12-0.435,0.12-0.53c0-0.156-0.08-0.304-0.238-0.432
			c0.254-0.16,0.383-0.32,0.383-0.479c0-0.13-0.111-0.347-0.336-0.647c-0.225-0.305-0.287-0.567-0.191-0.793l1.344-0.576
			c-0.256-0.225-0.48-0.785-0.672-1.684c-0.191-0.735-0.527-1.188-1.008-1.349c-0.032-0.096-0.049-0.176-0.049-0.237
			c0-0.191,0.135-0.418,0.4-0.676c0.268-0.257,0.416-0.417,0.448-0.479c0.157-0.03,0.282-0.048,0.376-0.048
			c0.564,0,0.95,0.497,1.154,1.485c0.203,0.992,0.4,1.488,0.59,1.488c0.219,0,0.531-0.225,0.941-0.672
			c-0.063,0.447,0.016,0.735,0.234,0.862c0.408-0.801,1.005-1.2,1.791-1.2c0.689,0,1.366,0.281,2.025,0.842
			c0.66,0.563,1.131,1.248,1.414,2.063s0.563,1.625,0.848,2.425c-0.063,3.842-1.582,6.497-4.561,7.97
			c0.502-0.064,1.004,0.159,1.504,0.672c0.408,0.416,0.813,0.832,1.223,1.248c0.031,0.384,0.345,0.912,0.939,1.584
			c0.596,0.672,0.894,1.216,0.894,1.632c0,0.227-0.032,0.448-0.097,0.672C261.218,562.052,261.875,564.436,261.875,568.821z
			 M259.906,568.821c0.032-0.225,0.048-0.465,0.048-0.722c0-0.318-0.041-0.814-0.12-1.486c-0.08-0.673-0.12-1.185-0.12-1.536
			c0-0.479,0.064-0.88,0.192-1.197c-0.833-1.475-2.24-3.584-4.224-6.338c-0.705,0.386-1.824,0.831-3.36,1.346
			c0,0.896-0.177,2.189-0.528,3.888c0.318,0.479,0.352,1.396,0.096,2.736c-0.257,1.149-0.113,1.889,0.434,2.208l0.287-0.288
			c0.576,0.226,0.863,0.545,0.863,0.96c0,0.189-0.096,0.525-0.287,1.008c-0.191,0.481-0.289,0.833-0.289,1.058l4.514,3.603
			c0.223,0,0.463,0,0.72,0c0.32,0,0.544-0.097,0.672-0.288l-0.286-0.239c0.989-1.184,1.486-2.479,1.486-3.889
			C260.003,569.347,259.97,569.075,259.906,568.821z M257.938,546.214c-0.416-0.991-1.088-1.488-2.017-1.488
			c-0.128,0-0.304,0-0.526,0c-0.226,0-0.4,0-0.528,0c-0.673,0-1.138-0.238-1.392-0.72l0.526,0.813
			c-0.862,0.606-1.438,1.567-1.729,2.88c-0.16,1.15-0.318,2.319-0.479,3.505c0.225,0.514,0.318,1.23,0.288,2.159
			c-0.032,1.248-0.048,1.983-0.048,2.208l-0.24,0.574c0.191,0,0.398-0.016,0.624-0.048c0.256,0.032,0.416,0.146,0.479,0.336
			c0.353-0.223,0.912-0.831,1.681-1.822c0.672-0.832,1.325-1.328,1.968-1.486c1.28-1.762,1.92-3.279,1.92-4.563
			C258.467,547.827,258.29,547.047,257.938,546.214z"/>
		<path fill="#096D52" d="M273.826,573.861c-0.257,0.446-0.656,0.751-1.2,0.91c-0.544,0.16-1.088,0.32-1.632,0.479
			c-0.128-0.259-0.408-0.495-0.841-0.722c-0.432-0.226-0.711-0.447-0.84-0.672c0.03-0.063,0.137-0.226,0.313-0.479
			c0.175-0.26,0.266-0.447,0.266-0.576c0-0.159-0.098-0.288-0.289-0.384c-0.127,0.063-0.785,0.416-1.967,1.056
			c-0.801,0.448-1.459,0.672-1.969,0.672c-0.576,0-1.137-0.188-1.68-0.574c-0.992-0.703-1.488-1.473-1.488-2.306
			c0-1.375,1.439-2.942,4.32-4.704c0.224,0,0.606,0.09,1.152,0.266c0.543,0.179,0.959,0.267,1.247,0.267
			c0.353,0,0.673-0.079,0.959-0.24c-0.097-0.318-0.145-0.688-0.145-1.104c0-0.354,0.04-0.896,0.12-1.635
			c0.078-0.733,0.119-1.276,0.119-1.632c0-1.505-0.688-2.397-2.063-2.688c-0.704,0.159-1.408,0.305-2.11,0.432
			c-0.832,0.161-1.44,0.497-1.824,1.01c0.19,0.19,0.287,0.416,0.287,0.672c0,0.227-0.093,0.547-0.276,0.962
			c-0.185,0.416-0.294,0.702-0.327,0.862l-0.303,0.286c-0.704-0.223-1.09-0.64-1.157-1.248c0-0.604,0-1.215,0-1.822
			c1.356-1.405,3.151-2.354,5.382-2.831l0.582,0.575c1.325,0.256,2.068,0.416,2.23,0.479c0.679,0.319,1.064,0.912,1.164,1.773
			c0.063,0.479,0.031,1.187-0.097,2.11c-0.13,1.023-0.192,1.729-0.192,2.112c0,0.641,0.097,1.199,0.289,1.68
			c-0.608,0.576-0.912,1.44-0.912,2.594c0,0.416,0.111,1.407,0.336,2.979c0.063-0.576,0.72-0.851,1.968-0.816
			C273.729,572.179,273.922,572.932,273.826,573.861z M268.498,569.925c-0.417-0.803-0.912-1.2-1.488-1.2
			c-0.127,0-0.288,0.018-0.479,0.048c-0.414,0.449-0.848,0.882-1.295,1.298c-0.448,0.512-0.769,1.023-0.961,1.534
			c0.226,0,0.426,0.098,0.602,0.288c0.175,0.189,0.343,0.368,0.504,0.526c0.704-0.257,1.416-0.553,2.137-0.889
			C268.233,571.197,268.563,570.659,268.498,569.925z"/>
		<path fill="#096D52" d="M282.467,573.787c-0.225,0.563-0.721,1.179-1.487,1.851c-1.121,0.96-1.729,1.521-1.823,1.681
			c-2.784-0.895-4.24-2.602-4.368-5.122c0.158-0.128,0.238-0.271,0.238-0.433c0-0.158-0.096-0.374-0.286-0.646
			c-0.192-0.271-0.306-0.455-0.337-0.552c0.606-0.988,0.912-2.394,0.912-4.213c0-0.19,0-0.486,0-0.886c0-0.398,0-0.71,0-0.937
			c0-2.646,0.959-4.452,2.879-5.409c0.13,0,0.346-0.057,0.647-0.168c0.306-0.109,0.521-0.168,0.648-0.168
			c0.288,0,0.511,0.178,0.672,0.521l-0.288,0.286c0.514,0.188,0.992,0.634,1.439,1.331c0.449,0.695,0.672,1.347,0.672,1.945
			c0,0.317-0.063,0.588-0.191,0.812c-0.384,0.031-0.752,0.048-1.104,0.048c-0.448,0-0.752-0.174-0.912-0.521
			c0.191-0.126,0.279-0.399,0.264-0.824c-0.016-0.427,0.057-0.7,0.216-0.826c-0.227-0.536-0.503-0.806-0.825-0.806
			c-0.195,0-0.521,0.15-0.975,0.453c-0.455,0.307-0.795,0.475-1.021,0.504c-0.52,0.513-0.776,1.183-0.776,2.012
			c0,0.352,0.071,0.908,0.216,1.674c0.146,0.768,0.217,1.342,0.217,1.725c0,0.513-0.097,0.957-0.287,1.341
			c-0.514,0.098-0.77,0.317-0.77,0.671c0,0.128,0.063,0.364,0.191,0.718c0.127,0.352,0.19,0.622,0.19,0.813
			c0,0.255-0.097,0.463-0.288,0.622l0.288,0.286l-0.239,0.286c0.354,0.129,0.559,0.479,0.625,1.055
			c0.063,0.732,0.174,1.194,0.336,1.391c0.19,0.283,0.397,0.637,0.623,1.052c0.127,0.188,0.239,0.287,0.336,0.287
			c0.127,0,0.496-0.099,1.104-0.288c0.096-0.16,0.36-0.399,0.792-0.72c0.434-0.32,0.648-0.608,0.648-0.864
			c0-0.128-0.05-0.288-0.146-0.479c-0.256-0.479-0.385-0.77-0.385-0.861c-0.031-0.128,0.063-0.467,0.287-1.011l0.192-0.384
			c0.128-0.354,0.255-0.526,0.384-0.526c0.063,0,0.239,0.138,0.527,0.406c0.288,0.271,0.576,0.376,0.864,0.313
			c0.288,0.161,0.433,0.497,0.433,1.008C282.804,572.707,282.688,573.227,282.467,573.787z"/>
		<path fill="#096D52" d="M293.074,571.747c0.03,0.228,0.048,0.448,0.048,0.675c0,0.768-0.254,1.455-0.762,2.063
			c-0.508,0.606-1.109,0.91-1.807,0.91c-0.384,0-0.746-0.096-1.097-0.287c-1.079-0.575-1.617-2.225-1.617-4.943
			c0-0.8-0.391-1.773-1.171-2.928l-0.279,3.118c-0.031,0.514-0.171,1.169-0.421,1.97c-0.063,0.16-0.096,0.367-0.096,0.624
			c0,0.127,0,0.307,0,0.526c0,0.19,0,0.354,0,0.479c0,0.643-0.274,0.96-0.831,0.96c-0.164,0-0.393-0.029-0.686-0.096
			c-0.098,0.063-0.195,0.096-0.293,0.096c-0.164,0-0.312-0.128-0.439-0.384c-0.229-0.317-0.357-0.497-0.393-0.525
			c0.961-1.091,1.44-2.031,1.44-2.832c0-0.387-0.112-0.751-0.336-1.104c0.317-1.149,0.548-2.575,0.688-4.271
			c0.105-1.44,0.213-2.882,0.317-4.32c0.162-0.991,0.339-2.496,0.527-4.512c0-0.063,0-1.584,0-4.563
			c0.032-1.792,0.176-3.297,0.434-4.514c-0.258-0.256-0.313-0.631-0.168-1.128c0.144-0.495,0.104-0.871-0.12-1.128l-1.681-0.527
			c-0.129-0.769,0.239-1.149,1.104-1.149c0.416,0,0.705,0.188,0.864,0.574l0.287-0.288c0.769,0.896,1.151,1.744,1.151,2.544
			c0,0.387-0.145,1.019-0.434,1.896c-0.287,0.881-0.432,1.642-0.432,2.28c0,0.733,0.049,1.848,0.145,3.336
			c0.097,1.485,0.146,2.633,0.146,3.433c0.03,0.064,0.049,0.146,0.049,0.239c0,0.161-0.098,0.368-0.289,0.624
			c-0.19,0.257-0.306,0.434-0.336,0.528c0.127,0.188,0.336,0.285,0.625,0.285c0.543,0,0.8,0,0.769,0
			c0.256-0.479,0.664-0.8,1.224-0.96c0.562-0.157,1.097-0.305,1.608-0.434c0.928,0.32,1.487,1.152,1.68,2.496
			c0.16,1.217-0.417,2.385-1.729,3.504c-1.313,1.121-1.968,1.938-1.968,2.448c0,0.189,0.086,0.433,0.265,0.72
			c0.176,0.288,0.295,0.497,0.358,0.624c-0.16,0.161-0.239,0.401-0.239,0.722c0,0.063,0,0.168,0,0.313c0,0.145,0,0.248,0,0.313
			c0,0.447-0.306,0.655-0.912,0.624c0.479,0.159,0.881,0.704,1.2,1.633c0.318,1.058,0.673,1.729,1.056,2.018
			c0.192-0.479,0.367-0.96,0.529-1.438c0.256-0.604,0.559-0.911,0.911-0.911C292.289,571.075,292.657,571.301,293.074,571.747z
			 M290.817,560.515c-0.252-0.127-0.504-0.19-0.758-0.19c-0.377,0-0.854,0.256-1.42,0.771c-0.568,0.513-1.041,0.784-1.423,0.813
			c0.192,0.128,0.288,0.288,0.288,0.479c0,0.129-0.048,0.317-0.145,0.576c-0.096,0.257-0.146,0.464-0.146,0.624
			c0,0.096,0.017,0.189,0.048,0.288c0.247,0.225,0.495,0.336,0.743,0.336c0.312,0,0.683-0.208,1.116-0.624
			c0.559-0.479,0.932-0.751,1.117-0.816l-0.288-0.286c0.03-0.225,0.192-0.536,0.479-0.938
			C290.724,561.148,290.851,560.803,290.817,560.515z"/>
	</g>
</g>
<g id="Ebene_2">
	<g>
		<g>
			<path fill="#1DAC84" d="M233.687,583.057c-1.471,1.472-2.941,2.939-4.414,4.414c-0.319,0.32-0.162,0.769,0.242,0.898
				c0.478,0.158,1.021-0.021,1.365-0.363c1.471-1.474,2.943-2.942,4.414-4.414c0.321-0.32,0.162-0.771-0.24-0.9
				C234.576,582.532,234.03,582.715,233.687,583.057L233.687,583.057z"/>
		</g>
	</g>
	<g>
		<g>
			<path fill="#1DAC84" d="M231.185,580.126c-3.222,0.829-5.58,3.096-8.158,5.061c-0.366,0.28,1.39,0.078,1.738-0.188
				c2.019-1.535,4.034-3.706,6.558-4.354C232.444,580.35,232.304,579.839,231.185,580.126L231.185,580.126z"/>
		</g>
	</g>
	<g>
		<g>
			<path fill="#1DAC84" d="M225.635,577.387c-2.026,1.142-4.151,2.098-6.18,3.236c-0.31,0.175-0.537,0.629-0.144,0.849
				c0.43,0.241,0.979,0.063,1.375-0.155c2.026-1.141,4.15-2.097,6.18-3.237c0.31-0.174,0.537-0.627,0.144-0.849
				C226.58,576.99,226.028,577.167,225.635,577.387L225.635,577.387z"/>
		</g>
	</g>
	<g>
		<g>
			<path fill="#1DAC84" d="M225.272,573.51c-2.09-0.827-4.814,0.938-6.727,1.604c-0.123,0.043-0.861,0.374-0.563,0.604
				c0.314,0.239,0.935,0.033,1.252-0.078c0.771-0.271,1.519-0.591,2.272-0.896c0.646-0.261,1.49-0.718,2.187-0.439
				C224.156,574.488,225.912,573.764,225.272,573.51L225.272,573.51z"/>
		</g>
	</g>
	<g>
		<g>
			<path fill="#1DAC84" d="M223.063,566.472c-2.348-0.438-5.357,0.511-7.573,1.224c-1.157,0.371-0.843,1.619,0.333,1.241
				c1.912-0.614,4.531-1.509,6.553-1.131C223.28,567.975,224.353,566.715,223.063,566.472L223.063,566.472z"/>
		</g>
	</g>
	<g>
		<g>
			<path fill="#1DAC84" d="M223.592,560.094c-1.442-0.271-2.875-0.328-4.339-0.328c-0.449,0-1.02,0.132-1.27,0.552
				c-0.231,0.391,0.197,0.661,0.55,0.661c1.31,0,2.61,0.018,3.901,0.261c0.471,0.089,1.015-0.02,1.364-0.365
				C224.085,560.592,224.021,560.174,223.592,560.094L223.592,560.094z"/>
		</g>
	</g>
	<g>
		<g>
			<path fill="#1DAC84" d="M225.188,551.705c-3.047,0.323-6.17,0.006-9.209-0.293c-0.453-0.045-2.235,0.75-1.235,0.851
				c3.175,0.311,6.44,0.634,9.626,0.295C224.908,552.498,226.461,551.571,225.188,551.705L225.188,551.705z"/>
		</g>
	</g>
	<g>
		<g>
			<path fill="#1DAC84" d="M228.88,546.815c-2.541-0.629-5.096-1.196-7.65-1.766c-0.754-0.167-2.291,0.958-1.14,1.215
				c2.556,0.564,5.11,1.135,7.651,1.767C228.495,548.218,230.031,547.101,228.88,546.815L228.88,546.815z"/>
		</g>
	</g>
	<g>
		<g>
			<path fill="#1DAC84" d="M229.694,541.76c-2.467-0.332-4.463-1.623-6.063-3.489c-0.301-0.352-2.1,0.325-1.821,0.648
				c1.653,1.93,3.756,3.229,6.295,3.57c0.449,0.063,0.94-0.063,1.35-0.253C229.573,542.182,230.144,541.821,229.694,541.76
				L229.694,541.76z"/>
		</g>
	</g>
	<g>
		<g>
			<path fill="#1DAC84" d="M233.69,539.512c-0.058-0.414-0.377-0.728-0.659-1.008c-0.494-0.497-2.326,0.229-1.791,0.768
				c0.223,0.227,0.474,0.432,0.518,0.759C231.851,540.713,233.792,540.261,233.69,539.512L233.69,539.512z"/>
		</g>
	</g>
	<g>
		<g>
			<path fill="#1DAC84" d="M236.563,534.677c-2.143-3.035-4.403-5.977-6.108-9.289c-0.358-0.695-2.239-0.079-1.933,0.519
				c1.75,3.402,4.053,6.429,6.252,9.545C235.173,536.016,237.042,535.354,236.563,534.677L236.563,534.677z"/>
		</g>
	</g>
	<g>
		<g>
			<path fill="#1DAC84" d="M236.179,522.26c-0.738,1.65,0.592,3.733,1.391,5.116c1.048,1.809,2.32,3.508,3.668,5.1
				c0.369,0.437,2.211-0.23,1.808-0.709c-1.305-1.542-2.496-3.179-3.542-4.907c-0.766-1.263-2.084-3.366-1.402-4.889
				C238.308,521.501,236.429,521.7,236.179,522.26L236.179,522.26z"/>
		</g>
	</g>
	<g>
		<g>
			<path fill="#1DAC84" d="M225.56,533.187c-0.955,0.999-1.758-0.066-0.996,0.516c0.293,0.227,0.564,0.479,0.836,0.728
				c0.752,0.684,1.472,1.398,2.195,2.108c1.204,1.183,2.389,2.457,3.776,3.429c0.552,0.385,2.328-0.414,1.526-0.976
				c-1.885-1.313-3.447-3.188-5.104-4.771c-0.86-0.824-2.513-2.745-3.798-1.4C223.198,533.655,225.088,533.68,225.56,533.187
				L225.56,533.187z"/>
		</g>
	</g>
	<g>
		<g>
			<path fill="#1DAC84" d="M241.176,517.664c0.353,3.16,1.263,6.215,3.316,8.691c0.536,0.648,2.379-0.104,1.772-0.834
				c-1.986-2.398-2.818-5.326-3.158-8.376C243.013,516.302,241.075,516.768,241.176,517.664L241.176,517.664z"/>
		</g>
	</g>
	<g>
		<g>
			<path fill="#1DAC84" d="M248.827,516.194c1.363,2.896,1.755,6.014,2.354,9.122c0.137,0.704,2.075,0.225,1.932-0.518
				c-0.598-3.109-0.988-6.229-2.354-9.123C250.429,514.976,248.537,515.578,248.827,516.194L248.827,516.194z"/>
		</g>
	</g>
	<g>
		<g>
			<path fill="#1DAC84" d="M256.185,515.31c0.52,2.727,0.068,5.514,0.588,8.24c0.151,0.798,2.088,0.311,1.933-0.521
				c-0.521-2.727-0.069-5.514-0.588-8.239C257.964,513.994,256.026,514.483,256.185,515.31L256.185,515.31z"/>
		</g>
	</g>
	<g>
		<g>
			<path fill="#1DAC84" d="M263.245,515.463c-0.305,1.852-0.566,3.712-0.588,5.592c-0.01,0.835,1.927,0.436,1.935-0.229
				c0.022-1.88,0.284-3.738,0.589-5.593C265.31,514.445,263.358,514.777,263.245,515.463L263.245,515.463z"/>
		</g>
	</g>
	<g>
		<g>
			<path fill="#1DAC84" d="M274.442,514.338c-0.892,2.319-1.979,4.583-2.354,7.063c-0.073,0.489,1.836,0.141,1.907-0.334
				c0.375-2.479,1.464-4.738,2.354-7.063C276.49,513.633,274.635,513.832,274.442,514.338L274.442,514.338z"/>
		</g>
	</g>
	<g>
		<g>
			<path fill="#1DAC84" d="M280.624,515.521c-1.9,2.528-3.977,5.097-4.708,8.24c-0.089,0.386,1.795,0.105,1.901-0.354
				c0.729-3.146,2.808-5.713,4.709-8.238C282.633,515.03,280.963,515.073,280.624,515.521L280.624,515.521z"/>
		</g>
	</g>
	<g>
		<g>
			<path fill="#1DAC84" d="M286.214,517.281c-1.184,2.042-2.54,3.97-4.042,5.788c-0.394,0.479,1.457,0.212,1.75-0.144
				c1.556-1.886,2.974-3.869,4.198-5.983C288.267,516.689,286.494,516.798,286.214,517.281L286.214,517.281z"/>
		</g>
	</g>
	<g>
		<g>
			<path fill="#1DAC84" d="M293.424,518.601c-1.507,2.109-3.028,4.203-4.709,6.182c-0.791,0.935,1.058,1.204,1.611,0.554
				c1.679-1.979,3.202-4.071,4.709-6.184C295.749,518.155,293.929,517.895,293.424,518.601L293.424,518.601z"/>
		</g>
	</g>
	<g>
		<g>
			<path fill="#1DAC84" d="M298.056,521.863c-1.484,1.767-3.106,3.403-4.871,4.893c-0.791,0.666,1.133,0.45,1.502,0.143
				c1.854-1.563,3.573-3.262,5.137-5.115C300.271,521.242,298.383,521.474,298.056,521.863L298.056,521.863z"/>
		</g>
	</g>
	<g>
		<g>
			<path fill="#1DAC84" d="M307.903,525.302c-2.547,1.601-5.037,3.296-7.195,5.4c-0.439,0.434,1.412,0.225,1.757-0.112
				c2.078-2.03,4.479-3.65,6.931-5.189C310.224,524.881,308.272,525.072,307.903,525.302L307.903,525.302z"/>
		</g>
	</g>
	<g>
		<g>
			<path fill="#1DAC84" d="M312.64,529.205c-2.474,1.237-4.923,2.503-7.277,3.954c-1.111,0.688,0.494,1.35,1.277,0.862
				c2.211-1.363,4.525-2.535,6.851-3.697C314.671,529.733,313.61,528.72,312.64,529.205L312.64,529.205z"/>
		</g>
	</g>
	<g>
		<g>
			<path fill="#1DAC84" d="M321.114,534.652c-3.817,0.653-7.542,1.586-11.139,3.035c-1.227,0.493-0.146,1.639,0.879,1.226
				c3.426-1.382,7.004-2.228,10.639-2.85C322.729,535.851,322.319,534.446,321.114,534.652L321.114,534.652z"/>
		</g>
	</g>
	<g>
		<g>
			<path fill="#1DAC84" d="M325.258,540.034c-3.348,0.626-6.657,1.438-10.006,2.063c-1.218,0.228-0.854,1.46,0.332,1.236
				c3.349-0.625,6.658-1.436,10.006-2.062C326.808,541.048,326.444,539.813,325.258,540.034L325.258,540.034z"/>
		</g>
	</g>
	<g>
		<g>
			<path fill="#1DAC84" d="M326.46,545.792c-1.679,0.276-3.352,0.546-5.057,0.563c-0.424,0.006-1,0.156-1.282,0.498
				c-0.292,0.352,0.249,0.458,0.493,0.455c1.865-0.022,3.701-0.304,5.539-0.608c0.342-0.058,0.981-0.209,1.113-0.6
				C327.396,545.717,326.638,545.761,326.46,545.792L326.46,545.792z"/>
		</g>
	</g>
	<g>
		<g>
			<path fill="#1DAC84" d="M237.347,586.965c-0.326,1.522-0.895,2.97-1.472,4.414c-0.174,0.437,0.63,0.505,0.853,0.479
				c0.447-0.05,0.912-0.258,1.086-0.692c0.578-1.441,1.146-2.891,1.473-4.412C239.457,585.947,237.499,586.244,237.347,586.965
				L237.347,586.965z"/>
		</g>
	</g>
	<g>
		<g>
			<path fill="#1DAC84" d="M240.882,589.763c-0.001,1.573-0.021,3.116-0.578,4.604c-0.164,0.438,1.715,0.217,1.911-0.313
				c0.581-1.553,0.599-3.173,0.599-4.813C242.813,588.855,240.882,589.156,240.882,589.763L240.882,589.763z"/>
		</g>
	</g>
	<g>
		<g>
			<path fill="#1DAC84" d="M248.245,591.715c-0.336,1.479-0.282,3.042-0.008,4.522c0.099,0.527,2.041,0.068,1.933-0.519
				c-0.262-1.415-0.328-2.895-0.007-4.305C250.295,590.842,248.372,591.156,248.245,591.715L248.245,591.715z"/>
		</g>
	</g>
	<g>
		<g>
			<path fill="#1DAC84" d="M256.765,591.953c-0.269,2.028-0.303,4.075,0.303,6.053c0.244,0.798,2.173,0.266,1.933-0.521
				c-0.576-1.88-0.543-3.79-0.287-5.723C258.83,590.868,256.868,591.179,256.765,591.953L256.765,591.953z"/>
		</g>
	</g>
	<g>
		<g>
			<path fill="#1DAC84" d="M262.649,592.538c-0.611,1.785,0.033,3.751,0.598,5.468c0.268,0.813,2.193,0.272,1.932-0.521
				c-0.535-1.626-1.16-3.438-0.58-5.13C264.876,591.55,262.91,591.781,262.649,592.538L262.649,592.538z"/>
		</g>
	</g>
	<g>
		<g>
			<path fill="#1DAC84" d="M266.778,592.706c0.313,2.055,0.959,3.979,1.766,5.889c0.216,0.509,2.102-0.117,1.934-0.521
				c-0.808-1.905-1.451-3.834-1.768-5.887C268.644,591.745,266.696,592.173,266.778,592.706L266.778,592.706z"/>
		</g>
	</g>
	<g>
		<g>
			<path fill="#1DAC84" d="M271.487,591.823c0.063,2.611,1.195,5.246,3.297,6.854c0.461,0.354,2.185-0.404,1.813-0.688
				c-2.055-1.572-3.113-4.134-3.178-6.684C273.408,590.883,271.472,591.211,271.487,591.823L271.487,591.823z"/>
		</g>
	</g>
	<g>
		<g>
			<path fill="#1DAC84" d="M278.565,590.273c-0.543,2.644,0.916,5.063,2.979,6.614c0.408,0.309,2.053-0.469,1.825-0.639
				c-1.938-1.464-3.42-3.83-2.905-6.338C280.542,589.542,278.656,589.83,278.565,590.273L278.565,590.273z"/>
		</g>
	</g>
	<g>
		<g>
			<path fill="#1DAC84" d="M286.495,587.115c0.921,2.41,2.087,4.714,3.893,6.586c0.447,0.464,2.277-0.243,1.799-0.737
				c-1.75-1.814-2.867-4.028-3.758-6.363C288.183,585.953,286.272,586.531,286.495,587.115L286.495,587.115z"/>
		</g>
	</g>
	<g>
		<g>
			<path fill="#1DAC84" d="M292.45,586.945c1.895,1.937,3.402,4.256,5.592,5.886c0.563,0.417,2.341-0.354,1.792-0.765
				c-2.188-1.63-3.699-3.951-5.592-5.886C293.758,585.684,291.924,586.406,292.45,586.945L292.45,586.945z"/>
		</g>
	</g>
	<g>
		<g>
			<path fill="#1DAC84" d="M298.338,584.302c1.606,1.854,3.738,3.105,5.724,4.512c0.549,0.39,2.323-0.406,1.525-0.971
				c-1.898-1.345-3.923-2.539-5.46-4.316C299.661,582.989,297.812,583.694,298.338,584.302L298.338,584.302z"/>
		</g>
	</g>
	<g>
		<g>
			<path fill="#1DAC84" d="M302.899,581.519c2.115,1.228,4.127,2.623,6.367,3.621c0.784,0.352,2.238-0.777,1.121-1.276
				c-2.107-0.938-4.005-2.286-5.994-3.438C303.681,580.009,301.974,580.981,302.899,581.519L302.899,581.519z"/>
		</g>
	</g>
	<g>
		<g>
			<path fill="#1DAC84" d="M308.938,575.498c1.664,1.569,3.758,2.236,5.914,2.854c0.771,0.222,2.285-0.907,1.133-1.237
				c-1.875-0.536-3.816-1.067-5.271-2.44C310.116,574.107,308.289,574.885,308.938,575.498L308.938,575.498z"/>
		</g>
	</g>
	<g>
		<g>
			<path fill="#1DAC84" d="M312.711,571.6c2.815,0.092,5.323,1.365,8.021,2.021c0.733,0.182,2.291-0.913,1.146-1.188
				c-2.847-0.691-5.484-2.002-8.459-2.102C312.571,570.303,311.401,571.557,312.711,571.6L312.711,571.6z"/>
		</g>
	</g>
	<g>
		<g>
			<path fill="#1DAC84" d="M316.217,567.383c2.286,0,4.572,0.01,6.847,0.271c0.473,0.055,0.998-0.048,1.367-0.366
				c0.284-0.248,0.235-0.612-0.18-0.663c-2.42-0.277-4.844-0.313-7.277-0.313C316.269,566.309,314.911,567.383,316.217,567.383
				L316.217,567.383z"/>
		</g>
	</g>
	<g>
		<g>
			<path fill="#1DAC84" d="M318.548,561.295c2.465-0.257,4.932-0.29,7.405-0.29c0.456,0,1.022-0.127,1.266-0.563
				c0.222-0.395-0.188-0.7-0.559-0.7c-2.638,0.001-5.271,0.025-7.897,0.298C317.744,560.141,317.222,561.43,318.548,561.295
				L318.548,561.295z"/>
		</g>
	</g>
	<g>
		<g>
			<path fill="#1DAC84" d="M320.167,556.18c2.82-1.165,5.932-1.354,8.904-1.922c0.768-0.146,1.711-0.979,0.354-0.726
				c-3.327,0.638-6.771,0.895-9.931,2.196C318.229,556.259,319.435,556.483,320.167,556.18L320.167,556.18z"/>
		</g>
	</g>
	<g>
		<g>
			<path fill="#1DAC84" d="M319.528,550.762c0.856,0.853,3.104,0.219,4.111,0.076c2.036-0.289,4.057-0.698,6.084-1.045
				c0.973-0.165,1.549-1.438,0.227-1.211c-1.473,0.25-2.94,0.53-4.416,0.778c-0.814,0.141-1.633,0.265-2.453,0.371
				c-0.313,0.041-1.788,0.214-1.77,0.231C320.774,549.433,318.94,550.179,319.528,550.762L319.528,550.762z"/>
		</g>
	</g>
</g>
<g id="Ebene_3">
</g>
<g>
	<path fill="#086E52" d="M4.06,42.309C1.706,67.324,3.924,73.867,29.924,82.867c21,7,45,8,64-7c10-7,15-14,19-26c5-14,5-16-4-26
		c-22-24-73.153-29.173-91-10C7.885,24.652,5.069,31.586,4.06,42.309z"/>
</g>
<g>
	<path fill="#FFFFFF" d="M58.502,10.233c-5,0-13.578,1.635-19.578,3.635c-20,6-37,37-23,53c30,35,121-5,79-44
		C86.924,14.867,58.502,10.233,58.502,10.233z"/>
</g>
<g enable-background="new    ">
	<path fill="#086E52" d="M48.513,57.526c-0.32,0.256-0.368,0.712-0.144,1.367c0.224,0.656,0.08,1.112-0.432,1.368
		c0.064,0.769-0.384,1.576-1.344,2.424s-1.809,1.272-2.544,1.272c-0.576,0-1.376-0.416-2.4-1.248
		c-1.024-0.832-1.744-1.248-2.16-1.248c-0.512,0-0.96,0.432-1.344,1.296c0.096,0.192,0.144,0.368,0.144,0.528
		c0,0.352-0.208,0.703-0.624,1.056c-0.608,0.544-0.912,0.848-0.912,0.912c-0.224-0.064-0.464-0.032-0.72,0.096
		c-0.353,0.128-0.593,0.192-0.72,0.192c-0.096,0-0.176-0.017-0.24-0.048c-0.641-0.641-0.96-1.376-0.96-2.208
		c0-0.192,0.032-0.368,0.096-0.528c0.096-0.353,0.384-0.544,0.864-0.576c0.352,0,0.72,0.016,1.104,0.049
		c0.416-1.186,0.624-2.708,0.624-4.567c0-0.353,0-1.313,0-2.884c-0.032-1.153-0.024-2.083,0.024-2.788
		c0.08-0.063,0.12-0.16,0.12-0.288c0-0.064-0.032-0.193-0.096-0.385c-0.064-0.192-0.08-0.337-0.048-0.433
		c0.031-0.384,0.08-0.978,0.144-1.779c-0.017-0.705-0.024-1.763-0.024-3.173c-0.208-0.255-0.232-0.632-0.072-1.128
		c0.16-0.497,0.144-0.857-0.048-1.083c0.096-0.159,0.144-0.416,0.144-0.769c0-0.288,0-0.593,0-0.913c0-0.192,0-0.4,0-0.625
		s0.04-0.568,0.12-1.033c0.08-0.465,0.12-0.826,0.12-1.083c0-0.191-0.041-0.439-0.12-0.744c-0.08-0.305-0.12-0.536-0.12-0.697
		c0-0.16,0.04-0.368,0.12-0.624c0.08-0.257,0.12-0.434,0.12-0.53c0-0.159-0.08-0.304-0.24-0.432c0.255-0.16,0.384-0.32,0.384-0.48
		c0-0.129-0.112-0.346-0.336-0.649c-0.224-0.305-0.288-0.568-0.192-0.793l1.344-0.577c-0.256-0.224-0.48-0.785-0.672-1.683
		c-0.192-0.736-0.528-1.186-1.008-1.346c-0.032-0.096-0.048-0.176-0.048-0.24c0-0.192,0.134-0.417,0.401-0.673
		c0.267-0.257,0.416-0.417,0.448-0.481c0.157-0.031,0.282-0.048,0.376-0.048c0.565,0,0.95,0.497,1.154,1.488
		c0.204,0.992,0.401,1.488,0.59,1.488c0.219,0,0.533-0.224,0.942-0.672c-0.063,0.448,0.015,0.736,0.235,0.863
		c0.408-0.799,1.005-1.2,1.791-1.2c0.69,0,1.366,0.281,2.025,0.841c0.66,0.56,1.131,1.248,1.414,2.063
		c0.283,0.816,0.565,1.625,0.848,2.424c-0.062,3.841-1.582,6.497-4.56,7.969c0.501-0.064,1.003,0.16,1.504,0.672
		c0.407,0.416,0.814,0.832,1.222,1.248c0.031,0.384,0.345,0.912,0.94,1.584c0.595,0.672,0.893,1.216,0.893,1.632
		c0,0.224-0.032,0.448-0.096,0.672C47.856,50.758,48.513,53.142,48.513,57.526z M46.544,57.526c0.032-0.224,0.048-0.464,0.048-0.721
		c0-0.319-0.041-0.815-0.12-1.487c-0.08-0.672-0.12-1.184-0.12-1.536c0-0.48,0.064-0.88,0.192-1.2
		c-0.833-1.472-2.24-3.584-4.224-6.336c-0.705,0.384-1.824,0.832-3.36,1.344c0,0.896-0.176,2.192-0.528,3.888
		c0.319,0.48,0.352,1.393,0.096,2.736c-0.257,1.152-0.113,1.889,0.432,2.208l0.288-0.288c0.576,0.225,0.864,0.545,0.864,0.96
		c0,0.192-0.096,0.528-0.288,1.008c-0.192,0.48-0.288,0.833-0.288,1.057l4.512,3.6c0.223,0,0.463,0,0.72,0
		c0.32,0,0.544-0.096,0.672-0.288l-0.288-0.239c0.991-1.184,1.488-2.479,1.488-3.889C46.641,58.053,46.608,57.782,46.544,57.526z
		 M44.577,34.918c-0.417-0.991-1.088-1.488-2.016-1.488c-0.128,0-0.304,0-0.528,0c-0.224,0-0.4,0-0.528,0
		c-0.672,0-1.137-0.239-1.392-0.72l0.528,0.816c-0.864,0.607-1.44,1.568-1.728,2.88c-0.161,1.151-0.32,2.32-0.48,3.504
		c0.224,0.512,0.319,1.232,0.288,2.16c-0.032,1.248-0.048,1.984-0.048,2.208l-0.24,0.575c0.192,0,0.4-0.016,0.624-0.048
		c0.256,0.032,0.416,0.145,0.48,0.336c0.352-0.223,0.912-0.831,1.68-1.823c0.672-0.832,1.327-1.328,1.968-1.488
		c1.28-1.76,1.92-3.28,1.92-4.561C45.104,36.534,44.928,35.751,44.577,34.918z"/>
	<path fill="#086E52" d="M60.464,62.566c-0.256,0.447-0.656,0.751-1.2,0.911c-0.544,0.16-1.088,0.32-1.632,0.48
		c-0.128-0.257-0.408-0.496-0.84-0.72c-0.432-0.225-0.712-0.449-0.84-0.672c0.031-0.064,0.136-0.225,0.312-0.48
		c0.175-0.257,0.264-0.447,0.264-0.576c0-0.159-0.096-0.288-0.288-0.384c-0.128,0.064-0.785,0.416-1.968,1.056
		c-0.8,0.448-1.457,0.672-1.968,0.672c-0.576,0-1.136-0.191-1.68-0.575c-0.992-0.704-1.488-1.472-1.488-2.305
		c0-1.375,1.44-2.943,4.32-4.704c0.224,0,0.607,0.089,1.152,0.265c0.544,0.176,0.96,0.264,1.248,0.264
		c0.352,0,0.672-0.079,0.96-0.24c-0.096-0.319-0.144-0.688-0.144-1.104c0-0.352,0.04-0.896,0.12-1.632
		c0.08-0.736,0.12-1.279,0.12-1.632c0-1.504-0.688-2.4-2.064-2.688c-0.704,0.16-1.409,0.305-2.112,0.432
		c-0.832,0.161-1.44,0.497-1.824,1.009c0.192,0.191,0.288,0.416,0.288,0.672c0,0.224-0.092,0.544-0.277,0.96
		s-0.294,0.704-0.327,0.864l-0.302,0.287c-0.705-0.223-1.091-0.64-1.158-1.248c0-0.607,0-1.215,0-1.823
		c1.357-1.408,3.152-2.353,5.383-2.832l0.582,0.576c1.325,0.256,2.068,0.416,2.23,0.479c0.679,0.32,1.066,0.912,1.164,1.776
		c0.064,0.479,0.031,1.184-0.096,2.111c-0.128,1.024-0.192,1.729-0.192,2.112c0,0.641,0.096,1.2,0.288,1.68
		c-0.608,0.576-0.912,1.44-0.912,2.593c0,0.416,0.112,1.408,0.336,2.976c0.064-0.576,0.72-0.848,1.968-0.816
		C60.368,60.885,60.56,61.638,60.464,62.566z M55.136,58.63c-0.417-0.8-0.912-1.2-1.488-1.2c-0.128,0-0.288,0.017-0.48,0.048
		c-0.416,0.449-0.848,0.881-1.296,1.297c-0.449,0.512-0.768,1.024-0.96,1.535c0.224,0,0.424,0.097,0.6,0.288
		c0.175,0.192,0.343,0.368,0.504,0.528c0.704-0.256,1.416-0.552,2.136-0.888C54.872,59.902,55.2,59.366,55.136,58.63z"/>
	<path fill="#086E52" d="M69.104,62.494c-0.224,0.56-0.72,1.176-1.487,1.848c-1.121,0.96-1.729,1.52-1.824,1.681
		c-2.784-0.895-4.24-2.602-4.368-5.123c0.159-0.127,0.239-0.271,0.239-0.432c0-0.158-0.096-0.374-0.287-0.646
		c-0.192-0.271-0.305-0.455-0.336-0.551c0.607-0.989,0.912-2.394,0.912-4.213c0-0.191,0-0.487,0-0.886c0-0.399,0-0.71,0-0.934
		c0-2.649,0.959-4.452,2.879-5.41c0.129,0,0.344-0.056,0.648-0.167c0.305-0.112,0.52-0.168,0.648-0.168
		c0.287,0,0.512,0.175,0.672,0.522l-0.288,0.286c0.512,0.19,0.991,0.634,1.44,1.331c0.447,0.697,0.672,1.347,0.672,1.948
		c0,0.317-0.064,0.587-0.192,0.809c-0.384,0.031-0.752,0.048-1.104,0.048c-0.447,0-0.752-0.174-0.912-0.521
		c0.193-0.126,0.28-0.401,0.265-0.826c-0.017-0.425,0.056-0.7,0.216-0.826c-0.227-0.536-0.503-0.804-0.827-0.804
		c-0.194,0-0.519,0.151-0.973,0.454c-0.454,0.304-0.795,0.472-1.021,0.503c-0.519,0.511-0.778,1.181-0.778,2.01
		c0,0.351,0.072,0.909,0.216,1.674c0.144,0.767,0.216,1.341,0.216,1.724c0,0.51-0.096,0.957-0.287,1.339
		c-0.513,0.097-0.769,0.319-0.769,0.67c0,0.128,0.063,0.367,0.192,0.718c0.127,0.351,0.191,0.622,0.191,0.813
		c0,0.255-0.096,0.463-0.288,0.622l0.288,0.286l-0.24,0.287c0.352,0.128,0.56,0.479,0.625,1.054
		c0.063,0.733,0.175,1.195,0.336,1.388c0.191,0.286,0.398,0.637,0.623,1.052c0.128,0.191,0.24,0.287,0.336,0.287
		c0.128,0,0.496-0.096,1.104-0.288c0.096-0.16,0.36-0.4,0.792-0.72c0.432-0.32,0.648-0.608,0.648-0.864
		c0-0.128-0.049-0.288-0.145-0.479c-0.256-0.48-0.384-0.769-0.384-0.864c-0.032-0.128,0.063-0.464,0.288-1.008l0.191-0.384
		c0.128-0.353,0.256-0.528,0.385-0.528c0.063,0,0.24,0.137,0.527,0.408c0.288,0.272,0.576,0.376,0.864,0.312
		c0.288,0.161,0.433,0.497,0.433,1.008C69.44,61.414,69.327,61.933,69.104,62.494z"/>
	<path fill="#086E52" d="M79.712,60.454c0.031,0.225,0.048,0.448,0.048,0.672c0,0.768-0.255,1.456-0.761,2.064
		c-0.508,0.607-1.11,0.911-1.809,0.911c-0.381,0-0.745-0.096-1.094-0.287c-1.078-0.576-1.617-2.225-1.617-4.944
		c0-0.8-0.391-1.776-1.172-2.928l-0.281,3.119c-0.031,0.513-0.171,1.169-0.421,1.969c-0.063,0.16-0.094,0.368-0.094,0.624
		c0,0.127,0,0.304,0,0.527c0,0.192,0,0.353,0,0.48c0,0.64-0.277,0.96-0.831,0.96c-0.164,0-0.392-0.032-0.685-0.096
		c-0.098,0.063-0.196,0.096-0.294,0.096c-0.163,0-0.309-0.128-0.439-0.384c-0.229-0.32-0.359-0.497-0.391-0.528
		c0.959-1.088,1.439-2.031,1.439-2.832c0-0.384-0.112-0.751-0.336-1.104c0.318-1.152,0.549-2.576,0.689-4.272
		c0.106-1.44,0.213-2.88,0.318-4.32c0.162-0.991,0.338-2.496,0.528-4.512c0-0.063,0-1.584,0-4.56
		c0.032-1.792,0.175-3.296,0.433-4.513c-0.258-0.256-0.313-0.631-0.168-1.128c0.144-0.495,0.104-0.871-0.121-1.128l-1.68-0.527
		c-0.128-0.769,0.24-1.152,1.104-1.152c0.416,0,0.704,0.191,0.865,0.576l0.287-0.288c0.768,0.896,1.152,1.744,1.152,2.544
		c0,0.384-0.145,1.016-0.432,1.896c-0.289,0.881-0.433,1.641-0.433,2.28c0,0.736,0.048,1.848,0.144,3.336
		c0.097,1.488,0.145,2.633,0.145,3.433c0.031,0.064,0.049,0.144,0.049,0.239c0,0.161-0.097,0.368-0.289,0.624
		c-0.191,0.257-0.305,0.433-0.336,0.528c0.128,0.192,0.336,0.288,0.625,0.288c0.543,0,0.799,0,0.768,0
		c0.256-0.48,0.664-0.8,1.224-0.96s1.096-0.304,1.608-0.433c0.928,0.32,1.488,1.152,1.68,2.496c0.16,1.217-0.416,2.385-1.729,3.504
		c-1.313,1.121-1.967,1.937-1.967,2.448c0,0.192,0.087,0.433,0.264,0.72c0.176,0.288,0.295,0.497,0.359,0.624
		c-0.16,0.161-0.24,0.401-0.24,0.721c0,0.064,0,0.168,0,0.312c0,0.145,0,0.248,0,0.313c0,0.448-0.305,0.656-0.912,0.624
		c0.48,0.16,0.881,0.704,1.201,1.632c0.318,1.056,0.672,1.728,1.056,2.016c0.192-0.479,0.367-0.96,0.528-1.439
		c0.256-0.607,0.559-0.912,0.912-0.912C78.927,59.782,79.296,60.006,79.712,60.454z M77.456,49.221
		c-0.253-0.127-0.506-0.191-0.759-0.191c-0.378,0-0.852,0.256-1.421,0.768c-0.568,0.513-1.042,0.784-1.42,0.816
		c0.191,0.128,0.287,0.288,0.287,0.479c0,0.129-0.048,0.32-0.145,0.576c-0.096,0.257-0.143,0.464-0.143,0.624
		c0,0.096,0.014,0.192,0.046,0.288c0.247,0.225,0.495,0.336,0.745,0.336c0.309,0,0.682-0.208,1.115-0.624
		c0.559-0.479,0.932-0.751,1.117-0.816l-0.288-0.287c0.031-0.224,0.192-0.536,0.479-0.937C77.36,49.854,77.487,49.51,77.456,49.221z
		"/>
</g>
<g>
	<g>
		<path fill="#1AAB83" d="M20.324,71.763c-1.471,1.473-2.943,2.942-4.414,4.414c-0.321,0.319-0.162,0.768,0.241,0.901
			c0.477,0.158,1.022-0.021,1.366-0.367c1.471-1.471,2.943-2.94,4.414-4.414c0.321-0.319,0.162-0.766-0.241-0.899
			C21.214,71.24,20.668,71.42,20.324,71.763L20.324,71.763z"/>
	</g>
</g>
<g>
	<g>
		<path fill="#1AAB83" d="M17.822,68.832c-3.221,0.83-5.579,3.095-8.157,5.06c-0.368,0.28,1.388,0.08,1.737-0.188
			c2.018-1.537,4.035-3.707,6.557-4.356C19.083,69.056,18.942,68.543,17.822,68.832L17.822,68.832z"/>
	</g>
</g>
<g>
	<g>
		<path fill="#1AAB83" d="M12.273,66.094c-2.027,1.141-4.151,2.098-6.18,3.237c-0.31,0.174-0.537,0.627-0.144,0.849
			c0.43,0.239,0.981,0.063,1.375-0.156c2.028-1.142,4.152-2.096,6.18-3.238c0.31-0.174,0.537-0.627,0.144-0.848
			C13.218,65.697,12.666,65.873,12.273,66.094L12.273,66.094z"/>
	</g>
</g>
<g>
	<g>
		<path fill="#1AAB83" d="M11.91,62.217c-2.09-0.825-4.814,0.941-6.725,1.607c-0.123,0.043-0.863,0.373-0.561,0.604
			c0.314,0.239,0.933,0.032,1.252-0.078c0.769-0.269,1.517-0.593,2.272-0.896c0.647-0.26,1.49-0.719,2.186-0.442
			C10.794,63.193,12.55,62.47,11.91,62.217L11.91,62.217z"/>
	</g>
</g>
<g>
	<g>
		<path fill="#1AAB83" d="M9.701,55.179c-2.346-0.439-5.357,0.51-7.573,1.223c-1.157,0.371-0.843,1.619,0.333,1.242
			c1.912-0.615,4.532-1.51,6.553-1.131C9.918,56.681,10.99,55.42,9.701,55.179L9.701,55.179z"/>
	</g>
</g>
<g>
	<g>
		<path fill="#1AAB83" d="M10.23,48.799c-1.442-0.271-2.875-0.326-4.339-0.327c-0.449,0-1.019,0.133-1.269,0.553
			c-0.232,0.389,0.196,0.66,0.549,0.66c1.31,0,2.61,0.018,3.901,0.26c0.471,0.09,1.015-0.018,1.366-0.365
			C10.723,49.297,10.657,48.879,10.23,48.799L10.23,48.799z"/>
	</g>
</g>
<g>
	<g>
		<path fill="#1AAB83" d="M11.826,40.412c-3.047,0.324-6.169,0.003-9.208-0.293c-0.453-0.044-2.236,0.751-1.236,0.85
			c3.175,0.31,6.441,0.633,9.626,0.295C11.546,41.205,13.099,40.277,11.826,40.412L11.826,40.412z"/>
	</g>
</g>
<g>
	<g>
		<path fill="#1AAB83" d="M15.518,35.522c-2.541-0.63-5.096-1.197-7.651-1.767c-0.753-0.167-2.291,0.958-1.139,1.215
			c2.555,0.567,5.11,1.136,7.651,1.766C15.133,36.923,16.669,35.808,15.518,35.522L15.518,35.522z"/>
	</g>
</g>
<g>
	<g>
		<path fill="#1AAB83" d="M16.333,30.466c-2.467-0.333-4.464-1.624-6.064-3.489c-0.301-0.353-2.1,0.326-1.822,0.648
			c1.654,1.93,3.756,3.23,6.295,3.573c0.45,0.061,0.941-0.065,1.349-0.253C16.211,30.889,16.781,30.527,16.333,30.466L16.333,30.466
			z"/>
	</g>
</g>
<g>
	<g>
		<path fill="#1AAB83" d="M20.328,28.219c-0.056-0.414-0.377-0.725-0.659-1.008c-0.494-0.497-2.326,0.229-1.791,0.768
			c0.223,0.225,0.474,0.431,0.518,0.758C18.489,29.417,20.43,28.969,20.328,28.219L20.328,28.219z"/>
	</g>
</g>
<g>
	<g>
		<path fill="#1AAB83" d="M23.2,23.382c-2.141-3.035-4.403-5.974-6.108-9.288c-0.358-0.696-2.239-0.08-1.932,0.518
			c1.75,3.404,4.052,6.428,6.251,9.545C21.811,24.723,23.679,24.061,23.2,23.382L23.2,23.382z"/>
	</g>
</g>
<g>
	<g>
		<path fill="#1AAB83" d="M22.817,10.966c-0.739,1.653,0.592,3.736,1.391,5.117c1.046,1.808,2.32,3.506,3.667,5.099
			c0.369,0.436,2.21-0.232,1.807-0.709c-1.305-1.542-2.496-3.18-3.542-4.907c-0.765-1.263-2.084-3.368-1.404-4.891
			C24.946,10.206,23.067,10.407,22.817,10.966L22.817,10.966z"/>
	</g>
</g>
<g>
	<g>
		<path fill="#1AAB83" d="M12.198,21.894c-0.956,1-1.758-0.068-0.996,0.515c0.293,0.224,0.564,0.478,0.836,0.725
			c0.751,0.684,1.47,1.401,2.195,2.111c1.204,1.18,2.388,2.457,3.776,3.425c0.552,0.386,2.328-0.414,1.527-0.972
			c-1.885-1.315-3.448-3.189-5.104-4.771c-0.861-0.824-2.513-2.745-3.798-1.401C9.836,22.361,11.726,22.387,12.198,21.894
			L12.198,21.894z"/>
	</g>
</g>
<g>
	<g>
		<path fill="#1AAB83" d="M27.813,6.371c0.352,3.16,1.262,6.212,3.316,8.692c0.537,0.647,2.379-0.103,1.773-0.834
			c-1.987-2.399-2.818-5.328-3.158-8.376C29.651,5.007,27.713,5.475,27.813,6.371L27.813,6.371z"/>
	</g>
</g>
<g>
	<g>
		<path fill="#1AAB83" d="M35.465,4.9c1.364,2.895,1.755,6.013,2.354,9.123c0.136,0.704,2.075,0.224,1.932-0.519
			c-0.599-3.109-0.99-6.229-2.354-9.123C37.067,3.683,35.175,4.285,35.465,4.9L35.465,4.9z"/>
	</g>
</g>
<g>
	<g>
		<path fill="#1AAB83" d="M42.822,4.017c0.519,2.725,0.069,5.513,0.588,8.239c0.152,0.799,2.089,0.311,1.932-0.518
			c-0.519-2.725-0.069-5.513-0.588-8.24C44.602,2.701,42.665,3.189,42.822,4.017L42.822,4.017z"/>
	</g>
</g>
<g>
	<g>
		<path fill="#1AAB83" d="M49.883,4.167c-0.305,1.853-0.567,3.712-0.588,5.592c-0.01,0.837,1.927,0.436,1.935-0.229
			c0.022-1.88,0.284-3.74,0.588-5.592C51.947,3.151,49.996,3.483,49.883,4.167L49.883,4.167z"/>
	</g>
</g>
<g>
	<g>
		<path fill="#1AAB83" d="M61.079,3.042c-0.889,2.323-1.979,4.583-2.354,7.063c-0.074,0.49,1.836,0.14,1.907-0.334
			c0.374-2.479,1.465-4.74,2.354-7.063C63.128,2.339,61.272,2.54,61.079,3.042L61.079,3.042z"/>
	</g>
</g>
<g>
	<g>
		<path fill="#1AAB83" d="M67.263,4.228c-1.902,2.526-3.978,5.095-4.709,8.24c-0.09,0.385,1.795,0.106,1.902-0.354
			c0.73-3.145,2.807-5.712,4.708-8.24C69.271,3.736,67.601,3.779,67.263,4.228L67.263,4.228z"/>
	</g>
</g>
<g>
	<g>
		<path fill="#1AAB83" d="M72.853,5.987c-1.185,2.042-2.541,3.968-4.043,5.788c-0.394,0.477,1.457,0.212,1.75-0.144
			c1.556-1.885,2.973-3.868,4.198-5.983C74.903,5.396,73.133,5.503,72.853,5.987L72.853,5.987z"/>
	</g>
</g>
<g>
	<g>
		<path fill="#1AAB83" d="M80.062,7.308c-1.506,2.109-3.029,4.203-4.709,6.181c-0.791,0.931,1.058,1.204,1.611,0.551
			c1.68-1.978,3.203-4.07,4.709-6.181C82.386,6.861,80.565,6.602,80.062,7.308L80.062,7.308z"/>
	</g>
</g>
<g>
	<g>
		<path fill="#1AAB83" d="M84.692,10.569c-1.483,1.763-3.106,3.405-4.871,4.89c-0.79,0.666,1.134,0.453,1.503,0.143
			c1.854-1.563,3.571-3.263,5.135-5.116C86.909,9.95,85.021,10.181,84.692,10.569L84.692,10.569z"/>
	</g>
</g>
<g>
	<g>
		<path fill="#1AAB83" d="M94.542,14.009c-2.547,1.601-5.037,3.297-7.195,5.404c-0.44,0.431,1.411,0.221,1.758-0.116
			c2.078-2.028,4.477-3.649,6.929-5.189C96.86,13.586,94.91,13.778,94.542,14.009L94.542,14.009z"/>
	</g>
</g>
<g>
	<g>
		<path fill="#1AAB83" d="M99.276,17.913c-2.473,1.237-4.922,2.501-7.276,3.954c-1.112,0.688,0.494,1.347,1.276,0.863
			c2.211-1.364,4.527-2.536,6.85-3.699C101.308,18.44,100.247,17.427,99.276,17.913L99.276,17.913z"/>
	</g>
</g>
<g>
	<g>
		<path fill="#1AAB83" d="M107.752,23.358c-3.817,0.654-7.542,1.585-11.14,3.036c-1.223,0.494-0.146,1.637,0.88,1.225
			c3.426-1.382,7.005-2.226,10.639-2.849C109.367,24.558,108.957,23.151,107.752,23.358L107.752,23.358z"/>
	</g>
</g>
<g>
	<g>
		<path fill="#1AAB83" d="M111.896,28.741c-3.348,0.626-6.658,1.436-10.006,2.061c-1.218,0.228-0.854,1.461,0.332,1.238
			c3.348-0.625,6.658-1.434,10.006-2.06C113.444,29.753,113.083,28.519,111.896,28.741L111.896,28.741z"/>
	</g>
</g>
<g>
	<g>
		<path fill="#1AAB83" d="M113.099,34.497c-1.68,0.279-3.353,0.545-5.058,0.566c-0.424,0.005-0.999,0.156-1.283,0.498
			c-0.291,0.352,0.249,0.459,0.494,0.456c1.865-0.023,3.702-0.305,5.539-0.609c0.342-0.057,0.981-0.209,1.112-0.598
			S113.274,34.469,113.099,34.497L113.099,34.497z"/>
	</g>
</g>
<g>
	<g>
		<path fill="#1AAB83" d="M23.984,75.67c-0.326,1.525-0.894,2.97-1.471,4.414c-0.174,0.437,0.63,0.504,0.852,0.48
			c0.448-0.049,0.913-0.258,1.087-0.693c0.577-1.444,1.146-2.891,1.471-4.414C26.095,74.652,24.137,74.951,23.984,75.67
			L23.984,75.67z"/>
	</g>
</g>
<g>
	<g>
		<path fill="#1AAB83" d="M27.52,78.47c-0.001,1.571-0.021,3.114-0.579,4.606c-0.163,0.435,1.715,0.213,1.912-0.313
			c0.581-1.554,0.598-3.175,0.599-4.812C29.452,77.562,27.52,77.863,27.52,78.47L27.52,78.47z"/>
	</g>
</g>
<g>
	<g>
		<path fill="#1AAB83" d="M34.883,80.42c-0.336,1.479-0.282,3.041-0.007,4.525c0.098,0.527,2.041,0.068,1.932-0.518
			c-0.262-1.416-0.328-2.894-0.007-4.304C36.933,79.547,35.01,79.861,34.883,80.42L34.883,80.42z"/>
	</g>
</g>
<g>
	<g>
		<path fill="#1AAB83" d="M43.403,80.66c-0.269,2.029-0.303,4.076,0.302,6.051c0.244,0.797,2.172,0.267,1.932-0.518
			c-0.576-1.879-0.543-3.791-0.287-5.723C45.468,79.576,43.506,79.886,43.403,80.66L43.403,80.66z"/>
	</g>
</g>
<g>
	<g>
		<path fill="#1AAB83" d="M49.288,81.246c-0.612,1.785,0.032,3.75,0.597,5.465c0.268,0.813,2.193,0.275,1.932-0.518
			c-0.535-1.627-1.161-3.437-0.58-5.129C51.514,80.256,49.548,80.488,49.288,81.246L49.288,81.246z"/>
	</g>
</g>
<g>
	<g>
		<path fill="#1AAB83" d="M53.416,81.414c0.315,2.051,0.959,3.979,1.766,5.885c0.215,0.511,2.101-0.116,1.932-0.518
			c-0.806-1.906-1.45-3.834-1.766-5.885C55.28,80.453,53.333,80.879,53.416,81.414L53.416,81.414z"/>
	</g>
</g>
<g>
	<g>
		<path fill="#1AAB83" d="M58.125,80.531c0.064,2.611,1.196,5.246,3.297,6.854c0.461,0.354,2.185-0.404,1.812-0.689
			c-2.055-1.572-3.113-4.133-3.176-6.682C60.046,79.588,58.109,79.916,58.125,80.531L58.125,80.531z"/>
	</g>
</g>
<g>
	<g>
		<path fill="#1AAB83" d="M65.203,78.98c-0.543,2.643,0.916,5.059,2.979,6.613c0.408,0.309,2.051-0.47,1.825-0.64
			c-1.938-1.461-3.42-3.83-2.905-6.334C67.181,78.248,65.294,78.537,65.203,78.98L65.203,78.98z"/>
	</g>
</g>
<g>
	<g>
		<path fill="#1AAB83" d="M73.134,75.822c0.922,2.41,2.086,4.713,3.893,6.586c0.447,0.463,2.277-0.244,1.799-0.74
			c-1.75-1.813-2.866-4.028-3.76-6.362C74.819,74.66,72.911,75.238,73.134,75.822L73.134,75.822z"/>
	</g>
</g>
<g>
	<g>
		<path fill="#1AAB83" d="M79.089,75.65c1.893,1.934,3.401,4.256,5.592,5.887c0.562,0.416,2.34-0.356,1.791-0.764
			c-2.188-1.631-3.697-3.953-5.592-5.887C80.396,74.39,78.562,75.113,79.089,75.65L79.089,75.65z"/>
	</g>
</g>
<g>
	<g>
		<path fill="#1AAB83" d="M84.976,73.008c1.606,1.855,3.738,3.109,5.723,4.513c0.549,0.389,2.324-0.406,1.527-0.972
			c-1.898-1.344-3.922-2.538-5.461-4.315C86.299,71.695,84.449,72.4,84.976,73.008L84.976,73.008z"/>
	</g>
</g>
<g>
	<g>
		<path fill="#1AAB83" d="M89.538,70.226c2.113,1.227,4.126,2.623,6.365,3.621c0.787,0.35,2.24-0.779,1.121-1.277
			c-2.106-0.939-4.002-2.287-5.992-3.441C90.317,68.715,88.61,69.687,89.538,70.226L89.538,70.226z"/>
	</g>
</g>
<g>
	<g>
		<path fill="#1AAB83" d="M95.577,64.205c1.663,1.57,3.757,2.236,5.912,2.854c0.773,0.223,2.285-0.908,1.133-1.238
			c-1.874-0.535-3.816-1.07-5.27-2.441C96.754,62.812,94.929,63.592,95.577,64.205L95.577,64.205z"/>
	</g>
</g>
<g>
	<g>
		<path fill="#1AAB83" d="M99.349,60.306c2.815,0.092,5.323,1.364,8.021,2.021c0.734,0.178,2.29-0.914,1.145-1.19
			c-2.847-0.693-5.486-2.002-8.459-2.101C99.209,59.01,98.039,60.263,99.349,60.306L99.349,60.306z"/>
	</g>
</g>
<g>
	<g>
		<path fill="#1AAB83" d="M102.854,56.088c2.287,0,4.571,0.011,6.848,0.273c0.471,0.055,0.998-0.047,1.365-0.367
			c0.287-0.248,0.236-0.615-0.178-0.662c-2.421-0.28-4.845-0.313-7.277-0.315C102.905,55.015,101.549,56.088,102.854,56.088
			L102.854,56.088z"/>
	</g>
</g>
<g>
	<g>
		<path fill="#1AAB83" d="M105.187,50c2.463-0.254,4.931-0.291,7.404-0.291c0.456,0,1.021-0.127,1.266-0.563
			c0.223-0.395-0.188-0.701-0.559-0.7c-2.638,0.001-5.271,0.026-7.898,0.297C104.383,48.848,103.858,50.136,105.187,50L105.187,50z"
			/>
	</g>
</g>
<g>
	<g>
		<path fill="#1AAB83" d="M106.806,44.886c2.819-1.164,5.932-1.354,8.902-1.922c0.768-0.146,1.712-0.98,0.357-0.723
			c-3.33,0.635-6.771,0.892-9.931,2.197C104.866,44.965,106.071,45.19,106.806,44.886L106.806,44.886z"/>
	</g>
</g>
<g>
	<g>
		<path fill="#1AAB83" d="M106.167,39.469c0.857,0.851,3.105,0.219,4.109,0.076c2.039-0.29,4.058-0.698,6.086-1.045
			c0.973-0.166,1.549-1.438,0.227-1.212c-1.474,0.251-2.941,0.534-4.416,0.782c-0.814,0.137-1.633,0.261-2.451,0.371
			c-0.313,0.042-1.789,0.214-1.771,0.231C107.412,38.14,105.579,38.886,106.167,39.469L106.167,39.469z"/>
	</g>
</g>
</svg>
