<?xml version="1.0" encoding="utf-8"?>
<!-- Generator: Adobe Illustrator 15.1.0, SVG Export Plug-In . SVG Version: 6.00 Build 0)  -->
<!DOCTYPE svg PUBLIC "-//W3C//DTD SVG 1.1//EN" "http://www.w3.org/Graphics/SVG/1.1/DTD/svg11.dtd">
<svg version="1.1" id="Ebene_1" xmlns="http://www.w3.org/2000/svg" xmlns:xlink="http://www.w3.org/1999/xlink" x="0px" y="0px"
	 width="122.684px" height="65.867px" viewBox="0 0 122.684 65.867" enable-background="new 0 0 122.684 65.867"
	 xml:space="preserve">
<path fill="#086E52" d="M2.927,3.473c-3.381,5.889,2.918,25.189,1.854,29.444c-1.064,4.256-2.7,18.893-1.637,24.209
	c1.064,5.318,1.279,5.699,4.472,6.762c3.191,1.063,76.852,1.391,84.297,0.328c7.445-1.064,28.135,0.603,28.135-5.781
	c0-9.233,2.896-21.962,1.565-26.616c-2.127-7.445-4.206-22.457-2.766-26.601c0.812-2.333-18.189-2.939-26.702-2.939
	c-8.51,0-14.71-1.014-29.928,2.74c-4.572,1.128-11.729-0.3-21.304-0.3s-17.296-2.178-22.065-2.99
	C14.824,1.044,5.108,0.311,2.927,3.473z"/>
<g id="Ebene_2">
</g>
<g id="Ebene_3">
</g>
<g id="Ebene_3_1_">
</g>
<path fill="#086E52" d="M29.394,3072.254c-0.201,0.529-0.66,1.242-1.38,2.139c-1.2-1-1.98-1.5-2.341-1.5
	c-0.32,0-0.72,0.119-1.199,0.359c-1.281,0.721-2.101,1.844-2.46,3.365c-0.562,2.402-0.9,3.746-1.021,4.023
	c0,0.521,0.061,0.973,0.18,1.354c0.12,0.381,0.181,0.592,0.181,0.631c0,0.201-0.36,0.701-1.08,1.502l0.72,0.361v0.721
	c-0.561-0.08-0.92,0.039-1.08,0.361c0.521,1.041,0.78,1.701,0.78,1.98c0,0.158-0.021,0.318-0.061,0.48
	c-0.521,0.199-0.76,0.9-0.72,2.104c0,0.158,0,0.359,0,0.602c0,0.281-0.06,0.693-0.18,1.23c-0.12,0.541-0.18,0.951-0.18,1.23
	c0,0.402,0.102,0.783,0.309,1.143c-0.035,0.441-0.018,1.902,0.051,4.389c0,1.803-0.12,3.266-0.359,4.387
	c0.158,0.922,0.759,2.686,1.8,5.287c-0.12,0.162-0.181,0.342-0.181,0.541c0,0.361,0.301,0.883,0.9,1.563
	c0.6,0.684,0.939,1.143,1.021,1.383c-0.24,0.121-0.36,0.279-0.36,0.479c0,0.119,0.108,0.33,0.33,0.631
	c0.22,0.303,0.35,0.514,0.39,0.633c2.08-0.762,3.459-1.48,4.14-2.158c0.439-0.439,0.66-1.021,0.66-1.74c0-0.08,0-0.17,0-0.271
	c0-0.1,0-0.168,0-0.209c0-0.84,0.261-1.6,0.78-2.279c1.08,0.879,1.62,1.84,1.62,2.879c0,1.32-0.711,2.521-2.13,3.602
	c-1.42,1.08-2.771,1.619-4.05,1.619c-1-0.039-1.92-0.701-2.761-1.98c-1.16-1.764-1.881-2.742-2.159-2.943
	c-1.041-3.443-1.561-7.711-1.561-12.799c0-3.887,0.3-7.592,0.9-11.115c0.239-1.48,0.35-3.123,0.33-4.926
	c-0.021-1.803,0.29-3.467,0.93-4.986c0.438-1.121,1.299-2.605,2.58-4.445c0.919-0.602,1.938-0.9,3.06-0.9
	C27.153,3070.973,28.353,3071.398,29.394,3072.254z"/>
<path fill="#086E52" d="M41.753,3108.41c-0.72,0.48-1.359,1.721-1.92,3.721c-0.479,1.682-1.581,2.721-3.3,3.119
	c-0.28,0.24-0.581,0.361-0.9,0.361c-0.279,0-0.681-0.104-1.199-0.301c-0.521-0.201-0.88-0.32-1.08-0.359
	c-1.24-0.922-1.86-2.182-1.86-3.781c0-0.357,0.04-0.918,0.12-1.68c0.08-0.76,0.12-1.34,0.12-1.74c0-0.479-0.081-0.918-0.24-1.318
	c0.68-0.641,0.873-1.449,0.579-2.432c-0.293-0.979-0.206-1.789,0.261-2.43c-0.081-0.24-0.12-0.479-0.12-0.719
	c0-0.961,0.62-2.143,1.86-3.541c1.239-0.359,2.64-0.48,4.2-0.359c1.24,1.439,2.06,2.879,2.46,4.32c0.56,0.439,0.84,0.939,0.84,1.5
	c0,0.279-0.09,0.688-0.27,1.229c-0.181,0.539-0.271,0.971-0.271,1.289c0,0.4,0.12,0.781,0.36,1.143
	c-0.24,0.08-0.36,0.279-0.36,0.602c0,0.238,0.021,0.479,0.06,0.721L41.753,3108.41z M38.273,3106.012
	c0.16-0.199,0.24-0.42,0.24-0.66s-0.441-0.92-1.32-2.039c0.84-0.721,1.2-1.74,1.08-3.063c-0.72-0.799-1.66-1.117-2.82-0.959
	c-0.88,1.041-1.32,2.361-1.32,3.959c0,0.281,0.021,0.742,0.061,1.381c0.04,0.641,0.06,1.121,0.06,1.439
	c0,1.121-0.146,2.1-0.44,2.939c-0.065,0.199-0.1,0.398-0.1,0.602c0,0.24,0.061,0.57,0.181,0.99s0.18,0.729,0.18,0.93
	c0,0.279-0.12,0.539-0.36,0.779c0.16,0.158,0.33,0.318,0.511,0.479c0.18,0.16,0.25,0.32,0.21,0.48
	c1.159,0.199,2.08-0.119,2.76-0.959c0.04-0.16,0.2-0.621,0.479-1.381c0.199-0.604,0.301-1.08,0.301-1.439
	c0-0.16-0.021-0.32-0.061-0.479c0.036-0.4,0.146-0.781,0.327-1.145c0.182-0.355,0.273-0.619,0.273-0.779
	C38.514,3106.813,38.433,3106.451,38.273,3106.012z"/>
<path fill="#086E52" d="M58.132,3108.652c0.08,0.24,0.121,0.459,0.121,0.66c0,0.355-0.19,0.85-0.569,1.469
	c-0.382,0.621-0.592,1.09-0.632,1.41c-1.118,0.32-2.079,0.479-2.879,0.479c-0.801,0-1.399-0.158-1.8-0.479
	c0-0.439-0.311-1.01-0.93-1.709c-0.621-0.699-0.892-1.313-0.811-1.83c0.279-0.08,0.421-0.201,0.421-0.361
	c0-0.119-0.07-0.299-0.211-0.539s-0.21-0.42-0.21-0.541c0-0.318,0.12-0.789,0.36-1.41c0.24-0.617,0.36-1.088,0.36-1.408
	c0-0.359-0.102-0.721-0.3-1.08c0-0.279,0-0.602,0-0.959c0-0.641-0.12-1.5-0.36-2.58c-0.24-1.32-0.38-2.16-0.42-2.521
	c-1.48,0.4-2.32,1.939-2.521,4.619c-0.12,1.48-0.6,3.143-1.439,4.98c0.08,0.279,0.12,0.6,0.12,0.961c0,0.357-0.07,0.93-0.21,1.709
	c-0.142,0.779-0.21,1.371-0.21,1.77c0,0.602,0.1,1.143,0.3,1.621c-0.041,0.039-0.23,0.248-0.57,0.629s-0.63,0.57-0.87,0.57
	c-0.12,0-0.22-0.039-0.3-0.119c-0.6-0.32-0.8-1.26-0.6-2.82c0.239-1.801,0.198-3-0.12-3.6c-0.041-0.4-0.021-1.141,0.06-2.221
	c0.08-1.279,0.12-2.221,0.12-2.82c0-3.24-0.9-5.119-2.7-5.641c0.04-0.721,0.76-1.539,2.16-2.459c0.96,0.359,1.44,1.119,1.44,2.279
	c0,0.16,0,0.381,0,0.66c0,0.277,0,0.479,0,0.6c0,0.92,0.219,1.643,0.659,2.16c0.16,0.041,0.301,0.061,0.421,0.061
	c0.199,0,0.398-0.141,0.6-0.42l0.42-0.721c-0.2-0.199-0.3-0.439-0.3-0.721c0-0.199,0.219-0.799,0.66-1.799
	c0.278-0.563,0.779-0.949,1.5-1.17c0.72-0.223,1.419-0.41,2.1-0.57c0.879,0.279,1.32,0.76,1.32,1.438
	c0,0.199-0.041,0.512-0.12,0.932c-0.081,0.42-0.12,0.729-0.12,0.93c0,0.563,0.22,1.002,0.66,1.32c0.04,0.318,0.14,1.02,0.3,2.102
	c0.16,0.879,0.24,1.58,0.24,2.1c0,1.121-0.3,2.1-0.9,2.939c0.439,2.121,1.16,3.301,2.16,3.539c0.039-0.078,0.22-0.539,0.54-1.379
	c0.2-0.52,0.5-0.898,0.9-1.141c0.158,0.238,0.519,0.381,1.078,0.42C57.613,3108.031,57.972,3108.252,58.132,3108.652z"/>
<path fill="#086E52" d="M71.632,3108.652c0.08,0.24,0.12,0.459,0.12,0.66c0,0.355-0.189,0.85-0.568,1.469
	c-0.382,0.621-0.593,1.09-0.632,1.41c-1.119,0.32-2.079,0.479-2.88,0.479s-1.399-0.158-1.8-0.479c0-0.439-0.311-1.01-0.93-1.709
	c-0.621-0.699-0.892-1.313-0.812-1.83c0.279-0.08,0.42-0.201,0.42-0.361c0-0.119-0.069-0.299-0.21-0.539s-0.21-0.42-0.21-0.541
	c0-0.318,0.12-0.789,0.359-1.41c0.24-0.617,0.361-1.088,0.361-1.408c0-0.359-0.103-0.721-0.302-1.08c0-0.279,0-0.602,0-0.959
	c0-0.641-0.118-1.5-0.358-2.58c-0.24-1.32-0.381-2.16-0.42-2.521c-1.48,0.4-2.32,1.939-2.521,4.619
	c-0.12,1.48-0.601,3.143-1.439,4.98c0.08,0.279,0.121,0.6,0.121,0.961c0,0.357-0.07,0.93-0.211,1.709
	c-0.142,0.779-0.211,1.371-0.211,1.77c0,0.602,0.101,1.143,0.301,1.621c-0.04,0.039-0.23,0.248-0.57,0.629s-0.629,0.57-0.869,0.57
	c-0.12,0-0.221-0.039-0.301-0.119c-0.6-0.32-0.8-1.26-0.6-2.82c0.239-1.801,0.198-3-0.119-3.6c-0.041-0.4-0.021-1.141,0.06-2.221
	c0.079-1.279,0.12-2.221,0.12-2.82c0-3.24-0.9-5.119-2.7-5.641c0.04-0.721,0.761-1.539,2.159-2.459
	c0.961,0.359,1.441,1.119,1.441,2.279c0,0.16,0,0.381,0,0.66c0,0.277,0,0.479,0,0.6c0,0.92,0.219,1.643,0.658,2.16
	c0.159,0.041,0.301,0.061,0.42,0.061c0.2,0,0.399-0.141,0.602-0.42l0.42-0.721c-0.201-0.199-0.301-0.439-0.301-0.721
	c0-0.199,0.22-0.799,0.66-1.799c0.278-0.563,0.779-0.949,1.5-1.17c0.721-0.223,1.42-0.41,2.1-0.57c0.88,0.279,1.32,0.76,1.32,1.438
	c0,0.199-0.04,0.512-0.119,0.932c-0.081,0.42-0.121,0.729-0.121,0.93c0,0.563,0.221,1.002,0.66,1.32
	c0.04,0.318,0.141,1.02,0.301,2.102c0.159,0.879,0.24,1.58,0.24,2.1c0,1.121-0.301,2.1-0.9,2.939c0.439,2.121,1.16,3.301,2.16,3.539
	c0.039-0.078,0.219-0.539,0.539-1.379c0.2-0.52,0.5-0.898,0.9-1.141c0.159,0.238,0.52,0.381,1.079,0.42
	C71.113,3108.031,71.472,3108.252,71.632,3108.652z"/>
<path fill="#086E52" d="M83.572,3108.473c0.439,0.199,0.66,0.52,0.66,0.959c0,0.92-0.84,1.949-2.521,3.09
	c-1.681,1.141-3.341,1.711-4.979,1.711c-1.281,0-2.28-0.4-3-1.201c0.039-0.357-0.121-0.801-0.48-1.32
	c-0.358-0.518-0.551-0.906-0.569-1.17c-0.021-0.26-0.189-1.129-0.511-2.605c-0.2-1.08-0.261-1.961-0.18-2.645
	c0.039-0.236-0.081-0.479-0.36-0.719c0.279-0.121,0.399-0.459,0.36-1.02c-0.12-0.119-0.18-0.262-0.18-0.42
	c0-0.199,0.198-0.563,0.6-1.08c0.399-0.521,0.601-0.959,0.601-1.318c0.038-1.564,0.061-3.143,0.061-4.74
	c0.24-1.84,0.92-3.18,2.039-4.02c1.439,0.039,2.859,0.857,4.261,2.459c-0.12,0.52,0.021,1.316,0.42,2.396s0.602,1.861,0.602,2.34
	c0,1.32-0.642,1.98-1.92,1.98c-0.281,0-0.791-0.08-1.531-0.24c-0.74-0.158-1.289-0.199-1.649-0.119
	c-0.521,0.08-0.921,0.42-1.2,1.021c-0.681,1.279-0.681,2.799,0,4.559c-0.239,0.082-0.358,0.281-0.358,0.604c0,0.561,0,0.82,0,0.779
	c0.479,0.199,0.72,0.602,0.72,1.197c0,0.361-0.12,0.66-0.359,0.9c1,1.92,1.959,2.881,2.881,2.881c0.438,0,0.879-0.143,1.318-0.42
	c0.561-0.082,1.38-0.66,2.46-1.74c-0.041-0.199-0.18-0.479-0.42-0.84c-0.239-0.361-0.358-0.66-0.358-0.898
	c0-0.723,0.438-1.08,1.318-1.08C81.851,3107.75,82.611,3107.99,83.572,3108.473z M77.572,3098.631c-0.12-0.84-0.261-1.68-0.42-2.52
	c-0.201-1.041-0.761-1.479-1.68-1.32c0.078,0.08,0.118,0.182,0.118,0.301s-0.079,0.301-0.239,0.539c-0.16,0.24-0.24,0.4-0.24,0.48
	c0,0.16,0.121,0.299,0.361,0.42c-0.24,0.08-0.361,0.279-0.361,0.6v0.779c0.2,0.48,0.561,0.721,1.08,0.721
	C76.671,3098.631,77.13,3098.631,77.572,3098.631z"/>
<path fill="#086E52" d="M93.952,3112.461c-0.28,0.699-0.9,1.471-1.86,2.311c-1.399,1.201-2.159,1.898-2.278,2.1
	c-3.479-1.113-5.301-3.25-5.461-6.4c0.198-0.158,0.301-0.342,0.301-0.539s-0.12-0.471-0.36-0.809
	c-0.238-0.34-0.379-0.566-0.42-0.688c0.76-1.236,1.143-2.99,1.143-5.268c0-0.236,0-0.605,0-1.105c0-0.498,0-0.887,0-1.166
	c0-3.314,1.198-5.566,3.6-6.764c0.16,0,0.43-0.068,0.811-0.209c0.38-0.143,0.649-0.209,0.812-0.209c0.359,0,0.64,0.219,0.841,0.65
	l-0.36,0.357c0.642,0.238,1.239,0.791,1.802,1.664c0.56,0.871,0.84,1.684,0.84,2.436c0,0.396-0.08,0.732-0.24,1.014
	c-0.479,0.039-0.938,0.059-1.379,0.059c-0.563,0-0.941-0.217-1.141-0.648c0.238-0.158,0.35-0.502,0.329-1.033
	c-0.021-0.531,0.068-0.875,0.271-1.033c-0.283-0.67-0.629-1.004-1.033-1.004c-0.244,0-0.647,0.189-1.217,0.568
	s-0.994,0.588-1.276,0.627c-0.648,0.639-0.974,1.477-0.974,2.512c0,0.439,0.09,1.139,0.271,2.094
	c0.181,0.957,0.271,1.678,0.271,2.154c0,0.637-0.12,1.195-0.36,1.674c-0.64,0.119-0.959,0.398-0.959,0.838
	c0,0.158,0.079,0.457,0.24,0.896c0.157,0.438,0.239,0.777,0.239,1.016c0,0.32-0.121,0.58-0.36,0.779l0.36,0.357l-0.301,0.357
	c0.438,0.16,0.698,0.6,0.778,1.316c0.08,0.918,0.222,1.492,0.42,1.732c0.24,0.357,0.5,0.797,0.781,1.314
	c0.158,0.238,0.299,0.359,0.42,0.359c0.158,0,0.619-0.121,1.379-0.361c0.121-0.199,0.451-0.5,0.99-0.898
	c0.541-0.4,0.812-0.76,0.812-1.08c0-0.16-0.062-0.359-0.181-0.602c-0.32-0.6-0.479-0.959-0.479-1.08
	c-0.041-0.158,0.08-0.578,0.358-1.26l0.24-0.479c0.16-0.439,0.32-0.66,0.48-0.66c0.079,0,0.299,0.17,0.658,0.51
	c0.358,0.34,0.721,0.471,1.08,0.391c0.358,0.201,0.54,0.621,0.54,1.262C94.372,3111.111,94.23,3111.762,93.952,3112.461z"/>
<path fill="#086E52" d="M104.751,3107.75c0.602,0.521,0.899,1.121,0.899,1.801c0,0.521-0.42,1.561-1.26,3.121
	c-0.643,1.199-1.643,1.801-3,1.801c-0.521,0-1.382-0.143-2.58-0.422c-0.961-1.119-1.521-2.678-1.682-4.68
	c0-0.119-0.021-1.818-0.062-5.1c0.279-0.279,0.398-0.521,0.361-0.721c-0.24-0.08-0.361-0.199-0.361-0.359
	c0-0.039,0.221-0.381,0.66-1.021c-0.039-0.199-0.061-0.42-0.061-0.658c0-0.281,0.069-0.701,0.21-1.262
	c0.142-0.561,0.21-0.959,0.21-1.199c0-0.398-0.12-0.76-0.359-1.08c-0.239,0-0.59,0.09-1.049,0.271c-0.462,0.18-0.791,0.27-0.99,0.27
	c-0.44,0-0.801-0.301-1.08-0.898c0.041-0.602-0.08-0.961-0.359-1.08c0.119-0.879,0.949-1.391,2.488-1.529
	c1.541-0.141,2.312-0.488,2.312-1.051c0-0.398-0.199-0.938-0.601-1.621c0.24-0.076,0.359-0.277,0.359-0.6c0-0.561,0-0.82,0-0.781
	c-0.039-0.197-0.039-0.799,0-1.799c0.039-0.76-0.08-1.34-0.359-1.74c-0.52,0.24-1.221,0.721-2.1,1.439
	c-0.281-0.359-0.42-0.74-0.42-1.141c0-0.359,0.139-0.77,0.42-1.229c0.277-0.461,0.397-0.73,0.358-0.814l-0.358-0.355
	c0.438-0.48,0.998-0.723,1.68-0.723c0.68,0,1.279,0.238,1.801,0.723c0.521,0.479,0.759,1.08,0.72,1.799
	c0.039,1.24,0.061,2.5,0.061,3.781c0,1.559-0.26,2.738-0.778,3.539c0.239,0.041,0.608,0.17,1.108,0.391s0.871,0.33,1.109,0.33
	c0.399,0,0.721-0.24,0.96-0.721c0.601-0.039,0.949,0.07,1.052,0.33c0.1,0.26,0.148,0.49,0.148,0.688
	c0,0.684-0.562,1.303-1.681,1.859c-1.4,0.682-2.182,1.121-2.34,1.32c-0.24,1.121-0.479,2.24-0.722,3.359
	c-0.278,1.32-0.42,2.422-0.42,3.301c0,0.959,0.159,1.898,0.479,2.82c-0.039,0.561,0.062,0.92,0.302,1.08
	c0,0.561-0.021,1.119-0.062,1.68c0.039,0.68,0.301,1.16,0.779,1.439c1.08,0.119,1.721-0.262,1.92-1.143
	c0.079-0.801,0.199-1.607,0.36-2.43C102.991,3107.922,103.63,3107.592,104.751,3107.75z"/>
<path fill="#086E52" d="M29.394,3072.254c-0.201,0.529-0.66,1.242-1.38,2.139c-1.2-1-1.98-1.5-2.341-1.5
	c-0.32,0-0.72,0.119-1.199,0.359c-1.281,0.721-2.101,1.844-2.46,3.365c-0.562,2.402-0.9,3.746-1.021,4.023
	c0,0.521,0.061,0.973,0.18,1.354c0.12,0.381,0.181,0.592,0.181,0.631c0,0.201-0.36,0.701-1.08,1.502l0.72,0.361v0.721
	c-0.561-0.08-0.92,0.039-1.08,0.361c0.521,1.041,0.78,1.701,0.78,1.98c0,0.158-0.021,0.318-0.061,0.48
	c-0.521,0.199-0.76,0.9-0.72,2.104c0,0.158,0,0.359,0,0.602c0,0.281-0.06,0.693-0.18,1.23c-0.12,0.541-0.18,0.951-0.18,1.23
	c0,0.402,0.102,0.783,0.309,1.143c-0.035,0.441-0.018,1.902,0.051,4.389c0,1.803-0.12,3.266-0.359,4.387
	c0.158,0.922,0.759,2.686,1.8,5.287c-0.12,0.162-0.181,0.342-0.181,0.541c0,0.361,0.301,0.883,0.9,1.563
	c0.6,0.684,0.939,1.143,1.021,1.383c-0.24,0.121-0.36,0.279-0.36,0.479c0,0.119,0.108,0.33,0.33,0.631
	c0.22,0.303,0.35,0.514,0.39,0.633c2.08-0.762,3.459-1.48,4.14-2.158c0.439-0.439,0.66-1.021,0.66-1.74c0-0.08,0-0.17,0-0.271
	c0-0.1,0-0.168,0-0.209c0-0.84,0.261-1.6,0.78-2.279c1.08,0.879,1.62,1.84,1.62,2.879c0,1.32-0.711,2.521-2.13,3.602
	c-1.42,1.08-2.771,1.619-4.05,1.619c-1-0.039-1.92-0.701-2.761-1.98c-1.16-1.764-1.881-2.742-2.159-2.943
	c-1.041-3.443-1.561-7.711-1.561-12.799c0-3.887,0.3-7.592,0.9-11.115c0.239-1.48,0.35-3.123,0.33-4.926
	c-0.021-1.803,0.29-3.467,0.93-4.986c0.438-1.121,1.299-2.605,2.58-4.445c0.919-0.602,1.938-0.9,3.06-0.9
	C27.153,3070.973,28.353,3071.398,29.394,3072.254z"/>
<path fill="#086E52" d="M41.753,3108.41c-0.72,0.48-1.359,1.721-1.92,3.721c-0.479,1.682-1.581,2.721-3.3,3.119
	c-0.28,0.24-0.581,0.361-0.9,0.361c-0.279,0-0.681-0.104-1.199-0.301c-0.521-0.201-0.88-0.32-1.08-0.359
	c-1.24-0.922-1.86-2.182-1.86-3.781c0-0.357,0.04-0.918,0.12-1.68c0.08-0.76,0.12-1.34,0.12-1.74c0-0.479-0.081-0.918-0.24-1.318
	c0.68-0.641,0.873-1.449,0.579-2.432c-0.293-0.979-0.206-1.789,0.261-2.43c-0.081-0.24-0.12-0.479-0.12-0.719
	c0-0.961,0.62-2.143,1.86-3.541c1.239-0.359,2.64-0.48,4.2-0.359c1.24,1.439,2.06,2.879,2.46,4.32c0.56,0.439,0.84,0.939,0.84,1.5
	c0,0.279-0.09,0.688-0.27,1.229c-0.181,0.539-0.271,0.971-0.271,1.289c0,0.4,0.12,0.781,0.36,1.143
	c-0.24,0.08-0.36,0.279-0.36,0.602c0,0.238,0.021,0.479,0.06,0.721L41.753,3108.41z M38.273,3106.012
	c0.16-0.199,0.24-0.42,0.24-0.66s-0.441-0.92-1.32-2.039c0.84-0.721,1.2-1.74,1.08-3.063c-0.72-0.799-1.66-1.117-2.82-0.959
	c-0.88,1.041-1.32,2.361-1.32,3.959c0,0.281,0.021,0.742,0.061,1.381c0.04,0.641,0.06,1.121,0.06,1.439
	c0,1.121-0.146,2.1-0.44,2.939c-0.065,0.199-0.1,0.398-0.1,0.602c0,0.24,0.061,0.57,0.181,0.99s0.18,0.729,0.18,0.93
	c0,0.279-0.12,0.539-0.36,0.779c0.16,0.158,0.33,0.318,0.511,0.479c0.18,0.16,0.25,0.32,0.21,0.48
	c1.159,0.199,2.08-0.119,2.76-0.959c0.04-0.16,0.2-0.621,0.479-1.381c0.199-0.604,0.301-1.08,0.301-1.439
	c0-0.16-0.021-0.32-0.061-0.479c0.036-0.4,0.146-0.781,0.327-1.145c0.182-0.355,0.273-0.619,0.273-0.779
	C38.514,3106.813,38.433,3106.451,38.273,3106.012z"/>
<path fill="#086E52" d="M58.132,3108.652c0.08,0.24,0.121,0.459,0.121,0.66c0,0.355-0.19,0.85-0.569,1.469
	c-0.382,0.621-0.592,1.09-0.632,1.41c-1.118,0.32-2.079,0.479-2.879,0.479c-0.801,0-1.399-0.158-1.8-0.479
	c0-0.439-0.311-1.01-0.93-1.709c-0.621-0.699-0.892-1.313-0.811-1.83c0.279-0.08,0.421-0.201,0.421-0.361
	c0-0.119-0.07-0.299-0.211-0.539s-0.21-0.42-0.21-0.541c0-0.318,0.12-0.789,0.36-1.41c0.24-0.617,0.36-1.088,0.36-1.408
	c0-0.359-0.102-0.721-0.3-1.08c0-0.279,0-0.602,0-0.959c0-0.641-0.12-1.5-0.36-2.58c-0.24-1.32-0.38-2.16-0.42-2.521
	c-1.48,0.4-2.32,1.939-2.521,4.619c-0.12,1.48-0.6,3.143-1.439,4.98c0.08,0.279,0.12,0.6,0.12,0.961c0,0.357-0.07,0.93-0.21,1.709
	c-0.142,0.779-0.21,1.371-0.21,1.77c0,0.602,0.1,1.143,0.3,1.621c-0.041,0.039-0.23,0.248-0.57,0.629s-0.63,0.57-0.87,0.57
	c-0.12,0-0.22-0.039-0.3-0.119c-0.6-0.32-0.8-1.26-0.6-2.82c0.239-1.801,0.198-3-0.12-3.6c-0.041-0.4-0.021-1.141,0.06-2.221
	c0.08-1.279,0.12-2.221,0.12-2.82c0-3.24-0.9-5.119-2.7-5.641c0.04-0.721,0.76-1.539,2.16-2.459c0.96,0.359,1.44,1.119,1.44,2.279
	c0,0.16,0,0.381,0,0.66c0,0.277,0,0.479,0,0.6c0,0.92,0.219,1.643,0.659,2.16c0.16,0.041,0.301,0.061,0.421,0.061
	c0.199,0,0.398-0.141,0.6-0.42l0.42-0.721c-0.2-0.199-0.3-0.439-0.3-0.721c0-0.199,0.219-0.799,0.66-1.799
	c0.278-0.563,0.779-0.949,1.5-1.17c0.72-0.223,1.419-0.41,2.1-0.57c0.879,0.279,1.32,0.76,1.32,1.438
	c0,0.199-0.041,0.512-0.12,0.932c-0.081,0.42-0.12,0.729-0.12,0.93c0,0.563,0.22,1.002,0.66,1.32c0.04,0.318,0.14,1.02,0.3,2.102
	c0.16,0.879,0.24,1.58,0.24,2.1c0,1.121-0.3,2.1-0.9,2.939c0.439,2.121,1.16,3.301,2.16,3.539c0.039-0.078,0.22-0.539,0.54-1.379
	c0.2-0.52,0.5-0.898,0.9-1.141c0.158,0.238,0.519,0.381,1.078,0.42C57.613,3108.031,57.972,3108.252,58.132,3108.652z"/>
<path fill="#086E52" d="M71.632,3108.652c0.08,0.24,0.12,0.459,0.12,0.66c0,0.355-0.189,0.85-0.568,1.469
	c-0.382,0.621-0.593,1.09-0.632,1.41c-1.119,0.32-2.079,0.479-2.88,0.479s-1.399-0.158-1.8-0.479c0-0.439-0.311-1.01-0.93-1.709
	c-0.621-0.699-0.892-1.313-0.812-1.83c0.279-0.08,0.42-0.201,0.42-0.361c0-0.119-0.069-0.299-0.21-0.539s-0.21-0.42-0.21-0.541
	c0-0.318,0.12-0.789,0.359-1.41c0.24-0.617,0.361-1.088,0.361-1.408c0-0.359-0.103-0.721-0.302-1.08c0-0.279,0-0.602,0-0.959
	c0-0.641-0.118-1.5-0.358-2.58c-0.24-1.32-0.381-2.16-0.42-2.521c-1.48,0.4-2.32,1.939-2.521,4.619
	c-0.12,1.48-0.601,3.143-1.439,4.98c0.08,0.279,0.121,0.6,0.121,0.961c0,0.357-0.07,0.93-0.211,1.709
	c-0.142,0.779-0.211,1.371-0.211,1.77c0,0.602,0.101,1.143,0.301,1.621c-0.04,0.039-0.23,0.248-0.57,0.629s-0.629,0.57-0.869,0.57
	c-0.12,0-0.221-0.039-0.301-0.119c-0.6-0.32-0.8-1.26-0.6-2.82c0.239-1.801,0.198-3-0.119-3.6c-0.041-0.4-0.021-1.141,0.06-2.221
	c0.079-1.279,0.12-2.221,0.12-2.82c0-3.24-0.9-5.119-2.7-5.641c0.04-0.721,0.761-1.539,2.159-2.459
	c0.961,0.359,1.441,1.119,1.441,2.279c0,0.16,0,0.381,0,0.66c0,0.277,0,0.479,0,0.6c0,0.92,0.219,1.643,0.658,2.16
	c0.159,0.041,0.301,0.061,0.42,0.061c0.2,0,0.399-0.141,0.602-0.42l0.42-0.721c-0.201-0.199-0.301-0.439-0.301-0.721
	c0-0.199,0.22-0.799,0.66-1.799c0.278-0.563,0.779-0.949,1.5-1.17c0.721-0.223,1.42-0.41,2.1-0.57c0.88,0.279,1.32,0.76,1.32,1.438
	c0,0.199-0.04,0.512-0.119,0.932c-0.081,0.42-0.121,0.729-0.121,0.93c0,0.563,0.221,1.002,0.66,1.32
	c0.04,0.318,0.141,1.02,0.301,2.102c0.159,0.879,0.24,1.58,0.24,2.1c0,1.121-0.301,2.1-0.9,2.939c0.439,2.121,1.16,3.301,2.16,3.539
	c0.039-0.078,0.219-0.539,0.539-1.379c0.2-0.52,0.5-0.898,0.9-1.141c0.159,0.238,0.52,0.381,1.079,0.42
	C71.113,3108.031,71.472,3108.252,71.632,3108.652z"/>
<path fill="#086E52" d="M83.572,3108.473c0.439,0.199,0.66,0.52,0.66,0.959c0,0.92-0.84,1.949-2.521,3.09
	c-1.681,1.141-3.341,1.711-4.979,1.711c-1.281,0-2.28-0.4-3-1.201c0.039-0.357-0.121-0.801-0.48-1.32
	c-0.358-0.518-0.551-0.906-0.569-1.17c-0.021-0.26-0.189-1.129-0.511-2.605c-0.2-1.08-0.261-1.961-0.18-2.645
	c0.039-0.236-0.081-0.479-0.36-0.719c0.279-0.121,0.399-0.459,0.36-1.02c-0.12-0.119-0.18-0.262-0.18-0.42
	c0-0.199,0.198-0.563,0.6-1.08c0.399-0.521,0.601-0.959,0.601-1.318c0.038-1.564,0.061-3.143,0.061-4.74
	c0.24-1.84,0.92-3.18,2.039-4.02c1.439,0.039,2.859,0.857,4.261,2.459c-0.12,0.52,0.021,1.316,0.42,2.396s0.602,1.861,0.602,2.34
	c0,1.32-0.642,1.98-1.92,1.98c-0.281,0-0.791-0.08-1.531-0.24c-0.74-0.158-1.289-0.199-1.649-0.119
	c-0.521,0.08-0.921,0.42-1.2,1.021c-0.681,1.279-0.681,2.799,0,4.559c-0.239,0.082-0.358,0.281-0.358,0.604c0,0.561,0,0.82,0,0.779
	c0.479,0.199,0.72,0.602,0.72,1.197c0,0.361-0.12,0.66-0.359,0.9c1,1.92,1.959,2.881,2.881,2.881c0.438,0,0.879-0.143,1.318-0.42
	c0.561-0.082,1.38-0.66,2.46-1.74c-0.041-0.199-0.18-0.479-0.42-0.84c-0.239-0.361-0.358-0.66-0.358-0.898
	c0-0.723,0.438-1.08,1.318-1.08C81.851,3107.75,82.611,3107.99,83.572,3108.473z M77.572,3098.631c-0.12-0.84-0.261-1.68-0.42-2.52
	c-0.201-1.041-0.761-1.479-1.68-1.32c0.078,0.08,0.118,0.182,0.118,0.301s-0.079,0.301-0.239,0.539c-0.16,0.24-0.24,0.4-0.24,0.48
	c0,0.16,0.121,0.299,0.361,0.42c-0.24,0.08-0.361,0.279-0.361,0.6v0.779c0.2,0.48,0.561,0.721,1.08,0.721
	C76.671,3098.631,77.13,3098.631,77.572,3098.631z"/>
<path fill="#086E52" d="M93.952,3112.461c-0.28,0.699-0.9,1.471-1.86,2.311c-1.399,1.201-2.159,1.898-2.278,2.1
	c-3.479-1.113-5.301-3.25-5.461-6.4c0.198-0.158,0.301-0.342,0.301-0.539s-0.12-0.471-0.36-0.809
	c-0.238-0.34-0.379-0.566-0.42-0.688c0.76-1.236,1.143-2.99,1.143-5.268c0-0.236,0-0.605,0-1.105c0-0.498,0-0.887,0-1.166
	c0-3.314,1.198-5.566,3.6-6.764c0.16,0,0.43-0.068,0.811-0.209c0.38-0.143,0.649-0.209,0.812-0.209c0.359,0,0.64,0.219,0.841,0.65
	l-0.36,0.357c0.642,0.238,1.239,0.791,1.802,1.664c0.56,0.871,0.84,1.684,0.84,2.436c0,0.396-0.08,0.732-0.24,1.014
	c-0.479,0.039-0.938,0.059-1.379,0.059c-0.563,0-0.941-0.217-1.141-0.648c0.238-0.158,0.35-0.502,0.329-1.033
	c-0.021-0.531,0.068-0.875,0.271-1.033c-0.283-0.67-0.629-1.004-1.033-1.004c-0.244,0-0.647,0.189-1.217,0.568
	s-0.994,0.588-1.276,0.627c-0.648,0.639-0.974,1.477-0.974,2.512c0,0.439,0.09,1.139,0.271,2.094
	c0.181,0.957,0.271,1.678,0.271,2.154c0,0.637-0.12,1.195-0.36,1.674c-0.64,0.119-0.959,0.398-0.959,0.838
	c0,0.158,0.079,0.457,0.24,0.896c0.157,0.438,0.239,0.777,0.239,1.016c0,0.32-0.121,0.58-0.36,0.779l0.36,0.357l-0.301,0.357
	c0.438,0.16,0.698,0.6,0.778,1.316c0.08,0.918,0.222,1.492,0.42,1.732c0.24,0.357,0.5,0.797,0.781,1.314
	c0.158,0.238,0.299,0.359,0.42,0.359c0.158,0,0.619-0.121,1.379-0.361c0.121-0.199,0.451-0.5,0.99-0.898
	c0.541-0.4,0.812-0.76,0.812-1.08c0-0.16-0.062-0.359-0.181-0.602c-0.32-0.6-0.479-0.959-0.479-1.08
	c-0.041-0.158,0.08-0.578,0.358-1.26l0.24-0.479c0.16-0.439,0.32-0.66,0.48-0.66c0.079,0,0.299,0.17,0.658,0.51
	c0.358,0.34,0.721,0.471,1.08,0.391c0.358,0.201,0.54,0.621,0.54,1.262C94.372,3111.111,94.23,3111.762,93.952,3112.461z"/>
<path fill="#086E52" d="M104.751,3107.75c0.602,0.521,0.899,1.121,0.899,1.801c0,0.521-0.42,1.561-1.26,3.121
	c-0.643,1.199-1.643,1.801-3,1.801c-0.521,0-1.382-0.143-2.58-0.422c-0.961-1.119-1.521-2.678-1.682-4.68
	c0-0.119-0.021-1.818-0.062-5.1c0.279-0.279,0.398-0.521,0.361-0.721c-0.24-0.08-0.361-0.199-0.361-0.359
	c0-0.039,0.221-0.381,0.66-1.021c-0.039-0.199-0.061-0.42-0.061-0.658c0-0.281,0.069-0.701,0.21-1.262
	c0.142-0.561,0.21-0.959,0.21-1.199c0-0.398-0.12-0.76-0.359-1.08c-0.239,0-0.59,0.09-1.049,0.271c-0.462,0.18-0.791,0.27-0.99,0.27
	c-0.44,0-0.801-0.301-1.08-0.898c0.041-0.602-0.08-0.961-0.359-1.08c0.119-0.879,0.949-1.391,2.488-1.529
	c1.541-0.141,2.312-0.488,2.312-1.051c0-0.398-0.199-0.938-0.601-1.621c0.24-0.076,0.359-0.277,0.359-0.6c0-0.561,0-0.82,0-0.781
	c-0.039-0.197-0.039-0.799,0-1.799c0.039-0.76-0.08-1.34-0.359-1.74c-0.52,0.24-1.221,0.721-2.1,1.439
	c-0.281-0.359-0.42-0.74-0.42-1.141c0-0.359,0.139-0.77,0.42-1.229c0.277-0.461,0.397-0.73,0.358-0.814l-0.358-0.355
	c0.438-0.48,0.998-0.723,1.68-0.723c0.68,0,1.279,0.238,1.801,0.723c0.521,0.479,0.759,1.08,0.72,1.799
	c0.039,1.24,0.061,2.5,0.061,3.781c0,1.559-0.26,2.738-0.778,3.539c0.239,0.041,0.608,0.17,1.108,0.391s0.871,0.33,1.109,0.33
	c0.399,0,0.721-0.24,0.96-0.721c0.601-0.039,0.949,0.07,1.052,0.33c0.1,0.26,0.148,0.49,0.148,0.688
	c0,0.684-0.562,1.303-1.681,1.859c-1.4,0.682-2.182,1.121-2.34,1.32c-0.24,1.121-0.479,2.24-0.722,3.359
	c-0.278,1.32-0.42,2.422-0.42,3.301c0,0.959,0.159,1.898,0.479,2.82c-0.039,0.561,0.062,0.92,0.302,1.08
	c0,0.561-0.021,1.119-0.062,1.68c0.039,0.68,0.301,1.16,0.779,1.439c1.08,0.119,1.721-0.262,1.92-1.143
	c0.079-0.801,0.199-1.607,0.36-2.43C102.991,3107.922,103.63,3107.592,104.751,3107.75z"/>
<path fill="#FFFFFF" d="M29.394,11.254c-0.201,0.529-0.66,1.242-1.38,2.138c-1.2-1-1.98-1.5-2.341-1.5c-0.32,0-0.72,0.12-1.199,0.36
	c-1.281,0.721-2.101,1.843-2.46,3.365c-0.562,2.403-0.9,3.746-1.021,4.025c0,0.521,0.061,0.971,0.18,1.352
	c0.12,0.381,0.181,0.592,0.181,0.631c0,0.201-0.36,0.702-1.08,1.503l0.72,0.36v0.721c-0.561-0.08-0.92,0.04-1.08,0.361
	c0.521,1.041,0.78,1.702,0.78,1.982c0,0.16-0.021,0.32-0.061,0.481c-0.521,0.2-0.76,0.9-0.72,2.103c0,0.16,0,0.36,0,0.601
	c0,0.281-0.06,0.692-0.18,1.232c-0.12,0.541-0.18,0.951-0.18,1.231c0,0.401,0.102,0.782,0.309,1.142
	c-0.035,0.441-0.018,1.903,0.051,4.387c0,1.803-0.12,3.266-0.359,4.387c0.158,0.923,0.759,2.686,1.8,5.287
	c-0.12,0.162-0.181,0.342-0.181,0.541c0,0.361,0.301,0.883,0.9,1.563c0.6,0.684,0.939,1.143,1.021,1.383
	c-0.24,0.121-0.36,0.279-0.36,0.479c0,0.118,0.108,0.329,0.33,0.631c0.22,0.301,0.35,0.513,0.39,0.631
	c2.08-0.76,3.459-1.479,4.14-2.157c0.439-0.441,0.66-1.021,0.66-1.74c0-0.08,0-0.17,0-0.271c0-0.1,0-0.169,0-0.21
	c0-0.84,0.261-1.599,0.78-2.278c1.08,0.879,1.62,1.84,1.62,2.879c0,1.319-0.711,2.521-2.13,3.602
	c-1.42,1.078-2.771,1.619-4.05,1.619c-1-0.041-1.92-0.7-2.761-1.981c-1.16-1.763-1.881-2.741-2.159-2.942
	c-1.041-3.444-1.561-7.711-1.561-12.799c0-3.885,0.3-7.589,0.9-11.115c0.239-1.48,0.35-3.123,0.33-4.926
	c-0.021-1.802,0.29-3.465,0.93-4.987c0.438-1.121,1.299-2.604,2.58-4.446c0.919-0.6,1.938-0.9,3.06-0.9
	C27.153,9.972,28.353,10.399,29.394,11.254z"/>
<path fill="#FFFFFF" d="M41.753,47.411c-0.72,0.479-1.359,1.721-1.92,3.72c-0.479,1.682-1.581,2.721-3.3,3.12
	c-0.28,0.24-0.581,0.36-0.9,0.36c-0.279,0-0.681-0.103-1.199-0.301c-0.521-0.201-0.88-0.32-1.08-0.359
	c-1.24-0.922-1.86-2.182-1.86-3.78c0-0.358,0.04-0.919,0.12-1.68s0.12-1.341,0.12-1.74c0-0.479-0.081-0.919-0.24-1.319
	c0.68-0.64,0.873-1.449,0.579-2.431c-0.293-0.979-0.206-1.789,0.261-2.431c-0.081-0.239-0.12-0.479-0.12-0.719
	c0-0.961,0.62-2.141,1.86-3.541c1.239-0.359,2.64-0.479,4.2-0.359c1.24,1.439,2.06,2.88,2.46,4.32c0.56,0.438,0.84,0.938,0.84,1.5
	c0,0.278-0.09,0.688-0.27,1.229c-0.181,0.54-0.271,0.971-0.271,1.29c0,0.399,0.12,0.78,0.36,1.142c-0.24,0.08-0.36,0.279-0.36,0.6
	c0,0.24,0.021,0.48,0.06,0.721L41.753,47.411z M38.273,45.012c0.16-0.199,0.24-0.421,0.24-0.66c0-0.24-0.441-0.92-1.32-2.039
	c0.84-0.722,1.2-1.74,1.08-3.062c-0.72-0.8-1.66-1.119-2.82-0.96c-0.88,1.041-1.32,2.361-1.32,3.96c0,0.28,0.021,0.741,0.061,1.38
	c0.04,0.641,0.06,1.121,0.06,1.439c0,1.121-0.146,2.101-0.44,2.941c-0.065,0.198-0.1,0.397-0.1,0.6c0,0.24,0.061,0.57,0.181,0.99
	s0.18,0.729,0.18,0.93c0,0.279-0.12,0.539-0.36,0.779c0.16,0.16,0.33,0.318,0.511,0.479c0.18,0.158,0.25,0.318,0.21,0.479
	c1.159,0.199,2.08-0.119,2.76-0.959c0.04-0.16,0.2-0.621,0.479-1.381c0.199-0.601,0.301-1.08,0.301-1.439
	c0-0.158-0.021-0.318-0.061-0.479c0.036-0.4,0.146-0.781,0.327-1.142c0.182-0.358,0.273-0.619,0.273-0.78
	C38.514,45.813,38.433,45.452,38.273,45.012z"/>
<path fill="#FFFFFF" d="M58.132,47.652c0.08,0.24,0.121,0.459,0.121,0.66c0,0.357-0.19,0.85-0.569,1.469
	c-0.382,0.621-0.592,1.091-0.632,1.41c-1.118,0.32-2.079,0.479-2.879,0.479c-0.801,0-1.399-0.158-1.8-0.479
	c0-0.439-0.311-1.01-0.93-1.709c-0.621-0.699-0.892-1.312-0.811-1.83c0.279-0.08,0.421-0.2,0.421-0.36c0-0.12-0.07-0.3-0.211-0.54
	c-0.141-0.238-0.21-0.42-0.21-0.54c0-0.319,0.12-0.789,0.36-1.409c0.24-0.619,0.36-1.09,0.36-1.41c0-0.358-0.102-0.721-0.3-1.08
	c0-0.277,0-0.601,0-0.959c0-0.641-0.12-1.5-0.36-2.58c-0.24-1.32-0.38-2.16-0.42-2.521c-1.48,0.4-2.32,1.939-2.521,4.62
	c-0.12,1.479-0.6,3.142-1.439,4.979c0.08,0.279,0.12,0.601,0.12,0.961c0,0.357-0.07,0.93-0.21,1.709
	c-0.142,0.778-0.21,1.371-0.21,1.771c0,0.601,0.1,1.142,0.3,1.62c-0.041,0.039-0.23,0.249-0.57,0.63
	c-0.34,0.38-0.63,0.569-0.87,0.569c-0.12,0-0.22-0.039-0.3-0.119c-0.6-0.32-0.8-1.26-0.6-2.82c0.239-1.8,0.198-3-0.12-3.6
	c-0.041-0.399-0.021-1.141,0.06-2.221c0.08-1.279,0.12-2.222,0.12-2.82c0-3.239-0.9-5.119-2.7-5.639
	c0.04-0.722,0.76-1.541,2.16-2.46c0.96,0.359,1.44,1.121,1.44,2.279c0,0.16,0,0.381,0,0.66s0,0.48,0,0.602
	c0,0.92,0.219,1.641,0.659,2.158c0.16,0.041,0.301,0.061,0.421,0.061c0.199,0,0.398-0.139,0.6-0.42l0.42-0.721
	c-0.2-0.199-0.3-0.439-0.3-0.72c0-0.199,0.219-0.8,0.66-1.8c0.278-0.561,0.779-0.949,1.5-1.17c0.72-0.221,1.419-0.41,2.1-0.57
	c0.879,0.279,1.32,0.762,1.32,1.439c0,0.201-0.041,0.51-0.12,0.931c-0.081,0.42-0.12,0.729-0.12,0.93c0,0.562,0.22,1.001,0.66,1.32
	c0.04,0.319,0.14,1.021,0.3,2.101c0.16,0.881,0.24,1.58,0.24,2.1c0,1.121-0.3,2.102-0.9,2.939c0.439,2.121,1.16,3.301,2.16,3.54
	c0.039-0.079,0.22-0.54,0.54-1.38c0.2-0.52,0.5-0.898,0.9-1.141c0.158,0.24,0.519,0.382,1.078,0.42
	C57.613,47.031,57.972,47.252,58.132,47.652z"/>
<path fill="#FFFFFF" d="M71.632,47.652c0.08,0.24,0.12,0.459,0.12,0.66c0,0.357-0.189,0.85-0.568,1.469
	c-0.382,0.621-0.593,1.091-0.632,1.41c-1.119,0.32-2.079,0.479-2.88,0.479s-1.399-0.158-1.8-0.479c0-0.439-0.311-1.01-0.93-1.709
	c-0.621-0.699-0.892-1.312-0.812-1.83c0.279-0.08,0.42-0.2,0.42-0.36c0-0.12-0.069-0.3-0.21-0.54c-0.141-0.238-0.21-0.42-0.21-0.54
	c0-0.319,0.12-0.789,0.359-1.409c0.24-0.619,0.361-1.09,0.361-1.41c0-0.358-0.103-0.721-0.302-1.08c0-0.277,0-0.601,0-0.959
	c0-0.641-0.118-1.5-0.358-2.58c-0.24-1.32-0.381-2.16-0.42-2.521c-1.48,0.4-2.32,1.939-2.521,4.62
	c-0.12,1.479-0.601,3.142-1.439,4.979c0.08,0.279,0.121,0.601,0.121,0.961c0,0.357-0.07,0.93-0.211,1.709
	c-0.142,0.778-0.211,1.371-0.211,1.771c0,0.601,0.101,1.142,0.301,1.62c-0.04,0.039-0.23,0.249-0.57,0.63
	c-0.34,0.38-0.629,0.569-0.869,0.569c-0.12,0-0.221-0.039-0.301-0.119c-0.6-0.32-0.8-1.26-0.6-2.82c0.239-1.8,0.198-3-0.119-3.6
	c-0.041-0.399-0.021-1.141,0.06-2.221c0.079-1.279,0.12-2.222,0.12-2.82c0-3.239-0.9-5.119-2.7-5.639
	c0.04-0.722,0.761-1.541,2.159-2.46c0.961,0.359,1.441,1.121,1.441,2.279c0,0.16,0,0.381,0,0.66s0,0.48,0,0.602
	c0,0.92,0.219,1.641,0.658,2.158c0.159,0.041,0.301,0.061,0.42,0.061c0.2,0,0.399-0.139,0.602-0.42l0.42-0.721
	c-0.201-0.199-0.301-0.439-0.301-0.72c0-0.199,0.22-0.8,0.66-1.8c0.278-0.561,0.779-0.949,1.5-1.17s1.42-0.41,2.1-0.57
	c0.88,0.279,1.32,0.762,1.32,1.439c0,0.201-0.04,0.51-0.119,0.931c-0.081,0.42-0.121,0.729-0.121,0.93
	c0,0.562,0.221,1.001,0.66,1.32c0.04,0.319,0.141,1.021,0.301,2.101c0.159,0.881,0.24,1.58,0.24,2.1c0,1.121-0.301,2.102-0.9,2.939
	c0.439,2.121,1.16,3.301,2.16,3.54c0.039-0.079,0.219-0.54,0.539-1.38c0.2-0.52,0.5-0.898,0.9-1.141
	c0.159,0.24,0.52,0.382,1.079,0.42C71.113,47.031,71.472,47.252,71.632,47.652z"/>
<path fill="#FFFFFF" d="M83.572,47.473c0.439,0.199,0.66,0.521,0.66,0.959c0,0.92-0.84,1.949-2.521,3.09
	c-1.681,1.142-3.341,1.711-4.979,1.711c-1.281,0-2.28-0.399-3-1.201c0.039-0.358-0.121-0.801-0.48-1.318
	c-0.358-0.518-0.551-0.908-0.569-1.17c-0.021-0.262-0.189-1.13-0.511-2.607c-0.2-1.08-0.261-1.961-0.18-2.643
	c0.039-0.238-0.081-0.479-0.36-0.721c0.279-0.119,0.399-0.459,0.36-1.02c-0.12-0.119-0.18-0.26-0.18-0.421
	c0-0.198,0.198-0.562,0.6-1.079c0.399-0.521,0.601-0.961,0.601-1.32c0.038-1.561,0.061-3.139,0.061-4.739
	c0.24-1.839,0.92-3.18,2.039-4.02c1.439,0.04,2.859,0.86,4.261,2.46c-0.12,0.52,0.021,1.319,0.42,2.399s0.602,1.859,0.602,2.34
	c0,1.32-0.642,1.979-1.92,1.979c-0.281,0-0.791-0.08-1.531-0.238c-0.74-0.159-1.289-0.199-1.649-0.12
	c-0.521,0.081-0.921,0.42-1.2,1.021c-0.681,1.279-0.681,2.799,0,4.561c-0.239,0.081-0.358,0.279-0.358,0.602
	c0,0.562,0,0.819,0,0.778c0.479,0.201,0.72,0.603,0.72,1.2c0,0.359-0.12,0.658-0.359,0.898c1,1.92,1.959,2.881,2.881,2.881
	c0.438,0,0.879-0.142,1.318-0.42c0.561-0.082,1.38-0.66,2.46-1.74c-0.041-0.199-0.18-0.479-0.42-0.84
	c-0.239-0.359-0.358-0.66-0.358-0.899c0-0.722,0.438-1.08,1.318-1.08C81.851,46.751,82.611,46.991,83.572,47.473z M77.572,37.631
	c-0.12-0.84-0.261-1.68-0.42-2.52c-0.201-1.041-0.761-1.479-1.68-1.32c0.078,0.081,0.118,0.182,0.118,0.3
	c0,0.12-0.079,0.302-0.239,0.54c-0.16,0.24-0.24,0.4-0.24,0.48c0,0.16,0.121,0.3,0.361,0.42c-0.24,0.08-0.361,0.279-0.361,0.6v0.78
	c0.2,0.479,0.561,0.72,1.08,0.72C76.671,37.631,77.13,37.631,77.572,37.631z"/>
<path fill="#FFFFFF" d="M93.952,51.461c-0.28,0.699-0.9,1.471-1.86,2.311c-1.399,1.201-2.159,1.899-2.278,2.102
	c-3.479-1.117-5.301-3.251-5.461-6.402c0.198-0.158,0.301-0.34,0.301-0.539c0-0.197-0.12-0.469-0.36-0.808
	c-0.238-0.34-0.379-0.567-0.42-0.688c0.76-1.236,1.143-2.99,1.143-5.267c0-0.237,0-0.606,0-1.106c0-0.498,0-0.889,0-1.168
	c0-3.312,1.198-5.564,3.6-6.763c0.16,0,0.43-0.069,0.811-0.209c0.38-0.14,0.649-0.21,0.812-0.21c0.359,0,0.64,0.219,0.841,0.653
	l-0.36,0.356c0.642,0.238,1.239,0.793,1.802,1.664c0.56,0.873,0.84,1.684,0.84,2.436c0,0.396-0.08,0.734-0.24,1.012
	c-0.479,0.039-0.938,0.061-1.379,0.061c-0.563,0-0.941-0.217-1.141-0.65c0.238-0.157,0.35-0.501,0.329-1.033
	c-0.021-0.529,0.068-0.875,0.271-1.031c-0.283-0.67-0.629-1.006-1.033-1.006c-0.244,0-0.647,0.189-1.217,0.568
	c-0.568,0.379-0.994,0.589-1.276,0.628c-0.648,0.64-0.974,1.476-0.974,2.512c0,0.438,0.09,1.14,0.271,2.095
	c0.181,0.957,0.271,1.676,0.271,2.152c0,0.639-0.12,1.196-0.36,1.676c-0.64,0.118-0.959,0.397-0.959,0.838
	c0,0.157,0.079,0.457,0.24,0.896c0.157,0.438,0.239,0.776,0.239,1.017c0,0.319-0.121,0.578-0.36,0.777l0.36,0.357L86.1,49.047
	c0.438,0.16,0.698,0.6,0.778,1.316c0.08,0.916,0.222,1.494,0.42,1.734c0.24,0.356,0.5,0.797,0.781,1.313
	c0.158,0.237,0.299,0.358,0.42,0.358c0.158,0,0.619-0.121,1.379-0.359c0.121-0.2,0.451-0.501,0.99-0.898
	c0.541-0.4,0.812-0.762,0.812-1.08c0-0.16-0.062-0.359-0.181-0.602c-0.32-0.602-0.479-0.96-0.479-1.08
	c-0.041-0.159,0.08-0.579,0.358-1.26l0.24-0.479c0.16-0.439,0.32-0.66,0.48-0.66c0.079,0,0.299,0.17,0.658,0.51
	c0.358,0.341,0.721,0.472,1.08,0.391c0.358,0.201,0.54,0.621,0.54,1.262C94.372,50.111,94.23,50.762,93.952,51.461z"/>
<path fill="#FFFFFF" d="M104.751,46.751c0.602,0.521,0.899,1.12,0.899,1.8c0,0.521-0.42,1.561-1.26,3.12
	c-0.643,1.2-1.643,1.802-3,1.802c-0.521,0-1.382-0.142-2.58-0.422c-0.961-1.119-1.521-2.679-1.682-4.68
	c0-0.12-0.021-1.818-0.062-5.1c0.279-0.279,0.398-0.521,0.361-0.723c-0.24-0.078-0.361-0.197-0.361-0.357
	c0-0.039,0.221-0.381,0.66-1.021c-0.039-0.199-0.061-0.42-0.061-0.658c0-0.281,0.069-0.701,0.21-1.262
	c0.142-0.561,0.21-0.96,0.21-1.2c0-0.397-0.12-0.759-0.359-1.079c-0.239,0-0.59,0.09-1.049,0.27
	c-0.462,0.181-0.791,0.271-0.99,0.271c-0.44,0-0.801-0.301-1.08-0.9c0.041-0.6-0.08-0.959-0.359-1.08
	c0.119-0.879,0.949-1.389,2.488-1.529c1.541-0.141,2.312-0.488,2.312-1.05c0-0.399-0.199-0.939-0.601-1.62
	c0.24-0.079,0.359-0.279,0.359-0.6c0-0.56,0-0.819,0-0.78c-0.039-0.199-0.039-0.8,0-1.8c0.039-0.76-0.08-1.34-0.359-1.74
	c-0.52,0.24-1.221,0.72-2.1,1.44c-0.281-0.36-0.42-0.74-0.42-1.141c0-0.359,0.139-0.77,0.42-1.229
	c0.277-0.46,0.397-0.729,0.358-0.811l-0.358-0.359c0.438-0.48,0.998-0.721,1.68-0.721c0.68,0,1.279,0.24,1.801,0.721
	c0.521,0.479,0.759,1.08,0.72,1.8c0.039,1.24,0.061,2.5,0.061,3.78c0,1.56-0.26,2.74-0.778,3.54c0.239,0.041,0.608,0.169,1.108,0.39
	s0.871,0.33,1.109,0.33c0.399,0,0.721-0.24,0.96-0.72c0.601-0.04,0.949,0.07,1.052,0.33c0.1,0.26,0.148,0.49,0.148,0.689
	c0,0.681-0.562,1.301-1.681,1.859c-1.4,0.682-2.182,1.121-2.34,1.319c-0.24,1.121-0.479,2.241-0.722,3.36
	c-0.278,1.32-0.42,2.421-0.42,3.3c0,0.96,0.159,1.899,0.479,2.819c-0.039,0.562,0.062,0.922,0.302,1.08
	c0,0.562-0.021,1.121-0.062,1.681c0.039,0.68,0.301,1.159,0.779,1.44c1.08,0.119,1.721-0.263,1.92-1.143
	c0.079-0.8,0.199-1.607,0.36-2.432C102.991,46.922,103.63,46.592,104.751,46.751z"/>
</svg>
