<?xml version="1.0" encoding="utf-8"?>
<!-- Generator: Adobe Illustrator 15.1.0, SVG Export Plug-In . SVG Version: 6.00 Build 0)  -->
<!DOCTYPE svg PUBLIC "-//W3C//DTD SVG 1.1//EN" "http://www.w3.org/Graphics/SVG/1.1/DTD/svg11.dtd">
<svg version="1.1" id="Ebene_1" xmlns="http://www.w3.org/2000/svg" xmlns:xlink="http://www.w3.org/1999/xlink" x="0px" y="0px"
	 width="517px" height="65px" viewBox="0 0 517 65" enable-background="new 0 0 517 65" xml:space="preserve">
<g id="Ebene_2">
</g>
<g id="Ebene_3">
	<path fill="#65BD9F" d="M9,14.228c2.354-5.654,17-2,26-4s149,1.5,149,1.5s80-6.5,101-5.5s95,5,104,5s86-4.498,100-1.498s23,1,23,11
		s-3,24-8,27s-6,9-25,10s-165-2.502-175-1.502s-61,1-67-1s-39,2-46,2s-87-3-100,0s-63.762,1.848-68.762-2.152S10,48.228,9,40.228
		S6.646,19.883,9,14.228z"/>
	<path fill="#1DAC84" d="M493.51,6.386c-14.297-3.457-92.229,1.499-101.418,1.499c-9.191,0-84.762-4.608-106.207-5.765
		c-21.445-1.15-103.143,6.339-103.143,6.339S39.77,4.428,30.579,6.729c-9.19,2.308-24.146-1.906-26.552,4.61
		c-2.404,6.519-1.021,20.743,0,29.966s8.413,12.502,13.52,17.107c5.107,4.611,56.945,5.941,70.221,2.482
		c13.276-3.457,94.974,0,102.122,0s40.85-4.609,46.977-2.305s58.209,2.305,68.422,1.148c10.211-1.148,158.604,3.111,178.012,1.959
		c19.402-1.148,20.424-8.064,25.529-11.521c5.104-3.459,8.17-19.596,8.17-31.119C516.998,7.537,507.807,9.844,493.51,6.386z
		 M503.998,47.729c-5,3-6,9-25,10S314,55.228,304,56.228s-61,1-67-1s-39,2-46,2s-87-3-100,0s-63.762,1.848-68.762-2.152
		S10,48.228,9,40.228s-2.354-20.345,0-26c2.354-5.654,17-2,26-4s149,1.5,149,1.5s80-6.5,101-5.5s95,5,104,5
		s85.998-4.498,99.998-1.498s23,1,23,11S508.998,44.729,503.998,47.729z"/>
</g>
</svg>
