<?xml version="1.0" encoding="utf-8"?>
<!-- Generator: Adobe Illustrator 15.1.0, SVG Export Plug-In . SVG Version: 6.00 Build 0)  -->
<!DOCTYPE svg PUBLIC "-//W3C//DTD SVG 1.1//EN" "http://www.w3.org/Graphics/SVG/1.1/DTD/svg11.dtd">
<svg version="1.1" id="Ebene_1" xmlns="http://www.w3.org/2000/svg" xmlns:xlink="http://www.w3.org/1999/xlink" x="0px" y="0px"
	 width="112.238px" height="84.969px" viewBox="0 0 112.238 84.969" enable-background="new 0 0 112.238 84.969"
	 xml:space="preserve">
<g id="Ebene_1_1_">
	<g>
		<path fill="#1DAC84" d="M461.697,535.978c-7.063,16.186-15.303,43.554,0.589,54.735c7.063,5.004,39.435,11.185,48.558,11.771
			c18.539,1.472,32.371-0.295,42.082-16.771c4.119-6.771,10.596-20.603,8.24-28.251c-3.533-10.303-4.709-19.425-14.42-23.542
			c-19.424-7.945-40.906-14.423-62.094-11.186C484.651,522.736,466.993,524.794,461.697,535.978z"/>
	</g>
	<g>
		<path fill="#B84B40" d="M485.828,530.975c-5.885,0.883-11.184,2.354-16.479,5.592c-5.003,2.942-5.591,7.651-7.943,12.654
			c-9.711,21.772,1.177,41.492,23.837,45.906c13.242,2.646,30.014,1.473,43.258-0.886c9.416-1.472,25.896-14.713,25.604-26.188
			c-0.296-12.948-2.646-15.011-12.652-23.543c-11.062-9.438-26.779-15.895-41.199-13.537
			C500.248,530.975,489.948,530.681,485.828,530.975z"/>
	</g>
	<g>
		<g>
			<path fill="#FFFFFF" d="M480.304,542.419c-0.161,0.425-0.525,0.99-1.104,1.71c-0.96-0.803-1.584-1.199-1.872-1.199
				c-0.256,0-0.576,0.097-0.96,0.289c-1.023,0.575-1.68,1.474-1.968,2.688c-0.448,1.926-0.723,2.997-0.816,3.224
				c0,0.417,0.049,0.774,0.146,1.081c0.098,0.306,0.146,0.475,0.146,0.506c0,0.16-0.288,0.562-0.864,1.201l0.576,0.285v0.577
				c-0.447-0.063-0.735,0.032-0.863,0.289c0.416,0.833,0.623,1.361,0.623,1.586c0,0.128-0.017,0.259-0.048,0.388
				c-0.416,0.157-0.604,0.722-0.575,1.683c0,0.129,0,0.289,0,0.479c0,0.228-0.049,0.557-0.145,0.984
				c-0.098,0.434-0.146,0.761-0.146,0.985c0,0.317,0.082,0.626,0.247,0.912c-0.025,0.354-0.015,1.521,0.042,3.511
				c0,1.438-0.097,2.609-0.288,3.509c0.128,0.737,0.606,2.146,1.439,4.229c-0.096,0.128-0.146,0.271-0.146,0.434
				c0,0.288,0.239,0.705,0.723,1.25c0.479,0.545,0.751,0.913,0.813,1.104c-0.189,0.099-0.288,0.227-0.288,0.388
				c0,0.096,0.091,0.264,0.267,0.504c0.175,0.239,0.278,0.409,0.313,0.505c1.663-0.607,2.771-1.185,3.313-1.729
				c0.352-0.354,0.525-0.814,0.525-1.395c0-0.063,0-0.136,0-0.216c0-0.079,0-0.136,0-0.168c0-0.672,0.209-1.279,0.624-1.824
				c0.863,0.705,1.296,1.474,1.296,2.305c0,1.06-0.565,2.02-1.701,2.882c-1.139,0.862-2.219,1.297-3.24,1.297
				c-0.8-0.031-1.536-0.563-2.208-1.586c-0.93-1.409-1.504-2.194-1.729-2.354c-0.833-2.756-1.247-6.169-1.247-10.238
				c0-3.104,0.239-6.069,0.722-8.892c0.189-1.188,0.276-2.499,0.264-3.941c-0.017-1.438,0.232-2.771,0.744-3.986
				c0.353-0.896,1.04-2.083,2.063-3.561c0.735-0.479,1.555-0.721,2.448-0.721C478.512,541.394,479.472,541.736,480.304,542.419z"/>
			<path fill="#FFFFFF" d="M490.194,571.346c-0.576,0.384-1.089,1.376-1.536,2.977c-0.384,1.344-1.268,2.175-2.643,2.495
				c-0.225,0.192-0.464,0.288-0.721,0.288c-0.224,0-0.544-0.08-0.96-0.239c-0.416-0.161-0.704-0.257-0.863-0.288
				c-0.991-0.734-1.485-1.744-1.485-3.021c0-0.288,0.029-0.735,0.096-1.345c0.063-0.606,0.096-1.071,0.096-1.396
				c0-0.384-0.063-0.733-0.188-1.056c0.544-0.515,0.696-1.159,0.464-1.944c-0.235-0.783-0.165-1.432,0.208-1.94
				c-0.064-0.191-0.097-0.387-0.097-0.576c0-0.771,0.494-1.712,1.485-2.831c0.992-0.288,2.112-0.386,3.36-0.288
				c0.991,1.148,1.646,2.304,1.968,3.456c0.448,0.353,0.672,0.752,0.672,1.198c0,0.226-0.071,0.554-0.216,0.981
				c-0.146,0.433-0.216,0.776-0.216,1.032c0,0.318,0.096,0.624,0.288,0.912c-0.192,0.063-0.288,0.225-0.288,0.479
				c0,0.191,0.016,0.384,0.048,0.575L490.194,571.346z M487.409,569.426c0.127-0.16,0.189-0.337,0.189-0.528
				s-0.354-0.735-1.057-1.632c0.673-0.576,0.96-1.396,0.864-2.448c-0.576-0.64-1.329-0.896-2.256-0.768
				c-0.704,0.832-1.059,1.889-1.059,3.168c0,0.225,0.019,0.593,0.048,1.104c0.031,0.515,0.05,0.896,0.05,1.151
				c0,0.896-0.117,1.68-0.354,2.353c-0.053,0.16-0.079,0.32-0.079,0.479c0,0.188,0.049,0.456,0.146,0.792
				c0.096,0.336,0.145,0.584,0.145,0.744c0,0.224-0.097,0.432-0.288,0.623c0.127,0.129,0.267,0.257,0.407,0.385
				c0.145,0.128,0.2,0.256,0.168,0.384c0.929,0.16,1.664-0.096,2.208-0.769c0.032-0.128,0.16-0.495,0.385-1.104
				c0.159-0.479,0.239-0.863,0.239-1.148c0-0.131-0.017-0.259-0.048-0.387c0.027-0.317,0.116-0.624,0.263-0.912
				c0.146-0.285,0.218-0.493,0.218-0.622C487.6,570.067,487.537,569.778,487.409,569.426z"/>
			<path fill="#FFFFFF" d="M503.296,571.534c0.063,0.191,0.097,0.368,0.097,0.527c0,0.288-0.149,0.681-0.455,1.177
				c-0.305,0.496-0.473,0.871-0.505,1.128c-0.896,0.256-1.664,0.386-2.305,0.386c-0.64,0-1.12-0.13-1.438-0.386
				c0-0.353-0.248-0.808-0.744-1.367c-0.497-0.561-0.713-1.049-0.648-1.465c0.227-0.063,0.337-0.158,0.337-0.288
				c0-0.097-0.058-0.236-0.168-0.433c-0.11-0.189-0.169-0.336-0.169-0.432c0-0.259,0.097-0.636,0.288-1.128
				c0.192-0.496,0.288-0.871,0.288-1.131c0-0.285-0.08-0.573-0.239-0.861c0-0.228,0-0.479,0-0.771c0-0.512-0.097-1.198-0.288-2.063
				c-0.189-1.059-0.306-1.729-0.337-2.02c-1.185,0.32-1.854,1.557-2.016,3.696c-0.098,1.186-0.479,2.512-1.152,3.983
				c0.063,0.225,0.098,0.479,0.098,0.769c0,0.287-0.057,0.743-0.168,1.367c-0.11,0.624-0.169,1.097-0.169,1.416
				c0,0.479,0.08,0.912,0.239,1.296c-0.031,0.032-0.185,0.2-0.455,0.505c-0.271,0.304-0.504,0.456-0.694,0.456
				c-0.099,0-0.178-0.032-0.239-0.097c-0.479-0.257-0.644-1.009-0.479-2.257c0.191-1.438,0.159-2.399-0.097-2.881
				c-0.032-0.317-0.017-0.91,0.048-1.774c0.063-1.023,0.099-1.775,0.099-2.256c0-2.595-0.723-4.099-2.159-4.515
				c0.029-0.573,0.605-1.229,1.728-1.969c0.771,0.288,1.152,0.896,1.152,1.823c0,0.129,0,0.305,0,0.528c0,0.225,0,0.384,0,0.479
				c0,0.736,0.175,1.313,0.525,1.729c0.129,0.029,0.239,0.049,0.338,0.049c0.158,0,0.316-0.111,0.479-0.336l0.336-0.576
				c-0.16-0.159-0.239-0.354-0.239-0.575c0-0.16,0.177-0.641,0.527-1.438c0.225-0.446,0.624-0.763,1.2-0.938s1.135-0.328,1.68-0.456
				c0.704,0.224,1.059,0.607,1.059,1.151c0,0.16-0.031,0.407-0.099,0.744c-0.063,0.336-0.096,0.584-0.096,0.74
				c0,0.448,0.175,0.804,0.528,1.06c0.029,0.257,0.108,0.813,0.237,1.681c0.127,0.704,0.191,1.264,0.191,1.68
				c0,0.896-0.24,1.684-0.72,2.354c0.352,1.697,0.928,2.641,1.728,2.832c0.032-0.063,0.177-0.433,0.433-1.104
				c0.16-0.416,0.399-0.72,0.723-0.909c0.127,0.189,0.416,0.306,0.861,0.337C502.88,571.041,503.168,571.219,503.296,571.534z"/>
			<path fill="#FFFFFF" d="M514.097,571.534c0.063,0.191,0.099,0.368,0.099,0.527c0,0.288-0.152,0.681-0.457,1.177
				c-0.306,0.496-0.474,0.871-0.504,1.128c-0.896,0.256-1.664,0.386-2.306,0.386c-0.641,0-1.119-0.13-1.438-0.386
				c0-0.353-0.248-0.808-0.744-1.367c-0.497-0.561-0.713-1.049-0.646-1.465c0.225-0.063,0.338-0.158,0.338-0.288
				c0-0.097-0.061-0.236-0.17-0.433c-0.111-0.189-0.168-0.336-0.168-0.432c0-0.259,0.098-0.636,0.287-1.128
				c0.191-0.496,0.287-0.871,0.287-1.131c0-0.285-0.08-0.573-0.238-0.861c0-0.228,0-0.479,0-0.771c0-0.512-0.098-1.198-0.287-2.063
				c-0.191-1.059-0.307-1.729-0.336-2.02c-1.188,0.32-1.855,1.557-2.019,3.696c-0.096,1.186-0.479,2.512-1.149,3.983
				c0.063,0.225,0.097,0.479,0.097,0.769c0,0.287-0.058,0.743-0.168,1.367c-0.112,0.624-0.168,1.097-0.168,1.416
				c0,0.479,0.08,0.912,0.239,1.296c-0.031,0.032-0.188,0.2-0.455,0.505c-0.272,0.304-0.506,0.456-0.696,0.456
				c-0.097,0-0.176-0.032-0.24-0.097c-0.479-0.257-0.641-1.009-0.479-2.257c0.189-1.438,0.159-2.399-0.099-2.881
				c-0.028-0.317-0.017-0.91,0.051-1.774c0.063-1.023,0.097-1.775,0.097-2.256c0-2.595-0.722-4.099-2.16-4.515
				c0.032-0.573,0.606-1.229,1.729-1.969c0.77,0.288,1.15,0.896,1.15,1.823c0,0.129,0,0.305,0,0.528c0,0.225,0,0.384,0,0.479
				c0,0.736,0.175,1.313,0.528,1.729c0.127,0.029,0.239,0.049,0.336,0.049c0.16,0,0.317-0.111,0.479-0.336l0.336-0.576
				c-0.157-0.159-0.237-0.354-0.237-0.575c0-0.16,0.175-0.641,0.524-1.438c0.228-0.446,0.624-0.763,1.2-0.938
				s1.136-0.328,1.682-0.456c0.702,0.224,1.058,0.607,1.058,1.151c0,0.16-0.032,0.407-0.099,0.744
				c-0.063,0.336-0.097,0.584-0.097,0.74c0,0.448,0.176,0.804,0.528,1.06c0.032,0.257,0.111,0.813,0.24,1.681
				c0.127,0.704,0.188,1.264,0.188,1.68c0,0.896-0.239,1.684-0.72,2.354c0.352,1.697,0.928,2.641,1.729,2.832
				c0.031-0.063,0.179-0.433,0.435-1.104c0.16-0.416,0.397-0.72,0.72-0.909c0.127,0.189,0.417,0.306,0.864,0.337
				C513.679,571.041,513.967,571.219,514.097,571.534z"/>
			<path fill="#FFFFFF" d="M523.649,571.394c0.352,0.161,0.524,0.416,0.524,0.769c0,0.736-0.672,1.563-2.016,2.476
				c-1.344,0.911-2.672,1.367-3.984,1.367c-1.021,0-1.824-0.319-2.397-0.962c0.03-0.286-0.099-0.642-0.386-1.058
				c-0.289-0.415-0.438-0.728-0.457-0.936c-0.018-0.208-0.149-0.903-0.405-2.089c-0.16-0.863-0.207-1.566-0.146-2.111
				c0.033-0.191-0.063-0.384-0.287-0.576c0.226-0.096,0.318-0.367,0.287-0.814c-0.096-0.098-0.143-0.209-0.143-0.337
				c0-0.157,0.159-0.444,0.479-0.86c0.318-0.415,0.479-0.771,0.479-1.06c0.029-1.248,0.049-2.512,0.049-3.792
				c0.189-1.472,0.736-2.544,1.631-3.217c1.152,0.032,2.289,0.688,3.408,1.969c-0.097,0.416,0.018,1.06,0.336,1.92
				c0.32,0.863,0.479,1.487,0.479,1.872c0,1.06-0.513,1.584-1.533,1.584c-0.228,0-0.635-0.063-1.228-0.188
				c-0.592-0.127-1.03-0.159-1.318-0.098c-0.416,0.063-0.735,0.337-0.959,0.813c-0.546,1.023-0.546,2.24,0,3.648
				c-0.192,0.063-0.288,0.225-0.288,0.479c0,0.449,0,0.656,0,0.624c0.385,0.161,0.573,0.479,0.573,0.96
				c0,0.288-0.096,0.528-0.286,0.724c0.801,1.533,1.565,2.305,2.305,2.305c0.354,0,0.703-0.112,1.057-0.336
				c0.447-0.064,1.104-0.528,1.97-1.396c-0.031-0.158-0.146-0.385-0.337-0.673c-0.19-0.287-0.288-0.525-0.288-0.72
				c0-0.576,0.354-0.864,1.059-0.864C522.271,570.818,522.879,571.01,523.649,571.394z M518.847,563.522
				c-0.096-0.672-0.207-1.344-0.336-2.017c-0.16-0.831-0.604-1.187-1.344-1.059c0.064,0.064,0.096,0.146,0.096,0.239
				c0,0.097-0.063,0.24-0.188,0.433c-0.129,0.191-0.193,0.32-0.193,0.388c0,0.128,0.101,0.236,0.289,0.336
				c-0.188,0.063-0.289,0.225-0.289,0.479v0.623c0.16,0.385,0.449,0.576,0.865,0.576
				C518.127,563.522,518.494,563.522,518.847,563.522z"/>
			<path fill="#FFFFFF" d="M531.951,574.585c-0.228,0.561-0.721,1.177-1.488,1.849c-1.121,0.96-1.729,1.52-1.824,1.681
				c-2.78-0.895-4.237-2.602-4.364-5.123c0.157-0.127,0.235-0.271,0.235-0.432c0-0.158-0.096-0.374-0.287-0.646
				c-0.188-0.271-0.305-0.455-0.336-0.554c0.607-0.987,0.912-2.394,0.912-4.213c0-0.188,0-0.487,0-0.886c0-0.399,0-0.71,0-0.938
				c0-2.646,0.959-4.449,2.879-5.407c0.129,0,0.349-0.059,0.648-0.167c0.305-0.111,0.521-0.168,0.646-0.168
				c0.289,0,0.515,0.176,0.675,0.521l-0.287,0.286c0.512,0.188,0.991,0.634,1.438,1.331c0.447,0.696,0.672,1.347,0.672,1.947
				c0,0.314-0.063,0.588-0.188,0.81c-0.386,0.031-0.752,0.048-1.105,0.048c-0.444,0-0.752-0.174-0.909-0.521
				c0.19-0.126,0.278-0.401,0.266-0.826c-0.021-0.425,0.055-0.7,0.215-0.826c-0.227-0.536-0.502-0.804-0.826-0.804
				c-0.192,0-0.52,0.147-0.973,0.454c-0.455,0.304-0.795,0.472-1.021,0.503c-0.52,0.511-0.774,1.181-0.774,2.01
				c0,0.351,0.067,0.909,0.215,1.674c0.145,0.769,0.217,1.341,0.217,1.725c0,0.513-0.096,0.956-0.289,1.342
				c-0.512,0.097-0.768,0.315-0.768,0.67c0,0.128,0.063,0.366,0.188,0.718c0.127,0.351,0.193,0.622,0.193,0.813
				c0,0.258-0.096,0.465-0.289,0.621l0.289,0.286l-0.24,0.287c0.354,0.128,0.562,0.479,0.623,1.054
				c0.064,0.733,0.176,1.195,0.336,1.392c0.193,0.286,0.4,0.637,0.625,1.052c0.127,0.191,0.24,0.287,0.336,0.287
				c0.127,0,0.496-0.097,1.104-0.288c0.096-0.16,0.356-0.4,0.793-0.72c0.432-0.32,0.646-0.608,0.646-0.864
				c0-0.128-0.047-0.288-0.143-0.479c-0.256-0.479-0.385-0.77-0.385-0.861c-0.031-0.128,0.063-0.465,0.287-1.009l0.19-0.387
				c0.127-0.353,0.254-0.524,0.383-0.524c0.064,0,0.24,0.137,0.529,0.406c0.287,0.271,0.576,0.375,0.863,0.313
				c0.289,0.161,0.432,0.497,0.432,1.008C532.287,573.505,532.174,574.026,531.951,574.585z"/>
			<path fill="#FFFFFF" d="M540.592,570.818c0.48,0.417,0.721,0.896,0.721,1.44c0,0.415-0.336,1.247-1.008,2.495
				c-0.514,0.96-1.313,1.438-2.397,1.438c-0.416,0-1.105-0.112-2.064-0.336c-0.768-0.896-1.217-2.146-1.344-3.743
				c0-0.097-0.021-1.456-0.049-4.08c0.225-0.224,0.317-0.416,0.289-0.575c-0.193-0.063-0.289-0.157-0.289-0.288
				c0-0.028,0.176-0.305,0.526-0.813c-0.03-0.159-0.049-0.336-0.049-0.527c0-0.224,0.06-0.56,0.168-1.009
				c0.111-0.447,0.168-0.768,0.168-0.96c0-0.318-0.096-0.604-0.287-0.863c-0.19,0-0.475,0.071-0.84,0.219
				c-0.369,0.145-0.633,0.217-0.793,0.217c-0.354,0-0.641-0.24-0.861-0.722c0.029-0.479-0.063-0.771-0.288-0.862
				c0.096-0.703,0.76-1.111,1.989-1.228c1.23-0.108,1.851-0.392,1.851-0.841c0-0.317-0.16-0.751-0.479-1.296
				c0.191-0.063,0.287-0.224,0.287-0.479c0-0.446,0-0.653,0-0.623c-0.031-0.159-0.031-0.643,0-1.439
				c0.031-0.607-0.063-1.071-0.287-1.393c-0.416,0.189-0.979,0.573-1.682,1.149c-0.226-0.288-0.336-0.592-0.336-0.912
				c0-0.288,0.112-0.614,0.336-0.98c0.225-0.367,0.32-0.583,0.289-0.648l-0.289-0.287c0.354-0.385,0.799-0.574,1.344-0.574
				s1.025,0.189,1.441,0.574c0.416,0.387,0.604,0.863,0.575,1.439c0.029,0.992,0.048,2,0.048,3.021c0,1.248-0.207,2.192-0.623,2.832
				c0.188,0.032,0.485,0.139,0.887,0.313c0.4,0.177,0.697,0.265,0.889,0.265c0.32,0,0.576-0.188,0.771-0.576
				c0.479-0.028,0.76,0.06,0.84,0.268c0.08,0.209,0.121,0.393,0.121,0.552c0,0.545-0.449,1.04-1.344,1.488
				c-1.121,0.545-1.746,0.896-1.873,1.056c-0.191,0.896-0.385,1.793-0.576,2.688c-0.225,1.058-0.336,1.938-0.336,2.642
				c0,0.77,0.127,1.521,0.385,2.256c-0.033,0.449,0.047,0.737,0.24,0.864c0,0.447-0.021,0.896-0.049,1.344
				c0.028,0.544,0.237,0.929,0.625,1.152c0.86,0.096,1.375-0.209,1.532-0.912c0.063-0.642,0.16-1.288,0.289-1.944
				C539.183,570.95,539.696,570.691,540.592,570.818z"/>
		</g>
	</g>
</g>
<g id="Ebene_2">
	<g>
		<g>
			<path fill="#FFFFFF" d="M508.096,596.672c-0.04,2.345-0.493,4.63,0.016,6.953c0.192,0.897,2.13,0.396,1.932-0.52
				c-0.478-2.197-0.022-4.369,0.014-6.583C510.073,595.511,508.113,595.8,508.096,596.672L508.096,596.672z"/>
		</g>
	</g>
	<g>
		<g>
			<path fill="#FFFFFF" d="M513.114,598.326c0.686,2.166,0.975,4.418,2.412,6.266c0.311,0.396,2.153-0.242,1.813-0.686
				c-1.379-1.771-1.635-4.02-2.295-6.098C514.883,597.307,512.963,597.861,513.114,598.326L513.114,598.326z"/>
		</g>
	</g>
	<g>
		<g>
			<path fill="#FFFFFF" d="M517.61,597.323c1.416,1.743,2.975,3.354,4.12,5.297c0.449,0.77,2.287,0.027,1.767-0.855
				c-1.146-1.944-2.705-3.557-4.119-5.298C518.81,595.768,516.976,596.541,517.61,597.323L517.61,597.323z"/>
		</g>
	</g>
	<g>
		<g>
			<path fill="#FFFFFF" d="M522.903,595.834c1.244,1.929,2.088,4.085,3.528,5.887c0.515,0.64,2.357-0.1,1.773-0.824
				c-1.441-1.802-2.285-3.959-3.531-5.886C524.239,594.326,522.383,595.031,522.903,595.834L522.903,595.834z"/>
		</g>
	</g>
	<g>
		<g>
			<path fill="#FFFFFF" d="M503.749,595.94c-0.719,1.121-1.197,2.414-1.531,3.698c-0.219,0.838,1.747,0.572,1.945-0.189
				c0.308-1.179,0.752-2.338,1.412-3.366c0.26-0.401-0.222-0.68-0.563-0.705C504.544,595.339,504.008,595.531,503.749,595.94
				L503.749,595.94z"/>
		</g>
	</g>
	<g>
		<g>
			<path fill="#FFFFFF" d="M495.524,596.283c-1.225,1.812-2.624,3.451-4.289,4.865c-0.313,0.266-0.21,0.6,0.182,0.678
				c0.459,0.097,1.013-0.063,1.366-0.362c1.755-1.49,3.251-3.234,4.539-5.144C497.82,595.587,495.873,595.769,495.524,596.283
				L495.524,596.283z"/>
		</g>
	</g>
	<g>
		<g>
			<path fill="#FFFFFF" d="M487.547,595.585c-0.576,1.366-1.489,2.567-2.664,3.479c-0.338,0.262-0.482,0.764-0.09,1.052
				c0.402,0.294,1.018,0.188,1.39-0.103c1.399-1.087,2.534-2.535,3.225-4.17C489.847,594.794,487.902,594.743,487.547,595.585
				L487.547,595.585z"/>
		</g>
	</g>
	<g>
		<g>
			<path fill="#FFFFFF" d="M482.404,594.135c-2.094,0.64-3.697,2.549-5.467,3.757c-0.354,0.244-0.472,0.771-0.091,1.05
				c0.419,0.307,0.996,0.166,1.392-0.104c0.858-0.592,1.667-1.251,2.479-1.902c0.607-0.488,1.301-1.169,2.063-1.402
				C483.958,595.171,483.595,593.77,482.404,594.135L482.404,594.135z"/>
		</g>
	</g>
	<g>
		<g>
			<path fill="#FFFFFF" d="M475.052,592.173c-2.043,0.084-3.896,1.363-5.313,2.747c-0.308,0.297-0.198,0.674,0.209,0.777
				c0.457,0.12,1.026-0.038,1.364-0.363c0.94-0.92,2.144-1.902,3.514-1.963C475.838,593.33,476.38,592.115,475.052,592.173
				L475.052,592.173z"/>
		</g>
	</g>
	<g>
		<g>
			<path fill="#FFFFFF" d="M463.711,585.296c-1.505,1.176-3.203,2.063-4.709,3.235c-1.035,0.812,0.539,1.396,1.268,0.826
				c1.508-1.173,3.204-2.063,4.709-3.236C466.013,585.317,464.441,584.73,463.711,585.296L463.711,585.296z"/>
		</g>
	</g>
	<g>
		<g>
			<path fill="#FFFFFF" d="M460.459,580.531c-1.675,1.104-3.423,2.084-5.424,2.423c-1.234,0.208-0.83,1.594,0.372,1.391
				c2.335-0.396,4.396-1.587,6.348-2.874c0.359-0.236,0.47-0.771,0.093-1.041C461.424,580.12,460.858,580.273,460.459,580.531
				L460.459,580.531z"/>
		</g>
	</g>
	<g>
		<g>
			<path fill="#FFFFFF" d="M457.24,575.305c-1.417,0.816-2.992,1.328-4.537,1.844c-1.149,0.385-0.842,1.625,0.33,1.234
				c1.885-0.631,3.742-1.275,5.468-2.275c0.34-0.197,0.5-0.694,0.12-0.937C458.19,574.897,457.64,575.072,457.24,575.305
				L457.24,575.305z"/>
		</g>
	</g>
	<g>
		<g>
			<path fill="#FFFFFF" d="M456.084,568.616c-1.334-0.307-2.684-0.336-4.047-0.336c-0.461-0.001-1.023,0.122-1.263,0.571
				c-0.212,0.396,0.182,0.734,0.566,0.734c1.198,0.002,2.431-0.021,3.604,0.253c0.473,0.104,1.021,0.001,1.363-0.366
				C456.594,569.175,456.521,568.721,456.084,568.616L456.084,568.616z"/>
		</g>
	</g>
	<g>
		<g>
			<path fill="#FFFFFF" d="M457.276,561.606c-1.154-0.311-2.112-0.992-3.061-1.697c-0.558-0.417-2.324,0.396-1.521,0.99
				c1.06,0.791,2.128,1.489,3.417,1.834c0.447,0.121,1.034-0.043,1.363-0.365C457.784,562.07,457.677,561.712,457.276,561.606
				L457.276,561.606z"/>
		</g>
	</g>
	<g>
		<g>
			<path fill="#FFFFFF" d="M460.012,553.669c-0.939-1.53-2.193-2.774-3.589-3.899c-0.421-0.34-2.132,0.414-1.814,0.668
				c1.343,1.084,2.563,2.271,3.475,3.75C458.385,554.683,460.184,553.948,460.012,553.669L460.012,553.669z"/>
		</g>
	</g>
	<g>
		<g>
			<path fill="#FFFFFF" d="M464.133,545.725c-1.271-2.797-2.848-5.443-4.119-8.24c-0.351-0.771-2.253-0.188-1.933,0.521
				c1.272,2.798,2.849,5.44,4.12,8.237C462.551,547.013,464.455,546.433,464.133,545.725L464.133,545.725z"/>
		</g>
	</g>
	<g>
		<g>
			<path fill="#FFFFFF" d="M465.9,537.191c0-1.373,0.014-2.774-0.295-4.12c-0.148-0.647-2.088-0.154-1.935,0.521
				c0.313,1.347,0.295,2.747,0.295,4.119C463.967,538.281,465.901,537.925,465.9,537.191L465.9,537.191z"/>
		</g>
	</g>
	<g>
		<g>
			<path fill="#FFFFFF" d="M464.753,529.975c2.448,1.046,3.315,4.112,4.512,6.262c0.366,0.66,2.23,0.021,1.935-0.518
				c-1.303-2.34-2.238-5.546-4.906-6.688C465.708,528.781,463.944,529.625,464.753,529.975L464.753,529.975z"/>
		</g>
	</g>
	<g>
		<g>
			<path fill="#FFFFFF" d="M472.496,526.656c0.043,1.864,0.563,3.634,0.89,5.456c0.14,0.771,2.074,0.289,1.935-0.518
				c-0.307-1.708-0.837-3.396-0.877-5.142C474.417,525.551,472.478,525.93,472.496,526.656L472.496,526.656z"/>
		</g>
	</g>
	<g>
		<g>
			<path fill="#FFFFFF" d="M479.926,524.579c0.289,0.396,0.278,1.228,0.337,1.688c0.12,0.963,0.179,1.937,0.187,2.905
				c0.004,0.599,1.937,0.229,1.932-0.521c-0.007-0.972-0.072-1.938-0.184-2.905c-0.069-0.604-0.099-1.405-0.476-1.922
				C481.335,523.304,479.469,523.955,479.926,524.579L479.926,524.579z"/>
		</g>
	</g>
	<g>
		<g>
			<path fill="#FFFFFF" d="M485.156,523.875c0.954,1.779,0.563,3.979,0.294,5.888c-0.023,0.166,1.854,0.034,1.932-0.521
				c0.271-1.907,0.661-4.104-0.294-5.886C486.853,522.92,485.03,523.639,485.156,523.875L485.156,523.875z"/>
		</g>
	</g>
	<g>
		<g>
			<path fill="#FFFFFF" d="M491.335,525.054c0.247,0.677-0.011,1.637-0.103,2.324c-0.141,1.031-0.323,2.063-0.496,3.093
				c-0.156,0.928,1.813,0.646,1.951-0.168c0.188-1.126,0.383-2.25,0.531-3.382c0.098-0.72,0.305-1.684,0.045-2.389
				C492.962,523.699,491.042,524.246,491.335,525.054L491.335,525.054z"/>
		</g>
	</g>
	<g>
		<g>
			<path fill="#FFFFFF" d="M500.373,523.204c-0.747,2.313-1.698,4.56-2.186,6.943c-0.153,0.747,1.796,0.429,1.933-0.238
				c0.488-2.388,1.438-4.632,2.187-6.939C502.528,522.283,500.585,522.551,500.373,523.204L500.373,523.204z"/>
		</g>
	</g>
	<g>
		<g>
			<path fill="#FFFFFF" d="M509.074,524.531c-1.228,1.529-2.411,3.075-3.313,4.824c-0.208,0.402,1.644,0.234,1.916-0.301
				c0.857-1.667,1.997-3.133,3.163-4.592C511.299,523.897,509.4,524.128,509.074,524.531L509.074,524.531z"/>
		</g>
	</g>
	<g>
		<g>
			<path fill="#FFFFFF" d="M520.513,525.868c-1.135,0.651-2.305,1.469-3.11,2.501c-0.746,0.953,1.098,1.135,1.596,0.494
				c0.725-0.927,1.762-1.625,2.771-2.206c0.341-0.19,0.507-0.687,0.125-0.925C521.461,525.466,520.912,525.643,520.513,525.868
				L520.513,525.868z"/>
		</g>
	</g>
	<g>
		<g>
			<path fill="#FFFFFF" d="M528.25,529.63c0.072-0.043,0.145-0.085,0.215-0.13c0.783-0.491,0.101-1.107-0.545-1.107
				c-0.977,0.002-2.301,1.188-3.082,1.648c-1.445,0.854-2.891,1.705-4.332,2.568c-0.348,0.208-0.49,0.718-0.108,0.969
				c0.43,0.285,0.979,0.115,1.383-0.125c1.223-0.729,2.451-1.456,3.678-2.184c0.609-0.36,1.219-0.721,1.83-1.08
				c0.225-0.133,0.451-0.266,0.676-0.396c0.394-0.229,0.313-0.028-0.225-0.027c-0.183-0.369-0.363-0.739-0.543-1.108
				c-0.072,0.044-0.146,0.087-0.215,0.13c-0.351,0.209-0.49,0.721-0.111,0.973C527.297,530.036,527.849,529.867,528.25,529.63
				L528.25,529.63z"/>
		</g>
	</g>
	<g>
		<g>
			<path fill="#FFFFFF" d="M538.901,531.508c-1.728,0.12-3.349,1.168-4.793,2.021c-1.951,1.154-3.808,2.497-5.523,3.975
				c-0.889,0.763,1.016,0.975,1.592,0.479c1.357-1.163,2.834-2.188,4.334-3.154c1.17-0.756,2.744-1.93,4.188-2.028
				C539.737,532.724,540.226,531.41,538.901,531.508L538.901,531.508z"/>
		</g>
	</g>
	<g>
		<g>
			<path fill="#FFFFFF" d="M547.099,536.824c-1.397-0.194-2.987,0.602-4.248,1.105c-1.901,0.77-3.766,1.68-5.557,2.687
				c-1.139,0.644,0.527,1.12,1.238,0.725c1.271-0.716,2.596-1.338,3.926-1.938c1.045-0.47,2.742-1.502,3.928-1.336
				C547.233,538.19,548.401,537.01,547.099,536.824L547.099,536.824z"/>
		</g>
	</g>
	<g>
		<g>
			<path fill="#FFFFFF" d="M553.64,540.948c-1.801,0.606-3.551,1.313-5.254,2.15c-1.188,0.588-0.117,1.521,0.834,1.055
				c1.543-0.764,3.119-1.42,4.752-1.969C555.119,541.801,554.812,540.557,553.64,540.948L553.64,540.948z"/>
		</g>
	</g>
	<g>
		<g>
			<path fill="#FFFFFF" d="M553.403,545.504c-2.439,1.32-5.179,1.931-7.572,3.354c-1.125,0.67,0.531,1.139,1.236,0.719
				c2.25-1.339,4.85-1.875,7.143-3.115C555.373,545.826,554.308,545.015,553.403,545.504L553.403,545.504z"/>
		</g>
	</g>
	<g>
		<g>
			<path fill="#FFFFFF" d="M556.338,553.128c-1.994,0.81-4.131,1.064-6.254,1.334c-1.02,0.13-1.529,1.45-0.205,1.284
				c2.486-0.313,4.945-0.663,7.283-1.605C558.399,553.64,557.289,552.741,556.338,553.128L556.338,553.128z"/>
		</g>
	</g>
	<g>
		<g>
			<path fill="#FFFFFF" d="M559.201,557.86c-2.359,0.022-4.699,0.336-6.979,0.958c-1.143,0.313-0.926,1.13,0.222,0.816
				c1.955-0.534,3.944-0.789,5.973-0.812C559.051,558.82,560.5,557.848,559.201,557.86L559.201,557.86z"/>
		</g>
	</g>
	<g>
		<g>
			<path fill="#FFFFFF" d="M560.683,562.309c-3.252,0.001-6.473,0.089-9.625,0.964c-1.133,0.313-0.938,1.052,0.197,0.736
				c2.818-0.782,5.719-0.806,8.621-0.808C560.47,563.201,561.976,562.308,560.683,562.309L560.683,562.309z"/>
		</g>
	</g>
	<g>
		<g>
			<path fill="#FFFFFF" d="M554.935,569.32c0.009,0,0.015,0,0.021,0.001c-0.209-0.14-0.416-0.279-0.625-0.418c0,0,0,0.001,0,0.002
				c0.268-0.297,0.531-0.594,0.797-0.891c0.506-0.115-0.195,0.013-0.332,0.024c-0.406,0.053-0.813,0.104-1.223,0.155
				c-0.748,0.104-1.547,0.188-2.244,0.493c-0.332,0.146-0.758,0.582-0.465,0.959c0.297,0.383,0.926,0.292,1.305,0.123
				c0.092-0.04,0.076-0.034-0.045,0.016c0.063-0.019,0.127-0.032,0.188-0.05c0.115-0.028,0.232-0.054,0.353-0.074
				c0.385-0.063,0.771-0.114,1.16-0.168c0.543-0.067,1.104-0.097,1.643-0.219c0.414-0.094,0.854-0.428,0.797-0.891
				c0-0.001,0-0.002,0-0.002c-0.03-0.266-0.405-0.408-0.625-0.418c-0.006,0-0.012,0-0.018-0.001
				c-0.463-0.021-1.033,0.131-1.264,0.577C554.151,568.955,554.539,569.302,554.935,569.32L554.935,569.32z"/>
		</g>
	</g>
	<g>
		<g>
			<path fill="#FFFFFF" d="M558.615,573.166c-1.963,0-3.924,0-5.89,0c-0.629,0-2.088,0.953-0.786,0.953c1.963,0,3.924,0,5.887,0
				C558.455,574.119,559.914,573.166,558.615,573.166L558.615,573.166z"/>
		</g>
	</g>
	<g>
		<g>
			<path fill="#FFFFFF" d="M557.248,580.621c-3.486-0.916-6.814-2.316-10.301-3.232c-0.451-0.119-2.152,0.604-1.586,0.754
				c3.483,0.917,6.813,2.321,10.301,3.237C556.114,581.495,557.815,580.775,557.248,580.621L557.248,580.621z"/>
		</g>
	</g>
	<g>
		<g>
			<path fill="#FFFFFF" d="M550.965,582.887c-2.584,0.23-5.184-1.121-7.729-1.464c-0.513-0.067-2.259,0.784-1.22,0.925
				c2.707,0.362,5.39,1.729,8.156,1.479c0.438-0.039,0.984-0.139,1.285-0.494C551.74,582.99,551.213,582.863,550.965,582.887
				L550.965,582.887z"/>
		</g>
	</g>
	<g>
		<g>
			<path fill="#FFFFFF" d="M546.071,587.593c-0.142,0.308,0.014,0.287,0.457-0.063c-0.117-0.021-0.234-0.053-0.351-0.087
				c-0.317-0.085-0.627-0.244-0.926-0.382c-0.633-0.292-1.242-0.634-1.863-0.948c-0.58-0.294-2.354,0.538-1.53,0.953
				c1.135,0.574,2.27,1.289,3.53,1.544c1.021,0.205,2.313-0.166,2.615-1.254C548.207,586.639,546.258,586.919,546.071,587.593
				L546.071,587.593z"/>
		</g>
	</g>
	<g>
		<g>
			<path fill="#FFFFFF" d="M547.351,592.014c-3.432-0.603-7.014-0.887-10.004-2.833c-0.521-0.338-2.225,0.438-1.807,0.713
				c3.188,2.074,6.938,2.415,10.596,3.052C546.656,593.032,548.399,592.195,547.351,592.014L547.351,592.014z"/>
		</g>
	</g>
	<g>
		<g>
			<path fill="#FFFFFF" d="M539.504,596.307c-1.57,0.064-3.193-1.623-4.238-2.584c-1.1-1.013-2.104-2.119-3.227-3.106
				c-0.553-0.485-2.369,0.271-1.785,0.785c2.547,2.246,5.221,6.246,9.019,6.081C540.271,597.439,540.834,596.245,539.504,596.307
				L539.504,596.307z"/>
		</g>
	</g>
	<g>
		<g>
			<path fill="#FFFFFF" d="M534.069,599.815c-2.4-0.646-4.229-2.146-5.566-4.214c-0.434-0.672-2.291,0.024-1.775,0.819
				c1.476,2.271,3.58,3.906,6.207,4.613C533.694,601.24,535.22,600.121,534.069,599.815L534.069,599.815z"/>
		</g>
	</g>
</g>
<g id="Ebene_3">
</g>
<g>
	<path fill="#1AAB83" d="M11.518,15.509C4.455,31.695-3.784,59.063,12.107,70.245c7.063,5.003,39.434,11.184,48.557,11.771
		c18.54,1.472,32.371-0.295,42.082-16.773c4.12-6.77,10.594-20.601,8.24-28.251c-3.532-10.301-4.709-19.423-14.42-23.543
		C77.143,5.503,55.66-0.97,34.472,2.267C34.472,2.267,16.815,4.326,11.518,15.509z"/>
</g>
<g>
	<path fill="#B84A40" d="M35.65,10.506c-5.885,0.883-11.184,2.354-16.479,5.592c-5.003,2.942-5.591,7.651-7.945,12.654
		c-9.711,21.775,1.177,41.493,23.837,45.907c13.242,2.648,30.015,1.472,43.258-0.884c9.417-1.472,25.896-14.713,25.603-26.189
		c-0.294-12.948-2.647-15.009-12.652-23.543C80.209,14.61,64.49,8.153,50.07,10.506C50.07,10.506,39.77,10.212,35.65,10.506z"/>
</g>
<g>
	<g enable-background="new    ">
		<path fill="#FFFFFF" d="M30.127,21.951c-0.161,0.424-0.528,0.993-1.104,1.71c-0.96-0.8-1.584-1.2-1.872-1.2
			c-0.256,0-0.576,0.097-0.96,0.289c-1.024,0.576-1.68,1.474-1.968,2.691c-0.448,1.923-0.72,2.997-0.816,3.221
			c0,0.417,0.048,0.777,0.144,1.081c0.096,0.305,0.144,0.474,0.144,0.505c0,0.161-0.288,0.562-0.864,1.202l0.576,0.288v0.577
			c-0.448-0.063-0.736,0.032-0.864,0.289c0.416,0.833,0.624,1.361,0.624,1.586c0,0.128-0.017,0.257-0.048,0.385
			c-0.416,0.16-0.608,0.721-0.576,1.682c0,0.129,0,0.289,0,0.481c0,0.225-0.048,0.554-0.144,0.985
			c-0.096,0.433-0.144,0.761-0.144,0.985c0,0.321,0.082,0.626,0.247,0.913c-0.028,0.353-0.014,1.523,0.042,3.51
			c0,1.442-0.096,2.611-0.288,3.509c0.127,0.737,0.607,2.147,1.44,4.23c-0.096,0.128-0.144,0.272-0.144,0.433
			c0,0.288,0.24,0.705,0.72,1.25s0.751,0.913,0.816,1.105c-0.192,0.096-0.288,0.224-0.288,0.385c0,0.096,0.088,0.264,0.264,0.504
			c0.175,0.24,0.28,0.409,0.312,0.505c1.664-0.608,2.768-1.184,3.312-1.728c0.352-0.352,0.528-0.816,0.528-1.393
			c0-0.063,0-0.136,0-0.216c0-0.079,0-0.136,0-0.168c0-0.672,0.208-1.279,0.624-1.824c0.864,0.705,1.296,1.473,1.296,2.305
			c0,1.056-0.568,2.016-1.704,2.88c-1.136,0.864-2.216,1.296-3.24,1.296c-0.8-0.032-1.536-0.561-2.208-1.586
			c-0.929-1.41-1.504-2.195-1.728-2.355c-0.833-2.756-1.248-6.169-1.248-10.238c0-3.107,0.24-6.072,0.72-8.892
			c0.192-1.186,0.279-2.499,0.264-3.941c-0.017-1.441,0.232-2.771,0.744-3.989c0.352-0.897,1.04-2.083,2.064-3.558
			c0.736-0.479,1.552-0.721,2.448-0.721C28.335,20.925,29.295,21.267,30.127,21.951z"/>
		<path fill="#FFFFFF" d="M40.015,50.877c-0.576,0.384-1.088,1.376-1.536,2.977c-0.384,1.344-1.265,2.175-2.64,2.495
			c-0.224,0.192-0.464,0.288-0.72,0.288c-0.224,0-0.544-0.08-0.96-0.239c-0.416-0.161-0.704-0.257-0.864-0.288
			c-0.992-0.737-1.488-1.745-1.488-3.024c0-0.288,0.032-0.735,0.096-1.344c0.063-0.607,0.096-1.072,0.096-1.393
			c0-0.384-0.065-0.735-0.192-1.056c0.544-0.512,0.698-1.159,0.464-1.944c-0.235-0.783-0.165-1.432,0.208-1.943
			c-0.065-0.192-0.096-0.384-0.096-0.576c0-0.768,0.496-1.712,1.488-2.832c0.992-0.288,2.112-0.384,3.36-0.288
			c0.991,1.152,1.647,2.304,1.968,3.456c0.448,0.353,0.672,0.752,0.672,1.2c0,0.224-0.072,0.552-0.216,0.983
			c-0.144,0.433-0.216,0.776-0.216,1.032c0,0.32,0.096,0.624,0.288,0.912c-0.192,0.064-0.288,0.225-0.288,0.48
			c0,0.191,0.016,0.384,0.048,0.575L40.015,50.877z M37.231,48.957c0.127-0.16,0.192-0.336,0.192-0.528
			c0-0.191-0.353-0.735-1.056-1.632c0.672-0.576,0.96-1.392,0.864-2.448c-0.576-0.64-1.329-0.896-2.256-0.768
			c-0.704,0.832-1.056,1.889-1.056,3.168c0,0.225,0.016,0.593,0.048,1.104c0.031,0.512,0.048,0.896,0.048,1.151
			c0,0.896-0.118,1.68-0.353,2.353c-0.053,0.16-0.079,0.32-0.079,0.479c0,0.192,0.048,0.456,0.144,0.792
			c0.096,0.336,0.144,0.584,0.144,0.744c0,0.224-0.096,0.432-0.288,0.624c0.127,0.128,0.264,0.256,0.408,0.384
			s0.2,0.256,0.168,0.384c0.928,0.16,1.664-0.096,2.208-0.768c0.032-0.128,0.16-0.496,0.384-1.104c0.16-0.479,0.24-0.863,0.24-1.151
			c0-0.128-0.017-0.256-0.048-0.384c0.028-0.32,0.116-0.624,0.262-0.912s0.218-0.496,0.218-0.624
			C37.423,49.598,37.359,49.31,37.231,48.957z"/>
		<path fill="#FFFFFF" d="M53.119,51.07c0.063,0.191,0.096,0.368,0.096,0.527c0,0.288-0.152,0.681-0.456,1.177
			c-0.304,0.496-0.472,0.871-0.504,1.128c-0.896,0.256-1.664,0.384-2.304,0.384s-1.12-0.128-1.44-0.384
			c0-0.353-0.248-0.808-0.744-1.368c-0.497-0.56-0.713-1.048-0.648-1.464c0.223-0.064,0.336-0.16,0.336-0.288
			c0-0.097-0.057-0.24-0.168-0.433c-0.113-0.191-0.168-0.336-0.168-0.432c0-0.256,0.096-0.632,0.288-1.128
			c0.192-0.496,0.288-0.871,0.288-1.128c0-0.288-0.08-0.576-0.24-0.864c0-0.224,0-0.479,0-0.768c0-0.512-0.096-1.2-0.288-2.064
			c-0.192-1.056-0.305-1.728-0.336-2.016c-1.185,0.32-1.856,1.553-2.016,3.696c-0.096,1.184-0.48,2.512-1.152,3.983
			c0.063,0.225,0.096,0.48,0.096,0.769c0,0.287-0.056,0.743-0.168,1.367c-0.112,0.624-0.168,1.097-0.168,1.416
			c0,0.48,0.08,0.912,0.24,1.296c-0.032,0.032-0.185,0.2-0.456,0.505c-0.272,0.304-0.504,0.456-0.696,0.456
			c-0.096,0-0.176-0.032-0.24-0.097c-0.48-0.256-0.641-1.008-0.48-2.256c0.192-1.439,0.16-2.4-0.096-2.88
			c-0.032-0.319-0.017-0.912,0.048-1.776c0.063-1.023,0.096-1.775,0.096-2.256c0-2.592-0.72-4.096-2.16-4.512
			c0.032-0.576,0.608-1.231,1.728-1.968c0.768,0.288,1.152,0.896,1.152,1.823c0,0.129,0,0.305,0,0.528c0,0.225,0,0.384,0,0.48
			c0,0.736,0.175,1.313,0.528,1.728c0.127,0.032,0.24,0.048,0.336,0.048c0.16,0,0.319-0.111,0.48-0.336l0.336-0.576
			c-0.16-0.159-0.24-0.352-0.24-0.575c0-0.16,0.175-0.641,0.528-1.44c0.224-0.447,0.624-0.76,1.2-0.936
			c0.576-0.176,1.135-0.328,1.68-0.456c0.704,0.224,1.056,0.607,1.056,1.151c0,0.161-0.032,0.408-0.096,0.744
			c-0.064,0.336-0.096,0.584-0.096,0.744c0,0.448,0.175,0.8,0.528,1.056c0.032,0.257,0.112,0.816,0.24,1.681
			c0.127,0.704,0.192,1.264,0.192,1.68c0,0.896-0.24,1.68-0.72,2.352c0.352,1.697,0.928,2.641,1.728,2.832
			c0.032-0.063,0.176-0.432,0.432-1.104c0.16-0.416,0.4-0.72,0.72-0.912c0.127,0.192,0.416,0.305,0.864,0.336
			C52.702,50.573,52.99,50.75,53.119,51.07z"/>
		<path fill="#FFFFFF" d="M63.919,51.07c0.063,0.191,0.096,0.368,0.096,0.527c0,0.288-0.152,0.681-0.456,1.177
			c-0.305,0.496-0.473,0.871-0.504,1.128c-0.896,0.256-1.664,0.384-2.305,0.384c-0.64,0-1.119-0.128-1.439-0.384
			c0-0.353-0.248-0.808-0.744-1.368c-0.496-0.56-0.713-1.048-0.647-1.464c0.224-0.064,0.336-0.16,0.336-0.288
			c0-0.097-0.057-0.24-0.168-0.433c-0.112-0.191-0.168-0.336-0.168-0.432c0-0.256,0.096-0.632,0.288-1.128
			c0.191-0.496,0.287-0.871,0.287-1.128c0-0.288-0.08-0.576-0.239-0.864c0-0.224,0-0.479,0-0.768c0-0.512-0.097-1.2-0.288-2.064
			c-0.191-1.056-0.305-1.728-0.336-2.016c-1.185,0.32-1.856,1.553-2.016,3.696c-0.096,1.184-0.48,2.512-1.152,3.983
			c0.063,0.225,0.096,0.48,0.096,0.769c0,0.287-0.056,0.743-0.168,1.367c-0.112,0.624-0.168,1.097-0.168,1.416
			c0,0.48,0.08,0.912,0.24,1.296c-0.032,0.032-0.185,0.2-0.456,0.505c-0.272,0.304-0.504,0.456-0.696,0.456
			c-0.096,0-0.176-0.032-0.24-0.097c-0.48-0.256-0.641-1.008-0.48-2.256c0.192-1.439,0.16-2.4-0.096-2.88
			c-0.032-0.319-0.017-0.912,0.048-1.776c0.063-1.023,0.096-1.775,0.096-2.256c0-2.592-0.72-4.096-2.16-4.512
			c0.032-0.576,0.608-1.231,1.728-1.968c0.768,0.288,1.152,0.896,1.152,1.823c0,0.129,0,0.305,0,0.528c0,0.225,0,0.384,0,0.48
			c0,0.736,0.175,1.313,0.528,1.728c0.127,0.032,0.24,0.048,0.336,0.048c0.16,0,0.319-0.111,0.48-0.336l0.336-0.576
			c-0.16-0.159-0.24-0.352-0.24-0.575c0-0.16,0.175-0.641,0.528-1.44c0.224-0.447,0.624-0.76,1.2-0.936
			c0.576-0.176,1.135-0.328,1.68-0.456c0.703,0.224,1.056,0.607,1.056,1.151c0,0.161-0.032,0.408-0.097,0.744
			s-0.096,0.584-0.096,0.744c0,0.448,0.176,0.8,0.528,1.056c0.032,0.257,0.112,0.816,0.24,1.681c0.128,0.704,0.192,1.264,0.192,1.68
			c0,0.896-0.24,1.68-0.721,2.352c0.352,1.697,0.928,2.641,1.729,2.832c0.031-0.063,0.176-0.432,0.432-1.104
			c0.16-0.416,0.4-0.72,0.721-0.912c0.127,0.192,0.415,0.305,0.863,0.336C63.502,50.573,63.791,50.75,63.919,51.07z"/>
		<path fill="#FFFFFF" d="M73.469,50.925c0.352,0.161,0.528,0.416,0.528,0.769c0,0.736-0.672,1.56-2.016,2.472
			c-1.345,0.912-2.673,1.368-3.984,1.368c-1.025,0-1.824-0.32-2.4-0.96c0.031-0.288-0.096-0.641-0.384-1.057
			c-0.288-0.415-0.44-0.728-0.456-0.936c-0.017-0.208-0.152-0.903-0.408-2.088c-0.16-0.864-0.209-1.567-0.145-2.112
			c0.032-0.191-0.064-0.384-0.287-0.576c0.223-0.096,0.319-0.367,0.287-0.815c-0.096-0.097-0.144-0.208-0.144-0.336
			c0-0.16,0.16-0.448,0.48-0.864c0.319-0.415,0.479-0.768,0.479-1.056c0.031-1.248,0.049-2.512,0.049-3.792
			c0.191-1.472,0.735-2.544,1.631-3.217c1.152,0.032,2.288,0.688,3.408,1.969c-0.096,0.416,0.016,1.056,0.336,1.92
			c0.32,0.863,0.48,1.487,0.48,1.872c0,1.056-0.512,1.584-1.536,1.584c-0.224,0-0.632-0.064-1.224-0.192
			c-0.593-0.127-1.032-0.159-1.32-0.096c-0.416,0.064-0.736,0.336-0.96,0.815c-0.544,1.024-0.544,2.24,0,3.648
			c-0.192,0.064-0.288,0.225-0.288,0.479c0,0.449,0,0.656,0,0.624c0.385,0.161,0.576,0.48,0.576,0.96
			c0,0.288-0.096,0.528-0.288,0.721c0.8,1.536,1.567,2.304,2.304,2.304c0.352,0,0.703-0.112,1.057-0.336
			c0.447-0.064,1.104-0.528,1.968-1.392c-0.032-0.16-0.144-0.385-0.336-0.673c-0.192-0.287-0.288-0.527-0.288-0.72
			c0-0.576,0.352-0.864,1.057-0.864C72.094,50.349,72.701,50.541,73.469,50.925z M68.67,43.053
			c-0.096-0.672-0.209-1.344-0.336-2.016c-0.16-0.832-0.608-1.184-1.344-1.056c0.063,0.064,0.096,0.144,0.096,0.239
			c0,0.097-0.064,0.24-0.192,0.433c-0.128,0.191-0.192,0.32-0.192,0.384c0,0.128,0.097,0.24,0.289,0.336
			c-0.192,0.064-0.289,0.225-0.289,0.48v0.623c0.16,0.385,0.448,0.576,0.865,0.576C67.949,43.053,68.317,43.053,68.67,43.053z"/>
		<path fill="#FFFFFF" d="M81.773,54.117c-0.225,0.56-0.721,1.176-1.488,1.848c-1.121,0.96-1.729,1.52-1.824,1.681
			c-2.783-0.895-4.24-2.602-4.367-5.123c0.159-0.127,0.239-0.271,0.239-0.432c0-0.158-0.096-0.374-0.288-0.646
			c-0.191-0.271-0.304-0.455-0.336-0.551c0.607-0.989,0.912-2.394,0.912-4.213c0-0.191,0-0.487,0-0.886c0-0.399,0-0.71,0-0.934
			c0-2.649,0.96-4.452,2.88-5.41c0.128,0,0.344-0.056,0.648-0.167c0.304-0.112,0.52-0.168,0.647-0.168
			c0.288,0,0.512,0.175,0.672,0.522l-0.287,0.286c0.512,0.19,0.991,0.634,1.439,1.331c0.447,0.697,0.672,1.347,0.672,1.948
			c0,0.317-0.064,0.587-0.191,0.809c-0.385,0.031-0.752,0.048-1.104,0.048c-0.448,0-0.752-0.174-0.912-0.521
			c0.192-0.126,0.28-0.401,0.265-0.826c-0.018-0.425,0.055-0.7,0.215-0.826c-0.227-0.536-0.502-0.804-0.826-0.804
			c-0.195,0-0.52,0.151-0.973,0.454c-0.455,0.304-0.795,0.472-1.021,0.503c-0.52,0.511-0.779,1.181-0.779,2.01
			c0,0.351,0.072,0.909,0.217,1.674c0.144,0.767,0.215,1.341,0.215,1.724c0,0.51-0.096,0.957-0.287,1.339
			c-0.512,0.097-0.768,0.319-0.768,0.67c0,0.128,0.063,0.367,0.191,0.718c0.127,0.351,0.191,0.622,0.191,0.813
			c0,0.255-0.096,0.463-0.287,0.622l0.287,0.286l-0.239,0.287c0.352,0.128,0.56,0.479,0.624,1.054
			c0.063,0.733,0.176,1.195,0.336,1.388c0.191,0.286,0.399,0.637,0.624,1.052c0.128,0.191,0.239,0.287,0.336,0.287
			c0.128,0,0.495-0.096,1.104-0.288c0.096-0.16,0.359-0.4,0.791-0.72c0.433-0.32,0.648-0.608,0.648-0.864
			c0-0.128-0.048-0.288-0.145-0.479c-0.256-0.48-0.383-0.769-0.383-0.864c-0.033-0.128,0.063-0.464,0.287-1.008l0.192-0.384
			c0.128-0.353,0.255-0.528,0.384-0.528c0.064,0,0.24,0.137,0.527,0.408c0.289,0.272,0.576,0.376,0.865,0.312
			c0.287,0.161,0.432,0.497,0.432,1.008C82.109,53.037,81.996,53.557,81.773,54.117z"/>
		<path fill="#FFFFFF" d="M90.414,50.349c0.479,0.417,0.72,0.896,0.72,1.44c0,0.416-0.336,1.248-1.009,2.496
			c-0.512,0.96-1.313,1.439-2.399,1.439c-0.416,0-1.104-0.112-2.063-0.336c-0.769-0.896-1.217-2.144-1.344-3.743
			c0-0.097-0.018-1.456-0.049-4.08c0.224-0.224,0.32-0.416,0.288-0.576c-0.192-0.063-0.288-0.16-0.288-0.288
			c0-0.031,0.176-0.304,0.528-0.816c-0.032-0.159-0.048-0.336-0.048-0.527c0-0.224,0.055-0.56,0.168-1.009
			c0.111-0.447,0.168-0.768,0.168-0.96c0-0.319-0.096-0.607-0.288-0.863c-0.192,0-0.473,0.071-0.841,0.216
			c-0.367,0.144-0.632,0.216-0.791,0.216c-0.354,0-0.641-0.24-0.864-0.72c0.032-0.48-0.063-0.769-0.288-0.864
			c0.096-0.703,0.76-1.111,1.992-1.224c1.231-0.112,1.848-0.392,1.848-0.841c0-0.319-0.16-0.751-0.48-1.296
			c0.192-0.063,0.289-0.224,0.289-0.479c0-0.448,0-0.655,0-0.624c-0.033-0.16-0.033-0.64,0-1.44
			c0.031-0.607-0.064-1.071-0.289-1.392c-0.416,0.192-0.977,0.576-1.68,1.152c-0.225-0.288-0.336-0.592-0.336-0.912
			c0-0.288,0.111-0.616,0.336-0.984c0.224-0.367,0.32-0.583,0.288-0.648l-0.288-0.287c0.352-0.385,0.8-0.576,1.344-0.576
			c0.545,0,1.024,0.191,1.44,0.576c0.415,0.384,0.607,0.863,0.576,1.439c0.031,0.992,0.048,2,0.048,3.024
			c0,1.248-0.209,2.192-0.624,2.832c0.192,0.032,0.487,0.136,0.888,0.312c0.4,0.177,0.696,0.265,0.889,0.265
			c0.319,0,0.576-0.192,0.768-0.576c0.48-0.032,0.76,0.056,0.84,0.264c0.08,0.209,0.12,0.393,0.12,0.552
			c0,0.545-0.448,1.04-1.344,1.488c-1.12,0.545-1.745,0.896-1.872,1.056c-0.191,0.896-0.384,1.793-0.576,2.688
			c-0.225,1.056-0.336,1.937-0.336,2.64c0,0.769,0.127,1.521,0.385,2.256c-0.033,0.449,0.047,0.737,0.239,0.864
			c0,0.448-0.017,0.896-0.048,1.344c0.031,0.544,0.24,0.928,0.624,1.152c0.864,0.096,1.376-0.209,1.536-0.912
			c0.063-0.64,0.16-1.288,0.287-1.944C89.006,50.486,89.517,50.222,90.414,50.349z"/>
	</g>
</g>
<g>
	<g>
		<path fill="#FFFFFF" d="M57.919,76.204c-0.039,2.344-0.493,4.629,0.014,6.954c0.194,0.898,2.13,0.395,1.932-0.519
			c-0.478-2.197-0.024-4.368,0.013-6.583C59.894,75.042,57.934,75.331,57.919,76.204L57.919,76.204z"/>
	</g>
</g>
<g>
	<g>
		<path fill="#FFFFFF" d="M62.935,77.862c0.687,2.166,0.977,4.418,2.412,6.263c0.312,0.399,2.155-0.242,1.813-0.683
			c-1.379-1.771-1.636-4.02-2.295-6.098C64.706,76.838,62.785,77.392,62.935,77.862L62.935,77.862z"/>
	</g>
</g>
<g>
	<g>
		<path fill="#FFFFFF" d="M67.432,76.856c1.414,1.743,2.973,3.353,4.119,5.297c0.451,0.767,2.289,0.028,1.767-0.858
			c-1.146-1.944-2.705-3.555-4.12-5.297C68.632,75.299,66.798,76.073,67.432,76.856L67.432,76.856z"/>
	</g>
</g>
<g>
	<g>
		<path fill="#FFFFFF" d="M72.724,75.365c1.244,1.929,2.088,4.086,3.53,5.887c0.514,0.64,2.359-0.097,1.775-0.824
			c-1.443-1.802-2.286-3.959-3.531-5.886C74.06,73.862,72.205,74.564,72.724,75.365L72.724,75.365z"/>
	</g>
</g>
<g>
	<g>
		<path fill="#FFFFFF" d="M53.571,75.471c-0.719,1.121-1.197,2.414-1.532,3.698c-0.218,0.838,1.748,0.573,1.946-0.189
			c0.307-1.179,0.752-2.338,1.412-3.366c0.26-0.404-0.222-0.679-0.562-0.705C54.367,74.871,53.831,75.065,53.571,75.471
			L53.571,75.471z"/>
	</g>
</g>
<g>
	<g>
		<path fill="#FFFFFF" d="M45.344,75.819c-1.222,1.809-2.623,3.45-4.288,4.865c-0.313,0.267-0.21,0.601,0.182,0.679
			c0.459,0.093,1.012-0.064,1.366-0.365c1.755-1.491,3.251-3.235,4.539-5.142C47.64,75.119,45.695,75.3,45.344,75.819L45.344,75.819
			z"/>
	</g>
</g>
<g>
	<g>
		<path fill="#FFFFFF" d="M37.369,75.117c-0.577,1.368-1.49,2.57-2.665,3.481c-0.337,0.262-0.485,0.764-0.089,1.052
			c0.402,0.294,1.017,0.188,1.389-0.103c1.4-1.087,2.534-2.535,3.223-4.17C39.67,74.326,37.722,74.279,37.369,75.117L37.369,75.117z
			"/>
	</g>
</g>
<g>
	<g>
		<path fill="#FFFFFF" d="M32.225,73.666c-2.093,0.64-3.697,2.549-5.466,3.757c-0.355,0.244-0.47,0.773-0.09,1.05
			c0.419,0.306,0.996,0.166,1.39-0.103c0.86-0.59,1.667-1.251,2.479-1.903c0.607-0.488,1.3-1.169,2.063-1.402
			C33.781,74.703,33.418,73.301,32.225,73.666L32.225,73.666z"/>
	</g>
</g>
<g>
	<g>
		<path fill="#FFFFFF" d="M24.875,71.704c-2.043,0.084-3.897,1.366-5.315,2.748c-0.306,0.296-0.198,0.673,0.209,0.779
			c0.457,0.12,1.028-0.038,1.365-0.365c0.942-0.918,2.143-1.903,3.513-1.96C25.661,72.865,26.203,71.651,24.875,71.704
			L24.875,71.704z"/>
	</g>
</g>
<g>
	<g>
		<path fill="#FFFFFF" d="M13.533,64.829c-1.505,1.174-3.204,2.063-4.709,3.236c-1.036,0.809,0.539,1.396,1.267,0.826
			c1.506-1.173,3.204-2.063,4.709-3.237C15.836,64.848,14.261,64.261,13.533,64.829L13.533,64.829z"/>
	</g>
</g>
<g>
	<g>
		<path fill="#FFFFFF" d="M10.281,60.067c-1.675,1.104-3.423,2.085-5.424,2.423c-1.235,0.208-0.83,1.591,0.372,1.388
			c2.335-0.396,4.396-1.587,6.348-2.874c0.359-0.236,0.469-0.771,0.092-1.041C11.246,59.656,10.679,59.804,10.281,60.067
			L10.281,60.067z"/>
	</g>
</g>
<g>
	<g>
		<path fill="#FFFFFF" d="M7.062,54.835c-1.417,0.82-2.992,1.329-4.537,1.845c-1.15,0.384-0.842,1.625,0.33,1.234
			c1.885-0.63,3.742-1.275,5.468-2.274c0.34-0.197,0.5-0.695,0.12-0.938C8.01,54.428,7.463,54.604,7.062,54.835L7.062,54.835z"/>
	</g>
</g>
<g>
	<g>
		<path fill="#FFFFFF" d="M5.906,48.152c-1.334-0.307-2.684-0.336-4.047-0.336c-0.461,0-1.024,0.122-1.263,0.571
			c-0.213,0.397,0.182,0.735,0.568,0.735c1.199,0.001,2.43-0.02,3.604,0.252c0.473,0.107,1.023,0.001,1.365-0.366
			C6.417,48.706,6.343,48.252,5.906,48.152L5.906,48.152z"/>
	</g>
</g>
<g>
	<g>
		<path fill="#FFFFFF" d="M7.096,41.136c-1.154-0.309-2.112-0.992-3.058-1.697c-0.559-0.417-2.325,0.394-1.521,0.991
			c1.06,0.79,2.128,1.488,3.417,1.834c0.449,0.121,1.035-0.044,1.365-0.366C7.606,41.602,7.5,41.245,7.096,41.136L7.096,41.136z"/>
	</g>
</g>
<g>
	<g>
		<path fill="#FFFFFF" d="M9.835,33.201c-0.941-1.531-2.195-2.775-3.588-3.9c-0.421-0.34-2.132,0.414-1.817,0.667
			c1.343,1.084,2.564,2.271,3.475,3.75C8.208,34.215,10.007,33.48,9.835,33.201L9.835,33.201z"/>
	</g>
</g>
<g>
	<g>
		<path fill="#FFFFFF" d="M13.955,25.256c-1.271-2.797-2.848-5.443-4.12-8.24c-0.35-0.77-2.253-0.189-1.932,0.519
			c1.271,2.797,2.848,5.442,4.12,8.239C12.374,26.544,14.277,25.964,13.955,25.256L13.955,25.256z"/>
	</g>
</g>
<g>
	<g>
		<path fill="#FFFFFF" d="M15.721,16.722c0-1.373,0.014-2.774-0.295-4.12c-0.148-0.649-2.086-0.154-1.932,0.519
			c0.31,1.346,0.294,2.747,0.294,4.119C13.789,17.816,15.721,17.456,15.721,16.722L15.721,16.722z"/>
	</g>
</g>
<g>
	<g>
		<path fill="#FFFFFF" d="M14.575,9.506c2.448,1.046,3.315,4.114,4.511,6.262c0.367,0.661,2.231,0.021,1.933-0.518
			c-1.302-2.339-2.238-5.544-4.906-6.686C15.53,8.316,13.765,9.159,14.575,9.506L14.575,9.506z"/>
	</g>
</g>
<g>
	<g>
		<path fill="#FFFFFF" d="M22.318,6.192c0.043,1.864,0.563,3.632,0.889,5.456c0.138,0.77,2.075,0.289,1.933-0.518
			c-0.305-1.708-0.838-3.394-0.877-5.138C24.24,5.083,22.301,5.461,22.318,6.192L22.318,6.192z"/>
	</g>
</g>
<g>
	<g>
		<path fill="#FFFFFF" d="M29.749,4.115c0.289,0.395,0.278,1.225,0.336,1.686c0.121,0.962,0.177,1.936,0.185,2.906
			c0.004,0.598,1.937,0.229,1.932-0.519c-0.007-0.972-0.073-1.939-0.184-2.906c-0.069-0.604-0.097-1.408-0.474-1.921
			C31.158,2.835,29.291,3.49,29.749,4.115L29.749,4.115z"/>
	</g>
</g>
<g>
	<g>
		<path fill="#FFFFFF" d="M34.978,3.408c0.954,1.781,0.563,3.976,0.294,5.886c-0.023,0.166,1.854,0.035,1.932-0.519
			c0.27-1.909,0.661-4.104-0.294-5.886C36.675,2.452,34.85,3.171,34.978,3.408L34.978,3.408z"/>
	</g>
</g>
<g>
	<g>
		<path fill="#FFFFFF" d="M41.157,4.585c0.247,0.677-0.011,1.637-0.103,2.325c-0.139,1.034-0.323,2.063-0.496,3.093
			c-0.156,0.927,1.813,0.648,1.95-0.169c0.189-1.125,0.384-2.25,0.534-3.381c0.096-0.717,0.304-1.681,0.045-2.386
			C42.784,3.234,40.864,3.781,41.157,4.585L41.157,4.585z"/>
	</g>
</g>
<g>
	<g>
		<path fill="#FFFFFF" d="M50.195,2.74c-0.747,2.313-1.698,4.556-2.187,6.943c-0.152,0.747,1.797,0.429,1.934-0.238
			c0.488-2.388,1.438-4.631,2.186-6.942C52.348,1.818,50.407,2.082,50.195,2.74L50.195,2.74z"/>
	</g>
</g>
<g>
	<g>
		<path fill="#FFFFFF" d="M58.896,4.067c-1.226,1.53-2.411,3.076-3.312,4.824c-0.208,0.403,1.642,0.235,1.916-0.3
			c0.858-1.667,1.997-3.133,3.164-4.592C61.121,3.428,59.221,3.66,58.896,4.067L58.896,4.067z"/>
	</g>
</g>
<g>
	<g>
		<path fill="#FFFFFF" d="M70.335,5.404c-1.134,0.651-2.304,1.466-3.112,2.501c-0.745,0.953,1.098,1.133,1.596,0.494
			c0.725-0.927,1.762-1.625,2.772-2.206c0.338-0.193,0.506-0.686,0.124-0.925C71.282,4.997,70.736,5.174,70.335,5.404L70.335,5.404z
			"/>
	</g>
</g>
<g>
	<g>
		<path fill="#FFFFFF" d="M78.073,9.162c0.071-0.043,0.144-0.085,0.214-0.129c0.783-0.492,0.097-1.109-0.544-1.108
			c-0.977,0.001-2.302,1.188-3.084,1.65c-1.445,0.854-2.891,1.706-4.331,2.569c-0.348,0.208-0.489,0.718-0.111,0.968
			c0.431,0.285,0.982,0.116,1.384-0.125c1.223-0.731,2.449-1.457,3.678-2.183c0.609-0.361,1.22-0.721,1.83-1.081
			c0.226-0.133,0.451-0.266,0.677-0.397c0.39-0.229,0.313-0.031-0.224-0.03c-0.183-0.369-0.363-0.739-0.545-1.108
			c-0.07,0.044-0.144,0.087-0.215,0.13c-0.348,0.208-0.489,0.719-0.11,0.969C77.119,9.572,77.672,9.403,78.073,9.162L78.073,9.162z"
			/>
	</g>
</g>
<g>
	<g>
		<path fill="#FFFFFF" d="M88.723,11.039c-1.726,0.121-3.348,1.167-4.794,2.023c-1.95,1.154-3.805,2.497-5.522,3.973
			c-0.889,0.762,1.015,0.974,1.592,0.479c1.356-1.164,2.834-2.187,4.334-3.155c1.17-0.755,2.743-1.929,4.187-2.03
			C89.559,12.255,90.048,10.946,88.723,11.039L88.723,11.039z"/>
	</g>
</g>
<g>
	<g>
		<path fill="#FFFFFF" d="M96.922,16.359c-1.399-0.196-2.99,0.599-4.248,1.106c-1.904,0.769-3.766,1.68-5.557,2.687
			c-1.139,0.641,0.527,1.12,1.238,0.722c1.271-0.714,2.597-1.337,3.927-1.936c1.044-0.469,2.742-1.502,3.927-1.335
			C97.053,17.721,98.222,16.542,96.922,16.359L96.922,16.359z"/>
	</g>
</g>
<g>
	<g>
		<path fill="#FFFFFF" d="M103.463,20.483c-1.801,0.606-3.551,1.309-5.254,2.15c-1.188,0.587-0.118,1.522,0.832,1.054
			c1.544-0.763,3.121-1.419,4.752-1.969C104.942,21.332,104.635,20.088,103.463,20.483L103.463,20.483z"/>
	</g>
</g>
<g>
	<g>
		<path fill="#FFFFFF" d="M103.225,25.037c-2.439,1.321-5.177,1.929-7.573,3.355c-1.124,0.67,0.532,1.139,1.238,0.719
			c2.248-1.339,4.849-1.875,7.142-3.118C105.197,25.362,104.13,24.546,103.225,25.037L103.225,25.037z"/>
	</g>
</g>
<g>
	<g>
		<path fill="#FFFFFF" d="M106.16,32.661c-1.997,0.808-4.132,1.066-6.255,1.334c-1.021,0.128-1.529,1.452-0.205,1.285
			c2.486-0.313,4.944-0.663,7.282-1.608C108.22,33.171,107.111,32.277,106.16,32.661L106.16,32.661z"/>
	</g>
</g>
<g>
	<g>
		<path fill="#FFFFFF" d="M109.024,37.391c-2.359,0.022-4.699,0.335-6.978,0.958c-1.143,0.313-0.926,1.129,0.22,0.816
			c1.954-0.534,3.946-0.789,5.973-0.809C108.873,38.351,110.323,37.379,109.024,37.391L109.024,37.391z"/>
	</g>
</g>
<g>
	<g>
		<path fill="#FFFFFF" d="M110.505,41.84c-3.252,0.002-6.472,0.089-9.624,0.964c-1.133,0.314-0.938,1.052,0.197,0.736
			c2.819-0.782,5.718-0.803,8.622-0.804C110.292,42.737,111.799,41.839,110.505,41.84L110.505,41.84z"/>
	</g>
</g>
<g>
	<g>
		<path fill="#FFFFFF" d="M104.759,48.851c0.006,0,0.012,0,0.018,0.001c-0.209-0.14-0.417-0.279-0.625-0.418c0,0,0,0.001,0,0.002
			c0.266-0.297,0.531-0.594,0.797-0.892c0.505-0.114-0.198,0.014-0.332,0.028c-0.408,0.05-0.816,0.101-1.225,0.156
			c-0.746,0.104-1.548,0.185-2.242,0.492c-0.332,0.147-0.759,0.582-0.467,0.959c0.297,0.383,0.926,0.292,1.307,0.123
			c0.091-0.04,0.076-0.034-0.045,0.016c0.063-0.018,0.127-0.033,0.189-0.05c0.115-0.027,0.233-0.054,0.351-0.073
			c0.385-0.066,0.771-0.117,1.16-0.169c0.543-0.07,1.105-0.097,1.643-0.219c0.416-0.094,0.854-0.428,0.796-0.891
			c0-0.001,0-0.002,0-0.002c-0.032-0.263-0.404-0.408-0.625-0.418c-0.005,0-0.011-0.001-0.017-0.001
			c-0.462-0.021-1.033,0.131-1.261,0.581C103.972,48.49,104.361,48.833,104.759,48.851L104.759,48.851z"/>
	</g>
</g>
<g>
	<g>
		<path fill="#FFFFFF" d="M108.437,52.698c-1.962,0-3.924,0-5.887,0c-0.629,0-2.088,0.955-0.788,0.955c1.962,0,3.924,0,5.886,0
			C108.277,53.655,109.736,52.698,108.437,52.698L108.437,52.698z"/>
	</g>
</g>
<g>
	<g>
		<path fill="#FFFFFF" d="M107.07,60.156c-3.485-0.916-6.814-2.32-10.3-3.236c-0.451-0.118-2.153,0.605-1.586,0.756
			c3.484,0.916,6.813,2.321,10.3,3.237C105.936,61.031,107.637,60.306,107.07,60.156L107.07,60.156z"/>
	</g>
</g>
<g>
	<g>
		<path fill="#FFFFFF" d="M100.787,62.418c-2.586,0.233-5.185-1.121-7.732-1.463c-0.512-0.068-2.259,0.783-1.218,0.924
			c2.707,0.363,5.388,1.732,8.157,1.479c0.437-0.039,0.983-0.139,1.284-0.495C101.564,62.527,101.036,62.395,100.787,62.418
			L100.787,62.418z"/>
	</g>
</g>
<g>
	<g>
		<path fill="#FFFFFF" d="M95.893,67.124c-0.14,0.308,0.013,0.288,0.456-0.06c-0.118-0.022-0.234-0.053-0.35-0.086
			c-0.318-0.086-0.626-0.244-0.925-0.383c-0.632-0.293-1.242-0.634-1.863-0.948c-0.581-0.294-2.353,0.538-1.532,0.953
			c1.136,0.574,2.271,1.289,3.531,1.544c1.02,0.205,2.312-0.166,2.615-1.254C98.029,66.17,96.081,66.451,95.893,67.124
			L95.893,67.124z"/>
	</g>
</g>
<g>
	<g>
		<path fill="#FFFFFF" d="M97.173,71.544c-3.43-0.599-7.013-0.885-10.004-2.832c-0.52-0.338-2.225,0.439-1.807,0.713
			c3.188,2.074,6.938,2.414,10.596,3.053C96.478,72.568,98.22,71.727,97.173,71.544L97.173,71.544z"/>
	</g>
</g>
<g>
	<g>
		<path fill="#FFFFFF" d="M89.326,75.838c-1.571,0.067-3.193-1.623-4.238-2.584c-1.099-1.012-2.104-2.119-3.227-3.106
			c-0.554-0.487-2.37,0.271-1.785,0.785c2.548,2.246,5.221,6.246,9.014,6.081C90.094,76.97,90.656,75.781,89.326,75.838
			L89.326,75.838z"/>
	</g>
</g>
<g>
	<g>
		<path fill="#FFFFFF" d="M83.891,79.346c-2.401-0.646-4.227-2.145-5.565-4.214c-0.436-0.672-2.292,0.024-1.777,0.82
			c1.473,2.272,3.579,3.908,6.206,4.615C83.515,80.773,85.042,79.656,83.891,79.346L83.891,79.346z"/>
	</g>
</g>
</svg>
