<?xml version="1.0" encoding="utf-8"?>
<!-- Generator: Adobe Illustrator 15.1.0, SVG Export Plug-In . SVG Version: 6.00 Build 0)  -->
<!DOCTYPE svg PUBLIC "-//W3C//DTD SVG 1.1//EN" "http://www.w3.org/Graphics/SVG/1.1/DTD/svg11.dtd">
<svg version="1.1" id="Ebene_1" xmlns="http://www.w3.org/2000/svg" xmlns:xlink="http://www.w3.org/1999/xlink" x="0px" y="0px"
	 width="504px" height="73px" viewBox="21.5 167.5 504 73" enable-background="new 21.5 167.5 504 73" xml:space="preserve">
<g id="Ebene_2">
</g>
<g id="Ebene_3">
	<path fill="#65BD9F" d="M38.133,175.36c-10.473,4.614-5.515,25.525-6.515,31.203c-1,5.679-1.485,9.675,0.515,15.354
		c2,5.68,33,9.085,43,9.085s116.764-11.66,150.08-5.338c33.316,6.323,274.305,11.419,282.92,5.338c8.613-6.081,10-22.711,9-26.115
		c-1-3.407,0.258-17.896-6-22.71c-6.258-4.816-26-1.138-26-1.138s-132.934,6.423-159,5.679c-26.066-0.743-87-6.813-92-7.948
		s-79.114-3.154-93-3.406c-13.886-0.252-50.027,6.875-63.027,5.739C65.104,179.965,41.976,173.665,38.133,175.36z"/>
	<path fill="#1DAC84" d="M523.126,204.906c-1.021-3.993,0.265-20.979-6.136-26.627c-6.399-5.646-26.59-1.332-26.59-1.332
		s-135.938,7.529-162.594,6.657c-26.656-0.872-88.967-7.987-94.081-9.318c-5.113-1.332-80.901-3.697-95.102-3.992
		c-14.201-0.297-51.158,8.061-64.452,6.729s-36.946-8.716-40.876-6.729c-10.709,5.408-5.64,29.928-6.662,36.584
		c-1.022,6.653-1.519,11.345,0.527,18.001c2.045,6.655,33.746,10.648,43.972,10.648c10.226,0,119.403-13.674,153.472-6.258
		s280.504,13.39,289.315,6.258C522.731,228.396,524.149,208.902,523.126,204.906z M508.133,231
		c-8.615,6.08-249.604,0.984-282.92-5.339C191.896,219.339,85.133,231,75.133,231s-41-3.406-43-9.084
		c-2-5.681-1.515-9.678-0.515-15.354s-3.958-26.589,6.515-31.203c3.844-1.69,26.973,4.604,39.973,5.739
		c13,1.136,49.141-5.991,63.027-5.739c13.886,0.252,88,2.271,93,3.406s65.934,7.205,92,7.948c26.066,0.742,159-5.679,159-5.679
		s19.742-3.682,26,1.138c6.258,4.813,5,19.303,6,22.71C518.133,208.288,516.746,224.918,508.133,231z"/>
</g>
</svg>
