<?xml version="1.0" encoding="utf-8"?>
<!-- Generator: Adobe Illustrator 15.1.0, SVG Export Plug-In . SVG Version: 6.00 Build 0)  -->
<!DOCTYPE svg PUBLIC "-//W3C//DTD SVG 1.1//EN" "http://www.w3.org/Graphics/SVG/1.1/DTD/svg11.dtd">
<svg version="1.1" id="Ebene_1" xmlns="http://www.w3.org/2000/svg" xmlns:xlink="http://www.w3.org/1999/xlink" x="0px" y="0px"
	 width="163.209px" height="78.996px" viewBox="0 0 163.209 78.996" enable-background="new 0 0 163.209 78.996"
	 xml:space="preserve">
<path fill="#AC4B41" d="M9.654,5.546C6.373,7.699,7.051,26.62,5.677,31.606c-1.373,4.986,1.372,13.718,2.745,19.952
	c1.374,6.233,5.491,21.198,9.609,22.444c4.119,1.246,109.821,4.986,119.428,3.739c9.609-1.246,23.401-2.399,23.401-9.881
	c0-7.48,1.96-19.101-0.786-27.828c-2.745-8.728-9.976-24.159-8.115-29.017c1.046-2.735-19.522-5.351-30.506-5.351
	c-10.981,0-18.983-1.188-38.618,3.213C76.935,10.2,67.7,8.526,55.344,8.526c-12.356,0-28.277-4.163-34.43-5.114
	C15.719,2.608,12.937,3.395,9.654,5.546z"/>
<g id="Ebene_2">
</g>
<g id="Ebene_3">
</g>
<g id="Ebene_1_2_">
	<g>
		<g>
			<path fill="#096D52" d="M502.525,608.385c-0.201,0.525-0.66,1.24-1.384,2.137c-1.196-1-1.979-1.5-2.34-1.5
				c-0.317,0-0.72,0.121-1.2,0.361c-1.277,0.721-2.1,1.842-2.46,3.361c-0.561,2.402-0.896,3.746-1.02,4.025
				c0,0.52,0.06,0.971,0.18,1.354s0.183,0.594,0.183,0.633c0,0.197-0.359,0.699-1.079,1.502l0.72,0.357v0.725
				c-0.563-0.08-0.92,0.039-1.08,0.357c0.521,1.041,0.78,1.701,0.78,1.982c0,0.158-0.021,0.318-0.063,0.479
				c-0.521,0.199-0.76,0.9-0.72,2.104c0,0.16,0,0.359,0,0.602c0,0.281-0.06,0.691-0.18,1.232s-0.184,0.949-0.184,1.229
				c0,0.4,0.104,0.781,0.313,1.145c-0.035,0.439-0.021,1.9,0.051,4.387c0,1.805-0.12,3.266-0.36,4.387
				c0.159,0.924,0.763,2.688,1.803,5.289c-0.119,0.158-0.183,0.34-0.183,0.541c0,0.357,0.3,0.881,0.9,1.563
				c0.6,0.682,0.938,1.143,1.02,1.383c-0.237,0.119-0.356,0.279-0.356,0.479c0,0.119,0.105,0.33,0.33,0.633
				c0.22,0.301,0.35,0.512,0.39,0.631c2.08-0.762,3.459-1.48,4.14-2.16c0.439-0.438,0.66-1.021,0.66-1.74c0-0.08,0-0.17,0-0.27
				c0-0.102,0-0.17,0-0.211c0-0.842,0.26-1.602,0.78-2.279c1.08,0.881,1.62,1.84,1.62,2.881c0,1.318-0.711,2.52-2.13,3.602
				c-1.421,1.08-2.771,1.619-4.052,1.619c-1-0.039-1.922-0.699-2.762-1.98c-1.161-1.764-1.881-2.742-2.16-2.943
				c-1.041-3.441-1.56-7.711-1.56-12.799c0-3.885,0.3-7.59,0.897-11.115c0.239-1.479,0.353-3.121,0.329-4.926
				c-0.021-1.801,0.29-3.465,0.934-4.986c0.438-1.119,1.299-2.604,2.58-4.443c0.919-0.604,1.938-0.9,3.06-0.9
				C500.285,607.102,501.484,607.527,502.525,608.385z"/>
			<path fill="#096D52" d="M516.146,637.041l-2.102,2.102l-1.38-1.74c0.84-0.6,1.26-1.34,1.26-2.221c0-0.318-0.069-0.619-0.21-0.898
				c-0.141-0.275-0.411-0.42-0.81-0.42c-0.685,0-1,0-0.96,0l-2.82,4.92c0.12,0.439,0.18,0.922,0.18,1.439
				c0,0.561-0.081,1.42-0.237,2.58c-0.159,1.16-0.239,2.02-0.239,2.58c0,1.52,0.459,2.719,1.38,3.6c0.12,0.721-0.12,1.299-0.72,1.74
				c-0.24-0.119-1.144-0.119-2.7,0c-1.2,0.08-1.941-0.281-2.222-1.08c0.881-0.359,1.438-1.121,1.682-2.279
				c0.08-0.396,0.12-1.381,0.12-2.938c-0.32-0.439-0.48-0.9-0.48-1.381c0-0.398,0.16-0.979,0.48-1.74
				c0.316-0.758,0.479-1.338,0.479-1.738c0-0.277-0.06-0.541-0.18-0.781l1.08-6.299c-0.161-0.16-0.46-0.896-0.9-2.221
				c-0.318-0.92-0.84-1.381-1.56-1.381c-0.201,0-0.441,0-0.721,0c-0.04-0.111-0.063-0.227-0.063-0.336c0-0.229,0.14-0.471,0.42-0.73
				c0.44-0.336,0.71-0.529,0.813-0.588c0.1-0.057,0.21-0.084,0.329-0.084c0.601,0,1.397,0.5,2.397,1.5
				c0.16,0.16,0.279,0.959,0.36,2.398c0.04,1.162,0.62,1.641,1.738,1.438c0.277-1,1.438-1.459,3.479-1.379
				c0.521,0.641,1.04,1.279,1.56,1.92c0.643,0.799,0.962,1.5,0.962,2.104c0,0.561-0.263,1.076-0.778,1.559L516.146,637.041z"/>
			<path fill="#096D52" d="M528.865,644.602c0.438,0.199,0.66,0.52,0.66,0.959c0,0.92-0.844,1.949-2.521,3.09
				c-1.68,1.145-3.34,1.711-4.979,1.711c-1.278,0-2.277-0.396-3-1.201c0.041-0.355-0.117-0.801-0.479-1.316
				c-0.36-0.521-0.55-0.908-0.57-1.17c-0.02-0.262-0.188-1.129-0.51-2.609c-0.201-1.08-0.261-1.959-0.18-2.641
				c0.04-0.24-0.081-0.479-0.36-0.721c0.279-0.119,0.399-0.459,0.36-1.02c-0.12-0.119-0.184-0.26-0.184-0.42
				c0-0.199,0.2-0.563,0.604-1.08c0.396-0.52,0.6-0.961,0.6-1.32c0.04-1.561,0.063-3.139,0.063-4.736
				c0.237-1.84,0.92-3.184,2.04-4.021c1.438,0.041,2.855,0.861,4.26,2.461c-0.12,0.521,0.02,1.318,0.42,2.398
				c0.397,1.08,0.6,1.857,0.6,2.34c0,1.32-0.641,1.979-1.92,1.979c-0.279,0-0.791-0.076-1.529-0.236
				c-0.738-0.158-1.289-0.199-1.647-0.119c-0.521,0.08-0.921,0.42-1.2,1.02c-0.681,1.281-0.681,2.803,0,4.564
				c-0.239,0.08-0.358,0.279-0.358,0.6c0,0.564,0,0.82,0,0.779c0.479,0.201,0.722,0.602,0.722,1.201c0,0.355-0.12,0.658-0.36,0.896
				c1,1.92,1.959,2.881,2.88,2.881c0.439,0,0.881-0.143,1.32-0.42c0.561-0.082,1.38-0.658,2.46-1.738
				c-0.041-0.199-0.18-0.48-0.42-0.842c-0.24-0.357-0.359-0.658-0.359-0.898c0-0.719,0.438-1.08,1.319-1.08
				C527.145,643.881,527.904,644.121,528.865,644.602z M522.865,634.762c-0.12-0.84-0.264-1.682-0.42-2.521
				c-0.201-1.041-0.764-1.479-1.684-1.316c0.08,0.08,0.12,0.18,0.12,0.299c0,0.121-0.081,0.301-0.24,0.541
				c-0.157,0.238-0.236,0.396-0.236,0.479c0,0.16,0.12,0.303,0.356,0.42c-0.236,0.08-0.356,0.279-0.356,0.604v0.779
				c0.198,0.479,0.56,0.721,1.08,0.721C521.965,634.762,522.424,634.762,522.865,634.762z"/>
			<path fill="#096D52" d="M546.204,647.129c-1.04,0.953-2.22,1.434-3.54,1.434c-0.682,0-1.36-0.135-2.04-0.402
				c-0.36-0.488-0.78-0.734-1.261-0.734c-0.32,0-0.879,0.188-1.684,0.566c-0.801,0.383-1.396,0.57-1.8,0.57
				c-0.6,0-1.14-0.281-1.62-0.842c-0.355,0.24-0.76,0.357-1.195,0.357c-0.765,0-1.645-0.34-2.645-1.02
				c-0.201-0.721-0.3-1.439-0.3-2.16c0-1.438,0.45-2.631,1.351-3.568c0.899-0.938,2.069-1.408,3.514-1.408
				c0.799,0,1.617,0.158,2.459,0.479c0.119,0.039,0.357,0.271,0.721,0.689s0.68,0.629,0.96,0.629c0.239,0,0.499-0.219,0.78-0.658
				c-0.081-0.32-0.104-1.08-0.063-2.281c0.039-0.959-0.06-1.654-0.3-2.1c0.642-2.039,0.96-4.719,0.96-8.039
				c0-4.48,0.037-7.201,0.109-8.16l0.551-0.84c-0.201-0.24-0.54-1.4-1.021-3.48c-0.359-1.438-1.104-2.34-2.224-2.697
				c-0.08-0.119-0.119-0.264-0.119-0.42c0-0.604,0.398-1.119,1.199-1.563c1.08,0.32,1.82,0.84,2.221,1.563
				c0.239,0.438,0.439,1.221,0.604,2.34c0.159,1.121,0.42,1.979,0.778,2.58c0.157,0.277,0.237,0.561,0.237,0.84
				c0,0.322-0.106,0.762-0.33,1.32c-0.221,0.561-0.33,1-0.33,1.316c0,0.16,0.055,0.441,0.15,0.842c0.1,0.398,0.15,0.738,0.15,1.021
				c0,0.479-0.104,1.111-0.305,1.891c-0.196,0.779-0.3,1.33-0.3,1.65c0,0.438,0.104,0.84,0.3,1.199
				c-0.188,2.561-0.549,6.42-1.079,11.58l0.423,0.301c-0.239,0.119-0.359,0.26-0.359,0.42c0,0.119,0.08,0.301,0.24,0.539
				c0.155,0.24,0.237,0.42,0.237,0.541c0,0.119-0.118,0.238-0.357,0.355c0.275,0.4,0.42,0.941,0.42,1.621
				c0,0.684,0.099,1.199,0.3,1.563c-0.28,0.238-0.42,0.438-0.42,0.602c0,0.162,0.479,0.299,1.439,0.42
				c0.438-0.602,1.038-0.84,1.801-0.721L546.204,647.129z M538.164,644.24c-0.563,0-1.313-0.236-2.25-0.721
				c-0.94-0.479-1.65-0.721-2.13-0.721c-0.563,0-1.104,0.238-1.62,0.721c0-0.039,0,0.34,0,1.141c0,0.439,0.12,0.764,0.357,0.961
				c0.277-0.117,0.603-0.182,0.961-0.182c0.357,0,0.907,0.09,1.647,0.271c0.739,0.182,1.25,0.271,1.53,0.271
				C537.543,645.98,538.044,645.4,538.164,644.24z"/>
			<path fill="#096D52" d="M549.563,619.82l-0.72,2.104c-0.041-0.039-0.76-0.184-2.16-0.42c-0.84-0.16-1.156-0.725-0.96-1.684
				c0.521-0.76,1.302-1.141,2.343-1.141C548.904,618.682,549.403,619.061,549.563,619.82z M553.104,648.561
				c0.039,0.16,0.063,0.34,0.063,0.541c0,0.318-0.121,0.77-0.36,1.35c-0.237,0.578-0.381,0.99-0.42,1.229
				c-0.521,0.279-1.041,0.422-1.56,0.422c-1.361,0-2.724-0.842-4.08-2.521c0.438-0.199,0.669-0.723,0.688-1.563
				c0.021-0.84,0.271-1.359,0.75-1.563c-0.641-0.721-0.828-1.852-0.566-3.391c0.26-1.539,0.211-2.631-0.15-3.271
				c0.479-1.078,0.76-2.521,0.841-4.318c0.12-2.799,0.2-4.279,0.239-4.438c-0.2-0.359-0.62-0.643-1.26-0.842
				c-0.645-0.199-1.04-0.52-1.199-0.961c0.438-0.316,0.879-0.639,1.32-0.959c0.6-0.439,1.079-0.66,1.438-0.66
				c0.48,0,0.841,0.32,1.08,0.959l-0.721,0.66c1.04,0.24,1.561,0.762,1.561,1.564c0,0.199-0.051,0.551-0.146,1.051
				c-0.103,0.5-0.15,0.891-0.15,1.17c0,0.32,0.102,0.58,0.302,0.779c-0.642,1.277-0.938,3.02-0.897,5.221
				c0.039,3.84,0.061,5.619,0.061,5.34c-0.479,0.279-0.721,0.604-0.721,0.959c0,0.281,0.17,0.701,0.51,1.264
				c0.341,0.561,0.53,0.979,0.57,1.26c0.521,0,1.021-0.021,1.5-0.063C552.303,647.818,552.744,648.08,553.104,648.561z"/>
			<path fill="#096D52" d="M563.184,643.881c0.604,0.521,0.899,1.119,0.899,1.801c0,0.52-0.42,1.561-1.26,3.119
				c-0.644,1.199-1.645,1.801-3,1.801c-0.521,0-1.38-0.141-2.58-0.42c-0.96-1.121-1.521-2.68-1.685-4.682
				c0-0.119-0.02-1.818-0.059-5.102c0.279-0.279,0.396-0.521,0.355-0.721c-0.236-0.08-0.355-0.199-0.355-0.359
				c0-0.039,0.219-0.381,0.659-1.021c-0.04-0.199-0.063-0.42-0.063-0.658c0-0.281,0.068-0.701,0.209-1.262
				c0.145-0.563,0.211-0.961,0.211-1.199c0-0.398-0.119-0.76-0.356-1.08c-0.239,0-0.595,0.09-1.054,0.271
				c-0.461,0.182-0.791,0.271-0.986,0.271c-0.44,0-0.803-0.301-1.08-0.9c0.041-0.6-0.08-0.961-0.359-1.08
				c0.119-0.879,0.949-1.391,2.49-1.527c1.539-0.143,2.31-0.488,2.31-1.051c0-0.398-0.196-0.938-0.601-1.619
				c0.24-0.078,0.359-0.279,0.359-0.604c0-0.559,0-0.816,0-0.777c-0.039-0.197-0.039-0.803,0-1.803
				c0.039-0.76-0.08-1.34-0.359-1.736c-0.521,0.236-1.221,0.721-2.1,1.438c-0.28-0.357-0.424-0.74-0.424-1.141
				c0-0.359,0.144-0.771,0.424-1.229c0.275-0.461,0.396-0.73,0.355-0.811l-0.355-0.359c0.438-0.48,1-0.721,1.68-0.721
				s1.279,0.238,1.801,0.721c0.521,0.479,0.759,1.08,0.72,1.799c0.039,1.24,0.063,2.5,0.063,3.781c0,1.563-0.26,2.74-0.779,3.539
				c0.24,0.041,0.609,0.17,1.109,0.391c0.5,0.225,0.87,0.33,1.106,0.33c0.399,0,0.724-0.238,0.962-0.721
				c0.602-0.039,0.947,0.07,1.052,0.33c0.1,0.26,0.146,0.49,0.146,0.689c0,0.682-0.561,1.301-1.68,1.857
				c-1.4,0.684-2.18,1.119-2.34,1.318c-0.24,1.121-0.48,2.24-0.723,3.359c-0.277,1.318-0.421,2.42-0.421,3.301
				c0,0.959,0.159,1.896,0.479,2.816c-0.04,0.564,0.061,0.922,0.301,1.08c0,0.563-0.021,1.121-0.061,1.682
				c0.039,0.682,0.301,1.16,0.776,1.439c1.079,0.119,1.724-0.262,1.92-1.143c0.079-0.801,0.2-1.607,0.36-2.43
				C561.422,644.053,562.063,643.723,563.184,643.881z"/>
			<path fill="#096D52" d="M574.223,650.422c0.563,0.799,0.843,1.719,0.843,2.76c0,1.357-0.439,2.709-1.318,4.051
				c-0.881,1.34-1.9,2.328-3.063,2.969c-0.235,0.16-0.46,0.24-0.657,0.24c-0.278,0-0.568-0.201-0.868-0.6
				c-0.303-0.4-0.531-0.604-0.69-0.604c-0.16,0-0.357,0.104-0.6,0.303c0-0.08-0.66-1.08-1.98-3c-0.72-1.041-1.221-2.16-1.5-3.359
				c-0.04-0.16-0.18-0.42-0.42-0.779c-0.238-0.357-0.355-0.66-0.355-0.896c0-0.121,0.02-0.266,0.06-0.42
				c0.399,0,0.699-0.225,0.899-0.66c0.316-0.725,0.5-1.08,0.541-1.08c0.315,0.199,1.196,0.301,2.64,0.301
				c1.159,0,1.897,0.379,2.22,1.139c0.12,0.199,0.182,0.385,0.182,0.541c0,0.359-0.237,0.66-0.722,0.898
				c-0.681,0.32-1.078,0.541-1.198,0.66c-0.278-0.32-0.521-0.439-0.722-0.359c-0.317,0.359-0.479,0.74-0.479,1.143
				c0,0.561,0.407,1.342,1.229,2.342c0.819,1,1.29,1.699,1.41,2.1c0.12,0.039,0.26,0.064,0.42,0.064c0.479,0,0.939-0.266,1.38-0.781
				c0.32-0.439,0.644-0.898,0.96-1.379c0.04-0.32,0.185-1.064,0.422-2.225c0.198-1.041,0.3-1.855,0.3-2.459
				c0-0.641-0.117-1.182-0.357-1.621c-0.04-0.076-0.359-0.381-0.96-0.896c-0.4-0.359-0.54-0.76-0.42-1.199
				c-1.32-0.561-2.46-1.801-3.42-3.721c-1.041-2.078-2.001-3.42-2.881-4.021c-0.2-0.275-0.303-0.6-0.303-0.959
				c0-0.357,0.144-0.932,0.421-1.711c0.277-0.777,0.42-1.35,0.42-1.709c0-0.602-0.278-1.121-0.841-1.561
				c0-0.199,0.052-0.49,0.149-0.871c0.101-0.379,0.148-0.648,0.148-0.813c0-0.316-0.103-0.576-0.302-0.777
				c0.316-0.199,0.676-0.619,1.071-1.264c0.396-0.639,0.734-1.037,1.014-1.195c2.188-0.199,4.149,0.979,5.897,3.539
				c0.238,0.881,0.354,1.68,0.354,2.396c0,1.564-0.579,2.98-1.736,4.26c-0.12,0.041-0.24,0.064-0.36,0.064
				c-0.199,0-0.46-0.119-0.779-0.359c-0.317-0.238-0.521-0.381-0.601-0.42c0.039-0.318,0.38-0.781,1.021-1.381
				c0.521-0.52,0.762-1,0.723-1.438c-0.12-0.842-0.263-1.711-0.42-2.609c-0.161-0.898-0.604-1.549-1.32-1.949
				c-0.398-0.199-0.818-0.301-1.26-0.301c-1.281,0-1.92,0.461-1.92,1.381c0,0.24,0.12,0.479,0.356,0.721
				c-0.039,0.16-0.061,0.32-0.061,0.479c0,0.201,0.039,0.521,0.12,0.961c0.079,0.439,0.12,0.779,0.12,1.02
				c0,0.359-0.063,0.701-0.184,1.021l0.359,0.359c-0.12,0.277-0.18,0.578-0.18,0.898c0,0.719,0.275,1.66,0.84,2.818
				c0.479,0.881,0.96,1.738,1.438,2.58c0.279,0.561,1.239,1.699,2.882,3.42C573.463,647.779,574.143,649.102,574.223,650.422z"/>
		</g>
	</g>
</g>
<g id="Ebene_3_1_">
</g>
<path fill="#FFFFFF" d="M50.747,13.614c-0.201,0.529-0.66,1.242-1.38,2.138c-1.2-1-1.98-1.5-2.34-1.5c-0.321,0-0.72,0.12-1.2,0.36
	c-1.281,0.721-2.1,1.843-2.46,3.365c-0.561,2.403-0.9,3.746-1.02,4.025c0,0.521,0.06,0.971,0.18,1.352
	c0.12,0.381,0.18,0.592,0.18,0.631c0,0.201-0.36,0.702-1.08,1.503l0.72,0.36v0.721c-0.561-0.08-0.92,0.04-1.08,0.361
	c0.52,1.041,0.78,1.702,0.78,1.982c0,0.16-0.021,0.32-0.06,0.481c-0.521,0.2-0.76,0.9-0.72,2.103c0,0.16,0,0.36,0,0.601
	c0,0.281-0.06,0.692-0.18,1.232c-0.12,0.541-0.18,0.951-0.18,1.231c0,0.401,0.102,0.782,0.309,1.142
	c-0.035,0.441-0.018,1.903,0.051,4.387c0,1.804-0.12,3.265-0.36,4.386c0.159,0.924,0.759,2.687,1.8,5.289
	c-0.12,0.16-0.18,0.34-0.18,0.541c0,0.359,0.3,0.881,0.9,1.563c0.6,0.682,0.939,1.142,1.02,1.382c-0.24,0.12-0.36,0.28-0.36,0.479
	c0,0.121,0.109,0.33,0.33,0.631c0.22,0.302,0.35,0.513,0.39,0.632c2.08-0.761,3.459-1.479,4.14-2.159
	c0.439-0.439,0.66-1.021,0.66-1.74c0-0.08,0-0.17,0-0.271c0-0.098,0-0.168,0-0.209c0-0.84,0.26-1.6,0.78-2.279
	c1.08,0.88,1.62,1.84,1.62,2.88c0,1.319-0.711,2.521-2.13,3.601c-1.42,1.08-2.77,1.619-4.05,1.619c-1-0.039-1.92-0.701-2.76-1.981
	c-1.161-1.763-1.881-2.743-2.16-2.944c-1.041-3.443-1.56-7.711-1.56-12.798c0-3.885,0.3-7.59,0.9-11.115
	c0.24-1.48,0.35-3.123,0.33-4.926c-0.021-1.802,0.29-3.465,0.93-4.987c0.439-1.121,1.299-2.604,2.58-4.446
	c0.919-0.6,1.939-0.9,3.06-0.9C48.506,12.332,49.707,12.758,50.747,13.614z"/>
<path fill="#FFFFFF" d="M64.367,42.271l-2.1,2.101l-1.38-1.74c0.84-0.601,1.26-1.34,1.26-2.221c0-0.319-0.07-0.619-0.21-0.899
	c-0.141-0.279-0.411-0.42-0.81-0.42c-0.681,0-1,0-0.96,0l-2.82,4.92c0.12,0.44,0.18,0.922,0.18,1.439c0,0.563-0.081,1.421-0.24,2.58
	c-0.16,1.16-0.24,2.021-0.24,2.58c0,1.521,0.459,2.72,1.38,3.601c0.12,0.72-0.12,1.3-0.72,1.739c-0.24-0.119-1.14-0.119-2.7,0
	c-1.2,0.08-1.941-0.28-2.22-1.079c0.879-0.36,1.44-1.121,1.68-2.28c0.08-0.398,0.12-1.38,0.12-2.939
	c-0.32-0.439-0.48-0.899-0.48-1.381c0-0.398,0.16-0.979,0.48-1.74c0.32-0.758,0.48-1.338,0.48-1.738c0-0.279-0.06-0.54-0.18-0.779
	l1.08-6.301c-0.161-0.16-0.46-0.9-0.9-2.221c-0.32-0.919-0.84-1.38-1.56-1.38c-0.201,0-0.441,0-0.72,0
	c-0.04-0.112-0.06-0.224-0.06-0.336c0-0.225,0.14-0.468,0.42-0.73c0.44-0.336,0.71-0.532,0.81-0.589s0.21-0.084,0.33-0.084
	c0.6,0,1.4,0.5,2.4,1.5c0.16,0.16,0.279,0.96,0.36,2.399c0.04,1.161,0.62,1.641,1.74,1.44c0.279-1,1.44-1.46,3.48-1.38
	c0.52,0.64,1.04,1.28,1.56,1.92c0.639,0.8,0.96,1.5,0.96,2.1c0,0.562-0.261,1.08-0.78,1.561L64.367,42.271z"/>
<path fill="#FFFFFF" d="M77.087,49.832c0.439,0.199,0.66,0.52,0.66,0.96c0,0.92-0.84,1.949-2.521,3.09
	c-1.68,1.14-3.34,1.71-4.98,1.71c-1.281,0-2.28-0.4-3-1.199c0.04-0.361-0.12-0.802-0.48-1.32c-0.36-0.52-0.55-0.909-0.57-1.17
	c-0.021-0.26-0.19-1.131-0.51-2.609c-0.201-1.08-0.261-1.96-0.18-2.641c0.04-0.24-0.081-0.479-0.36-0.721
	c0.279-0.119,0.399-0.459,0.36-1.021c-0.12-0.119-0.18-0.259-0.18-0.42c0-0.199,0.2-0.56,0.6-1.08c0.399-0.519,0.6-0.96,0.6-1.319
	c0.04-1.561,0.06-3.14,0.06-4.74c0.24-1.839,0.92-3.18,2.04-4.02c1.44,0.04,2.859,0.86,4.26,2.46c-0.12,0.52,0.02,1.319,0.42,2.399
	c0.399,1.08,0.6,1.86,0.6,2.34c0,1.32-0.641,1.98-1.92,1.98c-0.281,0-0.791-0.08-1.53-0.24c-0.741-0.16-1.29-0.199-1.65-0.121
	c-0.521,0.082-0.921,0.42-1.2,1.021c-0.681,1.28-0.681,2.801,0,4.561c-0.24,0.08-0.36,0.279-0.36,0.601c0,0.562,0,0.819,0,0.778
	c0.48,0.201,0.72,0.602,0.72,1.201c0,0.359-0.12,0.66-0.36,0.899c1,1.92,1.959,2.88,2.88,2.88c0.439,0,0.879-0.141,1.32-0.42
	c0.56-0.081,1.38-0.66,2.46-1.74c-0.041-0.199-0.18-0.479-0.42-0.84c-0.24-0.359-0.36-0.66-0.36-0.9c0-0.719,0.439-1.08,1.32-1.08
	C75.366,49.111,76.126,49.352,77.087,49.832z M71.086,39.991c-0.12-0.84-0.26-1.68-0.42-2.52c-0.201-1.04-0.76-1.479-1.68-1.32
	c0.08,0.081,0.12,0.181,0.12,0.3c0,0.12-0.081,0.301-0.24,0.54c-0.161,0.24-0.24,0.4-0.24,0.48c0,0.16,0.12,0.3,0.36,0.42
	c-0.24,0.081-0.36,0.28-0.36,0.6v0.78c0.2,0.48,0.56,0.72,1.08,0.72C70.187,39.991,70.646,39.991,71.086,39.991z"/>
<path fill="#FFFFFF" d="M94.426,52.359c-1.04,0.953-2.22,1.433-3.54,1.433c-0.681,0-1.359-0.136-2.039-0.401
	c-0.361-0.492-0.781-0.738-1.262-0.738c-0.32,0-0.879,0.189-1.68,0.57c-0.801,0.379-1.4,0.569-1.801,0.569
	c-0.6,0-1.14-0.28-1.619-0.841c-0.359,0.24-0.76,0.359-1.199,0.359c-0.761,0-1.641-0.34-2.641-1.02c-0.201-0.721-0.3-1.439-0.3-2.16
	c0-1.439,0.45-2.63,1.351-3.57c0.899-0.938,2.069-1.41,3.51-1.41c0.799,0,1.619,0.16,2.459,0.48c0.121,0.04,0.361,0.27,0.721,0.689
	c0.36,0.418,0.68,0.63,0.961,0.63c0.238,0,0.498-0.22,0.779-0.659c-0.081-0.32-0.102-1.08-0.061-2.279
	c0.039-0.961-0.061-1.66-0.301-2.102c0.641-2.039,0.961-4.719,0.961-8.039c0-4.479,0.037-7.2,0.108-8.16l0.551-0.84
	c-0.2-0.24-0.54-1.4-1.02-3.48c-0.36-1.44-1.103-2.34-2.222-2.7c-0.08-0.12-0.119-0.26-0.119-0.42c0-0.6,0.398-1.119,1.199-1.56
	c1.08,0.32,1.82,0.84,2.221,1.56c0.24,0.44,0.439,1.221,0.601,2.34c0.159,1.12,0.42,1.98,0.779,2.58
	c0.159,0.28,0.239,0.561,0.239,0.84c0,0.321-0.109,0.761-0.33,1.32c-0.221,0.561-0.33,1-0.33,1.32c0,0.16,0.052,0.44,0.15,0.84
	c0.1,0.4,0.15,0.74,0.15,1.02c0,0.48-0.102,1.11-0.301,1.891c-0.2,0.779-0.301,1.33-0.301,1.649c0,0.441,0.101,0.84,0.301,1.2
	c-0.189,2.561-0.549,6.42-1.08,11.581l0.42,0.299c-0.239,0.121-0.359,0.262-0.359,0.42c0,0.121,0.08,0.302,0.24,0.541
	c0.159,0.24,0.24,0.42,0.24,0.539c0,0.121-0.121,0.24-0.36,0.361c0.279,0.399,0.42,0.939,0.42,1.619c0,0.682,0.099,1.2,0.3,1.561
	c-0.279,0.24-0.42,0.439-0.42,0.601s0.48,0.3,1.439,0.42c0.439-0.601,1.04-0.84,1.801-0.721L94.426,52.359z M86.386,49.471
	c-0.561,0-1.311-0.24-2.25-0.72s-1.65-0.722-2.13-0.722c-0.562,0-1.101,0.24-1.62,0.722c0-0.04,0,0.34,0,1.14
	c0,0.44,0.12,0.762,0.359,0.961c0.279-0.121,0.601-0.181,0.961-0.181c0.359,0,0.909,0.091,1.648,0.271
	c0.739,0.181,1.25,0.271,1.53,0.271C85.765,51.211,86.267,50.631,86.386,49.471z"/>
<path fill="#FFFFFF" d="M97.785,25.051l-0.72,2.1c-0.041-0.039-0.76-0.18-2.16-0.42c-0.84-0.159-1.16-0.72-0.961-1.68
	c0.521-0.76,1.301-1.141,2.341-1.141C97.126,23.911,97.625,24.292,97.785,25.051z M101.325,53.792
	c0.039,0.159,0.061,0.339,0.061,0.54c0,0.318-0.121,0.77-0.359,1.35c-0.24,0.58-0.381,0.99-0.42,1.229
	c-0.521,0.28-1.041,0.421-1.561,0.421c-1.361,0-2.721-0.841-4.08-2.521c0.439-0.199,0.669-0.72,0.689-1.56
	c0.02-0.841,0.27-1.358,0.75-1.562c-0.641-0.719-0.83-1.85-0.57-3.39c0.26-1.538,0.211-2.63-0.15-3.271
	c0.48-1.08,0.76-2.521,0.842-4.319c0.119-2.8,0.199-4.28,0.238-4.44c-0.199-0.36-0.619-0.64-1.26-0.84
	c-0.641-0.2-1.04-0.52-1.199-0.96c0.439-0.319,0.879-0.64,1.32-0.96c0.6-0.439,1.079-0.66,1.439-0.66c0.479,0,0.84,0.32,1.08,0.96
	l-0.722,0.66c1.04,0.24,1.562,0.76,1.562,1.56c0,0.201-0.051,0.551-0.15,1.051s-0.15,0.891-0.15,1.17c0,0.32,0.101,0.58,0.301,0.779
	c-0.641,1.281-0.939,3.021-0.899,5.221c0.039,3.84,0.062,5.62,0.062,5.34c-0.48,0.28-0.722,0.601-0.722,0.96
	c0,0.28,0.171,0.7,0.511,1.26c0.34,0.562,0.529,0.98,0.569,1.26c0.521,0,1.021-0.021,1.5-0.059
	C100.524,53.05,100.966,53.311,101.325,53.792z"/>
<path fill="#FFFFFF" d="M111.405,49.111c0.6,0.521,0.9,1.119,0.9,1.8c0,0.521-0.421,1.562-1.261,3.12
	c-0.642,1.199-1.642,1.801-3,1.801c-0.521,0-1.381-0.141-2.58-0.421c-0.961-1.12-1.521-2.679-1.681-4.681
	c0-0.119-0.021-1.818-0.061-5.1c0.279-0.279,0.398-0.52,0.359-0.721c-0.24-0.079-0.359-0.199-0.359-0.359
	c0-0.039,0.219-0.38,0.66-1.021c-0.041-0.198-0.061-0.42-0.061-0.658c0-0.28,0.068-0.7,0.21-1.262c0.14-0.56,0.21-0.959,0.21-1.199
	c0-0.398-0.119-0.759-0.359-1.079c-0.24,0-0.591,0.09-1.051,0.27c-0.46,0.18-0.79,0.271-0.99,0.271c-0.439,0-0.8-0.301-1.08-0.9
	c0.041-0.6-0.078-0.96-0.359-1.08c0.121-0.879,0.949-1.39,2.49-1.53c1.539-0.14,2.312-0.489,2.312-1.05
	c0-0.399-0.201-0.939-0.601-1.62c0.238-0.079,0.359-0.279,0.359-0.6c0-0.56,0-0.819,0-0.78c-0.041-0.199-0.041-0.8,0-1.8
	c0.039-0.76-0.081-1.34-0.359-1.74c-0.521,0.24-1.222,0.72-2.102,1.44c-0.279-0.36-0.42-0.74-0.42-1.141
	c0-0.359,0.141-0.77,0.42-1.229c0.279-0.459,0.4-0.729,0.359-0.811l-0.359-0.359c0.439-0.48,1-0.721,1.682-0.721
	c0.68,0,1.278,0.24,1.799,0.721c0.521,0.479,0.761,1.08,0.722,1.8c0.039,1.24,0.06,2.5,0.06,3.78c0,1.56-0.261,2.74-0.779,3.54
	c0.24,0.04,0.608,0.17,1.108,0.39c0.5,0.221,0.871,0.33,1.111,0.33c0.397,0,0.719-0.24,0.959-0.72c0.601-0.04,0.95,0.07,1.051,0.33
	c0.101,0.26,0.149,0.49,0.149,0.689c0,0.681-0.561,1.301-1.68,1.86c-1.401,0.681-2.182,1.12-2.342,1.319
	c-0.238,1.122-0.479,2.241-0.719,3.36c-0.281,1.32-0.42,2.422-0.42,3.301c0,0.959,0.158,1.899,0.479,2.82
	c-0.039,0.561,0.061,0.92,0.301,1.079c0,0.562-0.021,1.12-0.062,1.681c0.04,0.68,0.302,1.16,0.781,1.439
	c1.079,0.12,1.719-0.261,1.92-1.141c0.079-0.801,0.198-1.609,0.358-2.43C109.646,49.281,110.285,48.952,111.405,49.111z"/>
<path fill="#FFFFFF" d="M122.444,55.65c0.561,0.801,0.841,1.721,0.841,2.761c0,1.358-0.44,2.71-1.32,4.051s-1.899,2.329-3.06,2.97
	c-0.24,0.159-0.461,0.24-0.66,0.24c-0.28,0-0.57-0.201-0.87-0.602c-0.3-0.399-0.53-0.6-0.688-0.6c-0.162,0-0.36,0.1-0.602,0.301
	c0-0.08-0.66-1.08-1.979-3c-0.721-1.041-1.222-2.16-1.502-3.36c-0.039-0.16-0.18-0.42-0.42-0.779
	c-0.238-0.36-0.358-0.659-0.358-0.899c0-0.121,0.021-0.262,0.062-0.42c0.397,0,0.698-0.222,0.898-0.66
	c0.318-0.721,0.499-1.08,0.54-1.08c0.319,0.199,1.2,0.301,2.64,0.301c1.16,0,1.899,0.379,2.221,1.141
	c0.121,0.198,0.181,0.379,0.181,0.539c0,0.359-0.24,0.66-0.72,0.899c-0.682,0.319-1.08,0.54-1.201,0.659
	c-0.279-0.319-0.521-0.439-0.719-0.358c-0.321,0.358-0.48,0.739-0.48,1.14c0,0.561,0.41,1.34,1.23,2.34
	c0.818,1,1.289,1.701,1.408,2.102c0.12,0.039,0.26,0.061,0.422,0.061c0.479,0,0.938-0.262,1.379-0.781
	c0.319-0.439,0.64-0.898,0.961-1.379c0.039-0.32,0.18-1.062,0.42-2.221c0.199-1.041,0.3-1.859,0.3-2.459
	c0-0.642-0.12-1.182-0.36-1.621c-0.04-0.08-0.359-0.381-0.96-0.899c-0.399-0.359-0.54-0.761-0.42-1.199
	c-1.319-0.562-2.46-1.801-3.42-3.722c-1.04-2.078-2.001-3.42-2.88-4.02c-0.201-0.279-0.301-0.601-0.301-0.96
	c0-0.36,0.141-0.931,0.42-1.71s0.421-1.352,0.421-1.71c0-0.601-0.28-1.12-0.841-1.561c0-0.199,0.051-0.489,0.149-0.87
	c0.101-0.379,0.15-0.649,0.15-0.81c0-0.319-0.101-0.579-0.3-0.78c0.316-0.199,0.674-0.619,1.07-1.26
	c0.397-0.64,0.735-1.04,1.014-1.2c2.186-0.199,4.15,0.98,5.897,3.54c0.238,0.881,0.357,1.68,0.357,2.4c0,1.56-0.58,2.979-1.74,4.261
	c-0.12,0.039-0.24,0.06-0.358,0.06c-0.201,0-0.461-0.119-0.781-0.358c-0.319-0.24-0.521-0.381-0.601-0.421
	c0.04-0.319,0.38-0.78,1.021-1.38c0.52-0.52,0.76-1,0.72-1.439c-0.12-0.84-0.261-1.71-0.42-2.61c-0.16-0.899-0.6-1.55-1.32-1.949
	c-0.398-0.2-0.82-0.301-1.26-0.301c-1.279,0-1.92,0.461-1.92,1.38c0,0.24,0.12,0.48,0.359,0.721c-0.041,0.16-0.061,0.32-0.061,0.479
	c0,0.201,0.04,0.521,0.12,0.96c0.08,0.441,0.12,0.779,0.12,1.021c0,0.358-0.061,0.699-0.18,1.02l0.358,0.359
	c-0.118,0.28-0.18,0.58-0.18,0.9c0,0.721,0.278,1.66,0.84,2.818c0.479,0.882,0.96,1.74,1.44,2.58
	c0.279,0.562,1.238,1.701,2.879,3.42C121.685,53.012,122.364,54.332,122.444,55.65z"/>
</svg>
