<?xml version="1.0" encoding="utf-8"?>
<!-- Generator: Adobe Illustrator 15.1.0, SVG Export Plug-In . SVG Version: 6.00 Build 0)  -->
<!DOCTYPE svg PUBLIC "-//W3C//DTD SVG 1.1//EN" "http://www.w3.org/Graphics/SVG/1.1/DTD/svg11.dtd">
<svg version="1.1" id="Ebene_1" xmlns="http://www.w3.org/2000/svg" xmlns:xlink="http://www.w3.org/1999/xlink" x="0px" y="0px"
	 width="210px" height="76.449px" viewBox="0 0 210 76.449" enable-background="new 0 0 210 76.449" xml:space="preserve">
<path fill="#086E52" d="M7.826,3.407c-4.311,2.12-3.421,20.76-5.224,25.674C0.8,33.994,4.404,42.595,6.208,48.736
	c1.804,6.142,7.212,20.885,12.62,22.114c5.408,1.228,144.236,4.914,156.856,3.685c12.617-1.229,30.73-2.363,30.73-9.734
	c0-7.369,2.574-18.817-1.032-27.416c-3.605-8.6-13.101-23.802-10.658-28.586c1.373-2.694-25.64-5.272-40.064-5.272
	c-14.424,0-24.932-1.172-50.722,3.163C96.189,7.99,84.059,6.343,67.834,6.343c-16.226,0-37.14-4.101-45.22-5.039
	C15.792,0.511,12.137,1.286,7.826,3.407z"/>
<g id="Ebene_1_1_">
	<path fill="#096D52" d="M423.74,531.41c-4.538,1.836-0.949,18.515,4.982,32.277c1.898,5.318-6.644,30.502-0.947,31.565
		c20.646,5.694,120.33-2.495,133.616-3.562c13.284-1.063,51.5,9.492,60.994,3.562c5.413-3.385,6.407-28.153,2.611-35.602
		c-3.797-7.445-2.333-24.336,0.237-28.479c1.445-2.333-34.895-2.373-50.077-2.373c-15.188,0-25.062,1.94-52.214,5.694
		c-8.157,1.128-20.653-1.659-37.735-1.659c-17.084,0-34.687-5.599-43.195-6.408C434.831,525.743,428.278,529.574,423.74,531.41z"/>
	<g>
		<g>
			<path fill="#FFFFFF" d="M459.475,574.16c-0.358,1.521-0.699,3.021-1.021,4.5c-0.521,1.759-1.5,2.762-2.939,3
				c-0.68,1.199-1.84,2.021-3.479,2.46c-1.479,0.239-2.96,0.459-4.439,0.659c-1.398-0.88-2.62-2.101-3.659-3.659
				c-1.199-1.801-1.681-3.461-1.439-4.979c0.12-0.88,0.865-1.801,2.232-2.761c1.205-0.88,2.313-1.398,3.317-1.563
				c0.2-0.039,0.451,0.041,0.753,0.24c0.303,0.2,0.572,0.239,0.814,0.119c0.161-0.119,0.342-0.181,0.544-0.181
				c0.44,0,0.924,0.199,1.446,0.602c0.041,0.119,0.361,0.6,0.967,1.438c0.44,0.563,0.664,1.04,0.664,1.439
				c0,0.359-0.144,0.72-0.424,1.08c-0.604,0.68-1.13,0.938-1.57,0.779c-0.362-0.12-0.665-0.62-0.905-1.5
				c-0.242-0.762-0.505-1.143-0.786-1.143c-0.201,0-0.441,0.081-0.726,0.24c-0.161-0.159-0.363-0.24-0.604-0.24
				c-0.121,0-0.382,0.091-0.786,0.269c-0.401,0.18-0.726,0.206-0.966,0.089c-0.441,0.435-0.866,0.849-1.27,1.24
				c-0.442,0.515-0.688,1.007-0.727,1.479l0.359,0.414c-0.08,0.157-0.119,0.335-0.119,0.532c0,0.394,0.239,0.904,0.72,1.536
				c0.602,0.826,0.938,1.302,1.021,1.42c0.721,0.709,1.62,1.063,2.7,1.063c1.237,0,3.1-0.62,5.579-1.857
				c0.921-0.479,1.561-1.54,1.921-3.183l0.84-3.897c-1.12-3.438-3.46-7.38-7.021-11.819c-4.762-6-7.561-9.681-8.398-11.04l0.42-0.42
				c-0.8-0.759-1.199-1.898-1.199-3.42c0-2.319,0.759-4.521,2.279-6.601c1.68-2.318,3.68-3.562,6-3.723
				c1.398,1.041,2.34,1.821,2.818,2.342c0.96,1.039,1.479,2.102,1.562,3.181c-0.479,0.279-0.72,0.642-0.72,1.08
				c0,0.278,0.198,0.79,0.6,1.528c0.4,0.74,0.561,1.313,0.479,1.711c-0.079,0.439-0.328,0.761-0.75,0.96
				c-0.42,0.199-0.829,0.399-1.229,0.602c-0.2-0.681-0.33-1.801-0.39-3.36c-0.062-1.559-0.19-2.679-0.392-3.357
				c-0.358-1.199-1.021-2.103-1.979-2.699c-1.479-0.159-2.762,0.42-3.841,1.739c-0.802,1.239-1.619,2.479-2.46,3.721
				c0-0.159,0,0.899,0,3.18c0.039,1.281-0.08,2.32-0.359,3.12c0,0.04,1.561,1.801,4.681,5.28c1.88,2.08,3.2,4,3.96,5.76
				c2.642,1.643,5.142,5.063,7.5,10.261c-0.279,0.16-0.42,0.382-0.42,0.659c0,0.201,0.129,0.501,0.391,0.9
				C459.283,573.781,459.434,574.039,459.475,574.16z"/>
			<path fill="#FFFFFF" d="M469.613,572.9c0.601,0.521,0.898,1.12,0.898,1.8c0,0.521-0.42,1.563-1.26,3.12
				c-0.641,1.2-1.642,1.801-3,1.801c-0.521,0-1.381-0.141-2.58-0.421c-0.96-1.12-1.521-2.679-1.681-4.68
				c0-0.12-0.021-1.819-0.062-5.101c0.279-0.278,0.399-0.521,0.36-0.723c-0.24-0.079-0.36-0.198-0.36-0.357
				c0-0.039,0.221-0.38,0.66-1.021c-0.04-0.199-0.061-0.42-0.061-0.659c0-0.278,0.067-0.698,0.21-1.261
				c0.141-0.561,0.21-0.96,0.21-1.2c0-0.396-0.12-0.759-0.359-1.079c-0.24,0-0.59,0.092-1.05,0.271
				c-0.461,0.18-0.791,0.271-0.99,0.271c-0.438,0-0.8-0.301-1.08-0.898c0.041-0.602-0.08-0.96-0.358-1.079
				c0.119-0.88,0.949-1.391,2.488-1.53c1.539-0.141,2.312-0.488,2.312-1.05c0-0.399-0.2-0.938-0.601-1.62
				c0.239-0.079,0.359-0.279,0.359-0.601c0-0.562,0-0.818,0-0.779c-0.04-0.199-0.04-0.801,0-1.801
				c0.04-0.761-0.081-1.34-0.359-1.739c-0.521,0.239-1.222,0.72-2.101,1.438c-0.28-0.358-0.42-0.739-0.42-1.142
				c0-0.358,0.14-0.771,0.42-1.229c0.278-0.46,0.398-0.729,0.359-0.813l-0.359-0.357c0.438-0.479,1-0.723,1.68-0.723
				c0.682,0,1.279,0.24,1.802,0.723c0.521,0.479,0.759,1.08,0.72,1.8c0.039,1.239,0.061,2.5,0.061,3.78
				c0,1.561-0.26,2.738-0.778,3.539c0.238,0.039,0.607,0.17,1.108,0.391c0.5,0.222,0.87,0.33,1.109,0.33
				c0.397,0,0.721-0.239,0.96-0.721c0.601-0.039,0.95,0.069,1.051,0.329c0.102,0.262,0.149,0.49,0.149,0.689
				c0,0.681-0.563,1.301-1.682,1.859c-1.399,0.682-2.181,1.118-2.34,1.317c-0.239,1.121-0.479,2.241-0.721,3.36
				c-0.279,1.319-0.42,2.421-0.42,3.3c0,0.96,0.159,1.899,0.479,2.819c-0.041,0.562,0.062,0.922,0.302,1.08
				c0,0.562-0.021,1.12-0.062,1.681c0.04,0.68,0.3,1.16,0.779,1.439c1.08,0.118,1.72-0.263,1.92-1.143
				c0.08-0.8,0.2-1.607,0.358-2.43C467.854,573.071,468.493,572.74,469.613,572.9z"/>
			<path fill="#FFFFFF" d="M484.733,577.699c-0.321,0.563-0.82,0.938-1.5,1.143c-0.683,0.197-1.359,0.397-2.04,0.601
				c-0.16-0.32-0.512-0.62-1.052-0.898c-0.538-0.279-0.891-0.562-1.05-0.842c0.04-0.08,0.17-0.278,0.392-0.6
				c0.219-0.32,0.329-0.563,0.329-0.721c0-0.199-0.119-0.359-0.359-0.479c-0.159,0.081-0.979,0.521-2.46,1.319
				c-1,0.561-1.819,0.841-2.46,0.841c-0.721,0-1.42-0.24-2.102-0.721c-1.238-0.881-1.858-1.841-1.858-2.881
				c0-1.721,1.801-3.681,5.398-5.881c0.279,0,0.762,0.11,1.439,0.33c0.681,0.222,1.2,0.329,1.561,0.329c0.439,0,0.841-0.099,1.2-0.3
				c-0.12-0.399-0.181-0.859-0.181-1.38c0-0.439,0.051-1.119,0.149-2.04c0.101-0.92,0.149-1.601,0.149-2.04
				c0-1.88-0.861-3-2.58-3.359c-0.88,0.2-1.762,0.382-2.641,0.54c-1.041,0.2-1.8,0.62-2.279,1.262
				c0.239,0.238,0.359,0.521,0.359,0.841c0,0.277-0.115,0.681-0.348,1.198c-0.229,0.521-0.366,0.882-0.407,1.079l-0.378,0.359
				c-0.882-0.279-1.363-0.8-1.447-1.561c0-0.762,0-1.521,0-2.279c1.695-1.76,3.938-2.939,6.729-3.54l0.729,0.72
				c1.654,0.321,2.585,0.521,2.788,0.604c0.849,0.397,1.333,1.14,1.454,2.22c0.08,0.601,0.039,1.479-0.119,2.64
				c-0.16,1.281-0.24,2.16-0.24,2.643c0,0.802,0.12,1.5,0.359,2.101c-0.761,0.722-1.141,1.8-1.141,3.24
				c0,0.521,0.141,1.761,0.42,3.72c0.08-0.72,0.899-1.061,2.46-1.021C484.613,575.6,484.854,576.539,484.733,577.699z
				 M478.073,572.78c-0.521-0.999-1.142-1.5-1.859-1.5c-0.16,0-0.36,0.021-0.601,0.063c-0.521,0.562-1.062,1.102-1.62,1.62
				c-0.563,0.641-0.96,1.278-1.199,1.92c0.278,0,0.528,0.119,0.75,0.357c0.219,0.24,0.429,0.461,0.63,0.66
				c0.879-0.319,1.771-0.688,2.67-1.109C477.743,574.37,478.152,573.7,478.073,572.78z"/>
			<path fill="#FFFFFF" d="M497.152,566.06l-2.102,2.101l-1.38-1.738c0.84-0.603,1.26-1.342,1.26-2.223
				c0-0.317-0.068-0.619-0.21-0.897s-0.411-0.42-0.811-0.42c-0.682,0-1,0-0.96,0l-2.819,4.92c0.12,0.438,0.182,0.922,0.182,1.438
				c0,0.563-0.081,1.421-0.24,2.58c-0.16,1.161-0.239,2.021-0.239,2.58c0,1.521,0.459,2.72,1.38,3.603
				c0.12,0.72-0.12,1.299-0.721,1.737c-0.239-0.118-1.142-0.118-2.7,0c-1.199,0.08-1.94-0.278-2.22-1.079
				c0.879-0.358,1.438-1.119,1.681-2.278c0.08-0.398,0.119-1.38,0.119-2.939c-0.319-0.438-0.479-0.897-0.479-1.38
				c0-0.399,0.16-0.979,0.479-1.74c0.32-0.759,0.479-1.339,0.479-1.737c0-0.279-0.061-0.54-0.18-0.78l1.08-6.3
				c-0.161-0.16-0.461-0.899-0.9-2.223c-0.318-0.919-0.84-1.38-1.561-1.38c-0.2,0-0.44,0-0.72,0
				c-0.04-0.111-0.062-0.225-0.062-0.336c0-0.226,0.142-0.468,0.42-0.729c0.439-0.336,0.71-0.532,0.812-0.591
				c0.101-0.057,0.21-0.084,0.33-0.084c0.601,0,1.398,0.5,2.398,1.5c0.16,0.16,0.278,0.962,0.36,2.399
				c0.039,1.161,0.619,1.641,1.739,1.439c0.277-1,1.438-1.461,3.479-1.381c0.521,0.642,1.04,1.279,1.562,1.92
				c0.639,0.801,0.96,1.5,0.96,2.102c0,0.561-0.263,1.079-0.78,1.56L497.152,566.06z"/>
			<path fill="#FFFFFF" d="M508.792,572.9c0.6,0.521,0.899,1.12,0.899,1.8c0,0.521-0.42,1.563-1.262,3.12
				c-0.64,1.2-1.642,1.801-3,1.801c-0.521,0-1.38-0.141-2.58-0.421c-0.96-1.12-1.521-2.679-1.68-4.68
				c0-0.12-0.021-1.819-0.061-5.101c0.277-0.278,0.397-0.521,0.358-0.723c-0.239-0.079-0.358-0.198-0.358-0.357
				c0-0.039,0.22-0.38,0.658-1.021c-0.039-0.199-0.06-0.42-0.06-0.659c0-0.278,0.068-0.698,0.21-1.261
				c0.14-0.561,0.21-0.96,0.21-1.2c0-0.396-0.12-0.759-0.36-1.079c-0.238,0-0.59,0.092-1.05,0.271s-0.791,0.271-0.989,0.271
				c-0.438,0-0.801-0.301-1.079-0.898c0.041-0.602-0.08-0.96-0.359-1.079c0.119-0.88,0.949-1.391,2.489-1.53
				c1.539-0.141,2.311-0.488,2.311-1.05c0-0.399-0.201-0.938-0.601-1.62c0.239-0.079,0.358-0.279,0.358-0.601
				c0-0.562,0-0.818,0-0.779c-0.04-0.199-0.04-0.801,0-1.801c0.04-0.761-0.08-1.34-0.358-1.739c-0.521,0.239-1.222,0.72-2.102,1.438
				c-0.278-0.358-0.42-0.739-0.42-1.142c0-0.358,0.142-0.771,0.42-1.229c0.279-0.46,0.398-0.729,0.36-0.813l-0.36-0.357
				c0.439-0.479,1-0.723,1.682-0.723c0.681,0,1.277,0.24,1.801,0.723c0.52,0.479,0.759,1.08,0.72,1.8
				c0.039,1.239,0.062,2.5,0.062,3.78c0,1.561-0.262,2.738-0.779,3.539c0.239,0.039,0.608,0.17,1.109,0.391
				c0.5,0.222,0.868,0.33,1.108,0.33c0.398,0,0.721-0.239,0.96-0.721c0.602-0.039,0.95,0.069,1.05,0.329
				c0.102,0.262,0.149,0.49,0.149,0.689c0,0.681-0.562,1.301-1.68,1.859c-1.4,0.682-2.183,1.118-2.341,1.317
				c-0.239,1.121-0.479,2.241-0.721,3.36c-0.279,1.319-0.42,2.421-0.42,3.3c0,0.96,0.159,1.899,0.479,2.819
				c-0.041,0.562,0.061,0.922,0.3,1.08c0,0.562-0.021,1.12-0.062,1.681c0.04,0.68,0.302,1.16,0.78,1.439
				c1.08,0.118,1.719-0.263,1.92-1.143c0.08-0.8,0.2-1.607,0.359-2.43C507.031,573.071,507.672,572.74,508.792,572.9z"/>
			<path fill="#FFFFFF" d="M542.392,574.16c-0.358,1.521-0.699,3.021-1.021,4.5c-0.521,1.759-1.5,2.762-2.94,3
				c-0.68,1.199-1.84,2.021-3.479,2.46c-1.479,0.239-2.96,0.459-4.439,0.659c-1.398-0.88-2.619-2.101-3.659-3.659
				c-1.198-1.801-1.681-3.461-1.438-4.979c0.12-0.88,0.865-1.801,2.231-2.761c1.206-0.88,2.313-1.398,3.317-1.563
				c0.2-0.039,0.451,0.041,0.754,0.24c0.305,0.2,0.572,0.239,0.813,0.119c0.162-0.119,0.344-0.181,0.545-0.181
				c0.439,0,0.924,0.199,1.447,0.602c0.039,0.119,0.359,0.6,0.965,1.438c0.441,0.563,0.664,1.04,0.664,1.439
				c0,0.359-0.144,0.72-0.423,1.08c-0.604,0.68-1.131,0.938-1.571,0.779c-0.362-0.12-0.664-0.62-0.905-1.5
				c-0.241-0.762-0.505-1.143-0.785-1.143c-0.2,0-0.441,0.081-0.726,0.24c-0.16-0.159-0.362-0.24-0.604-0.24
				c-0.12,0-0.382,0.091-0.786,0.269c-0.4,0.18-0.725,0.206-0.965,0.089c-0.441,0.435-0.867,0.849-1.271,1.24
				c-0.442,0.515-0.688,1.007-0.727,1.479l0.359,0.414c-0.08,0.157-0.119,0.335-0.119,0.532c0,0.394,0.24,0.904,0.72,1.536
				c0.602,0.826,0.938,1.302,1.021,1.42c0.72,0.709,1.619,1.063,2.699,1.063c1.237,0,3.101-0.62,5.58-1.857
				c0.92-0.479,1.562-1.54,1.92-3.183l0.84-3.897c-1.119-3.438-3.46-7.38-7.021-11.819c-4.761-6-7.561-9.681-8.398-11.04l0.42-0.42
				c-0.801-0.759-1.198-1.898-1.198-3.42c0-2.319,0.759-4.521,2.278-6.601c1.681-2.318,3.681-3.562,6-3.723
				c1.398,1.041,2.34,1.821,2.818,2.342c0.961,1.039,1.479,2.102,1.563,3.181c-0.479,0.279-0.721,0.642-0.721,1.08
				c0,0.278,0.197,0.79,0.6,1.528c0.401,0.74,0.562,1.313,0.479,1.711c-0.08,0.439-0.33,0.761-0.75,0.96s-0.83,0.399-1.229,0.602
				c-0.199-0.681-0.329-1.801-0.39-3.36c-0.062-1.559-0.189-2.679-0.392-3.357c-0.358-1.199-1.021-2.103-1.979-2.699
				c-1.479-0.159-2.762,0.42-3.842,1.739c-0.801,1.239-1.618,2.479-2.46,3.721c0-0.159,0,0.899,0,3.18
				c0.04,1.281-0.081,2.32-0.358,3.12c0,0.04,1.562,1.801,4.681,5.28c1.881,2.08,3.2,4,3.961,5.76
				c2.642,1.643,5.141,5.063,7.5,10.261c-0.28,0.16-0.42,0.382-0.42,0.659c0,0.201,0.129,0.501,0.392,0.9
				C542.201,573.781,542.351,574.039,542.392,574.16z"/>
			<path fill="#FFFFFF" d="M556.071,573.619c0.438,0.2,0.659,0.521,0.659,0.96c0,0.92-0.841,1.949-2.521,3.092
				c-1.682,1.141-3.342,1.71-4.979,1.71c-1.28,0-2.279-0.399-3-1.2c0.038-0.359-0.12-0.801-0.479-1.319
				c-0.359-0.52-0.552-0.909-0.57-1.17c-0.021-0.261-0.188-1.13-0.51-2.607c-0.201-1.08-0.262-1.96-0.181-2.643
				c0.039-0.24-0.081-0.479-0.359-0.72c0.278-0.12,0.398-0.459,0.359-1.021c-0.12-0.117-0.182-0.259-0.182-0.42
				c0-0.197,0.199-0.561,0.602-1.08c0.397-0.519,0.601-0.96,0.601-1.317c0.039-1.563,0.063-3.142,0.063-4.739
				c0.238-1.84,0.92-3.181,2.039-4.021c1.438,0.04,2.857,0.858,4.261,2.46c-0.119,0.521,0.021,1.317,0.42,2.397
				c0.398,1.08,0.602,1.859,0.602,2.34c0,1.32-0.641,1.979-1.92,1.979c-0.28,0-0.791-0.08-1.53-0.239s-1.288-0.199-1.647-0.12
				c-0.521,0.081-0.922,0.42-1.2,1.021c-0.682,1.279-0.682,2.8,0,4.561c-0.239,0.081-0.358,0.28-0.358,0.603
				c0,0.562,0,0.818,0,0.777c0.479,0.201,0.721,0.603,0.721,1.2c0,0.359-0.12,0.659-0.359,0.899c1,1.92,1.959,2.88,2.881,2.88
				c0.438,0,0.88-0.143,1.318-0.42c0.561-0.081,1.381-0.659,2.461-1.739c-0.041-0.2-0.181-0.479-0.421-0.841
				c-0.239-0.359-0.358-0.659-0.358-0.899c0-0.72,0.438-1.08,1.318-1.08C554.351,572.9,555.11,573.14,556.071,573.619z
				 M550.071,563.78c-0.12-0.84-0.263-1.68-0.42-2.521c-0.201-1.04-0.763-1.479-1.682-1.319c0.079,0.081,0.119,0.182,0.119,0.3
				c0,0.12-0.08,0.303-0.24,0.54c-0.158,0.24-0.238,0.399-0.238,0.479c0,0.16,0.12,0.301,0.359,0.42
				c-0.239,0.081-0.359,0.28-0.359,0.601v0.78c0.199,0.479,0.562,0.72,1.08,0.72C549.171,563.78,549.63,563.78,550.071,563.78z"/>
			<path fill="#FFFFFF" d="M568.071,566.06l-2.102,2.101l-1.381-1.738c0.84-0.603,1.26-1.342,1.26-2.223
				c0-0.317-0.068-0.619-0.209-0.897s-0.411-0.42-0.811-0.42c-0.683,0-1,0-0.961,0l-2.819,4.92c0.12,0.438,0.183,0.922,0.183,1.438
				c0,0.563-0.082,1.421-0.24,2.58c-0.159,1.161-0.239,2.021-0.239,2.58c0,1.521,0.459,2.72,1.38,3.603
				c0.12,0.72-0.12,1.299-0.72,1.737c-0.24-0.118-1.142-0.118-2.7,0c-1.2,0.08-1.938-0.278-2.22-1.079
				c0.879-0.358,1.438-1.119,1.68-2.278c0.08-0.398,0.119-1.38,0.119-2.939c-0.32-0.438-0.479-0.897-0.479-1.38
				c0-0.399,0.157-0.979,0.479-1.74c0.319-0.759,0.479-1.339,0.479-1.737c0-0.279-0.062-0.54-0.182-0.78l1.08-6.3
				c-0.16-0.16-0.461-0.899-0.898-2.223c-0.319-0.919-0.842-1.38-1.562-1.38c-0.2,0-0.438,0-0.72,0
				c-0.04-0.111-0.063-0.225-0.063-0.336c0-0.226,0.142-0.468,0.422-0.729c0.438-0.336,0.71-0.532,0.812-0.591
				c0.1-0.057,0.209-0.084,0.33-0.084c0.6,0,1.398,0.5,2.398,1.5c0.157,0.16,0.277,0.962,0.358,2.399
				c0.039,1.161,0.619,1.641,1.739,1.439c0.279-1,1.438-1.461,3.479-1.381c0.52,0.642,1.039,1.279,1.561,1.92
				c0.642,0.801,0.961,1.5,0.961,2.102c0,0.561-0.262,1.079-0.78,1.56L568.071,566.06z"/>
			<path fill="#FFFFFF" d="M582.71,559.341c-1.806,0.802-2.806,2.5-3,5.101c0,0.12,0,0.279,0,0.479c0,0.318-0.142,0.698-0.42,1.141
				c0.278,1.199,0.42,2.399,0.42,3.601c0,4.079-1.521,7.579-4.562,10.5c-1.08-0.358-1.723-1.301-1.92-2.818
				c-0.16-1.722-0.539-2.819-1.141-3.3c-0.24-3.12-0.582-7.803-1.021-14.04c-0.039-0.04-0.262-0.262-0.66-0.66
				c-0.239-0.239-0.479-0.359-0.719-0.359c-0.121,0-0.223,0.021-0.303,0.063l-0.357,0.3c0.277,0.12,0.396,0.439,0.357,0.96
				c-0.56-0.038-0.92,0.061-1.08,0.301c-0.396-0.12-0.617-0.42-0.658-0.899c0-0.438,0-0.879,0-1.318
				c0.722-0.84,1.642-1.358,2.76-1.563c1.08,0.603,1.979,2.183,2.701,4.74c-0.082,0.563-0.041,1.26,0.118,2.103
				c0.159,1.04,0.239,1.737,0.239,2.101c0,3.521,0.563,7.141,1.682,10.859c1.08-0.603,1.818-1.7,2.222-3.303
				c0.198-0.759,0.379-2.117,0.538-4.079c-0.159-0.038-0.239-0.141-0.239-0.301c0-0.12,0.201-0.438,0.604-0.96
				c-0.684-0.76-1.021-1.62-1.021-2.58c0-0.601,0.2-1.658,0.603-3.181c0.397-1.358,0.538-2.42,0.421-3.18
				c0.316-0.603,0.879-0.979,1.68-1.143c0.681-0.159,1.38-0.317,2.101-0.479C582.53,558.26,582.749,558.901,582.71,559.341z"/>
			<path fill="#FFFFFF" d="M595.069,573.619c0.438,0.2,0.658,0.521,0.658,0.96c0,0.92-0.84,1.949-2.52,3.092
				c-1.681,1.141-3.341,1.71-4.98,1.71c-1.277,0-2.277-0.399-3-1.2c0.039-0.359-0.117-0.801-0.479-1.319
				c-0.358-0.521-0.549-0.909-0.567-1.17c-0.021-0.261-0.189-1.13-0.51-2.607c-0.201-1.08-0.263-1.96-0.183-2.643
				c0.041-0.24-0.08-0.479-0.358-0.72c0.278-0.12,0.399-0.459,0.358-1.021c-0.119-0.117-0.182-0.259-0.182-0.42
				c0-0.197,0.199-0.561,0.602-1.08c0.398-0.519,0.603-0.96,0.603-1.317c0.039-1.563,0.061-3.142,0.061-4.739
				c0.238-1.84,0.92-3.181,2.041-4.021c1.438,0.04,2.857,0.858,4.26,2.46c-0.12,0.521,0.021,1.317,0.421,2.397
				c0.397,1.08,0.6,1.859,0.6,2.34c0,1.32-0.641,1.979-1.92,1.979c-0.277,0-0.791-0.08-1.527-0.239
				c-0.74-0.159-1.291-0.199-1.65-0.12c-0.52,0.081-0.92,0.42-1.198,1.021c-0.683,1.279-0.683,2.8,0,4.561
				c-0.238,0.081-0.359,0.28-0.359,0.603c0,0.562,0,0.818,0,0.777c0.479,0.201,0.721,0.603,0.721,1.2
				c0,0.359-0.12,0.659-0.358,0.899c0.998,1.92,1.959,2.88,2.88,2.88c0.438,0,0.88-0.143,1.319-0.42
				c0.563-0.081,1.381-0.659,2.459-1.739c-0.039-0.2-0.181-0.479-0.42-0.841c-0.237-0.359-0.358-0.659-0.358-0.899
				c0-0.72,0.438-1.08,1.319-1.08C593.351,572.9,594.11,573.14,595.069,573.619z M589.069,563.78c-0.119-0.84-0.262-1.68-0.42-2.521
				c-0.199-1.04-0.762-1.479-1.682-1.319c0.08,0.081,0.121,0.182,0.121,0.3c0,0.12-0.082,0.303-0.24,0.54
				c-0.159,0.24-0.238,0.399-0.238,0.479c0,0.16,0.117,0.301,0.357,0.42c-0.24,0.081-0.357,0.28-0.357,0.601v0.78
				c0.197,0.479,0.56,0.72,1.079,0.72C588.171,563.78,588.63,563.78,589.069,563.78z"/>
			<path fill="#FFFFFF" d="M607.069,566.06l-2.102,2.101l-1.381-1.738c0.842-0.603,1.262-1.342,1.262-2.223
				c0-0.317-0.068-0.619-0.211-0.897c-0.141-0.278-0.409-0.42-0.811-0.42c-0.681,0-1,0-0.959,0l-2.82,4.92
				c0.119,0.438,0.182,0.922,0.182,1.438c0,0.563-0.08,1.421-0.24,2.58c-0.159,1.161-0.239,2.021-0.239,2.58
				c0,1.521,0.461,2.72,1.381,3.603c0.119,0.72-0.121,1.299-0.722,1.737c-0.239-0.118-1.139-0.118-2.698,0
				c-1.201,0.08-1.939-0.278-2.222-1.079c0.879-0.358,1.439-1.119,1.681-2.278c0.08-0.398,0.121-1.38,0.121-2.939
				c-0.32-0.438-0.479-0.897-0.479-1.38c0-0.399,0.158-0.979,0.479-1.74c0.319-0.759,0.479-1.339,0.479-1.737
				c0-0.279-0.063-0.54-0.184-0.78l1.08-6.3c-0.16-0.16-0.459-0.899-0.896-2.223c-0.322-0.919-0.842-1.38-1.563-1.38
				c-0.201,0-0.439,0-0.722,0c-0.039-0.111-0.061-0.225-0.061-0.336c0-0.226,0.141-0.468,0.42-0.729
				c0.438-0.336,0.709-0.532,0.811-0.591c0.101-0.057,0.211-0.084,0.33-0.084c0.601,0,1.398,0.5,2.398,1.5
				c0.16,0.16,0.279,0.962,0.359,2.399c0.041,1.161,0.62,1.641,1.739,1.439c0.277-1,1.439-1.461,3.479-1.381
				c0.521,0.642,1.039,1.279,1.563,1.92c0.64,0.801,0.959,1.5,0.959,2.102c0,0.561-0.261,1.079-0.778,1.56L607.069,566.06z"/>
		</g>
	</g>
</g>
<g id="Ebene_3_2_">
</g>
<g id="Ebene_2">
</g>
<g id="Ebene_3">
</g>
<g id="Ebene_3_1_">
</g>
<path fill="#FFFFFF" d="M40.074,51.098c-0.36,1.521-0.701,3.02-1.02,4.5c-0.521,1.759-1.5,2.76-2.94,3
	c-0.68,1.198-1.84,2.019-3.48,2.46c-1.48,0.238-2.96,0.459-4.44,0.658c-1.4-0.88-2.62-2.1-3.66-3.658
	c-1.2-1.802-1.68-3.461-1.44-4.98c0.12-0.879,0.865-1.8,2.232-2.76c1.207-0.88,2.313-1.399,3.319-1.562
	c0.201-0.038,0.452,0.041,0.753,0.24c0.302,0.201,0.573,0.24,0.815,0.12c0.161-0.12,0.342-0.18,0.544-0.18
	c0.442,0,0.924,0.2,1.447,0.6c0.041,0.12,0.362,0.601,0.966,1.44c0.442,0.561,0.664,1.04,0.664,1.438c0,0.36-0.142,0.721-0.423,1.08
	c-0.604,0.681-1.129,0.939-1.571,0.78c-0.363-0.12-0.665-0.621-0.906-1.5c-0.242-0.76-0.504-1.141-0.786-1.141
	c-0.201,0-0.443,0.08-0.725,0.239c-0.161-0.159-0.363-0.239-0.604-0.239c-0.121,0-0.382,0.09-0.786,0.267
	c-0.403,0.179-0.725,0.207-0.966,0.088c-0.443,0.435-0.866,0.849-1.269,1.242c-0.443,0.513-0.686,1.005-0.725,1.478l0.36,0.414
	c-0.081,0.157-0.12,0.335-0.12,0.532c0,0.394,0.24,0.906,0.72,1.537c0.6,0.827,0.939,1.301,1.02,1.419
	c0.72,0.709,1.62,1.063,2.7,1.063c1.239,0,3.1-0.619,5.58-1.858c0.92-0.48,1.56-1.54,1.92-3.181l0.84-3.899
	c-1.12-3.439-3.46-7.38-7.02-11.82c-4.761-6-7.56-9.68-8.4-11.04l0.42-0.42c-0.8-0.759-1.2-1.898-1.2-3.42
	c0-2.319,0.759-4.52,2.28-6.6c1.68-2.319,3.68-3.561,6-3.722c1.4,1.041,2.34,1.821,2.82,2.342c0.96,1.04,1.479,2.1,1.56,3.18
	c-0.48,0.28-0.72,0.641-0.72,1.08c0,0.28,0.2,0.79,0.6,1.53c0.399,0.739,0.56,1.311,0.48,1.71c-0.081,0.439-0.33,0.76-0.75,0.96
	c-0.42,0.199-0.831,0.399-1.23,0.6c-0.201-0.68-0.33-1.8-0.39-3.36c-0.06-1.56-0.19-2.679-0.39-3.358c-0.36-1.2-1.02-2.102-1.98-2.7
	c-1.48-0.159-2.76,0.42-3.84,1.74c-0.801,1.24-1.62,2.479-2.46,3.72c0-0.159,0,0.9,0,3.18c0.04,1.281-0.081,2.32-0.36,3.12
	c0,0.04,1.56,1.8,4.68,5.28c1.88,2.08,3.2,4,3.96,5.76c2.64,1.642,5.14,5.062,7.5,10.26c-0.28,0.161-0.42,0.382-0.42,0.66
	c0,0.201,0.129,0.501,0.39,0.9C39.884,50.719,40.034,50.978,40.074,51.098z"/>
<path fill="#FFFFFF" d="M50.214,49.838c0.6,0.521,0.9,1.12,0.9,1.801c0,0.521-0.42,1.561-1.26,3.119c-0.64,1.2-1.641,1.802-3,1.802
	c-0.521,0-1.38-0.142-2.58-0.421c-0.96-1.12-1.521-2.68-1.68-4.681c0-0.12-0.021-1.818-0.06-5.1c0.279-0.279,0.399-0.521,0.36-0.721
	c-0.24-0.079-0.36-0.199-0.36-0.359c0-0.039,0.219-0.38,0.66-1.021c-0.04-0.198-0.06-0.42-0.06-0.658c0-0.28,0.069-0.7,0.21-1.262
	c0.14-0.56,0.21-0.96,0.21-1.199c0-0.398-0.12-0.76-0.36-1.079c-0.24,0-0.59,0.09-1.05,0.27s-0.791,0.271-0.99,0.271
	c-0.44,0-0.8-0.302-1.08-0.9c0.041-0.6-0.08-0.96-0.36-1.08c0.12-0.879,0.95-1.39,2.49-1.53c1.539-0.14,2.31-0.488,2.31-1.05
	c0-0.398-0.201-0.938-0.6-1.62c0.24-0.079,0.36-0.278,0.36-0.6c0-0.561,0-0.819,0-0.78c-0.04-0.199-0.04-0.8,0-1.8
	c0.04-0.76-0.081-1.34-0.36-1.74c-0.521,0.24-1.221,0.721-2.1,1.44c-0.28-0.36-0.42-0.74-0.42-1.142c0-0.358,0.14-0.77,0.42-1.229
	c0.279-0.46,0.399-0.729,0.36-0.812l-0.36-0.358c0.439-0.48,1-0.721,1.68-0.721c0.68,0,1.279,0.239,1.8,0.721
	c0.52,0.479,0.759,1.08,0.72,1.8c0.039,1.24,0.06,2.5,0.06,3.78c0,1.56-0.26,2.74-0.78,3.54c0.24,0.04,0.609,0.17,1.11,0.39
	c0.5,0.221,0.87,0.33,1.11,0.33c0.399,0,0.72-0.24,0.96-0.72c0.6-0.04,0.95,0.069,1.05,0.33c0.1,0.26,0.15,0.489,0.15,0.688
	c0,0.682-0.561,1.301-1.68,1.86c-1.401,0.681-2.181,1.12-2.34,1.318c-0.24,1.121-0.48,2.241-0.72,3.36
	c-0.28,1.32-0.42,2.421-0.42,3.3c0,0.96,0.159,1.9,0.48,2.82c-0.041,0.561,0.06,0.921,0.3,1.08c0,0.561-0.021,1.12-0.06,1.68
	c0.04,0.681,0.3,1.16,0.78,1.44c1.08,0.12,1.719-0.261,1.92-1.142c0.08-0.8,0.2-1.608,0.36-2.43
	C48.453,50.009,49.094,49.678,50.214,49.838z"/>
<path fill="#FFFFFF" d="M65.333,54.637c-0.321,0.561-0.82,0.938-1.5,1.141c-0.681,0.199-1.36,0.399-2.04,0.6
	c-0.16-0.319-0.51-0.62-1.05-0.898c-0.54-0.28-0.891-0.562-1.05-0.841c0.04-0.08,0.17-0.28,0.39-0.601
	c0.219-0.319,0.33-0.56,0.33-0.72c0-0.2-0.12-0.36-0.36-0.48c-0.16,0.081-0.98,0.521-2.46,1.32c-1,0.561-1.82,0.84-2.46,0.84
	c-0.72,0-1.42-0.24-2.1-0.72c-1.24-0.88-1.86-1.84-1.86-2.88c0-1.72,1.8-3.68,5.4-5.88c0.279,0,0.76,0.109,1.44,0.33
	c0.68,0.22,1.2,0.329,1.56,0.329c0.44,0,0.84-0.1,1.2-0.301c-0.12-0.398-0.18-0.858-0.18-1.38c0-0.438,0.05-1.119,0.15-2.04
	c0.1-0.92,0.15-1.6,0.15-2.04c0-1.88-0.861-3-2.58-3.358c-0.88,0.199-1.761,0.38-2.64,0.54c-1.041,0.199-1.8,0.62-2.28,1.26
	c0.24,0.24,0.36,0.521,0.36,0.84c0,0.28-0.115,0.681-0.346,1.2c-0.23,0.521-0.367,0.88-0.409,1.08l-0.377,0.358
	c-0.881-0.278-1.364-0.8-1.448-1.56c0-0.76,0-1.521,0-2.28c1.697-1.76,3.94-2.938,6.729-3.54l0.728,0.721
	c1.656,0.32,2.585,0.521,2.788,0.601c0.848,0.4,1.333,1.14,1.455,2.22c0.08,0.602,0.039,1.48-0.12,2.641
	c-0.16,1.28-0.24,2.159-0.24,2.641c0,0.801,0.12,1.5,0.36,2.1c-0.76,0.722-1.14,1.801-1.14,3.24c0,0.521,0.14,1.761,0.42,3.72
	c0.08-0.72,0.9-1.06,2.46-1.02C65.213,52.538,65.454,53.478,65.333,54.637z M58.673,49.719c-0.52-0.999-1.14-1.5-1.86-1.5
	c-0.16,0-0.36,0.021-0.6,0.061c-0.521,0.561-1.06,1.101-1.62,1.62c-0.561,0.64-0.96,1.28-1.2,1.92c0.279,0,0.529,0.12,0.75,0.359
	c0.219,0.239,0.429,0.461,0.63,0.659c0.879-0.318,1.77-0.688,2.67-1.108S58.753,50.638,58.673,49.719z"/>
<path fill="#FFFFFF" d="M77.753,42.998l-2.1,2.102l-1.38-1.74c0.84-0.602,1.26-1.34,1.26-2.221c0-0.319-0.07-0.619-0.21-0.899
	c-0.141-0.279-0.411-0.42-0.81-0.42c-0.681,0-1,0-0.96,0l-2.82,4.92c0.12,0.44,0.18,0.921,0.18,1.439
	c0,0.562-0.081,1.421-0.24,2.579c-0.16,1.161-0.24,2.021-0.24,2.58c0,1.521,0.459,2.721,1.38,3.602c0.12,0.72-0.12,1.299-0.72,1.739
	c-0.24-0.119-1.14-0.119-2.7,0c-1.2,0.079-1.941-0.28-2.22-1.079c0.879-0.36,1.44-1.121,1.68-2.28c0.08-0.399,0.12-1.38,0.12-2.94
	c-0.32-0.438-0.48-0.898-0.48-1.38c0-0.398,0.16-0.979,0.48-1.739c0.32-0.76,0.48-1.34,0.48-1.739c0-0.279-0.06-0.54-0.18-0.78
	l1.08-6.3c-0.161-0.16-0.46-0.9-0.9-2.221c-0.32-0.92-0.84-1.381-1.56-1.381c-0.201,0-0.441,0-0.72,0
	c-0.04-0.111-0.06-0.224-0.06-0.336c0-0.225,0.14-0.468,0.42-0.729c0.44-0.336,0.71-0.532,0.81-0.589
	c0.1-0.058,0.21-0.084,0.33-0.084c0.6,0,1.4,0.5,2.4,1.5c0.16,0.16,0.279,0.96,0.36,2.398c0.04,1.161,0.62,1.642,1.74,1.44
	c0.279-1,1.44-1.46,3.48-1.38c0.52,0.64,1.04,1.279,1.56,1.92c0.639,0.8,0.96,1.5,0.96,2.1c0,0.562-0.261,1.08-0.78,1.561
	L77.753,42.998z"/>
<path fill="#FFFFFF" d="M89.392,49.838c0.6,0.521,0.9,1.12,0.9,1.801c0,0.521-0.42,1.561-1.26,3.119c-0.64,1.2-1.641,1.802-3,1.802
	c-0.521,0-1.38-0.142-2.58-0.421c-0.96-1.12-1.521-2.68-1.68-4.681c0-0.12-0.021-1.818-0.06-5.1c0.279-0.279,0.399-0.521,0.36-0.721
	c-0.24-0.079-0.36-0.199-0.36-0.359c0-0.039,0.219-0.38,0.66-1.021c-0.04-0.198-0.06-0.42-0.06-0.658c0-0.28,0.069-0.7,0.21-1.262
	c0.14-0.56,0.21-0.96,0.21-1.199c0-0.398-0.12-0.76-0.36-1.079c-0.24,0-0.59,0.09-1.05,0.27c-0.46,0.18-0.791,0.271-0.99,0.271
	c-0.44,0-0.8-0.302-1.08-0.9c0.041-0.6-0.08-0.96-0.36-1.08c0.12-0.879,0.95-1.39,2.49-1.53c1.539-0.14,2.31-0.488,2.31-1.05
	c0-0.398-0.201-0.938-0.6-1.62c0.24-0.079,0.36-0.278,0.36-0.6c0-0.561,0-0.819,0-0.78c-0.04-0.199-0.04-0.8,0-1.8
	c0.04-0.76-0.081-1.34-0.36-1.74c-0.521,0.24-1.221,0.721-2.1,1.44c-0.28-0.36-0.42-0.74-0.42-1.142c0-0.358,0.14-0.77,0.42-1.229
	c0.279-0.46,0.399-0.729,0.36-0.812l-0.36-0.358c0.439-0.48,1-0.721,1.68-0.721c0.68,0,1.279,0.239,1.8,0.721
	c0.52,0.479,0.759,1.08,0.72,1.8c0.039,1.24,0.06,2.5,0.06,3.78c0,1.56-0.26,2.74-0.78,3.54c0.24,0.04,0.609,0.17,1.11,0.39
	c0.5,0.221,0.87,0.33,1.11,0.33c0.399,0,0.72-0.24,0.96-0.72c0.6-0.04,0.95,0.069,1.05,0.33c0.1,0.26,0.15,0.489,0.15,0.688
	c0,0.682-0.561,1.301-1.68,1.86c-1.401,0.681-2.181,1.12-2.34,1.318c-0.24,1.121-0.48,2.241-0.72,3.36
	c-0.28,1.32-0.42,2.421-0.42,3.3c0,0.96,0.159,1.9,0.48,2.82c-0.041,0.561,0.06,0.921,0.3,1.08c0,0.561-0.021,1.12-0.06,1.68
	c0.04,0.681,0.3,1.16,0.78,1.44c1.08,0.12,1.719-0.261,1.92-1.142c0.08-0.8,0.2-1.608,0.36-2.43
	C87.631,50.009,88.271,49.678,89.392,49.838z"/>
<path fill="#FFFFFF" d="M122.991,51.098c-0.36,1.521-0.7,3.02-1.021,4.5c-0.521,1.759-1.5,2.76-2.939,3
	c-0.682,1.198-1.842,2.019-3.48,2.46c-1.48,0.238-2.961,0.459-4.439,0.658c-1.399-0.88-2.62-2.1-3.659-3.658
	c-1.2-1.802-1.681-3.461-1.44-4.98c0.12-0.879,0.864-1.8,2.232-2.76c1.206-0.88,2.313-1.399,3.318-1.562
	c0.201-0.038,0.451,0.041,0.754,0.24c0.302,0.201,0.572,0.24,0.814,0.12c0.16-0.12,0.342-0.18,0.543-0.18
	c0.443,0,0.926,0.2,1.447,0.6c0.041,0.12,0.361,0.601,0.967,1.44c0.441,0.561,0.663,1.04,0.663,1.438c0,0.36-0.142,0.721-0.423,1.08
	c-0.604,0.681-1.129,0.939-1.571,0.78c-0.362-0.12-0.665-0.621-0.905-1.5c-0.242-0.76-0.504-1.141-0.785-1.141
	c-0.201,0-0.443,0.08-0.726,0.239c-0.161-0.159-0.362-0.239-0.604-0.239c-0.12,0-0.383,0.09-0.784,0.267
	c-0.404,0.179-0.726,0.207-0.968,0.088c-0.442,0.435-0.864,0.849-1.269,1.242c-0.442,0.513-0.687,1.005-0.725,1.478l0.36,0.414
	c-0.082,0.157-0.121,0.335-0.121,0.532c0,0.394,0.24,0.906,0.721,1.537c0.6,0.827,0.939,1.301,1.02,1.419
	c0.721,0.709,1.62,1.063,2.7,1.063c1.239,0,3.101-0.619,5.58-1.858c0.92-0.48,1.56-1.54,1.92-3.181l0.84-3.899
	c-1.12-3.439-3.46-7.38-7.02-11.82c-4.761-6-7.56-9.68-8.4-11.04l0.42-0.42c-0.8-0.759-1.2-1.898-1.2-3.42
	c0-2.319,0.759-4.52,2.28-6.6c1.681-2.319,3.681-3.561,6-3.722c1.399,1.041,2.341,1.821,2.82,2.342c0.96,1.04,1.479,2.1,1.56,3.18
	c-0.479,0.28-0.72,0.641-0.72,1.08c0,0.28,0.2,0.79,0.601,1.53c0.398,0.739,0.56,1.311,0.479,1.71c-0.081,0.439-0.33,0.76-0.75,0.96
	c-0.42,0.199-0.831,0.399-1.229,0.6c-0.201-0.68-0.33-1.8-0.391-3.36c-0.061-1.56-0.189-2.679-0.391-3.358
	c-0.359-1.2-1.021-2.102-1.979-2.7c-1.479-0.159-2.76,0.42-3.84,1.74c-0.801,1.24-1.62,2.479-2.46,3.72c0-0.159,0,0.9,0,3.18
	c0.039,1.281-0.08,2.32-0.359,3.12c0,0.04,1.561,1.8,4.68,5.28c1.88,2.08,3.199,4,3.959,5.76c2.642,1.642,5.142,5.062,7.5,10.26
	c-0.278,0.161-0.42,0.382-0.42,0.66c0,0.201,0.131,0.501,0.392,0.9C122.801,50.719,122.951,50.978,122.991,51.098z"/>
<path fill="#FFFFFF" d="M136.67,50.558c0.439,0.199,0.66,0.52,0.66,0.96c0,0.92-0.84,1.948-2.52,3.09
	c-1.681,1.14-3.34,1.71-4.98,1.71c-1.28,0-2.279-0.4-3-1.2c0.04-0.36-0.119-0.801-0.479-1.32c-0.36-0.519-0.551-0.908-0.569-1.17
	c-0.021-0.26-0.191-1.13-0.511-2.608c-0.201-1.08-0.262-1.96-0.182-2.642c0.04-0.239-0.08-0.479-0.359-0.72
	c0.279-0.12,0.399-0.459,0.359-1.021c-0.119-0.119-0.18-0.26-0.18-0.421c0-0.198,0.199-0.56,0.602-1.079
	c0.398-0.52,0.6-0.96,0.6-1.319c0.039-1.562,0.06-3.14,0.06-4.74c0.24-1.839,0.92-3.18,2.041-4.02
	c1.438,0.04,2.858,0.859,4.261,2.46c-0.121,0.52,0.02,1.318,0.42,2.398c0.398,1.08,0.6,1.86,0.6,2.34c0,1.32-0.641,1.98-1.92,1.98
	c-0.28,0-0.79-0.08-1.529-0.24c-0.741-0.159-1.291-0.199-1.65-0.12c-0.521,0.081-0.92,0.42-1.199,1.021
	c-0.682,1.28-0.682,2.8,0,4.56c-0.239,0.081-0.36,0.28-0.36,0.602c0,0.561,0,0.819,0,0.778c0.479,0.201,0.722,0.602,0.722,1.2
	c0,0.36-0.121,0.66-0.361,0.9c1,1.92,1.961,2.88,2.881,2.88c0.439,0,0.879-0.141,1.32-0.42c0.56-0.081,1.379-0.66,2.459-1.74
	c-0.039-0.2-0.181-0.479-0.42-0.84c-0.24-0.36-0.359-0.66-0.359-0.9c0-0.72,0.439-1.08,1.32-1.08
	C134.95,49.838,135.711,50.078,136.67,50.558z M130.67,40.719c-0.119-0.841-0.26-1.681-0.42-2.521c-0.2-1.04-0.76-1.479-1.68-1.32
	c0.08,0.081,0.119,0.182,0.119,0.301s-0.08,0.301-0.238,0.54c-0.161,0.239-0.24,0.399-0.24,0.479c0,0.16,0.119,0.3,0.359,0.42
	c-0.24,0.081-0.359,0.28-0.359,0.601v0.779c0.199,0.48,0.559,0.721,1.08,0.721C129.771,40.719,130.23,40.719,130.67,40.719z"/>
<path fill="#FFFFFF" d="M148.67,42.998l-2.1,2.102l-1.381-1.74c0.84-0.602,1.261-1.34,1.261-2.221c0-0.319-0.07-0.619-0.21-0.899
	c-0.141-0.279-0.41-0.42-0.811-0.42c-0.681,0-1,0-0.96,0l-2.819,4.92c0.119,0.44,0.18,0.921,0.18,1.439
	c0,0.562-0.08,1.421-0.24,2.579c-0.16,1.161-0.24,2.021-0.24,2.58c0,1.521,0.461,2.721,1.381,3.602
	c0.119,0.72-0.119,1.299-0.721,1.739c-0.238-0.119-1.14-0.119-2.699,0c-1.199,0.079-1.94-0.28-2.221-1.079
	c0.88-0.36,1.439-1.121,1.682-2.28c0.078-0.399,0.119-1.38,0.119-2.94c-0.32-0.438-0.479-0.898-0.479-1.38
	c0-0.398,0.159-0.979,0.479-1.739c0.319-0.76,0.479-1.34,0.479-1.739c0-0.279-0.06-0.54-0.181-0.78l1.08-6.3
	c-0.16-0.16-0.459-0.9-0.899-2.221c-0.32-0.92-0.841-1.381-1.56-1.381c-0.201,0-0.441,0-0.722,0c-0.039-0.111-0.06-0.224-0.06-0.336
	c0-0.225,0.14-0.468,0.42-0.729c0.439-0.336,0.71-0.532,0.81-0.589c0.101-0.058,0.211-0.084,0.33-0.084c0.601,0,1.399,0.5,2.399,1.5
	c0.16,0.16,0.279,0.96,0.359,2.398c0.041,1.161,0.621,1.642,1.74,1.44c0.279-1,1.439-1.46,3.48-1.38
	c0.52,0.64,1.039,1.279,1.56,1.92c0.64,0.8,0.96,1.5,0.96,2.1c0,0.562-0.26,1.08-0.779,1.561L148.67,42.998z"/>
<path fill="#FFFFFF" d="M163.309,36.278c-1.804,0.801-2.804,2.5-3,5.1c0,0.12,0,0.28,0,0.48c0,0.32-0.141,0.7-0.42,1.14
	c0.279,1.2,0.42,2.4,0.42,3.602c0,4.079-1.521,7.579-4.56,10.5c-1.08-0.36-1.722-1.302-1.92-2.82c-0.16-1.72-0.54-2.82-1.14-3.3
	c-0.24-3.12-0.582-7.801-1.021-14.04c-0.04-0.04-0.261-0.26-0.66-0.66c-0.24-0.24-0.479-0.36-0.72-0.36
	c-0.12,0-0.222,0.021-0.3,0.062l-0.36,0.3c0.279,0.12,0.399,0.44,0.36,0.96c-0.561-0.039-0.92,0.06-1.08,0.3
	c-0.399-0.12-0.62-0.42-0.66-0.899c0-0.439,0-0.879,0-1.319c0.72-0.84,1.641-1.359,2.76-1.561c1.08,0.601,1.98,2.181,2.7,4.739
	c-0.081,0.562-0.04,1.261,0.12,2.102c0.158,1.04,0.24,1.738,0.24,2.1c0,3.521,0.56,7.14,1.68,10.86c1.08-0.602,1.818-1.7,2.22-3.301
	c0.2-0.76,0.38-2.119,0.54-4.08c-0.16-0.039-0.24-0.141-0.24-0.301c0-0.119,0.2-0.438,0.602-0.96
	c-0.682-0.759-1.021-1.62-1.021-2.58c0-0.6,0.2-1.658,0.602-3.18c0.398-1.358,0.539-2.42,0.42-3.18
	c0.318-0.602,0.879-0.98,1.68-1.142c0.68-0.158,1.381-0.318,2.102-0.479C163.129,35.198,163.35,35.839,163.309,36.278z"/>
<path fill="#FFFFFF" d="M175.67,50.558c0.439,0.199,0.66,0.52,0.66,0.96c0,0.92-0.84,1.948-2.52,3.09
	c-1.682,1.14-3.342,1.71-4.98,1.71c-1.28,0-2.28-0.4-3-1.2c0.039-0.36-0.12-0.801-0.48-1.32c-0.358-0.52-0.55-0.908-0.568-1.17
	c-0.021-0.26-0.19-1.13-0.51-2.608c-0.201-1.08-0.262-1.96-0.182-2.642c0.04-0.239-0.08-0.479-0.359-0.72
	c0.279-0.12,0.399-0.459,0.359-1.021c-0.119-0.119-0.18-0.26-0.18-0.421c0-0.198,0.199-0.56,0.6-1.079
	c0.399-0.52,0.602-0.96,0.602-1.319c0.039-1.562,0.06-3.14,0.06-4.74c0.24-1.839,0.92-3.18,2.04-4.02
	c1.439,0.04,2.859,0.859,4.26,2.46c-0.119,0.52,0.021,1.318,0.42,2.398c0.399,1.08,0.602,1.86,0.602,2.34
	c0,1.32-0.641,1.98-1.92,1.98c-0.28,0-0.791-0.08-1.53-0.24c-0.74-0.159-1.29-0.199-1.649-0.12c-0.521,0.081-0.92,0.42-1.199,1.021
	c-0.682,1.28-0.682,2.8,0,4.56c-0.24,0.081-0.36,0.28-0.36,0.602c0,0.561,0,0.819,0,0.778c0.479,0.201,0.72,0.602,0.72,1.2
	c0,0.36-0.119,0.66-0.359,0.9c1,1.92,1.959,2.88,2.881,2.88c0.439,0,0.879-0.141,1.318-0.42c0.562-0.081,1.381-0.66,2.461-1.74
	c-0.041-0.2-0.181-0.479-0.42-0.84c-0.24-0.36-0.359-0.66-0.359-0.9c0-0.72,0.439-1.08,1.318-1.08
	C173.95,49.838,174.71,50.078,175.67,50.558z M169.67,40.719c-0.12-0.841-0.261-1.681-0.42-2.521c-0.2-1.04-0.76-1.479-1.68-1.32
	c0.078,0.081,0.119,0.182,0.119,0.301s-0.08,0.301-0.239,0.54c-0.16,0.239-0.24,0.399-0.24,0.479c0,0.16,0.12,0.3,0.36,0.42
	c-0.24,0.081-0.36,0.28-0.36,0.601v0.779c0.2,0.48,0.56,0.721,1.08,0.721C168.771,40.719,169.229,40.719,169.67,40.719z"/>
<path fill="#FFFFFF" d="M187.67,42.998l-2.1,2.102l-1.381-1.74c0.84-0.602,1.261-1.34,1.261-2.221c0-0.319-0.07-0.619-0.21-0.899
	c-0.141-0.279-0.411-0.42-0.811-0.42c-0.682,0-1,0-0.961,0l-2.82,4.92c0.121,0.44,0.182,0.921,0.182,1.439
	c0,0.562-0.081,1.421-0.24,2.579c-0.16,1.161-0.24,2.021-0.24,2.58c0,1.521,0.461,2.721,1.381,3.602
	c0.119,0.72-0.121,1.299-0.721,1.739c-0.24-0.119-1.14-0.119-2.699,0c-1.201,0.079-1.94-0.28-2.221-1.079
	c0.879-0.36,1.439-1.121,1.68-2.28c0.08-0.399,0.121-1.38,0.121-2.94c-0.32-0.438-0.479-0.898-0.479-1.38
	c0-0.398,0.159-0.979,0.479-1.739c0.319-0.76,0.479-1.34,0.479-1.739c0-0.279-0.062-0.54-0.181-0.78l1.08-6.3
	c-0.16-0.16-0.461-0.9-0.899-2.221c-0.321-0.92-0.841-1.381-1.562-1.381c-0.199,0-0.439,0-0.72,0
	c-0.039-0.111-0.06-0.224-0.06-0.336c0-0.225,0.14-0.468,0.42-0.729c0.438-0.336,0.709-0.532,0.81-0.589
	c0.101-0.058,0.21-0.084,0.33-0.084c0.601,0,1.399,0.5,2.399,1.5c0.16,0.16,0.279,0.96,0.359,2.398c0.04,1.161,0.62,1.642,1.74,1.44
	c0.279-1,1.439-1.46,3.48-1.38c0.519,0.64,1.039,1.279,1.56,1.92c0.64,0.8,0.96,1.5,0.96,2.1c0,0.562-0.261,1.08-0.779,1.561
	L187.67,42.998z"/>
</svg>
