<?xml version="1.0" encoding="utf-8"?>
<!-- Generator: Adobe Illustrator 15.1.0, SVG Export Plug-In . SVG Version: 6.00 Build 0)  -->
<!DOCTYPE svg PUBLIC "-//W3C//DTD SVG 1.1//EN" "http://www.w3.org/Graphics/SVG/1.1/DTD/svg11.dtd">
<svg version="1.1" id="Ebene_1" xmlns="http://www.w3.org/2000/svg" xmlns:xlink="http://www.w3.org/1999/xlink" x="0px" y="0px"
	 width="119.619px" height="88.773px" viewBox="0 0 119.619 88.773" enable-background="new 0 0 119.619 88.773"
	 xml:space="preserve">
<g id="Ebene_3">
</g>
<g id="Ebene_3_1_">
</g>
<g id="Ebene_1_1_">
	<g>
		<path fill="#1DAC84" d="M218.063,553.662c-2.354,25.018-0.138,31.562,25.862,40.562c21,7,45,8,64-7c10-7,15-14,19-26
			c5-14,5-16-4-26c-22-24-73.151-29.173-91-10C221.89,536.008,219.072,542.939,218.063,553.662z"/>
	</g>
	<g>
		<path fill="#B84B40" d="M272.506,521.589c-5,0-13.577,1.635-19.577,3.635c-20,6-37,37-23,53c30,35,121-5,79-44
			C300.927,526.222,272.506,521.589,272.506,521.589z"/>
	</g>
	<g>
		<g>
			<path fill="#FFFFFF" d="M262.517,568.883c-0.32,0.256-0.369,0.712-0.146,1.364c0.226,0.655,0.08,1.111-0.433,1.368
				c0.063,0.771-0.383,1.575-1.345,2.424c-0.96,0.851-1.81,1.271-2.544,1.271c-0.574,0-1.376-0.416-2.398-1.248
				c-1.023-0.832-1.744-1.248-2.16-1.248c-0.512,0-0.961,0.435-1.344,1.297c0.096,0.191,0.145,0.367,0.145,0.527
				c0,0.353-0.209,0.703-0.625,1.057c-0.607,0.544-0.911,0.851-0.911,0.911c-0.225-0.063-0.464-0.031-0.721,0.097
				c-0.353,0.13-0.593,0.191-0.72,0.191c-0.097,0-0.176-0.017-0.24-0.048c-0.641-0.643-0.96-1.376-0.96-2.208
				c0-0.191,0.032-0.368,0.097-0.527c0.096-0.354,0.385-0.545,0.863-0.576c0.354,0,0.721,0.019,1.104,0.052
				c0.416-1.188,0.625-2.708,0.625-4.567c0-0.354,0-1.313,0-2.884c-0.033-1.153-0.025-2.083,0.022-2.788
				c0.08-0.063,0.12-0.16,0.12-0.288c0-0.063-0.032-0.192-0.096-0.385c-0.064-0.193-0.08-0.337-0.05-0.436
				c0.031-0.385,0.08-0.979,0.146-1.776c-0.018-0.705-0.023-1.766-0.023-3.176c-0.208-0.255-0.232-0.633-0.072-1.128
				c0.16-0.497,0.146-0.854-0.047-1.083c0.096-0.157,0.144-0.416,0.144-0.77c0-0.288,0-0.593,0-0.913c0-0.191,0-0.399,0-0.625
				c0-0.227,0.04-0.567,0.12-1.033c0.08-0.465,0.119-0.825,0.119-1.083c0-0.188-0.041-0.438-0.119-0.743
				c-0.08-0.306-0.12-0.536-0.12-0.694c0-0.16,0.04-0.368,0.12-0.625c0.08-0.258,0.119-0.437,0.119-0.529
				c0-0.159-0.08-0.305-0.239-0.433c0.256-0.159,0.385-0.319,0.385-0.479c0-0.129-0.11-0.346-0.336-0.646
				c-0.226-0.308-0.287-0.567-0.19-0.794l1.344-0.576c-0.256-0.227-0.479-0.784-0.672-1.686c-0.191-0.733-0.527-1.186-1.009-1.346
				c-0.03-0.097-0.048-0.177-0.048-0.24c0-0.189,0.135-0.417,0.398-0.673c0.27-0.257,0.416-0.417,0.449-0.479
				c0.156-0.029,0.281-0.05,0.375-0.05c0.565,0,0.95,0.497,1.154,1.488c0.204,0.992,0.4,1.488,0.59,1.488
				c0.219,0,0.533-0.227,0.942-0.673c-0.063,0.446,0.015,0.733,0.233,0.86c0.408-0.799,1.006-1.197,1.791-1.197
				c0.689,0,1.367,0.278,2.024,0.842c0.66,0.56,1.131,1.248,1.414,2.063c0.282,0.816,0.563,1.625,0.849,2.425
				c-0.063,3.843-1.582,6.497-4.562,7.971c0.502-0.063,1.004,0.158,1.505,0.673c0.406,0.416,0.813,0.832,1.223,1.248
				c0.03,0.384,0.346,0.911,0.938,1.584c0.596,0.672,0.896,1.216,0.896,1.632c0,0.224-0.033,0.447-0.098,0.672
				C261.86,562.112,262.517,564.496,262.517,568.883z M260.549,568.883c0.031-0.227,0.048-0.466,0.048-0.724
				c0-0.316-0.041-0.813-0.119-1.484c-0.08-0.673-0.121-1.187-0.121-1.536c0-0.479,0.064-0.88,0.192-1.2
				c-0.833-1.472-2.239-3.584-4.225-6.336c-0.705,0.384-1.824,0.832-3.359,1.344c0,0.896-0.177,2.192-0.528,3.889
				c0.319,0.479,0.354,1.396,0.098,2.735c-0.258,1.152-0.112,1.89,0.433,2.208l0.288-0.288c0.575,0.229,0.863,0.546,0.863,0.961
				c0,0.191-0.098,0.527-0.288,1.008c-0.19,0.479-0.287,0.833-0.287,1.06l4.513,3.601c0.223,0,0.463,0,0.721,0
				c0.32,0,0.543-0.097,0.672-0.288l-0.288-0.236c0.991-1.188,1.487-2.479,1.487-3.892
				C260.644,569.407,260.612,569.137,260.549,568.883z M258.58,546.271c-0.417-0.991-1.088-1.487-2.017-1.487
				c-0.127,0-0.305,0-0.527,0c-0.225,0-0.399,0-0.527,0c-0.673,0-1.138-0.236-1.393-0.721l0.527,0.816
				c-0.863,0.604-1.439,1.565-1.729,2.88c-0.16,1.148-0.317,2.317-0.479,3.504c0.225,0.513,0.318,1.229,0.287,2.16
				c-0.031,1.248-0.048,1.981-0.048,2.208l-0.239,0.572c0.191,0,0.398-0.017,0.623-0.048c0.256,0.031,0.416,0.146,0.479,0.336
				c0.353-0.224,0.912-0.831,1.681-1.82c0.672-0.832,1.327-1.328,1.969-1.488c1.279-1.76,1.92-3.28,1.92-4.563
				C259.108,547.889,258.933,547.105,258.58,546.271z"/>
			<path fill="#FFFFFF" d="M274.468,573.923c-0.256,0.444-0.656,0.751-1.199,0.908c-0.545,0.16-1.088,0.319-1.633,0.479
				c-0.128-0.257-0.408-0.496-0.84-0.72c-0.434-0.228-0.712-0.449-0.841-0.672c0.03-0.064,0.137-0.229,0.313-0.48
				c0.174-0.257,0.264-0.446,0.264-0.575c0-0.159-0.096-0.288-0.288-0.385c-0.128,0.064-0.784,0.416-1.968,1.057
				c-0.801,0.447-1.457,0.673-1.969,0.673c-0.576,0-1.137-0.189-1.681-0.573c-0.992-0.704-1.487-1.475-1.487-2.308
				c0-1.375,1.439-2.94,4.319-4.703c0.226,0,0.604,0.091,1.149,0.267s0.961,0.265,1.248,0.265c0.354,0,0.674-0.079,0.961-0.238
				c-0.096-0.318-0.145-0.688-0.145-1.104c0-0.353,0.04-0.896,0.12-1.632c0.079-0.736,0.12-1.279,0.12-1.632
				c0-1.505-0.688-2.4-2.064-2.688c-0.703,0.16-1.408,0.307-2.111,0.435c-0.831,0.159-1.438,0.495-1.822,1.01
				c0.189,0.188,0.287,0.416,0.287,0.672c0,0.225-0.094,0.544-0.276,0.96c-0.186,0.416-0.294,0.704-0.325,0.864l-0.304,0.286
				c-0.705-0.226-1.091-0.642-1.157-1.247c0-0.607,0-1.218,0-1.823c1.355-1.408,3.15-2.354,5.383-2.832l0.582,0.576
				c1.326,0.256,2.067,0.416,2.229,0.479c0.681,0.319,1.063,0.911,1.163,1.775c0.063,0.479,0.029,1.185-0.098,2.11
				c-0.127,1.021-0.189,1.729-0.189,2.11c0,0.643,0.098,1.199,0.287,1.681c-0.605,0.575-0.911,1.438-0.911,2.595
				c0,0.416,0.11,1.407,0.336,2.977c0.063-0.576,0.722-0.849,1.97-0.814C274.372,572.24,274.563,572.992,274.468,573.923z
				 M269.14,569.983c-0.416-0.8-0.912-1.199-1.488-1.199c-0.127,0-0.286,0.02-0.479,0.048c-0.416,0.448-0.849,0.884-1.296,1.3
				c-0.448,0.512-0.769,1.021-0.961,1.532c0.226,0,0.425,0.1,0.601,0.288c0.176,0.191,0.344,0.367,0.504,0.527
				c0.705-0.256,1.416-0.552,2.138-0.888C268.875,571.259,269.203,570.721,269.14,569.983z"/>
			<path fill="#FFFFFF" d="M283.106,573.849c-0.225,0.561-0.719,1.176-1.487,1.849c-1.121,0.96-1.728,1.521-1.823,1.684
				c-2.783-0.896-4.24-2.604-4.368-5.123c0.16-0.127,0.24-0.271,0.24-0.435c0-0.157-0.097-0.374-0.288-0.646
				c-0.191-0.272-0.305-0.455-0.337-0.553c0.608-0.987,0.912-2.396,0.912-4.214c0-0.188,0-0.484,0-0.887c0-0.396,0-0.71,0-0.934
				c0-2.648,0.96-4.452,2.881-5.41c0.128,0,0.345-0.058,0.647-0.167c0.304-0.111,0.521-0.168,0.646-0.168
				c0.288,0,0.512,0.175,0.672,0.521l-0.287,0.286c0.512,0.189,0.991,0.634,1.438,1.33c0.446,0.697,0.672,1.349,0.672,1.948
				c0,0.315-0.063,0.587-0.19,0.81c-0.385,0.03-0.752,0.048-1.104,0.048c-0.447,0-0.752-0.174-0.911-0.521
				c0.189-0.126,0.277-0.4,0.266-0.825c-0.02-0.426,0.055-0.7,0.215-0.826c-0.228-0.536-0.502-0.805-0.826-0.805
				c-0.194,0-0.521,0.151-0.973,0.454c-0.455,0.305-0.795,0.473-1.021,0.503c-0.52,0.512-0.777,1.182-0.777,2.011
				c0,0.354,0.071,0.908,0.217,1.674c0.145,0.77,0.215,1.344,0.215,1.727c0,0.51-0.096,0.957-0.287,1.339
				c-0.512,0.098-0.769,0.319-0.769,0.67c0,0.128,0.063,0.367,0.191,0.719c0.127,0.354,0.192,0.621,0.192,0.813
				c0,0.255-0.098,0.463-0.289,0.622l0.289,0.286l-0.24,0.284c0.353,0.129,0.56,0.479,0.623,1.057
				c0.063,0.73,0.176,1.192,0.336,1.388c0.193,0.286,0.4,0.638,0.625,1.053c0.127,0.19,0.24,0.287,0.336,0.287
				c0.127,0,0.496-0.097,1.104-0.288c0.096-0.16,0.359-0.397,0.792-0.721c0.433-0.319,0.647-0.607,0.647-0.863
				c0-0.128-0.049-0.288-0.145-0.479c-0.257-0.479-0.385-0.771-0.385-0.864c-0.031-0.128,0.063-0.464,0.288-1.008l0.19-0.384
				c0.127-0.354,0.254-0.528,0.385-0.528c0.063,0,0.238,0.138,0.527,0.408c0.287,0.271,0.576,0.376,0.863,0.313
				c0.288,0.16,0.432,0.497,0.432,1.008C283.442,572.768,283.331,573.287,283.106,573.849z"/>
			<path fill="#FFFFFF" d="M293.716,571.809c0.03,0.226,0.049,0.448,0.049,0.672c0,0.771-0.255,1.456-0.762,2.064
				c-0.509,0.604-1.109,0.908-1.809,0.908c-0.381,0-0.746-0.097-1.094-0.284c-1.08-0.576-1.617-2.229-1.617-4.944
				c0-0.8-0.393-1.775-1.172-2.928l-0.28,3.117c-0.031,0.515-0.171,1.17-0.421,1.971c-0.063,0.16-0.094,0.368-0.094,0.624
				c0,0.127,0,0.304,0,0.524c0,0.191,0,0.354,0,0.479c0,0.641-0.277,0.96-0.832,0.96c-0.164,0-0.393-0.031-0.687-0.096
				c-0.099,0.063-0.194,0.096-0.293,0.096c-0.163,0-0.312-0.128-0.438-0.384c-0.229-0.32-0.358-0.497-0.392-0.528
				c0.96-1.088,1.438-2.03,1.438-2.832c0-0.384-0.111-0.751-0.336-1.104c0.317-1.151,0.547-2.575,0.689-4.271
				c0.105-1.438,0.212-2.88,0.316-4.318c0.162-0.989,0.339-2.495,0.529-4.514c0-0.063,0-1.584,0-4.56
				c0.03-1.792,0.174-3.297,0.432-4.515c-0.258-0.257-0.313-0.632-0.168-1.129c0.145-0.493,0.104-0.87-0.12-1.128l-1.681-0.525
				c-0.127-0.771,0.239-1.151,1.104-1.151c0.416,0,0.704,0.19,0.863,0.576l0.287-0.288c0.77,0.896,1.152,1.744,1.152,2.544
				c0,0.384-0.146,1.018-0.433,1.896c-0.288,0.882-0.433,1.643-0.433,2.278c0,0.736,0.047,1.851,0.145,3.337
				c0.096,1.487,0.145,2.633,0.145,3.435c0.031,0.063,0.047,0.145,0.047,0.237c0,0.161-0.096,0.368-0.287,0.624
				c-0.19,0.259-0.305,0.436-0.336,0.527c0.127,0.191,0.336,0.288,0.623,0.288c0.543,0,0.801,0,0.771,0
				c0.256-0.479,0.664-0.8,1.226-0.96c0.56-0.16,1.096-0.305,1.606-0.435c0.928,0.319,1.487,1.15,1.68,2.495
				c0.16,1.219-0.415,2.387-1.729,3.505c-1.313,1.12-1.97,1.938-1.97,2.447c0,0.191,0.088,0.435,0.267,0.721
				c0.176,0.287,0.295,0.496,0.358,0.623c-0.16,0.161-0.239,0.4-0.239,0.724c0,0.063,0,0.168,0,0.313c0,0.146,0,0.248,0,0.313
				c0,0.446-0.306,0.655-0.911,0.624c0.479,0.159,0.88,0.704,1.199,1.632c0.318,1.057,0.673,1.729,1.057,2.018
				c0.191-0.479,0.367-0.961,0.527-1.438c0.257-0.606,0.562-0.912,0.912-0.912C292.931,571.137,293.3,571.359,293.716,571.809z
				 M291.459,560.575c-0.252-0.127-0.505-0.188-0.758-0.188c-0.378,0-0.853,0.256-1.42,0.768c-0.567,0.515-1.042,0.784-1.421,0.816
				c0.19,0.128,0.287,0.288,0.287,0.479c0,0.129-0.047,0.319-0.145,0.575c-0.097,0.258-0.146,0.465-0.146,0.624
				c0,0.097,0.017,0.192,0.047,0.288c0.248,0.226,0.496,0.336,0.744,0.336c0.312,0,0.684-0.208,1.117-0.624
				c0.559-0.479,0.93-0.751,1.116-0.813l-0.288-0.286c0.03-0.227,0.191-0.536,0.479-0.938
				C291.362,561.208,291.491,560.864,291.459,560.575z"/>
		</g>
	</g>
</g>
<g id="Ebene_2">
	<g>
		<g>
			<path fill="#FFFFFF" d="M234.328,583.117c-1.472,1.474-2.942,2.941-4.414,4.414c-0.32,0.319-0.161,0.771,0.242,0.9
				c0.477,0.158,1.021-0.021,1.366-0.366c1.471-1.471,2.941-2.939,4.414-4.414c0.319-0.318,0.162-0.768-0.242-0.897
				C235.218,582.594,234.673,582.772,234.328,583.117L234.328,583.117z"/>
		</g>
	</g>
	<g>
		<g>
			<path fill="#FFFFFF" d="M231.826,580.186c-3.222,0.83-5.579,3.095-8.157,5.06c-0.368,0.28,1.389,0.078,1.737-0.188
				c2.019-1.538,4.034-3.707,6.558-4.356C233.087,580.41,232.944,579.896,231.826,580.186L231.826,580.186z"/>
		</g>
	</g>
	<g>
		<g>
			<path fill="#FFFFFF" d="M226.276,577.448c-2.027,1.144-4.151,2.1-6.18,3.235c-0.312,0.175-0.537,0.629-0.146,0.85
				c0.43,0.24,0.979,0.064,1.375-0.152c2.026-1.144,4.151-2.1,6.18-3.238c0.312-0.174,0.537-0.627,0.146-0.851
				C227.222,577.052,226.67,577.226,226.276,577.448L226.276,577.448z"/>
		</g>
	</g>
	<g>
		<g>
			<path fill="#FFFFFF" d="M225.914,573.571c-2.089-0.827-4.813,0.94-6.726,1.605c-0.123,0.043-0.862,0.374-0.562,0.604
				c0.313,0.239,0.935,0.032,1.252-0.078c0.771-0.269,1.519-0.591,2.271-0.896c0.646-0.261,1.49-0.718,2.188-0.441
				C224.797,574.55,226.554,573.824,225.914,573.571L225.914,573.571z"/>
		</g>
	</g>
	<g>
		<g>
			<path fill="#FFFFFF" d="M223.704,566.532c-2.346-0.438-5.357,0.513-7.573,1.226c-1.157,0.372-0.843,1.618,0.333,1.239
				c1.912-0.612,4.532-1.509,6.553-1.131C223.921,568.035,224.993,566.773,223.704,566.532L223.704,566.532z"/>
		</g>
	</g>
	<g>
		<g>
			<path fill="#FFFFFF" d="M224.233,560.152c-1.442-0.271-2.875-0.327-4.34-0.327c-0.449,0-1.02,0.132-1.27,0.553
				c-0.23,0.392,0.195,0.66,0.549,0.66c1.311,0,2.61,0.02,3.901,0.263c0.471,0.089,1.015-0.021,1.364-0.365
				C224.726,560.65,224.661,560.232,224.233,560.152L224.233,560.152z"/>
		</g>
	</g>
	<g>
		<g>
			<path fill="#FFFFFF" d="M225.829,551.767c-3.046,0.323-6.168,0.003-9.208-0.293c-0.453-0.045-2.236,0.75-1.236,0.849
				c3.175,0.313,6.441,0.634,9.626,0.295C225.551,552.56,227.103,551.633,225.829,551.767L225.829,551.767z"/>
		</g>
	</g>
	<g>
		<g>
			<path fill="#FFFFFF" d="M229.521,546.876c-2.541-0.63-5.096-1.195-7.649-1.768c-0.753-0.167-2.291,0.958-1.14,1.216
				c2.556,0.566,5.109,1.136,7.65,1.769C229.136,548.276,230.673,547.161,229.521,546.876L229.521,546.876z"/>
		</g>
	</g>
	<g>
		<g>
			<path fill="#FFFFFF" d="M230.337,541.819c-2.468-0.331-4.465-1.622-6.064-3.488c-0.301-0.353-2.1,0.325-1.82,0.647
				c1.652,1.931,3.756,3.229,6.294,3.573c0.448,0.061,0.94-0.064,1.351-0.253C230.216,542.242,230.784,541.883,230.337,541.819
				L230.337,541.819z"/>
		</g>
	</g>
	<g>
		<g>
			<path fill="#FFFFFF" d="M234.332,539.573c-0.056-0.414-0.377-0.726-0.658-1.009c-0.493-0.497-2.325,0.229-1.791,0.769
				c0.224,0.228,0.474,0.434,0.519,0.761C232.492,540.771,234.435,540.321,234.332,539.573L234.332,539.573z"/>
		</g>
	</g>
	<g>
		<g>
			<path fill="#FFFFFF" d="M237.203,534.735c-2.142-3.034-4.402-5.974-6.106-9.289c-0.356-0.691-2.24-0.078-1.934,0.521
				c1.75,3.4,4.053,6.428,6.251,9.545C235.813,536.076,237.683,535.414,237.203,534.735L237.203,534.735z"/>
		</g>
	</g>
	<g>
		<g>
			<path fill="#FFFFFF" d="M236.821,522.318c-0.739,1.653,0.592,3.736,1.392,5.117c1.046,1.809,2.319,3.507,3.667,5.1
				c0.368,0.438,2.21-0.229,1.807-0.709c-1.305-1.542-2.496-3.18-3.541-4.905c-0.766-1.265-2.084-3.366-1.403-4.891
				C238.95,521.56,237.069,521.762,236.821,522.318L236.821,522.318z"/>
		</g>
	</g>
	<g>
		<g>
			<path fill="#FFFFFF" d="M226.202,533.247c-0.956,0.999-1.758-0.064-0.996,0.518c0.294,0.224,0.564,0.478,0.837,0.726
				c0.75,0.686,1.47,1.4,2.194,2.11c1.203,1.181,2.388,2.457,3.775,3.426c0.553,0.386,2.327-0.413,1.526-0.973
				c-1.888-1.313-3.448-3.188-5.104-4.771c-0.86-0.822-2.514-2.745-3.799-1.398C223.84,533.717,225.729,533.74,226.202,533.247
				L226.202,533.247z"/>
		</g>
	</g>
	<g>
		<g>
			<path fill="#FFFFFF" d="M241.817,517.726c0.353,3.16,1.262,6.212,3.314,8.692c0.537,0.646,2.381-0.104,1.771-0.836
				c-1.985-2.397-2.816-5.325-3.157-8.375C243.653,516.36,241.718,516.828,241.817,517.726L241.817,517.726z"/>
		</g>
	</g>
	<g>
		<g>
			<path fill="#FFFFFF" d="M249.469,516.256c1.363,2.895,1.755,6.014,2.354,9.123c0.137,0.701,2.074,0.224,1.933-0.521
				c-0.6-3.108-0.989-6.229-2.354-9.123C251.069,515.036,249.179,515.64,249.469,516.256L249.469,516.256z"/>
		</g>
	</g>
	<g>
		<g>
			<path fill="#FFFFFF" d="M256.826,515.37c0.521,2.729,0.069,5.516,0.588,8.239c0.151,0.799,2.09,0.313,1.933-0.518
				c-0.52-2.729-0.068-5.516-0.588-8.24C258.604,514.056,256.668,514.546,256.826,515.37L256.826,515.37z"/>
		</g>
	</g>
	<g>
		<g>
			<path fill="#FFFFFF" d="M263.888,515.521c-0.307,1.853-0.568,3.712-0.589,5.593c-0.011,0.835,1.927,0.438,1.935-0.229
				c0.022-1.88,0.285-3.739,0.589-5.594C265.951,514.507,264,514.839,263.888,515.521L263.888,515.521z"/>
		</g>
	</g>
	<g>
		<g>
			<path fill="#FFFFFF" d="M275.084,514.396c-0.892,2.322-1.979,4.583-2.354,7.063c-0.072,0.487,1.836,0.141,1.908-0.334
				c0.375-2.479,1.463-4.738,2.354-7.063C277.133,513.691,275.274,513.893,275.084,514.396L275.084,514.396z"/>
		</g>
	</g>
	<g>
		<g>
			<path fill="#FFFFFF" d="M281.267,515.581c-1.901,2.527-3.979,5.099-4.709,8.239c-0.089,0.388,1.795,0.108,1.902-0.352
				c0.73-3.146,2.807-5.713,4.707-8.24C283.272,515.092,281.604,515.135,281.267,515.581L281.267,515.581z"/>
		</g>
	</g>
	<g>
		<g>
			<path fill="#FFFFFF" d="M286.854,517.343c-1.186,2.042-2.541,3.969-4.043,5.788c-0.395,0.477,1.457,0.212,1.75-0.146
				c1.556-1.885,2.973-3.868,4.196-5.979C288.907,516.749,287.136,516.856,286.854,517.343L286.854,517.343z"/>
		</g>
	</g>
	<g>
		<g>
			<path fill="#FFFFFF" d="M294.065,518.661c-1.508,2.108-3.03,4.203-4.709,6.184c-0.791,0.932,1.057,1.204,1.609,0.551
				c1.68-1.979,3.202-4.07,4.709-6.181C296.39,518.217,294.569,517.955,294.065,518.661L294.065,518.661z"/>
		</g>
	</g>
	<g>
		<g>
			<path fill="#FFFFFF" d="M298.696,521.925c-1.483,1.764-3.106,3.401-4.87,4.89c-0.791,0.666,1.133,0.453,1.502,0.144
				c1.854-1.563,3.573-3.263,5.136-5.113C300.913,521.304,299.022,521.534,298.696,521.925L298.696,521.925z"/>
		</g>
	</g>
	<g>
		<g>
			<path fill="#FFFFFF" d="M308.546,525.362c-2.548,1.604-5.038,3.297-7.195,5.403c-0.44,0.432,1.412,0.222,1.756-0.115
				c2.078-2.029,4.479-3.646,6.931-5.188C310.865,524.939,308.914,525.134,308.546,525.362L308.546,525.362z"/>
		</g>
	</g>
	<g>
		<g>
			<path fill="#FFFFFF" d="M313.28,529.267c-2.473,1.237-4.922,2.502-7.275,3.954c-1.113,0.688,0.492,1.347,1.275,0.863
				c2.212-1.364,4.527-2.536,6.851-3.698C315.312,529.796,314.252,528.781,313.28,529.267L313.28,529.267z"/>
		</g>
	</g>
	<g>
		<g>
			<path fill="#FFFFFF" d="M321.757,534.714c-3.818,0.651-7.542,1.586-11.14,3.033c-1.224,0.493-0.146,1.641,0.879,1.228
				c3.426-1.382,7.006-2.229,10.639-2.852C323.371,535.911,322.961,534.508,321.757,534.714L321.757,534.714z"/>
		</g>
	</g>
	<g>
		<g>
			<path fill="#FFFFFF" d="M325.899,540.096c-3.35,0.626-6.658,1.436-10.006,2.061c-1.22,0.229-0.855,1.46,0.332,1.237
				c3.348-0.625,6.656-1.435,10.006-2.06C327.449,541.105,327.087,539.873,325.899,540.096L325.899,540.096z"/>
		</g>
	</g>
	<g>
		<g>
			<path fill="#FFFFFF" d="M327.101,545.851c-1.679,0.278-3.352,0.545-5.056,0.565c-0.425,0.006-0.999,0.154-1.282,0.496
				c-0.293,0.354,0.248,0.458,0.493,0.455c1.864-0.021,3.702-0.305,5.539-0.606c0.343-0.06,0.981-0.209,1.112-0.602
				C328.038,545.775,327.278,545.821,327.101,545.851L327.101,545.851z"/>
		</g>
	</g>
	<g>
		<g>
			<path fill="#FFFFFF" d="M237.987,587.022c-0.326,1.525-0.896,2.971-1.471,4.414c-0.176,0.438,0.629,0.505,0.852,0.479
				c0.447-0.05,0.913-0.258,1.087-0.69c0.577-1.443,1.146-2.892,1.472-4.414C240.099,586.009,238.142,586.306,237.987,587.022
				L237.987,587.022z"/>
		</g>
	</g>
	<g>
		<g>
			<path fill="#FFFFFF" d="M241.522,589.823c0,1.572-0.021,3.115-0.578,4.606c-0.163,0.436,1.715,0.214,1.912-0.313
				c0.58-1.554,0.598-3.174,0.599-4.812C243.455,588.915,241.522,589.219,241.522,589.823L241.522,589.823z"/>
		</g>
	</g>
	<g>
		<g>
			<path fill="#FFFFFF" d="M248.888,591.772c-0.337,1.479-0.283,3.042-0.008,4.525c0.098,0.525,2.041,0.066,1.932-0.521
				c-0.262-1.415-0.328-2.893-0.006-4.304C250.937,590.9,249.015,591.218,248.888,591.772L248.888,591.772z"/>
		</g>
	</g>
	<g>
		<g>
			<path fill="#FFFFFF" d="M257.407,592.015c-0.27,2.028-0.305,4.075,0.302,6.05c0.243,0.799,2.172,0.268,1.933-0.518
				c-0.576-1.881-0.543-3.79-0.289-5.725C259.472,590.93,257.511,591.24,257.407,592.015L257.407,592.015z"/>
		</g>
	</g>
	<g>
		<g>
			<path fill="#FFFFFF" d="M263.293,592.6c-0.612,1.785,0.031,3.751,0.597,5.465c0.27,0.813,2.192,0.275,1.932-0.518
				c-0.533-1.626-1.159-3.438-0.578-5.129C265.517,591.608,263.552,591.844,263.293,592.6L263.293,592.6z"/>
		</g>
	</g>
	<g>
		<g>
			<path fill="#FFFFFF" d="M267.42,592.768c0.313,2.053,0.959,3.979,1.767,5.887c0.215,0.509,2.102-0.117,1.933-0.519
				c-0.808-1.907-1.449-3.834-1.767-5.888C269.283,591.807,267.338,592.23,267.42,592.768L267.42,592.768z"/>
		</g>
	</g>
	<g>
		<g>
			<path fill="#FFFFFF" d="M272.129,591.885c0.063,2.609,1.195,5.246,3.297,6.854c0.462,0.354,2.185-0.401,1.812-0.688
				c-2.053-1.574-3.112-4.134-3.176-6.686C274.05,590.941,272.112,591.269,272.129,591.885L272.129,591.885z"/>
		</g>
	</g>
	<g>
		<g>
			<path fill="#FFFFFF" d="M279.207,590.333c-0.543,2.645,0.918,5.063,2.979,6.614c0.407,0.311,2.051-0.47,1.826-0.64
				c-1.938-1.461-3.422-3.83-2.906-6.335C281.183,589.602,279.298,589.892,279.207,590.333L279.207,590.333z"/>
		</g>
	</g>
	<g>
		<g>
			<path fill="#FFFFFF" d="M287.138,587.177c0.92,2.41,2.086,4.714,3.894,6.586c0.446,0.464,2.276-0.243,1.798-0.74
				c-1.75-1.813-2.865-4.027-3.76-6.362C288.821,586.015,286.914,586.594,287.138,587.177L287.138,587.177z"/>
		</g>
	</g>
	<g>
		<g>
			<path fill="#FFFFFF" d="M293.093,587.007c1.893,1.934,3.401,4.256,5.592,5.886c0.563,0.417,2.34-0.355,1.793-0.764
				c-2.188-1.633-3.699-3.952-5.593-5.889C294.397,585.744,292.565,586.469,293.093,587.007L293.093,587.007z"/>
		</g>
	</g>
	<g>
		<g>
			<path fill="#FFFFFF" d="M298.979,584.362c1.604,1.854,3.736,3.107,5.722,4.512c0.549,0.392,2.323-0.404,1.526-0.971
				c-1.898-1.345-3.922-2.539-5.459-4.313C300.302,583.051,298.453,583.756,298.979,584.362L298.979,584.362z"/>
		</g>
	</g>
	<g>
		<g>
			<path fill="#FFFFFF" d="M303.541,581.579c2.114,1.229,4.127,2.623,6.366,3.621c0.787,0.354,2.24-0.775,1.121-1.274
				c-2.106-0.94-4.002-2.286-5.993-3.441C304.321,580.067,302.614,581.042,303.541,581.579L303.541,581.579z"/>
		</g>
	</g>
	<g>
		<g>
			<path fill="#FFFFFF" d="M309.58,575.56c1.664,1.569,3.758,2.236,5.913,2.854c0.773,0.224,2.287-0.905,1.134-1.235
				c-1.875-0.536-3.815-1.07-5.271-2.443C310.758,574.17,308.931,574.944,309.58,575.56L309.58,575.56z"/>
		</g>
	</g>
	<g>
		<g>
			<path fill="#FFFFFF" d="M313.353,571.66c2.814,0.094,5.323,1.364,8.021,2.021c0.732,0.179,2.29-0.913,1.146-1.19
				c-2.848-0.689-5.485-2.002-8.459-2.1C313.214,570.364,312.043,571.617,313.353,571.66L313.353,571.66z"/>
		</g>
	</g>
	<g>
		<g>
			<path fill="#FFFFFF" d="M316.856,567.441c2.287,0,4.571,0.011,6.848,0.272c0.472,0.055,0.998-0.05,1.365-0.366
				c0.287-0.248,0.238-0.615-0.178-0.663c-2.421-0.28-4.845-0.313-7.277-0.314C316.909,566.369,315.552,567.441,316.856,567.441
				L316.856,567.441z"/>
		</g>
	</g>
	<g>
		<g>
			<path fill="#FFFFFF" d="M319.188,561.353c2.463-0.254,4.932-0.29,7.404-0.29c0.456,0,1.021-0.127,1.268-0.563
				c0.222-0.396-0.188-0.7-0.561-0.7c-2.639,0.001-5.271,0.023-7.896,0.298C318.386,560.201,317.862,561.49,319.188,561.353
				L319.188,561.353z"/>
		</g>
	</g>
	<g>
		<g>
			<path fill="#FFFFFF" d="M320.81,556.24c2.819-1.165,5.932-1.354,8.903-1.923c0.769-0.146,1.711-0.979,0.354-0.723
				c-3.328,0.635-6.771,0.892-9.93,2.197C318.869,556.317,320.075,556.546,320.81,556.24L320.81,556.24z"/>
		</g>
	</g>
	<g>
		<g>
			<path fill="#FFFFFF" d="M320.171,550.823c0.855,0.854,3.105,0.219,4.109,0.075c2.039-0.289,4.058-0.697,6.085-1.045
				c0.973-0.165,1.548-1.438,0.227-1.211c-1.475,0.251-2.94,0.533-4.416,0.781c-0.815,0.138-1.633,0.262-2.452,0.371
				c-0.313,0.042-1.789,0.214-1.771,0.229C321.416,549.493,319.584,550.24,320.171,550.823L320.171,550.823z"/>
		</g>
	</g>
</g>
<g id="Ebene_3_2_">
</g>
<g>
	<path fill="#1AAB83" d="M5.06,42.127C2.706,67.142,4.924,73.685,30.924,82.685c21,7,45.001,8,64.001-7c10-7,15-14,19-26
		c5-14,5-16-4-26c-22-24-73.154-29.173-91.001-10C8.885,24.47,6.069,31.405,5.06,42.127z"/>
</g>
<g>
	<path fill="#B84A40" d="M59.502,10.052c-5,0-13.578,1.635-19.578,3.635c-20,6-37,37-23,53c30,35,121.001-5,79.001-44
		C87.925,14.686,59.502,10.052,59.502,10.052z"/>
</g>
<g>
	<g enable-background="new    ">
		<path fill="#FFFFFF" d="M49.513,57.344c-0.32,0.256-0.368,0.712-0.144,1.367c0.224,0.656,0.08,1.112-0.432,1.368
			c0.064,0.769-0.384,1.576-1.344,2.424s-1.809,1.272-2.544,1.272c-0.576,0-1.376-0.416-2.4-1.248
			c-1.024-0.832-1.744-1.248-2.16-1.248c-0.512,0-0.96,0.432-1.344,1.296c0.096,0.192,0.144,0.368,0.144,0.528
			c0,0.352-0.208,0.703-0.624,1.056c-0.608,0.544-0.912,0.848-0.912,0.912c-0.224-0.064-0.464-0.032-0.72,0.096
			c-0.353,0.128-0.593,0.192-0.72,0.192c-0.096,0-0.176-0.017-0.24-0.048c-0.641-0.641-0.96-1.376-0.96-2.208
			c0-0.192,0.032-0.368,0.096-0.528c0.096-0.353,0.384-0.544,0.864-0.576c0.352,0,0.72,0.016,1.104,0.049
			c0.416-1.186,0.624-2.708,0.624-4.567c0-0.353,0-1.313,0-2.884c-0.032-1.153-0.024-2.083,0.024-2.788
			c0.08-0.063,0.12-0.16,0.12-0.288c0-0.064-0.032-0.193-0.096-0.385c-0.064-0.192-0.08-0.337-0.048-0.433
			c0.031-0.384,0.08-0.978,0.144-1.779c-0.017-0.705-0.024-1.763-0.024-3.173c-0.208-0.255-0.232-0.632-0.072-1.128
			c0.16-0.497,0.144-0.857-0.048-1.083c0.096-0.159,0.144-0.416,0.144-0.769c0-0.288,0-0.593,0-0.913c0-0.192,0-0.4,0-0.625
			s0.04-0.568,0.12-1.033c0.08-0.465,0.12-0.826,0.12-1.083c0-0.191-0.041-0.439-0.12-0.744c-0.08-0.305-0.12-0.536-0.12-0.697
			c0-0.16,0.04-0.368,0.12-0.624c0.08-0.257,0.12-0.434,0.12-0.53c0-0.159-0.08-0.304-0.24-0.432c0.255-0.16,0.384-0.32,0.384-0.48
			c0-0.129-0.112-0.346-0.336-0.649c-0.224-0.305-0.288-0.568-0.192-0.793l1.344-0.577c-0.256-0.224-0.48-0.785-0.672-1.683
			c-0.192-0.736-0.528-1.186-1.008-1.346c-0.032-0.096-0.048-0.176-0.048-0.24c0-0.192,0.134-0.417,0.401-0.673
			c0.267-0.257,0.416-0.417,0.448-0.481c0.157-0.031,0.282-0.048,0.376-0.048c0.565,0,0.95,0.497,1.154,1.488
			c0.204,0.992,0.401,1.488,0.59,1.488c0.219,0,0.533-0.224,0.942-0.672c-0.063,0.448,0.015,0.736,0.235,0.863
			c0.408-0.799,1.005-1.2,1.791-1.2c0.69,0,1.366,0.281,2.025,0.841c0.66,0.56,1.131,1.248,1.414,2.063
			c0.283,0.816,0.565,1.625,0.848,2.424c-0.062,3.841-1.582,6.497-4.56,7.969c0.501-0.064,1.003,0.16,1.504,0.672
			c0.407,0.416,0.814,0.832,1.222,1.248c0.031,0.384,0.345,0.912,0.94,1.584c0.595,0.672,0.893,1.216,0.893,1.632
			c0,0.224-0.032,0.448-0.096,0.672C48.856,50.576,49.513,52.961,49.513,57.344z M47.544,57.344
			c0.032-0.224,0.048-0.464,0.048-0.721c0-0.319-0.041-0.815-0.12-1.487c-0.08-0.672-0.12-1.184-0.12-1.536
			c0-0.48,0.064-0.88,0.192-1.2c-0.833-1.472-2.24-3.584-4.224-6.336c-0.705,0.384-1.824,0.832-3.36,1.344
			c0,0.896-0.176,2.192-0.528,3.888c0.319,0.48,0.352,1.393,0.096,2.736c-0.257,1.152-0.113,1.889,0.432,2.208l0.288-0.288
			c0.576,0.225,0.864,0.545,0.864,0.96c0,0.192-0.096,0.528-0.288,1.008c-0.192,0.48-0.288,0.833-0.288,1.057l4.512,3.6
			c0.223,0,0.463,0,0.72,0c0.32,0,0.544-0.096,0.672-0.288l-0.288-0.239c0.991-1.184,1.488-2.479,1.488-3.889
			C47.641,57.872,47.608,57.6,47.544,57.344z M45.577,34.736c-0.417-0.991-1.088-1.488-2.016-1.488c-0.128,0-0.304,0-0.528,0
			c-0.224,0-0.4,0-0.528,0c-0.672,0-1.137-0.239-1.392-0.72l0.528,0.816c-0.864,0.607-1.44,1.568-1.728,2.88
			c-0.161,1.151-0.32,2.32-0.48,3.504c0.224,0.512,0.319,1.232,0.288,2.16c-0.032,1.248-0.048,1.984-0.048,2.208l-0.24,0.575
			c0.192,0,0.4-0.016,0.624-0.048c0.256,0.032,0.416,0.145,0.48,0.336c0.352-0.223,0.912-0.831,1.68-1.823
			c0.672-0.832,1.327-1.328,1.968-1.488c1.28-1.76,1.92-3.28,1.92-4.561C46.104,36.352,45.928,35.569,45.577,34.736z"/>
		<path fill="#FFFFFF" d="M61.464,62.385c-0.256,0.447-0.656,0.751-1.2,0.911c-0.544,0.16-1.088,0.32-1.632,0.48
			c-0.128-0.257-0.408-0.496-0.84-0.72c-0.432-0.225-0.712-0.449-0.84-0.672c0.031-0.064,0.136-0.225,0.312-0.48
			c0.175-0.257,0.264-0.447,0.264-0.576c0-0.159-0.096-0.288-0.288-0.384c-0.128,0.064-0.785,0.416-1.968,1.056
			c-0.8,0.448-1.457,0.672-1.968,0.672c-0.576,0-1.136-0.191-1.68-0.575c-0.992-0.704-1.488-1.472-1.488-2.305
			c0-1.375,1.44-2.943,4.32-4.704c0.224,0,0.607,0.089,1.152,0.265c0.544,0.176,0.96,0.264,1.248,0.264
			c0.352,0,0.672-0.079,0.96-0.24c-0.096-0.319-0.144-0.688-0.144-1.104c0-0.352,0.04-0.896,0.12-1.632
			c0.08-0.736,0.12-1.279,0.12-1.632c0-1.504-0.688-2.4-2.064-2.688c-0.704,0.16-1.409,0.305-2.112,0.432
			c-0.832,0.161-1.44,0.497-1.824,1.009c0.192,0.191,0.288,0.416,0.288,0.672c0,0.224-0.092,0.544-0.277,0.96
			s-0.294,0.704-0.327,0.864l-0.302,0.287c-0.705-0.223-1.091-0.64-1.158-1.248c0-0.607,0-1.215,0-1.823
			c1.357-1.408,3.152-2.353,5.383-2.832l0.582,0.576c1.325,0.256,2.068,0.416,2.23,0.479c0.679,0.32,1.066,0.912,1.164,1.776
			c0.064,0.479,0.031,1.184-0.096,2.111c-0.128,1.024-0.192,1.729-0.192,2.112c0,0.641,0.096,1.2,0.288,1.68
			c-0.608,0.576-0.912,1.44-0.912,2.593c0,0.416,0.112,1.408,0.336,2.976c0.064-0.576,0.72-0.848,1.968-0.816
			C61.368,60.704,61.56,61.457,61.464,62.385z M56.136,58.448c-0.417-0.8-0.912-1.2-1.488-1.2c-0.128,0-0.288,0.017-0.48,0.048
			c-0.416,0.449-0.848,0.881-1.296,1.297c-0.449,0.512-0.768,1.024-0.96,1.535c0.224,0,0.424,0.097,0.6,0.288
			c0.175,0.192,0.343,0.368,0.504,0.528c0.704-0.256,1.416-0.552,2.136-0.888C55.872,59.72,56.2,59.184,56.136,58.448z"/>
		<path fill="#FFFFFF" d="M70.104,62.312c-0.224,0.56-0.72,1.176-1.487,1.848c-1.121,0.96-1.729,1.52-1.824,1.681
			c-2.784-0.895-4.24-2.602-4.368-5.123c0.159-0.127,0.239-0.271,0.239-0.432c0-0.158-0.096-0.374-0.287-0.646
			c-0.192-0.271-0.305-0.455-0.336-0.551c0.607-0.989,0.912-2.394,0.912-4.213c0-0.191,0-0.487,0-0.886c0-0.399,0-0.71,0-0.934
			c0-2.649,0.959-4.452,2.879-5.41c0.129,0,0.344-0.056,0.648-0.167c0.305-0.112,0.52-0.168,0.648-0.168
			c0.287,0,0.512,0.175,0.672,0.522l-0.288,0.286c0.512,0.19,0.991,0.634,1.44,1.331c0.447,0.697,0.672,1.347,0.672,1.948
			c0,0.317-0.064,0.587-0.192,0.809c-0.384,0.031-0.752,0.048-1.104,0.048c-0.447,0-0.752-0.174-0.912-0.521
			c0.193-0.126,0.28-0.401,0.265-0.826c-0.017-0.425,0.056-0.7,0.216-0.826c-0.227-0.536-0.503-0.804-0.827-0.804
			c-0.194,0-0.519,0.151-0.973,0.454c-0.454,0.304-0.795,0.472-1.021,0.503c-0.519,0.511-0.778,1.181-0.778,2.01
			c0,0.351,0.072,0.909,0.216,1.674c0.144,0.767,0.216,1.341,0.216,1.724c0,0.51-0.096,0.957-0.287,1.339
			c-0.513,0.097-0.769,0.319-0.769,0.67c0,0.128,0.063,0.367,0.192,0.718c0.127,0.351,0.191,0.622,0.191,0.813
			c0,0.255-0.096,0.463-0.288,0.622l0.288,0.286l-0.24,0.287c0.352,0.128,0.56,0.479,0.625,1.054
			c0.063,0.733,0.175,1.195,0.336,1.388c0.191,0.286,0.398,0.637,0.623,1.052c0.128,0.191,0.24,0.287,0.336,0.287
			c0.128,0,0.496-0.096,1.104-0.288c0.096-0.16,0.36-0.4,0.792-0.72c0.432-0.32,0.648-0.608,0.648-0.864
			c0-0.128-0.049-0.288-0.145-0.479c-0.256-0.48-0.384-0.769-0.384-0.864c-0.032-0.128,0.063-0.464,0.288-1.008l0.191-0.384
			c0.128-0.353,0.256-0.528,0.385-0.528c0.063,0,0.24,0.137,0.527,0.408c0.288,0.272,0.576,0.376,0.864,0.312
			c0.288,0.161,0.433,0.497,0.433,1.008C70.44,61.232,70.327,61.752,70.104,62.312z"/>
		<path fill="#FFFFFF" d="M80.712,60.272c0.031,0.225,0.048,0.448,0.048,0.672c0,0.768-0.255,1.456-0.761,2.064
			c-0.508,0.607-1.11,0.911-1.809,0.911c-0.381,0-0.745-0.096-1.094-0.287c-1.078-0.576-1.617-2.225-1.617-4.944
			c0-0.8-0.391-1.776-1.172-2.928l-0.281,3.119c-0.031,0.513-0.171,1.169-0.421,1.969c-0.063,0.16-0.094,0.368-0.094,0.624
			c0,0.127,0,0.304,0,0.527c0,0.192,0,0.353,0,0.48c0,0.64-0.277,0.96-0.831,0.96c-0.164,0-0.392-0.032-0.685-0.096
			c-0.098,0.063-0.196,0.096-0.294,0.096c-0.163,0-0.309-0.128-0.439-0.384c-0.229-0.32-0.359-0.497-0.391-0.528
			c0.959-1.088,1.439-2.031,1.439-2.832c0-0.384-0.112-0.751-0.336-1.104c0.318-1.152,0.549-2.576,0.689-4.272
			c0.106-1.44,0.213-2.88,0.318-4.32c0.162-0.991,0.338-2.496,0.528-4.512c0-0.063,0-1.584,0-4.56
			c0.032-1.792,0.175-3.296,0.433-4.513c-0.258-0.256-0.313-0.631-0.168-1.128c0.144-0.495,0.104-0.871-0.121-1.128l-1.68-0.527
			c-0.128-0.769,0.24-1.152,1.104-1.152c0.416,0,0.704,0.191,0.865,0.576l0.287-0.288c0.768,0.896,1.152,1.744,1.152,2.544
			c0,0.384-0.145,1.016-0.432,1.896c-0.289,0.881-0.433,1.641-0.433,2.28c0,0.736,0.048,1.848,0.144,3.336
			c0.097,1.488,0.145,2.633,0.145,3.433c0.031,0.064,0.049,0.144,0.049,0.239c0,0.161-0.097,0.368-0.289,0.624
			c-0.191,0.257-0.305,0.433-0.336,0.528c0.128,0.192,0.336,0.288,0.625,0.288c0.543,0,0.799,0,0.768,0
			c0.256-0.48,0.664-0.8,1.224-0.96s1.096-0.304,1.608-0.433c0.928,0.32,1.488,1.152,1.68,2.496c0.16,1.217-0.416,2.385-1.729,3.504
			c-1.313,1.121-1.967,1.937-1.967,2.448c0,0.192,0.087,0.433,0.264,0.72c0.176,0.288,0.295,0.497,0.359,0.624
			c-0.16,0.161-0.24,0.401-0.24,0.721c0,0.064,0,0.168,0,0.312c0,0.145,0,0.248,0,0.313c0,0.448-0.305,0.656-0.912,0.624
			c0.48,0.16,0.881,0.704,1.201,1.632c0.318,1.056,0.672,1.728,1.056,2.016c0.192-0.479,0.367-0.96,0.528-1.439
			c0.256-0.607,0.559-0.912,0.912-0.912C79.927,59.6,80.296,59.824,80.712,60.272z M78.456,49.04
			c-0.253-0.127-0.506-0.191-0.759-0.191c-0.378,0-0.852,0.256-1.421,0.768c-0.568,0.513-1.042,0.784-1.42,0.816
			c0.191,0.128,0.287,0.288,0.287,0.479c0,0.129-0.048,0.32-0.145,0.576c-0.096,0.257-0.143,0.464-0.143,0.624
			c0,0.096,0.014,0.192,0.046,0.288c0.247,0.225,0.495,0.336,0.745,0.336c0.309,0,0.682-0.208,1.115-0.624
			c0.559-0.479,0.932-0.751,1.117-0.816l-0.288-0.287c0.031-0.224,0.192-0.536,0.479-0.937C78.36,49.673,78.487,49.328,78.456,49.04
			z"/>
	</g>
</g>
<g>
	<g>
		<path fill="#FFFFFF" d="M21.324,71.582c-1.471,1.474-2.943,2.943-4.414,4.414c-0.321,0.32-0.162,0.769,0.242,0.902
			c0.476,0.158,1.021-0.021,1.366-0.367c1.471-1.471,2.943-2.941,4.414-4.414c0.321-0.32,0.162-0.766-0.242-0.9
			C22.214,71.058,21.668,71.238,21.324,71.582L21.324,71.582z"/>
	</g>
</g>
<g>
	<g>
		<path fill="#FFFFFF" d="M18.822,68.65c-3.221,0.83-5.579,3.094-8.157,5.059c-0.368,0.281,1.388,0.08,1.737-0.188
			c2.018-1.537,4.035-3.707,6.557-4.357C20.083,68.875,19.942,68.361,18.822,68.65L18.822,68.65z"/>
	</g>
</g>
<g>
	<g>
		<path fill="#FFFFFF" d="M13.273,65.912c-2.027,1.142-4.151,2.099-6.18,3.238c-0.31,0.174-0.537,0.627-0.144,0.848
			c0.43,0.24,0.981,0.064,1.375-0.156c2.028-1.141,4.152-2.096,6.18-3.237c0.31-0.174,0.537-0.627,0.144-0.849
			C14.218,65.515,13.666,65.691,13.273,65.912L13.273,65.912z"/>
	</g>
</g>
<g>
	<g>
		<path fill="#FFFFFF" d="M12.91,62.035c-2.09-0.826-4.814,0.941-6.725,1.607c-0.123,0.043-0.863,0.373-0.561,0.604
			c0.314,0.24,0.933,0.033,1.252-0.078c0.769-0.268,1.517-0.592,2.272-0.895c0.646-0.26,1.49-0.719,2.186-0.443
			C11.794,63.011,13.55,62.289,12.91,62.035L12.91,62.035z"/>
	</g>
</g>
<g>
	<g>
		<path fill="#FFFFFF" d="M10.701,54.998c-2.346-0.438-5.357,0.51-7.573,1.224c-1.158,0.37-0.844,1.618,0.332,1.241
			c1.912-0.614,4.532-1.51,6.553-1.131C10.918,56.5,11.99,55.238,10.701,54.998L10.701,54.998z"/>
	</g>
</g>
<g>
	<g>
		<path fill="#FFFFFF" d="M11.23,48.617c-1.442-0.271-2.875-0.328-4.339-0.328c-0.449,0-1.019,0.133-1.269,0.553
			c-0.232,0.39,0.196,0.66,0.549,0.66c1.31,0,2.61,0.019,3.901,0.261c0.471,0.09,1.015-0.019,1.366-0.365
			C11.723,49.115,11.657,48.697,11.23,48.617L11.23,48.617z"/>
	</g>
</g>
<g>
	<g>
		<path fill="#FFFFFF" d="M12.826,40.23c-3.047,0.324-6.169,0.003-9.208-0.293c-0.453-0.044-2.236,0.751-1.236,0.849
			c3.175,0.311,6.441,0.633,9.626,0.295C12.546,41.024,14.099,40.095,12.826,40.23L12.826,40.23z"/>
	</g>
</g>
<g>
	<g>
		<path fill="#FFFFFF" d="M16.518,35.341c-2.541-0.63-5.096-1.196-7.651-1.766c-0.753-0.167-2.291,0.958-1.139,1.214
			c2.555,0.568,5.11,1.136,7.651,1.767C16.133,36.741,17.669,35.626,16.518,35.341L16.518,35.341z"/>
	</g>
</g>
<g>
	<g>
		<path fill="#FFFFFF" d="M17.333,30.284c-2.467-0.333-4.464-1.624-6.064-3.49c-0.301-0.352-2.1,0.326-1.822,0.649
			c1.654,1.929,3.756,3.229,6.295,3.573c0.45,0.061,0.941-0.065,1.349-0.253C17.211,30.708,17.781,30.345,17.333,30.284
			L17.333,30.284z"/>
	</g>
</g>
<g>
	<g>
		<path fill="#FFFFFF" d="M21.328,28.037c-0.056-0.414-0.377-0.724-0.659-1.007c-0.494-0.497-2.326,0.229-1.791,0.767
			c0.223,0.226,0.474,0.432,0.518,0.759C19.489,29.236,21.43,28.786,21.328,28.037L21.328,28.037z"/>
	</g>
</g>
<g>
	<g>
		<path fill="#FFFFFF" d="M24.2,23.2c-2.141-3.036-4.403-5.974-6.108-9.289c-0.357-0.696-2.239-0.08-1.932,0.519
			c1.75,3.403,4.052,6.428,6.251,9.545C22.811,24.542,24.679,23.879,24.2,23.2L24.2,23.2z"/>
	</g>
</g>
<g>
	<g>
		<path fill="#FFFFFF" d="M23.817,10.784c-0.739,1.653,0.592,3.736,1.391,5.117c1.046,1.807,2.32,3.506,3.667,5.098
			c0.369,0.437,2.21-0.231,1.807-0.709c-1.305-1.542-2.496-3.179-3.542-4.907c-0.765-1.263-2.084-3.367-1.404-4.89
			C25.946,10.024,24.067,10.226,23.817,10.784L23.817,10.784z"/>
	</g>
</g>
<g>
	<g>
		<path fill="#FFFFFF" d="M13.199,21.712c-0.956,1-1.758-0.067-0.996,0.516c0.293,0.224,0.564,0.477,0.836,0.725
			c0.751,0.684,1.47,1.401,2.195,2.111c1.204,1.18,2.388,2.457,3.776,3.425c0.552,0.385,2.328-0.414,1.527-0.972
			c-1.885-1.315-3.448-3.189-5.104-4.772c-0.861-0.824-2.513-2.745-3.799-1.4C10.836,22.179,12.726,22.206,13.199,21.712
			L13.199,21.712z"/>
	</g>
</g>
<g>
	<g>
		<path fill="#FFFFFF" d="M28.813,6.19c0.352,3.16,1.262,6.212,3.316,8.691c0.537,0.648,2.379-0.102,1.773-0.834
			c-1.987-2.398-2.818-5.327-3.158-8.376C30.651,4.825,28.713,5.293,28.813,6.19L28.813,6.19z"/>
	</g>
</g>
<g>
	<g>
		<path fill="#FFFFFF" d="M36.465,4.719c1.364,2.895,1.755,6.013,2.354,9.122c0.136,0.704,2.075,0.225,1.932-0.518
			c-0.599-3.11-0.99-6.229-2.354-9.123C38.067,3.501,36.175,4.104,36.465,4.719L36.465,4.719z"/>
	</g>
</g>
<g>
	<g>
		<path fill="#FFFFFF" d="M43.822,3.835c0.519,2.726,0.069,5.514,0.588,8.24c0.152,0.798,2.089,0.311,1.932-0.518
			c-0.519-2.726-0.069-5.514-0.588-8.24C45.602,2.52,43.665,3.008,43.822,3.835L43.822,3.835z"/>
	</g>
</g>
<g>
	<g>
		<path fill="#FFFFFF" d="M50.883,3.985c-0.305,1.852-0.567,3.712-0.588,5.592c-0.01,0.836,1.927,0.436,1.935-0.229
			c0.022-1.88,0.284-3.74,0.588-5.593C52.947,2.969,50.996,3.302,50.883,3.985L50.883,3.985z"/>
	</g>
</g>
<g>
	<g>
		<path fill="#FFFFFF" d="M62.079,2.861C61.19,5.183,60.1,7.443,59.726,9.923c-0.074,0.49,1.835,0.141,1.907-0.334
			c0.374-2.479,1.464-4.739,2.354-7.063C64.128,2.157,62.272,2.358,62.079,2.861L62.079,2.861z"/>
	</g>
</g>
<g>
	<g>
		<path fill="#FFFFFF" d="M68.263,4.047c-1.902,2.527-3.978,5.096-4.709,8.24c-0.09,0.385,1.795,0.107,1.902-0.353
			c0.732-3.146,2.807-5.712,4.709-8.24C70.271,3.554,68.601,3.597,68.263,4.047L68.263,4.047z"/>
	</g>
</g>
<g>
	<g>
		<path fill="#FFFFFF" d="M73.853,5.805c-1.184,2.042-2.541,3.969-4.043,5.788c-0.393,0.477,1.457,0.212,1.75-0.144
			c1.556-1.884,2.974-3.869,4.199-5.984C75.903,5.215,74.134,5.321,73.853,5.805L73.853,5.805z"/>
	</g>
</g>
<g>
	<g>
		<path fill="#FFFFFF" d="M81.062,7.126c-1.506,2.109-3.028,4.203-4.709,6.182c-0.789,0.931,1.058,1.205,1.611,0.551
			c1.68-1.979,3.203-4.071,4.709-6.181C83.386,6.679,81.565,6.421,81.062,7.126L81.062,7.126z"/>
	</g>
</g>
<g>
	<g>
		<path fill="#FFFFFF" d="M85.694,10.387c-1.486,1.763-3.109,3.404-4.873,4.89c-0.791,0.666,1.133,0.453,1.502,0.142
			c1.855-1.562,3.574-3.262,5.137-5.115C87.909,9.768,86.021,9.999,85.694,10.387L85.694,10.387z"/>
	</g>
</g>
<g>
	<g>
		<path fill="#FFFFFF" d="M95.542,13.827c-2.547,1.6-5.037,3.295-7.195,5.404c-0.44,0.431,1.412,0.221,1.758-0.116
			c2.076-2.03,4.478-3.65,6.929-5.19C97.862,13.405,95.911,13.596,95.542,13.827L95.542,13.827z"/>
	</g>
</g>
<g>
	<g>
		<path fill="#FFFFFF" d="M100.276,17.731c-2.473,1.237-4.922,2.501-7.275,3.954c-1.113,0.687,0.494,1.347,1.277,0.862
			c2.211-1.364,4.525-2.536,6.848-3.698C102.308,18.258,101.247,17.245,100.276,17.731L100.276,17.731z"/>
	</g>
</g>
<g>
	<g>
		<path fill="#FFFFFF" d="M108.753,23.177c-3.818,0.653-7.543,1.585-11.139,3.035c-1.225,0.494-0.146,1.638,0.879,1.226
			c3.426-1.382,7.004-2.227,10.639-2.85C110.368,24.376,109.958,22.969,108.753,23.177L108.753,23.177z"/>
	</g>
</g>
<g>
	<g>
		<path fill="#FFFFFF" d="M112.896,28.559c-3.348,0.626-6.658,1.435-10.006,2.06c-1.219,0.229-0.854,1.46,0.332,1.239
			c3.348-0.625,6.658-1.435,10.006-2.061C114.444,29.571,114.083,28.338,112.896,28.559L112.896,28.559z"/>
	</g>
</g>
<g>
	<g>
		<path fill="#FFFFFF" d="M114.097,34.316c-1.678,0.279-3.35,0.545-5.055,0.565c-0.424,0.006-1,0.156-1.283,0.498
			c-0.291,0.353,0.248,0.459,0.494,0.456c1.865-0.022,3.701-0.304,5.537-0.608c0.344-0.058,0.982-0.209,1.113-0.599
			C115.034,34.24,114.274,34.286,114.097,34.316L114.097,34.316z"/>
	</g>
</g>
<g>
	<g>
		<path fill="#FFFFFF" d="M24.984,75.488c-0.326,1.525-0.894,2.969-1.471,4.414c-0.174,0.436,0.63,0.504,0.852,0.479
			c0.448-0.049,0.913-0.258,1.087-0.692c0.577-1.445,1.145-2.892,1.471-4.414C27.095,74.47,25.137,74.769,24.984,75.488
			L24.984,75.488z"/>
	</g>
</g>
<g>
	<g>
		<path fill="#FFFFFF" d="M28.52,78.289c-0.001,1.572-0.021,3.115-0.579,4.607c-0.163,0.434,1.715,0.213,1.912-0.314
			c0.581-1.553,0.598-3.174,0.599-4.811C30.452,77.381,28.52,77.681,28.52,78.289L28.52,78.289z"/>
	</g>
</g>
<g>
	<g>
		<path fill="#FFFFFF" d="M35.883,80.238c-0.336,1.479-0.282,3.041-0.007,4.525c0.098,0.526,2.041,0.067,1.932-0.519
			c-0.262-1.416-0.328-2.893-0.007-4.303C37.933,79.365,36.01,79.679,35.883,80.238L35.883,80.238z"/>
	</g>
</g>
<g>
	<g>
		<path fill="#FFFFFF" d="M44.404,80.478c-0.269,2.028-0.304,4.076,0.301,6.051c0.244,0.797,2.172,0.266,1.932-0.518
			c-0.576-1.88-0.543-3.791-0.288-5.724C46.468,79.394,44.506,79.705,44.404,80.478L44.404,80.478z"/>
	</g>
</g>
<g>
	<g>
		<path fill="#FFFFFF" d="M50.288,81.064c-0.613,1.785,0.032,3.75,0.597,5.465c0.268,0.813,2.193,0.275,1.932-0.518
			c-0.535-1.627-1.161-3.437-0.58-5.13C52.514,80.074,50.548,80.306,50.288,81.064L50.288,81.064z"/>
	</g>
</g>
<g>
	<g>
		<path fill="#FFFFFF" d="M54.416,81.232c0.315,2.051,0.959,3.979,1.766,5.885c0.215,0.51,2.101-0.117,1.932-0.518
			c-0.806-1.906-1.45-3.834-1.766-5.886C56.28,80.271,54.333,80.697,54.416,81.232L54.416,81.232z"/>
	</g>
</g>
<g>
	<g>
		<path fill="#FFFFFF" d="M59.125,80.349c0.064,2.61,1.196,5.246,3.297,6.854c0.461,0.354,2.185-0.404,1.812-0.688
			c-2.055-1.572-3.113-4.134-3.178-6.683C61.046,79.406,59.109,79.734,59.125,80.349L59.125,80.349z"/>
	</g>
</g>
<g>
	<g>
		<path fill="#FFFFFF" d="M66.204,78.799c-0.543,2.644,0.916,5.06,2.98,6.613c0.407,0.31,2.051-0.469,1.823-0.639
			c-1.938-1.461-3.42-3.83-2.903-6.334C68.181,78.066,66.294,78.355,66.204,78.799L66.204,78.799z"/>
	</g>
</g>
<g>
	<g>
		<path fill="#FFFFFF" d="M74.134,75.64c0.92,2.409,2.086,4.713,3.891,6.586c0.449,0.463,2.279-0.244,1.8-0.74
			c-1.75-1.814-2.865-4.029-3.759-6.363C75.819,74.478,73.911,75.056,74.134,75.64L74.134,75.64z"/>
	</g>
</g>
<g>
	<g>
		<path fill="#FFFFFF" d="M80.089,75.469c1.893,1.934,3.402,4.256,5.592,5.887c0.562,0.416,2.34-0.357,1.791-0.765
			c-2.188-1.631-3.697-3.952-5.592-5.887C81.396,74.209,79.562,74.931,80.089,75.469L80.089,75.469z"/>
	</g>
</g>
<g>
	<g>
		<path fill="#FFFFFF" d="M85.976,72.826c1.607,1.855,3.738,3.109,5.724,4.512c0.549,0.39,2.323-0.405,1.526-0.971
			c-1.899-1.344-3.924-2.539-5.461-4.315C87.298,71.513,85.448,72.219,85.976,72.826L85.976,72.826z"/>
	</g>
</g>
<g>
	<g>
		<path fill="#FFFFFF" d="M90.538,70.045c2.113,1.228,4.127,2.623,6.365,3.621c0.787,0.353,2.24-0.778,1.121-1.276
			c-2.107-0.941-4.002-2.287-5.992-3.441C91.317,68.533,89.61,69.506,90.538,70.045L90.538,70.045z"/>
	</g>
</g>
<g>
	<g>
		<path fill="#FFFFFF" d="M96.577,64.023c1.664,1.57,3.756,2.236,5.912,2.854c0.773,0.224,2.285-0.907,1.133-1.237
			c-1.875-0.535-3.816-1.07-5.27-2.441C97.753,62.633,95.927,63.41,96.577,64.023L96.577,64.023z"/>
	</g>
</g>
<g>
	<g>
		<path fill="#FFFFFF" d="M100.349,60.125c2.816,0.092,5.324,1.365,8.021,2.021c0.734,0.178,2.289-0.914,1.145-1.191
			c-2.848-0.692-5.486-2.002-8.461-2.1C100.21,58.828,99.04,60.082,100.349,60.125L100.349,60.125z"/>
	</g>
</g>
<g>
	<g>
		<path fill="#FFFFFF" d="M103.854,55.906c2.287,0,4.571,0.01,6.848,0.273c0.471,0.055,0.998-0.048,1.365-0.367
			c0.287-0.248,0.236-0.615-0.178-0.662c-2.421-0.281-4.845-0.314-7.277-0.316C103.905,54.834,102.55,55.906,103.854,55.906
			L103.854,55.906z"/>
	</g>
</g>
<g>
	<g>
		<path fill="#FFFFFF" d="M106.187,49.818c2.463-0.254,4.931-0.291,7.404-0.291c0.455,0,1.021-0.127,1.266-0.563
			c0.222-0.395-0.188-0.7-0.559-0.7c-2.639,0.002-5.271,0.026-7.898,0.297C105.384,48.666,104.858,49.955,106.187,49.818
			L106.187,49.818z"/>
	</g>
</g>
<g>
	<g>
		<path fill="#FFFFFF" d="M107.806,44.705c2.82-1.165,5.932-1.354,8.902-1.922c0.768-0.146,1.713-0.98,0.357-0.723
			c-3.328,0.634-6.771,0.892-9.931,2.196C105.866,44.782,107.071,45.009,107.806,44.705L107.806,44.705z"/>
	</g>
</g>
<g>
	<g>
		<path fill="#FFFFFF" d="M107.167,39.287c0.857,0.853,3.107,0.219,4.109,0.077c2.039-0.29,4.057-0.699,6.086-1.045
			c0.973-0.166,1.549-1.438,0.227-1.212c-1.475,0.251-2.941,0.534-4.416,0.782c-0.816,0.137-1.633,0.261-2.453,0.371
			c-0.313,0.042-1.787,0.213-1.77,0.231C108.413,37.958,106.579,38.704,107.167,39.287L107.167,39.287z"/>
	</g>
</g>
</svg>
