<?xml version="1.0" encoding="utf-8"?>
<!-- Generator: Adobe Illustrator 15.1.0, SVG Export Plug-In . SVG Version: 6.00 Build 0)  -->
<!DOCTYPE svg PUBLIC "-//W3C//DTD SVG 1.1//EN" "http://www.w3.org/Graphics/SVG/1.1/DTD/svg11.dtd">
<svg version="1.1" id="Ebene_1" xmlns="http://www.w3.org/2000/svg" xmlns:xlink="http://www.w3.org/1999/xlink" x="0px" y="0px"
	 width="119.619px" height="88.773px" viewBox="0 0 119.619 88.773" enable-background="new 0 0 119.619 88.773"
	 xml:space="preserve">
<g id="Ebene_3">
</g>
<g id="Ebene_1_1_">
	<g>
		<path fill="#096D52" d="M217.888,553.558c-2.354,25.015-0.137,31.559,25.863,40.559c21,7,45,8,64-7c10-7,15-14,19-26
			c5-14,5-16-4-26c-22-24-73.152-29.173-91-10C221.712,535.901,218.896,542.833,217.888,553.558z"/>
	</g>
	<g>
		<path fill="#1DAC84" d="M272.33,521.482c-5,0-13.578,1.635-19.578,3.635c-20,6-37,37-23,53c30,35,121-5,79-44
			C300.751,526.116,272.33,521.482,272.33,521.482z"/>
	</g>
	<g>
		<g>
			<path fill="#FFFFFF" d="M262.34,568.776c-0.319,0.256-0.368,0.712-0.144,1.367c0.224,0.655,0.08,1.11-0.434,1.367
				c0.063,0.77-0.385,1.575-1.345,2.425c-0.96,0.848-1.812,1.271-2.544,1.271c-0.576,0-1.376-0.416-2.398-1.248
				c-1.023-0.83-1.744-1.246-2.16-1.246c-0.514,0-0.961,0.434-1.344,1.297c0.096,0.189,0.145,0.365,0.145,0.525
				c0,0.354-0.208,0.703-0.624,1.059c-0.608,0.545-0.912,0.849-0.912,0.911c-0.226-0.063-0.464-0.03-0.72,0.098
				c-0.354,0.128-0.594,0.188-0.721,0.188c-0.098,0-0.178-0.017-0.24-0.048c-0.643-0.641-0.959-1.376-0.959-2.208
				c0-0.189,0.031-0.366,0.096-0.525c0.096-0.354,0.384-0.544,0.863-0.575c0.353,0,0.721,0.016,1.104,0.049
				c0.416-1.188,0.624-2.708,0.624-4.565c0-0.354,0-1.313,0-2.886c-0.032-1.151-0.024-2.083,0.024-2.788
				c0.078-0.063,0.119-0.158,0.119-0.288c0-0.063-0.031-0.189-0.098-0.385c-0.063-0.19-0.08-0.337-0.048-0.434
				c0.031-0.386,0.08-0.979,0.146-1.778c-0.019-0.705-0.023-1.764-0.023-3.173c-0.208-0.255-0.232-0.633-0.072-1.128
				c0.16-0.497,0.145-0.857-0.048-1.083c0.097-0.159,0.146-0.416,0.146-0.771c0-0.288,0-0.593,0-0.913c0-0.188,0-0.396,0-0.625
				c0-0.225,0.039-0.564,0.119-1.031s0.119-0.824,0.119-1.083c0-0.189-0.041-0.438-0.119-0.742c-0.08-0.308-0.119-0.536-0.119-0.697
				c0-0.16,0.039-0.368,0.119-0.624c0.08-0.257,0.119-0.436,0.119-0.53c0-0.158-0.08-0.304-0.238-0.432
				c0.254-0.16,0.385-0.32,0.385-0.479c0-0.13-0.112-0.347-0.338-0.646c-0.225-0.307-0.286-0.568-0.19-0.793l1.345-0.577
				c-0.257-0.226-0.479-0.785-0.673-1.685c-0.19-0.734-0.526-1.188-1.008-1.348c-0.032-0.096-0.048-0.176-0.048-0.239
				c0-0.189,0.134-0.416,0.398-0.674c0.27-0.257,0.416-0.417,0.448-0.479c0.157-0.031,0.282-0.05,0.376-0.05
				c0.565,0,0.95,0.497,1.154,1.486c0.204,0.992,0.4,1.488,0.59,1.488c0.219,0,0.533-0.225,0.941-0.672
				c-0.063,0.447,0.016,0.734,0.234,0.862c0.407-0.802,1.006-1.199,1.79-1.199c0.69,0,1.366,0.279,2.025,0.841
				c0.659,0.561,1.131,1.248,1.414,2.063c0.282,0.814,0.563,1.625,0.848,2.425c-0.063,3.842-1.582,6.497-4.562,7.97
				c0.502-0.063,1.005,0.159,1.506,0.672c0.406,0.416,0.813,0.832,1.222,1.248c0.031,0.384,0.347,0.912,0.938,1.584
				c0.597,0.672,0.895,1.216,0.895,1.632c0,0.226-0.031,0.448-0.096,0.672C261.685,562.007,262.34,564.392,262.34,568.776z
				 M260.372,568.776c0.031-0.225,0.048-0.464,0.048-0.721c0-0.319-0.041-0.815-0.12-1.487c-0.08-0.672-0.119-1.185-0.119-1.536
				c0-0.479,0.063-0.88,0.191-1.2c-0.833-1.472-2.24-3.584-4.225-6.336c-0.705,0.386-1.823,0.832-3.359,1.346
				c0,0.896-0.176,2.19-0.527,3.89c0.318,0.479,0.353,1.393,0.096,2.734c-0.258,1.15-0.111,1.891,0.434,2.208l0.288-0.287
				c0.573,0.226,0.862,0.545,0.862,0.96c0,0.189-0.096,0.525-0.289,1.009c-0.189,0.479-0.285,0.833-0.285,1.057l4.512,3.602
				c0.225,0,0.463,0,0.721,0c0.319,0,0.545-0.097,0.672-0.287l-0.287-0.238c0.99-1.186,1.488-2.479,1.488-3.891
				C260.468,569.302,260.435,569.031,260.372,568.776z M258.403,546.165c-0.416-0.988-1.088-1.485-2.016-1.485
				c-0.13,0-0.306,0-0.527,0c-0.227,0-0.4,0-0.528,0c-0.672,0-1.138-0.238-1.394-0.723l0.527,0.816
				c-0.863,0.606-1.438,1.567-1.728,2.88c-0.161,1.151-0.32,2.32-0.48,3.504c0.226,0.515,0.319,1.232,0.288,2.16
				c-0.031,1.248-0.048,1.984-0.048,2.208l-0.24,0.575c0.192,0,0.4-0.02,0.624-0.048c0.258,0.03,0.416,0.145,0.479,0.336
				c0.353-0.227,0.912-0.831,1.681-1.823c0.672-0.832,1.327-1.328,1.968-1.488c1.28-1.76,1.922-3.277,1.922-4.561
				C258.933,547.783,258.756,546.998,258.403,546.165z"/>
			<path fill="#FFFFFF" d="M274.292,573.816c-0.256,0.446-0.656,0.751-1.2,0.911s-1.088,0.318-1.632,0.479
				c-0.128-0.257-0.408-0.494-0.84-0.72c-0.434-0.225-0.712-0.449-0.84-0.672c0.029-0.063,0.136-0.227,0.312-0.479
				c0.175-0.259,0.265-0.445,0.265-0.575c0-0.158-0.096-0.287-0.289-0.387c-0.127,0.064-0.782,0.416-1.967,1.06
				c-0.801,0.447-1.457,0.672-1.969,0.672c-0.576,0-1.136-0.19-1.68-0.575c-0.992-0.704-1.488-1.472-1.488-2.305
				c0-1.375,1.439-2.943,4.32-4.704c0.224,0,0.605,0.089,1.15,0.265c0.545,0.179,0.961,0.267,1.248,0.267
				c0.354,0,0.674-0.079,0.961-0.239c-0.098-0.319-0.146-0.688-0.146-1.104c0-0.354,0.04-0.896,0.12-1.634
				c0.08-0.733,0.119-1.276,0.119-1.632c0-1.504-0.688-2.398-2.063-2.688c-0.702,0.158-1.407,0.306-2.11,0.433
				c-0.832,0.161-1.439,0.497-1.823,1.009c0.19,0.19,0.288,0.416,0.288,0.672c0,0.227-0.094,0.544-0.277,0.96
				c-0.186,0.416-0.294,0.704-0.327,0.864l-0.302,0.287c-0.705-0.225-1.091-0.641-1.158-1.248c0-0.605,0-1.215,0-1.823
				c1.357-1.407,3.152-2.353,5.383-2.832l0.582,0.576c1.325,0.256,2.068,0.416,2.23,0.479c0.679,0.317,1.064,0.911,1.164,1.773
				c0.063,0.479,0.029,1.187-0.098,2.111c-0.127,1.021-0.19,1.729-0.19,2.111c0,0.642,0.096,1.197,0.288,1.681
				c-0.608,0.575-0.912,1.438-0.912,2.593c0,0.416,0.111,1.408,0.336,2.979c0.063-0.576,0.72-0.851,1.968-0.815
				C274.196,572.135,274.388,572.887,274.292,573.816z M268.963,569.879c-0.417-0.802-0.912-1.199-1.487-1.199
				c-0.129,0-0.289,0.018-0.479,0.049c-0.416,0.448-0.85,0.881-1.296,1.297c-0.449,0.512-0.771,1.022-0.96,1.535
				c0.224,0,0.424,0.097,0.6,0.287c0.176,0.189,0.344,0.367,0.506,0.525c0.702-0.256,1.414-0.552,2.135-0.888
				C268.7,571.152,269.024,570.615,268.963,569.879z"/>
			<path fill="#FFFFFF" d="M282.931,573.742c-0.224,0.563-0.72,1.178-1.488,1.851c-1.118,0.96-1.728,1.521-1.821,1.682
				c-2.784-0.896-4.24-2.604-4.368-5.123c0.16-0.127,0.24-0.271,0.24-0.433c0-0.157-0.098-0.374-0.288-0.646
				c-0.19-0.271-0.306-0.455-0.336-0.551c0.606-0.989,0.909-2.396,0.909-4.213c0-0.191,0-0.487,0-0.888c0-0.397,0-0.711,0-0.936
				c0-2.647,0.963-4.452,2.883-5.41c0.128,0,0.344-0.056,0.646-0.167c0.303-0.11,0.521-0.168,0.647-0.168
				c0.288,0,0.511,0.175,0.672,0.522l-0.288,0.284c0.512,0.188,0.992,0.636,1.439,1.331s0.673,1.349,0.673,1.946
				c0,0.317-0.063,0.587-0.192,0.813c-0.384,0.027-0.752,0.048-1.104,0.048c-0.448,0-0.752-0.174-0.912-0.521
				c0.191-0.126,0.279-0.397,0.264-0.825c-0.017-0.426,0.057-0.697,0.217-0.823c-0.228-0.536-0.504-0.808-0.828-0.808
				c-0.192,0-0.519,0.151-0.973,0.454c-0.455,0.306-0.795,0.475-1.021,0.503c-0.52,0.513-0.776,1.185-0.776,2.013
				c0,0.352,0.072,0.906,0.216,1.675c0.145,0.767,0.217,1.341,0.217,1.724c0,0.51-0.097,0.957-0.287,1.339
				c-0.514,0.101-0.77,0.319-0.77,0.67c0,0.128,0.063,0.367,0.191,0.721c0.127,0.352,0.19,0.62,0.19,0.813
				c0,0.255-0.096,0.463-0.288,0.622l0.288,0.286l-0.239,0.287c0.354,0.128,0.561,0.479,0.623,1.054
				c0.063,0.733,0.176,1.195,0.336,1.389c0.192,0.285,0.399,0.64,0.625,1.054c0.127,0.188,0.239,0.285,0.336,0.285
				c0.127,0,0.496-0.097,1.104-0.287c0.097-0.158,0.358-0.398,0.792-0.722c0.434-0.316,0.646-0.604,0.646-0.862
				c0-0.129-0.049-0.286-0.145-0.479c-0.256-0.479-0.384-0.771-0.384-0.863c-0.032-0.129,0.063-0.465,0.288-1.009l0.191-0.384
				c0.127-0.354,0.254-0.528,0.385-0.528c0.063,0,0.238,0.139,0.527,0.408c0.286,0.271,0.574,0.376,0.862,0.313
				c0.288,0.16,0.433,0.496,0.433,1.01C283.267,572.661,283.155,573.183,282.931,573.742z"/>
			<path fill="#FFFFFF" d="M293.54,571.702c0.031,0.228,0.048,0.448,0.048,0.672c0,0.771-0.254,1.456-0.761,2.064
				c-0.508,0.605-1.11,0.911-1.809,0.911c-0.381,0-0.746-0.097-1.096-0.287c-1.078-0.576-1.615-2.226-1.615-4.944
				c0-0.8-0.393-1.773-1.172-2.928l-0.281,3.119c-0.029,0.513-0.17,1.169-0.42,1.969c-0.063,0.16-0.096,0.368-0.096,0.624
				c0,0.127,0,0.306,0,0.527c0,0.19,0,0.353,0,0.479c0,0.643-0.275,0.96-0.831,0.96c-0.163,0-0.392-0.029-0.685-0.096
				c-0.1,0.063-0.196,0.096-0.293,0.096c-0.164,0-0.313-0.128-0.44-0.384c-0.228-0.317-0.356-0.497-0.391-0.526
				c0.96-1.089,1.438-2.03,1.438-2.831c0-0.386-0.111-0.751-0.336-1.104c0.317-1.15,0.547-2.576,0.689-4.271
				c0.105-1.439,0.212-2.881,0.316-4.32c0.162-0.99,0.34-2.495,0.527-4.512c0-0.063,0-1.584,0-4.563
				c0.032-1.792,0.176-3.296,0.434-4.514c-0.258-0.256-0.313-0.631-0.168-1.128c0.145-0.495,0.104-0.871-0.119-1.128l-1.683-0.526
				c-0.127-0.77,0.24-1.15,1.104-1.15c0.416,0,0.703,0.189,0.861,0.574l0.289-0.288c0.77,0.896,1.151,1.744,1.151,2.544
				c0,0.387-0.144,1.019-0.433,1.896c-0.287,0.882-0.433,1.642-0.433,2.28c0,0.733,0.05,1.849,0.146,3.336s0.145,2.633,0.145,3.434
				c0.031,0.063,0.047,0.146,0.047,0.238c0,0.161-0.096,0.368-0.287,0.624c-0.19,0.258-0.306,0.434-0.336,0.528
				c0.127,0.189,0.336,0.286,0.623,0.286c0.543,0,0.801,0,0.771,0c0.256-0.479,0.663-0.801,1.225-0.961
				c0.562-0.157,1.097-0.304,1.606-0.433c0.929,0.319,1.486,1.151,1.681,2.495c0.16,1.218-0.417,2.386-1.729,3.505
				c-1.313,1.12-1.969,1.938-1.969,2.447c0,0.189,0.088,0.434,0.266,0.721c0.177,0.287,0.296,0.496,0.359,0.624
				c-0.162,0.16-0.24,0.4-0.24,0.721c0,0.063,0,0.17,0,0.313c0,0.146,0,0.248,0,0.313c0,0.448-0.305,0.656-0.91,0.624
				c0.479,0.16,0.88,0.704,1.199,1.635c0.318,1.056,0.672,1.728,1.057,2.016c0.189-0.479,0.367-0.96,0.527-1.438
				c0.256-0.606,0.561-0.911,0.91-0.911C292.754,571.031,293.123,571.255,293.54,571.702z M291.283,560.471
				c-0.253-0.128-0.505-0.191-0.759-0.191c-0.379,0-0.854,0.256-1.42,0.771c-0.567,0.514-1.043,0.783-1.422,0.813
				c0.191,0.128,0.289,0.288,0.289,0.479c0,0.13-0.05,0.317-0.146,0.575c-0.099,0.258-0.146,0.465-0.146,0.624
				c0,0.098,0.016,0.19,0.045,0.288c0.248,0.227,0.496,0.336,0.746,0.336c0.312,0,0.682-0.208,1.115-0.624
				c0.559-0.479,0.932-0.751,1.117-0.814l-0.288-0.287c0.031-0.225,0.192-0.536,0.479-0.938
				C291.187,561.104,291.313,560.76,291.283,560.471z"/>
		</g>
	</g>
</g>
<g id="Ebene_2">
	<g>
		<g>
			<path fill="#1DAC84" d="M234.149,583.012c-1.471,1.472-2.941,2.939-4.412,4.414c-0.321,0.317-0.162,0.769,0.24,0.898
				c0.478,0.158,1.021-0.021,1.364-0.364c1.472-1.473,2.943-2.94,4.414-4.414c0.321-0.318,0.162-0.77-0.239-0.899
				C235.042,582.489,234.496,582.667,234.149,583.012L234.149,583.012z"/>
		</g>
	</g>
	<g>
		<g>
			<path fill="#1DAC84" d="M231.647,580.079c-3.222,0.83-5.578,3.097-8.155,5.063c-0.368,0.278,1.388,0.077,1.735-0.188
				c2.02-1.538,4.035-3.707,6.559-4.354C232.911,580.306,232.769,579.79,231.647,580.079L231.647,580.079z"/>
		</g>
	</g>
	<g>
		<g>
			<path fill="#1DAC84" d="M226.101,577.344c-2.025,1.142-4.149,2.098-6.181,3.233c-0.312,0.177-0.537,0.629-0.146,0.852
				c0.432,0.239,0.98,0.063,1.375-0.154c2.029-1.143,4.151-2.098,6.182-3.238c0.311-0.174,0.537-0.627,0.145-0.848
				C227.045,576.946,226.494,577.119,226.101,577.344L226.101,577.344z"/>
		</g>
	</g>
	<g>
		<g>
			<path fill="#1DAC84" d="M225.737,573.466c-2.09-0.825-4.813,0.939-6.725,1.604c-0.123,0.043-0.863,0.374-0.563,0.604
				c0.313,0.237,0.933,0.03,1.252-0.077c0.77-0.271,1.517-0.593,2.271-0.896c0.646-0.261,1.489-0.718,2.188-0.439
				C224.622,574.443,226.377,573.719,225.737,573.466L225.737,573.466z"/>
		</g>
	</g>
	<g>
		<g>
			<path fill="#1DAC84" d="M223.526,566.427c-2.346-0.438-5.356,0.512-7.572,1.224c-1.157,0.372-0.844,1.62,0.333,1.242
				c1.912-0.615,4.532-1.51,6.553-1.132C223.746,567.931,224.815,566.667,223.526,566.427L223.526,566.427z"/>
		</g>
	</g>
	<g>
		<g>
			<path fill="#1DAC84" d="M224.058,560.048c-1.439-0.271-2.875-0.327-4.339-0.327c-0.448,0-1.019,0.133-1.269,0.553
				c-0.232,0.39,0.195,0.661,0.549,0.661c1.311,0,2.609,0.017,3.9,0.26c0.472,0.089,1.016-0.02,1.365-0.365
				C224.55,560.546,224.483,560.126,224.058,560.048L224.058,560.048z"/>
		</g>
	</g>
	<g>
		<g>
			<path fill="#1DAC84" d="M225.651,551.66c-3.047,0.323-6.17,0.003-9.209-0.293c-0.451-0.045-2.234,0.75-1.234,0.851
				c3.175,0.311,6.439,0.635,9.626,0.295C225.374,552.453,226.927,551.526,225.651,551.66L225.651,551.66z"/>
		</g>
	</g>
	<g>
		<g>
			<path fill="#1DAC84" d="M229.345,546.771c-2.541-0.629-5.096-1.197-7.65-1.768c-0.754-0.167-2.291,0.958-1.139,1.216
				c2.555,0.564,5.109,1.136,7.65,1.767C228.96,548.172,230.497,547.057,229.345,546.771L229.345,546.771z"/>
		</g>
	</g>
	<g>
		<g>
			<path fill="#1DAC84" d="M230.16,541.716c-2.468-0.332-4.464-1.623-6.063-3.488c-0.302-0.354-2.101,0.324-1.822,0.646
				c1.654,1.932,3.758,3.229,6.295,3.572c0.449,0.063,0.94-0.063,1.351-0.253C230.039,542.137,230.606,541.776,230.16,541.716
				L230.16,541.716z"/>
		</g>
	</g>
	<g>
		<g>
			<path fill="#1DAC84" d="M234.156,539.469c-0.058-0.414-0.378-0.728-0.659-1.011c-0.494-0.495-2.326,0.229-1.791,0.771
				c0.223,0.225,0.475,0.431,0.518,0.758C232.315,540.664,234.258,540.218,234.156,539.469L234.156,539.469z"/>
		</g>
	</g>
	<g>
		<g>
			<path fill="#1DAC84" d="M237.024,534.632c-2.142-3.034-4.401-5.977-6.106-9.289c-0.358-0.694-2.239-0.079-1.933,0.519
				c1.75,3.403,4.053,6.428,6.252,9.545C235.64,535.972,237.506,535.31,237.024,534.632L237.024,534.632z"/>
		</g>
	</g>
	<g>
		<g>
			<path fill="#1DAC84" d="M236.644,522.214c-0.736,1.651,0.594,3.734,1.394,5.115c1.046,1.812,2.317,3.51,3.667,5.103
				c0.369,0.436,2.21-0.231,1.807-0.709c-1.305-1.543-2.494-3.183-3.542-4.907c-0.765-1.264-2.084-3.367-1.403-4.89
				C238.772,521.453,236.894,521.656,236.644,522.214L236.644,522.214z"/>
		</g>
	</g>
	<g>
		<g>
			<path fill="#1DAC84" d="M226.024,533.143c-0.955,0.999-1.758-0.067-0.996,0.515c0.293,0.227,0.563,0.479,0.837,0.728
				c0.751,0.684,1.47,1.398,2.194,2.108c1.203,1.183,2.389,2.457,3.774,3.428c0.554,0.387,2.328-0.413,1.526-0.975
				c-1.887-1.313-3.447-3.188-5.104-4.771c-0.859-0.823-2.513-2.744-3.798-1.4C223.664,533.61,225.554,533.635,226.024,533.143
				L226.024,533.143z"/>
		</g>
	</g>
	<g>
		<g>
			<path fill="#1DAC84" d="M241.642,517.619c0.354,3.16,1.262,6.212,3.315,8.692c0.537,0.646,2.379-0.104,1.772-0.834
				c-1.986-2.399-2.817-5.327-3.157-8.376C243.478,516.257,241.541,516.724,241.642,517.619L241.642,517.619z"/>
		</g>
	</g>
	<g>
		<g>
			<path fill="#1DAC84" d="M249.292,516.149c1.364,2.896,1.755,6.014,2.354,9.123c0.139,0.704,2.076,0.224,1.935-0.52
				c-0.601-3.107-0.99-6.229-2.354-9.122C250.894,514.932,249.002,515.533,249.292,516.149L249.292,516.149z"/>
		</g>
	</g>
	<g>
		<g>
			<path fill="#1DAC84" d="M256.647,515.266c0.521,2.726,0.068,5.513,0.59,8.239c0.15,0.798,2.089,0.311,1.932-0.521
				c-0.52-2.727-0.068-5.513-0.588-8.24C258.431,513.949,256.492,514.439,256.647,515.266L256.647,515.266z"/>
		</g>
	</g>
	<g>
		<g>
			<path fill="#1DAC84" d="M263.71,515.414c-0.305,1.854-0.566,3.712-0.588,5.595c-0.01,0.835,1.927,0.436,1.936-0.229
				c0.021-1.88,0.283-3.739,0.588-5.592C265.772,514.4,263.823,514.732,263.71,515.414L263.71,515.414z"/>
		</g>
	</g>
	<g>
		<g>
			<path fill="#1DAC84" d="M274.907,514.289c-0.891,2.322-1.979,4.583-2.354,7.063c-0.074,0.488,1.836,0.14,1.905-0.334
				c0.375-2.479,1.464-4.739,2.354-7.063C276.956,513.587,275.101,513.786,274.907,514.289L274.907,514.289z"/>
		</g>
	</g>
	<g>
		<g>
			<path fill="#1DAC84" d="M281.09,515.477c-1.901,2.526-3.978,5.096-4.708,8.239c-0.089,0.387,1.795,0.105,1.902-0.354
				c0.73-3.146,2.807-5.713,4.708-8.24C283.099,514.985,281.429,515.028,281.09,515.477L281.09,515.477z"/>
		</g>
	</g>
	<g>
		<g>
			<path fill="#1DAC84" d="M286.681,517.236c-1.185,2.042-2.541,3.969-4.043,5.788c-0.393,0.479,1.457,0.212,1.75-0.144
				c1.555-1.888,2.973-3.868,4.198-5.982C288.729,516.645,286.959,516.751,286.681,517.236L286.681,517.236z"/>
		</g>
	</g>
	<g>
		<g>
			<path fill="#1DAC84" d="M293.89,518.557c-1.507,2.105-3.029,4.202-4.709,6.181c-0.791,0.934,1.06,1.204,1.611,0.552
				c1.68-1.979,3.202-4.069,4.709-6.182C296.213,518.11,294.394,517.851,293.89,518.557L293.89,518.557z"/>
		</g>
	</g>
	<g>
		<g>
			<path fill="#1DAC84" d="M298.521,521.818c-1.483,1.764-3.106,3.403-4.871,4.89c-0.791,0.666,1.135,0.453,1.502,0.146
				c1.854-1.563,3.572-3.263,5.137-5.116C300.737,521.198,298.849,521.43,298.521,521.818L298.521,521.818z"/>
		</g>
	</g>
	<g>
		<g>
			<path fill="#1DAC84" d="M308.37,525.259c-2.547,1.601-5.038,3.296-7.196,5.4c-0.44,0.434,1.412,0.225,1.757-0.113
				c2.078-2.028,4.479-3.648,6.93-5.188C310.688,524.833,308.737,525.027,308.37,525.259L308.37,525.259z"/>
		</g>
	</g>
	<g>
		<g>
			<path fill="#1DAC84" d="M313.103,529.16c-2.472,1.237-4.922,2.502-7.273,3.954c-1.113,0.688,0.493,1.349,1.273,0.863
				c2.213-1.364,4.527-2.536,6.853-3.698C315.136,529.689,314.075,528.677,313.103,529.16L313.103,529.16z"/>
		</g>
	</g>
	<g>
		<g>
			<path fill="#1DAC84" d="M321.579,534.607c-3.816,0.653-7.541,1.586-11.139,3.036c-1.226,0.492-0.146,1.638,0.879,1.225
				c3.427-1.382,7.006-2.227,10.639-2.849C323.192,535.807,322.784,534.401,321.579,534.607L321.579,534.607z"/>
		</g>
	</g>
	<g>
		<g>
			<path fill="#1DAC84" d="M325.724,539.99c-3.348,0.626-6.658,1.438-10.006,2.063c-1.218,0.228-0.854,1.46,0.332,1.235
				c3.348-0.625,6.659-1.434,10.006-2.06C327.271,540.999,326.911,539.769,325.724,539.99L325.724,539.99z"/>
		</g>
	</g>
	<g>
		<g>
			<path fill="#1DAC84" d="M326.925,545.744c-1.678,0.278-3.35,0.545-5.055,0.566c-0.426,0.005-1,0.155-1.283,0.498
				c-0.292,0.351,0.248,0.458,0.492,0.455c1.865-0.023,3.703-0.308,5.539-0.609c0.343-0.057,0.982-0.209,1.111-0.599
				C327.862,545.671,327.103,545.718,326.925,545.744L326.925,545.744z"/>
		</g>
	</g>
	<g>
		<g>
			<path fill="#1DAC84" d="M237.812,586.917c-0.326,1.524-0.895,2.972-1.472,4.413c-0.174,0.438,0.63,0.507,0.853,0.48
				c0.447-0.05,0.912-0.259,1.089-0.693c0.575-1.441,1.146-2.89,1.471-4.414C239.923,585.902,237.965,586.199,237.812,586.917
				L237.812,586.917z"/>
		</g>
	</g>
	<g>
		<g>
			<path fill="#1DAC84" d="M241.347,589.719c0,1.57-0.021,3.113-0.578,4.604c-0.164,0.438,1.715,0.214,1.912-0.313
				c0.58-1.555,0.598-3.174,0.598-4.813C243.278,588.811,241.347,589.113,241.347,589.719L241.347,589.719z"/>
		</g>
	</g>
	<g>
		<g>
			<path fill="#1DAC84" d="M248.71,591.667c-0.336,1.479-0.281,3.041-0.007,4.524c0.098,0.528,2.041,0.068,1.932-0.519
				c-0.262-1.415-0.327-2.895-0.007-4.306C250.76,590.796,248.837,591.111,248.71,591.667L248.71,591.667z"/>
		</g>
	</g>
	<g>
		<g>
			<path fill="#1DAC84" d="M257.229,591.908c-0.271,2.029-0.305,4.075,0.303,6.05c0.242,0.801,2.172,0.27,1.932-0.518
				c-0.576-1.879-0.543-3.79-0.287-5.723C259.295,590.824,257.333,591.135,257.229,591.908L257.229,591.908z"/>
		</g>
	</g>
	<g>
		<g>
			<path fill="#1DAC84" d="M263.116,592.493c-0.612,1.785,0.031,3.751,0.597,5.465c0.269,0.813,2.192,0.275,1.933-0.518
				c-0.535-1.626-1.162-3.438-0.58-5.129C265.341,591.504,263.375,591.738,263.116,592.493L263.116,592.493z"/>
		</g>
	</g>
	<g>
		<g>
			<path fill="#1DAC84" d="M267.244,592.661c0.313,2.055,0.959,3.979,1.766,5.889c0.216,0.51,2.101-0.116,1.933-0.521
				c-0.807-1.907-1.448-3.834-1.767-5.886C269.106,591.7,267.161,592.124,267.244,592.661L267.244,592.661z"/>
		</g>
	</g>
	<g>
		<g>
			<path fill="#1DAC84" d="M271.952,591.78c0.063,2.612,1.195,5.246,3.297,6.854c0.461,0.354,2.186-0.403,1.813-0.688
				c-2.055-1.574-3.112-4.133-3.178-6.684C273.874,590.837,271.937,591.162,271.952,591.78L271.952,591.78z"/>
		</g>
	</g>
	<g>
		<g>
			<path fill="#1DAC84" d="M279.031,590.229c-0.544,2.642,0.917,5.06,2.979,6.613c0.408,0.309,2.052-0.472,1.825-0.642
				c-1.938-1.461-3.42-3.83-2.904-6.335C281.007,589.495,279.122,589.785,279.031,590.229L279.031,590.229z"/>
		</g>
	</g>
	<g>
		<g>
			<path fill="#1DAC84" d="M286.96,587.071c0.921,2.41,2.087,4.714,3.893,6.586c0.447,0.464,2.277-0.243,1.799-0.74
				c-1.75-1.813-2.865-4.024-3.76-6.36C288.646,585.908,286.737,586.488,286.96,587.071L286.96,587.071z"/>
		</g>
	</g>
	<g>
		<g>
			<path fill="#1DAC84" d="M292.916,586.9c1.894,1.936,3.401,4.256,5.592,5.886c0.562,0.417,2.341-0.354,1.792-0.764
				c-2.189-1.63-3.699-3.952-5.592-5.887C294.224,585.64,292.39,586.362,292.916,586.9L292.916,586.9z"/>
		</g>
	</g>
	<g>
		<g>
			<path fill="#1DAC84" d="M298.804,584.257c1.605,1.854,3.737,3.106,5.721,4.514c0.552,0.389,2.324-0.407,1.527-0.973
				c-1.898-1.346-3.923-2.538-5.46-4.314C300.126,582.944,298.274,583.649,298.804,584.257L298.804,584.257z"/>
		</g>
	</g>
	<g>
		<g>
			<path fill="#1DAC84" d="M303.365,581.475c2.114,1.227,4.126,2.623,6.364,3.621c0.787,0.351,2.242-0.778,1.123-1.277
				c-2.107-0.938-4.004-2.286-5.994-3.439C304.144,579.963,302.438,580.937,303.365,581.475L303.365,581.475z"/>
		</g>
	</g>
	<g>
		<g>
			<path fill="#1DAC84" d="M309.403,575.453c1.664,1.569,3.758,2.236,5.914,2.854c0.771,0.221,2.285-0.908,1.133-1.238
				c-1.875-0.536-3.816-1.07-5.271-2.441C310.582,574.063,308.754,574.841,309.403,575.453L309.403,575.453z"/>
		</g>
	</g>
	<g>
		<g>
			<path fill="#1DAC84" d="M313.177,571.556c2.815,0.091,5.323,1.363,8.021,2.021c0.732,0.181,2.291-0.913,1.145-1.188
				c-2.846-0.691-5.484-2.002-8.459-2.102C313.038,570.26,311.867,571.512,313.177,571.556L313.177,571.556z"/>
		</g>
	</g>
	<g>
		<g>
			<path fill="#1DAC84" d="M316.683,567.337c2.287,0,4.572,0.012,6.849,0.271c0.472,0.055,0.995-0.047,1.364-0.366
				c0.285-0.248,0.236-0.615-0.178-0.663c-2.421-0.278-4.844-0.313-7.277-0.313C316.731,566.265,315.376,567.337,316.683,567.337
				L316.683,567.337z"/>
		</g>
	</g>
	<g>
		<g>
			<path fill="#1DAC84" d="M319.015,561.246c2.463-0.254,4.933-0.29,7.404-0.29c0.455,0,1.021-0.127,1.266-0.563
				c0.224-0.396-0.188-0.701-0.559-0.701c-2.639,0.001-5.271,0.025-7.898,0.298C318.209,560.097,317.685,561.385,319.015,561.246
				L319.015,561.246z"/>
		</g>
	</g>
	<g>
		<g>
			<path fill="#1DAC84" d="M320.633,556.135c2.82-1.164,5.931-1.354,8.903-1.923c0.768-0.146,1.711-0.979,0.355-0.725
				c-3.328,0.636-6.771,0.895-9.932,2.197C318.69,556.213,319.897,556.439,320.633,556.135L320.633,556.135z"/>
		</g>
	</g>
	<g>
		<g>
			<path fill="#1DAC84" d="M319.995,550.719c0.855,0.853,3.104,0.22,4.107,0.073c2.039-0.287,4.059-0.694,6.086-1.045
				c0.975-0.164,1.549-1.437,0.228-1.211c-1.474,0.251-2.94,0.533-4.415,0.781c-0.816,0.138-1.633,0.262-2.453,0.371
				c-0.313,0.042-1.788,0.214-1.77,0.23C321.239,549.389,319.407,550.135,319.995,550.719L319.995,550.719z"/>
		</g>
	</g>
</g>
<g id="Ebene_3_1_">
</g>
<g>
	<path fill="#086E52" d="M5.06,42.127C2.706,67.142,4.924,73.685,30.924,82.685c21,7,45,8,64-7c10-7,15-14,19-26c5-14,5-16-4-26
		c-22-24-73.153-29.173-91-10C8.885,24.47,6.069,31.405,5.06,42.127z"/>
</g>
<g>
	<path fill="#1AAB83" d="M59.502,10.052c-5,0-13.578,1.635-19.578,3.635c-20,6-37,37-23,53c30,35,121-5,79-44
		C87.924,14.686,59.502,10.052,59.502,10.052z"/>
</g>
<g>
	<g enable-background="new    ">
		<path fill="#FFFFFF" d="M49.513,57.344c-0.32,0.256-0.368,0.712-0.144,1.367c0.224,0.656,0.08,1.112-0.432,1.368
			c0.064,0.769-0.384,1.576-1.344,2.424s-1.809,1.272-2.544,1.272c-0.576,0-1.376-0.416-2.4-1.248
			c-1.024-0.832-1.744-1.248-2.16-1.248c-0.512,0-0.96,0.432-1.344,1.296c0.096,0.192,0.144,0.368,0.144,0.528
			c0,0.352-0.208,0.703-0.624,1.056c-0.608,0.544-0.912,0.848-0.912,0.912c-0.224-0.064-0.464-0.032-0.72,0.096
			c-0.353,0.128-0.593,0.192-0.72,0.192c-0.096,0-0.176-0.017-0.24-0.048c-0.641-0.641-0.96-1.376-0.96-2.208
			c0-0.192,0.032-0.368,0.096-0.528c0.096-0.353,0.384-0.544,0.864-0.576c0.352,0,0.72,0.016,1.104,0.049
			c0.416-1.186,0.624-2.708,0.624-4.567c0-0.353,0-1.313,0-2.884c-0.032-1.153-0.024-2.083,0.024-2.788
			c0.08-0.063,0.12-0.16,0.12-0.288c0-0.064-0.032-0.193-0.096-0.385c-0.064-0.192-0.08-0.337-0.048-0.433
			c0.031-0.384,0.08-0.978,0.144-1.779c-0.017-0.705-0.024-1.763-0.024-3.173c-0.208-0.255-0.232-0.632-0.072-1.128
			c0.16-0.497,0.144-0.857-0.048-1.083c0.096-0.159,0.144-0.416,0.144-0.769c0-0.288,0-0.593,0-0.913c0-0.192,0-0.4,0-0.625
			s0.04-0.568,0.12-1.033c0.08-0.465,0.12-0.826,0.12-1.083c0-0.191-0.041-0.439-0.12-0.744c-0.08-0.305-0.12-0.536-0.12-0.697
			c0-0.16,0.04-0.368,0.12-0.624c0.08-0.257,0.12-0.434,0.12-0.53c0-0.159-0.08-0.304-0.24-0.432c0.255-0.16,0.384-0.32,0.384-0.48
			c0-0.129-0.112-0.346-0.336-0.649c-0.224-0.305-0.288-0.568-0.192-0.793l1.344-0.577c-0.256-0.224-0.48-0.785-0.672-1.683
			c-0.192-0.736-0.528-1.186-1.008-1.346c-0.032-0.096-0.048-0.176-0.048-0.24c0-0.192,0.134-0.417,0.401-0.673
			c0.267-0.257,0.416-0.417,0.448-0.481c0.157-0.031,0.282-0.048,0.376-0.048c0.565,0,0.95,0.497,1.154,1.488
			c0.204,0.992,0.401,1.488,0.59,1.488c0.219,0,0.533-0.224,0.942-0.672c-0.063,0.448,0.015,0.736,0.235,0.863
			c0.408-0.799,1.005-1.2,1.791-1.2c0.69,0,1.366,0.281,2.025,0.841c0.66,0.56,1.131,1.248,1.414,2.063
			c0.283,0.816,0.565,1.625,0.848,2.424c-0.062,3.841-1.582,6.497-4.56,7.969c0.501-0.064,1.003,0.16,1.504,0.672
			c0.407,0.416,0.814,0.832,1.222,1.248c0.031,0.384,0.345,0.912,0.94,1.584c0.595,0.672,0.893,1.216,0.893,1.632
			c0,0.224-0.032,0.448-0.096,0.672C48.857,50.576,49.513,52.961,49.513,57.344z M47.545,57.344
			c0.032-0.224,0.048-0.464,0.048-0.721c0-0.319-0.041-0.815-0.12-1.487c-0.08-0.672-0.12-1.184-0.12-1.536
			c0-0.48,0.064-0.88,0.192-1.2c-0.833-1.472-2.24-3.584-4.224-6.336c-0.705,0.384-1.824,0.832-3.36,1.344
			c0,0.896-0.176,2.192-0.528,3.888c0.319,0.48,0.352,1.393,0.096,2.736c-0.257,1.152-0.113,1.889,0.432,2.208l0.288-0.288
			c0.576,0.225,0.864,0.545,0.864,0.96c0,0.192-0.096,0.528-0.288,1.008c-0.192,0.48-0.288,0.833-0.288,1.057l4.512,3.6
			c0.223,0,0.463,0,0.72,0c0.32,0,0.544-0.096,0.672-0.288l-0.288-0.239c0.991-1.184,1.488-2.479,1.488-3.889
			C47.641,57.872,47.609,57.6,47.545,57.344z M45.577,34.736c-0.417-0.991-1.088-1.488-2.016-1.488c-0.128,0-0.304,0-0.528,0
			c-0.224,0-0.4,0-0.528,0c-0.672,0-1.137-0.239-1.392-0.72l0.528,0.816c-0.864,0.607-1.44,1.568-1.728,2.88
			c-0.161,1.151-0.32,2.32-0.48,3.504c0.224,0.512,0.319,1.232,0.288,2.16c-0.032,1.248-0.048,1.984-0.048,2.208l-0.24,0.575
			c0.192,0,0.4-0.016,0.624-0.048c0.256,0.032,0.416,0.145,0.48,0.336c0.352-0.223,0.912-0.831,1.68-1.823
			c0.672-0.832,1.327-1.328,1.968-1.488c1.28-1.76,1.92-3.28,1.92-4.561C46.105,36.352,45.929,35.569,45.577,34.736z"/>
		<path fill="#FFFFFF" d="M61.464,62.385c-0.256,0.447-0.656,0.751-1.199,0.911c-0.544,0.16-1.088,0.32-1.632,0.48
			c-0.128-0.257-0.408-0.496-0.84-0.72c-0.432-0.225-0.712-0.449-0.84-0.672c0.031-0.064,0.136-0.225,0.312-0.48
			c0.175-0.257,0.264-0.447,0.264-0.576c0-0.159-0.096-0.288-0.288-0.384c-0.128,0.064-0.785,0.416-1.968,1.056
			c-0.8,0.448-1.457,0.672-1.968,0.672c-0.576,0-1.136-0.191-1.68-0.575c-0.992-0.704-1.488-1.472-1.488-2.305
			c0-1.375,1.44-2.943,4.32-4.704c0.224,0,0.607,0.089,1.152,0.265c0.544,0.176,0.96,0.264,1.248,0.264
			c0.352,0,0.672-0.079,0.96-0.24c-0.096-0.319-0.144-0.688-0.144-1.104c0-0.352,0.04-0.896,0.12-1.632
			c0.08-0.736,0.12-1.279,0.12-1.632c0-1.504-0.688-2.4-2.064-2.688c-0.704,0.16-1.409,0.305-2.112,0.432
			c-0.832,0.161-1.44,0.497-1.824,1.009c0.192,0.191,0.288,0.416,0.288,0.672c0,0.224-0.092,0.544-0.277,0.96
			s-0.294,0.704-0.327,0.864l-0.302,0.287c-0.705-0.223-1.091-0.64-1.158-1.248c0-0.607,0-1.215,0-1.823
			c1.357-1.408,3.152-2.353,5.383-2.832l0.582,0.576c1.325,0.256,2.068,0.416,2.23,0.479c0.679,0.32,1.066,0.912,1.164,1.776
			c0.064,0.479,0.031,1.184-0.096,2.111c-0.128,1.024-0.192,1.729-0.192,2.112c0,0.641,0.096,1.2,0.288,1.68
			c-0.608,0.576-0.912,1.44-0.912,2.593c0,0.416,0.112,1.408,0.336,2.976c0.064-0.576,0.72-0.848,1.968-0.816
			C61.368,60.704,61.561,61.457,61.464,62.385z M56.137,58.448c-0.417-0.8-0.912-1.2-1.488-1.2c-0.128,0-0.288,0.017-0.48,0.048
			c-0.416,0.449-0.848,0.881-1.296,1.297c-0.449,0.512-0.768,1.024-0.96,1.535c0.224,0,0.424,0.097,0.6,0.288
			c0.175,0.192,0.343,0.368,0.504,0.528c0.704-0.256,1.416-0.552,2.136-0.888C55.873,59.72,56.2,59.184,56.137,58.448z"/>
		<path fill="#FFFFFF" d="M70.104,62.312c-0.225,0.56-0.721,1.176-1.488,1.848c-1.121,0.96-1.729,1.52-1.824,1.681
			c-2.783-0.895-4.24-2.602-4.367-5.123c0.159-0.127,0.239-0.271,0.239-0.432c0-0.158-0.096-0.374-0.288-0.646
			c-0.191-0.271-0.304-0.455-0.336-0.551c0.607-0.989,0.912-2.394,0.912-4.213c0-0.191,0-0.487,0-0.886c0-0.399,0-0.71,0-0.934
			c0-2.649,0.96-4.452,2.88-5.41c0.128,0,0.344-0.056,0.648-0.167c0.304-0.112,0.52-0.168,0.647-0.168
			c0.288,0,0.512,0.175,0.672,0.522l-0.287,0.286c0.512,0.19,0.991,0.634,1.439,1.331c0.447,0.697,0.672,1.347,0.672,1.948
			c0,0.317-0.064,0.587-0.191,0.809c-0.385,0.031-0.752,0.048-1.104,0.048c-0.448,0-0.752-0.174-0.912-0.521
			c0.192-0.126,0.28-0.401,0.265-0.826c-0.018-0.425,0.055-0.7,0.215-0.826c-0.227-0.536-0.502-0.804-0.826-0.804
			c-0.195,0-0.52,0.151-0.973,0.454c-0.455,0.304-0.795,0.472-1.021,0.503c-0.52,0.511-0.779,1.181-0.779,2.01
			c0,0.351,0.072,0.909,0.217,1.674c0.144,0.767,0.215,1.341,0.215,1.724c0,0.51-0.096,0.957-0.287,1.339
			c-0.512,0.097-0.768,0.319-0.768,0.67c0,0.128,0.063,0.367,0.191,0.718c0.127,0.351,0.191,0.622,0.191,0.813
			c0,0.255-0.096,0.463-0.287,0.622l0.287,0.286l-0.239,0.287c0.352,0.128,0.56,0.479,0.624,1.054
			c0.063,0.733,0.176,1.195,0.336,1.388c0.191,0.286,0.399,0.637,0.624,1.052c0.128,0.191,0.239,0.287,0.336,0.287
			c0.128,0,0.495-0.096,1.104-0.288c0.096-0.16,0.359-0.4,0.791-0.72c0.433-0.32,0.648-0.608,0.648-0.864
			c0-0.128-0.048-0.288-0.145-0.479c-0.256-0.48-0.383-0.769-0.383-0.864c-0.033-0.128,0.063-0.464,0.287-1.008l0.192-0.384
			c0.128-0.353,0.255-0.528,0.384-0.528c0.064,0,0.24,0.137,0.527,0.408c0.289,0.272,0.576,0.376,0.865,0.312
			c0.287,0.161,0.432,0.497,0.432,1.008C70.44,61.232,70.327,61.752,70.104,62.312z"/>
		<path fill="#FFFFFF" d="M80.712,60.272c0.031,0.225,0.049,0.448,0.049,0.672c0,0.768-0.255,1.456-0.762,2.064
			c-0.508,0.607-1.109,0.911-1.808,0.911c-0.381,0-0.745-0.096-1.095-0.287c-1.078-0.576-1.617-2.225-1.617-4.944
			c0-0.8-0.391-1.776-1.171-2.928l-0.281,3.119c-0.031,0.513-0.171,1.169-0.421,1.969c-0.063,0.16-0.094,0.368-0.094,0.624
			c0,0.127,0,0.304,0,0.527c0,0.192,0,0.353,0,0.48c0,0.64-0.277,0.96-0.832,0.96c-0.163,0-0.391-0.032-0.684-0.096
			c-0.098,0.063-0.196,0.096-0.294,0.096c-0.163,0-0.31-0.128-0.44-0.384c-0.228-0.32-0.358-0.497-0.391-0.528
			c0.96-1.088,1.439-2.031,1.439-2.832c0-0.384-0.111-0.751-0.336-1.104c0.318-1.152,0.549-2.576,0.69-4.272
			c0.106-1.44,0.212-2.88,0.318-4.32c0.161-0.991,0.338-2.496,0.528-4.512c0-0.063,0-1.584,0-4.56
			c0.031-1.792,0.175-3.296,0.432-4.513c-0.257-0.256-0.313-0.631-0.168-1.128c0.145-0.495,0.104-0.871-0.12-1.128l-1.681-0.527
			c-0.127-0.769,0.24-1.152,1.104-1.152c0.415,0,0.704,0.191,0.864,0.576l0.288-0.288c0.768,0.896,1.151,1.744,1.151,2.544
			c0,0.384-0.144,1.016-0.432,1.896c-0.288,0.881-0.432,1.641-0.432,2.28c0,0.736,0.048,1.848,0.144,3.336
			c0.097,1.488,0.144,2.633,0.144,3.433c0.032,0.064,0.049,0.144,0.049,0.239c0,0.161-0.096,0.368-0.288,0.624
			c-0.192,0.257-0.305,0.433-0.336,0.528c0.128,0.192,0.336,0.288,0.624,0.288c0.543,0,0.799,0,0.768,0
			c0.256-0.48,0.664-0.8,1.225-0.96c0.559-0.16,1.096-0.304,1.607-0.433c0.928,0.32,1.488,1.152,1.68,2.496
			c0.16,1.217-0.416,2.385-1.728,3.504c-1.313,1.121-1.968,1.937-1.968,2.448c0,0.192,0.088,0.433,0.264,0.72
			c0.176,0.288,0.295,0.497,0.36,0.624c-0.161,0.161-0.24,0.401-0.24,0.721c0,0.064,0,0.168,0,0.312c0,0.145,0,0.248,0,0.313
			c0,0.448-0.305,0.656-0.912,0.624c0.479,0.16,0.88,0.704,1.2,1.632c0.319,1.056,0.672,1.728,1.057,2.016
			c0.191-0.479,0.367-0.96,0.527-1.439c0.256-0.607,0.56-0.912,0.912-0.912C79.928,59.6,80.296,59.824,80.712,60.272z M78.456,49.04
			c-0.252-0.127-0.506-0.191-0.758-0.191c-0.379,0-0.852,0.256-1.421,0.768c-0.568,0.513-1.042,0.784-1.421,0.816
			c0.191,0.128,0.287,0.288,0.287,0.479c0,0.129-0.047,0.32-0.144,0.576c-0.096,0.257-0.144,0.464-0.144,0.624
			c0,0.096,0.015,0.192,0.047,0.288c0.247,0.225,0.495,0.336,0.744,0.336c0.31,0,0.682-0.208,1.116-0.624
			c0.558-0.479,0.931-0.751,1.116-0.816l-0.287-0.287c0.031-0.224,0.191-0.536,0.479-0.937C78.36,49.673,78.487,49.328,78.456,49.04
			z"/>
	</g>
</g>
<g>
	<g>
		<path fill="#1AAB83" d="M21.324,71.582c-1.471,1.474-2.943,2.943-4.414,4.414c-0.321,0.32-0.162,0.769,0.241,0.902
			c0.477,0.158,1.022-0.021,1.366-0.367c1.471-1.471,2.943-2.941,4.414-4.414c0.321-0.32,0.162-0.766-0.241-0.9
			C22.214,71.058,21.668,71.238,21.324,71.582L21.324,71.582z"/>
	</g>
</g>
<g>
	<g>
		<path fill="#1AAB83" d="M18.822,68.65c-3.221,0.83-5.579,3.094-8.157,5.059c-0.368,0.281,1.388,0.08,1.737-0.188
			c2.018-1.537,4.035-3.707,6.557-4.357C20.083,68.875,19.942,68.361,18.822,68.65L18.822,68.65z"/>
	</g>
</g>
<g>
	<g>
		<path fill="#1AAB83" d="M13.273,65.912c-2.027,1.142-4.151,2.099-6.18,3.238c-0.31,0.174-0.537,0.627-0.144,0.848
			c0.43,0.24,0.981,0.064,1.375-0.156c2.028-1.141,4.152-2.096,6.18-3.237c0.31-0.174,0.537-0.627,0.144-0.849
			C14.218,65.515,13.666,65.691,13.273,65.912L13.273,65.912z"/>
	</g>
</g>
<g>
	<g>
		<path fill="#1AAB83" d="M12.91,62.035c-2.09-0.826-4.814,0.941-6.725,1.607c-0.123,0.043-0.863,0.373-0.561,0.604
			c0.314,0.24,0.933,0.033,1.252-0.078c0.769-0.268,1.517-0.592,2.272-0.895c0.647-0.26,1.49-0.719,2.186-0.443
			C11.794,63.011,13.55,62.289,12.91,62.035L12.91,62.035z"/>
	</g>
</g>
<g>
	<g>
		<path fill="#1AAB83" d="M10.701,54.998c-2.346-0.438-5.357,0.51-7.573,1.224c-1.158,0.37-0.844,1.618,0.332,1.241
			c1.912-0.614,4.532-1.51,6.553-1.131C10.918,56.5,11.99,55.238,10.701,54.998L10.701,54.998z"/>
	</g>
</g>
<g>
	<g>
		<path fill="#1AAB83" d="M11.23,48.617c-1.442-0.271-2.875-0.327-4.339-0.328c-0.449,0-1.019,0.133-1.269,0.553
			c-0.232,0.39,0.196,0.66,0.549,0.66c1.31,0,2.61,0.019,3.901,0.261c0.471,0.09,1.015-0.019,1.366-0.365
			C11.723,49.115,11.657,48.697,11.23,48.617L11.23,48.617z"/>
	</g>
</g>
<g>
	<g>
		<path fill="#1AAB83" d="M12.826,40.23c-3.047,0.324-6.169,0.003-9.208-0.293c-0.453-0.044-2.236,0.751-1.236,0.849
			c3.175,0.311,6.441,0.633,9.626,0.295C12.546,41.024,14.099,40.095,12.826,40.23L12.826,40.23z"/>
	</g>
</g>
<g>
	<g>
		<path fill="#1AAB83" d="M16.518,35.341c-2.541-0.63-5.096-1.196-7.651-1.766c-0.753-0.167-2.291,0.958-1.139,1.214
			c2.555,0.568,5.11,1.136,7.651,1.767C16.133,36.741,17.669,35.626,16.518,35.341L16.518,35.341z"/>
	</g>
</g>
<g>
	<g>
		<path fill="#1AAB83" d="M17.333,30.284c-2.467-0.333-4.464-1.624-6.064-3.49c-0.301-0.352-2.1,0.326-1.822,0.649
			c1.654,1.929,3.756,3.229,6.295,3.573c0.45,0.061,0.941-0.065,1.349-0.253C17.211,30.708,17.781,30.345,17.333,30.284
			L17.333,30.284z"/>
	</g>
</g>
<g>
	<g>
		<path fill="#1AAB83" d="M21.328,28.037c-0.056-0.414-0.377-0.724-0.659-1.007c-0.494-0.497-2.326,0.229-1.791,0.767
			c0.223,0.226,0.474,0.432,0.518,0.759C19.489,29.236,21.43,28.786,21.328,28.037L21.328,28.037z"/>
	</g>
</g>
<g>
	<g>
		<path fill="#1AAB83" d="M24.2,23.2c-2.141-3.036-4.403-5.974-6.108-9.289c-0.358-0.696-2.239-0.08-1.932,0.519
			c1.75,3.403,4.052,6.428,6.251,9.545C22.811,24.542,24.679,23.879,24.2,23.2L24.2,23.2z"/>
	</g>
</g>
<g>
	<g>
		<path fill="#1AAB83" d="M23.817,10.784c-0.739,1.653,0.592,3.736,1.391,5.117c1.046,1.807,2.32,3.506,3.667,5.098
			c0.369,0.437,2.21-0.231,1.807-0.709c-1.305-1.542-2.496-3.179-3.542-4.907c-0.765-1.263-2.084-3.367-1.404-4.89
			C25.946,10.024,24.067,10.226,23.817,10.784L23.817,10.784z"/>
	</g>
</g>
<g>
	<g>
		<path fill="#1AAB83" d="M13.198,21.712c-0.956,1-1.758-0.067-0.996,0.516c0.293,0.224,0.564,0.477,0.836,0.725
			c0.751,0.684,1.47,1.401,2.195,2.111c1.204,1.18,2.388,2.457,3.776,3.425c0.552,0.385,2.328-0.414,1.527-0.972
			c-1.885-1.315-3.448-3.189-5.104-4.772c-0.861-0.824-2.513-2.745-3.798-1.4C10.836,22.179,12.726,22.206,13.198,21.712
			L13.198,21.712z"/>
	</g>
</g>
<g>
	<g>
		<path fill="#1AAB83" d="M28.813,6.19c0.352,3.16,1.262,6.212,3.316,8.691c0.537,0.648,2.379-0.102,1.773-0.834
			c-1.987-2.398-2.818-5.327-3.158-8.376C30.651,4.825,28.713,5.293,28.813,6.19L28.813,6.19z"/>
	</g>
</g>
<g>
	<g>
		<path fill="#1AAB83" d="M36.465,4.719c1.364,2.895,1.755,6.013,2.354,9.122c0.136,0.704,2.075,0.225,1.932-0.518
			c-0.599-3.11-0.99-6.229-2.354-9.123C38.067,3.501,36.175,4.104,36.465,4.719L36.465,4.719z"/>
	</g>
</g>
<g>
	<g>
		<path fill="#1AAB83" d="M43.822,3.835c0.519,2.726,0.069,5.514,0.588,8.24c0.152,0.798,2.089,0.311,1.932-0.518
			c-0.519-2.726-0.069-5.514-0.588-8.24C45.602,2.52,43.665,3.008,43.822,3.835L43.822,3.835z"/>
	</g>
</g>
<g>
	<g>
		<path fill="#1AAB83" d="M50.883,3.985c-0.305,1.852-0.567,3.712-0.588,5.592c-0.01,0.836,1.927,0.436,1.935-0.229
			c0.022-1.88,0.284-3.74,0.588-5.593C52.947,2.969,50.996,3.302,50.883,3.985L50.883,3.985z"/>
	</g>
</g>
<g>
	<g>
		<path fill="#1AAB83" d="M62.079,2.861C61.19,5.183,60.1,7.443,59.726,9.923c-0.074,0.49,1.835,0.141,1.907-0.334
			c0.374-2.479,1.464-4.739,2.354-7.063C64.128,2.157,62.272,2.358,62.079,2.861L62.079,2.861z"/>
	</g>
</g>
<g>
	<g>
		<path fill="#1AAB83" d="M68.263,4.047c-1.902,2.527-3.978,5.096-4.709,8.24c-0.09,0.385,1.795,0.107,1.902-0.353
			c0.73-3.146,2.807-5.712,4.709-8.24C70.271,3.554,68.601,3.597,68.263,4.047L68.263,4.047z"/>
	</g>
</g>
<g>
	<g>
		<path fill="#1AAB83" d="M73.853,5.805c-1.184,2.042-2.541,3.968-4.043,5.788c-0.393,0.477,1.457,0.212,1.75-0.144
			c1.556-1.885,2.974-3.869,4.198-5.984C75.903,5.214,74.133,5.321,73.853,5.805L73.853,5.805z"/>
	</g>
</g>
<g>
	<g>
		<path fill="#1AAB83" d="M81.063,7.126c-1.508,2.109-3.03,4.203-4.709,6.182c-0.791,0.931,1.057,1.205,1.61,0.551
			c1.679-1.979,3.201-4.071,4.709-6.181C83.388,6.679,81.565,6.421,81.063,7.126L81.063,7.126z"/>
	</g>
</g>
<g>
	<g>
		<path fill="#1AAB83" d="M85.692,10.387c-1.483,1.763-3.106,3.404-4.871,4.89c-0.79,0.666,1.134,0.453,1.503,0.142
			c1.854-1.562,3.571-3.262,5.135-5.115C87.909,9.768,86.021,9.999,85.692,10.387L85.692,10.387z"/>
	</g>
</g>
<g>
	<g>
		<path fill="#1AAB83" d="M95.542,13.827c-2.547,1.6-5.038,3.295-7.195,5.404c-0.44,0.431,1.411,0.221,1.756-0.116
			c2.078-2.03,4.479-3.65,6.931-5.19C97.86,13.405,95.91,13.596,95.542,13.827L95.542,13.827z"/>
	</g>
</g>
<g>
	<g>
		<path fill="#1AAB83" d="M100.276,17.731c-2.473,1.237-4.922,2.501-7.275,3.954c-1.113,0.687,0.492,1.347,1.275,0.862
			c2.213-1.363,4.527-2.536,6.851-3.698C102.31,18.259,101.248,17.245,100.276,17.731L100.276,17.731z"/>
	</g>
</g>
<g>
	<g>
		<path fill="#1AAB83" d="M108.752,23.177c-3.817,0.653-7.542,1.586-11.14,3.035c-1.223,0.494-0.146,1.638,0.88,1.226
			c3.426-1.382,7.005-2.227,10.639-2.85C110.367,24.376,109.957,22.969,108.752,23.177L108.752,23.177z"/>
	</g>
</g>
<g>
	<g>
		<path fill="#1AAB83" d="M112.896,28.559c-3.348,0.626-6.658,1.435-10.006,2.06c-1.218,0.229-0.854,1.461,0.332,1.239
			c3.348-0.625,6.658-1.435,10.006-2.061C114.444,29.571,114.083,28.338,112.896,28.559L112.896,28.559z"/>
	</g>
</g>
<g>
	<g>
		<path fill="#1AAB83" d="M114.099,34.316c-1.68,0.279-3.352,0.545-5.057,0.565c-0.424,0.006-0.999,0.156-1.283,0.498
			c-0.291,0.353,0.249,0.459,0.494,0.456c1.865-0.022,3.701-0.304,5.538-0.608c0.343-0.058,0.981-0.209,1.112-0.599
			C115.034,34.24,114.274,34.286,114.099,34.316L114.099,34.316z"/>
	</g>
</g>
<g>
	<g>
		<path fill="#1AAB83" d="M24.984,75.488c-0.326,1.525-0.894,2.969-1.471,4.414c-0.174,0.436,0.63,0.504,0.852,0.479
			c0.448-0.049,0.913-0.258,1.087-0.692c0.577-1.445,1.146-2.892,1.471-4.414C27.095,74.47,25.137,74.769,24.984,75.488
			L24.984,75.488z"/>
	</g>
</g>
<g>
	<g>
		<path fill="#1AAB83" d="M28.52,78.289c-0.001,1.572-0.021,3.115-0.579,4.607c-0.163,0.434,1.715,0.213,1.912-0.314
			c0.581-1.553,0.598-3.174,0.599-4.811C30.452,77.381,28.52,77.681,28.52,78.289L28.52,78.289z"/>
	</g>
</g>
<g>
	<g>
		<path fill="#1AAB83" d="M35.883,80.238c-0.336,1.479-0.282,3.041-0.007,4.525c0.098,0.526,2.041,0.067,1.932-0.519
			c-0.262-1.416-0.328-2.893-0.007-4.303C37.933,79.365,36.01,79.679,35.883,80.238L35.883,80.238z"/>
	</g>
</g>
<g>
	<g>
		<path fill="#1AAB83" d="M44.403,80.478c-0.269,2.028-0.303,4.076,0.302,6.051c0.244,0.797,2.172,0.266,1.932-0.518
			c-0.576-1.88-0.543-3.791-0.287-5.724C46.468,79.394,44.506,79.705,44.403,80.478L44.403,80.478z"/>
	</g>
</g>
<g>
	<g>
		<path fill="#1AAB83" d="M50.288,81.064c-0.612,1.785,0.032,3.75,0.597,5.465c0.268,0.813,2.193,0.275,1.932-0.518
			c-0.535-1.627-1.161-3.437-0.58-5.13C52.514,80.074,50.548,80.306,50.288,81.064L50.288,81.064z"/>
	</g>
</g>
<g>
	<g>
		<path fill="#1AAB83" d="M54.416,81.232c0.315,2.051,0.959,3.979,1.766,5.885c0.215,0.51,2.101-0.117,1.932-0.518
			c-0.806-1.906-1.45-3.834-1.766-5.886C56.28,80.271,54.333,80.697,54.416,81.232L54.416,81.232z"/>
	</g>
</g>
<g>
	<g>
		<path fill="#1AAB83" d="M59.125,80.349c0.064,2.61,1.196,5.246,3.297,6.854c0.461,0.354,2.185-0.404,1.812-0.688
			c-2.055-1.572-3.113-4.134-3.178-6.683C61.046,79.406,59.109,79.734,59.125,80.349L59.125,80.349z"/>
	</g>
</g>
<g>
	<g>
		<path fill="#1AAB83" d="M66.203,78.799c-0.543,2.644,0.917,5.06,2.979,6.613c0.408,0.31,2.051-0.469,1.825-0.639
			c-1.938-1.461-3.42-3.83-2.905-6.334C68.181,78.066,66.294,78.355,66.203,78.799L66.203,78.799z"/>
	</g>
</g>
<g>
	<g>
		<path fill="#1AAB83" d="M74.133,75.64c0.921,2.409,2.089,4.713,3.894,6.586c0.447,0.463,2.277-0.244,1.799-0.74
			c-1.75-1.814-2.867-4.029-3.76-6.363C75.817,74.478,73.91,75.056,74.133,75.64L74.133,75.64z"/>
	</g>
</g>
<g>
	<g>
		<path fill="#1AAB83" d="M80.089,75.469c1.893,1.934,3.402,4.256,5.592,5.887c0.561,0.416,2.34-0.355,1.791-0.765
			c-2.188-1.631-3.697-3.952-5.592-5.887C81.396,74.209,79.562,74.931,80.089,75.469L80.089,75.469z"/>
	</g>
</g>
<g>
	<g>
		<path fill="#1AAB83" d="M85.976,72.826c1.606,1.855,3.738,3.109,5.724,4.512c0.549,0.39,2.323-0.405,1.526-0.971
			c-1.898-1.344-3.922-2.539-5.461-4.315C87.299,71.513,85.449,72.219,85.976,72.826L85.976,72.826z"/>
	</g>
</g>
<g>
	<g>
		<path fill="#1AAB83" d="M90.537,70.045c2.114,1.228,4.127,2.623,6.366,3.621c0.787,0.353,2.24-0.778,1.121-1.276
			c-2.107-0.941-4.002-2.287-5.993-3.441C91.317,68.533,89.61,69.506,90.537,70.045L90.537,70.045z"/>
	</g>
</g>
<g>
	<g>
		<path fill="#1AAB83" d="M96.576,64.023c1.664,1.57,3.757,2.236,5.913,2.854c0.773,0.222,2.285-0.907,1.133-1.237
			c-1.875-0.535-3.816-1.07-5.271-2.441C97.753,62.633,95.927,63.41,96.576,64.023L96.576,64.023z"/>
	</g>
</g>
<g>
	<g>
		<path fill="#1AAB83" d="M100.351,60.125c2.814,0.092,5.322,1.365,8.02,2.021c0.734,0.178,2.29-0.914,1.145-1.191
			c-2.847-0.692-5.484-2.002-8.459-2.1C100.21,58.828,99.04,60.082,100.351,60.125L100.351,60.125z"/>
	</g>
</g>
<g>
	<g>
		<path fill="#1AAB83" d="M103.854,55.906c2.287,0,4.571,0.01,6.848,0.273c0.471,0.055,0.998-0.048,1.365-0.367
			c0.287-0.248,0.238-0.615-0.178-0.662c-2.421-0.281-4.845-0.314-7.277-0.316C103.906,54.834,102.55,55.906,103.854,55.906
			L103.854,55.906z"/>
	</g>
</g>
<g>
	<g>
		<path fill="#1AAB83" d="M106.187,49.818c2.463-0.254,4.931-0.291,7.404-0.291c0.456,0,1.021-0.127,1.266-0.563
			c0.223-0.394-0.188-0.7-0.559-0.699c-2.638,0.001-5.271,0.025-7.898,0.297C105.383,48.667,104.858,49.955,106.187,49.818
			L106.187,49.818z"/>
	</g>
</g>
<g>
	<g>
		<path fill="#1AAB83" d="M107.806,44.705c2.82-1.165,5.932-1.354,8.903-1.922c0.769-0.146,1.712-0.98,0.356-0.723
			c-3.328,0.635-6.771,0.892-9.932,2.196C105.865,44.782,107.071,45.009,107.806,44.705L107.806,44.705z"/>
	</g>
</g>
<g>
	<g>
		<path fill="#1AAB83" d="M107.167,39.287c0.855,0.853,3.107,0.219,4.109,0.077c2.039-0.29,4.058-0.699,6.086-1.045
			c0.973-0.166,1.549-1.438,0.227-1.212c-1.474,0.251-2.941,0.534-4.416,0.782c-0.814,0.137-1.633,0.261-2.453,0.371
			c-0.313,0.042-1.787,0.213-1.77,0.231C108.412,37.958,106.579,38.704,107.167,39.287L107.167,39.287z"/>
	</g>
</g>
</svg>
