<?xml version="1.0" encoding="utf-8"?>
<!-- Generator: Adobe Illustrator 15.1.0, SVG Export Plug-In . SVG Version: 6.00 Build 0)  -->
<!DOCTYPE svg PUBLIC "-//W3C//DTD SVG 1.1//EN" "http://www.w3.org/Graphics/SVG/1.1/DTD/svg11.dtd">
<svg version="1.1" id="Ebene_1" xmlns="http://www.w3.org/2000/svg" xmlns:xlink="http://www.w3.org/1999/xlink" x="0px" y="0px"
	 width="122.683px" height="65.867px" viewBox="2.174 3.397 122.683 65.867" enable-background="new 2.174 3.397 122.683 65.867"
	 xml:space="preserve">
<path fill="#AC4B41" d="M6.443,6.382C3.9,8.218,4.425,24.36,3.361,28.615C2.298,32.87,4.425,40.318,5.489,45.637
	c1.064,5.317,4.255,18.084,7.446,19.147s85.107,4.255,92.553,3.19c7.447-1.063,18.135-2.047,18.135-8.43s1.52-16.295-0.609-23.741
	c-2.127-7.446-7.729-20.611-6.289-24.755c0.812-2.333-15.129-4.565-23.64-4.565S78.374,5.47,63.156,9.224
	c-4.572,1.128-11.73-0.3-21.305-0.3c-9.575,0-21.914-3.552-26.682-4.363C11.144,3.875,8.987,4.546,6.443,6.382z"/>
<g id="Ebene_2">
</g>
<g id="Ebene_3">
</g>
<g id="Ebene_1_2_">
	<g>
		<g>
			<path fill="#096D52" d="M500.876,464.014c-0.201,0.527-0.66,1.242-1.381,2.137c-1.199-1-1.98-1.5-2.34-1.5
				c-0.32,0-0.724,0.121-1.199,0.361c-1.281,0.721-2.103,1.842-2.461,3.363c-0.563,2.4-0.9,3.744-1.021,4.023
				c0,0.521,0.063,0.971,0.185,1.354c0.119,0.381,0.18,0.592,0.18,0.631c0,0.201-0.361,0.703-1.08,1.504l0.719,0.355v0.725
				c-0.561-0.08-0.92,0.041-1.077,0.357c0.521,1.041,0.778,1.703,0.778,1.982c0,0.16-0.021,0.32-0.061,0.479
				c-0.521,0.201-0.76,0.9-0.721,2.105c0,0.16,0,0.359,0,0.6c0,0.281-0.062,0.693-0.183,1.232c-0.119,0.541-0.18,0.951-0.18,1.229
				c0,0.402,0.102,0.783,0.309,1.146c-0.033,0.438-0.018,1.902,0.054,4.387c0,1.803-0.119,3.268-0.359,4.385
				c0.16,0.928,0.76,2.689,1.801,5.289c-0.121,0.16-0.18,0.342-0.18,0.541c0,0.359,0.299,0.881,0.896,1.563
				c0.604,0.682,0.939,1.143,1.021,1.383c-0.24,0.119-0.359,0.279-0.359,0.479c0,0.119,0.109,0.33,0.33,0.635
				c0.219,0.301,0.353,0.512,0.389,0.631c2.08-0.762,3.459-1.48,4.144-2.16c0.438-0.439,0.66-1.021,0.66-1.74c0-0.08,0-0.17,0-0.27
				c0-0.104,0-0.17,0-0.211c0-0.84,0.26-1.602,0.776-2.279c1.08,0.881,1.621,1.84,1.621,2.881c0,1.318-0.711,2.521-2.131,3.604
				c-1.42,1.076-2.77,1.615-4.049,1.615c-1-0.039-1.92-0.697-2.76-1.979c-1.162-1.762-1.884-2.742-2.16-2.943
				c-1.041-3.441-1.563-7.711-1.563-12.799c0-3.885,0.304-7.59,0.9-11.115c0.24-1.479,0.35-3.123,0.33-4.926
				c-0.021-1.801,0.289-3.465,0.93-4.986c0.439-1.121,1.299-2.604,2.58-4.443c0.918-0.604,1.939-0.9,3.063-0.9
				C498.636,462.73,499.835,463.156,500.876,464.014z"/>
			<path fill="#096D52" d="M513.236,500.17c-0.724,0.479-1.359,1.721-1.92,3.721c-0.48,1.68-1.58,2.719-3.304,3.119
				c-0.276,0.24-0.578,0.357-0.896,0.357c-0.281,0-0.683-0.102-1.201-0.301c-0.521-0.201-0.879-0.32-1.08-0.355
				c-1.24-0.926-1.859-2.186-1.859-3.781c0-0.359,0.039-0.918,0.119-1.68c0.08-0.764,0.121-1.344,0.121-1.74
				c0-0.479-0.082-0.918-0.24-1.318c0.683-0.641,0.873-1.451,0.578-2.432c-0.293-0.979-0.205-1.789,0.265-2.434
				c-0.08-0.236-0.119-0.479-0.119-0.719c0-0.961,0.619-2.141,1.856-3.541c1.238-0.355,2.644-0.479,4.199-0.355
				c1.24,1.438,2.063,2.879,2.461,4.316c0.563,0.439,0.84,0.939,0.84,1.5c0,0.279-0.09,0.689-0.27,1.229
				c-0.18,0.541-0.271,0.971-0.271,1.291c0,0.396,0.119,0.775,0.359,1.141c-0.24,0.08-0.359,0.279-0.359,0.6
				c0,0.24,0.021,0.48,0.063,0.723L513.236,500.17z M509.755,497.771c0.16-0.201,0.24-0.422,0.24-0.66c0-0.24-0.441-0.92-1.32-2.041
				c0.84-0.721,1.201-1.74,1.08-3.061c-0.719-0.799-1.66-1.119-2.82-0.959c-0.879,1.041-1.315,2.357-1.315,3.959
				c0,0.277,0.02,0.738,0.059,1.381c0.041,0.641,0.063,1.121,0.063,1.438c0,1.119-0.146,2.104-0.441,2.939
				c-0.063,0.201-0.098,0.398-0.098,0.6c0,0.24,0.059,0.57,0.18,0.99c0.119,0.42,0.18,0.73,0.18,0.93
				c0,0.279-0.12,0.541-0.356,0.781c0.158,0.158,0.33,0.318,0.51,0.479c0.18,0.156,0.25,0.316,0.209,0.479
				c1.16,0.199,2.08-0.119,2.76-0.959c0.041-0.16,0.201-0.621,0.48-1.381c0.199-0.602,0.301-1.08,0.301-1.439
				c0-0.156-0.021-0.316-0.061-0.479c0.032-0.4,0.145-0.781,0.323-1.143c0.187-0.357,0.273-0.617,0.273-0.779
				C509.998,498.57,509.916,498.211,509.755,497.771z"/>
			<path fill="#096D52" d="M529.615,500.406c0.08,0.24,0.121,0.461,0.121,0.66c0,0.359-0.191,0.854-0.57,1.471
				c-0.381,0.621-0.59,1.094-0.631,1.41c-1.119,0.318-2.08,0.479-2.879,0.479c-0.804,0-1.4-0.16-1.804-0.479
				c0-0.438-0.311-1.01-0.93-1.711c-0.621-0.695-0.891-1.309-0.809-1.83c0.274-0.08,0.42-0.195,0.42-0.355
				c0-0.121-0.07-0.301-0.211-0.541c-0.144-0.238-0.209-0.42-0.209-0.539c0-0.32,0.116-0.789,0.356-1.41
				c0.24-0.619,0.359-1.09,0.359-1.41c0-0.357-0.104-0.721-0.299-1.08c0-0.275,0-0.6,0-0.959c0-0.641-0.121-1.5-0.361-2.58
				c-0.24-1.316-0.379-2.16-0.42-2.521c-1.479,0.396-2.32,1.938-2.521,4.621c-0.118,1.479-0.602,3.141-1.438,4.979
				c0.08,0.279,0.119,0.604,0.119,0.959c0,0.359-0.07,0.934-0.209,1.711c-0.146,0.779-0.211,1.369-0.211,1.771
				c0,0.6,0.1,1.141,0.301,1.619c-0.041,0.039-0.23,0.25-0.57,0.631c-0.34,0.379-0.631,0.566-0.871,0.566
				c-0.119,0-0.219-0.041-0.299-0.117c-0.6-0.32-0.801-1.264-0.6-2.82c0.238-1.799,0.197-3-0.121-3.604
				c-0.041-0.395-0.021-1.139,0.061-2.219c0.08-1.281,0.119-2.221,0.119-2.82c0-3.236-0.896-5.117-2.699-5.641
				c0.039-0.721,0.763-1.539,2.16-2.459c0.959,0.359,1.439,1.119,1.439,2.279c0,0.16,0,0.381,0,0.66c0,0.275,0,0.479,0,0.6
				c0,0.92,0.219,1.641,0.66,2.16c0.158,0.041,0.301,0.061,0.42,0.061c0.197,0,0.396-0.141,0.6-0.42l0.42-0.721
				c-0.199-0.199-0.299-0.439-0.299-0.721c0-0.199,0.219-0.803,0.66-1.803c0.274-0.561,0.776-0.945,1.5-1.17
				c0.719-0.221,1.418-0.41,2.1-0.566c0.879,0.275,1.32,0.76,1.32,1.438c0,0.199-0.041,0.51-0.121,0.932s-0.119,0.729-0.119,0.932
				c0,0.561,0.219,1,0.66,1.318c0.039,0.318,0.139,1.021,0.299,2.102c0.16,0.881,0.24,1.58,0.24,2.1c0,1.121-0.301,2.104-0.9,2.939
				c0.439,2.121,1.16,3.301,2.16,3.541c0.039-0.08,0.221-0.541,0.541-1.381c0.199-0.521,0.5-0.898,0.898-1.143
				c0.157,0.24,0.52,0.383,1.078,0.42C529.095,499.787,529.455,500.012,529.615,500.406z"/>
			<path fill="#096D52" d="M543.115,500.406c0.08,0.24,0.121,0.461,0.121,0.66c0,0.359-0.191,0.854-0.57,1.471
				c-0.381,0.621-0.592,1.094-0.631,1.41c-1.119,0.318-2.08,0.479-2.879,0.479c-0.804,0-1.4-0.16-1.802-0.479
				c0-0.438-0.313-1.01-0.932-1.711c-0.621-0.695-0.891-1.309-0.811-1.83c0.274-0.08,0.42-0.195,0.42-0.355
				c0-0.121-0.07-0.301-0.211-0.541c-0.144-0.238-0.209-0.42-0.209-0.539c0-0.32,0.118-0.789,0.354-1.41
				c0.24-0.619,0.361-1.09,0.361-1.41c0-0.357-0.103-0.721-0.301-1.08c0-0.275,0-0.6,0-0.959c0-0.641-0.119-1.5-0.359-2.58
				c-0.24-1.316-0.381-2.16-0.42-2.521c-1.479,0.396-2.32,1.938-2.521,4.621c-0.116,1.479-0.602,3.141-1.438,4.979
				c0.08,0.279,0.121,0.604,0.121,0.959c0,0.359-0.07,0.934-0.211,1.711c-0.144,0.779-0.211,1.369-0.211,1.771
				c0,0.6,0.1,1.141,0.301,1.619c-0.041,0.039-0.23,0.25-0.57,0.631c-0.34,0.379-0.629,0.566-0.869,0.566
				c-0.119,0-0.221-0.041-0.301-0.117c-0.6-0.32-0.801-1.264-0.6-2.82c0.237-1.799,0.196-3-0.119-3.604
				c-0.041-0.395-0.021-1.139,0.059-2.219c0.08-1.281,0.121-2.221,0.121-2.82c0-3.236-0.897-5.117-2.701-5.641
				c0.041-0.721,0.765-1.539,2.16-2.459c0.961,0.359,1.441,1.119,1.441,2.279c0,0.16,0,0.381,0,0.66c0,0.275,0,0.479,0,0.6
				c0,0.92,0.219,1.641,0.655,2.16c0.158,0.041,0.304,0.061,0.423,0.061c0.198,0,0.396-0.141,0.602-0.42l0.42-0.721
				c-0.201-0.199-0.301-0.439-0.301-0.721c0-0.199,0.219-0.803,0.66-1.803c0.274-0.561,0.776-0.945,1.5-1.17
				c0.721-0.221,1.42-0.41,2.1-0.566c0.879,0.275,1.32,0.76,1.32,1.438c0,0.199-0.041,0.51-0.119,0.932
				c-0.082,0.422-0.121,0.729-0.121,0.932c0,0.561,0.221,1,0.66,1.318c0.039,0.318,0.141,1.021,0.301,2.102
				c0.158,0.881,0.24,1.58,0.24,2.1c0,1.121-0.301,2.104-0.9,2.939c0.439,2.121,1.16,3.301,2.16,3.541
				c0.039-0.08,0.219-0.541,0.539-1.381c0.199-0.521,0.5-0.898,0.9-1.143c0.155,0.24,0.52,0.383,1.077,0.42
				C542.595,499.787,542.955,500.012,543.115,500.406z"/>
			<path fill="#096D52" d="M555.054,500.23c0.439,0.199,0.66,0.521,0.66,0.959c0,0.92-0.84,1.949-2.52,3.09
				c-1.685,1.145-3.345,1.711-4.98,1.711c-1.281,0-2.279-0.396-3-1.201c0.039-0.355-0.119-0.801-0.479-1.316
				c-0.359-0.521-0.554-0.908-0.568-1.17c-0.021-0.264-0.191-1.129-0.512-2.609c-0.199-1.08-0.263-1.959-0.183-2.641
				c0.039-0.24-0.08-0.479-0.356-0.723c0.276-0.119,0.396-0.459,0.356-1.021c-0.117-0.119-0.18-0.258-0.18-0.42
				c0-0.199,0.199-0.563,0.6-1.08c0.4-0.521,0.603-0.959,0.603-1.318c0.041-1.561,0.061-3.141,0.061-4.74
				c0.24-1.84,0.92-3.18,2.041-4.02c1.439,0.039,2.859,0.859,4.265,2.459c-0.121,0.521,0.02,1.32,0.42,2.4
				c0.395,1.078,0.6,1.855,0.6,2.34c0,1.316-0.641,1.979-1.92,1.979c-0.281,0-0.791-0.08-1.531-0.238s-1.289-0.197-1.646-0.119
				c-0.521,0.082-0.925,0.42-1.201,1.021c-0.683,1.279-0.683,2.799,0,4.563c-0.238,0.082-0.359,0.277-0.359,0.602
				c0,0.563,0,0.82,0,0.779c0.48,0.201,0.724,0.6,0.724,1.199c0,0.357-0.119,0.656-0.359,0.896c1,1.92,1.959,2.881,2.881,2.881
				c0.438,0,0.879-0.141,1.32-0.42c0.559-0.082,1.379-0.66,2.459-1.74c-0.041-0.197-0.185-0.479-0.42-0.84
				c-0.24-0.357-0.359-0.66-0.359-0.896c0-0.725,0.438-1.08,1.32-1.08C553.333,499.51,554.095,499.75,555.054,500.23z
				 M549.054,490.391c-0.119-0.84-0.26-1.68-0.42-2.521c-0.201-1.041-0.76-1.479-1.68-1.316c0.08,0.08,0.119,0.18,0.119,0.299
				c0,0.121-0.08,0.301-0.238,0.541c-0.162,0.24-0.24,0.396-0.24,0.479c0,0.16,0.119,0.303,0.359,0.42
				c-0.24,0.08-0.359,0.279-0.359,0.604v0.779c0.199,0.479,0.563,0.721,1.08,0.721C548.154,490.391,548.615,490.391,549.054,490.391
				z"/>
			<path fill="#096D52" d="M565.435,504.221c-0.276,0.699-0.897,1.471-1.856,2.311c-1.4,1.199-2.16,1.898-2.281,2.104
				c-3.479-1.117-5.299-3.252-5.459-6.404c0.199-0.158,0.301-0.338,0.301-0.539c0-0.197-0.121-0.467-0.358-0.807
				c-0.238-0.34-0.381-0.568-0.42-0.689c0.76-1.232,1.141-2.99,1.141-5.266c0-0.238,0-0.607,0-1.107c0-0.498,0-0.887,0-1.166
				c0-3.313,1.201-5.563,3.6-6.764c0.16,0,0.435-0.068,0.814-0.209c0.379-0.141,0.646-0.209,0.811-0.209
				c0.359,0,0.642,0.219,0.841,0.652l-0.357,0.354c0.639,0.238,1.236,0.793,1.799,1.664c0.562,0.873,0.84,1.684,0.84,2.436
				c0,0.396-0.08,0.734-0.237,1.016c-0.48,0.039-0.939,0.059-1.381,0.059c-0.562,0-0.938-0.217-1.142-0.646
				c0.24-0.156,0.351-0.5,0.33-1.033c-0.021-0.529,0.068-0.875,0.271-1.031c-0.281-0.67-0.629-1.006-1.031-1.006
				c-0.242,0-0.648,0.189-1.219,0.568c-0.564,0.379-0.992,0.59-1.273,0.629c-0.647,0.639-0.977,1.475-0.977,2.512
				c0,0.438,0.092,1.137,0.271,2.094c0.18,0.957,0.271,1.674,0.271,2.152c0,0.639-0.119,1.197-0.359,1.676
				c-0.643,0.119-0.959,0.398-0.959,0.836c0,0.16,0.078,0.459,0.24,0.898c0.156,0.438,0.236,0.773,0.236,1.016
				c0,0.32-0.119,0.578-0.357,0.777l0.357,0.355l-0.3,0.357c0.438,0.16,0.699,0.6,0.779,1.313c0.078,0.918,0.221,1.494,0.42,1.734
				c0.238,0.359,0.5,0.797,0.779,1.316c0.155,0.234,0.301,0.355,0.42,0.355c0.156,0,0.619-0.121,1.381-0.357
				c0.119-0.199,0.449-0.5,0.988-0.898c0.541-0.4,0.813-0.762,0.813-1.08c0-0.162-0.063-0.357-0.182-0.602
				c-0.32-0.604-0.479-0.959-0.479-1.08c-0.041-0.158,0.08-0.578,0.359-1.26l0.238-0.479c0.157-0.438,0.317-0.66,0.479-0.66
				c0.08,0,0.301,0.17,0.66,0.51c0.356,0.344,0.721,0.475,1.08,0.393c0.356,0.201,0.539,0.621,0.539,1.262
				C565.854,502.867,565.714,503.52,565.435,504.221z"/>
			<path fill="#096D52" d="M576.234,499.51c0.6,0.521,0.896,1.121,0.896,1.801c0,0.52-0.42,1.561-1.26,3.119
				c-0.642,1.201-1.642,1.801-3,1.801c-0.521,0-1.379-0.141-2.58-0.42c-0.959-1.121-1.521-2.68-1.68-4.68
				c0-0.121-0.021-1.82-0.063-5.104c0.279-0.277,0.398-0.52,0.359-0.721c-0.24-0.08-0.359-0.199-0.359-0.359
				c0-0.039,0.219-0.381,0.66-1.021c-0.041-0.199-0.061-0.42-0.061-0.658c0-0.281,0.065-0.701,0.211-1.262
				c0.139-0.563,0.209-0.959,0.209-1.199c0-0.398-0.119-0.76-0.359-1.08c-0.24,0-0.592,0.09-1.051,0.27
				c-0.459,0.184-0.789,0.271-0.99,0.271c-0.438,0-0.801-0.301-1.08-0.9c0.041-0.6-0.078-0.959-0.355-1.08
				c0.115-0.879,0.945-1.389,2.486-1.525c1.539-0.145,2.313-0.49,2.313-1.051c0-0.398-0.201-0.939-0.604-1.619
				c0.24-0.08,0.361-0.279,0.361-0.604c0-0.561,0-0.816,0-0.777c-0.041-0.199-0.041-0.803,0-1.803
				c0.039-0.76-0.082-1.34-0.361-1.736c-0.52,0.236-1.221,0.719-2.1,1.438c-0.279-0.359-0.42-0.74-0.42-1.141
				c0-0.359,0.141-0.771,0.42-1.23s0.397-0.729,0.358-0.811l-0.358-0.359c0.438-0.479,1-0.721,1.68-0.721
				c0.685,0,1.281,0.24,1.803,0.721c0.521,0.48,0.761,1.08,0.722,1.801c0.039,1.24,0.061,2.5,0.061,3.779
				c0,1.564-0.262,2.74-0.776,3.541c0.235,0.039,0.606,0.17,1.106,0.389c0.5,0.225,0.869,0.33,1.109,0.33
				c0.396,0,0.721-0.236,0.961-0.719c0.6-0.041,0.946,0.07,1.049,0.33c0.1,0.26,0.15,0.49,0.15,0.688
				c0,0.684-0.563,1.303-1.685,1.859c-1.396,0.68-2.18,1.119-2.34,1.318c-0.24,1.121-0.479,2.24-0.719,3.357
				c-0.281,1.32-0.42,2.422-0.42,3.303c0,0.961,0.157,1.896,0.479,2.816c-0.041,0.564,0.063,0.922,0.301,1.08
				c0,0.564-0.02,1.121-0.061,1.682c0.039,0.682,0.299,1.158,0.779,1.439c1.08,0.119,1.719-0.262,1.92-1.141
				c0.08-0.803,0.198-1.609,0.358-2.434C574.474,499.682,575.113,499.352,576.234,499.51z"/>
		</g>
	</g>
</g>
<g id="Ebene_3_1_">
</g>
<path fill="#086E52" d="M29.394,3072.254c-0.201,0.529-0.66,1.242-1.38,2.139c-1.2-1-1.98-1.5-2.34-1.5
	c-0.321,0-0.72,0.119-1.2,0.359c-1.281,0.721-2.1,1.844-2.46,3.365c-0.561,2.402-0.9,3.746-1.02,4.025c0,0.52,0.06,0.971,0.18,1.352
	c0.12,0.381,0.18,0.592,0.18,0.631c0,0.201-0.36,0.701-1.08,1.502l0.72,0.361v0.721c-0.561-0.08-0.92,0.039-1.08,0.361
	c0.52,1.041,0.78,1.701,0.78,1.982c0,0.158-0.021,0.318-0.06,0.48c-0.521,0.199-0.76,0.9-0.72,2.104c0,0.158,0,0.359,0,0.6
	c0,0.281-0.06,0.693-0.18,1.232c-0.12,0.541-0.18,0.951-0.18,1.23c0,0.402,0.102,0.783,0.309,1.143
	c-0.035,0.441-0.018,1.902,0.051,4.387c0,1.803-0.12,3.266-0.36,4.387c0.159,0.922,0.759,2.686,1.8,5.287
	c-0.12,0.162-0.18,0.342-0.18,0.541c0,0.361,0.3,0.883,0.9,1.564c0.6,0.682,0.939,1.141,1.02,1.381
	c-0.24,0.121-0.36,0.281-0.36,0.48c0,0.119,0.109,0.33,0.33,0.631c0.22,0.301,0.35,0.512,0.39,0.631
	c2.08-0.76,3.459-1.479,4.14-2.158c0.439-0.439,0.66-1.021,0.66-1.74c0-0.08,0-0.17,0-0.271c0-0.1,0-0.168,0-0.209
	c0-0.84,0.26-1.6,0.78-2.279c1.08,0.879,1.62,1.84,1.62,2.879c0,1.32-0.711,2.521-2.13,3.602c-1.42,1.08-2.77,1.619-4.05,1.619
	c-1-0.039-1.92-0.701-2.76-1.982c-1.161-1.762-1.881-2.742-2.16-2.943c-1.041-3.443-1.56-7.711-1.56-12.799
	c0-3.885,0.3-7.59,0.9-11.115c0.24-1.479,0.35-3.123,0.33-4.926c-0.021-1.801,0.29-3.465,0.93-4.986
	c0.439-1.121,1.299-2.604,2.58-4.445c0.919-0.602,1.939-0.9,3.06-0.9C27.153,3070.973,28.353,3071.398,29.394,3072.254z"/>
<path fill="#086E52" d="M41.753,3108.41c-0.72,0.48-1.36,1.721-1.92,3.721c-0.48,1.682-1.581,2.721-3.3,3.119
	c-0.28,0.24-0.581,0.361-0.9,0.361c-0.28,0-0.681-0.102-1.2-0.301c-0.521-0.201-0.88-0.32-1.08-0.359
	c-1.24-0.922-1.86-2.182-1.86-3.781c0-0.357,0.04-0.918,0.12-1.68c0.08-0.76,0.12-1.34,0.12-1.74c0-0.479-0.081-0.918-0.24-1.318
	c0.68-0.641,0.873-1.449,0.579-2.432c-0.293-0.979-0.206-1.789,0.261-2.43c-0.081-0.24-0.12-0.479-0.12-0.719
	c0-0.961,0.62-2.141,1.86-3.541c1.239-0.359,2.64-0.48,4.2-0.359c1.24,1.439,2.06,2.879,2.46,4.32c0.56,0.439,0.84,0.939,0.84,1.5
	c0,0.279-0.09,0.688-0.27,1.229c-0.18,0.539-0.27,0.971-0.27,1.289c0,0.4,0.12,0.781,0.36,1.143c-0.24,0.08-0.36,0.279-0.36,0.6
	c0,0.24,0.02,0.48,0.06,0.721L41.753,3108.41z M38.273,3106.012c0.16-0.199,0.24-0.42,0.24-0.66s-0.441-0.92-1.32-2.039
	c0.84-0.721,1.2-1.74,1.08-3.063c-0.72-0.799-1.66-1.117-2.82-0.959c-0.88,1.041-1.32,2.361-1.32,3.959
	c0,0.281,0.02,0.742,0.06,1.381c0.04,0.641,0.06,1.121,0.06,1.439c0,1.121-0.147,2.1-0.441,2.939
	c-0.065,0.201-0.099,0.4-0.099,0.602c0,0.24,0.06,0.57,0.18,0.99s0.18,0.729,0.18,0.93c0,0.279-0.12,0.539-0.36,0.779
	c0.16,0.158,0.33,0.318,0.51,0.479c0.18,0.16,0.25,0.32,0.21,0.48c1.16,0.199,2.08-0.119,2.76-0.959c0.04-0.16,0.2-0.621,0.48-1.381
	c0.199-0.602,0.3-1.08,0.3-1.439c0-0.16-0.021-0.32-0.06-0.479c0.036-0.4,0.146-0.781,0.327-1.143
	c0.182-0.357,0.273-0.619,0.273-0.779C38.514,3106.813,38.433,3106.451,38.273,3106.012z"/>
<path fill="#086E52" d="M58.132,3108.652c0.08,0.24,0.121,0.459,0.121,0.66c0,0.357-0.191,0.85-0.57,1.469
	c-0.381,0.621-0.591,1.09-0.631,1.41c-1.119,0.32-2.08,0.479-2.879,0.479c-0.801,0-1.4-0.158-1.8-0.479
	c0-0.439-0.311-1.01-0.93-1.709c-0.621-0.699-0.891-1.311-0.81-1.83c0.279-0.08,0.42-0.201,0.42-0.361
	c0-0.119-0.07-0.299-0.21-0.539c-0.141-0.24-0.21-0.42-0.21-0.541c0-0.318,0.12-0.789,0.36-1.41c0.24-0.617,0.36-1.088,0.36-1.408
	c0-0.359-0.101-0.721-0.3-1.08c0-0.279,0-0.602,0-0.959c0-0.641-0.12-1.5-0.36-2.58c-0.24-1.32-0.38-2.16-0.42-2.521
	c-1.48,0.4-2.32,1.939-2.52,4.619c-0.12,1.48-0.6,3.143-1.44,4.98c0.08,0.279,0.12,0.6,0.12,0.961c0,0.357-0.07,0.93-0.21,1.709
	c-0.141,0.779-0.21,1.371-0.21,1.77c0,0.602,0.1,1.143,0.3,1.621c-0.041,0.039-0.23,0.248-0.57,0.629
	c-0.34,0.381-0.63,0.57-0.87,0.57c-0.12,0-0.22-0.039-0.3-0.119c-0.6-0.32-0.8-1.26-0.6-2.82c0.24-1.801,0.199-3-0.12-3.6
	c-0.041-0.4-0.021-1.141,0.06-2.221c0.08-1.279,0.12-2.221,0.12-2.82c0-3.24-0.9-5.119-2.7-5.641c0.04-0.721,0.76-1.539,2.16-2.459
	c0.96,0.359,1.44,1.119,1.44,2.279c0,0.16,0,0.381,0,0.66s0,0.479,0,0.6c0,0.92,0.219,1.643,0.66,2.16
	c0.16,0.041,0.3,0.061,0.42,0.061c0.2,0,0.399-0.141,0.6-0.42l0.42-0.721c-0.2-0.199-0.3-0.439-0.3-0.721
	c0-0.199,0.219-0.799,0.66-1.799c0.279-0.561,0.78-0.949,1.5-1.17c0.72-0.221,1.419-0.41,2.1-0.57c0.879,0.279,1.32,0.76,1.32,1.439
	c0,0.199-0.041,0.51-0.12,0.93c-0.081,0.42-0.12,0.73-0.12,0.93c0,0.563,0.22,1.002,0.66,1.32c0.04,0.32,0.14,1.021,0.3,2.102
	c0.16,0.879,0.24,1.58,0.24,2.1c0,1.121-0.3,2.1-0.9,2.939c0.439,2.121,1.16,3.301,2.16,3.539c0.039-0.078,0.22-0.539,0.54-1.379
	c0.2-0.52,0.5-0.898,0.9-1.141c0.159,0.24,0.519,0.381,1.079,0.42C57.613,3108.031,57.972,3108.252,58.132,3108.652z"/>
<path fill="#086E52" d="M71.632,3108.652c0.08,0.24,0.12,0.459,0.12,0.66c0,0.357-0.19,0.85-0.569,1.469
	c-0.381,0.621-0.592,1.09-0.631,1.41c-1.12,0.32-2.08,0.479-2.88,0.479c-0.801,0-1.4-0.158-1.8-0.479c0-0.439-0.311-1.01-0.93-1.709
	c-0.621-0.699-0.891-1.311-0.811-1.83c0.279-0.08,0.42-0.201,0.42-0.361c0-0.119-0.07-0.299-0.21-0.539
	c-0.141-0.24-0.21-0.42-0.21-0.541c0-0.318,0.12-0.789,0.359-1.41c0.24-0.617,0.361-1.088,0.361-1.408
	c0-0.359-0.102-0.721-0.301-1.08c0-0.279,0-0.602,0-0.959c0-0.641-0.119-1.5-0.359-2.58c-0.24-1.32-0.381-2.16-0.42-2.521
	c-1.48,0.4-2.32,1.939-2.521,4.619c-0.12,1.48-0.601,3.143-1.44,4.98c0.08,0.279,0.121,0.6,0.121,0.961
	c0,0.357-0.07,0.93-0.211,1.709c-0.141,0.779-0.21,1.371-0.21,1.77c0,0.602,0.1,1.143,0.3,1.621c-0.04,0.039-0.23,0.248-0.57,0.629
	c-0.34,0.381-0.629,0.57-0.869,0.57c-0.12,0-0.221-0.039-0.301-0.119c-0.6-0.32-0.8-1.26-0.6-2.82c0.24-1.801,0.199-3-0.119-3.6
	c-0.041-0.4-0.021-1.141,0.06-2.221c0.079-1.279,0.12-2.221,0.12-2.82c0-3.24-0.9-5.119-2.7-5.641
	c0.04-0.721,0.761-1.539,2.159-2.459c0.961,0.359,1.441,1.119,1.441,2.279c0,0.16,0,0.381,0,0.66s0,0.479,0,0.6
	c0,0.92,0.219,1.643,0.659,2.16c0.159,0.041,0.3,0.061,0.42,0.061c0.2,0,0.399-0.141,0.601-0.42l0.42-0.721
	c-0.201-0.199-0.301-0.439-0.301-0.721c0-0.199,0.22-0.799,0.66-1.799c0.279-0.561,0.78-0.949,1.5-1.17
	c0.721-0.221,1.42-0.41,2.1-0.57c0.88,0.279,1.32,0.76,1.32,1.439c0,0.199-0.04,0.51-0.119,0.93c-0.081,0.42-0.121,0.73-0.121,0.93
	c0,0.563,0.221,1.002,0.66,1.32c0.04,0.32,0.141,1.021,0.301,2.102c0.159,0.879,0.24,1.58,0.24,2.1c0,1.121-0.301,2.1-0.9,2.939
	c0.439,2.121,1.16,3.301,2.16,3.539c0.039-0.078,0.219-0.539,0.539-1.379c0.2-0.52,0.5-0.898,0.9-1.141
	c0.16,0.24,0.52,0.381,1.08,0.42C71.113,3108.031,71.472,3108.252,71.632,3108.652z"/>
<path fill="#086E52" d="M83.572,3108.473c0.439,0.199,0.66,0.52,0.66,0.959c0,0.92-0.84,1.949-2.521,3.09
	c-1.681,1.141-3.341,1.711-4.979,1.711c-1.281,0-2.28-0.4-3-1.201c0.039-0.359-0.121-0.801-0.48-1.32
	c-0.359-0.518-0.551-0.908-0.57-1.17c-0.021-0.26-0.189-1.129-0.51-2.607c-0.201-1.08-0.261-1.961-0.18-2.643
	c0.039-0.238-0.081-0.479-0.36-0.719c0.279-0.121,0.399-0.459,0.36-1.021c-0.12-0.119-0.18-0.26-0.18-0.42
	c0-0.199,0.199-0.561,0.6-1.08c0.399-0.52,0.6-0.959,0.6-1.318c0.039-1.563,0.061-3.141,0.061-4.74c0.24-1.84,0.92-3.18,2.039-4.02
	c1.44,0.039,2.859,0.859,4.261,2.459c-0.12,0.52,0.02,1.318,0.42,2.398c0.399,1.08,0.601,1.861,0.601,2.34
	c0,1.32-0.641,1.98-1.92,1.98c-0.281,0-0.791-0.08-1.531-0.24c-0.74-0.158-1.289-0.199-1.649-0.119
	c-0.521,0.08-0.921,0.42-1.2,1.021c-0.681,1.279-0.681,2.799,0,4.559c-0.24,0.082-0.359,0.281-0.359,0.602c0,0.561,0,0.82,0,0.779
	c0.479,0.201,0.72,0.602,0.72,1.199c0,0.361-0.12,0.66-0.36,0.9c1,1.92,1.959,2.881,2.881,2.881c0.439,0,0.879-0.143,1.319-0.42
	c0.56-0.082,1.38-0.66,2.46-1.74c-0.041-0.201-0.18-0.48-0.42-0.84c-0.24-0.361-0.359-0.66-0.359-0.9c0-0.721,0.439-1.08,1.319-1.08
	C81.851,3107.75,82.611,3107.99,83.572,3108.473z M77.572,3098.631c-0.12-0.84-0.261-1.68-0.42-2.52
	c-0.201-1.041-0.761-1.479-1.68-1.32c0.079,0.08,0.119,0.182,0.119,0.301s-0.08,0.301-0.24,0.539c-0.16,0.24-0.24,0.4-0.24,0.48
	c0,0.16,0.121,0.299,0.361,0.42c-0.24,0.08-0.361,0.279-0.361,0.6v0.779c0.2,0.48,0.561,0.721,1.08,0.721
	C76.671,3098.631,77.13,3098.631,77.572,3098.631z"/>
<path fill="#086E52" d="M93.952,3112.461c-0.28,0.699-0.9,1.471-1.86,2.311c-1.4,1.201-2.16,1.898-2.279,2.1
	c-3.479-1.115-5.301-3.25-5.461-6.402c0.199-0.158,0.301-0.34,0.301-0.539c0-0.197-0.12-0.469-0.36-0.807
	c-0.239-0.34-0.379-0.568-0.42-0.689c0.76-1.236,1.142-2.99,1.142-5.266c0-0.238,0-0.607,0-1.107c0-0.498,0-0.887,0-1.166
	c0-3.313,1.199-5.566,3.6-6.764c0.16,0,0.43-0.068,0.811-0.209c0.379-0.141,0.649-0.209,0.811-0.209c0.359,0,0.64,0.219,0.841,0.652
	l-0.36,0.357c0.641,0.238,1.239,0.791,1.801,1.664c0.56,0.871,0.84,1.684,0.84,2.436c0,0.396-0.08,0.732-0.24,1.012
	c-0.479,0.039-0.939,0.059-1.379,0.059c-0.563,0-0.941-0.217-1.141-0.648c0.239-0.158,0.35-0.502,0.329-1.033
	s0.069-0.875,0.271-1.033c-0.283-0.67-0.629-1.004-1.033-1.004c-0.244,0-0.648,0.189-1.217,0.568s-0.994,0.588-1.276,0.627
	c-0.649,0.639-0.974,1.477-0.974,2.512c0,0.439,0.09,1.139,0.271,2.094c0.181,0.957,0.271,1.676,0.271,2.154
	c0,0.637-0.12,1.195-0.36,1.674c-0.64,0.119-0.959,0.398-0.959,0.838c0,0.158,0.079,0.457,0.24,0.896
	c0.157,0.438,0.239,0.777,0.239,1.016c0,0.32-0.121,0.58-0.36,0.779l0.36,0.357l-0.301,0.357c0.439,0.16,0.699,0.6,0.779,1.316
	c0.08,0.918,0.221,1.494,0.42,1.734c0.24,0.357,0.5,0.797,0.781,1.314c0.158,0.238,0.299,0.359,0.42,0.359
	c0.158,0,0.619-0.121,1.379-0.361c0.121-0.199,0.451-0.5,0.99-0.898c0.541-0.4,0.811-0.76,0.811-1.08c0-0.16-0.061-0.359-0.18-0.602
	c-0.321-0.6-0.48-0.959-0.48-1.08c-0.041-0.158,0.08-0.578,0.359-1.26l0.24-0.479c0.16-0.439,0.32-0.66,0.48-0.66
	c0.079,0,0.299,0.17,0.659,0.51c0.358,0.34,0.72,0.471,1.08,0.391c0.358,0.201,0.54,0.621,0.54,1.262
	C94.372,3111.111,94.23,3111.762,93.952,3112.461z"/>
<path fill="#086E52" d="M104.751,3107.75c0.601,0.521,0.899,1.121,0.899,1.801c0,0.521-0.42,1.561-1.26,3.121
	c-0.642,1.199-1.642,1.801-3,1.801c-0.521,0-1.381-0.143-2.58-0.422c-0.961-1.119-1.521-2.678-1.681-4.68
	c0-0.119-0.021-1.818-0.062-5.1c0.279-0.279,0.399-0.52,0.361-0.721c-0.24-0.08-0.361-0.199-0.361-0.359
	c0-0.039,0.221-0.381,0.66-1.021c-0.039-0.199-0.06-0.42-0.06-0.658c0-0.281,0.069-0.701,0.21-1.262s0.21-0.959,0.21-1.199
	c0-0.398-0.12-0.76-0.36-1.08c-0.239,0-0.59,0.09-1.049,0.271c-0.461,0.18-0.791,0.27-0.99,0.27c-0.44,0-0.801-0.301-1.08-0.898
	c0.041-0.602-0.08-0.961-0.359-1.08c0.119-0.879,0.949-1.391,2.488-1.531c1.541-0.139,2.312-0.488,2.312-1.049
	c0-0.4-0.2-0.939-0.601-1.621c0.24-0.078,0.359-0.279,0.359-0.6c0-0.561,0-0.82,0-0.781c-0.039-0.197-0.039-0.799,0-1.799
	c0.039-0.76-0.08-1.34-0.359-1.74c-0.52,0.24-1.221,0.721-2.1,1.439c-0.281-0.359-0.42-0.74-0.42-1.141
	c0-0.359,0.139-0.77,0.42-1.229c0.278-0.461,0.398-0.73,0.359-0.813l-0.359-0.357c0.438-0.48,0.998-0.721,1.68-0.721
	c0.68,0,1.279,0.238,1.801,0.721c0.52,0.479,0.759,1.08,0.72,1.799c0.039,1.24,0.06,2.5,0.06,3.781c0,1.559-0.26,2.74-0.778,3.539
	c0.239,0.041,0.608,0.17,1.108,0.391s0.871,0.33,1.11,0.33c0.399,0,0.72-0.24,0.96-0.721c0.6-0.039,0.949,0.07,1.051,0.33
	c0.1,0.26,0.149,0.49,0.149,0.689c0,0.682-0.562,1.301-1.681,1.859c-1.4,0.682-2.182,1.121-2.34,1.32
	c-0.24,1.121-0.479,2.24-0.721,3.359c-0.279,1.32-0.42,2.422-0.42,3.301c0,0.959,0.159,1.898,0.479,2.82
	c-0.039,0.561,0.062,0.92,0.302,1.08c0,0.561-0.021,1.119-0.062,1.68c0.039,0.68,0.301,1.16,0.78,1.439
	c1.08,0.119,1.72-0.262,1.92-1.141c0.079-0.801,0.199-1.609,0.36-2.43C102.991,3107.922,103.63,3107.592,104.751,3107.75z"/>
<path fill="#086E52" d="M29.394,3072.254c-0.201,0.529-0.66,1.242-1.38,2.139c-1.2-1-1.98-1.5-2.34-1.5
	c-0.321,0-0.72,0.119-1.2,0.359c-1.281,0.721-2.1,1.844-2.46,3.365c-0.561,2.402-0.9,3.746-1.02,4.025c0,0.52,0.06,0.971,0.18,1.352
	c0.12,0.381,0.18,0.592,0.18,0.631c0,0.201-0.36,0.701-1.08,1.502l0.72,0.361v0.721c-0.561-0.08-0.92,0.039-1.08,0.361
	c0.52,1.041,0.78,1.701,0.78,1.982c0,0.158-0.021,0.318-0.06,0.48c-0.521,0.199-0.76,0.9-0.72,2.104c0,0.158,0,0.359,0,0.6
	c0,0.281-0.06,0.693-0.18,1.232c-0.12,0.541-0.18,0.951-0.18,1.23c0,0.402,0.102,0.783,0.309,1.143
	c-0.035,0.441-0.018,1.902,0.051,4.387c0,1.803-0.12,3.266-0.36,4.387c0.159,0.922,0.759,2.686,1.8,5.287
	c-0.12,0.162-0.18,0.342-0.18,0.541c0,0.361,0.3,0.883,0.9,1.564c0.6,0.682,0.939,1.141,1.02,1.381
	c-0.24,0.121-0.36,0.281-0.36,0.48c0,0.119,0.109,0.33,0.33,0.631c0.22,0.301,0.35,0.512,0.39,0.631
	c2.08-0.76,3.459-1.479,4.14-2.158c0.439-0.439,0.66-1.021,0.66-1.74c0-0.08,0-0.17,0-0.271c0-0.1,0-0.168,0-0.209
	c0-0.84,0.26-1.6,0.78-2.279c1.08,0.879,1.62,1.84,1.62,2.879c0,1.32-0.711,2.521-2.13,3.602c-1.42,1.08-2.77,1.619-4.05,1.619
	c-1-0.039-1.92-0.701-2.76-1.982c-1.161-1.762-1.881-2.742-2.16-2.943c-1.041-3.443-1.56-7.711-1.56-12.799
	c0-3.885,0.3-7.59,0.9-11.115c0.24-1.479,0.35-3.123,0.33-4.926c-0.021-1.801,0.29-3.465,0.93-4.986
	c0.439-1.121,1.299-2.604,2.58-4.445c0.919-0.602,1.939-0.9,3.06-0.9C27.153,3070.973,28.353,3071.398,29.394,3072.254z"/>
<path fill="#086E52" d="M41.753,3108.41c-0.72,0.48-1.36,1.721-1.92,3.721c-0.48,1.682-1.581,2.721-3.3,3.119
	c-0.28,0.24-0.581,0.361-0.9,0.361c-0.28,0-0.681-0.102-1.2-0.301c-0.521-0.201-0.88-0.32-1.08-0.359
	c-1.24-0.922-1.86-2.182-1.86-3.781c0-0.357,0.04-0.918,0.12-1.68c0.08-0.76,0.12-1.34,0.12-1.74c0-0.479-0.081-0.918-0.24-1.318
	c0.68-0.641,0.873-1.449,0.579-2.432c-0.293-0.979-0.206-1.789,0.261-2.43c-0.081-0.24-0.12-0.479-0.12-0.719
	c0-0.961,0.62-2.141,1.86-3.541c1.239-0.359,2.64-0.48,4.2-0.359c1.24,1.439,2.06,2.879,2.46,4.32c0.56,0.439,0.84,0.939,0.84,1.5
	c0,0.279-0.09,0.688-0.27,1.229c-0.18,0.539-0.27,0.971-0.27,1.289c0,0.4,0.12,0.781,0.36,1.143c-0.24,0.08-0.36,0.279-0.36,0.6
	c0,0.24,0.02,0.48,0.06,0.721L41.753,3108.41z M38.273,3106.012c0.16-0.199,0.24-0.42,0.24-0.66s-0.441-0.92-1.32-2.039
	c0.84-0.721,1.2-1.74,1.08-3.063c-0.72-0.799-1.66-1.117-2.82-0.959c-0.88,1.041-1.32,2.361-1.32,3.959
	c0,0.281,0.02,0.742,0.06,1.381c0.04,0.641,0.06,1.121,0.06,1.439c0,1.121-0.147,2.1-0.441,2.939
	c-0.065,0.201-0.099,0.4-0.099,0.602c0,0.24,0.06,0.57,0.18,0.99s0.18,0.729,0.18,0.93c0,0.279-0.12,0.539-0.36,0.779
	c0.16,0.158,0.33,0.318,0.51,0.479c0.18,0.16,0.25,0.32,0.21,0.48c1.16,0.199,2.08-0.119,2.76-0.959c0.04-0.16,0.2-0.621,0.48-1.381
	c0.199-0.602,0.3-1.08,0.3-1.439c0-0.16-0.021-0.32-0.06-0.479c0.036-0.4,0.146-0.781,0.327-1.143
	c0.182-0.357,0.273-0.619,0.273-0.779C38.514,3106.813,38.433,3106.451,38.273,3106.012z"/>
<path fill="#086E52" d="M58.132,3108.652c0.08,0.24,0.121,0.459,0.121,0.66c0,0.357-0.191,0.85-0.57,1.469
	c-0.381,0.621-0.591,1.09-0.631,1.41c-1.119,0.32-2.08,0.479-2.879,0.479c-0.801,0-1.4-0.158-1.8-0.479
	c0-0.439-0.311-1.01-0.93-1.709c-0.621-0.699-0.891-1.311-0.81-1.83c0.279-0.08,0.42-0.201,0.42-0.361
	c0-0.119-0.07-0.299-0.21-0.539c-0.141-0.24-0.21-0.42-0.21-0.541c0-0.318,0.12-0.789,0.36-1.41c0.24-0.617,0.36-1.088,0.36-1.408
	c0-0.359-0.101-0.721-0.3-1.08c0-0.279,0-0.602,0-0.959c0-0.641-0.12-1.5-0.36-2.58c-0.24-1.32-0.38-2.16-0.42-2.521
	c-1.48,0.4-2.32,1.939-2.52,4.619c-0.12,1.48-0.6,3.143-1.44,4.98c0.08,0.279,0.12,0.6,0.12,0.961c0,0.357-0.07,0.93-0.21,1.709
	c-0.141,0.779-0.21,1.371-0.21,1.77c0,0.602,0.1,1.143,0.3,1.621c-0.041,0.039-0.23,0.248-0.57,0.629
	c-0.34,0.381-0.63,0.57-0.87,0.57c-0.12,0-0.22-0.039-0.3-0.119c-0.6-0.32-0.8-1.26-0.6-2.82c0.24-1.801,0.199-3-0.12-3.6
	c-0.041-0.4-0.021-1.141,0.06-2.221c0.08-1.279,0.12-2.221,0.12-2.82c0-3.24-0.9-5.119-2.7-5.641c0.04-0.721,0.76-1.539,2.16-2.459
	c0.96,0.359,1.44,1.119,1.44,2.279c0,0.16,0,0.381,0,0.66s0,0.479,0,0.6c0,0.92,0.219,1.643,0.66,2.16
	c0.16,0.041,0.3,0.061,0.42,0.061c0.2,0,0.399-0.141,0.6-0.42l0.42-0.721c-0.2-0.199-0.3-0.439-0.3-0.721
	c0-0.199,0.219-0.799,0.66-1.799c0.279-0.561,0.78-0.949,1.5-1.17c0.72-0.221,1.419-0.41,2.1-0.57c0.879,0.279,1.32,0.76,1.32,1.439
	c0,0.199-0.041,0.51-0.12,0.93c-0.081,0.42-0.12,0.73-0.12,0.93c0,0.563,0.22,1.002,0.66,1.32c0.04,0.32,0.14,1.021,0.3,2.102
	c0.16,0.879,0.24,1.58,0.24,2.1c0,1.121-0.3,2.1-0.9,2.939c0.439,2.121,1.16,3.301,2.16,3.539c0.039-0.078,0.22-0.539,0.54-1.379
	c0.2-0.52,0.5-0.898,0.9-1.141c0.159,0.24,0.519,0.381,1.079,0.42C57.613,3108.031,57.972,3108.252,58.132,3108.652z"/>
<path fill="#086E52" d="M71.632,3108.652c0.08,0.24,0.12,0.459,0.12,0.66c0,0.357-0.19,0.85-0.569,1.469
	c-0.381,0.621-0.592,1.09-0.631,1.41c-1.12,0.32-2.08,0.479-2.88,0.479c-0.801,0-1.4-0.158-1.8-0.479c0-0.439-0.311-1.01-0.93-1.709
	c-0.621-0.699-0.891-1.311-0.811-1.83c0.279-0.08,0.42-0.201,0.42-0.361c0-0.119-0.07-0.299-0.21-0.539
	c-0.141-0.24-0.21-0.42-0.21-0.541c0-0.318,0.12-0.789,0.359-1.41c0.24-0.617,0.361-1.088,0.361-1.408
	c0-0.359-0.102-0.721-0.301-1.08c0-0.279,0-0.602,0-0.959c0-0.641-0.119-1.5-0.359-2.58c-0.24-1.32-0.381-2.16-0.42-2.521
	c-1.48,0.4-2.32,1.939-2.521,4.619c-0.12,1.48-0.601,3.143-1.44,4.98c0.08,0.279,0.121,0.6,0.121,0.961
	c0,0.357-0.07,0.93-0.211,1.709c-0.141,0.779-0.21,1.371-0.21,1.77c0,0.602,0.1,1.143,0.3,1.621c-0.04,0.039-0.23,0.248-0.57,0.629
	c-0.34,0.381-0.629,0.57-0.869,0.57c-0.12,0-0.221-0.039-0.301-0.119c-0.6-0.32-0.8-1.26-0.6-2.82c0.24-1.801,0.199-3-0.119-3.6
	c-0.041-0.4-0.021-1.141,0.06-2.221c0.079-1.279,0.12-2.221,0.12-2.82c0-3.24-0.9-5.119-2.7-5.641
	c0.04-0.721,0.761-1.539,2.159-2.459c0.961,0.359,1.441,1.119,1.441,2.279c0,0.16,0,0.381,0,0.66s0,0.479,0,0.6
	c0,0.92,0.219,1.643,0.659,2.16c0.159,0.041,0.3,0.061,0.42,0.061c0.2,0,0.399-0.141,0.601-0.42l0.42-0.721
	c-0.201-0.199-0.301-0.439-0.301-0.721c0-0.199,0.22-0.799,0.66-1.799c0.279-0.561,0.78-0.949,1.5-1.17
	c0.721-0.221,1.42-0.41,2.1-0.57c0.88,0.279,1.32,0.76,1.32,1.439c0,0.199-0.04,0.51-0.119,0.93c-0.081,0.42-0.121,0.73-0.121,0.93
	c0,0.563,0.221,1.002,0.66,1.32c0.04,0.32,0.141,1.021,0.301,2.102c0.159,0.879,0.24,1.58,0.24,2.1c0,1.121-0.301,2.1-0.9,2.939
	c0.439,2.121,1.16,3.301,2.16,3.539c0.039-0.078,0.219-0.539,0.539-1.379c0.2-0.52,0.5-0.898,0.9-1.141
	c0.16,0.24,0.52,0.381,1.08,0.42C71.113,3108.031,71.472,3108.252,71.632,3108.652z"/>
<path fill="#086E52" d="M83.572,3108.473c0.439,0.199,0.66,0.52,0.66,0.959c0,0.92-0.84,1.949-2.521,3.09
	c-1.681,1.141-3.341,1.711-4.979,1.711c-1.281,0-2.28-0.4-3-1.201c0.039-0.359-0.121-0.801-0.48-1.32
	c-0.359-0.518-0.551-0.908-0.57-1.17c-0.021-0.26-0.189-1.129-0.51-2.607c-0.201-1.08-0.261-1.961-0.18-2.643
	c0.039-0.238-0.081-0.479-0.36-0.719c0.279-0.121,0.399-0.459,0.36-1.021c-0.12-0.119-0.18-0.26-0.18-0.42
	c0-0.199,0.199-0.561,0.6-1.08c0.399-0.52,0.6-0.959,0.6-1.318c0.039-1.563,0.061-3.141,0.061-4.74c0.24-1.84,0.92-3.18,2.039-4.02
	c1.44,0.039,2.859,0.859,4.261,2.459c-0.12,0.52,0.02,1.318,0.42,2.398c0.399,1.08,0.601,1.861,0.601,2.34
	c0,1.32-0.641,1.98-1.92,1.98c-0.281,0-0.791-0.08-1.531-0.24c-0.74-0.158-1.289-0.199-1.649-0.119
	c-0.521,0.08-0.921,0.42-1.2,1.021c-0.681,1.279-0.681,2.799,0,4.559c-0.24,0.082-0.359,0.281-0.359,0.602c0,0.561,0,0.82,0,0.779
	c0.479,0.201,0.72,0.602,0.72,1.199c0,0.361-0.12,0.66-0.36,0.9c1,1.92,1.959,2.881,2.881,2.881c0.439,0,0.879-0.143,1.319-0.42
	c0.56-0.082,1.38-0.66,2.46-1.74c-0.041-0.201-0.18-0.48-0.42-0.84c-0.24-0.361-0.359-0.66-0.359-0.9c0-0.721,0.439-1.08,1.319-1.08
	C81.851,3107.75,82.611,3107.99,83.572,3108.473z M77.572,3098.631c-0.12-0.84-0.261-1.68-0.42-2.52
	c-0.201-1.041-0.761-1.479-1.68-1.32c0.079,0.08,0.119,0.182,0.119,0.301s-0.08,0.301-0.24,0.539c-0.16,0.24-0.24,0.4-0.24,0.48
	c0,0.16,0.121,0.299,0.361,0.42c-0.24,0.08-0.361,0.279-0.361,0.6v0.779c0.2,0.48,0.561,0.721,1.08,0.721
	C76.671,3098.631,77.13,3098.631,77.572,3098.631z"/>
<path fill="#086E52" d="M93.952,3112.461c-0.28,0.699-0.9,1.471-1.86,2.311c-1.4,1.201-2.16,1.898-2.279,2.1
	c-3.479-1.115-5.301-3.25-5.461-6.402c0.199-0.158,0.301-0.34,0.301-0.539c0-0.197-0.12-0.469-0.36-0.807
	c-0.239-0.34-0.379-0.568-0.42-0.689c0.76-1.236,1.142-2.99,1.142-5.266c0-0.238,0-0.607,0-1.107c0-0.498,0-0.887,0-1.166
	c0-3.313,1.199-5.566,3.6-6.764c0.16,0,0.43-0.068,0.811-0.209c0.379-0.141,0.649-0.209,0.811-0.209c0.359,0,0.64,0.219,0.841,0.652
	l-0.36,0.357c0.641,0.238,1.239,0.791,1.801,1.664c0.56,0.871,0.84,1.684,0.84,2.436c0,0.396-0.08,0.732-0.24,1.012
	c-0.479,0.039-0.939,0.059-1.379,0.059c-0.563,0-0.941-0.217-1.141-0.648c0.239-0.158,0.35-0.502,0.329-1.033
	s0.069-0.875,0.271-1.033c-0.283-0.67-0.629-1.004-1.033-1.004c-0.244,0-0.648,0.189-1.217,0.568s-0.994,0.588-1.276,0.627
	c-0.649,0.639-0.974,1.477-0.974,2.512c0,0.439,0.09,1.139,0.271,2.094c0.181,0.957,0.271,1.676,0.271,2.154
	c0,0.637-0.12,1.195-0.36,1.674c-0.64,0.119-0.959,0.398-0.959,0.838c0,0.158,0.079,0.457,0.24,0.896
	c0.157,0.438,0.239,0.777,0.239,1.016c0,0.32-0.121,0.58-0.36,0.779l0.36,0.357l-0.301,0.357c0.439,0.16,0.699,0.6,0.779,1.316
	c0.08,0.918,0.221,1.494,0.42,1.734c0.24,0.357,0.5,0.797,0.781,1.314c0.158,0.238,0.299,0.359,0.42,0.359
	c0.158,0,0.619-0.121,1.379-0.361c0.121-0.199,0.451-0.5,0.99-0.898c0.541-0.4,0.811-0.76,0.811-1.08c0-0.16-0.061-0.359-0.18-0.602
	c-0.321-0.6-0.48-0.959-0.48-1.08c-0.041-0.158,0.08-0.578,0.359-1.26l0.24-0.479c0.16-0.439,0.32-0.66,0.48-0.66
	c0.079,0,0.299,0.17,0.659,0.51c0.358,0.34,0.72,0.471,1.08,0.391c0.358,0.201,0.54,0.621,0.54,1.262
	C94.372,3111.111,94.23,3111.762,93.952,3112.461z"/>
<path fill="#086E52" d="M104.751,3107.75c0.601,0.521,0.899,1.121,0.899,1.801c0,0.521-0.42,1.561-1.26,3.121
	c-0.642,1.199-1.642,1.801-3,1.801c-0.521,0-1.381-0.143-2.58-0.422c-0.961-1.119-1.521-2.678-1.681-4.68
	c0-0.119-0.021-1.818-0.062-5.1c0.279-0.279,0.399-0.52,0.361-0.721c-0.24-0.08-0.361-0.199-0.361-0.359
	c0-0.039,0.221-0.381,0.66-1.021c-0.039-0.199-0.06-0.42-0.06-0.658c0-0.281,0.069-0.701,0.21-1.262s0.21-0.959,0.21-1.199
	c0-0.398-0.12-0.76-0.36-1.08c-0.239,0-0.59,0.09-1.049,0.271c-0.461,0.18-0.791,0.27-0.99,0.27c-0.44,0-0.801-0.301-1.08-0.898
	c0.041-0.602-0.08-0.961-0.359-1.08c0.119-0.879,0.949-1.391,2.488-1.531c1.541-0.139,2.312-0.488,2.312-1.049
	c0-0.4-0.2-0.939-0.601-1.621c0.24-0.078,0.359-0.279,0.359-0.6c0-0.561,0-0.82,0-0.781c-0.039-0.197-0.039-0.799,0-1.799
	c0.039-0.76-0.08-1.34-0.359-1.74c-0.52,0.24-1.221,0.721-2.1,1.439c-0.281-0.359-0.42-0.74-0.42-1.141
	c0-0.359,0.139-0.77,0.42-1.229c0.278-0.461,0.398-0.73,0.359-0.813l-0.359-0.357c0.438-0.48,0.998-0.721,1.68-0.721
	c0.68,0,1.279,0.238,1.801,0.721c0.52,0.479,0.759,1.08,0.72,1.799c0.039,1.24,0.06,2.5,0.06,3.781c0,1.559-0.26,2.74-0.778,3.539
	c0.239,0.041,0.608,0.17,1.108,0.391s0.871,0.33,1.11,0.33c0.399,0,0.72-0.24,0.96-0.721c0.6-0.039,0.949,0.07,1.051,0.33
	c0.1,0.26,0.149,0.49,0.149,0.689c0,0.682-0.562,1.301-1.681,1.859c-1.4,0.682-2.182,1.121-2.34,1.32
	c-0.24,1.121-0.479,2.24-0.721,3.359c-0.279,1.32-0.42,2.422-0.42,3.301c0,0.959,0.159,1.898,0.479,2.82
	c-0.039,0.561,0.062,0.92,0.302,1.08c0,0.561-0.021,1.119-0.062,1.68c0.039,0.68,0.301,1.16,0.78,1.439
	c1.08,0.119,1.72-0.262,1.92-1.141c0.079-0.801,0.199-1.609,0.36-2.43C102.991,3107.922,103.63,3107.592,104.751,3107.75z"/>
<path fill="#FFFFFF" d="M29.394,11.254c-0.201,0.529-0.66,1.242-1.38,2.138c-1.2-1-1.98-1.5-2.34-1.5c-0.321,0-0.72,0.12-1.2,0.36
	c-1.281,0.721-2.1,1.843-2.46,3.365c-0.561,2.403-0.9,3.746-1.02,4.025c0,0.521,0.06,0.971,0.18,1.352
	c0.12,0.381,0.18,0.592,0.18,0.631c0,0.201-0.36,0.702-1.08,1.503l0.72,0.36v0.721c-0.561-0.08-0.92,0.04-1.08,0.361
	c0.52,1.041,0.78,1.702,0.78,1.982c0,0.16-0.021,0.32-0.06,0.481c-0.521,0.2-0.76,0.9-0.72,2.103c0,0.16,0,0.36,0,0.601
	c0,0.281-0.06,0.692-0.18,1.232c-0.12,0.541-0.18,0.951-0.18,1.231c0,0.401,0.102,0.782,0.309,1.142
	c-0.035,0.441-0.018,1.903,0.051,4.387c0,1.803-0.12,3.265-0.36,4.386c0.159,0.923,0.759,2.686,1.8,5.287
	c-0.12,0.162-0.18,0.342-0.18,0.541c0,0.361,0.3,0.883,0.9,1.563c0.6,0.683,0.939,1.142,1.02,1.382c-0.24,0.121-0.36,0.28-0.36,0.48
	c0,0.119,0.109,0.33,0.33,0.631c0.22,0.301,0.35,0.512,0.39,0.631c2.08-0.76,3.459-1.479,4.14-2.158
	c0.439-0.441,0.66-1.021,0.66-1.74c0-0.08,0-0.17,0-0.271c0-0.1,0-0.169,0-0.21c0-0.84,0.26-1.599,0.78-2.278
	c1.08,0.879,1.62,1.84,1.62,2.879c0,1.319-0.711,2.521-2.13,3.601c-1.42,1.079-2.77,1.62-4.05,1.62c-1-0.041-1.92-0.701-2.76-1.982
	c-1.161-1.763-1.881-2.742-2.16-2.943c-1.041-3.444-1.56-7.711-1.56-12.798c0-3.885,0.3-7.59,0.9-11.115
	c0.24-1.48,0.35-3.123,0.33-4.926c-0.021-1.802,0.29-3.465,0.93-4.987c0.439-1.121,1.299-2.604,2.58-4.446
	c0.919-0.6,1.939-0.9,3.06-0.9C27.153,9.972,28.353,10.399,29.394,11.254z"/>
<path fill="#FFFFFF" d="M41.753,47.411c-0.72,0.479-1.36,1.721-1.92,3.72c-0.48,1.682-1.581,2.721-3.3,3.12
	c-0.28,0.24-0.581,0.36-0.9,0.36c-0.28,0-0.681-0.102-1.2-0.301c-0.521-0.201-0.88-0.32-1.08-0.359
	c-1.24-0.922-1.86-2.182-1.86-3.78c0-0.358,0.04-0.919,0.12-1.68c0.08-0.761,0.12-1.341,0.12-1.74c0-0.479-0.081-0.919-0.24-1.319
	c0.68-0.64,0.873-1.449,0.579-2.431c-0.293-0.979-0.206-1.789,0.261-2.431c-0.081-0.239-0.12-0.479-0.12-0.719
	c0-0.96,0.62-2.14,1.86-3.54c1.239-0.36,2.64-0.48,4.2-0.36c1.24,1.44,2.06,2.88,2.46,4.32c0.56,0.439,0.84,0.939,0.84,1.5
	c0,0.279-0.09,0.688-0.27,1.229c-0.18,0.54-0.27,0.971-0.27,1.29c0,0.399,0.12,0.78,0.36,1.142c-0.24,0.08-0.36,0.279-0.36,0.6
	c0,0.24,0.02,0.48,0.06,0.72L41.753,47.411z M38.273,45.012c0.16-0.199,0.24-0.421,0.24-0.66c0-0.24-0.441-0.92-1.32-2.039
	c0.84-0.722,1.2-1.74,1.08-3.062c-0.72-0.8-1.66-1.119-2.82-0.96c-0.88,1.041-1.32,2.361-1.32,3.96c0,0.28,0.02,0.741,0.06,1.38
	c0.04,0.641,0.06,1.121,0.06,1.439c0,1.121-0.147,2.101-0.441,2.941c-0.065,0.199-0.099,0.398-0.099,0.6c0,0.24,0.06,0.57,0.18,0.99
	s0.18,0.729,0.18,0.93c0,0.279-0.12,0.539-0.36,0.779c0.16,0.16,0.33,0.319,0.51,0.479c0.18,0.159,0.25,0.319,0.21,0.479
	c1.16,0.199,2.08-0.119,2.76-0.959c0.04-0.16,0.2-0.621,0.48-1.381c0.199-0.601,0.3-1.08,0.3-1.439c0-0.159-0.021-0.319-0.06-0.479
	c0.036-0.4,0.146-0.781,0.327-1.142c0.182-0.358,0.273-0.619,0.273-0.78C38.514,45.813,38.433,45.452,38.273,45.012z"/>
<path fill="#FFFFFF" d="M58.132,47.652c0.08,0.24,0.121,0.459,0.121,0.66c0,0.358-0.191,0.85-0.57,1.469
	c-0.381,0.621-0.591,1.091-0.631,1.41c-1.119,0.32-2.08,0.479-2.879,0.479c-0.801,0-1.4-0.159-1.8-0.479
	c0-0.439-0.311-1.01-0.93-1.709c-0.621-0.699-0.891-1.311-0.81-1.83c0.279-0.08,0.42-0.2,0.42-0.36c0-0.12-0.07-0.3-0.21-0.54
	c-0.141-0.238-0.21-0.42-0.21-0.54c0-0.319,0.12-0.789,0.36-1.409c0.24-0.619,0.36-1.09,0.36-1.41c0-0.359-0.101-0.721-0.3-1.08
	c0-0.278,0-0.601,0-0.959c0-0.641-0.12-1.5-0.36-2.581c-0.24-1.32-0.38-2.16-0.42-2.521c-1.48,0.4-2.32,1.94-2.52,4.62
	c-0.12,1.479-0.6,3.142-1.44,4.979c0.08,0.28,0.12,0.601,0.12,0.961c0,0.358-0.07,0.93-0.21,1.709
	c-0.141,0.779-0.21,1.371-0.21,1.771c0,0.601,0.1,1.142,0.3,1.62c-0.041,0.039-0.23,0.249-0.57,0.63
	c-0.34,0.38-0.63,0.569-0.87,0.569c-0.12,0-0.22-0.039-0.3-0.119c-0.6-0.32-0.8-1.26-0.6-2.82c0.24-1.8,0.199-3-0.12-3.6
	c-0.041-0.399-0.021-1.141,0.06-2.221c0.08-1.279,0.12-2.221,0.12-2.82c0-3.239-0.9-5.119-2.7-5.639c0.04-0.721,0.76-1.54,2.16-2.46
	c0.96,0.359,1.44,1.12,1.44,2.279c0,0.16,0,0.381,0,0.66c0,0.28,0,0.48,0,0.601c0,0.92,0.219,1.641,0.66,2.159
	c0.16,0.041,0.3,0.061,0.42,0.061c0.2,0,0.399-0.14,0.6-0.42l0.42-0.721c-0.2-0.199-0.3-0.439-0.3-0.72c0-0.199,0.219-0.8,0.66-1.8
	c0.279-0.56,0.78-0.949,1.5-1.17c0.72-0.22,1.419-0.41,2.1-0.57c0.879,0.28,1.32,0.761,1.32,1.44c0,0.2-0.041,0.51-0.12,0.93
	c-0.081,0.42-0.12,0.73-0.12,0.93c0,0.562,0.22,1.001,0.66,1.32c0.04,0.32,0.14,1.021,0.3,2.101c0.16,0.881,0.24,1.58,0.24,2.1
	c0,1.121-0.3,2.101-0.9,2.939c0.439,2.121,1.16,3.301,2.16,3.54c0.039-0.079,0.22-0.54,0.54-1.38c0.2-0.52,0.5-0.898,0.9-1.141
	c0.159,0.24,0.519,0.382,1.079,0.42C57.613,47.031,57.972,47.252,58.132,47.652z"/>
<path fill="#FFFFFF" d="M71.632,47.652c0.08,0.24,0.12,0.459,0.12,0.66c0,0.358-0.19,0.85-0.569,1.469
	c-0.381,0.621-0.592,1.091-0.631,1.41c-1.12,0.32-2.08,0.479-2.88,0.479c-0.801,0-1.4-0.159-1.8-0.479
	c0-0.439-0.311-1.01-0.93-1.709c-0.621-0.699-0.891-1.311-0.811-1.83c0.279-0.08,0.42-0.2,0.42-0.36c0-0.12-0.07-0.3-0.21-0.54
	c-0.141-0.238-0.21-0.42-0.21-0.54c0-0.319,0.12-0.789,0.359-1.409c0.24-0.619,0.361-1.09,0.361-1.41
	c0-0.359-0.102-0.721-0.301-1.08c0-0.278,0-0.601,0-0.959c0-0.641-0.119-1.5-0.359-2.581c-0.24-1.32-0.381-2.16-0.42-2.521
	c-1.48,0.4-2.32,1.94-2.521,4.62c-0.12,1.479-0.601,3.142-1.44,4.979c0.08,0.28,0.121,0.601,0.121,0.961
	c0,0.358-0.07,0.93-0.211,1.709c-0.141,0.779-0.21,1.371-0.21,1.771c0,0.601,0.1,1.142,0.3,1.62c-0.04,0.039-0.23,0.249-0.57,0.63
	c-0.34,0.38-0.629,0.569-0.869,0.569c-0.12,0-0.221-0.039-0.301-0.119c-0.6-0.32-0.8-1.26-0.6-2.82c0.24-1.8,0.199-3-0.119-3.6
	c-0.041-0.399-0.021-1.141,0.06-2.221c0.079-1.279,0.12-2.221,0.12-2.82c0-3.239-0.9-5.119-2.7-5.639
	c0.04-0.721,0.761-1.54,2.159-2.46c0.961,0.359,1.441,1.12,1.441,2.279c0,0.16,0,0.381,0,0.66c0,0.28,0,0.48,0,0.601
	c0,0.92,0.219,1.641,0.659,2.159c0.159,0.041,0.3,0.061,0.42,0.061c0.2,0,0.399-0.14,0.601-0.42l0.42-0.721
	c-0.201-0.199-0.301-0.439-0.301-0.72c0-0.199,0.22-0.8,0.66-1.8c0.279-0.56,0.78-0.949,1.5-1.17c0.721-0.22,1.42-0.41,2.1-0.57
	c0.88,0.28,1.32,0.761,1.32,1.44c0,0.2-0.04,0.51-0.119,0.93c-0.081,0.42-0.121,0.73-0.121,0.93c0,0.562,0.221,1.001,0.66,1.32
	c0.04,0.32,0.141,1.021,0.301,2.101c0.159,0.881,0.24,1.58,0.24,2.1c0,1.121-0.301,2.101-0.9,2.939
	c0.439,2.121,1.16,3.301,2.16,3.54c0.039-0.079,0.219-0.54,0.539-1.38c0.2-0.52,0.5-0.898,0.9-1.141c0.16,0.24,0.52,0.382,1.08,0.42
	C71.113,47.031,71.472,47.252,71.632,47.652z"/>
<path fill="#FFFFFF" d="M83.572,47.473c0.439,0.199,0.66,0.52,0.66,0.959c0,0.92-0.84,1.949-2.521,3.09
	c-1.681,1.141-3.341,1.711-4.979,1.711c-1.281,0-2.28-0.4-3-1.201c0.039-0.359-0.121-0.801-0.48-1.319s-0.551-0.909-0.57-1.17
	c-0.021-0.261-0.189-1.13-0.51-2.608c-0.201-1.08-0.261-1.961-0.18-2.642c0.039-0.239-0.081-0.479-0.36-0.72
	c0.279-0.12,0.399-0.459,0.36-1.021c-0.12-0.119-0.18-0.259-0.18-0.42c0-0.199,0.199-0.561,0.6-1.08c0.399-0.52,0.6-0.96,0.6-1.319
	c0.039-1.561,0.061-3.14,0.061-4.74c0.24-1.839,0.92-3.18,2.039-4.02c1.44,0.04,2.859,0.86,4.261,2.46
	c-0.12,0.52,0.02,1.319,0.42,2.399c0.399,1.08,0.601,1.86,0.601,2.34c0,1.32-0.641,1.979-1.92,1.979
	c-0.281,0-0.791-0.08-1.531-0.239c-0.74-0.159-1.289-0.199-1.649-0.12c-0.521,0.081-0.921,0.42-1.2,1.021
	c-0.681,1.279-0.681,2.799,0,4.56c-0.24,0.081-0.359,0.28-0.359,0.601c0,0.562,0,0.82,0,0.779c0.479,0.201,0.72,0.602,0.72,1.2
	c0,0.36-0.12,0.659-0.36,0.899c1,1.92,1.959,2.881,2.881,2.881c0.439,0,0.879-0.142,1.319-0.42c0.56-0.082,1.38-0.66,2.46-1.74
	c-0.041-0.2-0.18-0.48-0.42-0.84c-0.24-0.36-0.359-0.66-0.359-0.9c0-0.721,0.439-1.08,1.319-1.08
	C81.851,46.751,82.611,46.991,83.572,47.473z M77.572,37.631c-0.12-0.84-0.261-1.68-0.42-2.52c-0.201-1.04-0.761-1.479-1.68-1.32
	c0.079,0.081,0.119,0.181,0.119,0.3c0,0.12-0.08,0.301-0.24,0.54c-0.16,0.24-0.24,0.4-0.24,0.48c0,0.16,0.121,0.3,0.361,0.42
	c-0.24,0.081-0.361,0.28-0.361,0.6v0.78c0.2,0.48,0.561,0.72,1.08,0.72C76.671,37.631,77.13,37.631,77.572,37.631z"/>
<path fill="#FFFFFF" d="M93.952,51.461c-0.28,0.699-0.9,1.471-1.86,2.311c-1.4,1.201-2.16,1.899-2.279,2.101
	c-3.479-1.117-5.301-3.251-5.461-6.403c0.199-0.158,0.301-0.339,0.301-0.539c0-0.197-0.12-0.468-0.36-0.807
	c-0.239-0.34-0.379-0.568-0.42-0.689c0.76-1.236,1.142-2.99,1.142-5.266c0-0.238,0-0.607,0-1.107c0-0.498,0-0.888,0-1.167
	c0-3.312,1.199-5.565,3.6-6.763c0.16,0,0.43-0.069,0.811-0.209c0.379-0.14,0.649-0.21,0.811-0.21c0.359,0,0.64,0.219,0.841,0.653
	l-0.36,0.357c0.641,0.238,1.239,0.792,1.801,1.664c0.56,0.872,0.84,1.684,0.84,2.436c0,0.396-0.08,0.733-0.24,1.011
	c-0.479,0.039-0.939,0.06-1.379,0.06c-0.563,0-0.941-0.217-1.141-0.65c0.239-0.157,0.35-0.501,0.329-1.033
	c-0.021-0.53,0.069-0.875,0.271-1.032c-0.283-0.67-0.629-1.005-1.033-1.005c-0.244,0-0.648,0.189-1.217,0.568
	c-0.568,0.379-0.994,0.589-1.276,0.628c-0.649,0.639-0.974,1.476-0.974,2.512c0,0.438,0.09,1.139,0.271,2.094
	c0.181,0.957,0.271,1.676,0.271,2.153c0,0.638-0.12,1.196-0.36,1.675c-0.64,0.119-0.959,0.398-0.959,0.838
	c0,0.158,0.079,0.457,0.24,0.896c0.157,0.438,0.239,0.777,0.239,1.016c0,0.32-0.121,0.579-0.36,0.778l0.36,0.358l-0.301,0.357
	c0.439,0.16,0.699,0.6,0.779,1.316c0.08,0.916,0.221,1.494,0.42,1.734c0.24,0.357,0.5,0.797,0.781,1.314
	c0.158,0.238,0.299,0.359,0.42,0.359c0.158,0,0.619-0.121,1.379-0.36c0.121-0.2,0.451-0.501,0.99-0.899
	c0.541-0.4,0.811-0.761,0.811-1.08c0-0.16-0.061-0.359-0.18-0.601c-0.321-0.601-0.48-0.96-0.48-1.08
	c-0.041-0.159,0.08-0.579,0.359-1.26l0.24-0.479c0.16-0.439,0.32-0.66,0.48-0.66c0.079,0,0.299,0.17,0.659,0.51
	c0.358,0.341,0.72,0.472,1.08,0.391c0.358,0.201,0.54,0.621,0.54,1.262C94.372,50.111,94.23,50.762,93.952,51.461z"/>
<path fill="#FFFFFF" d="M104.751,46.751c0.601,0.521,0.899,1.12,0.899,1.8c0,0.521-0.42,1.561-1.26,3.12
	c-0.642,1.2-1.642,1.802-3,1.802c-0.521,0-1.381-0.142-2.58-0.422c-0.961-1.119-1.521-2.679-1.681-4.68
	c0-0.12-0.021-1.818-0.062-5.1c0.279-0.279,0.399-0.521,0.361-0.722c-0.24-0.079-0.361-0.198-0.361-0.358
	c0-0.039,0.221-0.381,0.66-1.021c-0.039-0.199-0.06-0.42-0.06-0.658c0-0.281,0.069-0.701,0.21-1.262c0.141-0.56,0.21-0.96,0.21-1.2
	c0-0.398-0.12-0.759-0.36-1.079c-0.239,0-0.59,0.09-1.049,0.27c-0.461,0.18-0.791,0.271-0.99,0.271c-0.44,0-0.801-0.301-1.08-0.9
	c0.041-0.6-0.08-0.96-0.359-1.08c0.119-0.879,0.949-1.39,2.488-1.53c1.541-0.14,2.312-0.489,2.312-1.05
	c0-0.399-0.2-0.939-0.601-1.62c0.24-0.079,0.359-0.279,0.359-0.6c0-0.56,0-0.819,0-0.78c-0.039-0.199-0.039-0.8,0-1.8
	c0.039-0.76-0.08-1.34-0.359-1.74c-0.52,0.24-1.221,0.72-2.1,1.44c-0.281-0.36-0.42-0.74-0.42-1.141c0-0.359,0.139-0.77,0.42-1.229
	c0.278-0.46,0.398-0.729,0.359-0.811l-0.359-0.359c0.438-0.48,0.998-0.721,1.68-0.721c0.68,0,1.279,0.24,1.801,0.721
	c0.52,0.479,0.759,1.08,0.72,1.8c0.039,1.24,0.06,2.5,0.06,3.78c0,1.56-0.26,2.74-0.778,3.54c0.239,0.04,0.608,0.17,1.108,0.39
	c0.5,0.221,0.871,0.33,1.11,0.33c0.399,0,0.72-0.24,0.96-0.72c0.6-0.04,0.949,0.07,1.051,0.33c0.1,0.26,0.149,0.49,0.149,0.689
	c0,0.681-0.562,1.301-1.681,1.86c-1.4,0.681-2.182,1.12-2.34,1.319c-0.24,1.121-0.479,2.241-0.721,3.36
	c-0.279,1.32-0.42,2.421-0.42,3.3c0,0.96,0.159,1.899,0.479,2.819c-0.039,0.562,0.062,0.922,0.302,1.08
	c0,0.562-0.021,1.121-0.062,1.681c0.039,0.68,0.301,1.159,0.78,1.44c1.08,0.119,1.72-0.262,1.92-1.142
	c0.079-0.8,0.199-1.608,0.36-2.431C102.991,46.922,103.63,46.592,104.751,46.751z"/>
</svg>
