<?xml version="1.0" encoding="utf-8"?>
<!-- Generator: Adobe Illustrator 15.1.0, SVG Export Plug-In . SVG Version: 6.00 Build 0)  -->
<!DOCTYPE svg PUBLIC "-//W3C//DTD SVG 1.1//EN" "http://www.w3.org/Graphics/SVG/1.1/DTD/svg11.dtd">
<svg version="1.1" id="Ebene_1" xmlns="http://www.w3.org/2000/svg" xmlns:xlink="http://www.w3.org/1999/xlink" x="0px" y="0px"
	 width="142.676px" height="74.389px" viewBox="0 0 142.676 74.389" enable-background="new 0 0 142.676 74.389"
	 xml:space="preserve">
<g id="Ebene_2">
</g>
<g id="Ebene_3">
</g>
<path fill="#086E52" d="M61.328,51.595c-0.76,1.32-1.55,2.619-2.37,3.899c-0.82,1.28-2.031,2.08-3.63,2.4
	c-0.44,0.12-0.84,0.18-1.2,0.18c-1.24,0-2.31-0.561-3.21-1.68c-0.9-1.12-1.77-2.24-2.61-3.36c-0.36-1.159-0.72-2.299-1.08-3.42
	c-0.4-1.359-0.6-2.52-0.6-3.479c0-1.239,0.339-2.34,1.02-3.3c-0.321-0.279-0.48-0.58-0.48-0.9c0-0.279,0.14-0.68,0.42-1.2
	c0.279-0.52,0.42-0.92,0.42-1.2c0-0.319-0.12-0.619-0.36-0.899c0.24-0.72,0.36-1.68,0.36-2.88c0-0.279,0-0.699,0-1.261
	c0-0.56,0-0.96,0-1.199c0-2.96,1.16-4.681,3.48-5.16c-0.64-0.56-1.42-1.84-2.34-3.84c-0.84-1.88-1.341-3.301-1.5-4.261
	c-0.041-0.079,0.009-0.249,0.15-0.51c0.14-0.26,0.21-0.429,0.21-0.51c0-0.159-0.12-0.279-0.36-0.36c0.399-3,1.8-5.22,4.2-6.66
	c0.52-0.039,1-0.06,1.44-0.06c2.239,0,3.81,0.561,4.71,1.68c0.9,1.121,1.31,2.921,1.23,5.4c-0.161,0.081-0.48,0.4-0.96,0.96
	c-0.48,0.561-0.88,0.84-1.2,0.84c-0.561,0-0.84-0.279-0.84-0.84c0-0.24,0.169-0.609,0.51-1.11c0.339-0.499,0.51-0.87,0.51-1.109
	c0-0.2-0.041-0.36-0.12-0.48c0.2-0.079,0.3-0.199,0.3-0.359c0-0.12-0.049-0.301-0.148-0.54c-0.099-0.24-0.147-0.42-0.147-0.54
	c-0.355-0.68-1.006-1.18-1.951-1.5c-1.182-0.399-1.93-0.721-2.245-0.96c-0.631,0.52-1.282,1.08-1.951,1.68
	c-0.67,0.6-0.926,1.341-0.768,2.22c-0.634,0.36-0.831,0.96-0.592,1.8c0.236,0.96,0.197,1.641-0.118,2.04
	c0.508,1.121,1.642,3.101,3.401,5.94c0.782-0.12,1.368,0.12,1.759,0.72c0.08,0.48-0.123,0.881-0.607,1.2
	c-0.688,0.36-1.093,0.66-1.214,0.9c-1.215-0.08-2.268,0.62-3.158,2.1l0.42,0.36c-0.4,0.239-0.6,0.58-0.6,1.02
	c0,0.201,0.03,0.501,0.09,0.9c0.06,0.4,0.09,0.7,0.09,0.899c0,0.441-0.06,0.78-0.18,1.021c0.12,0.2,0.18,0.42,0.18,0.66
	c0,0.2-0.102,0.51-0.303,0.93c-0.202,0.42-0.321,0.711-0.357,0.87c0.44,0.681,0.66,1.48,0.66,2.399c0,0.521-0.115,1.351-0.345,2.49
	c-0.23,1.141-0.345,1.971-0.345,2.49c-0.46,0.24-0.69,0.94-0.69,2.1l0.72,0.721l-0.36,0.3c1.2,2,1.8,3.3,1.8,3.899
	c0,0.44-0.12,0.78-0.36,1.021c0.48,0.159,1.26,0.619,2.34,1.38c0.879,0.64,1.68,0.96,2.4,0.96c0.36,0,0.76-0.08,1.2-0.24
	c0.8-0.28,1.31-0.85,1.53-1.71c0.22-0.86,0.41-1.689,0.57-2.489c-0.24-0.16-0.36-0.34-0.36-0.54s0.109-0.47,0.33-0.811
	c0.22-0.339,0.35-0.59,0.39-0.75c0.56,0.16,1.14,0.351,1.74,0.57C60.848,50.645,61.208,51.035,61.328,51.595z"/>
<path fill="#086E52" d="M78.128,53.275c0.159,1.64-1.12,3.159-3.841,4.561c-1.799-0.561-2.979-1.721-3.539-3.48
	c0.319-0.16,0.439-0.521,0.359-1.08l-0.72-0.72l0.36-0.36l-1.381-6.3c0.2,0.081,0.44-0.039,0.721-0.36
	c-0.24-0.479-0.641-0.72-1.2-0.72c-0.4,0-0.72,0.141-0.96,0.42c-0.16,1.161-0.7,2.74-1.62,4.74c-1,2.16-1.62,3.72-1.86,4.68
	c-1.16-0.12-1.739-0.52-1.739-1.199c0-0.321,0.189-0.891,0.57-1.711c0.38-0.819,0.57-1.43,0.57-1.829c0-0.16,0-0.32,0-0.48
	c0.679-0.24,1.056-0.879,1.132-1.92c0.075-1.04,0.358-1.7,0.849-1.98c-0.041-0.119-0.061-0.259-0.061-0.42
	c0-0.319,0.38-0.879,1.141-1.68c-0.041-0.439,0.068-1.119,0.33-2.04c0.26-0.92,0.39-1.56,0.39-1.92c0-0.879-0.479-1.539-1.44-1.98
	c0.08-0.159,0.12-0.319,0.12-0.479c0-0.36-0.16-0.76-0.479-1.2c-0.4-0.6-0.621-0.979-0.66-1.14c-0.24-0.12-0.441-0.181-0.6-0.181
	c-0.281,0-0.551,0.231-0.811,0.69c-0.261,0.46-0.49,0.69-0.69,0.69c-0.201,0-0.441-0.16-0.72-0.48c-0.519-0.24-0.78-0.579-0.78-1.02
	c0-0.52,0.31-1.021,0.93-1.5c0.62-0.48,1.29-0.721,2.01-0.721c0.24,0,0.459,0.021,0.66,0.061c0.52,0.16,1.119,0.86,1.8,2.1
	c0.68,1.24,1.319,1.86,1.92,1.86c0.159,0,0.319-0.02,0.479-0.061c0.279-0.439,0.561-1.62,0.841-3.54
	c0.239-1.479,0.899-2.419,1.979-2.819l0.301,0.72c0.039,0.921-0.061,1.66-0.301,2.22c-0.359,0.801-0.959,1.12-1.8,0.96l-0.3,0.36
	c0.08,0.24,0.199,0.36,0.359,0.36c0.121,0,0.29-0.08,0.511-0.24c0.22-0.159,0.409-0.24,0.569-0.24c0.08,0,0.181,0.04,0.301,0.12
	c-1.041,3-1.561,4.84-1.561,5.52c0,0.4,0,0.78,0,1.141c-0.16,0.2-0.24,0.42-0.24,0.66c0,0.16,0.11,0.43,0.33,0.81
	c0.22,0.381,0.33,0.65,0.33,0.811c0,0.2-0.141,0.359-0.42,0.479c0.499,0.561,0.85,1.5,1.055,2.82
	c0.203,1.319,0.531,2.26,0.985,2.819l-0.479,0.36c0.72,0.36,1.08,0.82,1.08,1.38c0,0.28-0.101,0.69-0.301,1.23s-0.3,0.93-0.3,1.17
	c0,0.6,0.421,1.08,1.261,1.439c0.239,0.12,0.459,0.181,0.66,0.181c0.519,0,1.049-0.381,1.59-1.141
	c0.539-0.759,0.949-1.14,1.229-1.14C77.367,52.555,77.728,52.795,78.128,53.275z"/>
<path fill="#086E52" d="M80.827,25.135l-0.72,2.1c-0.041-0.039-0.76-0.18-2.16-0.42c-0.84-0.159-1.16-0.72-0.96-1.68
	c0.52-0.76,1.3-1.141,2.34-1.141C80.168,23.994,80.667,24.375,80.827,25.135z M84.367,53.875c0.039,0.159,0.061,0.339,0.061,0.54
	c0,0.319-0.121,0.77-0.36,1.35c-0.24,0.579-0.381,0.99-0.42,1.229c-0.521,0.28-1.041,0.421-1.56,0.421
	c-1.361,0-2.721-0.841-4.08-2.521c0.439-0.2,0.669-0.72,0.689-1.56c0.02-0.841,0.27-1.359,0.75-1.561
	c-0.641-0.72-0.83-1.85-0.57-3.39c0.26-1.539,0.211-2.63-0.15-3.271c0.48-1.08,0.76-2.52,0.841-4.319c0.12-2.8,0.2-4.28,0.239-4.44
	c-0.2-0.36-0.62-0.64-1.26-0.84c-0.641-0.2-1.04-0.52-1.199-0.96c0.439-0.319,0.879-0.64,1.32-0.96c0.6-0.439,1.079-0.66,1.439-0.66
	c0.48,0,0.84,0.32,1.08,0.96l-0.721,0.66c1.04,0.24,1.561,0.76,1.561,1.56c0,0.201-0.051,0.551-0.15,1.051s-0.15,0.891-0.15,1.17
	c0,0.32,0.1,0.58,0.301,0.779c-0.641,1.281-0.94,3.021-0.9,5.221c0.039,3.84,0.061,5.62,0.061,5.34c-0.48,0.28-0.721,0.6-0.721,0.96
	c0,0.28,0.17,0.7,0.51,1.26c0.34,0.561,0.53,0.98,0.57,1.26c0.52,0,1.021-0.021,1.5-0.06C83.566,53.134,84.008,53.395,84.367,53.875
	z"/>
<path fill="#086E52" d="M94.447,49.195c0.6,0.521,0.9,1.12,0.9,1.8c0,0.521-0.42,1.561-1.26,3.12c-0.641,1.2-1.641,1.801-3,1.801
	c-0.521,0-1.381-0.141-2.58-0.421c-0.961-1.12-1.521-2.679-1.681-4.68c0-0.12-0.021-1.819-0.06-5.1
	c0.279-0.279,0.398-0.52,0.359-0.721c-0.24-0.079-0.359-0.199-0.359-0.359c0-0.039,0.219-0.38,0.66-1.021
	c-0.041-0.199-0.061-0.42-0.061-0.659c0-0.28,0.069-0.7,0.21-1.261c0.14-0.56,0.21-0.96,0.21-1.2c0-0.398-0.119-0.759-0.359-1.079
	c-0.24,0-0.591,0.09-1.051,0.27s-0.79,0.271-0.99,0.271c-0.439,0-0.8-0.301-1.08-0.9c0.041-0.6-0.079-0.96-0.359-1.08
	c0.12-0.879,0.949-1.39,2.49-1.53c1.539-0.14,2.311-0.489,2.311-1.05c0-0.399-0.201-0.939-0.601-1.62
	c0.239-0.079,0.36-0.279,0.36-0.6c0-0.56,0-0.819,0-0.78c-0.041-0.199-0.041-0.8,0-1.8c0.039-0.76-0.081-1.34-0.36-1.74
	c-0.521,0.24-1.221,0.72-2.101,1.44c-0.279-0.36-0.42-0.74-0.42-1.141c0-0.359,0.141-0.77,0.42-1.229s0.4-0.729,0.36-0.811
	l-0.36-0.359c0.439-0.48,1-0.721,1.681-0.721c0.68,0,1.279,0.24,1.8,0.721c0.52,0.479,0.76,1.08,0.721,1.8
	c0.039,1.24,0.059,2.5,0.059,3.78c0,1.56-0.26,2.74-0.779,3.54c0.24,0.04,0.609,0.17,1.109,0.39c0.5,0.221,0.871,0.33,1.111,0.33
	c0.398,0,0.719-0.24,0.959-0.72c0.6-0.04,0.95,0.07,1.051,0.33c0.1,0.26,0.149,0.49,0.149,0.689c0,0.681-0.561,1.301-1.68,1.86
	c-1.401,0.681-2.181,1.12-2.341,1.319c-0.239,1.121-0.479,2.241-0.719,3.36c-0.281,1.32-0.42,2.421-0.42,3.3
	c0,0.96,0.158,1.9,0.479,2.82c-0.04,0.561,0.06,0.921,0.3,1.08c0,0.561-0.021,1.12-0.061,1.68c0.04,0.68,0.301,1.16,0.781,1.44
	c1.079,0.12,1.719-0.261,1.92-1.141c0.079-0.8,0.199-1.609,0.359-2.43C92.687,49.365,93.327,49.035,94.447,49.195z"/>
</svg>
