<?xml version="1.0" encoding="utf-8"?>
<!-- Generator: Adobe Illustrator 15.1.0, SVG Export Plug-In . SVG Version: 6.00 Build 0)  -->
<!DOCTYPE svg PUBLIC "-//W3C//DTD SVG 1.1//EN" "http://www.w3.org/Graphics/SVG/1.1/DTD/svg11.dtd">
<svg version="1.1" id="Ebene_1" xmlns="http://www.w3.org/2000/svg" xmlns:xlink="http://www.w3.org/1999/xlink" x="0px" y="0px"
	 width="112.238px" height="84.969px" viewBox="0 0 112.238 84.969" enable-background="new 0 0 112.238 84.969"
	 xml:space="preserve">
<g id="Ebene_3">
</g>
<g id="Ebene_1_1_">
	<g>
		<path fill="#096D52" d="M461.058,535.759c-7.063,16.188-15.302,43.555,0.592,54.733c7.063,5.003,39.435,11.187,48.558,11.771
			c18.54,1.474,32.371-0.295,42.082-16.772c4.12-6.771,10.594-20.602,8.24-28.251c-3.532-10.301-4.709-19.422-14.422-23.542
			c-19.426-7.943-40.903-14.42-62.097-11.185C484.012,522.516,466.355,524.574,461.058,535.759z"/>
	</g>
	<g>
		<path fill="#FFFFFF" d="M485.192,530.756c-5.889,0.883-11.187,2.354-16.479,5.592c-5.003,2.939-5.591,7.648-7.946,12.654
			c-9.711,21.772,1.18,41.49,23.836,45.904c13.242,2.647,30.02,1.475,43.262-0.884c9.417-1.473,25.896-14.713,25.604-26.188
			c-0.294-12.948-2.646-15.012-12.651-23.544c-11.062-9.437-26.776-15.893-41.196-13.536
			C499.613,530.756,489.312,530.462,485.192,530.756z"/>
	</g>
	<g>
		<path fill="#096D52" d="M479.669,542.199c-0.161,0.426-0.528,0.993-1.104,1.71c-0.962-0.8-1.585-1.197-1.872-1.197
			c-0.26,0-0.575,0.097-0.96,0.289c-1.023,0.573-1.684,1.474-1.972,2.688c-0.444,1.924-0.72,2.997-0.813,3.222
			c0,0.417,0.048,0.776,0.144,1.081c0.1,0.308,0.146,0.477,0.146,0.506c0,0.16-0.287,0.563-0.863,1.201l0.576,0.288v0.577
			c-0.448-0.063-0.736,0.03-0.864,0.288c0.416,0.833,0.624,1.36,0.624,1.587c0,0.128-0.018,0.257-0.048,0.385
			c-0.416,0.16-0.608,0.724-0.576,1.685c0,0.129,0,0.289,0,0.479c0,0.228-0.048,0.557-0.145,0.983
			c-0.1,0.435-0.146,0.763-0.146,0.983c0,0.32,0.082,0.627,0.247,0.912c-0.028,0.354-0.014,1.521,0.042,3.513
			c0,1.439-0.097,2.608-0.288,3.509c0.127,0.736,0.607,2.146,1.439,4.229c-0.1,0.128-0.146,0.271-0.146,0.436
			c0,0.288,0.24,0.705,0.722,1.25c0.479,0.545,0.753,0.913,0.814,1.104c-0.189,0.099-0.288,0.227-0.288,0.388
			c0,0.096,0.088,0.264,0.268,0.504c0.175,0.237,0.276,0.407,0.313,0.505c1.664-0.606,2.771-1.187,3.313-1.729
			c0.354-0.354,0.525-0.813,0.525-1.395c0-0.063,0-0.138,0-0.216c0-0.079,0-0.139,0-0.169c0-0.674,0.208-1.278,0.624-1.823
			c0.864,0.705,1.296,1.475,1.296,2.307c0,1.059-0.564,2.019-1.704,2.88c-1.136,0.863-2.216,1.296-3.236,1.296
			c-0.803-0.029-1.535-0.563-2.208-1.586c-0.933-1.408-1.504-2.192-1.729-2.354c-0.833-2.756-1.248-6.169-1.248-10.236
			c0-3.104,0.24-6.072,0.722-8.894c0.19-1.188,0.277-2.499,0.267-3.939c-0.021-1.438,0.229-2.771,0.743-3.989
			c0.353-0.896,1.041-2.083,2.063-3.56c0.736-0.479,1.553-0.721,2.448-0.721C477.876,541.175,478.836,541.516,479.669,542.199z"/>
		<path fill="#096D52" d="M489.555,571.127c-0.572,0.384-1.088,1.376-1.534,2.978c-0.386,1.345-1.267,2.176-2.642,2.494
			c-0.224,0.192-0.464,0.288-0.72,0.288c-0.229,0-0.544-0.08-0.96-0.237c-0.416-0.161-0.704-0.259-0.864-0.288
			c-0.992-0.734-1.488-1.745-1.488-3.021c0-0.288,0.032-0.735,0.1-1.347c0.063-0.604,0.097-1.069,0.097-1.395
			c0-0.384-0.065-0.733-0.192-1.056c0.545-0.515,0.698-1.159,0.468-1.944c-0.234-0.781-0.166-1.432,0.207-1.941
			c-0.063-0.189-0.099-0.384-0.099-0.573c0-0.771,0.496-1.715,1.488-2.832c0.991-0.288,2.111-0.387,3.358-0.288
			c0.988,1.149,1.646,2.304,1.97,3.456c0.446,0.353,0.672,0.752,0.672,1.197c0,0.227-0.072,0.555-0.216,0.981
			c-0.146,0.435-0.217,0.776-0.217,1.032c0,0.317,0.097,0.624,0.286,0.912c-0.189,0.063-0.286,0.225-0.286,0.479
			c0,0.189,0.017,0.384,0.049,0.573L489.555,571.127z M486.774,569.205c0.127-0.157,0.188-0.336,0.188-0.525
			s-0.353-0.733-1.056-1.632c0.672-0.576,0.96-1.395,0.862-2.448c-0.574-0.641-1.327-0.896-2.259-0.771
			c-0.703,0.832-1.056,1.892-1.056,3.17c0,0.226,0.016,0.594,0.048,1.104c0.031,0.513,0.048,0.896,0.048,1.15
			c0,0.896-0.118,1.68-0.353,2.354c-0.054,0.159-0.079,0.319-0.079,0.479c0,0.189,0.048,0.456,0.144,0.792
			c0.101,0.336,0.146,0.584,0.146,0.743c0,0.225-0.097,0.433-0.288,0.622c0.127,0.131,0.264,0.259,0.408,0.387
			c0.144,0.128,0.199,0.256,0.168,0.384c0.928,0.16,1.664-0.097,2.208-0.771c0.029-0.128,0.16-0.494,0.384-1.104
			c0.16-0.479,0.24-0.861,0.24-1.149c0-0.128-0.021-0.256-0.049-0.384c0.024-0.319,0.112-0.625,0.263-0.912
			c0.146-0.288,0.218-0.496,0.218-0.624C486.965,569.848,486.901,569.559,486.774,569.205z"/>
		<path fill="#096D52" d="M502.661,571.321c0.063,0.189,0.096,0.367,0.096,0.525c0,0.288-0.149,0.683-0.456,1.178
			c-0.304,0.496-0.472,0.871-0.504,1.129c-0.896,0.256-1.664,0.384-2.304,0.384c-0.642,0-1.12-0.128-1.44-0.384
			c0-0.354-0.248-0.81-0.742-1.368c-0.496-0.562-0.715-1.048-0.646-1.464c0.223-0.063,0.336-0.16,0.336-0.288
			c0-0.099-0.058-0.237-0.168-0.435c-0.113-0.189-0.168-0.336-0.168-0.432c0-0.259,0.096-0.635,0.288-1.131
			c0.188-0.494,0.287-0.869,0.287-1.128c0-0.288-0.079-0.573-0.239-0.861c0-0.227,0-0.479,0-0.771c0-0.513-0.097-1.199-0.288-2.063
			c-0.189-1.059-0.305-1.729-0.336-2.019c-1.186,0.318-1.854,1.555-2.017,3.695c-0.1,1.185-0.479,2.513-1.151,3.98
			c0.063,0.227,0.096,0.479,0.096,0.771c0,0.286-0.056,0.742-0.168,1.366c-0.108,0.624-0.168,1.098-0.168,1.416
			c0,0.479,0.08,0.912,0.24,1.296c-0.032,0.032-0.188,0.2-0.456,0.506c-0.271,0.305-0.504,0.455-0.696,0.455
			c-0.096,0-0.176-0.03-0.236-0.097c-0.479-0.258-0.645-1.01-0.479-2.258c0.191-1.438,0.16-2.398-0.096-2.88
			c-0.032-0.317-0.021-0.911,0.048-1.774c0.063-1.021,0.096-1.773,0.096-2.256c0-2.594-0.72-4.099-2.16-4.515
			c0.032-0.575,0.608-1.229,1.729-1.969c0.768,0.288,1.149,0.896,1.149,1.822c0,0.129,0,0.307,0,0.527c0,0.226,0,0.385,0,0.479
			c0,0.735,0.177,1.313,0.526,1.729c0.127,0.031,0.24,0.05,0.336,0.05c0.16,0,0.319-0.11,0.479-0.336l0.337-0.576
			c-0.16-0.158-0.24-0.354-0.24-0.574c0-0.159,0.175-0.642,0.528-1.438c0.224-0.447,0.623-0.763,1.199-0.938
			c0.572-0.177,1.136-0.328,1.681-0.456c0.704,0.227,1.056,0.606,1.056,1.15c0,0.161-0.031,0.408-0.096,0.744
			s-0.097,0.584-0.097,0.741c0,0.448,0.176,0.803,0.524,1.059c0.032,0.257,0.112,0.813,0.24,1.683
			c0.127,0.702,0.191,1.266,0.191,1.682c0,0.896-0.239,1.681-0.724,2.353c0.354,1.697,0.932,2.643,1.729,2.832
			c0.029-0.063,0.176-0.433,0.432-1.104c0.16-0.416,0.4-0.722,0.72-0.91c0.13,0.188,0.416,0.306,0.864,0.337
			C502.244,570.823,502.532,571,502.661,571.321z"/>
		<path fill="#096D52" d="M513.46,571.321c0.063,0.189,0.096,0.367,0.096,0.525c0,0.288-0.147,0.683-0.456,1.178
			c-0.304,0.496-0.472,0.871-0.504,1.129c-0.896,0.256-1.664,0.384-2.304,0.384c-0.641,0-1.12-0.128-1.438-0.384
			c0-0.354-0.246-0.81-0.742-1.368c-0.496-0.562-0.713-1.048-0.647-1.464c0.226-0.063,0.336-0.16,0.336-0.288
			c0-0.099-0.058-0.237-0.168-0.435c-0.112-0.189-0.168-0.336-0.168-0.432c0-0.259,0.097-0.635,0.288-1.131
			c0.191-0.494,0.288-0.869,0.288-1.128c0-0.288-0.08-0.573-0.24-0.861c0-0.227,0-0.479,0-0.771c0-0.513-0.096-1.199-0.288-2.063
			c-0.188-1.059-0.305-1.729-0.336-2.019c-1.186,0.318-1.854,1.555-2.016,3.695c-0.1,1.185-0.48,2.513-1.152,3.98
			c0.063,0.227,0.1,0.479,0.1,0.771c0,0.286-0.06,0.742-0.17,1.366s-0.17,1.098-0.17,1.416c0,0.479,0.08,0.912,0.24,1.296
			c-0.032,0.032-0.186,0.2-0.456,0.506c-0.271,0.305-0.504,0.455-0.692,0.455c-0.1,0-0.18-0.03-0.239-0.097
			c-0.48-0.258-0.646-1.01-0.48-2.258c0.192-1.438,0.16-2.398-0.096-2.88c-0.032-0.317-0.019-0.911,0.048-1.774
			c0.063-1.021,0.096-1.773,0.096-2.256c0-2.594-0.72-4.099-2.156-4.515c0.028-0.575,0.604-1.229,1.729-1.969
			c0.77,0.288,1.151,0.896,1.151,1.822c0,0.129,0,0.307,0,0.527c0,0.226,0,0.385,0,0.479c0,0.735,0.176,1.313,0.524,1.729
			c0.127,0.031,0.24,0.05,0.336,0.05c0.16,0,0.319-0.11,0.48-0.336l0.336-0.576c-0.16-0.158-0.24-0.354-0.24-0.574
			c0-0.159,0.178-0.642,0.528-1.438c0.224-0.447,0.624-0.763,1.199-0.938c0.576-0.177,1.136-0.328,1.681-0.456
			c0.704,0.227,1.057,0.606,1.057,1.15c0,0.161-0.029,0.408-0.097,0.744c-0.063,0.336-0.096,0.584-0.096,0.741
			c0,0.448,0.175,0.803,0.524,1.059c0.031,0.257,0.111,0.813,0.239,1.683c0.127,0.702,0.192,1.266,0.192,1.682
			c0,0.896-0.24,1.681-0.723,2.353c0.354,1.697,0.93,2.643,1.729,2.832c0.031-0.063,0.176-0.433,0.432-1.104
			c0.16-0.416,0.4-0.722,0.724-0.91c0.127,0.188,0.416,0.306,0.86,0.337C513.044,570.823,513.332,571,513.46,571.321z"/>
		<path fill="#096D52" d="M523.01,571.175c0.354,0.161,0.528,0.416,0.528,0.771c0,0.734-0.672,1.563-2.019,2.475
			c-1.347,0.909-2.675,1.365-3.981,1.365c-1.024,0-1.823-0.317-2.399-0.96c0.031-0.288-0.096-0.643-0.384-1.059
			c-0.288-0.415-0.438-0.729-0.456-0.938c-0.017-0.208-0.148-0.9-0.408-2.088c-0.156-0.861-0.205-1.564-0.144-2.109
			c0.032-0.19-0.063-0.387-0.288-0.576c0.223-0.099,0.318-0.366,0.288-0.813c-0.097-0.099-0.146-0.208-0.146-0.336
			c0-0.16,0.157-0.448,0.479-0.864c0.318-0.413,0.479-0.769,0.479-1.057c0.029-1.248,0.05-2.513,0.05-3.792
			c0.188-1.473,0.731-2.544,1.633-3.218c1.148,0.032,2.287,0.688,3.408,1.97c-0.101,0.416,0.016,1.058,0.336,1.921
			c0.314,0.861,0.479,1.485,0.479,1.871c0,1.057-0.513,1.584-1.537,1.584c-0.224,0-0.632-0.063-1.224-0.19
			c-0.593-0.128-1.032-0.157-1.319-0.097c-0.416,0.063-0.731,0.336-0.961,0.813c-0.544,1.021-0.544,2.237,0,3.646
			c-0.188,0.063-0.287,0.228-0.287,0.479c0,0.446,0,0.653,0,0.624c0.388,0.161,0.576,0.479,0.576,0.96
			c0,0.288-0.097,0.526-0.289,0.722c0.803,1.536,1.568,2.305,2.31,2.305c0.352,0,0.7-0.109,1.056-0.336
			c0.448-0.063,1.104-0.525,1.968-1.393c-0.028-0.16-0.144-0.386-0.336-0.674c-0.188-0.286-0.287-0.525-0.287-0.723
			c0-0.573,0.354-0.861,1.061-0.861C521.635,570.599,522.243,570.791,523.01,571.175z M518.212,563.303
			c-0.097-0.672-0.209-1.344-0.336-2.019c-0.161-0.832-0.609-1.186-1.345-1.057c0.063,0.063,0.097,0.146,0.097,0.238
			c0,0.098-0.063,0.237-0.193,0.434c-0.127,0.19-0.188,0.319-0.188,0.385c0,0.128,0.096,0.239,0.288,0.336
			c-0.192,0.063-0.288,0.228-0.288,0.479v0.622c0.16,0.386,0.446,0.576,0.863,0.576
			C517.491,563.303,517.859,563.303,518.212,563.303z"/>
		<path fill="#096D52" d="M531.312,574.365c-0.225,0.563-0.721,1.179-1.483,1.851c-1.121,0.96-1.729,1.521-1.824,1.682
			c-2.784-0.896-4.24-2.603-4.368-5.122c0.159-0.128,0.239-0.271,0.239-0.434c0-0.158-0.097-0.374-0.287-0.646
			c-0.188-0.271-0.305-0.455-0.336-0.552c0.606-0.988,0.912-2.396,0.912-4.214c0-0.189,0-0.485,0-0.886c0-0.398,0-0.71,0-0.937
			c0-2.646,0.959-4.452,2.879-5.41c0.129,0,0.344-0.057,0.647-0.167c0.306-0.109,0.521-0.168,0.646-0.168
			c0.287,0,0.513,0.175,0.672,0.521l-0.288,0.286c0.516,0.188,0.991,0.634,1.44,1.331c0.446,0.694,0.672,1.347,0.672,1.945
			c0,0.316-0.063,0.587-0.192,0.812c-0.384,0.029-0.752,0.049-1.104,0.049c-0.447,0-0.752-0.175-0.912-0.521
			c0.192-0.126,0.28-0.398,0.265-0.823c-0.017-0.428,0.061-0.7,0.22-0.826c-0.229-0.535-0.505-0.804-0.827-0.804
			c-0.193,0-0.521,0.148-0.977,0.451c-0.454,0.307-0.795,0.475-1.021,0.503c-0.521,0.514-0.778,1.184-0.778,2.013
			c0,0.353,0.072,0.908,0.216,1.675c0.146,0.768,0.219,1.342,0.219,1.725c0,0.512-0.099,0.957-0.286,1.339
			c-0.517,0.1-0.771,0.318-0.771,0.67c0,0.131,0.063,0.367,0.192,0.721c0.127,0.353,0.188,0.622,0.188,0.813
			c0,0.255-0.096,0.463-0.287,0.622l0.287,0.285l-0.236,0.287c0.353,0.128,0.561,0.479,0.625,1.055
			c0.063,0.731,0.176,1.193,0.336,1.388c0.188,0.286,0.396,0.64,0.623,1.055c0.128,0.188,0.236,0.287,0.336,0.287
			c0.129,0,0.496-0.099,1.104-0.288c0.099-0.16,0.36-0.398,0.792-0.723c0.435-0.317,0.648-0.605,0.648-0.861
			c0-0.128-0.05-0.288-0.146-0.479c-0.256-0.479-0.384-0.771-0.384-0.863c-0.032-0.129,0.063-0.465,0.288-1.009l0.19-0.385
			c0.128-0.354,0.256-0.527,0.386-0.527c0.063,0,0.239,0.14,0.523,0.408c0.288,0.271,0.575,0.376,0.863,0.313
			c0.288,0.16,0.437,0.497,0.437,1.008C531.652,573.285,531.538,573.807,531.312,574.365z"/>
		<path fill="#096D52" d="M539.955,570.599c0.479,0.417,0.721,0.896,0.721,1.438c0,0.416-0.336,1.248-1.009,2.496
			c-0.513,0.96-1.313,1.438-2.396,1.438c-0.416,0-1.104-0.111-2.063-0.336c-0.771-0.896-1.216-2.146-1.345-3.742
			c0-0.098-0.021-1.456-0.049-4.08c0.225-0.225,0.316-0.416,0.285-0.575c-0.188-0.063-0.285-0.16-0.285-0.288
			c0-0.03,0.178-0.305,0.524-0.813c-0.03-0.159-0.048-0.336-0.048-0.526c0-0.225,0.057-0.561,0.168-1.01
			c0.112-0.446,0.168-0.771,0.168-0.96c0-0.318-0.096-0.605-0.288-0.862c-0.188,0-0.473,0.07-0.84,0.217
			c-0.368,0.146-0.633,0.216-0.792,0.216c-0.354,0-0.641-0.237-0.864-0.72c0.033-0.479-0.063-0.771-0.286-0.864
			c0.1-0.7,0.763-1.108,1.991-1.225c1.23-0.111,1.852-0.393,1.852-0.842c0-0.317-0.159-0.751-0.479-1.296
			c0.19-0.063,0.288-0.227,0.288-0.479c0-0.448,0-0.655,0-0.624c-0.032-0.16-0.032-0.641,0-1.438
			c0.032-0.606-0.063-1.07-0.288-1.395c-0.416,0.191-0.978,0.575-1.68,1.151c-0.229-0.288-0.336-0.593-0.336-0.912
			c0-0.288,0.106-0.615,0.336-0.983c0.223-0.364,0.314-0.583,0.286-0.646l-0.286-0.287c0.352-0.386,0.799-0.575,1.344-0.575
			c0.544,0,1.023,0.189,1.439,0.575c0.414,0.385,0.604,0.862,0.572,1.438c0.031,0.989,0.051,2,0.051,3.021
			c0,1.248-0.209,2.191-0.623,2.832c0.188,0.031,0.483,0.137,0.889,0.313c0.396,0.178,0.695,0.267,0.888,0.267
			c0.32,0,0.576-0.191,0.771-0.576c0.479-0.031,0.761,0.058,0.842,0.265c0.078,0.209,0.119,0.396,0.119,0.555
			c0,0.545-0.448,1.04-1.345,1.486c-1.121,0.546-1.744,0.896-1.873,1.058c-0.189,0.896-0.385,1.793-0.575,2.688
			c-0.228,1.059-0.335,1.938-0.335,2.643c0,0.77,0.128,1.521,0.385,2.256c-0.032,0.448,0.048,0.736,0.239,0.864
			c0,0.445-0.021,0.896-0.05,1.344c0.028,0.545,0.237,0.929,0.625,1.15c0.86,0.098,1.375-0.209,1.533-0.91
			c0.063-0.644,0.159-1.288,0.287-1.943C538.547,570.737,539.057,570.472,539.955,570.599z"/>
	</g>
</g>
<g id="Ebene_2">
	<g>
		<g>
			<path fill="#1DAC84" d="M507.461,596.452c-0.04,2.347-0.493,4.632,0.013,6.954c0.195,0.897,2.132,0.396,1.937-0.52
				c-0.479-2.195-0.024-4.368,0.013-6.583C509.433,595.291,507.474,595.579,507.461,596.452L507.461,596.452z"/>
		</g>
	</g>
	<g>
		<g>
			<path fill="#1DAC84" d="M512.478,598.113c0.688,2.166,0.978,4.418,2.409,6.263c0.313,0.398,2.156-0.24,1.814-0.684
				c-1.379-1.771-1.637-4.021-2.295-6.099C514.248,597.088,512.328,597.641,512.478,598.113L512.478,598.113z"/>
		</g>
	</g>
	<g>
		<g>
			<path fill="#1DAC84" d="M516.972,597.106c1.414,1.742,2.978,3.354,4.12,5.298c0.451,0.769,2.289,0.025,1.77-0.856
				c-1.146-1.944-2.704-3.557-4.119-5.299C518.174,595.549,516.34,596.323,516.972,597.106L516.972,597.106z"/>
		</g>
	</g>
	<g>
		<g>
			<path fill="#1DAC84" d="M522.264,595.615c1.245,1.931,2.092,4.085,3.531,5.889c0.513,0.64,2.359-0.099,1.775-0.824
				c-1.443-1.802-2.286-3.959-3.531-5.886C523.603,594.113,521.747,594.814,522.264,595.615L522.264,595.615z"/>
		</g>
	</g>
	<g>
		<g>
			<path fill="#1DAC84" d="M503.113,595.721c-0.723,1.121-1.196,2.414-1.531,3.698c-0.219,0.838,1.748,0.57,1.945-0.188
				c0.308-1.18,0.752-2.339,1.41-3.365c0.263-0.402-0.223-0.682-0.563-0.706C503.909,595.119,503.373,595.315,503.113,595.721
				L503.113,595.721z"/>
		</g>
	</g>
	<g>
		<g>
			<path fill="#1DAC84" d="M494.885,596.069c-1.222,1.812-2.624,3.451-4.289,4.864c-0.312,0.268-0.21,0.602,0.187,0.68
				c0.459,0.094,1.012-0.063,1.364-0.365c1.756-1.488,3.25-3.232,4.536-5.142C497.18,595.367,495.238,595.55,494.885,596.069
				L494.885,596.069z"/>
		</g>
	</g>
	<g>
		<g>
			<path fill="#1DAC84" d="M486.911,595.365c-0.577,1.369-1.49,2.569-2.665,3.48c-0.337,0.264-0.485,0.766-0.089,1.054
				c0.397,0.294,1.017,0.188,1.389-0.104c1.4-1.087,2.534-2.535,3.222-4.17C489.211,594.574,487.262,594.53,486.911,595.365
				L486.911,595.365z"/>
		</g>
	</g>
	<g>
		<g>
			<path fill="#1DAC84" d="M481.765,593.916c-2.092,0.64-3.692,2.549-5.465,3.757c-0.354,0.244-0.47,0.771-0.09,1.05
				c0.419,0.308,0.996,0.166,1.389-0.104c0.861-0.589,1.667-1.251,2.479-1.9c0.604-0.488,1.3-1.169,2.062-1.401
				C483.323,594.951,482.96,593.551,481.765,593.916L481.765,593.916z"/>
		</g>
	</g>
	<g>
		<g>
			<path fill="#1DAC84" d="M474.416,591.953c-2.043,0.083-3.898,1.366-5.316,2.747c-0.305,0.297-0.193,0.675,0.209,0.779
				c0.457,0.119,1.029-0.037,1.366-0.365c0.942-0.917,2.146-1.9,3.513-1.96C475.203,593.115,475.745,591.901,474.416,591.953
				L474.416,591.953z"/>
		</g>
	</g>
	<g>
		<g>
			<path fill="#1DAC84" d="M463.075,585.076c-1.506,1.178-3.204,2.063-4.709,3.237c-1.036,0.812,0.539,1.396,1.267,0.825
				c1.505-1.173,3.204-2.063,4.709-3.234C465.378,585.098,463.802,584.511,463.075,585.076L463.075,585.076z"/>
		</g>
	</g>
	<g>
		<g>
			<path fill="#1DAC84" d="M459.823,580.317c-1.677,1.104-3.424,2.084-5.425,2.424c-1.234,0.208-0.829,1.59,0.371,1.39
				c2.336-0.396,4.396-1.587,6.35-2.874c0.355-0.236,0.469-0.771,0.092-1.041C460.788,579.906,460.219,580.054,459.823,580.317
				L459.823,580.317z"/>
		</g>
	</g>
	<g>
		<g>
			<path fill="#1DAC84" d="M456.603,575.086c-1.416,0.817-2.989,1.325-4.535,1.844c-1.149,0.386-0.845,1.625,0.328,1.231
				c1.888-0.63,3.741-1.272,5.47-2.272c0.341-0.195,0.5-0.692,0.12-0.938C457.552,574.678,457.004,574.854,456.603,575.086
				L456.603,575.086z"/>
		</g>
	</g>
	<g>
		<g>
			<path fill="#1DAC84" d="M455.448,568.403c-1.334-0.309-2.688-0.337-4.048-0.337c-0.461-0.001-1.023,0.122-1.266,0.57
				c-0.212,0.396,0.185,0.732,0.569,0.732c1.199,0.001,2.429-0.021,3.604,0.255c0.477,0.104,1.024,0,1.366-0.366
				C455.958,568.954,455.884,568.502,455.448,568.403L455.448,568.403z"/>
		</g>
	</g>
	<g>
		<g>
			<path fill="#1DAC84" d="M456.636,561.387c-1.151-0.313-2.109-0.991-3.057-1.696c-0.561-0.417-2.325,0.396-1.522,0.989
				c1.063,0.791,2.13,1.489,3.417,1.834c0.45,0.121,1.035-0.043,1.366-0.364C457.146,561.851,457.042,561.492,456.636,561.387
				L456.636,561.387z"/>
		</g>
	</g>
	<g>
		<g>
			<path fill="#1DAC84" d="M459.377,553.449c-0.941-1.528-2.196-2.772-3.588-3.897c-0.421-0.34-2.132,0.414-1.818,0.668
				c1.346,1.084,2.565,2.271,3.479,3.75C457.75,554.464,459.548,553.73,459.377,553.449L459.377,553.449z"/>
		</g>
	</g>
	<g>
		<g>
			<path fill="#1DAC84" d="M463.497,545.506c-1.272-2.797-2.849-5.442-4.12-8.24c-0.351-0.771-2.253-0.188-1.933,0.52
				c1.271,2.797,2.849,5.441,4.12,8.239C461.916,546.794,463.82,546.214,463.497,545.506L463.497,545.506z"/>
		</g>
	</g>
	<g>
		<g>
			<path fill="#1DAC84" d="M465.261,536.972c0-1.373,0.017-2.772-0.294-4.12c-0.146-0.648-2.086-0.152-1.932,0.52
				c0.309,1.349,0.294,2.747,0.294,4.12C463.331,538.066,465.261,537.704,465.261,536.972L465.261,536.972z"/>
		</g>
	</g>
	<g>
		<g>
			<path fill="#1DAC84" d="M464.117,529.756c2.447,1.046,3.313,4.11,4.511,6.262c0.367,0.66,2.23,0.021,1.932-0.518
				c-1.301-2.342-2.233-5.548-4.903-6.688C465.072,528.567,463.305,529.406,464.117,529.756L464.117,529.756z"/>
		</g>
	</g>
	<g>
		<g>
			<path fill="#1DAC84" d="M471.86,526.442c0.044,1.863,0.563,3.633,0.89,5.456c0.137,0.771,2.075,0.288,1.932-0.519
				c-0.304-1.708-0.837-3.396-0.877-5.141C473.782,525.33,471.843,525.711,471.86,526.442L471.86,526.442z"/>
		</g>
	</g>
	<g>
		<g>
			<path fill="#1DAC84" d="M479.291,524.365c0.289,0.396,0.278,1.227,0.336,1.688c0.121,0.963,0.176,1.938,0.186,2.903
				c0.006,0.601,1.938,0.229,1.935-0.519c-0.007-0.973-0.073-1.939-0.188-2.905c-0.064-0.604-0.096-1.408-0.473-1.921
				C480.7,523.085,478.833,523.74,479.291,524.365L479.291,524.365z"/>
		</g>
	</g>
	<g>
		<g>
			<path fill="#1DAC84" d="M484.521,523.656c0.951,1.78,0.563,3.979,0.295,5.889c-0.022,0.166,1.854,0.032,1.933-0.521
				c0.269-1.909,0.661-4.104-0.294-5.888C486.216,522.7,484.39,523.42,484.521,523.656L484.521,523.656z"/>
		</g>
	</g>
	<g>
		<g>
			<path fill="#1DAC84" d="M490.699,524.835c0.247,0.677-0.012,1.637-0.104,2.322c-0.138,1.034-0.319,2.063-0.496,3.095
				c-0.152,0.928,1.814,0.646,1.951-0.168c0.189-1.129,0.383-2.25,0.534-3.384c0.095-0.717,0.303-1.682,0.045-2.387
				C492.326,523.485,490.406,524.031,490.699,524.835L490.699,524.835z"/>
		</g>
	</g>
	<g>
		<g>
			<path fill="#1DAC84" d="M499.738,522.99c-0.746,2.313-1.697,4.559-2.188,6.941c-0.153,0.747,1.796,0.431,1.937-0.236
				c0.484-2.39,1.438-4.633,2.187-6.942C501.888,522.069,499.949,522.33,499.738,522.99L499.738,522.99z"/>
		</g>
	</g>
	<g>
		<g>
			<path fill="#1DAC84" d="M508.437,524.317c-1.227,1.528-2.409,3.074-3.313,4.823c-0.208,0.401,1.641,0.231,1.916-0.301
				c0.855-1.667,1.997-3.136,3.164-4.595C510.664,523.678,508.761,523.908,508.437,524.317L508.437,524.317z"/>
		</g>
	</g>
	<g>
		<g>
			<path fill="#1DAC84" d="M519.877,525.655c-1.134,0.649-2.304,1.466-3.113,2.501c-0.744,0.952,1.103,1.132,1.6,0.493
				c0.726-0.928,1.763-1.625,2.771-2.205c0.337-0.193,0.505-0.688,0.124-0.927C520.824,525.245,520.279,525.424,519.877,525.655
				L519.877,525.655z"/>
		</g>
	</g>
	<g>
		<g>
			<path fill="#1DAC84" d="M527.615,529.41c0.066-0.043,0.144-0.085,0.214-0.13c0.782-0.491,0.097-1.105-0.544-1.105
				c-0.979,0.002-2.303,1.188-3.084,1.647c-1.445,0.854-2.896,1.707-4.331,2.569c-0.352,0.207-0.489,0.719-0.111,0.97
				c0.434,0.284,0.982,0.114,1.383-0.125c1.228-0.729,2.45-1.457,3.682-2.186c0.605-0.358,1.221-0.723,1.83-1.08
				c0.227-0.133,0.447-0.268,0.678-0.396c0.39-0.229,0.313-0.027-0.229-0.026c-0.182-0.369-0.358-0.739-0.545-1.106
				c-0.065,0.044-0.143,0.087-0.214,0.13c-0.348,0.209-0.487,0.718-0.106,0.97C526.661,529.823,527.214,529.654,527.615,529.41
				L527.615,529.41z"/>
		</g>
	</g>
	<g>
		<g>
			<path fill="#1DAC84" d="M538.263,531.287c-1.725,0.121-3.347,1.17-4.794,2.023c-1.948,1.153-3.804,2.496-5.521,3.973
				c-0.894,0.765,1.015,0.977,1.592,0.479c1.354-1.163,2.834-2.188,4.334-3.153c1.17-0.757,2.743-1.931,4.187-2.03
				C539.099,532.505,539.59,531.197,538.263,531.287L538.263,531.287z"/>
		</g>
	</g>
	<g>
		<g>
			<path fill="#1DAC84" d="M546.464,536.61c-1.396-0.196-2.991,0.6-4.248,1.104c-1.903,0.771-3.766,1.681-5.557,2.688
				c-1.143,0.64,0.523,1.119,1.237,0.721c1.271-0.715,2.598-1.337,3.928-1.936c1.044-0.471,2.741-1.502,3.927-1.336
				C546.594,537.971,547.762,536.791,546.464,536.61L546.464,536.61z"/>
		</g>
	</g>
	<g>
		<g>
			<path fill="#1DAC84" d="M553.005,540.733c-1.801,0.605-3.551,1.311-5.254,2.149c-1.188,0.588-0.118,1.521,0.832,1.056
				c1.544-0.765,3.121-1.421,4.752-1.97C554.484,541.58,554.177,540.338,553.005,540.733L553.005,540.733z"/>
		</g>
	</g>
	<g>
		<g>
			<path fill="#1DAC84" d="M552.765,545.284c-2.438,1.322-5.176,1.933-7.569,3.354c-1.124,0.671,0.529,1.141,1.234,0.72
				c2.248-1.339,4.854-1.875,7.146-3.117C554.738,545.613,553.672,544.796,552.765,545.284L552.765,545.284z"/>
		</g>
	</g>
	<g>
		<g>
			<path fill="#1DAC84" d="M555.702,552.908c-1.997,0.812-4.133,1.065-6.256,1.334c-1.021,0.129-1.528,1.453-0.204,1.287
				c2.484-0.313,4.943-0.664,7.281-1.606C557.76,553.421,556.654,552.528,555.702,552.908L555.702,552.908z"/>
		</g>
	</g>
	<g>
		<g>
			<path fill="#1DAC84" d="M558.566,557.641c-2.358,0.021-4.698,0.336-6.979,0.958c-1.144,0.313-0.926,1.131,0.219,0.813
				c1.954-0.531,3.947-0.787,5.977-0.809C558.415,558.601,559.865,557.629,558.566,557.641L558.566,557.641z"/>
		</g>
	</g>
	<g>
		<g>
			<path fill="#1DAC84" d="M560.047,562.09c-3.252,0.001-6.472,0.089-9.624,0.964c-1.133,0.313-0.938,1.053,0.197,0.733
				c2.817-0.779,5.718-0.802,8.622-0.804C559.834,562.988,561.341,562.089,560.047,562.09L560.047,562.09z"/>
		</g>
	</g>
	<g>
		<g>
			<path fill="#1DAC84" d="M554.301,569.1c0.005,0,0.014,0,0.021,0.001c-0.209-0.14-0.417-0.277-0.625-0.418c0,0,0,0.001,0,0.003
				c0.267-0.298,0.527-0.595,0.798-0.895c0.505-0.112-0.198,0.016-0.332,0.028c-0.408,0.049-0.816,0.103-1.229,0.154
				c-0.744,0.104-1.547,0.186-2.238,0.492c-0.332,0.146-0.763,0.582-0.471,0.959c0.299,0.384,0.93,0.292,1.312,0.123
				c0.091-0.04,0.074-0.033-0.046,0.017c0.063-0.021,0.128-0.033,0.188-0.05c0.115-0.027,0.233-0.058,0.354-0.074
				c0.386-0.063,0.771-0.116,1.157-0.168c0.545-0.07,1.105-0.098,1.646-0.22c0.416-0.096,0.854-0.43,0.796-0.894
				c0-0.001,0-0.002,0-0.002c-0.032-0.263-0.405-0.407-0.625-0.418c-0.005,0-0.011,0-0.018-0.001
				c-0.464-0.021-1.032,0.131-1.265,0.581C553.512,568.74,553.904,569.08,554.301,569.1L554.301,569.1z"/>
		</g>
	</g>
	<g>
		<g>
			<path fill="#1DAC84" d="M557.978,572.948c-1.964,0-3.926,0-5.888,0c-0.629,0-2.088,0.955-0.789,0.955c1.962,0,3.924,0,5.89,0
				C557.819,573.906,559.279,572.948,557.978,572.948L557.978,572.948z"/>
		</g>
	</g>
	<g>
		<g>
			<path fill="#1DAC84" d="M556.613,580.406c-3.485-0.916-6.814-2.317-10.304-3.233c-0.448-0.119-2.149,0.604-1.587,0.754
				c3.485,0.917,6.814,2.319,10.305,3.235C555.478,581.281,557.177,580.556,556.613,580.406L556.613,580.406z"/>
		</g>
	</g>
	<g>
		<g>
			<path fill="#1DAC84" d="M550.329,582.668c-2.586,0.231-5.188-1.121-7.733-1.466c-0.511-0.065-2.258,0.784-1.217,0.927
				c2.707,0.36,5.387,1.729,8.157,1.479c0.436-0.038,0.979-0.14,1.283-0.494C551.103,582.776,550.578,582.645,550.329,582.668
				L550.329,582.668z"/>
		</g>
	</g>
	<g>
		<g>
			<path fill="#1DAC84" d="M545.433,587.371c-0.139,0.311,0.018,0.288,0.456-0.06c-0.115-0.021-0.229-0.054-0.349-0.088
				c-0.319-0.085-0.626-0.242-0.925-0.382c-0.633-0.292-1.242-0.635-1.863-0.947c-0.581-0.294-2.354,0.538-1.533,0.952
				c1.14,0.574,2.271,1.289,3.532,1.545c1.021,0.204,2.313-0.166,2.615-1.255C547.572,586.42,545.623,586.699,545.433,587.371
				L545.433,587.371z"/>
		</g>
	</g>
	<g>
		<g>
			<path fill="#1DAC84" d="M546.715,591.795c-3.43-0.602-7.013-0.889-10.004-2.833c-0.521-0.341-2.226,0.438-1.808,0.713
				c3.188,2.071,6.938,2.415,10.597,3.052C546.021,592.819,547.76,591.976,546.715,591.795L546.715,591.795z"/>
		</g>
	</g>
	<g>
		<g>
			<path fill="#1DAC84" d="M538.868,596.088c-1.571,0.065-3.193-1.623-4.238-2.584c-1.099-1.015-2.104-2.119-3.227-3.105
				c-0.559-0.487-2.37,0.271-1.785,0.784c2.548,2.246,5.221,6.246,9.014,6.081C539.635,597.22,540.197,596.031,538.868,596.088
				L538.868,596.088z"/>
		</g>
	</g>
	<g>
		<g>
			<path fill="#1DAC84" d="M533.431,599.596c-2.396-0.646-4.226-2.146-5.563-4.214c-0.438-0.672-2.292,0.022-1.777,0.817
				c1.476,2.271,3.579,3.909,6.206,4.616C533.055,601.023,534.584,599.906,533.431,599.596L533.431,599.596z"/>
		</g>
	</g>
</g>
<g id="Ebene_3_1_">
</g>
<g>
	<path fill="#086E52" d="M11.13,15.792C4.068,31.978-4.172,59.346,11.72,70.528c7.063,5.003,39.434,11.186,48.557,11.771
		c18.54,1.472,32.371-0.295,42.082-16.774c4.12-6.769,10.594-20.6,8.24-28.251c-3.532-10.3-4.709-19.422-14.42-23.542
		C76.755,5.786,55.273-0.687,34.084,2.55C34.084,2.55,16.427,4.61,11.13,15.792z"/>
</g>
<g>
	<path fill="#1AAB83" d="M35.262,10.789c-5.887,0.883-11.185,2.354-16.479,5.592c-5.003,2.94-5.591,7.649-7.946,12.654
		C1.126,50.81,12.015,70.527,34.674,74.941c13.242,2.649,30.017,1.474,43.26-0.883c9.417-1.472,25.896-14.713,25.603-26.188
		c-0.294-12.948-2.646-15.011-12.653-23.543c-11.06-9.436-26.777-15.893-41.197-13.537C49.682,10.789,39.382,10.495,35.262,10.789z"
		/>
</g>
<g enable-background="new    ">
	<path fill="#F5F5F5" d="M29.74,22.235c-0.161,0.425-0.528,0.993-1.104,1.71c-0.961-0.8-1.585-1.199-1.872-1.199
		c-0.257,0-0.576,0.097-0.96,0.289c-1.024,0.575-1.681,1.474-1.969,2.69c-0.447,1.923-0.72,2.997-0.815,3.221
		c0,0.417,0.048,0.777,0.144,1.081c0.096,0.306,0.145,0.475,0.145,0.505c0,0.161-0.288,0.563-0.864,1.202l0.576,0.288v0.577
		c-0.448-0.063-0.736,0.032-0.864,0.289c0.416,0.833,0.624,1.361,0.624,1.586c0,0.128-0.017,0.257-0.048,0.385
		c-0.416,0.16-0.608,0.722-0.576,1.683c0,0.129,0,0.289,0,0.48c0,0.226-0.048,0.555-0.144,0.985
		c-0.097,0.433-0.145,0.761-0.145,0.985c0,0.32,0.082,0.626,0.247,0.912c-0.028,0.354-0.014,1.523,0.042,3.511
		c0,1.441-0.096,2.61-0.288,3.509c0.127,0.737,0.607,2.146,1.44,4.229c-0.097,0.128-0.145,0.272-0.145,0.434
		c0,0.288,0.24,0.705,0.72,1.25c0.48,0.545,0.752,0.913,0.816,1.104c-0.192,0.097-0.288,0.225-0.288,0.386
		c0,0.096,0.088,0.264,0.264,0.504c0.176,0.239,0.28,0.408,0.313,0.505c1.664-0.608,2.768-1.185,3.312-1.729
		c0.353-0.352,0.528-0.815,0.528-1.393c0-0.063,0-0.136,0-0.216c0-0.079,0-0.137,0-0.168c0-0.672,0.208-1.279,0.624-1.824
		c0.864,0.705,1.296,1.473,1.296,2.305c0,1.057-0.567,2.017-1.704,2.88c-1.136,0.864-2.216,1.296-3.239,1.296
		c-0.801-0.031-1.536-0.561-2.208-1.586c-0.93-1.409-1.505-2.194-1.729-2.354c-0.833-2.756-1.248-6.169-1.248-10.238
		c0-3.106,0.24-6.072,0.72-8.892c0.192-1.187,0.279-2.499,0.265-3.941c-0.018-1.44,0.231-2.771,0.744-3.989
		c0.352-0.896,1.04-2.083,2.063-3.558c0.736-0.479,1.552-0.721,2.448-0.721C27.947,21.208,28.907,21.55,29.74,22.235z"/>
	<path fill="#F5F5F5" d="M39.627,51.16c-0.576,0.384-1.088,1.376-1.536,2.977c-0.384,1.344-1.265,2.175-2.64,2.495
		c-0.224,0.191-0.464,0.288-0.72,0.288c-0.225,0-0.544-0.08-0.96-0.239c-0.416-0.161-0.704-0.257-0.864-0.288
		c-0.992-0.737-1.488-1.745-1.488-3.023c0-0.288,0.032-0.735,0.097-1.345c0.063-0.606,0.096-1.071,0.096-1.393
		c0-0.384-0.065-0.735-0.192-1.056c0.544-0.513,0.698-1.159,0.464-1.944c-0.234-0.783-0.165-1.432,0.208-1.943
		c-0.064-0.191-0.096-0.384-0.096-0.576c0-0.768,0.496-1.712,1.488-2.832c0.992-0.287,2.112-0.384,3.359-0.287
		c0.991,1.151,1.647,2.304,1.969,3.455c0.447,0.354,0.672,0.753,0.672,1.2c0,0.225-0.072,0.553-0.216,0.983
		c-0.145,0.433-0.217,0.776-0.217,1.032c0,0.319,0.097,0.624,0.288,0.912c-0.191,0.063-0.288,0.225-0.288,0.479
		c0,0.191,0.017,0.384,0.049,0.575L39.627,51.16z M36.844,49.24c0.127-0.159,0.191-0.336,0.191-0.527s-0.353-0.735-1.056-1.632
		c0.672-0.576,0.96-1.393,0.864-2.448c-0.576-0.64-1.329-0.896-2.257-0.769c-0.704,0.832-1.056,1.89-1.056,3.168
		c0,0.226,0.016,0.594,0.048,1.104c0.031,0.512,0.048,0.896,0.048,1.151c0,0.896-0.118,1.68-0.353,2.353
		c-0.053,0.16-0.079,0.32-0.079,0.479c0,0.191,0.048,0.456,0.144,0.792c0.097,0.336,0.145,0.584,0.145,0.743
		c0,0.225-0.096,0.433-0.288,0.624c0.127,0.128,0.264,0.257,0.408,0.385c0.144,0.128,0.2,0.256,0.168,0.384
		c0.928,0.16,1.664-0.096,2.208-0.769c0.032-0.128,0.16-0.495,0.384-1.104c0.16-0.479,0.24-0.863,0.24-1.151
		c0-0.128-0.018-0.256-0.048-0.384c0.027-0.32,0.115-0.624,0.262-0.912c0.146-0.288,0.218-0.496,0.218-0.624
		C37.035,49.881,36.971,49.593,36.844,49.24z"/>
	<path fill="#F5F5F5" d="M52.731,51.353c0.063,0.191,0.096,0.368,0.096,0.527c0,0.288-0.152,0.681-0.456,1.177
		s-0.472,0.871-0.504,1.128c-0.896,0.256-1.664,0.384-2.304,0.384c-0.641,0-1.12-0.128-1.44-0.384c0-0.353-0.248-0.808-0.744-1.368
		c-0.497-0.56-0.713-1.048-0.647-1.464c0.223-0.063,0.336-0.16,0.336-0.288c0-0.097-0.058-0.239-0.168-0.433
		c-0.113-0.191-0.168-0.336-0.168-0.432c0-0.257,0.096-0.633,0.288-1.129c0.191-0.495,0.288-0.87,0.288-1.128
		c0-0.288-0.08-0.575-0.24-0.863c0-0.225,0-0.479,0-0.769c0-0.512-0.096-1.2-0.288-2.063c-0.192-1.057-0.305-1.729-0.336-2.017
		c-1.186,0.32-1.856,1.554-2.017,3.696c-0.096,1.184-0.479,2.512-1.151,3.983c0.063,0.225,0.096,0.479,0.096,0.769
		c0,0.287-0.056,0.743-0.168,1.367s-0.168,1.097-0.168,1.416c0,0.479,0.08,0.912,0.24,1.296c-0.032,0.032-0.186,0.2-0.456,0.505
		c-0.272,0.304-0.504,0.456-0.696,0.456c-0.096,0-0.176-0.032-0.24-0.097c-0.479-0.256-0.641-1.009-0.479-2.256
		c0.192-1.439,0.16-2.4-0.096-2.881c-0.032-0.318-0.018-0.911,0.048-1.775c0.063-1.023,0.096-1.775,0.096-2.256
		c0-2.593-0.72-4.097-2.16-4.513c0.032-0.575,0.608-1.23,1.729-1.968c0.768,0.288,1.151,0.896,1.151,1.823c0,0.129,0,0.305,0,0.528
		c0,0.225,0,0.384,0,0.479c0,0.736,0.176,1.313,0.528,1.729c0.127,0.031,0.24,0.048,0.336,0.048c0.16,0,0.319-0.111,0.48-0.336
		l0.336-0.576c-0.16-0.159-0.24-0.353-0.24-0.575c0-0.16,0.175-0.641,0.528-1.44c0.224-0.446,0.624-0.76,1.199-0.936
		c0.576-0.176,1.136-0.328,1.681-0.456c0.704,0.224,1.056,0.607,1.056,1.151c0,0.161-0.032,0.407-0.096,0.744
		c-0.064,0.336-0.097,0.584-0.097,0.743c0,0.448,0.176,0.801,0.528,1.057c0.032,0.257,0.112,0.815,0.24,1.681
		c0.127,0.704,0.191,1.264,0.191,1.68c0,0.896-0.239,1.681-0.72,2.353c0.353,1.697,0.928,2.641,1.729,2.832
		c0.031-0.063,0.176-0.433,0.432-1.104c0.16-0.416,0.4-0.72,0.72-0.912c0.127,0.192,0.416,0.306,0.864,0.336
		C52.315,50.857,52.603,51.033,52.731,51.353z"/>
	<path fill="#F5F5F5" d="M63.531,51.353c0.063,0.191,0.096,0.368,0.096,0.527c0,0.288-0.151,0.681-0.456,1.177
		c-0.304,0.496-0.472,0.871-0.504,1.128c-0.896,0.256-1.664,0.384-2.304,0.384c-0.641,0-1.121-0.128-1.44-0.384
		c0-0.353-0.248-0.808-0.742-1.368c-0.497-0.56-0.714-1.048-0.648-1.464c0.223-0.063,0.336-0.16,0.336-0.288
		c0-0.097-0.057-0.239-0.168-0.433c-0.113-0.191-0.168-0.336-0.168-0.432c0-0.257,0.096-0.633,0.287-1.129
		c0.193-0.495,0.289-0.87,0.289-1.128c0-0.288-0.08-0.575-0.24-0.863c0-0.225,0-0.479,0-0.769c0-0.512-0.096-1.2-0.288-2.063
		c-0.191-1.057-0.305-1.729-0.336-2.017c-1.185,0.32-1.855,1.554-2.016,3.696c-0.097,1.184-0.48,2.512-1.152,3.983
		c0.063,0.225,0.096,0.479,0.096,0.769c0,0.287-0.056,0.743-0.168,1.367c-0.111,0.624-0.168,1.097-0.168,1.416
		c0,0.479,0.08,0.912,0.24,1.296c-0.032,0.032-0.185,0.2-0.456,0.505c-0.271,0.304-0.504,0.456-0.696,0.456
		c-0.096,0-0.176-0.032-0.239-0.097c-0.48-0.256-0.642-1.009-0.48-2.256c0.192-1.439,0.16-2.4-0.096-2.881
		c-0.032-0.318-0.018-0.911,0.048-1.775c0.063-1.023,0.096-1.775,0.096-2.256c0-2.593-0.72-4.097-2.16-4.513
		c0.032-0.575,0.608-1.23,1.729-1.968c0.768,0.288,1.152,0.896,1.152,1.823c0,0.129,0,0.305,0,0.528c0,0.225,0,0.384,0,0.479
		c0,0.736,0.175,1.313,0.527,1.729c0.127,0.031,0.24,0.048,0.336,0.048c0.16,0,0.319-0.111,0.48-0.336l0.336-0.576
		c-0.16-0.159-0.24-0.353-0.24-0.575c0-0.16,0.175-0.641,0.528-1.44c0.224-0.446,0.624-0.76,1.2-0.936
		c0.575-0.176,1.135-0.328,1.679-0.456c0.704,0.224,1.057,0.607,1.057,1.151c0,0.161-0.032,0.407-0.096,0.744
		c-0.064,0.336-0.096,0.584-0.096,0.743c0,0.448,0.175,0.801,0.526,1.057c0.031,0.257,0.111,0.815,0.24,1.681
		c0.127,0.704,0.191,1.264,0.191,1.68c0,0.896-0.24,1.681-0.721,2.353c0.354,1.697,0.929,2.641,1.729,2.832
		c0.032-0.063,0.176-0.433,0.433-1.104c0.159-0.416,0.399-0.72,0.721-0.912c0.128,0.192,0.415,0.306,0.863,0.336
		C63.115,50.857,63.402,51.033,63.531,51.353z"/>
	<path fill="#F5F5F5" d="M73.082,51.208c0.353,0.161,0.527,0.416,0.527,0.769c0,0.736-0.672,1.561-2.017,2.472
		c-1.344,0.912-2.672,1.368-3.983,1.368c-1.023,0-1.823-0.319-2.399-0.96c0.032-0.288-0.096-0.641-0.384-1.057
		c-0.288-0.415-0.44-0.729-0.456-0.937c-0.017-0.208-0.152-0.902-0.408-2.088c-0.16-0.863-0.208-1.566-0.144-2.111
		c0.031-0.191-0.064-0.385-0.288-0.576c0.224-0.096,0.319-0.367,0.288-0.815c-0.096-0.097-0.146-0.208-0.146-0.336
		c0-0.16,0.16-0.448,0.48-0.864c0.319-0.414,0.479-0.768,0.479-1.056c0.031-1.248,0.048-2.512,0.048-3.792
		c0.191-1.472,0.735-2.544,1.633-3.217c1.15,0.032,2.287,0.688,3.408,1.969c-0.098,0.416,0.016,1.057,0.336,1.92
		c0.317,0.863,0.479,1.487,0.479,1.872c0,1.057-0.513,1.584-1.536,1.584c-0.225,0-0.633-0.063-1.225-0.191
		c-0.592-0.127-1.031-0.159-1.319-0.097c-0.416,0.064-0.735,0.336-0.96,0.815c-0.545,1.023-0.545,2.24,0,3.647
		c-0.19,0.064-0.288,0.226-0.288,0.479c0,0.449,0,0.656,0,0.624c0.384,0.161,0.576,0.479,0.576,0.96
		c0,0.288-0.097,0.528-0.288,0.721c0.799,1.536,1.567,2.305,2.305,2.305c0.353,0,0.703-0.112,1.056-0.337
		c0.448-0.063,1.104-0.527,1.969-1.392c-0.032-0.16-0.145-0.385-0.336-0.673c-0.192-0.287-0.288-0.527-0.288-0.72
		c0-0.576,0.352-0.864,1.056-0.864C71.705,50.632,72.314,50.823,73.082,51.208z M68.282,43.336
		c-0.097-0.672-0.208-1.344-0.336-2.017c-0.161-0.832-0.608-1.184-1.345-1.056c0.063,0.064,0.097,0.145,0.097,0.239
		c0,0.097-0.064,0.24-0.192,0.433c-0.128,0.191-0.19,0.32-0.19,0.384c0,0.128,0.096,0.24,0.287,0.336
		c-0.191,0.064-0.287,0.226-0.287,0.48v0.623c0.159,0.385,0.447,0.576,0.863,0.576C67.562,43.336,67.929,43.336,68.282,43.336z"/>
	<path fill="#F5F5F5" d="M81.385,54.401c-0.224,0.561-0.719,1.177-1.486,1.849c-1.12,0.96-1.729,1.52-1.824,1.681
		c-2.784-0.895-4.24-2.602-4.368-5.123c0.16-0.127,0.24-0.271,0.24-0.432c0-0.158-0.096-0.374-0.287-0.646
		c-0.193-0.271-0.305-0.455-0.337-0.551c0.608-0.989,0.912-2.394,0.912-4.213c0-0.191,0-0.487,0-0.886c0-0.399,0-0.71,0-0.935
		c0-2.648,0.96-4.452,2.88-5.41c0.128,0,0.344-0.056,0.648-0.167c0.304-0.111,0.52-0.168,0.647-0.168
		c0.287,0,0.511,0.176,0.672,0.522l-0.289,0.286c0.513,0.189,0.992,0.634,1.44,1.331c0.448,0.696,0.672,1.347,0.672,1.947
		c0,0.317-0.064,0.587-0.192,0.81c-0.383,0.031-0.752,0.048-1.104,0.048c-0.448,0-0.752-0.174-0.912-0.521
		c0.192-0.126,0.279-0.4,0.264-0.825c-0.015-0.426,0.058-0.7,0.218-0.826c-0.229-0.536-0.505-0.804-0.828-0.804
		c-0.194,0-0.52,0.15-0.974,0.453c-0.454,0.305-0.795,0.473-1.021,0.503c-0.52,0.512-0.777,1.182-0.777,2.011
		c0,0.351,0.071,0.909,0.215,1.674c0.146,0.767,0.218,1.341,0.218,1.724c0,0.511-0.097,0.957-0.288,1.339
		c-0.514,0.098-0.77,0.319-0.77,0.67c0,0.129,0.064,0.367,0.192,0.719c0.128,0.351,0.191,0.622,0.191,0.813
		c0,0.255-0.096,0.463-0.289,0.622l0.289,0.286l-0.239,0.287c0.352,0.128,0.559,0.479,0.624,1.054
		c0.063,0.733,0.175,1.195,0.336,1.389c0.191,0.285,0.398,0.637,0.624,1.052c0.127,0.19,0.239,0.287,0.336,0.287
		c0.127,0,0.496-0.097,1.104-0.288c0.096-0.16,0.36-0.4,0.793-0.721c0.433-0.319,0.647-0.607,0.647-0.863
		c0-0.128-0.048-0.288-0.145-0.479c-0.257-0.479-0.385-0.769-0.385-0.863c-0.031-0.129,0.064-0.465,0.288-1.009l0.192-0.384
		c0.127-0.353,0.256-0.528,0.384-0.528c0.063,0,0.24,0.138,0.527,0.408c0.287,0.272,0.576,0.376,0.863,0.313
		c0.289,0.161,0.434,0.497,0.434,1.008C81.721,53.321,81.609,53.84,81.385,54.401z"/>
	<path fill="#F5F5F5" d="M90.025,50.632c0.479,0.417,0.721,0.896,0.721,1.439c0,0.416-0.336,1.248-1.008,2.496
		c-0.513,0.96-1.313,1.439-2.4,1.439c-0.416,0-1.104-0.112-2.063-0.336c-0.769-0.896-1.216-2.145-1.344-3.743
		c0-0.097-0.017-1.456-0.049-4.08c0.225-0.224,0.319-0.416,0.288-0.576c-0.19-0.063-0.288-0.16-0.288-0.288
		c0-0.03,0.177-0.304,0.528-0.815c-0.032-0.159-0.049-0.336-0.049-0.527c0-0.224,0.057-0.56,0.168-1.009
		c0.112-0.447,0.168-0.769,0.168-0.96c0-0.319-0.096-0.607-0.287-0.863c-0.192,0-0.473,0.071-0.84,0.216
		c-0.369,0.145-0.633,0.217-0.793,0.217c-0.353,0-0.64-0.24-0.863-0.721c0.032-0.479-0.063-0.769-0.288-0.864
		c0.098-0.702,0.76-1.11,1.992-1.224c1.231-0.112,1.848-0.392,1.848-0.841c0-0.319-0.159-0.751-0.479-1.296
		c0.191-0.063,0.287-0.225,0.287-0.479c0-0.447,0-0.654,0-0.624c-0.031-0.159-0.031-0.64,0-1.439
		c0.032-0.607-0.064-1.071-0.287-1.393c-0.416,0.192-0.978,0.576-1.68,1.152c-0.226-0.288-0.337-0.592-0.337-0.912
		c0-0.288,0.111-0.616,0.337-0.983c0.223-0.367,0.317-0.583,0.286-0.648l-0.286-0.287c0.352-0.385,0.799-0.576,1.344-0.576
		c0.543,0,1.022,0.191,1.438,0.576c0.416,0.384,0.607,0.863,0.576,1.439c0.031,0.991,0.048,2,0.048,3.023
		c0,1.248-0.208,2.192-0.624,2.832c0.191,0.032,0.488,0.136,0.89,0.313c0.398,0.177,0.694,0.265,0.887,0.265
		c0.32,0,0.576-0.192,0.769-0.576c0.479-0.032,0.761,0.057,0.842,0.265c0.078,0.209,0.119,0.393,0.119,0.552
		c0,0.545-0.448,1.04-1.345,1.487c-1.121,0.546-1.744,0.896-1.872,1.057c-0.191,0.896-0.384,1.793-0.575,2.688
		c-0.225,1.057-0.337,1.938-0.337,2.641c0,0.769,0.129,1.521,0.385,2.256c-0.031,0.449,0.049,0.737,0.239,0.864
		c0,0.447-0.017,0.896-0.048,1.344c0.031,0.544,0.239,0.928,0.624,1.151c0.863,0.097,1.375-0.209,1.536-0.911
		c0.063-0.641,0.159-1.288,0.288-1.944C88.617,50.769,89.13,50.505,90.025,50.632z"/>
</g>
<g>
	<g>
		<path fill="#1AAB83" d="M57.531,76.488c-0.039,2.346-0.493,4.631,0.013,6.954c0.195,0.899,2.13,0.396,1.934-0.518
			c-0.479-2.197-0.024-4.368,0.013-6.583C59.506,75.325,57.546,75.615,57.531,76.488L57.531,76.488z"/>
	</g>
</g>
<g>
	<g>
		<path fill="#1AAB83" d="M62.547,78.145c0.688,2.166,0.979,4.418,2.412,6.262c0.313,0.4,2.156-0.24,1.814-0.682
			c-1.379-1.771-1.636-4.02-2.295-6.098C64.319,77.121,62.398,77.675,62.547,78.145L62.547,78.145z"/>
	</g>
</g>
<g>
	<g>
		<path fill="#1AAB83" d="M67.044,77.139c1.414,1.743,2.975,3.352,4.12,5.297c0.451,0.768,2.289,0.028,1.768-0.857
			c-1.146-1.944-2.705-3.556-4.12-5.299C68.244,75.582,66.41,76.358,67.044,77.139L67.044,77.139z"/>
	</g>
</g>
<g>
	<g>
		<path fill="#1AAB83" d="M72.336,75.65c1.245,1.93,2.088,4.085,3.531,5.888c0.513,0.64,2.359-0.098,1.775-0.824
			c-1.443-1.802-2.286-3.959-3.531-5.886C73.672,74.145,71.818,74.847,72.336,75.65L72.336,75.65z"/>
	</g>
</g>
<g>
	<g>
		<path fill="#1AAB83" d="M53.183,75.754c-0.721,1.121-1.197,2.414-1.532,3.698c-0.218,0.838,1.748,0.571,1.946-0.189
			c0.307-1.179,0.752-2.338,1.41-3.366c0.262-0.403-0.221-0.679-0.561-0.706C53.979,75.155,53.444,75.348,53.183,75.754
			L53.183,75.754z"/>
	</g>
</g>
<g>
	<g>
		<path fill="#1AAB83" d="M44.957,76.102c-1.222,1.81-2.624,3.45-4.289,4.865c-0.312,0.266-0.21,0.6,0.184,0.679
			c0.459,0.092,1.012-0.063,1.364-0.366c1.757-1.489,3.251-3.233,4.539-5.141C47.253,75.403,45.307,75.583,44.957,76.102
			L44.957,76.102z"/>
	</g>
</g>
<g>
	<g>
		<path fill="#1AAB83" d="M36.982,75.401c-0.577,1.369-1.49,2.571-2.665,3.482c-0.337,0.262-0.485,0.764-0.089,1.052
			c0.4,0.294,1.017,0.188,1.389-0.103c1.4-1.087,2.534-2.535,3.222-4.17C39.282,74.61,37.335,74.562,36.982,75.401L36.982,75.401z"
			/>
	</g>
</g>
<g>
	<g>
		<path fill="#1AAB83" d="M31.837,73.948c-2.092,0.642-3.695,2.551-5.465,3.759c-0.354,0.244-0.47,0.772-0.09,1.05
			c0.419,0.306,0.996,0.166,1.389-0.104c0.861-0.589,1.667-1.251,2.479-1.901c0.605-0.488,1.3-1.169,2.062-1.402
			C33.393,74.987,33.031,73.584,31.837,73.948L31.837,73.948z"/>
	</g>
</g>
<g>
	<g>
		<path fill="#1AAB83" d="M24.487,71.988c-2.043,0.084-3.898,1.367-5.316,2.748c-0.305,0.296-0.196,0.675,0.209,0.78
			c0.457,0.12,1.029-0.038,1.366-0.366c0.942-0.917,2.144-1.901,3.512-1.959C25.273,73.149,25.815,71.934,24.487,71.988
			L24.487,71.988z"/>
	</g>
</g>
<g>
	<g>
		<path fill="#1AAB83" d="M13.146,65.113c-1.505,1.176-3.204,2.063-4.709,3.237c-1.036,0.81,0.539,1.396,1.267,0.826
			c1.505-1.173,3.204-2.063,4.709-3.237C15.448,65.131,13.874,64.544,13.146,65.113L13.146,65.113z"/>
	</g>
</g>
<g>
	<g>
		<path fill="#1AAB83" d="M9.894,60.35c-1.675,1.104-3.423,2.085-5.424,2.423c-1.235,0.208-0.83,1.59,0.37,1.389
			c2.335-0.396,4.396-1.589,6.35-2.874c0.357-0.236,0.469-0.771,0.092-1.041C10.859,59.939,10.291,60.087,9.894,60.35L9.894,60.35z"
			/>
	</g>
</g>
<g>
	<g>
		<path fill="#1AAB83" d="M6.674,55.118c-1.417,0.819-2.99,1.327-4.535,1.845c-1.15,0.384-0.844,1.625,0.328,1.232
			c1.887-0.63,3.742-1.273,5.47-2.272c0.34-0.197,0.5-0.695,0.12-0.938C7.623,54.711,7.075,54.887,6.674,55.118L6.674,55.118z"/>
	</g>
</g>
<g>
	<g>
		<path fill="#1AAB83" d="M5.519,48.435c-1.334-0.307-2.686-0.336-4.047-0.336c-0.461,0-1.024,0.122-1.265,0.571
			c-0.212,0.396,0.184,0.733,0.569,0.733c1.199,0.001,2.429-0.019,3.604,0.252c0.475,0.108,1.024,0.003,1.366-0.364
			C6.029,48.99,5.955,48.535,5.519,48.435L5.519,48.435z"/>
	</g>
</g>
<g>
	<g>
		<path fill="#1AAB83" d="M6.709,41.42c-1.152-0.311-2.11-0.992-3.057-1.697c-0.561-0.417-2.325,0.395-1.522,0.991
			c1.062,0.79,2.128,1.489,3.417,1.834c0.45,0.12,1.035-0.044,1.366-0.366C7.218,41.885,7.113,41.528,6.709,41.42L6.709,41.42z"/>
	</g>
</g>
<g>
	<g>
		<path fill="#1AAB83" d="M9.448,33.485c-0.942-1.529-2.196-2.773-3.588-3.898C5.439,29.246,3.728,30,4.042,30.253
			c1.343,1.084,2.565,2.271,3.477,3.75C7.821,34.498,9.619,33.763,9.448,33.485L9.448,33.485z"/>
	</g>
</g>
<g>
	<g>
		<path fill="#1AAB83" d="M13.568,25.539c-1.272-2.797-2.848-5.443-4.12-8.24c-0.35-0.771-2.253-0.19-1.932,0.518
			c1.271,2.797,2.848,5.443,4.12,8.24C11.986,26.827,13.889,26.247,13.568,25.539L13.568,25.539z"/>
	</g>
</g>
<g>
	<g>
		<path fill="#1AAB83" d="M15.333,17.005c0-1.373,0.016-2.774-0.294-4.12c-0.147-0.65-2.086-0.154-1.932,0.518
			c0.309,1.348,0.294,2.747,0.294,4.12C13.402,18.099,15.334,17.74,15.333,17.005L15.333,17.005z"/>
	</g>
</g>
<g>
	<g>
		<path fill="#1AAB83" d="M14.188,9.789c2.448,1.046,3.313,4.112,4.511,6.262c0.367,0.661,2.231,0.021,1.932-0.518
			c-1.301-2.341-2.236-5.546-4.904-6.687C15.142,8.599,13.377,9.442,14.188,9.789L14.188,9.789z"/>
	</g>
</g>
<g>
	<g>
		<path fill="#1AAB83" d="M21.93,6.475c0.043,1.864,0.563,3.632,0.889,5.456c0.137,0.771,2.075,0.289,1.932-0.518
			c-0.304-1.708-0.837-3.395-0.877-5.14C23.852,5.366,21.913,5.744,21.93,6.475L21.93,6.475z"/>
	</g>
</g>
<g>
	<g>
		<path fill="#1AAB83" d="M29.362,4.398c0.289,0.396,0.278,1.226,0.336,1.687c0.121,0.962,0.176,1.936,0.184,2.904
			c0.006,0.6,1.938,0.229,1.934-0.518c-0.007-0.972-0.073-1.94-0.186-2.906c-0.067-0.604-0.096-1.409-0.473-1.921
			C30.77,3.118,28.903,3.773,29.362,4.398L29.362,4.398z"/>
	</g>
</g>
<g>
	<g>
		<path fill="#1AAB83" d="M34.59,3.692c0.954,1.782,0.563,3.978,0.294,5.888c-0.021,0.166,1.854,0.033,1.934-0.52
			c0.269-1.91,0.661-4.104-0.294-5.886C36.287,2.736,34.463,3.454,34.59,3.692L34.59,3.692z"/>
	</g>
</g>
<g>
	<g>
		<path fill="#1AAB83" d="M40.77,4.868c0.247,0.677-0.013,1.637-0.104,2.323c-0.138,1.035-0.323,2.063-0.496,3.095
			c-0.154,0.927,1.814,0.647,1.951-0.169c0.189-1.125,0.383-2.25,0.534-3.383c0.095-0.716,0.303-1.68,0.045-2.385
			C42.397,3.517,40.476,4.064,40.77,4.868L40.77,4.868z"/>
	</g>
</g>
<g>
	<g>
		<path fill="#1AAB83" d="M49.807,3.023c-0.747,2.313-1.698,4.557-2.188,6.943c-0.153,0.747,1.796,0.429,1.935-0.238
			c0.486-2.388,1.438-4.631,2.186-6.941C51.961,2.101,50.02,2.365,49.807,3.023L49.807,3.023z"/>
	</g>
</g>
<g>
	<g>
		<path fill="#1AAB83" d="M58.508,4.35c-1.225,1.53-2.409,3.076-3.311,4.824c-0.207,0.403,1.641,0.235,1.916-0.3
			c0.858-1.667,1.996-3.133,3.164-4.594C60.734,3.711,58.833,3.943,58.508,4.35L58.508,4.35z"/>
	</g>
</g>
<g>
	<g>
		<path fill="#1AAB83" d="M69.948,5.687c-1.134,0.651-2.304,1.465-3.113,2.501C66.089,9.14,67.932,9.32,68.43,8.682
			c0.725-0.927,1.762-1.625,2.771-2.206c0.337-0.194,0.505-0.686,0.124-0.925C70.895,5.28,70.348,5.457,69.948,5.687L69.948,5.687z"
			/>
	</g>
</g>
<g>
	<g>
		<path fill="#1AAB83" d="M77.685,9.446c0.069-0.043,0.144-0.085,0.214-0.129c0.783-0.49,0.097-1.107-0.544-1.106
			c-0.979,0.001-2.302,1.188-3.084,1.648c-1.444,0.854-2.893,1.707-4.331,2.57c-0.35,0.208-0.489,0.718-0.111,0.968
			c0.43,0.285,0.982,0.116,1.383-0.125c1.225-0.73,2.45-1.457,3.68-2.183c0.607-0.361,1.22-0.721,1.83-1.081
			c0.226-0.133,0.449-0.266,0.677-0.398c0.39-0.229,0.313-0.029-0.226-0.028c-0.182-0.369-0.361-0.739-0.545-1.108
			c-0.068,0.044-0.143,0.087-0.214,0.13c-0.347,0.208-0.49,0.718-0.109,0.968C76.732,9.855,77.284,9.686,77.685,9.446L77.685,9.446z
			"/>
	</g>
</g>
<g>
	<g>
		<path fill="#1AAB83" d="M88.335,11.323c-1.725,0.121-3.347,1.167-4.794,2.024c-1.95,1.154-3.804,2.497-5.521,3.972
			c-0.891,0.764,1.015,0.976,1.592,0.479c1.354-1.164,2.834-2.188,4.334-3.155c1.17-0.755,2.743-1.929,4.186-2.031
			C89.171,12.538,89.66,11.229,88.335,11.323L88.335,11.323z"/>
	</g>
</g>
<g>
	<g>
		<path fill="#1AAB83" d="M96.533,16.642c-1.399-0.197-2.99,0.598-4.247,1.106c-1.905,0.769-3.766,1.68-5.557,2.687
			c-1.141,0.642,0.525,1.12,1.236,0.721c1.271-0.714,2.599-1.337,3.929-1.935c1.044-0.469,2.74-1.502,3.928-1.335
			C96.665,18.004,97.834,16.825,96.533,16.642L96.533,16.642z"/>
	</g>
</g>
<g>
	<g>
		<path fill="#1AAB83" d="M103.074,20.766c-1.8,0.606-3.55,1.308-5.253,2.15c-1.188,0.587-0.118,1.521,0.832,1.054
			c1.544-0.763,3.121-1.419,4.753-1.969C104.554,21.615,104.247,20.371,103.074,20.766L103.074,20.766z"/>
	</g>
</g>
<g>
	<g>
		<path fill="#1AAB83" d="M102.837,25.32c-2.438,1.322-5.176,1.931-7.571,3.356c-1.124,0.67,0.53,1.139,1.236,0.719
			c2.248-1.339,4.851-1.875,7.144-3.119C104.809,25.645,103.742,24.829,102.837,25.32L102.837,25.32z"/>
	</g>
</g>
<g>
	<g>
		<path fill="#1AAB83" d="M105.774,32.944c-1.998,0.81-4.133,1.067-6.256,1.334c-1.021,0.128-1.529,1.453-0.205,1.286
			c2.484-0.313,4.942-0.664,7.279-1.607C107.832,33.454,106.723,32.56,105.774,32.944L105.774,32.944z"/>
	</g>
</g>
<g>
	<g>
		<path fill="#1AAB83" d="M108.637,37.674c-2.36,0.021-4.701,0.335-6.979,0.958c-1.143,0.312-0.926,1.129,0.219,0.814
			c1.954-0.532,3.947-0.787,5.974-0.808C108.486,38.635,109.936,37.662,108.637,37.674L108.637,37.674z"/>
	</g>
</g>
<g>
	<g>
		<path fill="#1AAB83" d="M110.117,42.123c-3.252,0.001-6.472,0.089-9.624,0.964c-1.133,0.313-0.938,1.052,0.197,0.734
			c2.817-0.78,5.718-0.802,8.622-0.804C109.905,43.02,111.411,42.122,110.117,42.123L110.117,42.123z"/>
	</g>
</g>
<g>
	<g>
		<path fill="#1AAB83" d="M104.371,49.134c0.005,0,0.011,0,0.019,0.001c-0.209-0.14-0.417-0.279-0.625-0.418c0,0,0,0.001,0,0.002
			c0.266-0.297,0.529-0.594,0.797-0.892c0.505-0.114-0.198,0.014-0.332,0.027c-0.408,0.049-0.816,0.102-1.227,0.156
			c-0.746,0.103-1.547,0.184-2.24,0.492c-0.332,0.146-0.761,0.582-0.469,0.959c0.297,0.383,0.928,0.292,1.309,0.123
			c0.091-0.04,0.073-0.034-0.045,0.016c0.063-0.018,0.127-0.034,0.188-0.05c0.115-0.028,0.233-0.054,0.352-0.073
			c0.385-0.065,0.771-0.118,1.158-0.169c0.543-0.071,1.106-0.097,1.645-0.219c0.416-0.094,0.854-0.428,0.796-0.892
			c0-0.002,0-0.003,0-0.003c-0.032-0.262-0.405-0.406-0.624-0.418c-0.006,0-0.012-0.001-0.018-0.001
			c-0.464-0.02-1.033,0.133-1.263,0.581C103.584,48.774,103.973,49.116,104.371,49.134L104.371,49.134z"/>
	</g>
</g>
<g>
	<g>
		<path fill="#1AAB83" d="M108.049,52.983c-1.962,0-3.924,0-5.886,0c-0.629,0-2.088,0.955-0.789,0.955c1.962,0,3.924,0,5.886,0
			C107.889,53.938,109.348,52.983,108.049,52.983L108.049,52.983z"/>
	</g>
</g>
<g>
	<g>
		<path fill="#1AAB83" d="M106.682,60.44c-3.485-0.916-6.814-2.319-10.302-3.235c-0.45-0.118-2.151,0.604-1.586,0.756
			c3.485,0.916,6.814,2.319,10.302,3.235C105.547,61.314,107.249,60.589,106.682,60.44L106.682,60.44z"/>
	</g>
</g>
<g>
	<g>
		<path fill="#1AAB83" d="M100.4,62.701c-2.585,0.232-5.187-1.121-7.733-1.465c-0.511-0.066-2.258,0.784-1.217,0.926
			c2.707,0.361,5.387,1.731,8.157,1.479c0.436-0.039,0.981-0.139,1.284-0.495C101.176,62.81,100.649,62.678,100.4,62.701
			L100.4,62.701z"/>
	</g>
</g>
<g>
	<g>
		<path fill="#1AAB83" d="M95.505,67.406c-0.139,0.31,0.015,0.288,0.456-0.059c-0.118-0.021-0.232-0.053-0.349-0.086
			c-0.319-0.086-0.626-0.244-0.925-0.383c-0.632-0.293-1.242-0.634-1.863-0.948c-0.581-0.294-2.353,0.538-1.533,0.953
			c1.135,0.574,2.271,1.289,3.532,1.544c1.019,0.205,2.311-0.166,2.615-1.254C97.641,66.453,95.694,66.735,95.505,67.406
			L95.505,67.406z"/>
	</g>
</g>
<g>
	<g>
		<path fill="#1AAB83" d="M96.785,71.827c-3.43-0.6-7.013-0.887-10.004-2.832c-0.52-0.34-2.225,0.438-1.807,0.713
			c3.188,2.072,6.938,2.414,10.596,3.053C96.09,72.851,97.832,72.01,96.785,71.827L96.785,71.827z"/>
	</g>
</g>
<g>
	<g>
		<path fill="#1AAB83" d="M88.938,76.121c-1.57,0.066-3.192-1.623-4.237-2.584c-1.099-1.014-2.104-2.119-3.226-3.106
			c-0.557-0.488-2.371,0.271-1.787,0.785c2.549,2.246,5.222,6.246,9.016,6.081C89.706,77.253,90.268,76.064,88.938,76.121
			L88.938,76.121z"/>
	</g>
</g>
<g>
	<g>
		<path fill="#1AAB83" d="M83.503,79.629c-2.399-0.646-4.226-2.146-5.563-4.214c-0.438-0.672-2.292,0.023-1.777,0.818
			c1.472,2.273,3.579,3.909,6.206,4.616C83.127,81.056,84.655,79.939,83.503,79.629L83.503,79.629z"/>
	</g>
</g>
</svg>
