<?xml version="1.0" encoding="utf-8"?>
<!-- Generator: Adobe Illustrator 15.1.0, SVG Export Plug-In . SVG Version: 6.00 Build 0)  -->
<!DOCTYPE svg PUBLIC "-//W3C//DTD SVG 1.1//EN" "http://www.w3.org/Graphics/SVG/1.1/DTD/svg11.dtd">
<svg version="1.1" id="Ebene_1" xmlns="http://www.w3.org/2000/svg" xmlns:xlink="http://www.w3.org/1999/xlink" x="0px" y="0px"
	 width="112.238px" height="84.969px" viewBox="0 0 112.238 84.969" enable-background="new 0 0 112.238 84.969"
	 xml:space="preserve">
<g id="Ebene_3">
</g>
<g id="Ebene_1_1_">
	<g>
		<path fill="#096D52" d="M461.059,535.759c-7.063,16.187-15.303,43.555,0.592,54.734c7.063,5.003,39.434,11.187,48.557,11.771
			c18.54,1.472,32.372-0.296,42.083-16.774c4.119-6.769,10.594-20.6,8.24-28.251c-3.533-10.3-4.709-19.422-14.42-23.542
			c-19.426-7.943-40.906-14.42-62.096-11.183C484.012,522.516,466.359,524.574,461.059,535.759z"/>
	</g>
	<g>
		<path fill="#1DAC84" d="M485.193,530.756c-5.889,0.883-11.187,2.354-16.479,5.592c-5.003,2.94-5.591,7.649-7.945,12.654
			c-9.712,21.773,1.18,41.491,23.839,45.904c13.239,2.648,30.015,1.475,43.257-0.883c9.418-1.473,25.896-14.713,25.604-26.188
			c-0.295-12.948-2.646-15.011-12.648-23.543c-11.063-9.437-26.779-15.894-41.201-13.537
			C499.613,530.756,489.312,530.463,485.193,530.756z"/>
	</g>
	<g>
		<g>
			<path fill="#FFFFFF" d="M479.668,542.199c-0.161,0.426-0.528,0.993-1.104,1.711c-0.961-0.801-1.584-1.198-1.872-1.198
				c-0.26,0-0.576,0.097-0.96,0.288c-1.024,0.574-1.684,1.475-1.972,2.689c-0.444,1.923-0.72,2.997-0.813,3.222
				c0,0.417,0.048,0.776,0.144,1.08c0.1,0.308,0.146,0.477,0.146,0.507c0,0.159-0.288,0.563-0.864,1.2l0.576,0.288v0.577
				c-0.448-0.063-0.736,0.031-0.864,0.289c0.416,0.833,0.624,1.36,0.624,1.586c0,0.128-0.017,0.257-0.048,0.385
				c-0.416,0.16-0.608,0.724-0.576,1.685c0,0.129,0,0.289,0,0.479c0,0.228-0.048,0.557-0.144,0.984
				c-0.1,0.434-0.146,0.762-0.146,0.984c0,0.319,0.082,0.626,0.247,0.911c-0.028,0.354-0.014,1.522,0.042,3.513
				c0,1.439-0.096,2.608-0.288,3.509c0.127,0.736,0.607,2.146,1.44,4.229c-0.1,0.128-0.146,0.271-0.146,0.435
				c0,0.288,0.24,0.705,0.722,1.25c0.479,0.545,0.752,0.913,0.814,1.104c-0.189,0.098-0.288,0.227-0.288,0.387
				c0,0.097,0.088,0.265,0.267,0.504c0.176,0.24,0.277,0.409,0.313,0.506c1.664-0.607,2.771-1.186,3.313-1.729
				c0.353-0.353,0.525-0.813,0.525-1.394c0-0.063,0-0.137,0-0.217c0-0.078,0-0.137,0-0.168c0-0.672,0.208-1.278,0.624-1.823
				c0.864,0.705,1.296,1.474,1.296,2.306c0,1.058-0.564,2.019-1.704,2.88c-1.136,0.864-2.216,1.298-3.236,1.298
				c-0.802-0.031-1.536-0.563-2.208-1.588c-0.933-1.408-1.506-2.192-1.729-2.354c-0.833-2.756-1.248-6.169-1.248-10.237
				c0-3.105,0.24-6.071,0.722-8.893c0.19-1.188,0.277-2.499,0.266-3.94c-0.02-1.438,0.229-2.771,0.744-3.988
				c0.352-0.896,1.04-2.083,2.063-3.56c0.736-0.479,1.553-0.721,2.448-0.721C477.875,541.175,478.835,541.516,479.668,542.199z"/>
			<path fill="#FFFFFF" d="M489.555,571.128c-0.572,0.384-1.088,1.376-1.534,2.978c-0.386,1.344-1.267,2.175-2.642,2.494
				c-0.224,0.192-0.464,0.288-0.72,0.288c-0.228,0-0.544-0.079-0.96-0.238c-0.416-0.161-0.704-0.257-0.864-0.288
				c-0.992-0.734-1.488-1.745-1.488-3.021c0-0.288,0.032-0.734,0.1-1.347c0.063-0.604,0.096-1.069,0.096-1.394
				c0-0.384-0.064-0.734-0.192-1.056c0.546-0.515,0.698-1.159,0.468-1.944c-0.235-0.782-0.165-1.432,0.207-1.942
				c-0.064-0.189-0.099-0.384-0.099-0.573c0-0.771,0.496-1.715,1.488-2.832c0.992-0.288,2.112-0.387,3.36-0.288
				c0.987,1.149,1.646,2.304,1.968,3.456c0.447,0.354,0.672,0.752,0.672,1.197c0,0.227-0.072,0.555-0.216,0.982
				c-0.146,0.434-0.216,0.776-0.216,1.032c0,0.317,0.096,0.624,0.284,0.912c-0.188,0.063-0.284,0.225-0.284,0.479
				c0,0.19,0.016,0.384,0.048,0.574L489.555,571.128z M486.775,569.206c0.127-0.158,0.188-0.336,0.188-0.526
				s-0.353-0.734-1.056-1.632c0.672-0.576,0.96-1.395,0.863-2.448c-0.575-0.641-1.328-0.896-2.259-0.77
				c-0.7,0.832-1.056,1.891-1.056,3.17c0,0.225,0.018,0.593,0.048,1.104c0.031,0.512,0.049,0.896,0.049,1.15
				c0,0.896-0.116,1.681-0.354,2.354c-0.054,0.16-0.079,0.319-0.079,0.479c0,0.189,0.048,0.456,0.145,0.792
				c0.099,0.336,0.146,0.584,0.146,0.744c0,0.225-0.096,0.432-0.288,0.621c0.127,0.131,0.264,0.259,0.408,0.387
				c0.144,0.128,0.2,0.256,0.168,0.385c0.928,0.159,1.664-0.097,2.208-0.771c0.032-0.128,0.16-0.493,0.384-1.104
				c0.16-0.479,0.24-0.863,0.24-1.151c0-0.128-0.02-0.256-0.048-0.384c0.024-0.32,0.112-0.624,0.262-0.912
				c0.146-0.288,0.218-0.496,0.218-0.624C486.964,569.848,486.902,569.56,486.775,569.206z"/>
			<path fill="#FFFFFF" d="M502.662,571.32c0.063,0.19,0.096,0.368,0.096,0.526c0,0.288-0.148,0.682-0.456,1.178
				c-0.304,0.496-0.472,0.871-0.504,1.128c-0.896,0.256-1.664,0.384-2.304,0.384c-0.641,0-1.12-0.128-1.44-0.384
				c0-0.354-0.247-0.809-0.741-1.368c-0.496-0.561-0.716-1.048-0.647-1.464c0.223-0.063,0.336-0.16,0.336-0.288
				c0-0.097-0.057-0.237-0.168-0.434c-0.113-0.19-0.168-0.336-0.168-0.434c0-0.257,0.096-0.633,0.288-1.128
				c0.189-0.495,0.288-0.87,0.288-1.129c0-0.287-0.08-0.575-0.24-0.861c0-0.227,0-0.479,0-0.771c0-0.512-0.096-1.2-0.288-2.063
				c-0.189-1.059-0.305-1.729-0.336-2.019c-1.185,0.32-1.854,1.554-2.016,3.696c-0.1,1.184-0.48,2.512-1.152,3.98
				c0.063,0.228,0.096,0.479,0.096,0.771c0,0.286-0.056,0.742-0.168,1.366c-0.108,0.624-0.168,1.098-0.168,1.416
				c0,0.479,0.08,0.912,0.24,1.297c-0.032,0.031-0.185,0.199-0.456,0.505c-0.271,0.304-0.504,0.456-0.696,0.456
				c-0.096,0-0.176-0.032-0.236-0.099c-0.48-0.257-0.645-1.009-0.48-2.257c0.192-1.438,0.16-2.398-0.096-2.881
				c-0.032-0.316-0.021-0.911,0.048-1.773c0.063-1.022,0.096-1.774,0.096-2.257c0-2.593-0.72-4.098-2.159-4.514
				c0.031-0.575,0.607-1.229,1.729-1.968c0.768,0.288,1.15,0.896,1.15,1.822c0,0.13,0,0.306,0,0.526c0,0.228,0,0.386,0,0.479
				c0,0.734,0.177,1.313,0.526,1.729c0.127,0.031,0.24,0.05,0.336,0.05c0.16,0,0.319-0.11,0.48-0.338l0.336-0.574
				c-0.16-0.158-0.24-0.354-0.24-0.574c0-0.16,0.175-0.643,0.528-1.439c0.224-0.445,0.624-0.761,1.2-0.937
				c0.573-0.177,1.135-0.328,1.68-0.456c0.704,0.225,1.056,0.605,1.056,1.15c0,0.159-0.029,0.406-0.096,0.742
				s-0.096,0.584-0.096,0.743c0,0.448,0.175,0.802,0.524,1.058c0.032,0.258,0.112,0.814,0.24,1.683
				c0.127,0.703,0.192,1.264,0.192,1.68c0,0.896-0.24,1.683-0.724,2.354c0.354,1.696,0.932,2.642,1.729,2.832
				c0.031-0.063,0.176-0.435,0.432-1.104c0.16-0.416,0.4-0.72,0.722-0.912c0.128,0.192,0.415,0.308,0.862,0.337
				C502.245,570.823,502.533,571,502.662,571.32z"/>
			<path fill="#FFFFFF" d="M513.461,571.32c0.063,0.19,0.096,0.368,0.096,0.526c0,0.288-0.15,0.682-0.455,1.178
				s-0.473,0.871-0.506,1.128c-0.895,0.256-1.664,0.384-2.303,0.384s-1.12-0.128-1.438-0.384c0-0.354-0.248-0.809-0.744-1.368
				c-0.497-0.561-0.713-1.048-0.648-1.464c0.225-0.063,0.336-0.16,0.336-0.288c0-0.097-0.057-0.237-0.168-0.434
				c-0.111-0.19-0.168-0.336-0.168-0.434c0-0.257,0.097-0.633,0.288-1.128c0.192-0.495,0.288-0.87,0.288-1.129
				c0-0.287-0.08-0.575-0.24-0.861c0-0.227,0-0.479,0-0.771c0-0.512-0.096-1.2-0.288-2.063c-0.188-1.059-0.305-1.729-0.336-2.019
				c-1.185,0.32-1.854,1.554-2.016,3.696c-0.097,1.184-0.48,2.512-1.152,3.98c0.063,0.228,0.1,0.479,0.1,0.771
				c0,0.286-0.06,0.742-0.169,1.366c-0.111,0.624-0.171,1.098-0.171,1.416c0,0.479,0.08,0.912,0.24,1.297
				c-0.032,0.031-0.185,0.199-0.456,0.505c-0.271,0.304-0.504,0.456-0.692,0.456c-0.1,0-0.18-0.032-0.24-0.099
				c-0.48-0.257-0.645-1.009-0.48-2.257c0.192-1.438,0.16-2.398-0.096-2.881c-0.032-0.316-0.018-0.911,0.048-1.773
				c0.063-1.022,0.096-1.774,0.096-2.257c0-2.593-0.72-4.098-2.156-4.514c0.028-0.575,0.604-1.229,1.728-1.968
				c0.771,0.288,1.152,0.896,1.152,1.822c0,0.13,0,0.306,0,0.526c0,0.228,0,0.386,0,0.479c0,0.734,0.175,1.313,0.524,1.729
				c0.129,0.031,0.24,0.05,0.338,0.05c0.158,0,0.317-0.11,0.479-0.338l0.336-0.574c-0.16-0.158-0.24-0.354-0.24-0.574
				c0-0.16,0.176-0.643,0.528-1.439c0.224-0.445,0.624-0.761,1.2-0.937c0.576-0.177,1.135-0.328,1.68-0.456
				c0.704,0.225,1.057,0.605,1.057,1.15c0,0.159-0.029,0.406-0.097,0.742c-0.063,0.336-0.096,0.584-0.096,0.743
				c0,0.448,0.175,0.802,0.526,1.058c0.03,0.258,0.11,0.814,0.238,1.683c0.127,0.703,0.192,1.264,0.192,1.68
				c0,0.896-0.24,1.683-0.72,2.354c0.352,1.696,0.928,2.642,1.728,2.832c0.032-0.063,0.176-0.435,0.432-1.104
				c0.16-0.416,0.401-0.72,0.723-0.912c0.127,0.192,0.416,0.308,0.861,0.337C513.043,570.823,513.332,571,513.461,571.32z"/>
			<path fill="#FFFFFF" d="M523.011,571.175c0.354,0.161,0.527,0.416,0.527,0.77c0,0.735-0.672,1.563-2.016,2.475
				c-1.348,0.909-2.674,1.365-3.984,1.365c-1.023,0-1.824-0.317-2.4-0.96c0.033-0.287-0.096-0.641-0.383-1.057
				c-0.289-0.415-0.438-0.729-0.457-0.938c-0.016-0.208-0.148-0.901-0.406-2.089c-0.158-0.861-0.209-1.564-0.145-2.109
				c0.031-0.19-0.064-0.386-0.289-0.576c0.223-0.096,0.32-0.366,0.289-0.814c-0.096-0.097-0.146-0.208-0.146-0.336
				c0-0.16,0.158-0.447,0.479-0.862c0.318-0.414,0.479-0.77,0.479-1.058c0.029-1.248,0.049-2.513,0.049-3.792
				c0.189-1.473,0.734-2.544,1.633-3.217c1.15,0.031,2.287,0.688,3.408,1.969c-0.1,0.416,0.016,1.059,0.336,1.92
				c0.316,0.863,0.479,1.487,0.479,1.872c0,1.059-0.512,1.584-1.535,1.584c-0.225,0-0.633-0.063-1.225-0.189
				s-1.031-0.159-1.32-0.099c-0.416,0.063-0.73,0.337-0.959,0.815c-0.545,1.021-0.545,2.239,0,3.646
				c-0.188,0.063-0.289,0.227-0.289,0.479c0,0.448,0,0.655,0,0.624c0.389,0.16,0.576,0.479,0.576,0.96
				c0,0.288-0.096,0.527-0.287,0.721c0.802,1.536,1.566,2.307,2.309,2.307c0.352,0,0.697-0.111,1.055-0.336
				c0.449-0.063,1.104-0.527,1.969-1.395c-0.033-0.16-0.145-0.385-0.336-0.673c-0.189-0.287-0.289-0.527-0.289-0.721
				c0-0.575,0.354-0.863,1.059-0.863C521.635,570.6,522.244,570.791,523.011,571.175z M518.211,563.303
				c-0.096-0.672-0.207-1.344-0.336-2.018c-0.16-0.832-0.607-1.185-1.344-1.057c0.063,0.063,0.096,0.146,0.096,0.238
				c0,0.098-0.063,0.238-0.191,0.434c-0.129,0.19-0.189,0.32-0.189,0.385c0,0.128,0.096,0.239,0.287,0.336
				c-0.191,0.063-0.287,0.227-0.287,0.479v0.623c0.16,0.385,0.447,0.575,0.863,0.575
				C517.492,563.303,517.86,563.303,518.211,563.303z"/>
			<path fill="#FFFFFF" d="M531.315,574.365c-0.229,0.563-0.725,1.179-1.488,1.851c-1.121,0.96-1.73,1.521-1.824,1.682
				c-2.783-0.896-4.24-2.603-4.367-5.123c0.16-0.127,0.24-0.271,0.24-0.433c0-0.157-0.096-0.374-0.289-0.646
				c-0.189-0.271-0.303-0.455-0.336-0.551c0.609-0.989,0.912-2.395,0.912-4.214c0-0.19,0-0.486,0-0.886c0-0.398,0-0.71,0-0.937
				c0-2.646,0.961-4.452,2.881-5.41c0.127,0,0.344-0.056,0.648-0.167c0.303-0.109,0.52-0.168,0.645-0.168
				c0.289,0,0.514,0.178,0.672,0.521l-0.287,0.286c0.516,0.188,0.992,0.635,1.439,1.331c0.449,0.695,0.672,1.348,0.672,1.946
				c0,0.316-0.063,0.587-0.188,0.811c-0.388,0.031-0.753,0.049-1.104,0.049c-0.449,0-0.752-0.175-0.912-0.521
				c0.191-0.125,0.279-0.4,0.268-0.825c-0.021-0.425,0.057-0.7,0.217-0.826c-0.23-0.535-0.504-0.804-0.828-0.804
				c-0.195,0-0.521,0.148-0.977,0.452c-0.452,0.306-0.795,0.474-1.02,0.505c-0.521,0.511-0.777,1.181-0.777,2.01
				c0,0.352,0.072,0.909,0.216,1.675c0.146,0.768,0.218,1.341,0.218,1.724c0,0.513-0.098,0.957-0.287,1.341
				c-0.515,0.098-0.771,0.317-0.771,0.671c0,0.128,0.064,0.364,0.193,0.718c0.127,0.352,0.19,0.622,0.19,0.813
				c0,0.257-0.099,0.465-0.288,0.622l0.288,0.286l-0.239,0.287c0.352,0.128,0.559,0.479,0.625,1.054
				c0.063,0.732,0.174,1.195,0.336,1.391c0.188,0.285,0.396,0.637,0.623,1.052c0.127,0.19,0.239,0.287,0.336,0.287
				c0.127,0,0.496-0.097,1.104-0.288c0.1-0.159,0.361-0.399,0.793-0.72c0.434-0.321,0.648-0.607,0.648-0.864
				c0-0.128-0.049-0.288-0.146-0.479c-0.256-0.479-0.385-0.771-0.385-0.862c-0.031-0.128,0.064-0.466,0.289-1.01l0.191-0.385
				c0.127-0.354,0.256-0.525,0.385-0.525c0.063,0,0.24,0.137,0.527,0.405c0.288,0.271,0.574,0.377,0.861,0.313
				c0.289,0.161,0.436,0.497,0.436,1.009C531.653,573.286,531.539,573.807,531.315,574.365z"/>
			<path fill="#FFFFFF" d="M539.955,570.6c0.479,0.416,0.721,0.896,0.721,1.438c0,0.416-0.336,1.247-1.008,2.495
				c-0.512,0.961-1.313,1.438-2.4,1.438c-0.416,0-1.104-0.111-2.063-0.336c-0.77-0.896-1.215-2.146-1.344-3.742
				c0-0.098-0.02-1.456-0.051-4.08c0.227-0.225,0.32-0.416,0.289-0.576c-0.189-0.063-0.289-0.159-0.289-0.288
				c0-0.028,0.18-0.304,0.529-0.813c-0.033-0.158-0.049-0.336-0.049-0.526c0-0.225,0.057-0.561,0.168-1.009
				c0.113-0.447,0.168-0.771,0.168-0.961c0-0.318-0.096-0.606-0.287-0.862c-0.189,0-0.473,0.071-0.84,0.216
				c-0.369,0.146-0.633,0.217-0.793,0.217c-0.352,0-0.639-0.238-0.863-0.721c0.031-0.479-0.063-0.77-0.289-0.863
				c0.1-0.701,0.764-1.109,1.992-1.225c1.232-0.111,1.851-0.393,1.851-0.841c0-0.319-0.159-0.751-0.479-1.296
				c0.191-0.063,0.287-0.227,0.287-0.479c0-0.445,0-0.652,0-0.624c-0.031-0.158-0.031-0.64,0-1.438
				c0.033-0.606-0.064-1.07-0.287-1.395c-0.416,0.192-0.977,0.576-1.68,1.152c-0.229-0.288-0.336-0.593-0.336-0.912
				c0-0.288,0.109-0.615,0.336-0.982c0.223-0.366,0.316-0.584,0.287-0.646l-0.287-0.287c0.352-0.385,0.799-0.576,1.344-0.576
				c0.543,0,1.021,0.191,1.438,0.576c0.416,0.384,0.607,0.862,0.576,1.438c0.031,0.99,0.047,2,0.047,3.021
				c0,1.248-0.207,2.192-0.623,2.832c0.191,0.032,0.488,0.137,0.891,0.313c0.396,0.178,0.693,0.266,0.887,0.266
				c0.32,0,0.576-0.191,0.771-0.576c0.479-0.031,0.76,0.059,0.84,0.266c0.078,0.209,0.119,0.395,0.119,0.554
				c0,0.545-0.449,1.039-1.346,1.485c-1.119,0.547-1.744,0.896-1.872,1.059c-0.19,0.896-0.386,1.793-0.573,2.688
				c-0.229,1.058-0.336,1.938-0.336,2.642c0,0.77,0.127,1.521,0.383,2.257c-0.031,0.448,0.049,0.736,0.24,0.863
				c0,0.446-0.021,0.896-0.051,1.345c0.029,0.544,0.238,0.928,0.625,1.15c0.861,0.098,1.375-0.209,1.533-0.911
				c0.064-0.643,0.16-1.288,0.289-1.943C538.547,570.736,539.058,570.472,539.955,570.6z"/>
		</g>
	</g>
</g>
<g id="Ebene_2">
	<g>
		<g>
			<path fill="#1DAC84" d="M507.46,596.453c-0.04,2.346-0.493,4.631,0.014,6.953c0.194,0.898,2.132,0.396,1.935-0.518
				c-0.479-2.197-0.024-4.368,0.013-6.584C509.434,595.293,507.475,595.58,507.46,596.453L507.46,596.453z"/>
		</g>
	</g>
	<g>
		<g>
			<path fill="#1DAC84" d="M512.478,598.112c0.688,2.166,0.977,4.418,2.412,6.264c0.313,0.398,2.156-0.242,1.813-0.684
				c-1.377-1.771-1.635-4.021-2.293-6.099C514.248,597.088,512.328,597.641,512.478,598.112L512.478,598.112z"/>
		</g>
	</g>
	<g>
		<g>
			<path fill="#1DAC84" d="M516.972,597.106c1.416,1.742,2.977,3.354,4.121,5.297c0.451,0.77,2.289,0.027,1.77-0.856
				c-1.146-1.943-2.707-3.557-4.121-5.298C518.174,595.549,516.34,596.323,516.972,597.106L516.972,597.106z"/>
		</g>
	</g>
	<g>
		<g>
			<path fill="#1DAC84" d="M522.265,595.615c1.246,1.931,2.092,4.085,3.531,5.889c0.514,0.641,2.359-0.099,1.775-0.823
				c-1.443-1.803-2.285-3.959-3.531-5.887C523.603,594.112,521.748,594.814,522.265,595.615L522.265,595.615z"/>
		</g>
	</g>
	<g>
		<g>
			<path fill="#1DAC84" d="M503.114,595.721c-0.72,1.121-1.197,2.413-1.532,3.698c-0.218,0.838,1.748,0.569,1.946-0.188
				c0.307-1.179,0.752-2.338,1.412-3.366c0.26-0.402-0.225-0.679-0.563-0.706C503.91,595.12,503.373,595.315,503.114,595.721
				L503.114,595.721z"/>
		</g>
	</g>
	<g>
		<g>
			<path fill="#1DAC84" d="M494.885,596.069c-1.222,1.811-2.624,3.45-4.289,4.865c-0.312,0.266-0.21,0.599,0.186,0.679
				c0.459,0.093,1.012-0.063,1.365-0.365c1.756-1.489,3.25-3.233,4.538-5.142C497.18,595.366,495.239,595.55,494.885,596.069
				L494.885,596.069z"/>
		</g>
	</g>
	<g>
		<g>
			<path fill="#1DAC84" d="M486.912,595.366c-0.577,1.368-1.491,2.57-2.665,3.481c-0.337,0.262-0.485,0.764-0.089,1.052
				c0.4,0.294,1.017,0.188,1.389-0.104c1.4-1.087,2.534-2.534,3.225-4.173C489.21,594.575,487.262,594.529,486.912,595.366
				L486.912,595.366z"/>
		</g>
	</g>
	<g>
		<g>
			<path fill="#1DAC84" d="M481.766,593.916c-2.093,0.641-3.694,2.55-5.466,3.758c-0.354,0.244-0.47,0.771-0.09,1.052
				c0.419,0.305,0.996,0.165,1.39-0.104c0.86-0.59,1.669-1.252,2.479-1.902c0.605-0.486,1.3-1.168,2.063-1.4
				C483.324,594.951,482.959,593.551,481.766,593.916L481.766,593.916z"/>
		</g>
	</g>
	<g>
		<g>
			<path fill="#1DAC84" d="M474.416,591.953c-2.043,0.084-3.896,1.366-5.316,2.747c-0.305,0.3-0.194,0.677,0.211,0.78
				c0.455,0.12,1.027-0.038,1.364-0.366c0.942-0.917,2.146-1.9,3.513-1.959C475.204,593.115,475.746,591.901,474.416,591.953
				L474.416,591.953z"/>
		</g>
	</g>
	<g>
		<g>
			<path fill="#1DAC84" d="M463.076,585.078c-1.505,1.176-3.204,2.063-4.709,3.235c-1.037,0.811,0.539,1.396,1.267,0.828
				c1.505-1.175,3.204-2.063,4.709-3.238C465.377,585.098,463.802,584.511,463.076,585.078L463.076,585.078z"/>
		</g>
	</g>
	<g>
		<g>
			<path fill="#1DAC84" d="M459.824,580.316c-1.675,1.104-3.423,2.086-5.424,2.424c-1.235,0.209-0.83,1.591,0.371,1.39
				c2.336-0.396,4.396-1.588,6.349-2.873c0.358-0.236,0.469-0.771,0.092-1.042C460.788,579.906,460.219,580.054,459.824,580.316
				L459.824,580.316z"/>
		</g>
	</g>
	<g>
		<g>
			<path fill="#1DAC84" d="M456.603,575.086c-1.416,0.818-2.99,1.327-4.535,1.846c-1.15,0.384-0.845,1.625,0.328,1.23
				c1.887-0.63,3.74-1.271,5.47-2.271c0.34-0.196,0.5-0.694,0.12-0.938C457.551,574.678,457.003,574.853,456.603,575.086
				L456.603,575.086z"/>
		</g>
	</g>
	<g>
		<g>
			<path fill="#1DAC84" d="M455.449,568.402c-1.334-0.308-2.688-0.336-4.046-0.336c-0.461,0-1.024,0.123-1.268,0.57
				c-0.212,0.396,0.186,0.733,0.568,0.733c1.199,0.001,2.43-0.019,3.604,0.252c0.476,0.107,1.023,0.001,1.365-0.364
				C455.958,568.955,455.883,568.503,455.449,568.402L455.449,568.402z"/>
		</g>
	</g>
	<g>
		<g>
			<path fill="#1DAC84" d="M456.636,561.386c-1.15-0.311-2.107-0.99-3.057-1.695c-0.559-0.417-2.325,0.394-1.522,0.989
				c1.063,0.791,2.13,1.489,3.418,1.836c0.449,0.119,1.034-0.046,1.365-0.366C457.149,561.852,457.042,561.492,456.636,561.386
				L456.636,561.386z"/>
		</g>
	</g>
	<g>
		<g>
			<path fill="#1DAC84" d="M459.376,553.449c-0.941-1.528-2.196-2.772-3.588-3.896c-0.421-0.341-2.131,0.413-1.817,0.666
				c1.346,1.085,2.564,2.271,3.478,3.751C457.75,554.464,459.547,553.73,459.376,553.449L459.376,553.449z"/>
		</g>
	</g>
	<g>
		<g>
			<path fill="#1DAC84" d="M463.497,545.506c-1.272-2.8-2.848-5.441-4.12-8.239c-0.35-0.771-2.253-0.19-1.932,0.518
				c1.271,2.8,2.848,5.442,4.12,8.24C461.915,546.795,463.821,546.214,463.497,545.506L463.497,545.506z"/>
		</g>
	</g>
	<g>
		<g>
			<path fill="#1DAC84" d="M465.261,536.972c0-1.372,0.018-2.773-0.294-4.119c-0.146-0.648-2.086-0.154-1.932,0.519
				c0.309,1.348,0.294,2.746,0.294,4.119C463.331,538.066,465.261,537.705,465.261,536.972L465.261,536.972z"/>
		</g>
	</g>
	<g>
		<g>
			<path fill="#1DAC84" d="M464.118,529.755c2.448,1.047,3.313,4.113,4.511,6.264c0.367,0.66,2.231,0.021,1.932-0.519
				c-1.301-2.341-2.234-5.546-4.902-6.688C465.073,528.567,463.305,529.407,464.118,529.755L464.118,529.755z"/>
		</g>
	</g>
	<g>
		<g>
			<path fill="#1DAC84" d="M471.861,526.442c0.043,1.863,0.563,3.632,0.889,5.456c0.137,0.771,2.075,0.289,1.932-0.519
				c-0.304-1.708-0.837-3.396-0.877-5.141C473.783,525.331,471.842,525.712,471.861,526.442L471.861,526.442z"/>
		</g>
	</g>
	<g>
		<g>
			<path fill="#1DAC84" d="M479.291,524.365c0.29,0.396,0.278,1.228,0.336,1.688c0.121,0.963,0.176,1.938,0.186,2.905
				c0.006,0.599,1.938,0.229,1.934-0.52c-0.007-0.973-0.073-1.939-0.186-2.906c-0.067-0.604-0.098-1.405-0.475-1.921
				C480.701,523.086,478.832,523.74,479.291,524.365L479.291,524.365z"/>
		</g>
	</g>
	<g>
		<g>
			<path fill="#1DAC84" d="M484.519,523.656c0.952,1.781,0.563,3.979,0.296,5.889c-0.023,0.166,1.854,0.033,1.932-0.521
				c0.27-1.91,0.661-4.104-0.294-5.886C486.215,522.7,484.391,523.421,484.519,523.656L484.519,523.656z"/>
		</g>
	</g>
	<g>
		<g>
			<path fill="#1DAC84" d="M490.7,524.836c0.247,0.677-0.011,1.637-0.104,2.321c-0.138,1.035-0.319,2.063-0.496,3.097
				c-0.152,0.926,1.814,0.646,1.951-0.17c0.189-1.125,0.383-2.25,0.534-3.383c0.095-0.717,0.303-1.681,0.045-2.386
				C492.327,523.484,490.406,524.031,490.7,524.836L490.7,524.836z"/>
		</g>
	</g>
	<g>
		<g>
			<path fill="#1DAC84" d="M499.739,522.99c-0.747,2.313-1.698,4.559-2.188,6.942c-0.149,0.746,1.796,0.431,1.937-0.237
				c0.484-2.388,1.438-4.632,2.186-6.94C501.888,522.068,499.95,522.33,499.739,522.99L499.739,522.99z"/>
		</g>
	</g>
	<g>
		<g>
			<path fill="#1DAC84" d="M508.437,524.317c-1.227,1.529-2.409,3.075-3.313,4.822c-0.208,0.403,1.642,0.234,1.916-0.299
				c0.858-1.668,1.997-3.136,3.164-4.595C510.664,523.678,508.761,523.907,508.437,524.317L508.437,524.317z"/>
		</g>
	</g>
	<g>
		<g>
			<path fill="#1DAC84" d="M519.877,525.654c-1.133,0.65-2.305,1.466-3.113,2.501c-0.744,0.952,1.1,1.133,1.6,0.494
				c0.723-0.928,1.76-1.624,2.771-2.206c0.338-0.192,0.504-0.688,0.125-0.925C520.824,525.246,520.278,525.423,519.877,525.654
				L519.877,525.654z"/>
		</g>
	</g>
	<g>
		<g>
			<path fill="#1DAC84" d="M527.615,529.411c0.068-0.044,0.143-0.085,0.213-0.131c0.783-0.489,0.098-1.105-0.543-1.104
				c-0.98,0.001-2.303,1.188-3.084,1.646c-1.445,0.854-2.893,1.708-4.332,2.57c-0.348,0.208-0.49,0.718-0.111,0.969
				c0.43,0.284,0.982,0.115,1.383-0.125c1.225-0.729,2.451-1.457,3.68-2.184c0.607-0.36,1.221-0.723,1.83-1.08
				c0.227-0.134,0.449-0.269,0.676-0.397c0.391-0.229,0.313-0.028-0.227-0.027c-0.18-0.37-0.359-0.738-0.543-1.107
				c-0.068,0.045-0.143,0.087-0.215,0.13c-0.346,0.208-0.488,0.719-0.111,0.971C526.662,529.822,527.215,529.654,527.615,529.411
				L527.615,529.411z"/>
		</g>
	</g>
	<g>
		<g>
			<path fill="#1DAC84" d="M538.265,531.288c-1.725,0.12-3.348,1.167-4.795,2.023c-1.947,1.153-3.803,2.497-5.521,3.972
				c-0.891,0.766,1.014,0.977,1.592,0.479c1.357-1.162,2.834-2.188,4.334-3.153c1.17-0.756,2.744-1.931,4.188-2.03
				C539.101,532.505,539.592,531.197,538.265,531.288L538.265,531.288z"/>
		</g>
	</g>
	<g>
		<g>
			<path fill="#1DAC84" d="M546.465,536.609c-1.398-0.196-2.992,0.602-4.248,1.105c-1.902,0.771-3.766,1.682-5.557,2.688
				c-1.139,0.643,0.527,1.12,1.238,0.722c1.27-0.716,2.596-1.338,3.926-1.936c1.045-0.471,2.742-1.502,3.928-1.335
				C546.595,537.971,547.763,536.793,546.465,536.609L546.465,536.609z"/>
		</g>
	</g>
	<g>
		<g>
			<path fill="#1DAC84" d="M553.006,540.734c-1.801,0.604-3.551,1.311-5.254,2.149c-1.189,0.587-0.119,1.521,0.832,1.054
				c1.543-0.764,3.121-1.419,4.752-1.97C554.485,541.58,554.177,540.338,553.006,540.734L553.006,540.734z"/>
		</g>
	</g>
	<g>
		<g>
			<path fill="#1DAC84" d="M552.767,545.285c-2.438,1.321-5.176,1.932-7.57,3.355c-1.125,0.67,0.529,1.139,1.234,0.719
				c2.248-1.339,4.852-1.876,7.145-3.118C554.739,545.612,553.672,544.796,552.767,545.285L552.767,545.285z"/>
		</g>
	</g>
	<g>
		<g>
			<path fill="#1DAC84" d="M555.703,552.908c-1.996,0.811-4.133,1.067-6.254,1.336c-1.021,0.128-1.531,1.451-0.207,1.284
				c2.486-0.313,4.945-0.663,7.283-1.605C557.761,553.421,556.653,552.527,555.703,552.908L555.703,552.908z"/>
		</g>
	</g>
	<g>
		<g>
			<path fill="#1DAC84" d="M558.567,557.641c-2.359,0.021-4.699,0.335-6.98,0.957c-1.143,0.313-0.926,1.13,0.219,0.814
				c1.955-0.532,3.947-0.789,5.979-0.809C558.416,558.601,559.865,557.63,558.567,557.641L558.567,557.641z"/>
		</g>
	</g>
	<g>
		<g>
			<path fill="#1DAC84" d="M560.047,562.09c-3.252,0.001-6.471,0.089-9.623,0.964c-1.133,0.313-0.938,1.053,0.197,0.734
				c2.818-0.78,5.719-0.803,8.621-0.805C559.836,562.987,561.342,562.089,560.047,562.09L560.047,562.09z"/>
		</g>
	</g>
	<g>
		<g>
			<path fill="#1DAC84" d="M554.301,569.101c0.006,0,0.014,0,0.02,0c-0.209-0.14-0.416-0.278-0.625-0.417c0,0.001,0,0.001,0,0.002
				c0.266-0.297,0.529-0.596,0.797-0.893c0.506-0.114-0.197,0.014-0.332,0.026c-0.408,0.05-0.816,0.103-1.227,0.156
				c-0.744,0.104-1.547,0.185-2.24,0.491c-0.332,0.146-0.76,0.582-0.469,0.959c0.299,0.384,0.928,0.292,1.309,0.123
				c0.092-0.039,0.076-0.033-0.045,0.017c0.063-0.019,0.127-0.035,0.188-0.05c0.115-0.028,0.234-0.055,0.354-0.073
				c0.385-0.064,0.771-0.119,1.16-0.169c0.543-0.068,1.104-0.098,1.643-0.219c0.414-0.096,0.854-0.428,0.795-0.893
				c0-0.002,0-0.002,0-0.003c-0.031-0.263-0.401-0.407-0.625-0.418c-0.004,0-0.01-0.001-0.016-0.001
				c-0.463-0.021-1.033,0.131-1.264,0.58C553.513,568.74,553.905,569.084,554.301,569.101L554.301,569.101z"/>
		</g>
	</g>
	<g>
		<g>
			<path fill="#1DAC84" d="M557.978,572.948c-1.965,0-3.926,0-5.889,0c-0.629,0-2.088,0.955-0.789,0.955c1.963,0,3.928,0,5.891,0
				C557.819,573.905,559.278,572.948,557.978,572.948L557.978,572.948z"/>
		</g>
	</g>
	<g>
		<g>
			<path fill="#1DAC84" d="M556.612,580.406c-3.484-0.917-6.814-2.319-10.3-3.235c-0.45-0.118-2.153,0.604-1.591,0.756
				c3.486,0.916,6.814,2.318,10.305,3.234C555.478,581.281,557.179,580.557,556.612,580.406L556.612,580.406z"/>
		</g>
	</g>
	<g>
		<g>
			<path fill="#1DAC84" d="M550.33,582.668c-2.586,0.232-5.186-1.12-7.734-1.464c-0.51-0.065-2.256,0.783-1.217,0.926
				c2.707,0.36,5.389,1.73,8.158,1.479c0.436-0.04,0.982-0.141,1.283-0.496C551.106,582.777,550.578,582.645,550.33,582.668
				L550.33,582.668z"/>
		</g>
	</g>
	<g>
		<g>
			<path fill="#1DAC84" d="M545.435,587.375c-0.141,0.309,0.016,0.286,0.453-0.062c-0.113-0.021-0.229-0.054-0.348-0.086
				c-0.32-0.086-0.627-0.244-0.926-0.384c-0.631-0.293-1.242-0.634-1.863-0.947c-0.58-0.294-2.352,0.538-1.531,0.953
				c1.139,0.573,2.271,1.289,3.531,1.544c1.021,0.205,2.313-0.166,2.615-1.255C547.571,586.421,545.623,586.699,545.435,587.375
				L545.435,587.375z"/>
		</g>
	</g>
	<g>
		<g>
			<path fill="#1DAC84" d="M546.715,591.795c-3.43-0.601-7.012-0.888-10.004-2.832c-0.52-0.338-2.223,0.438-1.805,0.713
				c3.188,2.074,6.938,2.414,10.596,3.054C546.019,592.818,547.761,591.978,546.715,591.795L546.715,591.795z"/>
		</g>
	</g>
	<g>
		<g>
			<path fill="#1DAC84" d="M538.869,596.088c-1.572,0.065-3.193-1.623-4.238-2.585c-1.1-1.014-2.104-2.118-3.227-3.104
				c-0.557-0.488-2.369,0.271-1.785,0.785c2.547,2.245,5.221,6.245,9.014,6.08C539.636,597.22,540.199,596.031,538.869,596.088
				L538.869,596.088z"/>
		</g>
	</g>
	<g>
		<g>
			<path fill="#1DAC84" d="M533.433,599.597c-2.398-0.646-4.227-2.146-5.564-4.215c-0.438-0.673-2.291,0.022-1.775,0.818
				c1.477,2.271,3.578,3.909,6.205,4.614C533.056,601.023,534.584,599.906,533.433,599.597L533.433,599.597z"/>
		</g>
	</g>
</g>
<g id="Ebene_3_1_">
</g>
<g>
	<path fill="#086E52" d="M11.64,15.696C4.578,31.881-3.662,59.249,12.229,70.432c7.063,5.003,39.434,11.184,48.556,11.771
		c18.541,1.472,32.371-0.295,42.082-16.774c4.121-6.769,10.594-20.6,8.24-28.251c-3.531-10.3-4.709-19.422-14.42-23.542
		C77.266,5.69,55.783-0.784,34.594,2.453C34.594,2.453,16.938,4.513,11.64,15.696z"/>
</g>
<g>
	<path fill="#1AAB83" d="M35.772,10.693c-5.885,0.884-11.184,2.354-16.479,5.593c-5.003,2.941-5.591,7.65-7.945,12.653
		c-9.711,21.776,1.177,41.493,23.837,45.907c13.241,2.649,30.015,1.472,43.257-0.883c9.418-1.473,25.896-14.713,25.604-26.19
		c-0.295-12.947-2.647-15.009-12.653-23.543c-11.06-9.434-26.779-15.891-41.199-13.537C50.192,10.693,39.892,10.399,35.772,10.693z"
		/>
</g>
<g>
	<g enable-background="new    ">
		<path fill="#FFFFFF" d="M30.249,22.138c-0.161,0.424-0.528,0.993-1.104,1.71c-0.96-0.8-1.584-1.2-1.872-1.2
			c-0.256,0-0.576,0.097-0.96,0.289c-1.024,0.576-1.68,1.474-1.968,2.691c-0.448,1.923-0.72,2.997-0.816,3.221
			c0,0.417,0.048,0.777,0.144,1.081c0.096,0.305,0.144,0.474,0.144,0.505c0,0.161-0.288,0.562-0.864,1.202l0.576,0.288v0.577
			c-0.448-0.063-0.736,0.032-0.864,0.289c0.416,0.833,0.624,1.361,0.624,1.586c0,0.128-0.017,0.257-0.048,0.385
			c-0.416,0.16-0.608,0.721-0.576,1.682c0,0.129,0,0.289,0,0.481c0,0.225-0.048,0.554-0.144,0.985
			c-0.096,0.433-0.144,0.761-0.144,0.985c0,0.321,0.082,0.626,0.247,0.913c-0.028,0.353-0.014,1.523,0.042,3.51
			c0,1.442-0.096,2.611-0.288,3.509c0.127,0.737,0.607,2.147,1.44,4.23c-0.096,0.128-0.144,0.272-0.144,0.433
			c0,0.288,0.24,0.705,0.72,1.25s0.751,0.913,0.816,1.105c-0.192,0.096-0.288,0.224-0.288,0.385c0,0.096,0.088,0.264,0.264,0.504
			c0.175,0.24,0.28,0.409,0.312,0.505c1.664-0.608,2.768-1.184,3.312-1.728c0.352-0.352,0.528-0.816,0.528-1.393
			c0-0.063,0-0.136,0-0.216c0-0.079,0-0.136,0-0.168c0-0.672,0.208-1.279,0.624-1.824c0.864,0.705,1.296,1.473,1.296,2.305
			c0,1.056-0.568,2.016-1.704,2.88c-1.136,0.864-2.216,1.296-3.24,1.296c-0.8-0.032-1.536-0.561-2.208-1.586
			c-0.929-1.41-1.504-2.195-1.728-2.355c-0.833-2.756-1.248-6.169-1.248-10.238c0-3.107,0.24-6.072,0.72-8.892
			c0.192-1.186,0.279-2.499,0.264-3.941c-0.017-1.441,0.232-2.771,0.744-3.989c0.352-0.897,1.04-2.083,2.064-3.558
			c0.736-0.479,1.552-0.721,2.448-0.721C28.457,21.112,29.417,21.453,30.249,22.138z"/>
		<path fill="#FFFFFF" d="M40.137,51.064c-0.576,0.384-1.088,1.376-1.536,2.977c-0.384,1.344-1.265,2.175-2.64,2.495
			c-0.224,0.192-0.464,0.288-0.72,0.288c-0.224,0-0.544-0.08-0.96-0.239c-0.416-0.161-0.704-0.257-0.864-0.288
			c-0.992-0.737-1.488-1.745-1.488-3.024c0-0.288,0.032-0.735,0.096-1.344c0.063-0.607,0.096-1.072,0.096-1.393
			c0-0.384-0.065-0.735-0.192-1.056c0.544-0.512,0.698-1.159,0.464-1.944c-0.235-0.783-0.165-1.432,0.208-1.943
			c-0.065-0.192-0.096-0.384-0.096-0.576c0-0.768,0.496-1.712,1.488-2.832c0.992-0.288,2.112-0.384,3.36-0.288
			c0.991,1.152,1.647,2.304,1.968,3.456c0.448,0.353,0.672,0.752,0.672,1.2c0,0.224-0.072,0.552-0.216,0.983
			c-0.144,0.433-0.216,0.776-0.216,1.032c0,0.32,0.096,0.624,0.288,0.912c-0.192,0.064-0.288,0.225-0.288,0.48
			c0,0.191,0.016,0.384,0.048,0.575L40.137,51.064z M37.353,49.144c0.127-0.16,0.192-0.336,0.192-0.528
			c0-0.191-0.353-0.735-1.056-1.632c0.672-0.576,0.96-1.392,0.864-2.448c-0.576-0.64-1.329-0.896-2.256-0.768
			c-0.704,0.832-1.056,1.889-1.056,3.168c0,0.225,0.016,0.593,0.048,1.104c0.031,0.512,0.048,0.896,0.048,1.151
			c0,0.896-0.118,1.68-0.353,2.353c-0.053,0.16-0.079,0.32-0.079,0.479c0,0.192,0.048,0.456,0.144,0.792
			c0.096,0.336,0.144,0.584,0.144,0.744c0,0.224-0.096,0.432-0.288,0.624c0.127,0.128,0.264,0.256,0.408,0.384
			s0.2,0.256,0.168,0.384c0.928,0.16,1.664-0.096,2.208-0.768c0.032-0.128,0.16-0.496,0.384-1.104c0.16-0.479,0.24-0.863,0.24-1.151
			c0-0.128-0.017-0.256-0.048-0.384c0.028-0.32,0.116-0.624,0.262-0.912s0.218-0.496,0.218-0.624
			C37.545,49.784,37.481,49.496,37.353,49.144z"/>
		<path fill="#FFFFFF" d="M53.241,51.256c0.063,0.191,0.096,0.368,0.096,0.527c0,0.288-0.152,0.681-0.456,1.177
			c-0.304,0.496-0.472,0.871-0.504,1.128c-0.896,0.256-1.664,0.384-2.304,0.384s-1.12-0.128-1.44-0.384
			c0-0.353-0.248-0.808-0.744-1.368c-0.497-0.56-0.713-1.048-0.648-1.464c0.223-0.064,0.336-0.16,0.336-0.288
			c0-0.097-0.057-0.24-0.168-0.433c-0.113-0.191-0.168-0.336-0.168-0.432c0-0.256,0.096-0.632,0.288-1.128
			c0.192-0.496,0.288-0.871,0.288-1.128c0-0.288-0.08-0.576-0.24-0.864c0-0.224,0-0.479,0-0.768c0-0.512-0.096-1.2-0.288-2.064
			c-0.192-1.056-0.305-1.728-0.336-2.016c-1.185,0.32-1.856,1.553-2.016,3.696c-0.096,1.184-0.48,2.512-1.152,3.983
			c0.063,0.225,0.096,0.48,0.096,0.769c0,0.287-0.056,0.743-0.168,1.367c-0.112,0.624-0.168,1.097-0.168,1.416
			c0,0.48,0.08,0.912,0.24,1.296c-0.032,0.032-0.185,0.2-0.456,0.505c-0.272,0.304-0.504,0.456-0.696,0.456
			c-0.096,0-0.176-0.032-0.24-0.097c-0.48-0.256-0.641-1.008-0.48-2.256c0.192-1.439,0.16-2.4-0.096-2.88
			c-0.032-0.319-0.017-0.912,0.048-1.776c0.063-1.023,0.096-1.775,0.096-2.256c0-2.592-0.72-4.096-2.16-4.512
			c0.032-0.576,0.608-1.231,1.728-1.968c0.768,0.288,1.152,0.896,1.152,1.823c0,0.129,0,0.305,0,0.528c0,0.225,0,0.384,0,0.48
			c0,0.736,0.175,1.313,0.528,1.728c0.127,0.032,0.24,0.048,0.336,0.048c0.16,0,0.319-0.111,0.48-0.336l0.336-0.576
			c-0.16-0.159-0.24-0.352-0.24-0.575c0-0.16,0.175-0.641,0.528-1.44c0.224-0.447,0.624-0.76,1.2-0.936
			c0.576-0.176,1.135-0.328,1.68-0.456c0.704,0.224,1.056,0.607,1.056,1.151c0,0.161-0.032,0.408-0.096,0.744
			c-0.064,0.336-0.096,0.584-0.096,0.744c0,0.448,0.175,0.8,0.528,1.056c0.032,0.257,0.112,0.816,0.24,1.681
			c0.127,0.704,0.192,1.264,0.192,1.68c0,0.896-0.24,1.68-0.72,2.352c0.352,1.697,0.928,2.641,1.728,2.832
			c0.032-0.063,0.176-0.432,0.432-1.104c0.16-0.416,0.4-0.72,0.72-0.912c0.127,0.192,0.416,0.305,0.864,0.336
			C52.824,50.76,53.113,50.937,53.241,51.256z"/>
		<path fill="#FFFFFF" d="M64.041,51.256c0.063,0.191,0.096,0.368,0.096,0.527c0,0.288-0.152,0.681-0.456,1.177
			s-0.472,0.871-0.504,1.128c-0.896,0.256-1.664,0.384-2.304,0.384c-0.641,0-1.121-0.128-1.44-0.384
			c0-0.353-0.248-0.808-0.743-1.368c-0.497-0.56-0.713-1.048-0.648-1.464c0.223-0.064,0.336-0.16,0.336-0.288
			c0-0.097-0.057-0.24-0.168-0.433c-0.113-0.191-0.168-0.336-0.168-0.432c0-0.256,0.096-0.632,0.287-1.128
			c0.193-0.496,0.289-0.871,0.289-1.128c0-0.288-0.08-0.576-0.24-0.864c0-0.224,0-0.479,0-0.768c0-0.512-0.096-1.2-0.288-2.064
			c-0.192-1.056-0.305-1.728-0.336-2.016c-1.185,0.32-1.856,1.553-2.016,3.696c-0.096,1.184-0.48,2.512-1.152,3.983
			c0.063,0.225,0.096,0.48,0.096,0.769c0,0.287-0.056,0.743-0.168,1.367c-0.112,0.624-0.168,1.097-0.168,1.416
			c0,0.48,0.08,0.912,0.24,1.296c-0.032,0.032-0.185,0.2-0.456,0.505c-0.272,0.304-0.504,0.456-0.696,0.456
			c-0.096,0-0.176-0.032-0.24-0.097c-0.48-0.256-0.641-1.008-0.48-2.256c0.192-1.439,0.16-2.4-0.096-2.88
			c-0.032-0.319-0.017-0.912,0.048-1.776c0.063-1.023,0.096-1.775,0.096-2.256c0-2.592-0.72-4.096-2.16-4.512
			c0.032-0.576,0.608-1.231,1.728-1.968c0.768,0.288,1.152,0.896,1.152,1.823c0,0.129,0,0.305,0,0.528c0,0.225,0,0.384,0,0.48
			c0,0.736,0.175,1.313,0.528,1.728c0.127,0.032,0.24,0.048,0.336,0.048c0.16,0,0.319-0.111,0.48-0.336l0.336-0.576
			c-0.16-0.159-0.24-0.352-0.24-0.575c0-0.16,0.175-0.641,0.528-1.44c0.224-0.447,0.624-0.76,1.2-0.936
			c0.576-0.176,1.136-0.328,1.68-0.456c0.704,0.224,1.057,0.607,1.057,1.151c0,0.161-0.032,0.408-0.096,0.744
			c-0.064,0.336-0.096,0.584-0.096,0.744c0,0.448,0.175,0.8,0.527,1.056c0.031,0.257,0.111,0.816,0.24,1.681
			c0.127,0.704,0.191,1.264,0.191,1.68c0,0.896-0.24,1.68-0.72,2.352c0.353,1.697,0.928,2.641,1.728,2.832
			c0.032-0.063,0.176-0.432,0.433-1.104c0.159-0.416,0.399-0.72,0.72-0.912c0.128,0.192,0.416,0.305,0.864,0.336
			C63.625,50.76,63.912,50.937,64.041,51.256z"/>
		<path fill="#FFFFFF" d="M73.592,51.112c0.352,0.161,0.527,0.416,0.527,0.769c0,0.736-0.672,1.56-2.016,2.472
			s-2.672,1.368-3.984,1.368c-1.023,0-1.823-0.32-2.399-0.96c0.032-0.288-0.096-0.641-0.384-1.057
			c-0.288-0.415-0.44-0.728-0.456-0.936c-0.017-0.208-0.152-0.903-0.408-2.088c-0.16-0.864-0.208-1.567-0.144-2.112
			c0.031-0.191-0.064-0.384-0.288-0.576c0.224-0.096,0.319-0.367,0.288-0.815c-0.096-0.097-0.145-0.208-0.145-0.336
			c0-0.16,0.16-0.448,0.48-0.864c0.319-0.415,0.48-0.768,0.48-1.056c0.031-1.248,0.047-2.512,0.047-3.792
			c0.192-1.472,0.736-2.544,1.633-3.217c1.151,0.032,2.287,0.688,3.408,1.969c-0.097,0.416,0.016,1.056,0.336,1.92
			c0.318,0.863,0.479,1.487,0.479,1.872c0,1.056-0.513,1.584-1.536,1.584c-0.225,0-0.633-0.064-1.225-0.192
			c-0.592-0.127-1.031-0.159-1.319-0.096c-0.416,0.064-0.736,0.336-0.96,0.815c-0.545,1.024-0.545,2.24,0,3.648
			c-0.191,0.064-0.288,0.225-0.288,0.479c0,0.449,0,0.656,0,0.624c0.384,0.161,0.576,0.48,0.576,0.96
			c0,0.288-0.097,0.528-0.288,0.721c0.799,1.536,1.567,2.304,2.305,2.304c0.352,0,0.703-0.112,1.055-0.336
			c0.448-0.064,1.104-0.528,1.969-1.392c-0.032-0.16-0.145-0.385-0.336-0.673c-0.192-0.287-0.288-0.527-0.288-0.72
			c0-0.576,0.352-0.864,1.056-0.864C72.215,50.535,72.824,50.728,73.592,51.112z M68.792,43.24
			c-0.097-0.672-0.208-1.344-0.336-2.016c-0.161-0.832-0.608-1.184-1.345-1.056c0.064,0.064,0.097,0.144,0.097,0.239
			c0,0.097-0.064,0.24-0.192,0.433c-0.128,0.191-0.191,0.32-0.191,0.384c0,0.128,0.096,0.24,0.287,0.336
			c-0.191,0.064-0.287,0.225-0.287,0.48v0.623c0.159,0.385,0.447,0.576,0.863,0.576C68.072,43.24,68.439,43.24,68.792,43.24z"/>
		<path fill="#FFFFFF" d="M81.894,54.304c-0.224,0.56-0.719,1.176-1.487,1.848c-1.12,0.96-1.728,1.52-1.824,1.681
			c-2.784-0.895-4.24-2.602-4.368-5.123c0.16-0.127,0.24-0.271,0.24-0.432c0-0.158-0.096-0.374-0.287-0.646
			c-0.193-0.271-0.305-0.455-0.337-0.551c0.608-0.989,0.912-2.394,0.912-4.213c0-0.191,0-0.487,0-0.886c0-0.399,0-0.71,0-0.934
			c0-2.649,0.96-4.452,2.88-5.41c0.128,0,0.344-0.056,0.648-0.167c0.304-0.112,0.52-0.168,0.648-0.168
			c0.287,0,0.511,0.175,0.672,0.522l-0.289,0.286c0.512,0.19,0.992,0.634,1.44,1.331s0.672,1.347,0.672,1.948
			c0,0.317-0.064,0.587-0.192,0.809c-0.383,0.031-0.752,0.048-1.104,0.048c-0.448,0-0.752-0.174-0.912-0.521
			c0.192-0.126,0.279-0.401,0.264-0.826s0.057-0.7,0.217-0.826c-0.228-0.536-0.504-0.804-0.828-0.804
			c-0.194,0-0.519,0.151-0.973,0.454c-0.454,0.304-0.795,0.472-1.021,0.503c-0.519,0.511-0.777,1.181-0.777,2.01
			c0,0.351,0.071,0.909,0.215,1.674c0.145,0.767,0.217,1.341,0.217,1.724c0,0.51-0.096,0.957-0.288,1.339
			c-0.513,0.097-0.769,0.319-0.769,0.67c0,0.128,0.064,0.367,0.192,0.718s0.192,0.622,0.192,0.813c0,0.255-0.096,0.463-0.289,0.622
			l0.289,0.286l-0.24,0.287c0.352,0.128,0.559,0.479,0.624,1.054c0.063,0.733,0.175,1.195,0.336,1.388
			c0.192,0.286,0.399,0.637,0.624,1.052c0.127,0.191,0.24,0.287,0.336,0.287c0.127,0,0.496-0.096,1.104-0.288
			c0.096-0.16,0.36-0.4,0.793-0.72c0.432-0.32,0.647-0.608,0.647-0.864c0-0.128-0.048-0.288-0.144-0.479
			c-0.257-0.48-0.385-0.769-0.385-0.864c-0.031-0.128,0.064-0.464,0.288-1.008l0.192-0.384c0.127-0.353,0.256-0.528,0.384-0.528
			c0.063,0,0.24,0.137,0.528,0.408c0.287,0.272,0.576,0.376,0.863,0.312c0.289,0.161,0.433,0.497,0.433,1.008
			C82.231,53.224,82.119,53.743,81.894,54.304z"/>
		<path fill="#FFFFFF" d="M90.535,50.535c0.48,0.417,0.721,0.896,0.721,1.44c0,0.416-0.336,1.248-1.008,2.496
			c-0.513,0.96-1.313,1.439-2.4,1.439c-0.416,0-1.104-0.112-2.064-0.336c-0.768-0.896-1.216-2.144-1.344-3.743
			c0-0.097-0.016-1.456-0.048-4.08c0.224-0.224,0.319-0.416,0.288-0.576c-0.191-0.063-0.288-0.16-0.288-0.288
			c0-0.031,0.176-0.304,0.528-0.816c-0.032-0.159-0.049-0.336-0.049-0.527c0-0.224,0.057-0.56,0.168-1.009
			c0.112-0.447,0.168-0.768,0.168-0.96c0-0.319-0.096-0.607-0.287-0.863c-0.192,0-0.473,0.071-0.84,0.216
			c-0.369,0.144-0.633,0.216-0.793,0.216c-0.352,0-0.64-0.24-0.863-0.72c0.032-0.48-0.064-0.769-0.288-0.864
			c0.097-0.703,0.76-1.111,1.992-1.224c1.231-0.112,1.848-0.392,1.848-0.841c0-0.319-0.16-0.751-0.479-1.296
			c0.191-0.063,0.287-0.224,0.287-0.479c0-0.448,0-0.655,0-0.624c-0.031-0.16-0.031-0.64,0-1.44
			c0.032-0.607-0.064-1.071-0.287-1.392c-0.416,0.192-0.977,0.576-1.68,1.152c-0.225-0.288-0.337-0.592-0.337-0.912
			c0-0.288,0.112-0.616,0.337-0.984c0.223-0.367,0.318-0.583,0.287-0.648l-0.287-0.287c0.352-0.385,0.799-0.576,1.344-0.576
			c0.543,0,1.023,0.191,1.439,0.576c0.416,0.384,0.607,0.863,0.576,1.439c0.031,0.992,0.048,2,0.048,3.024
			c0,1.248-0.208,2.192-0.624,2.832c0.191,0.032,0.488,0.136,0.889,0.312c0.399,0.177,0.695,0.265,0.887,0.265
			c0.32,0,0.576-0.192,0.769-0.576c0.479-0.032,0.76,0.056,0.841,0.264c0.078,0.209,0.119,0.393,0.119,0.552
			c0,0.545-0.448,1.04-1.344,1.488c-1.121,0.545-1.744,0.896-1.872,1.056c-0.192,0.896-0.384,1.793-0.576,2.688
			c-0.224,1.056-0.336,1.937-0.336,2.64c0,0.769,0.128,1.521,0.384,2.256c-0.031,0.449,0.049,0.737,0.24,0.864
			c0,0.448-0.017,0.896-0.048,1.344c0.031,0.544,0.239,0.928,0.624,1.152c0.863,0.096,1.375-0.209,1.536-0.912
			c0.063-0.64,0.159-1.288,0.288-1.944C89.127,50.672,89.639,50.408,90.535,50.535z"/>
	</g>
</g>
<g>
	<g>
		<path fill="#1AAB83" d="M58.041,76.391c-0.039,2.344-0.492,4.629,0.014,6.954c0.194,0.899,2.13,0.396,1.932-0.518
			c-0.478-2.197-0.024-4.368,0.013-6.583C60.016,75.229,58.056,75.518,58.041,76.391L58.041,76.391z"/>
	</g>
</g>
<g>
	<g>
		<path fill="#1AAB83" d="M63.058,78.048c0.687,2.166,0.977,4.418,2.412,6.262c0.312,0.4,2.155-0.242,1.813-0.682
			c-1.379-1.771-1.636-4.021-2.295-6.099C64.829,77.025,62.908,77.578,63.058,78.048L63.058,78.048z"/>
	</g>
</g>
<g>
	<g>
		<path fill="#1AAB83" d="M67.555,77.042c1.412,1.743,2.973,3.352,4.118,5.297c0.451,0.767,2.289,0.028,1.767-0.859
			c-1.146-1.943-2.705-3.553-4.119-5.297C68.755,75.486,66.921,76.261,67.555,77.042L67.555,77.042z"/>
	</g>
</g>
<g>
	<g>
		<path fill="#1AAB83" d="M72.847,75.553c1.243,1.928,2.087,4.085,3.53,5.886c0.514,0.641,2.359-0.096,1.775-0.824
			c-1.443-1.801-2.286-3.959-3.531-5.886C74.183,74.048,72.328,74.75,72.847,75.553L72.847,75.553z"/>
	</g>
</g>
<g>
	<g>
		<path fill="#1AAB83" d="M53.693,75.656c-0.719,1.121-1.197,2.413-1.532,3.698c-0.218,0.838,1.748,0.572,1.946-0.188
			c0.307-1.18,0.752-2.338,1.412-3.366c0.259-0.405-0.222-0.679-0.562-0.706C54.49,75.058,53.954,75.251,53.693,75.656
			L53.693,75.656z"/>
	</g>
</g>
<g>
	<g>
		<path fill="#1AAB83" d="M45.467,76.005c-1.222,1.808-2.624,3.45-4.288,4.865c-0.313,0.266-0.211,0.6,0.182,0.679
			c0.459,0.092,1.012-0.065,1.366-0.366c1.755-1.491,3.251-3.235,4.539-5.141C47.763,75.306,45.818,75.487,45.467,76.005
			L45.467,76.005z"/>
	</g>
</g>
<g>
	<g>
		<path fill="#1AAB83" d="M37.492,75.305c-0.577,1.368-1.491,2.57-2.665,3.481c-0.337,0.262-0.484,0.764-0.089,1.052
			c0.403,0.294,1.017,0.187,1.389-0.104c1.4-1.087,2.534-2.534,3.223-4.171C39.792,74.514,37.845,74.465,37.492,75.305
			L37.492,75.305z"/>
	</g>
</g>
<g>
	<g>
		<path fill="#1AAB83" d="M32.347,73.853c-2.093,0.641-3.697,2.549-5.466,3.757c-0.355,0.244-0.47,0.773-0.09,1.051
			c0.419,0.306,0.996,0.166,1.39-0.104c0.86-0.589,1.667-1.251,2.479-1.904c0.607-0.486,1.3-1.168,2.063-1.4
			C33.904,74.89,33.541,73.488,32.347,73.853L32.347,73.853z"/>
	</g>
</g>
<g>
	<g>
		<path fill="#1AAB83" d="M24.997,71.891c-2.043,0.084-3.897,1.367-5.315,2.748c-0.306,0.296-0.198,0.673,0.209,0.78
			c0.457,0.12,1.028-0.038,1.365-0.366c0.942-0.917,2.143-1.903,3.513-1.959C25.783,73.052,26.325,71.837,24.997,71.891
			L24.997,71.891z"/>
	</g>
</g>
<g>
	<g>
		<path fill="#1AAB83" d="M13.656,65.016c-1.505,1.174-3.204,2.063-4.709,3.237c-1.037,0.808,0.539,1.395,1.267,0.826
			c1.506-1.174,3.204-2.063,4.709-3.237C15.959,65.034,14.384,64.448,13.656,65.016L13.656,65.016z"/>
	</g>
</g>
<g>
	<g>
		<path fill="#1AAB83" d="M10.404,60.252c-1.675,1.104-3.423,2.086-5.424,2.424c-1.235,0.208-0.83,1.59,0.372,1.387
			c2.335-0.395,4.396-1.587,6.348-2.873c0.359-0.236,0.469-0.771,0.092-1.042C11.369,59.842,10.801,59.99,10.404,60.252
			L10.404,60.252z"/>
	</g>
</g>
<g>
	<g>
		<path fill="#1AAB83" d="M7.184,55.022c-1.417,0.821-2.992,1.329-4.537,1.846c-1.15,0.384-0.842,1.625,0.33,1.233
			c1.885-0.63,3.742-1.274,5.468-2.273c0.34-0.197,0.5-0.695,0.12-0.938C8.133,54.615,7.585,54.79,7.184,55.022L7.184,55.022z"/>
	</g>
</g>
<g>
	<g>
		<path fill="#1AAB83" d="M6.029,48.338c-1.334-0.308-2.684-0.336-4.046-0.336c-0.461,0-1.024,0.122-1.264,0.57
			c-0.213,0.397,0.182,0.735,0.567,0.735c1.199,0.001,2.43-0.019,3.605,0.252c0.473,0.108,1.023,0.001,1.365-0.366
			C6.539,48.893,6.465,48.439,6.029,48.338L6.029,48.338z"/>
	</g>
</g>
<g>
	<g>
		<path fill="#1AAB83" d="M7.219,41.323c-1.154-0.309-2.111-0.991-3.058-1.696c-0.558-0.417-2.325,0.393-1.521,0.991
			c1.06,0.789,2.128,1.488,3.417,1.834c0.449,0.119,1.034-0.046,1.365-0.366C7.728,41.788,7.623,41.431,7.219,41.323L7.219,41.323z"
			/>
	</g>
</g>
<g>
	<g>
		<path fill="#1AAB83" d="M9.958,33.388c-0.941-1.531-2.195-2.775-3.588-3.9c-0.421-0.34-2.131,0.414-1.816,0.667
			c1.342,1.084,2.563,2.272,3.474,3.75C8.331,34.401,10.129,33.666,9.958,33.388L9.958,33.388z"/>
	</g>
</g>
<g>
	<g>
		<path fill="#1AAB83" d="M14.078,25.443c-1.271-2.797-2.848-5.442-4.12-8.239c-0.35-0.771-2.253-0.19-1.932,0.518
			c1.271,2.797,2.848,5.443,4.12,8.24C12.496,26.73,14.4,26.15,14.078,25.443L14.078,25.443z"/>
	</g>
</g>
<g>
	<g>
		<path fill="#1AAB83" d="M15.844,16.908c0-1.373,0.014-2.774-0.295-4.12c-0.148-0.65-2.086-0.154-1.932,0.518
			c0.309,1.346,0.294,2.747,0.294,4.12C13.912,18.002,15.844,17.643,15.844,16.908L15.844,16.908z"/>
	</g>
</g>
<g>
	<g>
		<path fill="#1AAB83" d="M14.698,9.692c2.448,1.046,3.315,4.114,4.511,6.263c0.368,0.66,2.231,0.021,1.933-0.519
			c-1.302-2.339-2.238-5.544-4.906-6.685C15.652,8.503,13.887,9.345,14.698,9.692L14.698,9.692z"/>
	</g>
</g>
<g>
	<g>
		<path fill="#1AAB83" d="M22.44,6.378c0.043,1.864,0.563,3.632,0.889,5.456c0.137,0.769,2.075,0.289,1.933-0.519
			c-0.305-1.708-0.838-3.393-0.878-5.138C24.363,5.269,22.424,5.647,22.44,6.378L22.44,6.378z"/>
	</g>
</g>
<g>
	<g>
		<path fill="#1AAB83" d="M29.872,4.301c0.29,0.394,0.278,1.224,0.336,1.685c0.121,0.962,0.176,1.937,0.185,2.906
			c0.004,0.598,1.937,0.229,1.932-0.518c-0.007-0.973-0.073-1.94-0.184-2.906c-0.069-0.605-0.097-1.409-0.474-1.921
			C31.281,3.022,29.413,3.677,29.872,4.301L29.872,4.301z"/>
	</g>
</g>
<g>
	<g>
		<path fill="#1AAB83" d="M35.1,3.595c0.954,1.782,0.563,3.976,0.294,5.886c-0.023,0.166,1.854,0.035,1.932-0.518
			c0.27-1.91,0.661-4.104-0.294-5.886C36.797,2.639,34.973,3.357,35.1,3.595L35.1,3.595z"/>
	</g>
</g>
<g>
	<g>
		<path fill="#1AAB83" d="M41.28,4.772c0.247,0.677-0.011,1.638-0.104,2.325c-0.138,1.035-0.322,2.063-0.495,3.093
			c-0.156,0.928,1.813,0.649,1.95-0.169c0.189-1.125,0.384-2.25,0.534-3.381c0.096-0.716,0.303-1.68,0.045-2.385
			C42.907,3.421,40.986,3.968,41.28,4.772L41.28,4.772z"/>
	</g>
</g>
<g>
	<g>
		<path fill="#1AAB83" d="M50.318,2.926c-0.747,2.312-1.698,4.555-2.187,6.943c-0.152,0.747,1.797,0.429,1.934-0.238
			C50.552,7.243,51.504,5,52.25,2.688C52.471,2.005,50.53,2.268,50.318,2.926L50.318,2.926z"/>
	</g>
</g>
<g>
	<g>
		<path fill="#1AAB83" d="M59.018,4.253c-1.226,1.53-2.41,3.076-3.311,4.824C55.5,9.48,57.349,9.312,57.624,8.777
			c0.858-1.667,1.996-3.134,3.163-4.592C61.243,3.615,59.343,3.846,59.018,4.253L59.018,4.253z"/>
	</g>
</g>
<g>
	<g>
		<path fill="#1AAB83" d="M70.458,5.59c-1.134,0.651-2.304,1.465-3.112,2.501c-0.745,0.953,1.098,1.132,1.596,0.494
			c0.725-0.927,1.762-1.625,2.772-2.206c0.337-0.194,0.505-0.687,0.124-0.925C71.406,5.183,70.859,5.36,70.458,5.59L70.458,5.59z"/>
	</g>
</g>
<g>
	<g>
		<path fill="#1AAB83" d="M78.195,9.349c0.071-0.043,0.144-0.085,0.214-0.129c0.784-0.492,0.096-1.109-0.544-1.108
			c-0.977,0.001-2.302,1.188-3.083,1.65c-1.445,0.854-2.892,1.707-4.331,2.57c-0.348,0.208-0.489,0.718-0.111,0.968
			c0.431,0.285,0.982,0.116,1.384-0.125c1.223-0.733,2.449-1.458,3.677-2.183c0.609-0.361,1.221-0.722,1.831-1.081
			c0.225-0.134,0.45-0.267,0.676-0.398c0.39-0.229,0.313-0.031-0.224-0.03c-0.183-0.369-0.363-0.738-0.544-1.107
			c-0.071,0.044-0.145,0.087-0.216,0.13c-0.348,0.208-0.489,0.718-0.11,0.968C77.241,9.759,77.794,9.59,78.195,9.349L78.195,9.349z"
			/>
	</g>
</g>
<g>
	<g>
		<path fill="#1AAB83" d="M88.845,11.226c-1.726,0.121-3.347,1.167-4.794,2.024c-1.949,1.153-3.804,2.497-5.522,3.972
			c-0.889,0.762,1.015,0.974,1.592,0.479c1.357-1.163,2.835-2.188,4.335-3.155c1.169-0.755,2.743-1.929,4.186-2.031
			C89.681,12.442,90.17,11.133,88.845,11.226L88.845,11.226z"/>
	</g>
</g>
<g>
	<g>
		<path fill="#1AAB83" d="M97.043,16.546c-1.398-0.197-2.989,0.598-4.247,1.105c-1.903,0.77-3.765,1.681-5.556,2.688
			c-1.139,0.64,0.527,1.12,1.238,0.721c1.271-0.714,2.597-1.337,3.926-1.935c1.045-0.47,2.742-1.502,3.928-1.335
			C97.175,17.906,98.344,16.728,97.043,16.546L97.043,16.546z"/>
	</g>
</g>
<g>
	<g>
		<path fill="#1AAB83" d="M103.584,20.67c-1.8,0.605-3.549,1.308-5.252,2.149c-1.188,0.587-0.118,1.524,0.832,1.055
			c1.543-0.764,3.12-1.419,4.752-1.97C105.064,21.518,104.757,20.275,103.584,20.67L103.584,20.67z"/>
	</g>
</g>
<g>
	<g>
		<path fill="#1AAB83" d="M103.347,25.223c-2.439,1.323-5.177,1.929-7.573,3.356c-1.124,0.669,0.532,1.139,1.238,0.719
			c2.247-1.338,4.85-1.875,7.142-3.119C105.319,25.548,104.252,24.732,103.347,25.223L103.347,25.223z"/>
	</g>
</g>
<g>
	<g>
		<path fill="#1AAB83" d="M106.283,32.847c-1.997,0.808-4.133,1.067-6.255,1.334c-1.021,0.128-1.529,1.453-0.205,1.286
			c2.485-0.313,4.944-0.664,7.28-1.609C108.342,33.358,107.233,32.463,106.283,32.847L106.283,32.847z"/>
	</g>
</g>
<g>
	<g>
		<path fill="#1AAB83" d="M109.147,37.577c-2.359,0.021-4.699,0.335-6.978,0.958c-1.143,0.312-0.926,1.129,0.22,0.815
			c1.953-0.534,3.946-0.789,5.973-0.808C108.996,38.538,110.446,37.565,109.147,37.577L109.147,37.577z"/>
	</g>
</g>
<g>
	<g>
		<path fill="#1AAB83" d="M110.627,42.026c-3.252,0.002-6.472,0.091-9.624,0.966c-1.133,0.313-0.938,1.052,0.197,0.735
			c2.819-0.782,5.718-0.802,8.622-0.804C110.414,42.923,111.921,42.026,110.627,42.026L110.627,42.026z"/>
	</g>
</g>
<g>
	<g>
		<path fill="#1AAB83" d="M104.882,49.037c0.006,0,0.012,0,0.018,0.001c-0.209-0.141-0.417-0.279-0.625-0.418
			c0,0.001,0,0.001,0,0.002c0.266-0.297,0.531-0.595,0.797-0.893c0.505-0.113-0.198,0.015-0.332,0.029
			c-0.408,0.049-0.816,0.1-1.225,0.156c-0.746,0.103-1.548,0.184-2.242,0.491c-0.332,0.147-0.759,0.582-0.467,0.959
			c0.297,0.384,0.926,0.293,1.307,0.123c0.091-0.038,0.076-0.033-0.045,0.017c0.063-0.019,0.127-0.034,0.189-0.05
			c0.115-0.028,0.233-0.055,0.351-0.073c0.385-0.067,0.771-0.118,1.16-0.169c0.543-0.071,1.105-0.098,1.643-0.219
			c0.428-0.098,0.838-0.427,0.796-0.892c0-0.001,0-0.002,0-0.002c-0.022-0.261-0.412-0.409-0.625-0.418
			c-0.005,0-0.011-0.001-0.017-0.001c-0.462-0.02-1.033,0.131-1.261,0.581C104.095,48.677,104.484,49.02,104.882,49.037
			L104.882,49.037z"/>
	</g>
</g>
<g>
	<g>
		<path fill="#1AAB83" d="M108.559,52.886c-1.962,0-3.923,0-5.886,0c-0.629,0-2.088,0.955-0.789,0.955c1.963,0,3.924,0,5.886,0
			C108.399,53.841,109.858,52.886,108.559,52.886L108.559,52.886z"/>
	</g>
</g>
<g>
	<g>
		<path fill="#1AAB83" d="M107.192,60.343c-3.485-0.916-6.813-2.321-10.299-3.237c-0.451-0.118-2.153,0.606-1.586,0.756
			c3.484,0.916,6.813,2.321,10.299,3.237C106.057,61.217,107.759,60.492,107.192,60.343L107.192,60.343z"/>
	</g>
</g>
<g>
	<g>
		<path fill="#1AAB83" d="M100.91,62.605c-2.586,0.234-5.185-1.121-7.733-1.463c-0.511-0.068-2.258,0.784-1.217,0.924
			c2.707,0.363,5.388,1.732,8.157,1.48c0.437-0.039,0.983-0.14,1.284-0.495C101.687,62.713,101.159,62.581,100.91,62.605
			L100.91,62.605z"/>
	</g>
</g>
<g>
	<g>
		<path fill="#1AAB83" d="M96.016,67.311c-0.141,0.309,0.013,0.288,0.455-0.059c-0.117-0.023-0.233-0.054-0.35-0.086
			c-0.317-0.086-0.626-0.244-0.924-0.383c-0.632-0.294-1.242-0.635-1.863-0.948c-0.581-0.294-2.353,0.538-1.533,0.953
			c1.136,0.573,2.271,1.289,3.532,1.544c1.02,0.205,2.312-0.166,2.615-1.254C98.153,66.358,96.204,66.638,96.016,67.311
			L96.016,67.311z"/>
	</g>
</g>
<g>
	<g>
		<path fill="#1AAB83" d="M97.295,71.731c-3.43-0.598-7.013-0.885-10.003-2.832c-0.52-0.338-2.225,0.44-1.807,0.713
			c3.188,2.074,6.938,2.414,10.595,3.054C96.6,72.754,98.342,71.914,97.295,71.731L97.295,71.731z"/>
	</g>
</g>
<g>
	<g>
		<path fill="#1AAB83" d="M89.448,76.025c-1.57,0.068-3.192-1.623-4.237-2.585c-1.099-1.011-2.104-2.118-3.226-3.104
			c-0.554-0.488-2.37,0.271-1.785,0.785c2.547,2.246,5.22,6.246,9.014,6.081C90.216,77.156,90.778,75.967,89.448,76.025
			L89.448,76.025z"/>
	</g>
</g>
<g>
	<g>
		<path fill="#1AAB83" d="M84.014,79.531c-2.401-0.646-4.228-2.145-5.566-4.214c-0.436-0.672-2.292,0.025-1.777,0.82
			c1.474,2.273,3.58,3.909,6.207,4.616C83.638,80.959,85.165,79.842,84.014,79.531L84.014,79.531z"/>
	</g>
</g>
</svg>
