<?xml version="1.0" encoding="utf-8"?>
<!-- Generator: Adobe Illustrator 15.1.0, SVG Export Plug-In . SVG Version: 6.00 Build 0)  -->
<!DOCTYPE svg PUBLIC "-//W3C//DTD SVG 1.1//EN" "http://www.w3.org/Graphics/SVG/1.1/DTD/svg11.dtd">
<svg version="1.1" id="Ebene_1" xmlns="http://www.w3.org/2000/svg" xmlns:xlink="http://www.w3.org/1999/xlink" x="0px" y="0px"
	 width="142.676px" height="74.389px" viewBox="0 0 142.676 74.389" enable-background="new 0 0 142.676 74.389"
	 xml:space="preserve">
<path fill="#086E52" d="M9.769,6.075c-2.814,1.999-2.233,19.58-3.41,24.214c-1.178,4.633,1.176,12.746,2.353,18.538
	c1.177,5.793,4.708,19.696,8.241,20.854c3.532,1.157,94.179,4.634,102.419,3.475c8.24-1.158,20.067-2.229,20.067-9.181
	s1.681-17.747-0.675-25.856c-2.354-8.111-8.554-22.449-6.959-26.962c0.897-2.541-16.742-4.972-26.16-4.972S89.365,5.081,72.526,9.17
	c-5.06,1.229-12.979-0.326-23.576-0.326c-10.595,0-24.25-3.869-29.527-4.752C14.97,3.344,12.583,4.075,9.769,6.075z"/>
<g id="Ebene_2">
</g>
<g id="Ebene_3">
</g>
<path fill="#FFFFFF" d="M61.328,51.595c-0.76,1.32-1.55,2.619-2.37,3.899c-0.82,1.279-2.031,2.079-3.63,2.399
	c-0.44,0.12-0.84,0.18-1.2,0.18c-1.24,0-2.31-0.561-3.21-1.68c-0.9-1.12-1.77-2.24-2.61-3.359c-0.36-1.159-0.72-2.3-1.08-3.421
	c-0.4-1.358-0.6-2.52-0.6-3.479c0-1.239,0.339-2.34,1.02-3.3c-0.321-0.279-0.48-0.58-0.48-0.9c0-0.279,0.14-0.68,0.42-1.2
	c0.279-0.52,0.42-0.92,0.42-1.199c0-0.319-0.12-0.619-0.36-0.899c0.24-0.72,0.36-1.68,0.36-2.88c0-0.279,0-0.699,0-1.261
	c0-0.561,0-0.96,0-1.199c0-2.96,1.16-4.682,3.48-5.16c-0.64-0.56-1.42-1.84-2.34-3.84c-0.84-1.88-1.341-3.301-1.5-4.261
	c-0.041-0.079,0.009-0.249,0.15-0.511c0.14-0.26,0.21-0.429,0.21-0.51c0-0.159-0.12-0.279-0.36-0.36c0.399-3,1.8-5.22,4.2-6.659
	c0.52-0.039,1-0.061,1.44-0.061c2.239,0,3.81,0.562,4.71,1.68c0.9,1.121,1.31,2.922,1.23,5.4c-0.161,0.081-0.48,0.4-0.96,0.96
	c-0.48,0.562-0.88,0.84-1.2,0.84c-0.561,0-0.84-0.278-0.84-0.84c0-0.24,0.169-0.609,0.51-1.11c0.339-0.499,0.51-0.869,0.51-1.108
	c0-0.2-0.041-0.36-0.12-0.48c0.2-0.079,0.3-0.198,0.3-0.358c0-0.12-0.049-0.302-0.148-0.54c-0.099-0.24-0.147-0.42-0.147-0.54
	c-0.355-0.681-1.006-1.181-1.951-1.5c-1.182-0.399-1.93-0.722-2.245-0.96c-0.631,0.52-1.282,1.08-1.951,1.68
	c-0.67,0.6-0.926,1.341-0.768,2.22c-0.634,0.36-0.831,0.96-0.592,1.801c0.236,0.96,0.197,1.641-0.118,2.04
	c0.508,1.12,1.642,3.101,3.401,5.939c0.782-0.12,1.368,0.12,1.759,0.72c0.08,0.48-0.123,0.882-0.607,1.2
	c-0.688,0.36-1.093,0.66-1.214,0.9c-1.215-0.08-2.268,0.62-3.158,2.1l0.42,0.36c-0.4,0.239-0.6,0.58-0.6,1.02
	c0,0.201,0.03,0.501,0.09,0.9s0.09,0.7,0.09,0.898c0,0.441-0.06,0.78-0.18,1.021c0.12,0.2,0.18,0.42,0.18,0.66
	c0,0.2-0.102,0.51-0.303,0.93c-0.202,0.42-0.321,0.711-0.357,0.87c0.44,0.681,0.66,1.48,0.66,2.399c0,0.521-0.115,1.351-0.345,2.489
	c-0.23,1.142-0.345,1.972-0.345,2.49c-0.46,0.24-0.69,0.94-0.69,2.1l0.72,0.722l-0.36,0.3c1.2,2,1.8,3.3,1.8,3.899
	c0,0.439-0.12,0.779-0.36,1.021c0.48,0.159,1.26,0.619,2.34,1.38c0.879,0.641,1.68,0.96,2.4,0.96c0.36,0,0.76-0.08,1.2-0.24
	c0.8-0.279,1.31-0.85,1.53-1.71c0.22-0.859,0.41-1.688,0.57-2.488c-0.24-0.16-0.36-0.34-0.36-0.54s0.109-0.471,0.33-0.812
	c0.22-0.339,0.35-0.59,0.39-0.75c0.56,0.16,1.14,0.352,1.74,0.57C60.848,50.645,61.208,51.035,61.328,51.595z"/>
<path fill="#FFFFFF" d="M78.128,53.275c0.159,1.641-1.12,3.159-3.841,4.562c-1.799-0.562-2.979-1.722-3.539-3.48
	c0.319-0.16,0.439-0.521,0.359-1.08l-0.72-0.72l0.36-0.36l-1.381-6.3c0.2,0.081,0.44-0.039,0.721-0.359
	c-0.24-0.479-0.641-0.721-1.2-0.721c-0.4,0-0.72,0.142-0.96,0.42c-0.16,1.161-0.7,2.74-1.62,4.74c-1,2.16-1.62,3.72-1.86,4.68
	c-1.16-0.119-1.739-0.52-1.739-1.198c0-0.321,0.189-0.892,0.57-1.711c0.38-0.819,0.57-1.431,0.57-1.829c0-0.16,0-0.32,0-0.48
	c0.679-0.24,1.056-0.879,1.132-1.92c0.075-1.04,0.358-1.7,0.849-1.979c-0.041-0.119-0.061-0.26-0.061-0.42
	c0-0.319,0.38-0.88,1.141-1.681c-0.041-0.438,0.068-1.119,0.33-2.04c0.26-0.92,0.39-1.56,0.39-1.92c0-0.879-0.479-1.539-1.44-1.979
	c0.08-0.159,0.12-0.319,0.12-0.479c0-0.359-0.16-0.76-0.479-1.2c-0.4-0.6-0.621-0.979-0.66-1.14c-0.24-0.12-0.441-0.181-0.6-0.181
	c-0.281,0-0.551,0.23-0.811,0.689c-0.261,0.46-0.49,0.69-0.69,0.69c-0.201,0-0.441-0.16-0.72-0.48c-0.519-0.24-0.78-0.579-0.78-1.02
	c0-0.521,0.31-1.021,0.93-1.5c0.62-0.48,1.29-0.722,2.01-0.722c0.24,0,0.459,0.021,0.66,0.062c0.52,0.16,1.119,0.86,1.8,2.1
	c0.68,1.24,1.319,1.86,1.92,1.86c0.159,0,0.319-0.021,0.479-0.061c0.279-0.439,0.561-1.62,0.841-3.54
	c0.239-1.479,0.899-2.42,1.979-2.819l0.302,0.72c0.038,0.921-0.062,1.66-0.302,2.22c-0.358,0.802-0.958,1.12-1.799,0.96l-0.3,0.36
	c0.08,0.24,0.199,0.36,0.359,0.36c0.121,0,0.29-0.08,0.511-0.24c0.22-0.159,0.409-0.24,0.569-0.24c0.08,0,0.181,0.04,0.301,0.12
	c-1.041,3-1.561,4.84-1.561,5.521c0,0.399,0,0.779,0,1.141c-0.16,0.2-0.24,0.42-0.24,0.66c0,0.16,0.11,0.43,0.33,0.81
	c0.22,0.381,0.33,0.65,0.33,0.812c0,0.2-0.141,0.358-0.42,0.479c0.499,0.562,0.85,1.5,1.055,2.82
	c0.203,1.319,0.531,2.26,0.984,2.819l-0.479,0.359c0.72,0.36,1.08,0.82,1.08,1.38c0,0.28-0.102,0.69-0.301,1.23
	c-0.2,0.54-0.301,0.93-0.301,1.17c0,0.6,0.422,1.08,1.262,1.438c0.238,0.12,0.459,0.182,0.66,0.182c0.519,0,1.049-0.381,1.59-1.142
	c0.539-0.759,0.949-1.14,1.229-1.14C77.367,52.555,77.729,52.795,78.128,53.275z"/>
<path fill="#FFFFFF" d="M80.827,25.135l-0.72,2.1c-0.041-0.039-0.76-0.18-2.16-0.42c-0.84-0.159-1.16-0.72-0.961-1.68
	c0.521-0.76,1.301-1.141,2.341-1.141C80.168,23.994,80.667,24.375,80.827,25.135z M84.367,53.875
	c0.039,0.159,0.061,0.339,0.061,0.54c0,0.318-0.121,0.77-0.359,1.35c-0.24,0.579-0.381,0.99-0.42,1.229
	c-0.521,0.279-1.041,0.421-1.561,0.421c-1.361,0-2.721-0.842-4.08-2.521c0.439-0.2,0.669-0.72,0.689-1.56
	c0.02-0.841,0.27-1.359,0.75-1.562c-0.641-0.72-0.83-1.85-0.57-3.39c0.26-1.539,0.211-2.63-0.15-3.271
	c0.48-1.08,0.76-2.52,0.842-4.318c0.119-2.8,0.199-4.28,0.238-4.44c-0.199-0.359-0.619-0.64-1.26-0.84s-1.04-0.52-1.199-0.96
	c0.439-0.319,0.879-0.64,1.32-0.96c0.6-0.439,1.079-0.66,1.439-0.66c0.479,0,0.84,0.32,1.08,0.96l-0.722,0.66
	c1.04,0.24,1.562,0.76,1.562,1.56c0,0.201-0.051,0.552-0.15,1.052s-0.15,0.891-0.15,1.17c0,0.319,0.101,0.58,0.301,0.778
	c-0.641,1.281-0.939,3.021-0.899,5.222c0.039,3.84,0.062,5.62,0.062,5.34c-0.48,0.28-0.722,0.6-0.722,0.96
	c0,0.28,0.171,0.7,0.511,1.26c0.34,0.562,0.529,0.98,0.569,1.26c0.521,0,1.021-0.021,1.5-0.06
	C83.566,53.134,84.008,53.395,84.367,53.875z"/>
<path fill="#FFFFFF" d="M94.447,49.195c0.6,0.521,0.9,1.12,0.9,1.801c0,0.521-0.421,1.561-1.261,3.119
	c-0.642,1.2-1.642,1.802-3,1.802c-0.521,0-1.381-0.142-2.58-0.421c-0.961-1.12-1.521-2.68-1.681-4.681c0-0.12-0.021-1.818-0.061-5.1
	c0.279-0.279,0.398-0.521,0.359-0.721c-0.24-0.079-0.359-0.199-0.359-0.359c0-0.039,0.219-0.38,0.66-1.021
	c-0.041-0.198-0.061-0.42-0.061-0.658c0-0.28,0.068-0.7,0.21-1.262c0.14-0.56,0.21-0.96,0.21-1.199c0-0.398-0.119-0.76-0.359-1.079
	c-0.24,0-0.591,0.09-1.051,0.27s-0.79,0.271-0.99,0.271c-0.439,0-0.8-0.302-1.08-0.9c0.041-0.6-0.078-0.96-0.359-1.08
	c0.121-0.879,0.949-1.39,2.49-1.53c1.539-0.14,2.312-0.488,2.312-1.05c0-0.398-0.201-0.938-0.601-1.62
	c0.238-0.079,0.359-0.278,0.359-0.6c0-0.561,0-0.819,0-0.78c-0.041-0.199-0.041-0.8,0-1.8c0.039-0.76-0.081-1.34-0.359-1.74
	c-0.521,0.24-1.222,0.721-2.102,1.44c-0.279-0.36-0.42-0.74-0.42-1.142c0-0.358,0.141-0.77,0.42-1.229s0.4-0.729,0.359-0.812
	l-0.359-0.358c0.439-0.48,1-0.721,1.682-0.721c0.68,0,1.278,0.239,1.799,0.721c0.521,0.479,0.761,1.08,0.722,1.8
	c0.039,1.24,0.06,2.5,0.06,3.78c0,1.56-0.261,2.74-0.779,3.54c0.24,0.04,0.609,0.17,1.109,0.39c0.5,0.221,0.87,0.33,1.11,0.33
	c0.397,0,0.719-0.24,0.959-0.72c0.601-0.04,0.95,0.069,1.051,0.33c0.101,0.26,0.149,0.489,0.149,0.688
	c0,0.682-0.561,1.301-1.68,1.86c-1.401,0.681-2.182,1.12-2.342,1.318c-0.238,1.121-0.479,2.241-0.719,3.36
	c-0.281,1.32-0.42,2.421-0.42,3.3c0,0.96,0.158,1.9,0.479,2.82c-0.039,0.561,0.061,0.921,0.301,1.08c0,0.561-0.021,1.12-0.062,1.68
	c0.04,0.681,0.302,1.16,0.781,1.44c1.079,0.12,1.719-0.261,1.92-1.142c0.079-0.8,0.198-1.608,0.358-2.43
	C92.688,49.365,93.327,49.035,94.447,49.195z"/>
</svg>
