<?xml version="1.0" encoding="utf-8"?>
<!-- Generator: Adobe Illustrator 15.1.0, SVG Export Plug-In . SVG Version: 6.00 Build 0)  -->
<!DOCTYPE svg PUBLIC "-//W3C//DTD SVG 1.1//EN" "http://www.w3.org/Graphics/SVG/1.1/DTD/svg11.dtd">
<svg version="1.1" xmlns="http://www.w3.org/2000/svg" xmlns:xlink="http://www.w3.org/1999/xlink" x="0px" y="0px" width="1024px"
	 height="768px" viewBox="0 0 1024 768" enable-background="new 0 0 1024 768" xml:space="preserve">
<g id="Ebene_1">
	<path fill="#B5C8B4" stroke="#B5C8B4" stroke-miterlimit="10" d="M779.673,551.494c-21.986-18.883-36.73-13.452-62.856-25.609
		c-6.138-2.856-19.396-9.083-25.608-9.829c-6.466-0.774-17.071-5.948-31.557,14.485c-2.436,3.437-7.243,16.038-6.985,20.694
		c0.259,4.657,2.328,22.505,8.795,30.522c6.205,7.694,21.211,14.745,26.644,16.555c5.433,1.812,35.696,15.261,42.939,16.038
		c7.241,0.776,56.131,4.657,62.339-5.432C799.59,598.831,801.659,570.377,779.673,551.494z M790.549,607.188
		c-5.963,9.69-52.92,5.963-59.875,5.217c-6.957-0.746-36.024-13.664-41.241-15.404c-5.218-1.738-19.631-8.51-25.59-15.899
		c-6.211-7.701-8.199-24.843-8.447-29.316c-0.248-4.472,4.37-16.575,6.709-19.876c13.912-19.626,24.099-14.656,30.31-13.913
		c5.965,0.718,18.7,6.697,24.596,9.441c25.093,11.676,39.253,6.46,60.371,24.597C798.498,570.17,796.51,597.499,790.549,607.188z"/>
	<path fill="#B5C8B4" stroke="#B5C8B4" stroke-miterlimit="10" d="M724.659,539.171c0,0-3.986-0.746-6.976,1.246
		s-5.73,5.23-4.982,7.722s0.996,3.986,2.74,4.982s2.989,2.99,5.979,1.495s3.737-0.997,4.484-4.484s-0.748-4.981,0.996-6.228
		s2.242-2.989,2.242,0.747s0.498,5.481-0.249,7.225s-1.246,3.735-4.484,4.981s-3.986,2.99-8.47,0.748s-7.722-4.734-7.722-6.478
		s1.495-9.963,2.74-10.711s6.228-5.232,9.715-3.986S724.659,539.171,724.659,539.171z"/>
	<path fill="#B5C8B4" stroke="#B5C8B4" stroke-miterlimit="10" d="M720.175,547.143c-1.697,0.849-2.99,1.246-1.744,2.491
		s2.74,2.242,2.989,0S721.171,546.645,720.175,547.143z"/>
	<path fill="#B5C8B4" stroke="#B5C8B4" stroke-miterlimit="10" d="M743.84,543.157c-1.84,0.46-3.736,1.744-3.736,2.989
		s3.986,1.495,5.231,0.249S745.832,542.659,743.84,543.157z"/>
	<path fill="#B5C8B4" stroke="#B5C8B4" stroke-miterlimit="10" d="M751.812,552.374c-1.149,1.38-1.495,1.993,0.249,2.491
		s4.483,0.995,2.989-0.748S753.057,550.88,751.812,552.374z"/>
	<path fill="#B5C8B4" stroke="#B5C8B4" stroke-miterlimit="10" d="M697.506,566.075c-0.498-2.491-1.246-4.732-4.484-5.729
		s-6.477-3.736-9.715-2.491s-1.993,1.743-1.993,1.743c-2.74,2.242-3.986,3.488-2.491,6.976s0.997,7.225,3.737,8.47
		s5.23,1.743,7.473,0.996s4.732-0.498,5.729-2.989S698.004,568.566,697.506,566.075z M694.019,570.559
		c-0.498,0.747-5.729,0.747-8.47,0.997s-2.242-2.74-2.989-5.729s-0.748-2.99,2.74-4.484c0,0-0.748,0.996,1.743,0.249
		s4.484,0.747,6.976,2.74S694.517,569.812,694.019,570.559z"/>
	<path fill="#B5C8B4" stroke="#B5C8B4" stroke-miterlimit="10" d="M689.783,565.576c-0.747,0.499-0.996,2.491-0.249,2.491
		s1.246,1.743,2.242,0s0-3.238,0-3.238L689.783,565.576z"/>
	<path fill="#B5C8B4" stroke="#B5C8B4" stroke-miterlimit="10" d="M674.09,575.541c-2.242,0-5.978,0.497-3.238,1.494
		s3.735,1.246,4.732,1.495s1.494-1.495,0-2.74S674.09,575.541,674.09,575.541z"/>
	<path fill="#B5C8B4" stroke="#B5C8B4" stroke-miterlimit="10" d="M675.584,556.11c0.747,0.747,3.487,0.25,2.74-0.996
		s-2.989-1.246-2.989-1.246L675.584,556.11z"/>
	<path fill="#B5C8B4" stroke="#B5C8B4" stroke-miterlimit="10" d="M701.99,536.431c-1.744-1.743-6.977-5.979-8.969-5.729
		s-8.718,0.499-10.462,1.246s-3.487,3.238-2.74,6.477s0.997,6.727,2.989,8.221s2.989,1.992,2.989,1.992s8.471,2.491,10.712,1.744
		s7.722-4.732,7.971-6.228S703.734,538.174,701.99,536.431z M699.534,548.117c-2.781,1.332-11.123-1.599-11.123-1.599
		s-3.614-5.594-5.561-7.991c-1.945-2.397,3.337-6.127,10.844-5.328s8.898,6.66,10.01,8.259
		C704.816,543.057,702.314,546.784,699.534,548.117z"/>
	<path fill="#B5C8B4" stroke="#B5C8B4" stroke-miterlimit="10" d="M692.025,541.413c1.993,0.498,3.238,0.748,2.989-0.996
		S690.032,540.915,692.025,541.413z"/>
	<path fill="#B5C8B4" stroke="#B5C8B4" stroke-miterlimit="10" d="M722.417,568.067c-1.76-0.439-2.74,1.495-1.744,2.242
		s2.242,0.997,2.491-0.498S723.414,568.316,722.417,568.067z"/>
	<path fill="#B5C8B4" stroke="#B5C8B4" stroke-miterlimit="10" d="M707.969,579.277c-1.744,0.997-3.488,1.993-0.748,2.242
		s6.727-0.746,3.737-1.494S707.969,579.277,707.969,579.277z"/>
	<path fill="#B5C8B4" stroke="#B5C8B4" stroke-miterlimit="10" d="M749.569,569.812c-1.555-0.933-4.483,0.248-3.487,1.245
		s3.986,2.99,3.986,1.246S750.814,570.559,749.569,569.812z"/>
	<path fill="#B5C8B4" stroke="#B5C8B4" stroke-miterlimit="10" d="M733.378,592.979c-0.748,0.249-2.491,1.744-1.744,2.242
		s2.491,2.49,2.74,0.996S733.378,592.979,733.378,592.979z"/>
	<path fill="#B5C8B4" stroke="#B5C8B4" stroke-miterlimit="10" d="M742.595,584.509c-3.487-0.249-9.466-2.741-14.199-1.993
		s-7.474,3.239-8.221,3.986c-2.256,2.256-2.739,4.732-1.245,7.224s3.735,4.732,5.23,5.729s4.484,2.989,6.727,2.989
		s4.981,0.996,7.224,0s7.723-4.234,8.221-7.473S746.082,584.758,742.595,584.509z M737.114,600.452
		c-3.238,1.495-8.47-1.246-11.21-3.238s-4.733-4.484-5.729-6.727s4.733-4.234,8.221-5.48c0,0,10.961,1.993,15.195,5.48
		S740.353,598.957,737.114,600.452z"/>
	<path fill="#B5C8B4" stroke="#B5C8B4" stroke-miterlimit="10" d="M779.961,577.035c-1.993-2.739-2.74-5.729-5.231-6.228
		s-5.231-3.238-8.221-3.736s-6.477,0.498-6.477,0.498c-1.744,0.996-4.483,4.734-4.234,6.976s2.241,5.729,4.981,7.971
		s6.477,6.229,8.968,6.229s7.475,0.748,8.969-2.74S781.954,579.774,779.961,577.035z M776.723,584.011
		c0,3.985-4.733,3.487-7.723,2.989s-8.47-5.48-9.217-7.972s-3.899-8.47,0-8.47c1.245,0,4.234-1.245,5.979-1.494
		s8.221,4.483,10.712,5.979S776.723,580.025,776.723,584.011z"/>
	<path fill="#B5C8B4" stroke="#B5C8B4" stroke-miterlimit="10" d="M770.495,576.288c-1.495,0.498-3.239,1.744-1.744,2.491
		s3.487,1.494,3.487,0S770.495,576.288,770.495,576.288z"/>
	<path fill="#B5C8B4" stroke="#B5C8B4" stroke-miterlimit="10" d="M767.755,602.943c-1.246,0.249-3.736,0.248-2.491,1.494
		s1.495,1.743,2.491,0.747S767.755,602.943,767.755,602.943z"/>
	<g>
		<g>
			<path fill="#B5C8B4" d="M741.705,533.711c2.301-4.254,2.342-8.871,2.189-13.59c-0.254-7.787,0.714-13.152,10.037-13.373
				c0.747-0.018,2.043-1.174,0.74-1.143c-5.359,0.127-10.818,1.258-12.392,7.045c-1.902,6.997,1.291,14.201-2.382,20.992
				C739.445,534.48,741.39,534.294,741.705,533.711L741.705,533.711z"/>
		</g>
	</g>
	<g>
		<g>
			<path fill="#B5C8B4" d="M756.762,536.533c0.729-3.301,5.838-5.166,7.633-8.262c1.189-2.053,0.956-4.287-0.19-6.26
				c-2.647-4.558-9.007-6.907-3.144-12.234c0.793-0.721-1.124-0.559-1.518-0.201c-4.334,3.938-3.139,6.699,0.592,10.445
				c2.214,2.222,3.75,4.508,2.711,7.719c-1.355,4.188-7.087,4.921-8.004,9.08C754.708,537.426,756.635,537.107,756.762,536.533
				L756.762,536.533z"/>
		</g>
	</g>
	<g>
		<g>
			<path fill="#B5C8B4" d="M762.977,540.471c3.078,3.631,6.934-1.359,8.453-4.38c0.695-1.384,1.063-2.954,1.688-4.376
				c1.75-3.979,6.658-4.271,10.253-4.822c3.616-0.554,6.747-1.592,9.532-4.027c0.986-0.863-0.561-1.473-1.273-0.85
				c-4.992,4.367-11.861,2.945-17.396,6.123c-1.695,0.973-2.678,2.738-3.434,4.458c-0.549,1.248-3.751,9.747-6.051,7.032
				C764.194,538.977,762.355,539.736,762.977,540.471L762.977,540.471z"/>
		</g>
	</g>
	<g>
		<g>
			<path fill="#B5C8B4" d="M773.31,545.283c2.962-5.393-2.28-9.979-5.594-13.437c-3.106-3.243-2.749-8.46-1.325-12.388
				c1.721-4.75,7.24-5.578,11.593-5.951c1.097-0.094,1.478-1.563,0.162-1.449c-7.296,0.625-13.188,2.952-14.558,10.792
				c-0.622,3.554,0.039,7.09,2.361,9.856c2.823,3.361,8.375,7.115,5.509,12.336C770.926,546.012,772.89,546.047,773.31,545.283
				L773.31,545.283z"/>
		</g>
	</g>
	<g>
		<g>
			<path fill="#B5C8B4" d="M777.097,548.588c5.528-3.603,11.33-7.287,17.827-3.504c2.917,1.699,5.597,4.13,8.842,5.208
				c5.868,1.95,9.469-1.759,11.605-7.009c0.124-0.306-1.707-0.134-1.904,0.35c-1.098,2.7-2.641,6.844-6.408,6.408
				c-1.81-0.21-3.539-1.316-5.073-2.229c-2.86-1.701-5.442-3.816-8.577-5.018c-6.648-2.55-12.6,2.381-17.784,5.76
				C774.828,549.074,776.766,548.805,777.097,548.588L777.097,548.588z"/>
		</g>
	</g>
	<g>
		<g>
			<path fill="#B5C8B4" d="M789.626,562.34c2.923-2.928,4.304-6.302,5.158-10.303c1.411-6.607,2.921-10.455,10.731-10.898
				c0.67-0.038,2.062-1.114,0.766-1.041c-4.613,0.262-9.383,1.199-11.662,5.656c-2.838,5.547-1.737,11.512-6.53,16.314
				C787.303,562.855,789.205,562.763,789.626,562.34L789.626,562.34z"/>
		</g>
	</g>
	<g>
		<g>
			<path fill="#B5C8B4" d="M793.743,570.531c3.715,1.121,7.307,1.604,11.169,1.15c4.826-0.568,9.123-1.93,14.056-0.852
				c2.979,0.65,5.536,2.188,8.638,2.332c2.304,0.106,4.615-0.881,6.685-1.742c1.174-0.489-0.658-0.443-1.113-0.254
				c-6.471,2.695-12.071-1.816-18.552-1.766c-1.31,0.01-2.606,0.334-3.875,0.621c-5.319,1.207-10.159,1.35-15.419-0.238
				C794.89,569.65,793.178,570.361,793.743,570.531L793.743,570.531z"/>
		</g>
	</g>
	<g>
		<g>
			<path fill="#B5C8B4" d="M795.844,581.209c1.343,5.444,7.156,6.994,11.824,8.709c5.137,1.889,9.518,6.28,14.963,7.186
				c3.663,0.608,6.994-2.535,9.458-4.713c1.822-1.61,3.293-2.948,4.206-5.199c1.912-4.714,9.815,2.104,10.105,5.378
				c0.05,0.563,1.992,0.161,1.932-0.518c-0.392-4.424-5.787-7.491-10.01-7.468c-3.887,0.021-4.203,4.258-6.612,6.51
				c-2.711,2.533-5.82,6.001-9.968,4.455c-2.986-1.113-5.824-3.116-8.531-4.764c-5.146-3.131-13.723-3.146-15.436-10.094
				C797.625,580.084,795.69,580.588,795.844,581.209L795.844,581.209z"/>
		</g>
	</g>
	<g>
		<g>
			<path fill="#B5C8B4" d="M798.285,593.207c-4.441,4.262,1.175,8.884,4.832,11.302c2.279,1.507,4.549,2.048,7.215,2.419
				c3.623,0.504,6.818,2.079,6.554,6.345c-0.09,1.44-1.113,2.991-0.8,4.46c1.172,5.471,7.546,7.397,12.399,6.939
				c5.701-0.538,10.945-4.418,14.115-8.992c0.572-0.825-1.398-0.78-1.83-0.156c-3.386,4.885-9.016,8.343-15.087,7.894
				c-3.281-0.242-7.83-3.306-7.594-7.044c0.133-2.085,0.955-3.706,0.615-5.849c-0.635-4.018-5.765-4.626-8.881-5.059
				c-4.093-0.569-15.037-6.895-9.945-11.778C800.734,592.867,798.845,592.671,798.285,593.207L798.285,593.207z"/>
		</g>
	</g>
	<g>
		<g>
			<path fill="#B5C8B4" d="M793.559,602.04c0.166,7.814,3.572,12.468,11.648,12.146c6.49-0.259,19.409-6.541,23.666,0.706
				c0.442,0.754,2.284,0.025,1.768-0.854c-7.96-13.554-34.617,11.644-35.125-12.143C795.494,600.874,793.539,601.17,793.559,602.04
				L793.559,602.04z"/>
		</g>
	</g>
	<g>
		<g>
			<path fill="#B5C8B4" d="M790.73,608.901c-1.57,4.817,1.791,7.965,5.581,10.346c2.302,1.445,10.925,4.473,8.117,8.255
				c-0.532,0.718,1.419,0.572,1.803,0.057c2.556-3.442-2.149-5.733-4.679-7.147c-4.453-2.488-10.898-5.575-8.889-11.744
				C792.89,607.976,790.947,608.237,790.73,608.901L790.73,608.901z"/>
		</g>
	</g>
	<g>
		<g>
			<path fill="#B5C8B4" d="M783.164,615.034c6.471,1.008-0.29,9.649-2.031,12.444c-2.714,4.354-7.182,9.045-2.75,13.955
				c1.354,1.501,3.666,2.197,5.408,3.101c3.824,1.982,4.938,6.179,3.883,10.088c-1.697,6.29-9.285,10.501-14.199,14.035
				c-1.066,0.767,0.563,1.159,1.227,0.682c5.127-3.687,10.646-7.225,13.967-12.756c3.129-5.213,0.785-10.899-4.285-13.528
				c-4.722-2.448-7.777-5.396-4.559-11.07c1.523-2.686,3.625-5.137,5.276-7.771c2.133-3.402,5.2-9.387-0.776-10.318
				C783.641,613.789,782.038,614.858,783.164,615.034L783.164,615.034z"/>
		</g>
	</g>
	<g>
		<g>
			<path fill="#B5C8B4" d="M766.953,616.023c4.057,4.175,10.484,5.974,15.463,8.809c4.532,2.58,5.934,5.396,5.178,10.686
				c-0.472,3.296-1.49,7.148,0.182,10.306c6.826,12.885,23.412,8.112,33.885,3.279c1.203-0.555,0.129-1.561-0.848-1.109
				c-6.176,2.85-12.787,5.187-19.686,4.71c-4-0.276-7.385-2.229-9.998-5.183c-3.469-3.919-2.037-8.964-1.383-13.544
				c1.686-11.783-14.769-12.36-21.021-18.797C768.125,614.563,766.295,615.345,766.953,616.023L766.953,616.023z"/>
		</g>
	</g>
	<g>
		<g>
			<path fill="#B5C8B4" d="M764.242,616.682c5.23,3.615,0.377,10.862-3.389,13.587c-2.619,1.896-5.708,3.149-8.119,5.339
				c-2.293,2.082-3.715,4.36-4.26,7.431c-0.754,4.249,1.736,7.995,0.215,12.424c-0.268,0.778,1.692,0.539,1.943-0.193
				c1.637-4.758-0.84-8.899,0-13.634c0.964-5.433,7.379-7.94,11.461-10.637c4.668-3.083,9.548-11.274,3.662-15.342
				C765.146,615.234,763.396,616.098,764.242,616.682L764.242,616.682z"/>
		</g>
	</g>
	<g>
		<g>
			<path fill="#B5C8B4" d="M752.749,617.714c3.576,4.474,1.896,10.736,1.72,15.996c-0.17,5.11,1.299,9.483,5.097,12.975
				c0.589,0.542,2.413-0.231,1.777-0.816c-5.178-4.76-5.14-10.7-4.631-17.245c0.321-4.134,0.538-8.32-2.186-11.726
				C754.027,616.272,752.178,616.999,752.749,617.714L752.749,617.714z"/>
		</g>
	</g>
	<g>
		<g>
			<path fill="#B5C8B4" d="M745.515,617.047c-0.052-0.292-0.104-0.583-0.157-0.875c-0.62,0.167-1.241,0.333-1.862,0.499
				c1.959,3.219,4.292,6.077,5.095,9.851c1.078,5.058-2.982,9.408-6.396,12.455c-0.978,0.871,0.539,1.647,1.303,0.965
				c3.564-3.18,6.712-6.72,7.172-11.652c0.443-4.75-3.128-8.744-5.411-12.494c-0.452-0.742-1.703-0.181-1.862,0.499
				c-0.101,0.426,0.094,0.855,0.188,1.271C743.801,618.521,745.734,618.011,745.515,617.047L745.515,617.047z"/>
		</g>
	</g>
	<g>
		<g>
			<path fill="#B5C8B4" d="M728.879,613.695c4.2,3.57,2.058,6.523-0.949,9.819c-2.668,2.925-5.67,6.043-6.004,10.188
				c-0.521,6.44,1.27,14.321,8.391,15.907c0.564,0.126,2.271-0.75,1.199-0.988c-8.908-1.984-9.375-15.29-5.03-21.374
				c3.362-4.708,10.594-8.847,4.194-14.285C730.188,612.545,728.4,613.289,728.879,613.695L728.879,613.695z"/>
		</g>
	</g>
	<g>
		<g>
			<path fill="#B5C8B4" d="M710.215,606.654c-0.431-0.438-0.604-0.664-1.219-0.692c-0.477-0.021-1.025,0.13-1.258,0.592
				c-0.99,1.967,0.102,5.304,0.459,7.307c0.536,2.994,2.295,4.543,4.225,6.64c2.416,2.624-7.357,11.219-9.033,12.703
				c-4.326,3.83-9.119,7.095-13.445,10.929c-0.98,0.869,0.556,1.523,1.281,0.881c7.928-7.025,17.992-12.619,23.032-22.332
				c0.835-1.608,0.298-2.752-0.921-3.875c-1.652-1.524-2.772-3.212-3.207-5.463c-0.203-1.057-0.361-2.12-0.514-3.184
				c-0.043-0.354-0.084-0.709-0.126-1.063c0.464-1.382,0.116-1.912-1.044-1.59C709.059,608.13,710.888,607.34,710.215,606.654
				L710.215,606.654z"/>
		</g>
	</g>
	<g>
		<g>
			<path fill="#B5C8B4" d="M694.887,602.148c-0.379-0.567-0.758-1.136-1.136-1.704c-0.327-0.491-1.821-0.087-1.862,0.5
				c-0.283,3.961,0.574,7.644-1.641,11.21c-2.02,3.252-5.475,4.893-8.075,7.581c-5.003,5.171-1.364,12.83,1.836,17.84
				c0.37,0.579,2.243-0.064,1.789-0.775c-2.24-3.507-4.177-7.289-4.129-11.55c0.046-4.119,3.431-6.416,6.306-8.669
				c2.398-1.882,4.159-3.967,5.377-6.799c1.128-2.623,0.279-6.346,0.473-9.063c-0.621,0.167-1.241,0.333-1.862,0.5
				c0.378,0.567,0.757,1.136,1.136,1.704C693.48,603.499,695.352,602.847,694.887,602.148L694.887,602.148z"/>
		</g>
	</g>
	<g>
		<g>
			<path fill="#B5C8B4" d="M682.848,595.057c-1.846,5.212-5.743,9.351-10.13,12.586c-2.614,1.929-5.071,1.416-7.968,0.931
				c-0.607-0.103-1.416,0.052-1.959,0.373c-2.574,1.522-3.275,3.941-2.131,6.627c0.886,2.081,2.424,3.285,2.105,5.783
				c-0.523,4.123-2.971,5.153-7.061,4.93c-0.904-0.05-1.992,1.28-0.682,1.352c3.137,0.172,6.457,0.178,8.467-2.59
				c2.162-2.979,1.325-6.337-0.414-9.156c-1.758-2.852,0.751-6.07,4.045-5.243c0.529,0.133,1.129,0.253,1.668,0.162
				c2.011-0.34,3.494-1.214,5.195-2.338c4.666-3.084,8.832-7.94,10.703-13.227C685.053,594.215,683.121,594.285,682.848,595.057
				L682.848,595.057z"/>
		</g>
	</g>
	<g>
		<g>
			<path fill="#B5C8B4" d="M673.68,590.027c-4.149,1.729-8.989,4.029-9.693,8.958c-0.131,0.923,0.139,2.022,0.265,2.923
				c0.419,3-2.044,4.586-4.351,5.758c-2.169,1.102-4.449,1.905-6.314,3.51c-0.994,0.854,0.543,1.537,1.285,0.898
				c2.82-2.424,8.664-3.091,10.507-6.583c0.899-1.704,0.944-3.105,0.681-4.989c-0.735-5.254,4.424-7.626,8.482-9.316
				C675.764,590.676,674.68,589.611,673.68,590.027L673.68,590.027z"/>
		</g>
	</g>
	<g>
		<g>
			<path fill="#B5C8B4" d="M629.296,590.439c11.804-7.26,28.937,10.242,38.798-3.557c0.705-0.987-1.121-1.172-1.6-0.504
				c-8.811,12.33-26.734-3.951-38.458,3.26C626.921,590.325,628.547,590.899,629.296,590.439L629.296,590.439z"/>
		</g>
	</g>
	<g>
		<g>
			<path fill="#B5C8B4" d="M657.205,572.48c-5.435,0.393-11.107,4.176-11.159,10.096c-0.04,4.686,2.96,7.178-1.45,11.268
				c-3.184,2.955-7.766,4.526-11.762,6.042c-1.267,0.479-0.104,1.081,0.754,0.756c5.111-1.938,10.566-4.084,14.269-8.269
				c1.596-1.803,1.614-4.215,1.11-6.422c-0.301-1.323-0.788-2.539-0.988-3.893c-0.697-4.697,5.12-8.27,8.953-8.545
				C657.867,573.445,658.547,572.385,657.205,572.48L657.205,572.48z"/>
		</g>
	</g>
	<g>
		<g>
			<path fill="#B5C8B4" d="M618.123,555.806c9.758,9.474,30.367-1.444,36.924,11.361c0.373,0.73,2.223,0.044,1.771-0.836
				c-6.884-13.448-27.205-1.927-36.923-11.361C619.291,554.383,617.463,555.165,618.123,555.806L618.123,555.806z"/>
		</g>
	</g>
	<g>
		<g>
			<path fill="#B5C8B4" d="M654.568,556.756c-4.175-3.865-8.891-5.377-14.315-6.709c-6.39-1.568-13.735-1.969-14.961-9.679
				c-1.538-9.674-12.997-11.427-20.57-9.161c-1.114,0.332-0.952,0.981,0.173,0.645c7.104-2.123,12.771-0.258,16.968,5.592
				c2.163,3.016,1.396,6.494,4.191,9.191c3.14,3.027,8.64,3.196,12.618,4.186c5.281,1.313,10.006,2.834,14.08,6.607
				C653.143,557.789,654.898,557.063,654.568,556.756L654.568,556.756z"/>
		</g>
	</g>
	<g>
		<g>
			<path fill="#B5C8B4" d="M615.188,527.561c11.646-3.479,35.223-3.203,38.075,12.181c0.146,0.785,2.083,0.3,1.932-0.518
				c-3.017-16.268-28.077-16.468-40.315-12.813C613.718,526.757,614.014,527.91,615.188,527.561L615.188,527.561z"/>
		</g>
	</g>
	<g>
		<g>
			<path fill="#B5C8B4" d="M660.68,529.931c-8.031-4.995-18.566-2.253-26.235-8.321c-6.697-5.299-9.624-12.389-19.034-12.774
				c-0.72-0.029-2.063,1.026-0.756,1.08c9.856,0.403,13.301,9.851,20.936,14.509c7.07,4.313,16.49,2.042,23.549,6.433
				C659.666,531.184,661.455,530.413,660.68,529.931L660.68,529.931z"/>
		</g>
	</g>
	<g>
		<g>
			<path fill="#B5C8B4" d="M664.796,524.773c2.544-3.27,0.335-6.372-2.56-8.514c-1.898-1.403-4.483-1.236-6.712-1.174
				c-2.942,0.08-5.94,0.483-8.858-0.068c-4.529-0.857-3.131-5.396-1.752-8.422c0.424-0.93-1.518-0.785-1.82-0.121
				c-2.199,4.824-2.23,9.084,3.734,9.922c2.572,0.361,5.27,0.054,7.849-0.063c1.478-0.066,2.993-0.117,4.45,0.184
				c3.471,0.718,6.178,5.141,3.849,8.135C662.392,525.402,664.359,525.335,664.796,524.773L664.796,524.773z"/>
		</g>
	</g>
	<g>
		<g>
			<path fill="#B5C8B4" d="M669.402,520.643c0.262-6.705-7.031-9.911-12.074-12.494c-2.854-1.461-6.028-2.89-8.149-5.375
				c-3.383-3.965,2.341-8.479,5.104-10.633c1.036-0.807-0.559-1.286-1.246-0.75c-5.455,4.248-9.885,9.687-2.861,14.629
				c5.408,3.807,17.605,6.475,17.281,14.811C667.42,521.756,669.373,521.416,669.402,520.643L669.402,520.643z"/>
		</g>
	</g>
	<g>
		<g>
			<path fill="#B5C8B4" d="M680.681,514.651c-7.86-6.78-5.267-19.139-1.228-27.188c3.707-7.386,5.586-13.457,2.439-21.519
				c-0.307-0.788-2.223-0.228-1.932,0.518c1.809,4.636,2.35,9.043,0.892,13.839c-1.319,4.342-4.033,8.205-5.659,12.439
				c-2.682,6.99-2.314,17.527,3.708,22.72C679.494,515.973,681.312,515.195,680.681,514.651L680.681,514.651z"/>
		</g>
	</g>
	<g>
		<g>
			<path fill="#B5C8B4" d="M692.043,516.746c4.326-6.227-1.133-17.008,9.185-18.83c0.86-0.152,1.641-1.176,0.299-0.939
				c-3.954,0.698-7.138,2.361-8.595,6.281c-1.594,4.288,0.037,9.621-2.67,13.516C689.801,517.438,691.724,517.205,692.043,516.746
				L692.043,516.746z"/>
		</g>
	</g>
	<g>
		<g>
			<path fill="#B5C8B4" d="M710.859,521.735c0.584-12.506,25.533-3.073,30.107-15.337c0.208-0.559-1.703-0.317-1.924,0.273
				c-4.391,11.772-29.445,1.158-30.107,15.337C708.902,522.724,710.832,522.307,710.859,521.735L710.859,521.735z"/>
		</g>
	</g>
	<g>
		<g>
			<path fill="#B5C8B4" d="M721.656,526.727c-0.666-3.564-1.268-5.701,0.404-9.2c1.526-3.198,3.967-6.016,6.159-8.772
				c1.803-2.27,5.679-6.004,4.798-9.294c-0.254-0.95-2.186-0.433-1.932,0.518c1.053,3.933-6.872,11.034-8.94,14.027
				c-1.351,1.954-2.444,4.047-3.171,6.309c-0.824,2.57,0.283,4.433,0.75,6.931C719.902,528.199,721.838,527.698,721.656,526.727
				L721.656,526.727z"/>
		</g>
	</g>
	<path fill="#B5C8B4" stroke="#B5C8B4" stroke-miterlimit="10" d="M668.301,699.165c-3.721-9.92,1.238,1.24-1.241-4.34
		s-6.199-25.423-27.899-28.521c-8.681-1.24-14.261,0.62-14.261,0.62c-3.72,3.72-8.729,10.125-8.729,15.705
		s-7.684,23.387-31.244,35.787s-0.622,55.962,29.539,39.764C647.946,740.2,672.021,709.085,668.301,699.165z M613.896,754.205
		c-27.634,14.841-47.716-19.882-26.13-31.243s29.539-33.516,29.539-38.628s3.976-9.089,7.385-12.497c0,0,5.112-1.704,13.065-0.568
		c19.882,2.839,23.29,21.019,25.562,26.131s-2.271-5.112,1.137,3.977S644.572,737.731,613.896,754.205z"/>
	<path fill="#B5C8B4" stroke="#B5C8B4" stroke-miterlimit="10" d="M636.051,717.281c-2.271,2.84-6.248-0.001-2.271,2.84
		s7.952,0,6.248-1.704S636.051,717.281,636.051,717.281z"/>
	<path fill="#B5C8B4" stroke="#B5C8B4" stroke-miterlimit="10" d="M611.057,711.601c1.137,2.841,5.113,5.682,5.113,2.841
		s0.568-5.113-1.705-5.113C612.193,709.328,611.057,711.601,611.057,711.601z"/>
	<path fill="#B5C8B4" stroke="#B5C8B4" stroke-miterlimit="10" d="M603.672,734.323c-2.04,0.643-1.738,3.15,0,3.408
		c1.74,0.258,3.408-1.137,3.408-1.137S605.713,733.681,603.672,734.323z"/>
	<path fill="#B5C8B4" stroke="#B5C8B4" stroke-miterlimit="10" d="M604.152,726.65c-1.764,0.756-5.04,4.787-5.796,8.819
		s-0.252,7.812,3.78,8.315c4.031,0.504,9.322-2.268,10.33-4.788c1.009-2.521,3.276-4.282,0.504-7.055
		c-1.083-1.084-5.543-1.765-6.047-3.276s-0.252-3.275,4.283-2.268c4.536,1.008,9.576,7.559,7.057,11.843
		c-2.521,4.284-13.859,12.096-19.655,7.812c-8.925-6.598-2.521-14.111-2.017-16.127s5.041-6.047,6.553-5.291
		S604.152,726.65,604.152,726.65z"/>
	<path fill="#B5C8B4" stroke="#B5C8B4" stroke-miterlimit="10" d="M864.146,471.033c-1.669-9.217-8.066-18.435-14.183-23.043
		c-6.117-4.609-9.733-5.151-9.733-5.151c-4.448,1.897-7.786,11.929-9.454,17.622c-1.667,5.693-18.075,52.592-6.673,56.931
		c11.401,4.339,22.522-2.709,26.695-6.505c4.171-3.797,10.011-10.304,10.846-12.473
		C862.477,496.245,865.813,480.252,864.146,471.033z M860.173,497.605c-0.756,2.016-6.048,8.063-9.828,11.592
		s-13.858,10.079-24.19,6.047s4.536-47.625,6.048-52.916s4.536-14.615,8.567-16.379c0,0,3.276,0.504,8.819,4.787
		c5.543,4.284,11.34,12.852,12.852,21.419S860.929,495.59,860.173,497.605z"/>
	<path fill="#B5C8B4" stroke="#B5C8B4" stroke-miterlimit="10" d="M875.705,466.656c-2.985-2.67-10.857-11.217-16.829-17.893
		c-5.97-6.676-6.515-10.415-10.042-12.018c-3.529-1.604-7.6-2.137-7.6-2.137c-3.258,1.336-8.415,5.341-11.672,8.545
		c-3.257,3.205-11.128,21.9-12.214,31.247c-1.086,9.346-5.157,25.638-6.515,29.109s-1.899,20.029,9.771,22.7
		c11.671,2.67,32.843,5.875,44.514-10.951C876.792,498.436,878.69,469.327,875.705,466.656z M862.944,513.229
		c-10.836,15.875-30.49,12.852-41.325,10.332s-10.331-18.144-9.071-21.419s5.039-18.647,6.048-27.466
		c1.009-8.819,8.315-26.459,11.339-29.482c3.023-3.024,7.812-6.805,10.835-8.064c0,0,3.78,0.504,7.056,2.017s3.78,5.04,9.323,11.339
		s12.852,14.363,15.623,16.883C875.543,469.888,873.78,497.354,862.944,513.229z"/>
	<g>
		<path fill="#B5C8B4" d="M802.216,480.219c-0.252,0-1.512,0-1.512,0c2.521,1.26,7.812,2.016,9.575,1.26"/>
		<g>
			<path fill="#B5C8B4" d="M802.571,479.596c-0.504,0-1.008,0-1.512,0c-0.357,0-2.045,0.698-1.112,1.135
				c3.041,1.423,7.473,2.399,10.736,1.229c1.261-0.452,0.127-1.298-0.809-0.963c-2.371,0.849-6.24-0.272-8.414-1.29
				c-0.371,0.379-0.742,0.757-1.112,1.135c0.504,0,1.008,0,1.512,0C802.682,480.842,803.879,479.596,802.571,479.596
				L802.571,479.596z"/>
		</g>
	</g>
	<g>
		<path fill="#B5C8B4" d="M804.232,493.07c-1.008,0.504-4.284,2.268-6.3,2.52"/>
		<g>
			<path fill="#B5C8B4" d="M803.685,492.977c-1.754,0.885-3.599,1.993-5.563,2.293c-0.747,0.114-1.744,0.849-0.379,0.641
				c2.501-0.383,4.806-1.62,7.037-2.746C805.916,492.592,804.104,492.765,803.685,492.977L803.685,492.977z"/>
		</g>
	</g>
	<g>
		<g>
			<path fill="#B5C8B4" d="M804.1,503.496c-2.613-0.008-5.223-0.063-7.836-0.009c-1.814,0.038-3.989-0.042-5.627,0.88
				c-0.835,0.469,1.121,0.291,1.488,0.084c0.911-0.512,4.101-0.171,5.333-0.178c1.799-0.008,3.597,0.034,5.396,0.041
				C803.276,504.315,805.063,503.5,804.1,503.496L804.1,503.496z"/>
		</g>
	</g>
	<g>
		<g>
			<path fill="#B5C8B4" d="M804.862,513.184c0.777-1.118-1.45-0.818-1.976-0.756c-1.683,0.2-3.357,0.82-5.053,0.869
				c-0.57,0.016-2.101,0.908-0.811,0.871c1.101-0.031,2.201-0.311,3.276-0.523c0.677-0.135,1.353-0.264,2.034-0.366
				c0.147-0.022,0.879-0.169,0.765-0.005C802.686,513.867,804.577,513.594,804.862,513.184L804.862,513.184z"/>
		</g>
	</g>
	<g>
		<g>
			<path fill="#B5C8B4" d="M812.254,523.049c-0.467-1.203-2.485,0.108-2.984,0.733c-0.902,1.13-1.476,2.501-2.207,3.739
				c-0.162,0.273,0.695,0.145,0.758,0.133c0.32-0.061,0.954-0.18,1.141-0.496c0.466-0.788,0.877-1.607,1.335-2.398
				c0.244-0.422,0.503-0.836,0.788-1.23c0.12-0.165,0.248-0.32,0.399-0.457c0.441-0.336,0.017-0.242-1.276,0.281
				c0.063,0.035,0.092,0.153,0.115,0.213C810.48,523.977,812.373,523.357,812.254,523.049L812.254,523.049z"/>
		</g>
	</g>
	<g>
		<g>
			<path fill="#B5C8B4" d="M820.163,530.031c-0.847,1.86-2.26,3.385-3.024,5.291c-0.133,0.331,1.707,0.148,1.904-0.342
				c0.766-1.908,2.179-3.432,3.024-5.293C822.205,529.385,820.386,529.54,820.163,530.031L820.163,530.031z"/>
		</g>
	</g>
	<g>
		<path fill="#B5C8B4" d="M830.942,530.111c0.504,2.521-1.008,5.544-2.016,8.063"/>
		<g>
			<path fill="#B5C8B4" d="M829.977,530.37c0.417,2.79-0.986,5.448-2.007,7.96c-0.175,0.432,1.697,0.223,1.914-0.311
				c1.05-2.585,2.453-5.297,2.024-8.167C831.837,529.378,829.892,529.805,829.977,530.37L829.977,530.37z"/>
		</g>
	</g>
	<g>
		<path fill="#B5C8B4" d="M842.03,531.372c1.26,0.252,4.283,2.268,5.795,3.527c0.504,0.504,0-0.252-0.252-0.504"/>
		<g>
			<path fill="#B5C8B4" d="M841.458,531.967c1.244,0.304,2.396,1.147,3.446,1.848c0.603,0.4,1.187,0.83,1.758,1.273
				c0.419,0.325,0.692,0.675,1.271,0.592c0.3-0.043,1.321-0.377,1.072-0.89c-0.145-0.298-0.323-0.551-0.543-0.8
				c-0.521-0.588-2.365,0.146-1.779,0.811c0.137,0.154,0.299,0.318,0.391,0.507c0.357-0.297,0.714-0.593,1.071-0.89
				c-0.014,0.002-0.026,0.004-0.04,0.006c0.261,0.075,0.522,0.15,0.783,0.227c-1.704-1.521-4.025-3.324-6.286-3.873
				C841.869,530.598,840.313,531.689,841.458,531.967L841.458,531.967z"/>
		</g>
	</g>
	<g>
		<path fill="#B5C8B4" d="M855.133,525.072c0,0.252,10.079,0.756,12.096-0.504c-0.252-0.504-0.504,0-1.008,0"/>
		<g>
			<path fill="#B5C8B4" d="M854.227,525.417c1.092,0.915,4.476,0.404,5.793,0.409c2.468,0.011,5.527,0.119,7.779-1.08
				c0.134-0.07,0.568-0.322,0.336-0.522c-0.087-0.075-0.175-0.149-0.262-0.224c-0.298-0.256-0.947-0.04-1.255,0.068
				c-0.164,0.047-0.329,0.096-0.493,0.143c-1.14,0.297-0.945,1.012,0.191,0.715c0.343-0.09,0.666-0.188,1-0.306
				c-0.418,0.022-0.837,0.046-1.255,0.069c0.087,0.074,0.174,0.148,0.261,0.224c0.112-0.175,0.224-0.349,0.336-0.522
				c-1.565,0.834-4.107,0.55-5.829,0.557c-0.852,0.004-4.088,0.369-4.79-0.22C855.601,524.36,853.853,525.104,854.227,525.417
				L854.227,525.417z"/>
		</g>
	</g>
	<g>
		<path fill="#B5C8B4" d="M881.592,491.81c-1.009,0.505-3.78,4.032-5.292,6.048"/>
		<g>
			<path fill="#B5C8B4" d="M881.164,491.239c-1.048,0.598-1.847,1.587-2.623,2.489c-1.067,1.238-2.067,2.537-3.05,3.844
				c-0.74,0.983,1.086,1.277,1.617,0.57c0.85-1.129,1.718-2.242,2.618-3.33c0.644-0.779,1.396-1.92,2.293-2.433
				C883.159,491.73,882.122,490.691,881.164,491.239L881.164,491.239z"/>
		</g>
	</g>
	<g>
		<path fill="#B5C8B4" d="M872.268,449.729c-1.764,2.268-4.535,3.527-6.299,5.796"/>
		<g>
			<path fill="#B5C8B4" d="M871.377,449.74c-1.817,2.234-4.478,3.557-6.299,5.796c-0.495,0.609,1.427,0.412,1.781-0.023
				c1.817-2.234,4.478-3.556,6.299-5.796C873.653,449.107,871.731,449.305,871.377,449.74L871.377,449.74z"/>
		</g>
	</g>
	<g>
		<path fill="#B5C8B4" d="M854.125,424.026c-1.008,0-4.031,6.3-3.527,8.567"/>
		<g>
			<path fill="#B5C8B4" d="M854.272,423.548c-1.624,0.303-2.343,1.825-3.031,3.177c-0.896,1.758-1.941,4.104-1.609,6.128
				c0.095,0.578,2.037,0.128,1.932-0.518c-0.243-1.487,0.422-3.11,0.961-4.466c0.305-0.768,0.669-1.514,1.073-2.232
				c0.15-0.267,0.319-0.521,0.491-0.775c0.352-0.516,0.796-0.525-0.111-0.356C854.842,424.344,855.61,423.299,854.272,423.548
				L854.272,423.548z"/>
		</g>
	</g>
	<g>
		<path fill="#B5C8B4" d="M833.967,426.042c-1.261,0.756-1.009,7.308,2.016,7.812"/>
		<g>
			<path fill="#B5C8B4" d="M833.22,425.986c-1.175,0.885-1,2.878-0.841,4.16c0.21,1.689,0.986,3.684,2.815,4.102
				c0.477,0.109,2.181-0.65,1.576-0.789c-1.581-0.361-2.139-2.109-2.411-3.521c-0.167-0.864-0.5-3.194,0.354-3.84
				C835.519,425.491,833.583,425.711,833.22,425.986L833.22,425.986z"/>
		</g>
	</g>
	<g>
		<path fill="#B5C8B4" d="M814.312,441.917c2.016-0.756,8.567,3.78,9.827,3.276"/>
		<g>
			<path fill="#B5C8B4" d="M814.406,442.271c0.663-0.181,1.942,0.533,2.539,0.78c1.064,0.442,2.096,0.966,3.135,1.463
				c1.309,0.626,2.67,1.391,4.153,1.033c1.146-0.277,0.947-0.982-0.189-0.707c0.392-0.096-0.545-0.313-0.669-0.359
				c-0.46-0.174-0.905-0.389-1.351-0.596c-1.042-0.482-2.069-0.997-3.116-1.468c-1.475-0.662-3.07-1.296-4.691-0.854
				C813.084,441.873,813.271,442.58,814.406,442.271L814.406,442.271z"/>
		</g>
	</g>
	<g>
		<path fill="#B5C8B4" d="M810.784,461.572c-0.757,0-1.261,0.504-2.017,0c1.26,2.52,6.552,2.52,9.071,2.016c0-0.252-0.252,0-0.756,0
			"/>
		<g>
			<path fill="#B5C8B4" d="M810.925,461.068c-0.42,0.057-0.968,0.221-1.384,0.053c-0.297-0.119-2.077,0.133-1.739,0.709
				c1.79,3.059,6.896,2.813,9.896,2.262c0.292-0.055,1.416-0.372,1.04-0.873c-0.028-0.037-0.057-0.074-0.084-0.112
				c-0.198-0.265-0.77-0.137-1.02-0.081c-0.138,0.02-0.274,0.039-0.411,0.059c-0.905,0.121-1.624,1.186-0.281,1.008
				c0.318-0.043,0.62-0.096,0.933-0.166c-0.34-0.026-0.68-0.053-1.02-0.08c0.028,0.037,0.057,0.074,0.084,0.111
				c0.347-0.291,0.693-0.582,1.04-0.873c-2.429,0.447-6.78,0.732-8.246-1.771c-0.579,0.236-1.159,0.474-1.739,0.71
				c0.975,0.393,1.633,0.188,2.649,0.053C811.549,461.953,812.268,460.889,810.925,461.068L810.925,461.068z"/>
		</g>
	</g>
	<g>
		<path fill="#B5C8B4" d="M718.561,454.769c-2.268,0.504-8.567,12.852-10.835,15.623"/>
		<g>
			<path fill="#B5C8B4" d="M718.396,454.155c-2.334,0.829-3.788,3.728-5.042,5.679c-2.174,3.382-3.947,7.136-6.429,10.307
				c-0.746,0.954,1.096,1.145,1.6,0.502c1.834-2.346,3.248-5.041,4.78-7.586c0.96-1.594,1.94-3.174,2.978-4.719
				c0.497-0.74,1.574-2.648,2.441-2.956C719.861,454.979,719.563,453.741,718.396,454.155L718.396,454.155z"/>
		</g>
	</g>
	<g>
		<path fill="#B5C8B4" d="M711.001,453.509c-0.504-2.269-5.292,0.252-7.308,0.504"/>
		<g>
			<path fill="#B5C8B4" d="M711.967,453.25c-0.943-3.029-6.311-0.133-8.16,0.156c-0.979,0.153-1.551,1.42-0.227,1.213
				c1.199-0.188,5.97-2.41,6.455-0.852C710.273,454.535,712.201,454,711.967,453.25L711.967,453.25z"/>
		</g>
	</g>
	<g>
		<path fill="#B5C8B4" d="M694.874,442.422c2.771,0.756,16.379,2.268,16.127,0"/>
		<g>
			<path fill="#B5C8B4" d="M694.303,443.02c2.369,0.596,17.364,3.434,17.672-0.691c0.068-0.919-1.889-0.591-1.947,0.188
				c-0.115,1.549-13.121-0.324-14.582-0.691C694.707,441.638,693.156,442.73,694.303,443.02L694.303,443.02z"/>
		</g>
	</g>
	<g>
		<path fill="#B5C8B4" d="M705.962,436.374c0,0,2.771,0.756,3.527,0.756c1.26,0.252,6.552,1.008,5.796,0.252"/>
		<g>
			<path fill="#B5C8B4" d="M705.407,437.037c2.183,0.59,4.388,0.967,6.632,1.232c0.523,0.063,5.437,0.527,4.129-1.317
				c-0.52-0.733-2.355,0.026-1.766,0.859c-0.588-0.828,1.26-0.847,0.174-0.825c-0.493,0.01-0.996-0.059-1.486-0.105
				c-0.854-0.084-1.707-0.207-2.555-0.341c-1.357-0.214-2.688-0.468-4.019-0.829C705.666,435.481,704.231,436.719,705.407,437.037
				L705.407,437.037z"/>
		</g>
	</g>
	<g>
		<path fill="#B5C8B4" d="M710.497,430.83c-1.512-2.268,14.867-3.779,16.379-4.031"/>
		<g>
			<path fill="#B5C8B4" d="M711.463,430.571c-0.67-1.436,13.438-3.104,15.244-3.376c0.811-0.122,1.693-0.998,0.338-0.794
				c-1.787,0.269-18.809,1.911-17.514,4.688C709.773,431.609,711.644,430.959,711.463,430.571L711.463,430.571z"/>
		</g>
	</g>
	<g>
		<path fill="#B5C8B4" d="M727.38,410.924c0.252-0.504,0.504-0.756,1.008-0.756c1.765,3.275,6.552,12.347,10.836,10.835"/>
		<g>
			<path fill="#B5C8B4" d="M728.335,410.764c-0.039-0.068-0.078-0.137-0.117-0.203c-0.266-0.045-0.53-0.09-0.796-0.135
				c2.195,4.08,6.023,12.546,11.892,10.912c1.127-0.313,0.951-0.985-0.18-0.67c-2.421,0.673-5.04-3.137-6.171-4.711
				c-1.371-1.908-2.498-3.984-3.609-6.049c-0.131-0.242-0.582-0.175-0.796-0.133c-0.974,0.19-1.599,0.448-2.133,1.309
				C726.246,411.37,728.027,411.258,728.335,410.764L728.335,410.764z"/>
		</g>
	</g>
	<g>
		<path fill="#B5C8B4" d="M751.57,407.647c2.017,0.252,3.276,3.78,6.048,4.284"/>
		<g>
			<path fill="#B5C8B4" d="M751.235,408.348c1.135,0.209,2.034,1.631,2.794,2.396c0.938,0.942,1.952,1.596,3.254,1.888
				c0.947,0.212,1.946-1.116,0.67-1.401c-2.561-0.574-3.42-3.801-6.048-4.283C750.955,406.771,749.945,408.111,751.235,408.348
				L751.235,408.348z"/>
		</g>
	</g>
	<g>
		<path fill="#B5C8B4" d="M779.037,408.656c-3.276-2.772-3.276-8.82,1.764-10.584"/>
		<g>
			<path fill="#B5C8B4" d="M779.926,408.249c-3.116-2.848-2.929-8.018,1.285-9.676c1.242-0.489,0.127-1.375-0.82-1.002
				c-4.835,1.903-6.187,7.888-2.242,11.491C778.734,409.598,780.558,408.826,779.926,408.249L779.926,408.249z"/>
		</g>
	</g>
	<g>
		<path fill="#B5C8B4" d="M797.684,404.119c-2.52,1.009-4.535,3.78-3.275,6.553"/>
		<g>
			<path fill="#B5C8B4" d="M797.311,403.756c-2.809,1.225-5.142,4.004-3.868,7.174c0.257,0.639,2.159,0.049,1.932-0.518
				c-0.981-2.441,0.332-4.905,2.683-5.93C799.296,403.942,798.151,403.391,797.311,403.756L797.311,403.756z"/>
		</g>
	</g>
	<g>
		<path fill="#B5C8B4" d="M805.495,426.043c-0.252,0.252-0.756,0-0.504,0.252c3.023,0.252,9.575-3.78,8.063-7.057"/>
		<g>
			<path fill="#B5C8B4" d="M805.159,425.816c0.07-0.013,0.142-0.025,0.212-0.038c-0.213,0.008-1.506,0.253-1.383,0.653
				c0.012,0.041,0.024,0.081,0.037,0.121c0.038,0.125,0.244,0.137,0.341,0.141c2.295,0.1,4.577-0.914,6.47-2.125
				c1.764-1.128,4.094-3.267,3.185-5.588c-0.185-0.474-2.08,0.139-1.932,0.518c0.603,1.537-0.31,2.875-1.382,3.934
				c-0.32,0.317-4.582,3.15-4.787,2.482c-0.461,0.219-0.922,0.436-1.383,0.654c0.465-0.018,0.863-0.125,1.294-0.3
				C807.104,425.752,805.896,425.518,805.159,425.816L805.159,425.816z"/>
		</g>
	</g>
	<g>
		<path fill="#B5C8B4" d="M807.259,431.334c-0.252-0.252-0.504-0.504-0.756-0.756c2.269,0.504,4.788,0.252,6.804-0.252"/>
		<g>
			<path fill="#B5C8B4" d="M808.155,430.954c-0.252-0.252-0.504-0.504-0.756-0.756c-0.495,0.304-0.991,0.606-1.487,0.909
				c2.514,0.5,5.046,0.298,7.525-0.291c1.176-0.279,0.9-1.257-0.262-0.98c-2.008,0.477-4.05,0.617-6.082,0.213
				c-0.316-0.063-2.066,0.33-1.487,0.909c0.252,0.252,0.504,0.504,0.756,0.756C806.848,432.199,808.678,431.477,808.155,430.954
				L808.155,430.954z"/>
		</g>
	</g>
	<g>
		<path fill="#B5C8B4" d="M796.172,439.146c-2.52,1.513,7.308,2.017,9.575,0.757"/>
		<g>
			<path fill="#B5C8B4" d="M795.438,439.135c-2.059,1.386,2.116,1.728,2.91,1.793c2.518,0.205,5.627,0.229,7.95-0.92
				c1.143-0.564-0.67-0.426-1.102-0.212c-1.454,0.719-3.64,0.479-5.214,0.401c-0.23-0.011-3.939-0.459-3.076-1.041
				C797.692,438.627,795.76,438.917,795.438,439.135L795.438,439.135z"/>
		</g>
	</g>
	<g>
		<path fill="#B5C8B4" d="M782.816,445.445c-2.268,0.504,3.528,9.575,7.812,7.56"/>
		<g>
			<path fill="#B5C8B4" d="M782.482,445.226c-2.566,0.81-0.078,4.083,0.873,5.273c1.987,2.488,4.744,3.925,7.829,2.634
				c1.174-0.492-0.657-0.446-1.113-0.256c-0.85,0.355-2.244-0.637-2.884-1.092c-0.902-0.641-1.668-1.482-2.334-2.358
				c-0.547-0.72-1.004-1.514-1.336-2.354c-0.122-0.307-0.198-0.628-0.238-0.956c-0.05-0.417,0.287-0.583-0.129-0.451
				C784.467,445.25,783.217,444.994,782.482,445.226L782.482,445.226z"/>
		</g>
	</g>
	<g>
		<path fill="#B5C8B4" d="M765.682,450.484c3.78,1.008-1.008,15.623,7.308,11.592"/>
		<g>
			<path fill="#B5C8B4" d="M765.097,451.033c2.107,0.728,1.473,7.193,1.784,8.936c0.646,3.611,3.537,3.892,6.498,2.537
				c1.221-0.559,0.107-1.266-0.779-0.859c-6.4,2.928-2.119-10.256-6.333-11.71C765.619,449.713,764,450.654,765.097,451.033
				L765.097,451.033z"/>
		</g>
	</g>
	<g>
		<path fill="#B5C8B4" d="M753.839,451.745c1.26,4.032-4.788,13.103,2.52,13.606"/>
		<g>
			<path fill="#B5C8B4" d="M752.873,452.004c1.154,4.62-4.783,13.19,3.154,14.063c0.964,0.106,1.967-1.285,0.662-1.43
				c-6.059-0.665-0.953-9.424-1.885-13.15C754.576,450.572,752.644,451.086,752.873,452.004L752.873,452.004z"/>
		</g>
	</g>
	<g>
		<path fill="#B5C8B4" d="M735.695,454.265c-0.504,0.756-1.008,1.765-1.512,2.269"/>
		<g>
			<path fill="#B5C8B4" d="M734.785,454.203c-0.457,0.697-0.816,1.505-1.392,2.113c-0.291,0.309-0.206,0.684,0.214,0.799
				c0.446,0.121,1.045-0.027,1.366-0.367c0.672-0.71,1.101-1.61,1.632-2.422c0.262-0.4-0.222-0.656-0.553-0.68
				C735.589,453.615,735.047,453.803,734.785,454.203L734.785,454.203z"/>
		</g>
	</g>
	<path fill="#B5C8B4" stroke="#B5C8B4" stroke-miterlimit="10" d="M801.14,423.109c-1.665-3.463-12.218-15.291-31.375-12.118
		c-19.158,3.173-47.756,25.968-47.756,25.968c-4.443,4.039-11.661,9.811-9.718,12.695s40.259,5.771,66.081-5.771
		C804.193,432.342,802.806,426.571,801.14,423.109z M776.265,441.918c-23.435,10.079-58.208,7.559-59.972,5.039
		s4.787-7.56,8.819-11.087c0,0,25.954-19.907,43.341-22.679s26.963,7.56,28.475,10.583S799.699,431.838,776.265,441.918z"/>
	<path fill="#B5C8B4" stroke="#B5C8B4" stroke-miterlimit="10" d="M783.068,416.467c-5.543-1.008-17.13,0.014-19.654,0.756
		c-12.852,3.78-36.79,18.899-36.79,18.899s-2.771,3.528-1.008,5.544s20.41,1.764,26.962,0s32.507-8.316,35.278-11.844
		S788.611,417.476,783.068,416.467z M785.667,430.045c-2.598,3.135-26.919,8.953-33.059,10.52s-23.612,1.79-25.266,0
		c-1.652-1.79,2.379-4.701,2.379-4.701s20.998-13.65,33.041-17.008c2.365-0.66,13.223-1.566,18.417-0.671
		S788.264,426.912,785.667,430.045z"/>
	<path fill="#B5C8B4" stroke="#B5C8B4" stroke-miterlimit="10" d="M1066.663,528.608c-13.874-28.305-44.676-49.974-49.694-53.057
		s-42.994-11.958-81.663,4.855c-7.131,3.101-49.296,21.298-60.513,37.552c-11.218,16.254-41.326,46.238,36.897,81.269
		c52.543,17.936,105.381,6.165,113.941,2.242C1034.192,597.546,1080.537,556.913,1066.663,528.608z M1017.523,598.781
		c-7.822,3.776-56.104,15.104-104.116-2.158c-71.479-33.717-43.966-62.577-33.716-78.222s48.779-33.159,55.295-36.144
		c35.335-16.184,76.354-2.383,80.94,0.586c4.586,2.967,34.197,21.715,46.875,48.958S1025.346,595.005,1017.523,598.781z"/>
	<path fill="#B5C8B4" stroke="#B5C8B4" stroke-miterlimit="10" d="M987.584,524.974c-4.047-1.519-7.822-0.608-7.822-0.608
		c-2.697,1.215-9.172,5.162-5.665,8.807s10.789,8.503,13.217,2.733C989.741,530.135,991.631,526.491,987.584,524.974z
		 M986.967,534.783c-2.001,4.695-8.002,0.742-10.892-2.224c-2.891-2.966,2.445-6.177,4.669-7.166c0,0,3.11-0.74,6.446,0.495
		C990.525,527.124,988.968,530.089,986.967,534.783z"/>
	<path fill="#B5C8B4" stroke="#B5C8B4" stroke-miterlimit="10" d="M984.563,492.938c-4.027-4.846-6.71-5.286-6.71-5.286
		c-0.976-0.108-7.608,1.761-5.371,5.727c2.238,3.965,2.238,7.49,6.712,7.49C983.669,500.869,988.591,497.784,984.563,492.938z
		 M979.402,499.252c-3.458,0-3.458-2.643-5.189-5.615c-1.729-2.973,1.785-4.869,4.152-4.293c0,0,2.075,0.329,5.188,3.963
		C986.667,496.938,982.861,499.252,979.402,499.252z"/>
	<path fill="#B5C8B4" stroke="#B5C8B4" stroke-miterlimit="10" d="M958.665,580.313c-1.883-1.992-5.647-3.987-6.587-2.989
		c-2.531,2.687-3.763,4.487-3.293,5.982c0.47,1.494,5.175,4.486,7.527,2.492S960.546,582.307,958.665,580.313z M956.174,583.93
		c-1.644,1.364-4.932-0.684-5.26-1.706c-0.329-1.023,0.532-2.256,2.301-4.095c0.656-0.683,3.287,0.683,4.603,2.046
		C959.132,581.539,957.817,582.564,956.174,583.93z"/>
	<path fill="#B5C8B4" stroke="#B5C8B4" stroke-miterlimit="10" d="M962.229,553.196c-2.428,1.889-4.316,4.315-2.697,5.125
		s3.507,2.159,4.855,0.54s0.809-3.238,0.539-4.047S962.229,553.196,962.229,553.196z"/>
	<path fill="#B5C8B4" stroke="#B5C8B4" stroke-miterlimit="10" d="M891.069,553.358c-1.672-0.323-5.018-2.59-5.018-2.59
		c-4.349,2.267-6.021,7.768-4.349,9.386c1.672,1.618,8.028,2.913,9.366,0.972C892.408,559.185,892.742,553.682,891.069,553.358z
		 M890.21,559.939c-1.079,1.618-6.204,0.539-7.553-0.81s0-5.934,3.507-7.822c0,0,2.697,1.889,4.046,2.158
		S891.289,558.321,890.21,559.939z"/>
	<path fill="#B5C8B4" stroke="#B5C8B4" stroke-miterlimit="10" d="M1005.802,490.177c-2.25,0.5-4.5,1.5-4,4.5s3.5,6.25,7.25,6
		s9,0.5,6.25-4.5s-3.75-7.25-6-7.25S1005.802,490.177,1005.802,490.177z"/>
	<path fill="#B5C8B4" stroke="#B5C8B4" stroke-miterlimit="10" d="M955.552,530.927c-3.5,1.75-5.5,4.75-4.25,8s4.25,6,7.25,4.75
		s5.25-3.75,4.5-6.5s-4-5.25-5.75-5.75S955.552,530.927,955.552,530.927z"/>
	<path fill="#B5C8B4" stroke="#B5C8B4" stroke-miterlimit="10" d="M885.302,530.927c-3.5,1.75-5,3-4.25,4.75s7.25,8.25,12,4
		s1.5-8.25,0-8.75S885.302,530.927,885.302,530.927z"/>
	<path fill="#B5C8B4" stroke="#B5C8B4" stroke-miterlimit="10" d="M979.052,550.177c-1.75,1.5-3,4-1.25,6.5s7.75,5.75,10.25,4.25
		s5.75-6.25,4-8.75s-5-5.5-7-5S979.052,550.177,979.052,550.177z"/>
	<path fill="#B5C8B4" stroke="#B5C8B4" stroke-miterlimit="10" d="M946.802,506.927c-4-11.5-19.75-9.25-22.5-9.25s-10.75,3-10.75,3
		c-1.5,0.25-17.25,8.75-12,18s29.25,9.75,33.75,8.25S950.802,518.427,946.802,506.927z M933.222,524.757
		c-3.974,1.313-25.16,0.876-29.795-7.221s9.27-15.537,10.594-15.755c0,0,7.062-2.627,9.489-2.627c2.429,0,16.332-1.969,19.863,8.097
		C946.904,517.317,937.193,523.444,933.222,524.757z"/>
	<path fill="#B5C8B4" stroke="#B5C8B4" stroke-miterlimit="10" d="M940.302,546.427c-0.5-0.75-10.25-3.75-11.75-3.25s-7,1.5-7,1.5
		c-2.5-0.25,1-1.5-4-1.25s-13.25,8-14,12.75s1,14.25,12.25,15.75s24.5,3,29.75-9.75S940.802,547.177,940.302,546.427z
		 M943.269,561.938c-4.498,11.251-15.852,9.927-25.491,8.604s-11.14-9.706-10.497-13.898c0.642-4.191,7.712-11.031,11.996-11.252
		c4.284-0.22,1.286,0.883,3.428,1.104c0,0,4.713-0.883,5.998-1.323c1.286-0.442,9.641,2.205,10.068,2.867
		S947.768,550.686,943.269,561.938z"/>
	<path fill="#B5C8B4" stroke="#B5C8B4" stroke-miterlimit="10" d="M1031.552,523.177c-2.25-0.5-14.5-7.5-20.75-4.75
		s-20.25,17.25-2.75,28.75s23.5,5.75,26.75,3.5s7.5-13.25,7.25-15.75S1033.802,523.677,1031.552,523.177z M1024.302,547.427
		c-4.75,0.75-12,0.5-18.25-7.75s3.5-17,6.75-18.25c0,0,2.5-0.25,3.5-0.25s10,1.75,11.75,2.75s9,10,8,14.5
		S1029.052,546.677,1024.302,547.427z"/>
	<path fill="#B5C8B4" stroke="#B5C8B4" stroke-miterlimit="10" d="M998.302,574.927c-5.25-1-13.25-3.75-14-2s-1.75,3.25-3,3.25
		s-1.25,0-1.25,0c-3.5,2-8.25,7-8.5,10.75s3.25,11.25,10.75,9.75s17.5-4.25,18.25-8.5S1003.552,575.927,998.302,574.927z
		 M997.302,586.427c-1.5,4.75-6.75,6-10.25,6.5s-8.75,0-10.25-0.75s-1.75-3.75-1.25-7.75s3.5-5,3.5-5s6-2.5,7.75-3.25
		s6-0.25,9.25,1.25S998.802,581.677,997.302,586.427z"/>
	<path fill="#B5C8B4" stroke="#B5C8B4" stroke-miterlimit="10" d="M1019.552,534.927c-1.5,0.5-2.5,2.25-1.5,3s3.25,1.5,3.75,0.25
		S1019.552,534.927,1019.552,534.927z"/>
	<path fill="#B5C8B4" stroke="#B5C8B4" stroke-miterlimit="10" d="M922.052,555.677c-3.25,0.75-4,2-2.75,3.75s2.75,2.75,4.25,1.75
		s2-3.5,2-4.25S922.052,555.677,922.052,555.677z"/>
	<path fill="#B5C8B4" stroke="#B5C8B4" stroke-miterlimit="10" d="M921.552,512.427c-2,0.75-3.25,3.25-0.75,3.5s4,1.5,4.5-0.5
		s-1.25-3.75-2-3.75S921.552,512.427,921.552,512.427z"/>
	<path fill="#B5C8B4" stroke="#B5C8B4" stroke-miterlimit="10" d="M985.552,583.427c-1.75,1.25-2.25,2-0.75,2.75s2.75,2.25,3-0.25
		S985.552,583.427,985.552,583.427z"/>
	<path fill="#B5C8B4" stroke="#B5C8B4" stroke-miterlimit="10" d="M1045.773,643.406c-4.694-6.361-15.312-5.747-19.484-6.576
		c-4.172-0.831-26.109-2.891-36.54,0.152c-6.411,1.87-19.818,9.406-29.467,10.514c-9.648,1.106-30.068,11.248-46.758,21.482
		c-8.625,5.292-30.825,26.444-47.01,32.882c-18.775,7.47-66.195,20.855-118.609,17.536c-14.603-3.044-41.647,0.974-41.647,0.974
		c-2.868,1.383-24.115,11.313-5.602,34.828c8.758,11.125,46.321,16.231,58.577,10.699c12.257-5.532,33.378-6.363,49.284-6.64
		c15.907-0.275,56.586-3.043,60.498-4.149c3.911-1.106,30.509,3.319,56.324-30.707c19.257-25.381,22.439-33.588,76.938-39.398
		c7.229-0.77,31.863-3.023,42.033-16.024C1050.168,661.491,1050.467,649.769,1045.773,643.406z M1044.302,665.677
		c-9.75,11.75-38.82,15.804-45.75,16.5c-52.25,5.25-58.788,16.813-77.25,39.75c-24.75,30.75-50.584,30.756-54.46,30.554
		c-6.774-0.354-42.421,3.538-57.671,3.788s-35.905-2.95-47.119,3.158c-20.865,11.365-49.854,4.303-58.25-5.75
		c-17.75-21.25,0.5-29.75,3.25-31c0,0,29-3.75,43-1c50.25,3,99.5-11,117.5-17.75c15.517-5.818,47.23-32.719,55.5-37.5
		c16-9.25,29.658-15.548,38.888-16.721c16.834-2.139,15.021-4.9,21.112-6.779c20.777-6.408,54-4.25,58.5,1.5
		S1049.917,658.91,1044.302,665.677z"/>
	<path fill="none" stroke="#B5C8B4" stroke-width="4" stroke-miterlimit="10" d="M795.833,693.41
		c2.409-0.716,9.462,1.791,13.935,10.924c4.474,9.132,13.247-8.774,13.763-11.818c0.517-3.045,3.27-5.193,4.13-4.119
		c0.859,1.074-0.689,6.805,2.408,9.312c3.097,2.507,16.688,0.717,18.752-1.253s4.473-6.983,3.785-10.924
		c-0.688-3.939,2.923-6.445,4.3-6.089c1.378,0.358-0.001,4.657,3.957,6.805c3.958,2.149,19.441-0.178,21.161-3.223
		s2.924-5.909,0.859-8.237c-2.063-2.328-3.439-2.687-3.611-5.91c-0.173-3.224-0.345-6.09,1.72-5.909
		c2.063,0.179,4.645,0.717,7.054,3.044c2.408,2.327,16.171,2.866,20.988-0.896c4.816-3.76,9.975-2.146,9.631-6.803
		c-0.344-4.655-1.204-8.418,0.688-8.954c1.893-0.537,11.871,0.896,19.269-3.223s11.525-4.836,10.666-7.164
		c-0.86-2.327-1.377-6.445-0.517-7.162c0.861-0.717,1.894-0.536,4.817,0.538c2.925,1.073,18.925,1.612,19.784,0.716
		c0.86-0.896,2.236-5.373,2.236-6.626c0-1.254,0.517-3.581,2.237-4.119c1.719-0.537,23.048,7.163,26.833,5.016
		c3.785-2.149,0.859-6.805,1.032-8.059c0.172-1.253,2.408-1.791,3.784-1.075c1.377,0.716,5.506,5.193,8.774,7.343
		c3.27,2.148,9.978,2.149,11.526,1.97c1.549-0.179,12.899-4.298,13.416-5.551c0.517-1.254-0.344-5.015,2.409-5.373
		c2.752-0.356,6.709,8.598,6.537,9.135c-0.172,0.536-1.721,4.834-1.721,6.445s5.849,2.508,6.709,1.075
		c0.861-1.433,1.204-4.297,3.957-2.865c2.754,1.433,3.957,3.582,2.581,5.192c-1.377,1.611-4.303,7.698-5.679,8.773
		c-1.376,1.074-2.064,6.805-0.517,8.059s4.472,1.792,5.505,3.045c1.032,1.252,2.236,5.55,0.688,6.625
		c-1.549,1.075-7.988,1.251-9.155,2.506s-7.188,9.494-5.296,12c1.893,2.507,7.323,7.878,5.296,9.49s-6.501-2.328-9.77-3.581
		c-3.269-1.255-5.848-2.148-7.74-1.074s-0.861,1.611-2.237,3.043c-1.376,1.434-9.29,0.181-10.666,0.538s-3.784-0.895-4.816,1.791
		c-1.033,2.687,0.517,3.222-1.204,5.371c-1.722,2.15-1.549,3.226-3.957,2.866c-2.409-0.357-7.57-3.582-10.322-5.015
		c-2.753-1.432,1.566,13.999-10.846,15.744c-3.087,0.434-5.669-8.403-7.734-11.625c-2.065-3.223-4.765,9.686-5.453,9.686
		c-0.688,0-12.095-9.507-13.299-6.283c-1.205,3.224,0.345,5.908,1.032,8.954c0.688,3.044-0.124,8.04-15.14-0.358
		c-5.573-3.117-7.225,3.939-7.053,5.552c0.172,1.611,4.301,7.521,3.957,11.103c-0.345,3.582-5.333,7.162-9.807,8.237
		c-4.473,1.075-6.538,2.507-6.71,3.044c-0.172,0.538,0.864,16.292-2.577,19.515c-3.44,3.224-20.815,1.076-25.116,2.867
		c-4.302,1.79-6.534,4.831-5.675,12.711c0.86,7.88-7.57,10.746-12.387,11.104s-8.086-3.939-9.634-7.343
		c-1.549-3.401-1.376-8.237-4.301-8.058c-2.925,0.179-11.011,1.971-11.698,3.761c-0.688,1.79,0.171,9.133-1.033,10.564
		c-1.203,1.433-7.741,0.358-8.085-2.507s0.517-6.447-0.688-7.521c-1.204-1.074-3.957-5.552-5.161-0.895
		c-1.204,4.655,6.708,11.282,1.548,12.894s-12.902,4.298-13.763,4.835c-0.859,0.537-2.409-3.76,0-7.162s-0.172-7.343-0.172-7.343
		s-1.894-0.002-3.097-0.358c-1.203-0.358-16.682-0.001-18.574,0.715s-7.397,4.118-7.397,7.878c0,3.762-0.172,4.478-1.893,6.627
		c-1.721,2.148-6.021,3.938-6.537,0.896c-0.517-3.045-0.518-3.762-1.033-8.06c-0.515-4.297-3.956-6.805-5.677-6.805
		s-5.677,0.896-4.301,5.193c1.376,4.298,3.613,6.089,1.893,6.806c-1.721,0.716-2.064,6.269-4.129-1.074s-3.263-7.971-4.295-8.148
		c-1.033-0.18-1.555,0.271-2.242,1.343c-0.688,1.074,2.063,2.149-1.549,3.582c-3.612,1.432-4.645,2.865-4.988,0.716
		c-0.345-2.148,0.001-2.507-2.064-3.761s-4.473-2.506-7.226,1.074c-2.754,3.582-0.688,7.163-5.85,7.7
		c-5.161,0.538-7.571,2.329-7.398-2.148s-9.111-5.015-10.832-6.805s-2.409-9.134-9.463-0.716c-7.054,8.417-9.462,9.13-12.73,8.774
		s-6.193-5.91-6.193-5.91s-2.237,1.613-3.957,1.435c-1.72-0.181-2.409-0.359-1.376-2.33c1.032-1.969,2.924-0.356,3.269-4.297
		c0.345-3.939,4.473-4.299-0.688-6.626s-6.709-1.971-9.289-0.537c-2.581,1.432-2.064,4.834-5.85,2.687
		c-3.785-2.149-5.506-2.687-3.613-4.12c1.893-1.432,6.538-2.147,2.065-3.76c-4.474-1.611-9.636,2.687-9.291-0.536
		c0.345-3.225,3.441-7.881,2.237-8.775c-1.204-0.896-6.367,0.717-9.979-3.761c-3.612-4.478-2.063-8.595,0.86-10.924
		c2.924-2.328,8.257-3.402,5.505-7.164c-2.753-3.76-4.473-2.507-2.236-7.521s2.236-9.129,27.01-7.876
		c24.773,1.252,6.192-2.688,6.709-5.016c0.517-2.327,0.688-6.626,1.893-6.805s12.216,5.015,13.247,6.805
		c1.032,1.791,6.364,4.299,8.43,3.762c2.064-0.537,4.473-3.404,3.613-6.447c-0.86-3.044-2.581-6.805-2.064-7.521
		c0.516-0.717,2.235-3.045,4.128-0.717c1.893,2.329,5.85,6.449,6.538,8.417c0.688,1.97,7.055,4.657,9.462,3.582
		c2.408-1.075,2.925-6.269,4.129-8.597c1.204-2.327,1.376-5.909,5.333-4.655c3.957,1.253,7.227,2.687,7.57,5.91
		c0.343,3.223,4.987,7.343,8.429,7.163s14.28-6.269,13.936-9.134C794.118,698.78,795.833,693.41,795.833,693.41z"/>
	<g>
		<g>
			<path fill="#B5C8B4" d="M723.916,728.562c-4.148,2.155-9.064,5.77-9.313,10.848c-0.283,5.815,6.449,7.206,10.809,6.53
				c4.563-0.707,9.252-3.729,9.309-8.739c0.064-5.613-5.731-8.958-10.66-7.475c-1.107,0.333-0.966,0.905,0.152,0.568
				c4.678-1.408,8.213,3.357,8.576,7.424c0.488,5.459-6.035,8.211-10.516,7.552c-4.09-0.602-6.523-4.591-5.377-8.492
				c1.046-3.556,5-6.362,8.127-7.985C726.156,728.203,724.355,728.334,723.916,728.562L723.916,728.562z"/>
		</g>
	</g>
	<g>
		<g>
			<path fill="#B5C8B4" d="M726.662,735.729c-0.494,0.507-1.011,1.371-1.701,1.625c0.328,0.313,0.655,0.625,0.982,0.938
				c0.381-0.41,0.621-0.924,1-1.333c0.311-0.334,0.166-0.784-0.248-0.928c-0.469-0.163-1.035,0.009-1.365,0.365
				c-0.381,0.41-0.621,0.924-1,1.333c-0.606,0.653,0.411,1.147,0.982,0.938c1.291-0.476,2.034-1.424,2.965-2.375
				c0.32-0.328,0.156-0.787-0.249-0.929C727.551,735.196,727.005,735.379,726.662,735.729L726.662,735.729z"/>
		</g>
	</g>
	<g>
		<path fill="#B5C8B4" d="M747.137,727.01c0.333-0.333-2.999,2.666-2.333,4s2.333,3,4.333,2s4.667-3,3.667-4.333
			S747.137,727.01,747.137,727.01z"/>
		<g>
			<path fill="#B5C8B4" d="M747.94,727.277c0.008-0.008,0.016-0.017,0.023-0.025c0.8-0.862-0.89-1.099-1.438-0.688
				c-1.126,0.844-2.932,2.791-2.775,4.303c0.114,1.12,1.249,2.114,2.148,2.663c1.278,0.78,2.795,0.476,4.041-0.174
				c1.358-0.707,5.738-3.489,3.461-5.394c-1.515-1.267-4.022-1.49-5.924-1.634c-0.914-0.069-1.988,1.263-0.68,1.361
				c1.037,0.079,2.074,0.233,3.086,0.475c0.645,0.153,1.279,0.363,1.834,0.731c1.098,0.727-0.771,2.126-1.277,2.514
				c-0.987,0.757-2.168,1.565-3.392,0.819c-0.68-0.415-1.548-1.395-1.249-2.23c0.324-0.9,1.322-2.09,1.996-2.595
				c-0.479-0.229-0.959-0.458-1.438-0.688c-0.008,0.009-0.016,0.017-0.023,0.025C745.509,727.63,747.371,727.891,747.94,727.277z"/>
		</g>
	</g>
	<g>
		<g>
			<path fill="#B5C8B4" d="M755.369,738.635c-4.129,1.032-9.449,4.061-11.354,8.01c-1.926,3.991,3.535,4.771,6.098,4.493
				c3.736-0.404,7.844-2.259,10.336-5.109c3.014-3.444,0.129-6.491-3.196-8.098c-0.467-0.225-2.248,0.497-1.566,0.826
				c2.575,1.243,5.224,3.396,3.618,6.458c-1.403,2.676-4.949,4.196-7.715,4.866c-2.399,0.581-6.742,0.168-5.798-3.367
				c0.938-3.513,6.521-6.516,9.778-7.329C756.717,739.098,756.51,738.35,755.369,738.635L755.369,738.635z"/>
		</g>
	</g>
	<g>
		<g>
			<path fill="#B5C8B4" d="M754.226,745.494c-0.521-0.399-1.325-0.168-1.863,0.063c-0.634,0.271-1.196,0.751-1.686,1.227
				c-0.312,0.304-0.185,0.704,0.22,0.819c0.465,0.133,1.024-0.034,1.366-0.366c0.206-0.2,0.417-0.378,0.651-0.543
				c0.098-0.069,0.156-0.104,0.262-0.157c-0.105,0.053-0.369,0.062-0.462-0.011C753.309,746.981,755.053,746.128,754.226,745.494
				L754.226,745.494z"/>
		</g>
	</g>
	<g>
		<g>
			<path fill="#B5C8B4" d="M814.227,726.163c-4.583-2.376-8.672,2.98-10.243,6.649c-2.521,5.882,1.372,8.982,6.989,9.059
				c5.164,0.07,12.855-1.758,15.426-6.75c2.974-5.775-5.092-10.088-9.749-9.02c-1.194,0.274-0.87,1.421,0.309,1.15
				c5.387-1.237,10.871,5.833,5.971,9.891c-2.81,2.325-7.091,3.167-10.612,3.447c-13.737,1.095-4.023-15.691,0.396-13.399
				C813.367,727.529,815.11,726.622,814.227,726.163L814.227,726.163z"/>
		</g>
	</g>
	<g>
		<g>
			<path fill="#B5C8B4" d="M818.045,733.005c-0.523-0.668-1.412-0.525-2.145-0.346c-1.065,0.261-1.984,0.987-2.844,1.63
				c-0.291,0.219-0.263,0.446,0.127,0.475c0.439,0.032,1.01-0.099,1.367-0.365c0.406-0.306,0.814-0.606,1.241-0.885
				c0.07-0.042,0.141-0.083,0.211-0.125c0.251-0.106,0.198-0.119-0.159-0.036c0.168,0.029,0.291,0.209,0.385,0.33
				C816.537,734.076,818.379,733.433,818.045,733.005L818.045,733.005z"/>
		</g>
	</g>
	<g>
		<g>
			<path fill="#B5C8B4" d="M891.9,721.523c-5.928-3.118-13.327,1.479-15.187,7.399c-1.539,4.9,1.727,9.475,6.749,9.14
				c4.323-0.288,8.692-3.345,11.136-6.793c2.737-3.862,0.71-7.092-3.545-8.144c-0.657-0.163-2.284,0.826-1.168,1.102
				c8.859,2.19,0.808,10.308-3.858,12.15c-3.266,1.289-6.27,0.21-7.315-3.242c-1.91-6.307,5.366-13.951,11.661-10.64
				C890.968,722.809,892.735,721.963,891.9,721.523L891.9,721.523z"/>
		</g>
	</g>
	<g>
		<g>
			<path fill="#B5C8B4" d="M886.916,727.366c-0.413,0.411-0.842,0.822-1.359,1.098c0.489,0.063,0.979,0.127,1.468,0.19
				c0.321-0.327,0.615-0.684,0.913-1.032c0.205-0.24,0.713-0.668,0.77-1.001c0.026-0.156-0.044-0.219-0.18-0.281
				c-0.683-0.314-1.482,0.233-1.945,0.692c-0.334,0.331,0.284,0.457,0.492,0.452c0.459-0.012,0.953-0.17,1.283-0.497
				c0.008-0.008,0.202-0.192,0.063-0.065c0.136-0.124,0.229-0.088-0.318,0.156c-0.38,0.036-0.76,0.072-1.14,0.109
				c0.001,0,0.003,0.001,0.004,0.002c-0.06-0.094-0.12-0.188-0.18-0.281c0.004-0.023,0.09-0.131,0.013-0.023
				c-0.053,0.074-0.11,0.146-0.168,0.217c-0.153,0.191-0.312,0.378-0.471,0.565c-0.296,0.349-0.591,0.705-0.912,1.032
				c-0.234,0.238,0.062,0.414,0.28,0.442c0.399,0.052,0.836-0.064,1.188-0.252c0.753-0.4,1.375-0.971,1.975-1.568
				c0.333-0.332-0.284-0.457-0.492-0.452C887.74,726.881,887.245,727.038,886.916,727.366L886.916,727.366z"/>
		</g>
	</g>
	<g>
		<g>
			<path fill="#B5C8B4" d="M925.907,681.367c-3.497,0.19-9.045,2.759-9.397,6.708c-0.432,4.833,6.834,5.515,9.967,4.925
				c4.202-0.791,9.208-3.307,8.539-8.297c-0.679-5.065-8.541-3.717-11.622-2.531c-1.247,0.479-0.13,1.375,0.82,1.01
				c3.289-1.266,8.956-1.6,8.949,3.254c-0.005,3.493-4.629,5.028-7.387,5.419c-2.853,0.404-7.611-0.683-7.273-4.468
				c0.241-2.713,4.887-4.609,7.197-4.734C926.744,682.596,927.231,681.296,925.907,681.367L925.907,681.367z"/>
		</g>
	</g>
	<g>
		<g>
			<path fill="#B5C8B4" d="M928.77,685.085c-0.091-0.837-1.568-0.278-1.882,0.068c-0.345,0.381-0.577,0.9-1.038,1.159
				c0.504-0.013,1.007-0.025,1.511-0.038c-0.182-0.21-0.251,0.453-0.081,0.274c0.053-0.056,0.105-0.109,0.155-0.168
				c0.197-0.233,0.32-0.495,0.342-0.802c0.061-0.904-1.894-0.564-1.945,0.195c-0.029,0.435-0.723,0.758-0.252,1.305
				c0.371,0.432,1.107,0.188,1.511-0.038c0.362-0.204,0.654-0.514,0.914-0.833c0.135-0.165,0.261-0.337,0.388-0.508
				c0.056-0.075,0.216-0.172,0-0.044c-0.325,0.087-0.65,0.174-0.976,0.262c0.006,0,0.012,0,0.018,0
				c-0.178-0.074-0.356-0.149-0.535-0.224c-0.021-0.03-0.04-0.062-0.061-0.092C926.921,686.371,928.86,685.918,928.77,685.085
				L928.77,685.085z"/>
		</g>
	</g>
	<g>
		<g>
			<path fill="#B5C8B4" d="M988.229,653.172c-3.145-1.643-9.176,0.692-9.754,4.326c-0.598,3.761,3.441,5.173,6.377,4.604
				c2.642-0.511,6.076-2.18,7.247-4.776c1.658-3.678-5.049-3.394-6.85-3.257c-1.01,0.077-1.555,1.315-0.225,1.215
				c1.167-0.089,5.928-0.582,5.284,1.832c-0.468,1.759-2.979,3.032-4.529,3.557c-2.098,0.711-4.309,0.411-5.152-1.881
				c-0.668-1.816,0.319-3.326,1.942-4.128c1.074-0.53,2.99-1.083,4.142-0.482C987.347,654.514,989.098,653.626,988.229,653.172
				L988.229,653.172z"/>
		</g>
	</g>
	<g>
		<g>
			<path fill="#B5C8B4" d="M985.578,656.018c-0.411,0.411-0.846,0.813-1.36,1.088c0.516,0.034,1.031,0.068,1.548,0.103
				c0.036-0.508,0.225-0.035-0.691,0.149c0.175-0.035,0.351-0.052,0.524-0.098c0.353-0.092,0.686-0.231,0.969-0.464
				c0.304-0.249,0.231-0.543-0.161-0.604c-0.45-0.069-1.014,0.077-1.366,0.366c0.54-0.164,0.678-0.223,0.414-0.175
				c-0.058,0.008-0.114,0.018-0.17,0.03c-0.23,0.047-0.447,0.096-0.662,0.192c-0.387,0.173-0.748,0.423-0.78,0.874
				c-0.048,0.678,1.266,0.253,1.548,0.103c0.755-0.402,1.372-0.98,1.972-1.58c0.337-0.338-0.286-0.493-0.503-0.491
				C986.387,655.515,985.912,655.684,985.578,656.018L985.578,656.018z"/>
		</g>
	</g>
	<g>
		<g>
			<path fill="#B5C8B4" d="M1012.12,654.732c-3.754,1.589-7.897,4.535-9.685,8.291c-2.11,4.437,3.813,7.058,7.378,6.657
				c4.119-0.463,7.617-3.101,9.699-6.614c1.741-2.938,1.552-6.532-2.428-6.826c-0.469-0.035-2.238,0.799-1.23,0.873
				c3.232,0.239,3.189,3.12,2.137,5.503c-1.368,3.098-4.61,6.056-8.086,6.233c-4.014,0.204-7.167-3.313-5.121-6.974
				c1.592-2.849,5.073-5.336,8.035-6.589C1014.077,654.755,1012.895,654.404,1012.12,654.732L1012.12,654.732z"/>
		</g>
	</g>
	<g>
		<g>
			<path fill="#B5C8B4" d="M1011.512,661.828c-0.093,0.2-0.146,0.403-0.196,0.618c-0.015,0.062-0.032,0.164-0.067,0.216
				c-0.077,0.079-0.066,0.079,0.03,0c-0.05,0.027-0.104,0.048-0.161,0.061c0.369,0.121,0.737,0.243,1.105,0.365
				c0.15-0.116,0.299-0.233,0.466-0.326c-0.15,0.083-0.722,0.269-0.845,0.022c0.011,0.021-0.007,0.053,0.024,0.007
				c-0.049,0.054-0.045,0.053,0.011-0.001c0.208-0.122,0.428-0.199,0.66-0.229c-0.425,0.017-0.99,0.155-1.286,0.486
				c-0.302,0.337,0.259,0.422,0.481,0.412c0.592-0.023,1.151-0.195,1.65-0.513c0.195-0.125,0.507-0.449,0.376-0.71
				c-0.184-0.365-0.81-0.282-1.124-0.229c-0.718,0.122-1.352,0.483-1.92,0.924c-0.18,0.14-0.343,0.386-0.031,0.488
				c0.36,0.118,0.795,0,1.137-0.123c0.437-0.156,0.964-0.368,1.235-0.77c0.203-0.302,0.219-0.675,0.37-1.002
				c0.167-0.362-0.67-0.294-0.797-0.273C1012.272,661.309,1011.683,661.457,1011.512,661.828L1011.512,661.828z"/>
		</g>
	</g>
	<path fill="#B5C8B4" stroke="#B5C8B4" stroke-miterlimit="10" d="M942.137,667.01c-2.667,2-5.666,3.668-2.333,4.334
		s4-0.666,4.333-2S942.137,667.01,942.137,667.01z"/>
	<path fill="#B5C8B4" stroke="#B5C8B4" stroke-miterlimit="10" d="M961.47,664.677c-3,1.667-6.666,4.001-4.333,4.667
		s5.666,1.667,6.333,0S961.47,664.677,961.47,664.677z"/>
	<path fill="#B5C8B4" stroke="#B5C8B4" stroke-miterlimit="10" d="M980.47,672.677c-1.333,0.333-2.999,3.001-0.666,2.667
		s4-3.333,2.333-3S980.47,672.677,980.47,672.677z"/>
	<path fill="#B5C8B4" stroke="#B5C8B4" stroke-miterlimit="10" d="M889.804,702.677c-3.334,0.333-3,2.333-3,4s2.334,4,4,2
		s1.666-6,0.333-6S889.804,702.677,889.804,702.677z"/>
	<path fill="#B5C8B4" stroke="#B5C8B4" stroke-miterlimit="10" d="M914.47,712.344c2-2,4,0,2-2s-5-3.667-5-1.667
		S914.47,712.344,914.47,712.344z"/>
	<path fill="#B5C8B4" stroke="#B5C8B4" stroke-miterlimit="10" d="M857.804,728.344c-3,1-3.667,6.667-1.667,7s7,0.333,7-1.667
		S857.804,728.344,857.804,728.344z"/>
	<path fill="#B5C8B4" stroke="#B5C8B4" stroke-miterlimit="10" d="M784.47,736.01c-1.333,0.334-4.999,3.334-2.666,4.667s3,4,5.333,2
		s1.667-7,1.667-7L784.47,736.01z"/>
	<path fill="#B5C8B4" stroke="#B5C8B4" stroke-miterlimit="10" d="M736.804,750.677c-0.667-1-3-2.001-3.667-0.667
		s0.667,2.667,0.667,2.667L736.804,750.677z"/>
</g>
<g id="Ebene_2">
</g>
<g id="Ebene_3">
</g>
</svg>
