<?xml version="1.0" encoding="utf-8"?>
<!-- Generator: Adobe Illustrator 15.1.0, SVG Export Plug-In . SVG Version: 6.00 Build 0)  -->
<!DOCTYPE svg PUBLIC "-//W3C//DTD SVG 1.1//EN" "http://www.w3.org/Graphics/SVG/1.1/DTD/svg11.dtd">
<svg version="1.1" id="Ebene_1" xmlns="http://www.w3.org/2000/svg" xmlns:xlink="http://www.w3.org/1999/xlink" x="0px" y="0px"
	 width="112.238px" height="84.969px" viewBox="0 0 112.238 84.969" enable-background="new 0 0 112.238 84.969"
	 xml:space="preserve">
<g id="Ebene_3">
</g>
<g id="Ebene_1_1_">
	<g>
		<path fill="#096D52" d="M461.059,535.759c-7.063,16.188-15.302,43.555,0.591,54.734c7.063,5.003,39.435,11.186,48.558,11.771
			c18.54,1.474,32.371-0.295,42.082-16.772c4.12-6.771,10.594-20.602,8.24-28.251c-3.532-10.301-4.709-19.422-14.422-23.542
			c-19.425-7.944-40.903-14.42-62.096-11.185C484.013,522.516,466.355,524.575,461.059,535.759z"/>
	</g>
	<g>
		<path fill="#FFFFFF" d="M485.192,530.756c-5.888,0.883-11.186,2.354-16.479,5.592c-5.003,2.94-5.591,7.649-7.946,12.654
			c-9.711,21.773,1.179,41.491,23.836,45.905c13.242,2.647,30.019,1.474,43.261-0.884c9.417-1.473,25.896-14.713,25.604-26.188
			c-0.294-12.948-2.646-15.011-12.652-23.543c-11.061-9.437-26.776-15.893-41.196-13.537
			C499.613,530.756,489.312,530.462,485.192,530.756z"/>
	</g>
	<g>
		<path fill="#096D52" d="M479.669,542.2c-0.161,0.425-0.528,0.993-1.104,1.71c-0.962-0.8-1.585-1.198-1.872-1.198
			c-0.259,0-0.575,0.097-0.96,0.289c-1.023,0.574-1.683,1.474-1.971,2.688c-0.445,1.924-0.72,2.997-0.813,3.222
			c0,0.417,0.048,0.776,0.144,1.081c0.099,0.307,0.146,0.476,0.146,0.506c0,0.16-0.287,0.563-0.863,1.201l0.576,0.288v0.577
			c-0.448-0.063-0.736,0.03-0.864,0.288c0.416,0.833,0.624,1.36,0.624,1.587c0,0.128-0.018,0.257-0.048,0.385
			c-0.416,0.16-0.608,0.723-0.576,1.684c0,0.129,0,0.289,0,0.479c0,0.227-0.048,0.556-0.145,0.983
			c-0.099,0.435-0.146,0.763-0.146,0.984c0,0.32,0.082,0.627,0.247,0.912c-0.028,0.354-0.014,1.521,0.042,3.512
			c0,1.44-0.097,2.609-0.288,3.509c0.127,0.737,0.607,2.146,1.439,4.229c-0.099,0.128-0.146,0.271-0.146,0.435
			c0,0.288,0.24,0.705,0.721,1.25c0.479,0.545,0.753,0.913,0.815,1.104c-0.19,0.098-0.288,0.226-0.288,0.387
			c0,0.096,0.088,0.264,0.267,0.504c0.175,0.238,0.277,0.408,0.313,0.505c1.664-0.606,2.771-1.186,3.313-1.729
			c0.354-0.354,0.526-0.814,0.526-1.395c0-0.063,0-0.137,0-0.216s0-0.138,0-0.169c0-0.673,0.208-1.278,0.624-1.823
			c0.864,0.705,1.296,1.475,1.296,2.307c0,1.058-0.565,2.018-1.704,2.88c-1.136,0.863-2.216,1.296-3.237,1.296
			c-0.802-0.03-1.535-0.563-2.208-1.586c-0.932-1.409-1.504-2.193-1.729-2.354c-0.833-2.756-1.248-6.169-1.248-10.236
			c0-3.105,0.24-6.072,0.722-8.894c0.19-1.188,0.277-2.499,0.266-3.939c-0.021-1.439,0.229-2.771,0.743-3.989
			c0.353-0.896,1.041-2.083,2.063-3.56c0.736-0.479,1.552-0.721,2.448-0.721C477.876,541.175,478.836,541.516,479.669,542.2z"/>
		<path fill="#096D52" d="M489.556,571.127c-0.573,0.384-1.088,1.376-1.535,2.978c-0.385,1.345-1.266,2.176-2.641,2.494
			c-0.224,0.192-0.464,0.288-0.72,0.288c-0.228,0-0.544-0.08-0.96-0.237c-0.416-0.161-0.704-0.259-0.864-0.288
			c-0.992-0.735-1.488-1.745-1.488-3.022c0-0.288,0.032-0.735,0.099-1.346c0.063-0.605,0.097-1.07,0.097-1.395
			c0-0.384-0.065-0.733-0.192-1.056c0.545-0.514,0.698-1.159,0.467-1.944c-0.234-0.781-0.166-1.432,0.207-1.941
			c-0.063-0.19-0.098-0.384-0.098-0.574c0-0.771,0.496-1.714,1.488-2.832c0.991-0.288,2.111-0.386,3.358-0.288
			c0.989,1.15,1.646,2.304,1.97,3.456c0.446,0.353,0.672,0.752,0.672,1.198c0,0.226-0.072,0.554-0.216,0.981
			c-0.146,0.435-0.217,0.776-0.217,1.032c0,0.318,0.097,0.624,0.286,0.912c-0.189,0.063-0.286,0.225-0.286,0.479
			c0,0.189,0.017,0.384,0.049,0.573L489.556,571.127z M486.774,569.206c0.127-0.158,0.189-0.336,0.189-0.526
			c0-0.189-0.353-0.733-1.056-1.632c0.672-0.576,0.96-1.394,0.863-2.448c-0.575-0.641-1.328-0.896-2.259-0.77
			c-0.703,0.832-1.056,1.891-1.056,3.17c0,0.225,0.016,0.593,0.048,1.104c0.031,0.513,0.048,0.896,0.048,1.15
			c0,0.896-0.118,1.68-0.353,2.354c-0.054,0.159-0.079,0.319-0.079,0.479c0,0.19,0.048,0.456,0.144,0.792
			c0.1,0.336,0.146,0.584,0.146,0.744c0,0.224-0.097,0.432-0.288,0.622c0.127,0.13,0.264,0.258,0.408,0.386
			c0.144,0.128,0.199,0.256,0.168,0.384c0.928,0.16,1.664-0.096,2.208-0.77c0.03-0.128,0.16-0.494,0.384-1.104
			c0.16-0.479,0.24-0.861,0.24-1.149c0-0.128-0.021-0.256-0.048-0.384c0.024-0.319,0.112-0.625,0.262-0.912
			c0.146-0.288,0.218-0.496,0.218-0.624C486.965,569.848,486.901,569.559,486.774,569.206z"/>
		<path fill="#096D52" d="M502.661,571.321c0.063,0.189,0.096,0.367,0.096,0.525c0,0.288-0.15,0.683-0.456,1.178
			c-0.304,0.496-0.472,0.871-0.504,1.129c-0.896,0.256-1.664,0.384-2.304,0.384c-0.642,0-1.12-0.128-1.44-0.384
			c0-0.354-0.248-0.81-0.742-1.368c-0.497-0.562-0.715-1.048-0.646-1.464c0.223-0.063,0.336-0.16,0.336-0.288
			c0-0.099-0.058-0.238-0.168-0.435c-0.113-0.189-0.168-0.336-0.168-0.432c0-0.258,0.096-0.634,0.288-1.13
			c0.188-0.495,0.287-0.87,0.287-1.128c0-0.288-0.079-0.574-0.239-0.862c0-0.226,0-0.479,0-0.771c0-0.513-0.097-1.199-0.288-2.063
			c-0.19-1.058-0.305-1.729-0.336-2.018c-1.186,0.318-1.854,1.555-2.017,3.695c-0.099,1.185-0.479,2.513-1.151,3.981
			c0.063,0.226,0.096,0.479,0.096,0.771c0,0.286-0.056,0.742-0.168,1.366c-0.109,0.624-0.168,1.098-0.168,1.416
			c0,0.479,0.08,0.912,0.24,1.296c-0.032,0.032-0.187,0.2-0.456,0.506c-0.271,0.305-0.504,0.455-0.696,0.455
			c-0.096,0-0.176-0.03-0.237-0.097c-0.479-0.257-0.644-1.009-0.479-2.257c0.191-1.438,0.16-2.399-0.096-2.88
			c-0.032-0.318-0.021-0.911,0.048-1.775c0.063-1.021,0.096-1.773,0.096-2.256c0-2.593-0.72-4.098-2.16-4.514
			c0.032-0.575,0.608-1.229,1.729-1.969c0.768,0.288,1.149,0.896,1.149,1.822c0,0.129,0,0.307,0,0.528c0,0.225,0,0.384,0,0.479
			c0,0.735,0.177,1.313,0.527,1.729c0.127,0.031,0.24,0.049,0.336,0.049c0.16,0,0.319-0.11,0.479-0.336l0.337-0.576
			c-0.16-0.158-0.24-0.354-0.24-0.574c0-0.159,0.175-0.642,0.528-1.438c0.224-0.447,0.623-0.762,1.199-0.938
			c0.573-0.177,1.136-0.328,1.681-0.456c0.704,0.227,1.056,0.606,1.056,1.15c0,0.161-0.032,0.408-0.096,0.744
			c-0.064,0.336-0.097,0.584-0.097,0.742c0,0.448,0.176,0.802,0.525,1.058c0.032,0.257,0.112,0.814,0.24,1.683
			c0.127,0.702,0.191,1.266,0.191,1.682c0,0.896-0.239,1.68-0.723,2.352c0.354,1.697,0.931,2.643,1.729,2.832
			c0.03-0.063,0.176-0.432,0.432-1.104c0.16-0.416,0.4-0.722,0.72-0.911c0.129,0.189,0.416,0.306,0.864,0.337
			C502.244,570.823,502.532,571,502.661,571.321z"/>
		<path fill="#096D52" d="M513.46,571.321c0.063,0.189,0.096,0.367,0.096,0.525c0,0.288-0.148,0.683-0.456,1.178
			c-0.304,0.496-0.472,0.871-0.504,1.129c-0.896,0.256-1.664,0.384-2.304,0.384c-0.641,0-1.12-0.128-1.438-0.384
			c0-0.354-0.247-0.81-0.743-1.368c-0.496-0.562-0.713-1.048-0.647-1.464c0.225-0.063,0.336-0.16,0.336-0.288
			c0-0.099-0.058-0.238-0.168-0.435c-0.113-0.189-0.168-0.336-0.168-0.432c0-0.258,0.096-0.634,0.288-1.13
			c0.191-0.495,0.288-0.87,0.288-1.128c0-0.288-0.08-0.574-0.24-0.862c0-0.226,0-0.479,0-0.771c0-0.513-0.096-1.199-0.288-2.063
			c-0.189-1.058-0.305-1.729-0.336-2.018c-1.186,0.318-1.854,1.555-2.016,3.695c-0.099,1.185-0.48,2.513-1.152,3.981
			c0.063,0.226,0.099,0.479,0.099,0.771c0,0.286-0.059,0.742-0.17,1.366c-0.11,0.624-0.169,1.098-0.169,1.416
			c0,0.479,0.08,0.912,0.24,1.296c-0.032,0.032-0.186,0.2-0.456,0.506c-0.271,0.305-0.504,0.455-0.693,0.455
			c-0.099,0-0.179-0.03-0.239-0.097c-0.48-0.257-0.645-1.009-0.48-2.257c0.192-1.438,0.16-2.399-0.096-2.88
			c-0.032-0.318-0.019-0.911,0.048-1.775c0.063-1.021,0.096-1.773,0.096-2.256c0-2.593-0.72-4.098-2.157-4.514
			c0.029-0.575,0.605-1.229,1.729-1.969c0.769,0.288,1.151,0.896,1.151,1.822c0,0.129,0,0.307,0,0.528c0,0.225,0,0.384,0,0.479
			c0,0.735,0.176,1.313,0.525,1.729c0.127,0.031,0.24,0.049,0.336,0.049c0.16,0,0.319-0.11,0.48-0.336l0.336-0.576
			c-0.16-0.158-0.24-0.354-0.24-0.574c0-0.159,0.177-0.642,0.528-1.438c0.224-0.447,0.624-0.762,1.199-0.938
			c0.576-0.177,1.136-0.328,1.681-0.456c0.704,0.227,1.057,0.606,1.057,1.15c0,0.161-0.03,0.408-0.097,0.744
			c-0.063,0.336-0.096,0.584-0.096,0.742c0,0.448,0.175,0.802,0.524,1.058c0.032,0.257,0.112,0.814,0.24,1.683
			c0.127,0.702,0.192,1.266,0.192,1.682c0,0.896-0.24,1.68-0.722,2.352c0.354,1.697,0.929,2.643,1.729,2.832
			c0.031-0.063,0.176-0.432,0.432-1.104c0.16-0.416,0.4-0.722,0.723-0.911c0.127,0.189,0.416,0.306,0.861,0.337
			C513.044,570.823,513.332,571,513.46,571.321z"/>
		<path fill="#096D52" d="M523.01,571.175c0.354,0.161,0.528,0.416,0.528,0.771c0,0.734-0.672,1.562-2.018,2.474
			c-1.347,0.91-2.675,1.366-3.982,1.366c-1.024,0-1.823-0.318-2.399-0.96c0.031-0.288-0.096-0.643-0.384-1.059
			c-0.288-0.415-0.438-0.729-0.456-0.938c-0.017-0.208-0.149-0.901-0.408-2.088c-0.157-0.862-0.206-1.565-0.144-2.11
			c0.032-0.19-0.063-0.386-0.288-0.576c0.223-0.098,0.318-0.366,0.288-0.813c-0.097-0.099-0.145-0.208-0.145-0.336
			c0-0.16,0.157-0.448,0.479-0.864c0.318-0.414,0.479-0.769,0.479-1.057c0.03-1.248,0.05-2.513,0.05-3.792
			c0.189-1.473,0.732-2.544,1.633-3.218c1.149,0.032,2.287,0.688,3.408,1.97c-0.1,0.416,0.016,1.057,0.336,1.921
			c0.315,0.861,0.479,1.485,0.479,1.871c0,1.057-0.513,1.584-1.537,1.584c-0.224,0-0.632-0.063-1.224-0.191
			c-0.593-0.127-1.032-0.157-1.319-0.096c-0.416,0.063-0.732,0.336-0.961,0.813c-0.544,1.022-0.544,2.238,0,3.646
			c-0.188,0.063-0.287,0.227-0.287,0.479c0,0.447,0,0.654,0,0.624c0.387,0.161,0.576,0.479,0.576,0.96
			c0,0.288-0.097,0.527-0.289,0.722c0.802,1.536,1.568,2.305,2.309,2.305c0.352,0,0.7-0.11,1.056-0.336
			c0.448-0.063,1.104-0.526,1.968-1.393c-0.029-0.16-0.144-0.386-0.336-0.674c-0.188-0.286-0.287-0.525-0.287-0.722
			c0-0.574,0.354-0.862,1.06-0.862C521.635,570.599,522.243,570.791,523.01,571.175z M518.212,563.303
			c-0.097-0.672-0.209-1.344-0.336-2.018c-0.161-0.832-0.609-1.186-1.345-1.057c0.063,0.063,0.097,0.146,0.097,0.238
			c0,0.098-0.063,0.238-0.193,0.434c-0.127,0.19-0.188,0.319-0.188,0.385c0,0.128,0.096,0.239,0.288,0.336
			c-0.192,0.063-0.288,0.227-0.288,0.479v0.622c0.16,0.386,0.446,0.576,0.863,0.576
			C517.491,563.303,517.859,563.303,518.212,563.303z"/>
		<path fill="#096D52" d="M531.312,574.366c-0.224,0.562-0.72,1.178-1.483,1.85c-1.121,0.96-1.729,1.521-1.824,1.682
			c-2.784-0.896-4.24-2.603-4.368-5.122c0.159-0.128,0.239-0.271,0.239-0.434c0-0.158-0.097-0.374-0.287-0.646
			c-0.189-0.271-0.305-0.455-0.336-0.552c0.606-0.988,0.912-2.396,0.912-4.214c0-0.189,0-0.485,0-0.886c0-0.398,0-0.71,0-0.936
			c0-2.647,0.959-4.452,2.879-5.41c0.129,0,0.344-0.057,0.647-0.167c0.306-0.11,0.521-0.168,0.646-0.168
			c0.287,0,0.512,0.175,0.672,0.521l-0.288,0.286c0.515,0.188,0.991,0.634,1.44,1.331c0.446,0.695,0.672,1.347,0.672,1.946
			c0,0.316-0.063,0.587-0.192,0.811c-0.384,0.03-0.752,0.049-1.104,0.049c-0.447,0-0.752-0.175-0.912-0.521
			c0.192-0.126,0.28-0.399,0.265-0.824c-0.017-0.427,0.06-0.7,0.219-0.826c-0.229-0.535-0.505-0.804-0.827-0.804
			c-0.193,0-0.521,0.149-0.976,0.452c-0.454,0.306-0.795,0.474-1.021,0.503c-0.521,0.513-0.778,1.183-0.778,2.012
			c0,0.353,0.072,0.908,0.216,1.675c0.146,0.768,0.218,1.342,0.218,1.725c0,0.511-0.098,0.957-0.286,1.339
			c-0.516,0.099-0.771,0.318-0.771,0.67c0,0.13,0.063,0.367,0.192,0.72c0.127,0.353,0.188,0.622,0.188,0.813
			c0,0.255-0.096,0.463-0.287,0.622l0.287,0.285l-0.237,0.287c0.353,0.128,0.561,0.479,0.625,1.055
			c0.063,0.731,0.176,1.193,0.336,1.388c0.188,0.286,0.396,0.639,0.623,1.054c0.128,0.189,0.237,0.287,0.336,0.287
			c0.129,0,0.496-0.098,1.104-0.288c0.098-0.16,0.36-0.398,0.792-0.722c0.434-0.318,0.648-0.606,0.648-0.862
			c0-0.128-0.05-0.288-0.146-0.479c-0.256-0.479-0.384-0.771-0.384-0.864c-0.032-0.128,0.063-0.464,0.288-1.008l0.19-0.385
			c0.128-0.354,0.256-0.527,0.386-0.527c0.063,0,0.239,0.139,0.524,0.408c0.288,0.271,0.575,0.376,0.863,0.313
			c0.288,0.16,0.436,0.497,0.436,1.008C531.652,573.286,531.538,573.807,531.312,574.366z"/>
		<path fill="#096D52" d="M539.955,570.599c0.479,0.417,0.721,0.896,0.721,1.438c0,0.416-0.336,1.248-1.009,2.496
			c-0.513,0.96-1.313,1.438-2.396,1.438c-0.416,0-1.104-0.111-2.063-0.336c-0.771-0.896-1.216-2.146-1.345-3.742
			c0-0.098-0.02-1.456-0.049-4.08c0.225-0.225,0.317-0.416,0.286-0.575c-0.188-0.063-0.286-0.16-0.286-0.288
			c0-0.03,0.178-0.305,0.525-0.814c-0.03-0.159-0.048-0.336-0.048-0.526c0-0.225,0.057-0.561,0.168-1.01
			c0.112-0.446,0.168-0.77,0.168-0.96c0-0.318-0.096-0.605-0.288-0.862c-0.188,0-0.473,0.07-0.84,0.217
			c-0.368,0.146-0.633,0.216-0.792,0.216c-0.354,0-0.641-0.238-0.864-0.72c0.033-0.479-0.063-0.771-0.286-0.864
			c0.099-0.701,0.762-1.109,1.991-1.225c1.23-0.111,1.851-0.393,1.851-0.842c0-0.317-0.159-0.751-0.479-1.296
			c0.19-0.063,0.288-0.226,0.288-0.479c0-0.448,0-0.655,0-0.624c-0.032-0.16-0.032-0.641,0-1.438
			c0.032-0.606-0.063-1.07-0.288-1.394c-0.416,0.191-0.978,0.575-1.68,1.151c-0.229-0.288-0.336-0.593-0.336-0.912
			c0-0.288,0.107-0.615,0.336-0.983c0.223-0.365,0.315-0.583,0.286-0.646l-0.286-0.287c0.352-0.386,0.799-0.575,1.344-0.575
			c0.544,0,1.023,0.189,1.439,0.575c0.414,0.385,0.604,0.862,0.573,1.438c0.031,0.99,0.05,2,0.05,3.021
			c0,1.248-0.209,2.191-0.623,2.832c0.188,0.031,0.484,0.137,0.889,0.313c0.396,0.178,0.695,0.267,0.888,0.267
			c0.32,0,0.576-0.191,0.771-0.576c0.479-0.031,0.761,0.058,0.842,0.265c0.078,0.209,0.119,0.396,0.119,0.554
			c0,0.545-0.448,1.04-1.345,1.486c-1.121,0.546-1.744,0.896-1.873,1.058c-0.189,0.896-0.385,1.793-0.575,2.688
			c-0.227,1.058-0.335,1.938-0.335,2.642c0,0.77,0.128,1.521,0.385,2.256c-0.032,0.448,0.048,0.736,0.239,0.864
			c0,0.446-0.021,0.896-0.05,1.344c0.029,0.545,0.238,0.929,0.625,1.15c0.861,0.098,1.375-0.209,1.533-0.91
			c0.064-0.643,0.16-1.288,0.288-1.943C538.547,570.737,539.058,570.472,539.955,570.599z"/>
	</g>
</g>
<g id="Ebene_2">
	<g>
		<g>
			<path fill="#1DAC84" d="M507.461,596.453c-0.04,2.346-0.493,4.631,0.013,6.954c0.195,0.897,2.132,0.396,1.936-0.52
				c-0.479-2.195-0.024-4.368,0.013-6.583C509.434,595.291,507.475,595.58,507.461,596.453L507.461,596.453z"/>
		</g>
	</g>
	<g>
		<g>
			<path fill="#1DAC84" d="M512.478,598.113c0.688,2.166,0.978,4.418,2.41,6.263c0.313,0.398,2.156-0.241,1.814-0.684
				c-1.379-1.771-1.637-4.021-2.295-6.099C514.248,597.088,512.328,597.641,512.478,598.113L512.478,598.113z"/>
		</g>
	</g>
	<g>
		<g>
			<path fill="#1DAC84" d="M516.973,597.106c1.414,1.742,2.977,3.354,4.12,5.298c0.451,0.768,2.289,0.025,1.769-0.857
				c-1.146-1.944-2.704-3.556-4.119-5.298C518.174,595.549,516.34,596.323,516.973,597.106L516.973,597.106z"/>
		</g>
	</g>
	<g>
		<g>
			<path fill="#1DAC84" d="M522.265,595.615c1.245,1.93,2.091,4.085,3.531,5.888c0.513,0.64,2.359-0.098,1.775-0.824
				c-1.443-1.802-2.286-3.959-3.531-5.886C523.603,594.113,521.747,594.814,522.265,595.615L522.265,595.615z"/>
		</g>
	</g>
	<g>
		<g>
			<path fill="#1DAC84" d="M503.113,595.721c-0.722,1.121-1.196,2.414-1.531,3.698c-0.219,0.838,1.748,0.571,1.945-0.188
				c0.308-1.18,0.752-2.339,1.41-3.365c0.263-0.403-0.222-0.682-0.562-0.706C503.909,595.12,503.373,595.315,503.113,595.721
				L503.113,595.721z"/>
		</g>
	</g>
	<g>
		<g>
			<path fill="#1DAC84" d="M494.885,596.069c-1.222,1.811-2.624,3.451-4.289,4.864c-0.312,0.268-0.21,0.602,0.186,0.68
				c0.459,0.094,1.012-0.063,1.364-0.365c1.756-1.489,3.25-3.233,4.537-5.142C497.181,595.368,495.238,595.55,494.885,596.069
				L494.885,596.069z"/>
		</g>
	</g>
	<g>
		<g>
			<path fill="#1DAC84" d="M486.911,595.366c-0.577,1.369-1.49,2.569-2.665,3.48c-0.337,0.264-0.485,0.766-0.089,1.054
				c0.398,0.294,1.017,0.188,1.389-0.104c1.4-1.087,2.534-2.535,3.222-4.17C489.211,594.575,487.263,594.53,486.911,595.366
				L486.911,595.366z"/>
		</g>
	</g>
	<g>
		<g>
			<path fill="#1DAC84" d="M481.766,593.916c-2.092,0.64-3.693,2.549-5.465,3.757c-0.354,0.244-0.47,0.772-0.09,1.05
				c0.419,0.308,0.996,0.166,1.389-0.104c0.861-0.589,1.667-1.251,2.479-1.901c0.605-0.488,1.3-1.169,2.062-1.401
				C483.323,594.952,482.96,593.551,481.766,593.916L481.766,593.916z"/>
		</g>
	</g>
	<g>
		<g>
			<path fill="#1DAC84" d="M474.416,591.954c-2.043,0.083-3.898,1.366-5.316,2.747c-0.305,0.297-0.194,0.674,0.209,0.779
				c0.457,0.119,1.029-0.037,1.366-0.365c0.942-0.917,2.145-1.901,3.513-1.96C475.203,593.115,475.745,591.901,474.416,591.954
				L474.416,591.954z"/>
		</g>
	</g>
	<g>
		<g>
			<path fill="#1DAC84" d="M463.075,585.077c-1.506,1.177-3.204,2.063-4.709,3.237c-1.036,0.811,0.539,1.396,1.267,0.825
				c1.505-1.173,3.204-2.063,4.709-3.234C465.378,585.098,463.802,584.511,463.075,585.077L463.075,585.077z"/>
		</g>
	</g>
	<g>
		<g>
			<path fill="#1DAC84" d="M459.823,580.317c-1.677,1.104-3.424,2.084-5.425,2.424c-1.234,0.208-0.829,1.59,0.371,1.389
				c2.336-0.396,4.396-1.587,6.35-2.874c0.356-0.236,0.469-0.771,0.092-1.041C460.788,579.906,460.22,580.054,459.823,580.317
				L459.823,580.317z"/>
		</g>
	</g>
	<g>
		<g>
			<path fill="#1DAC84" d="M456.603,575.086c-1.416,0.818-2.989,1.326-4.535,1.844c-1.149,0.386-0.844,1.625,0.328,1.232
				c1.888-0.63,3.742-1.273,5.47-2.273c0.341-0.195,0.5-0.692,0.12-0.938C457.552,574.678,457.004,574.854,456.603,575.086
				L456.603,575.086z"/>
		</g>
	</g>
	<g>
		<g>
			<path fill="#1DAC84" d="M455.448,568.403c-1.334-0.309-2.687-0.337-4.048-0.337c-0.461-0.001-1.023,0.122-1.265,0.57
				c-0.212,0.396,0.184,0.733,0.569,0.733c1.199,0.001,2.429-0.021,3.604,0.254c0.476,0.105,1.024,0,1.366-0.366
				C455.958,568.955,455.884,568.502,455.448,568.403L455.448,568.403z"/>
		</g>
	</g>
	<g>
		<g>
			<path fill="#1DAC84" d="M456.637,561.387c-1.152-0.312-2.11-0.991-3.057-1.696c-0.56-0.417-2.325,0.396-1.522,0.989
				c1.063,0.791,2.129,1.489,3.417,1.834c0.45,0.121,1.035-0.043,1.366-0.364C457.146,561.851,457.042,561.493,456.637,561.387
				L456.637,561.387z"/>
		</g>
	</g>
	<g>
		<g>
			<path fill="#1DAC84" d="M459.377,553.45c-0.941-1.529-2.196-2.773-3.588-3.898c-0.421-0.34-2.132,0.414-1.818,0.668
				c1.345,1.084,2.565,2.271,3.478,3.75C457.75,554.464,459.548,553.73,459.377,553.45L459.377,553.45z"/>
		</g>
	</g>
	<g>
		<g>
			<path fill="#1DAC84" d="M463.497,545.506c-1.272-2.797-2.849-5.442-4.12-8.24c-0.351-0.771-2.253-0.188-1.933,0.52
				c1.271,2.797,2.849,5.441,4.12,8.239C461.916,546.794,463.82,546.214,463.497,545.506L463.497,545.506z"/>
		</g>
	</g>
	<g>
		<g>
			<path fill="#1DAC84" d="M465.262,536.972c0-1.373,0.016-2.772-0.294-4.12c-0.147-0.648-2.086-0.152-1.932,0.52
				c0.309,1.348,0.294,2.747,0.294,4.12C463.331,538.066,465.262,537.705,465.262,536.972L465.262,536.972z"/>
		</g>
	</g>
	<g>
		<g>
			<path fill="#1DAC84" d="M464.117,529.756c2.447,1.046,3.313,4.111,4.511,6.262c0.367,0.66,2.23,0.021,1.932-0.518
				c-1.301-2.341-2.234-5.547-4.904-6.688C465.072,528.567,463.306,529.407,464.117,529.756L464.117,529.756z"/>
		</g>
	</g>
	<g>
		<g>
			<path fill="#1DAC84" d="M471.86,526.442c0.044,1.863,0.563,3.633,0.89,5.456c0.137,0.771,2.075,0.288,1.932-0.519
				c-0.304-1.708-0.837-3.395-0.877-5.14C473.782,525.331,471.843,525.711,471.86,526.442L471.86,526.442z"/>
		</g>
	</g>
	<g>
		<g>
			<path fill="#1DAC84" d="M479.291,524.365c0.289,0.396,0.278,1.226,0.336,1.687c0.121,0.963,0.176,1.938,0.186,2.904
				c0.005,0.6,1.938,0.229,1.934-0.519c-0.007-0.973-0.073-1.939-0.188-2.905c-0.065-0.604-0.096-1.408-0.473-1.921
				C480.7,523.085,478.833,523.74,479.291,524.365L479.291,524.365z"/>
		</g>
	</g>
	<g>
		<g>
			<path fill="#1DAC84" d="M484.521,523.657c0.952,1.78,0.563,3.979,0.295,5.888c-0.022,0.166,1.854,0.033,1.933-0.52
				c0.269-1.909,0.661-4.104-0.294-5.888C486.216,522.701,484.391,523.42,484.521,523.657L484.521,523.657z"/>
		</g>
	</g>
	<g>
		<g>
			<path fill="#1DAC84" d="M490.699,524.835c0.247,0.677-0.012,1.637-0.104,2.323c-0.138,1.034-0.32,2.063-0.496,3.094
				c-0.153,0.928,1.814,0.646,1.951-0.168c0.189-1.128,0.383-2.25,0.534-3.383c0.095-0.717,0.303-1.682,0.045-2.387
				C492.326,523.485,490.406,524.031,490.699,524.835L490.699,524.835z"/>
		</g>
	</g>
	<g>
		<g>
			<path fill="#1DAC84" d="M499.738,522.99c-0.746,2.313-1.697,4.558-2.188,6.941c-0.153,0.747,1.796,0.431,1.936-0.236
				c0.485-2.39,1.438-4.633,2.187-6.942C501.889,522.069,499.949,522.331,499.738,522.99L499.738,522.99z"/>
		</g>
	</g>
	<g>
		<g>
			<path fill="#1DAC84" d="M508.437,524.317c-1.226,1.528-2.409,3.074-3.312,4.823c-0.208,0.401,1.641,0.232,1.916-0.301
				c0.856-1.667,1.997-3.135,3.164-4.594C510.664,523.678,508.762,523.909,508.437,524.317L508.437,524.317z"/>
		</g>
	</g>
	<g>
		<g>
			<path fill="#1DAC84" d="M519.877,525.655c-1.134,0.649-2.304,1.466-3.113,2.501c-0.744,0.952,1.102,1.132,1.599,0.493
				c0.726-0.928,1.763-1.625,2.771-2.205c0.337-0.193,0.505-0.688,0.124-0.927C520.824,525.246,520.279,525.424,519.877,525.655
				L519.877,525.655z"/>
		</g>
	</g>
	<g>
		<g>
			<path fill="#1DAC84" d="M527.615,529.411c0.067-0.043,0.144-0.085,0.214-0.13c0.782-0.491,0.097-1.106-0.544-1.106
				c-0.979,0.002-2.303,1.188-3.084,1.648c-1.445,0.854-2.895,1.707-4.331,2.569c-0.351,0.207-0.489,0.719-0.111,0.97
				c0.433,0.284,0.982,0.114,1.383-0.125c1.227-0.73,2.45-1.457,3.681-2.186c0.606-0.358,1.221-0.722,1.83-1.08
				c0.227-0.133,0.448-0.267,0.678-0.396c0.39-0.229,0.313-0.028-0.228-0.027c-0.182-0.369-0.359-0.739-0.545-1.106
				c-0.066,0.044-0.143,0.087-0.214,0.13c-0.348,0.209-0.488,0.718-0.107,0.97C526.661,529.823,527.214,529.654,527.615,529.411
				L527.615,529.411z"/>
		</g>
	</g>
	<g>
		<g>
			<path fill="#1DAC84" d="M538.264,531.288c-1.725,0.121-3.347,1.169-4.794,2.023c-1.948,1.153-3.804,2.496-5.521,3.973
				c-0.893,0.764,1.015,0.976,1.592,0.479c1.354-1.163,2.834-2.188,4.334-3.153c1.17-0.757,2.743-1.931,4.187-2.03
				C539.1,532.505,539.59,531.197,538.264,531.288L538.264,531.288z"/>
		</g>
	</g>
	<g>
		<g>
			<path fill="#1DAC84" d="M546.464,536.61c-1.397-0.196-2.991,0.6-4.248,1.104c-1.903,0.771-3.766,1.681-5.557,2.688
				c-1.142,0.64,0.524,1.119,1.237,0.721c1.271-0.715,2.598-1.337,3.928-1.936c1.044-0.471,2.741-1.502,3.927-1.336
				C546.594,537.971,547.763,536.791,546.464,536.61L546.464,536.61z"/>
		</g>
	</g>
	<g>
		<g>
			<path fill="#1DAC84" d="M553.005,540.733c-1.801,0.605-3.551,1.311-5.254,2.149c-1.188,0.588-0.118,1.522,0.832,1.056
				c1.544-0.765,3.121-1.421,4.752-1.97C554.484,541.581,554.177,540.338,553.005,540.733L553.005,540.733z"/>
		</g>
	</g>
	<g>
		<g>
			<path fill="#1DAC84" d="M552.766,545.285c-2.438,1.322-5.176,1.932-7.57,3.354c-1.124,0.671,0.53,1.141,1.235,0.72
				c2.248-1.339,4.853-1.875,7.146-3.117C554.738,545.613,553.672,544.796,552.766,545.285L552.766,545.285z"/>
		</g>
	</g>
	<g>
		<g>
			<path fill="#1DAC84" d="M555.702,552.909c-1.997,0.811-4.133,1.065-6.256,1.334c-1.021,0.129-1.528,1.453-0.204,1.287
				c2.484-0.313,4.943-0.664,7.281-1.607C557.761,553.421,556.654,552.528,555.702,552.909L555.702,552.909z"/>
		</g>
	</g>
	<g>
		<g>
			<path fill="#1DAC84" d="M558.566,557.641c-2.358,0.021-4.698,0.336-6.979,0.958c-1.144,0.313-0.926,1.131,0.219,0.814
				c1.954-0.532,3.947-0.788,5.976-0.809C558.415,558.601,559.865,557.629,558.566,557.641L558.566,557.641z"/>
		</g>
	</g>
	<g>
		<g>
			<path fill="#1DAC84" d="M560.047,562.09c-3.252,0.001-6.472,0.089-9.624,0.964c-1.133,0.313-0.938,1.053,0.197,0.734
				c2.817-0.78,5.718-0.802,8.622-0.804C559.834,562.988,561.341,562.089,560.047,562.09L560.047,562.09z"/>
		</g>
	</g>
	<g>
		<g>
			<path fill="#1DAC84" d="M554.301,569.1c0.005,0,0.013,0,0.02,0.001c-0.209-0.14-0.417-0.277-0.625-0.418c0,0,0,0.001,0,0.003
				c0.267-0.298,0.528-0.595,0.798-0.894c0.505-0.113-0.198,0.015-0.332,0.028c-0.408,0.049-0.816,0.102-1.229,0.154
				c-0.745,0.104-1.547,0.186-2.239,0.492c-0.332,0.146-0.762,0.582-0.47,0.959c0.298,0.384,0.929,0.292,1.311,0.123
				c0.091-0.04,0.074-0.033-0.046,0.017c0.063-0.021,0.128-0.033,0.188-0.05c0.115-0.027,0.233-0.057,0.353-0.074
				c0.386-0.064,0.771-0.116,1.157-0.168c0.545-0.07,1.106-0.098,1.646-0.22c0.416-0.095,0.854-0.429,0.796-0.893
				c0-0.001,0-0.002,0-0.002c-0.032-0.263-0.405-0.407-0.625-0.418c-0.005,0-0.011,0-0.018-0.001
				c-0.464-0.021-1.032,0.131-1.264,0.581C553.513,568.74,553.904,569.081,554.301,569.1L554.301,569.1z"/>
		</g>
	</g>
	<g>
		<g>
			<path fill="#1DAC84" d="M557.978,572.948c-1.963,0-3.925,0-5.887,0c-0.629,0-2.088,0.955-0.789,0.955c1.962,0,3.924,0,5.889,0
				C557.819,573.906,559.279,572.948,557.978,572.948L557.978,572.948z"/>
		</g>
	</g>
	<g>
		<g>
			<path fill="#1DAC84" d="M556.613,580.406c-3.485-0.916-6.814-2.318-10.303-3.234c-0.449-0.119-2.15,0.604-1.587,0.754
				c3.485,0.917,6.814,2.32,10.304,3.236C555.478,581.281,557.178,580.556,556.613,580.406L556.613,580.406z"/>
		</g>
	</g>
	<g>
		<g>
			<path fill="#1DAC84" d="M550.329,582.668c-2.586,0.232-5.188-1.121-7.733-1.465c-0.511-0.066-2.258,0.784-1.217,0.926
				c2.707,0.361,5.387,1.73,8.157,1.479c0.436-0.038,0.979-0.14,1.283-0.494C551.103,582.776,550.578,582.645,550.329,582.668
				L550.329,582.668z"/>
		</g>
	</g>
	<g>
		<g>
			<path fill="#1DAC84" d="M545.434,587.372c-0.139,0.31,0.017,0.288,0.456-0.06c-0.116-0.021-0.23-0.054-0.349-0.088
				c-0.319-0.085-0.626-0.242-0.925-0.382c-0.633-0.292-1.242-0.634-1.863-0.947c-0.581-0.294-2.354,0.538-1.533,0.952
				c1.139,0.574,2.271,1.289,3.532,1.545c1.021,0.204,2.313-0.166,2.615-1.255C547.572,586.42,545.623,586.7,545.434,587.372
				L545.434,587.372z"/>
		</g>
	</g>
	<g>
		<g>
			<path fill="#1DAC84" d="M546.715,591.795c-3.43-0.601-7.013-0.888-10.004-2.833c-0.521-0.34-2.226,0.438-1.808,0.713
				c3.188,2.072,6.938,2.415,10.597,3.052C546.021,592.819,547.761,591.976,546.715,591.795L546.715,591.795z"/>
		</g>
	</g>
	<g>
		<g>
			<path fill="#1DAC84" d="M538.868,596.088c-1.571,0.066-3.193-1.623-4.238-2.584c-1.099-1.014-2.104-2.119-3.227-3.105
				c-0.558-0.487-2.37,0.271-1.785,0.784c2.548,2.246,5.221,6.246,9.014,6.081C539.635,597.22,540.197,596.031,538.868,596.088
				L538.868,596.088z"/>
		</g>
	</g>
	<g>
		<g>
			<path fill="#1DAC84" d="M533.432,599.596c-2.397-0.646-4.226-2.146-5.563-4.214c-0.438-0.672-2.292,0.023-1.777,0.818
				c1.475,2.271,3.579,3.909,6.206,4.616C533.056,601.023,534.584,599.906,533.432,599.596L533.432,599.596z"/>
		</g>
	</g>
</g>
<g id="Ebene_3_1_">
</g>
<g>
	<path fill="#086E52" d="M11.13,15.792c-7.062,16.186-15.302,43.554,0.59,54.736c7.063,5.003,39.434,11.185,48.557,11.771
		c18.54,1.472,32.371-0.295,42.082-16.774c4.12-6.769,10.594-20.6,8.24-28.251c-3.532-10.3-4.709-19.422-14.42-23.542
		C76.755,5.786,55.273-0.687,34.084,2.55C34.084,2.55,16.427,4.61,11.13,15.792z"/>
</g>
<g>
	<path fill="#FFFFFF" d="M35.262,10.789c-5.886,0.883-11.184,2.354-16.479,5.592c-5.003,2.941-5.591,7.65-7.946,12.654
		c-9.711,21.775,1.178,41.492,23.837,45.906c13.242,2.649,30.016,1.473,43.259-0.883c9.417-1.472,25.896-14.713,25.603-26.189
		c-0.294-12.948-2.647-15.01-12.653-23.543c-11.06-9.435-26.778-15.892-41.198-13.537C49.682,10.789,39.382,10.495,35.262,10.789z"
		/>
</g>
<g enable-background="new    ">
	<path fill="#086E52" d="M29.74,22.235c-0.161,0.424-0.528,0.993-1.104,1.71c-0.96-0.8-1.584-1.2-1.872-1.2
		c-0.256,0-0.576,0.097-0.96,0.289c-1.024,0.576-1.68,1.474-1.968,2.691c-0.448,1.923-0.72,2.997-0.816,3.221
		c0,0.417,0.048,0.777,0.144,1.081c0.096,0.305,0.144,0.474,0.144,0.505c0,0.161-0.288,0.562-0.864,1.202l0.576,0.288v0.577
		c-0.448-0.063-0.736,0.032-0.864,0.289c0.416,0.833,0.624,1.361,0.624,1.586c0,0.128-0.017,0.257-0.048,0.385
		c-0.416,0.16-0.608,0.721-0.576,1.682c0,0.129,0,0.289,0,0.481c0,0.225-0.048,0.554-0.144,0.985
		c-0.096,0.433-0.144,0.761-0.144,0.985c0,0.321,0.082,0.626,0.247,0.913c-0.028,0.353-0.014,1.523,0.042,3.51
		c0,1.442-0.096,2.611-0.288,3.509c0.127,0.737,0.607,2.147,1.44,4.23c-0.096,0.128-0.144,0.272-0.144,0.433
		c0,0.288,0.24,0.705,0.72,1.25s0.751,0.913,0.816,1.105c-0.192,0.096-0.288,0.224-0.288,0.385c0,0.096,0.088,0.264,0.264,0.504
		c0.175,0.24,0.28,0.409,0.312,0.505c1.664-0.608,2.768-1.184,3.312-1.728c0.352-0.352,0.528-0.816,0.528-1.393
		c0-0.063,0-0.136,0-0.216c0-0.079,0-0.136,0-0.168c0-0.672,0.208-1.279,0.624-1.824c0.864,0.705,1.296,1.473,1.296,2.305
		c0,1.056-0.568,2.016-1.704,2.88c-1.136,0.864-2.216,1.296-3.24,1.296c-0.8-0.032-1.536-0.561-2.208-1.586
		c-0.929-1.41-1.504-2.195-1.728-2.355c-0.833-2.756-1.248-6.169-1.248-10.238c0-3.107,0.24-6.072,0.72-8.892
		c0.192-1.186,0.279-2.499,0.264-3.941c-0.017-1.441,0.232-2.771,0.744-3.989c0.352-0.897,1.04-2.083,2.064-3.558
		c0.736-0.479,1.552-0.721,2.448-0.721C27.947,21.208,28.907,21.55,29.74,22.235z"/>
	<path fill="#086E52" d="M39.627,51.16c-0.576,0.384-1.088,1.376-1.536,2.977c-0.384,1.344-1.265,2.175-2.64,2.495
		c-0.224,0.192-0.464,0.288-0.72,0.288c-0.224,0-0.544-0.08-0.96-0.239c-0.416-0.161-0.704-0.257-0.864-0.288
		c-0.992-0.737-1.488-1.745-1.488-3.024c0-0.288,0.032-0.735,0.096-1.344c0.063-0.607,0.096-1.072,0.096-1.393
		c0-0.384-0.065-0.735-0.192-1.056c0.544-0.512,0.698-1.159,0.464-1.944c-0.235-0.783-0.165-1.432,0.208-1.943
		c-0.065-0.192-0.096-0.384-0.096-0.576c0-0.768,0.496-1.712,1.488-2.832c0.992-0.288,2.112-0.384,3.36-0.288
		c0.991,1.152,1.647,2.304,1.968,3.456c0.448,0.353,0.672,0.752,0.672,1.2c0,0.224-0.072,0.552-0.216,0.983
		c-0.144,0.433-0.216,0.776-0.216,1.032c0,0.32,0.096,0.624,0.288,0.912c-0.192,0.064-0.288,0.225-0.288,0.48
		c0,0.191,0.016,0.384,0.048,0.575L39.627,51.16z M36.844,49.24c0.127-0.16,0.192-0.336,0.192-0.528
		c0-0.191-0.353-0.735-1.056-1.632c0.672-0.576,0.96-1.392,0.864-2.448c-0.576-0.64-1.329-0.896-2.256-0.768
		c-0.704,0.832-1.056,1.889-1.056,3.168c0,0.225,0.016,0.593,0.048,1.104c0.031,0.512,0.048,0.896,0.048,1.151
		c0,0.896-0.118,1.68-0.353,2.353c-0.053,0.16-0.079,0.32-0.079,0.479c0,0.192,0.048,0.456,0.144,0.792
		c0.096,0.336,0.144,0.584,0.144,0.744c0,0.224-0.096,0.432-0.288,0.624c0.127,0.128,0.264,0.256,0.408,0.384s0.2,0.256,0.168,0.384
		c0.928,0.16,1.664-0.096,2.208-0.768c0.032-0.128,0.16-0.496,0.384-1.104c0.16-0.479,0.24-0.863,0.24-1.151
		c0-0.128-0.017-0.256-0.048-0.384c0.028-0.32,0.116-0.624,0.262-0.912s0.218-0.496,0.218-0.624
		C37.035,49.881,36.971,49.593,36.844,49.24z"/>
	<path fill="#086E52" d="M52.731,51.353c0.063,0.191,0.096,0.368,0.096,0.527c0,0.288-0.152,0.681-0.456,1.177
		c-0.304,0.496-0.472,0.871-0.504,1.128c-0.896,0.256-1.664,0.384-2.304,0.384s-1.12-0.128-1.44-0.384
		c0-0.353-0.248-0.808-0.744-1.368c-0.497-0.56-0.713-1.048-0.648-1.464c0.223-0.064,0.336-0.16,0.336-0.288
		c0-0.097-0.057-0.24-0.168-0.433c-0.113-0.191-0.168-0.336-0.168-0.432c0-0.256,0.096-0.632,0.288-1.128
		c0.192-0.496,0.288-0.871,0.288-1.128c0-0.288-0.08-0.576-0.24-0.864c0-0.224,0-0.479,0-0.768c0-0.512-0.096-1.2-0.288-2.064
		c-0.192-1.056-0.305-1.728-0.336-2.016c-1.185,0.32-1.856,1.553-2.016,3.696c-0.096,1.184-0.48,2.512-1.152,3.983
		c0.063,0.225,0.096,0.48,0.096,0.769c0,0.287-0.056,0.743-0.168,1.367c-0.112,0.624-0.168,1.097-0.168,1.416
		c0,0.48,0.08,0.912,0.24,1.296c-0.032,0.032-0.185,0.2-0.456,0.505c-0.272,0.304-0.504,0.456-0.696,0.456
		c-0.096,0-0.176-0.032-0.24-0.097c-0.48-0.256-0.641-1.008-0.48-2.256c0.192-1.439,0.16-2.4-0.096-2.88
		c-0.032-0.319-0.017-0.912,0.048-1.776c0.063-1.023,0.096-1.775,0.096-2.256c0-2.592-0.72-4.096-2.16-4.512
		c0.032-0.576,0.608-1.231,1.728-1.968c0.768,0.288,1.152,0.896,1.152,1.823c0,0.129,0,0.305,0,0.528c0,0.225,0,0.384,0,0.48
		c0,0.736,0.175,1.313,0.528,1.728c0.127,0.032,0.24,0.048,0.336,0.048c0.16,0,0.319-0.111,0.48-0.336l0.336-0.576
		c-0.16-0.159-0.24-0.352-0.24-0.575c0-0.16,0.175-0.641,0.528-1.44c0.224-0.447,0.624-0.76,1.2-0.936
		c0.576-0.176,1.135-0.328,1.68-0.456c0.704,0.224,1.056,0.607,1.056,1.151c0,0.161-0.032,0.408-0.096,0.744
		c-0.064,0.336-0.096,0.584-0.096,0.744c0,0.448,0.175,0.8,0.528,1.056c0.032,0.257,0.112,0.816,0.24,1.681
		c0.127,0.704,0.192,1.264,0.192,1.68c0,0.896-0.24,1.68-0.72,2.352c0.352,1.697,0.928,2.641,1.728,2.832
		c0.032-0.063,0.176-0.432,0.432-1.104c0.16-0.416,0.4-0.72,0.72-0.912c0.127,0.192,0.416,0.305,0.864,0.336
		C52.315,50.857,52.603,51.033,52.731,51.353z"/>
	<path fill="#086E52" d="M63.531,51.353c0.063,0.191,0.096,0.368,0.096,0.527c0,0.288-0.152,0.681-0.456,1.177
		s-0.472,0.871-0.504,1.128c-0.896,0.256-1.664,0.384-2.304,0.384c-0.641,0-1.121-0.128-1.44-0.384c0-0.353-0.248-0.808-0.743-1.368
		c-0.497-0.56-0.713-1.048-0.648-1.464c0.223-0.064,0.336-0.16,0.336-0.288c0-0.097-0.057-0.24-0.168-0.433
		c-0.113-0.191-0.168-0.336-0.168-0.432c0-0.256,0.096-0.632,0.287-1.128c0.193-0.496,0.289-0.871,0.289-1.128
		c0-0.288-0.08-0.576-0.24-0.864c0-0.224,0-0.479,0-0.768c0-0.512-0.096-1.2-0.288-2.064c-0.192-1.056-0.305-1.728-0.336-2.016
		c-1.185,0.32-1.856,1.553-2.016,3.696c-0.096,1.184-0.48,2.512-1.152,3.983c0.063,0.225,0.096,0.48,0.096,0.769
		c0,0.287-0.056,0.743-0.168,1.367c-0.112,0.624-0.168,1.097-0.168,1.416c0,0.48,0.08,0.912,0.24,1.296
		c-0.032,0.032-0.185,0.2-0.456,0.505c-0.272,0.304-0.504,0.456-0.696,0.456c-0.096,0-0.176-0.032-0.24-0.097
		c-0.48-0.256-0.641-1.008-0.48-2.256c0.192-1.439,0.16-2.4-0.096-2.88c-0.032-0.319-0.017-0.912,0.048-1.776
		c0.063-1.023,0.096-1.775,0.096-2.256c0-2.592-0.72-4.096-2.16-4.512c0.032-0.576,0.608-1.231,1.728-1.968
		c0.768,0.288,1.152,0.896,1.152,1.823c0,0.129,0,0.305,0,0.528c0,0.225,0,0.384,0,0.48c0,0.736,0.175,1.313,0.528,1.728
		c0.127,0.032,0.24,0.048,0.336,0.048c0.16,0,0.319-0.111,0.48-0.336l0.336-0.576c-0.16-0.159-0.24-0.352-0.24-0.575
		c0-0.16,0.175-0.641,0.528-1.44c0.224-0.447,0.624-0.76,1.2-0.936c0.576-0.176,1.135-0.328,1.679-0.456
		c0.704,0.224,1.057,0.607,1.057,1.151c0,0.161-0.032,0.408-0.096,0.744c-0.064,0.336-0.096,0.584-0.096,0.744
		c0,0.448,0.175,0.8,0.527,1.056c0.031,0.257,0.111,0.816,0.24,1.681c0.127,0.704,0.191,1.264,0.191,1.68
		c0,0.896-0.24,1.68-0.72,2.352c0.353,1.697,0.928,2.641,1.728,2.832c0.032-0.063,0.176-0.432,0.433-1.104
		c0.159-0.416,0.399-0.72,0.72-0.912c0.128,0.192,0.416,0.305,0.864,0.336C63.115,50.857,63.402,51.033,63.531,51.353z"/>
	<path fill="#086E52" d="M73.082,51.208c0.352,0.161,0.527,0.416,0.527,0.769c0,0.736-0.672,1.56-2.016,2.472
		s-2.672,1.368-3.984,1.368c-1.023,0-1.823-0.32-2.399-0.96c0.032-0.288-0.096-0.641-0.384-1.057
		c-0.288-0.415-0.44-0.728-0.456-0.936c-0.017-0.208-0.152-0.903-0.408-2.088c-0.16-0.864-0.208-1.567-0.144-2.112
		c0.031-0.191-0.064-0.384-0.288-0.576c0.224-0.096,0.319-0.367,0.288-0.815c-0.096-0.097-0.145-0.208-0.145-0.336
		c0-0.16,0.16-0.448,0.48-0.864c0.319-0.415,0.48-0.768,0.48-1.056c0.031-1.248,0.047-2.512,0.047-3.792
		c0.192-1.472,0.736-2.544,1.633-3.217c1.151,0.032,2.287,0.688,3.408,1.969c-0.097,0.416,0.016,1.056,0.336,1.92
		c0.318,0.863,0.479,1.487,0.479,1.872c0,1.056-0.513,1.584-1.536,1.584c-0.225,0-0.633-0.064-1.225-0.192
		c-0.592-0.127-1.031-0.159-1.319-0.096c-0.416,0.064-0.736,0.336-0.96,0.815c-0.545,1.024-0.545,2.24,0,3.648
		c-0.191,0.064-0.288,0.225-0.288,0.479c0,0.449,0,0.656,0,0.624c0.384,0.161,0.576,0.48,0.576,0.96
		c0,0.288-0.097,0.528-0.288,0.721c0.799,1.536,1.567,2.304,2.305,2.304c0.352,0,0.703-0.112,1.055-0.336
		c0.448-0.064,1.104-0.528,1.969-1.392c-0.032-0.16-0.145-0.385-0.336-0.673c-0.192-0.287-0.288-0.527-0.288-0.72
		c0-0.576,0.352-0.864,1.056-0.864C71.705,50.632,72.314,50.824,73.082,51.208z M68.282,43.336
		c-0.097-0.672-0.208-1.344-0.336-2.016c-0.161-0.832-0.608-1.184-1.345-1.056c0.064,0.064,0.097,0.144,0.097,0.239
		c0,0.097-0.064,0.24-0.192,0.433c-0.128,0.191-0.191,0.32-0.191,0.384c0,0.128,0.096,0.24,0.287,0.336
		c-0.191,0.064-0.287,0.225-0.287,0.48v0.623c0.159,0.385,0.447,0.576,0.863,0.576C67.562,43.336,67.929,43.336,68.282,43.336z"/>
	<path fill="#086E52" d="M81.385,54.401c-0.224,0.56-0.719,1.176-1.487,1.848c-1.12,0.96-1.728,1.52-1.824,1.681
		c-2.784-0.895-4.24-2.602-4.368-5.123c0.16-0.127,0.24-0.271,0.24-0.432c0-0.158-0.096-0.374-0.287-0.646
		c-0.193-0.271-0.305-0.455-0.337-0.551c0.608-0.989,0.912-2.394,0.912-4.213c0-0.191,0-0.487,0-0.886c0-0.399,0-0.71,0-0.934
		c0-2.649,0.96-4.452,2.88-5.41c0.128,0,0.344-0.056,0.648-0.167c0.304-0.112,0.52-0.168,0.648-0.168
		c0.287,0,0.511,0.175,0.672,0.522l-0.289,0.286c0.512,0.19,0.992,0.634,1.44,1.331s0.672,1.347,0.672,1.948
		c0,0.317-0.064,0.587-0.192,0.809c-0.383,0.031-0.752,0.048-1.104,0.048c-0.448,0-0.752-0.174-0.912-0.521
		c0.192-0.126,0.279-0.401,0.264-0.826s0.057-0.7,0.217-0.826c-0.228-0.536-0.504-0.804-0.828-0.804
		c-0.194,0-0.519,0.151-0.973,0.454c-0.454,0.304-0.795,0.472-1.021,0.503c-0.519,0.511-0.777,1.181-0.777,2.01
		c0,0.351,0.071,0.909,0.215,1.674c0.145,0.767,0.217,1.341,0.217,1.724c0,0.51-0.096,0.957-0.288,1.339
		c-0.513,0.097-0.769,0.319-0.769,0.67c0,0.128,0.064,0.367,0.192,0.718s0.192,0.622,0.192,0.813c0,0.255-0.096,0.463-0.289,0.622
		l0.289,0.286l-0.24,0.287c0.352,0.128,0.559,0.479,0.624,1.054c0.063,0.733,0.175,1.195,0.336,1.388
		c0.192,0.286,0.399,0.637,0.624,1.052c0.127,0.191,0.24,0.287,0.336,0.287c0.127,0,0.496-0.096,1.104-0.288
		c0.096-0.16,0.36-0.4,0.793-0.72c0.432-0.32,0.647-0.608,0.647-0.864c0-0.128-0.048-0.288-0.144-0.479
		c-0.257-0.48-0.385-0.769-0.385-0.864c-0.031-0.128,0.064-0.464,0.288-1.008l0.192-0.384c0.127-0.353,0.256-0.528,0.384-0.528
		c0.063,0,0.24,0.137,0.528,0.408c0.287,0.272,0.576,0.376,0.863,0.312c0.289,0.161,0.433,0.497,0.433,1.008
		C81.721,53.321,81.609,53.84,81.385,54.401z"/>
	<path fill="#086E52" d="M90.025,50.632c0.48,0.417,0.721,0.896,0.721,1.44c0,0.416-0.336,1.248-1.008,2.496
		c-0.513,0.96-1.313,1.439-2.4,1.439c-0.416,0-1.104-0.112-2.064-0.336c-0.768-0.896-1.216-2.144-1.344-3.743
		c0-0.097-0.016-1.456-0.048-4.08c0.224-0.224,0.319-0.416,0.288-0.576c-0.191-0.063-0.288-0.16-0.288-0.288
		c0-0.031,0.176-0.304,0.528-0.816c-0.032-0.159-0.049-0.336-0.049-0.527c0-0.224,0.057-0.56,0.168-1.009
		c0.112-0.447,0.168-0.768,0.168-0.96c0-0.319-0.096-0.607-0.287-0.863c-0.192,0-0.473,0.071-0.84,0.216
		c-0.369,0.144-0.633,0.216-0.793,0.216c-0.352,0-0.64-0.24-0.863-0.72c0.032-0.48-0.064-0.769-0.288-0.864
		c0.097-0.703,0.76-1.111,1.992-1.224c1.231-0.112,1.848-0.392,1.848-0.841c0-0.319-0.16-0.751-0.479-1.296
		c0.191-0.063,0.287-0.224,0.287-0.479c0-0.448,0-0.655,0-0.624c-0.031-0.16-0.031-0.64,0-1.44c0.032-0.607-0.064-1.071-0.287-1.392
		c-0.416,0.192-0.977,0.576-1.68,1.152c-0.225-0.288-0.337-0.592-0.337-0.912c0-0.288,0.112-0.616,0.337-0.984
		c0.223-0.367,0.318-0.583,0.287-0.648l-0.287-0.287c0.352-0.385,0.799-0.576,1.344-0.576c0.543,0,1.023,0.191,1.439,0.576
		c0.416,0.384,0.607,0.863,0.576,1.439c0.031,0.992,0.048,2,0.048,3.024c0,1.248-0.208,2.192-0.624,2.832
		c0.191,0.032,0.488,0.136,0.889,0.312c0.399,0.177,0.695,0.265,0.887,0.265c0.32,0,0.576-0.192,0.769-0.576
		c0.479-0.032,0.76,0.056,0.841,0.264c0.078,0.209,0.119,0.393,0.119,0.552c0,0.545-0.448,1.04-1.344,1.488
		c-1.121,0.545-1.744,0.896-1.872,1.056c-0.192,0.896-0.384,1.793-0.576,2.688c-0.224,1.056-0.336,1.937-0.336,2.64
		c0,0.769,0.128,1.521,0.384,2.256c-0.031,0.449,0.049,0.737,0.24,0.864c0,0.448-0.017,0.896-0.048,1.344
		c0.031,0.544,0.239,0.928,0.624,1.152c0.863,0.096,1.375-0.209,1.536-0.912c0.063-0.64,0.159-1.288,0.288-1.944
		C88.617,50.769,89.13,50.505,90.025,50.632z"/>
</g>
<g>
	<g>
		<path fill="#1AAB83" d="M57.531,76.488c-0.039,2.345-0.493,4.63,0.013,6.954c0.195,0.899,2.13,0.396,1.933-0.518
			c-0.479-2.197-0.024-4.368,0.013-6.583C59.506,75.325,57.546,75.615,57.531,76.488L57.531,76.488z"/>
	</g>
</g>
<g>
	<g>
		<path fill="#1AAB83" d="M62.547,78.145c0.688,2.166,0.978,4.418,2.412,6.262c0.313,0.4,2.156-0.241,1.814-0.682
			c-1.379-1.771-1.636-4.02-2.295-6.098C64.319,77.121,62.398,77.675,62.547,78.145L62.547,78.145z"/>
	</g>
</g>
<g>
	<g>
		<path fill="#1AAB83" d="M67.044,77.139c1.414,1.743,2.974,3.352,4.12,5.297c0.451,0.767,2.289,0.028,1.767-0.858
			c-1.146-1.944-2.705-3.555-4.12-5.298C68.244,75.582,66.41,76.358,67.044,77.139L67.044,77.139z"/>
	</g>
</g>
<g>
	<g>
		<path fill="#1AAB83" d="M72.336,75.65c1.245,1.929,2.088,4.085,3.531,5.887c0.513,0.64,2.359-0.097,1.775-0.824
			c-1.443-1.802-2.286-3.959-3.531-5.886C73.672,74.145,71.818,74.847,72.336,75.65L72.336,75.65z"/>
	</g>
</g>
<g>
	<g>
		<path fill="#1AAB83" d="M53.183,75.754c-0.72,1.121-1.197,2.414-1.532,3.698c-0.218,0.838,1.748,0.572,1.946-0.189
			c0.307-1.179,0.752-2.338,1.411-3.366c0.261-0.404-0.221-0.679-0.561-0.706C53.979,75.155,53.444,75.348,53.183,75.754
			L53.183,75.754z"/>
	</g>
</g>
<g>
	<g>
		<path fill="#1AAB83" d="M44.957,76.102c-1.222,1.809-2.624,3.45-4.289,4.865c-0.312,0.266-0.21,0.6,0.183,0.679
			c0.459,0.092,1.012-0.064,1.365-0.366c1.756-1.49,3.251-3.234,4.539-5.141C47.253,75.403,45.307,75.583,44.957,76.102
			L44.957,76.102z"/>
	</g>
</g>
<g>
	<g>
		<path fill="#1AAB83" d="M36.982,75.401c-0.577,1.369-1.49,2.571-2.665,3.482c-0.337,0.262-0.485,0.764-0.089,1.052
			c0.401,0.294,1.017,0.188,1.389-0.103c1.4-1.087,2.534-2.535,3.222-4.17C39.282,74.61,37.335,74.562,36.982,75.401L36.982,75.401z
			"/>
	</g>
</g>
<g>
	<g>
		<path fill="#1AAB83" d="M31.837,73.948c-2.092,0.641-3.696,2.55-5.465,3.758c-0.355,0.244-0.47,0.773-0.09,1.05
			c0.419,0.306,0.996,0.166,1.389-0.104c0.861-0.589,1.667-1.251,2.479-1.902c0.606-0.488,1.3-1.169,2.062-1.402
			C33.393,74.987,33.031,73.584,31.837,73.948L31.837,73.948z"/>
	</g>
</g>
<g>
	<g>
		<path fill="#1AAB83" d="M24.487,71.988c-2.043,0.084-3.898,1.367-5.316,2.748c-0.305,0.296-0.197,0.674,0.209,0.78
			c0.457,0.12,1.029-0.038,1.366-0.366c0.942-0.917,2.143-1.902,3.512-1.959C25.273,73.149,25.815,71.934,24.487,71.988
			L24.487,71.988z"/>
	</g>
</g>
<g>
	<g>
		<path fill="#1AAB83" d="M13.146,65.113c-1.505,1.175-3.204,2.063-4.709,3.237c-1.036,0.809,0.539,1.396,1.267,0.826
			c1.505-1.173,3.204-2.063,4.709-3.237C15.448,65.131,13.874,64.544,13.146,65.113L13.146,65.113z"/>
	</g>
</g>
<g>
	<g>
		<path fill="#1AAB83" d="M9.894,60.35c-1.675,1.104-3.423,2.085-5.424,2.423c-1.235,0.208-0.83,1.59,0.371,1.388
			c2.335-0.396,4.396-1.588,6.349-2.874c0.358-0.236,0.469-0.771,0.092-1.041C10.859,59.939,10.291,60.087,9.894,60.35L9.894,60.35z
			"/>
	</g>
</g>
<g>
	<g>
		<path fill="#1AAB83" d="M6.674,55.118c-1.417,0.82-2.991,1.328-4.536,1.845c-1.15,0.384-0.843,1.625,0.329,1.233
			c1.886-0.63,3.742-1.274,5.469-2.273c0.34-0.197,0.5-0.695,0.12-0.938C7.623,54.711,7.075,54.887,6.674,55.118L6.674,55.118z"/>
	</g>
</g>
<g>
	<g>
		<path fill="#1AAB83" d="M5.519,48.435c-1.334-0.307-2.685-0.336-4.047-0.336c-0.461,0-1.024,0.122-1.264,0.571
			c-0.212,0.396,0.183,0.734,0.569,0.734c1.199,0.001,2.429-0.019,3.604,0.252c0.474,0.108,1.024,0.002,1.366-0.365
			C6.029,48.99,5.955,48.535,5.519,48.435L5.519,48.435z"/>
	</g>
</g>
<g>
	<g>
		<path fill="#1AAB83" d="M6.709,41.42c-1.153-0.31-2.111-0.992-3.057-1.697c-0.56-0.417-2.325,0.394-1.522,0.991
			c1.061,0.79,2.128,1.489,3.417,1.834c0.45,0.12,1.035-0.044,1.366-0.366C7.218,41.885,7.113,41.528,6.709,41.42L6.709,41.42z"/>
	</g>
</g>
<g>
	<g>
		<path fill="#1AAB83" d="M9.448,33.485c-0.942-1.53-2.196-2.774-3.588-3.899c-0.421-0.34-2.132,0.414-1.818,0.667
			c1.343,1.084,2.565,2.271,3.476,3.75C7.821,34.498,9.619,33.763,9.448,33.485L9.448,33.485z"/>
	</g>
</g>
<g>
	<g>
		<path fill="#1AAB83" d="M13.568,25.539c-1.272-2.797-2.848-5.443-4.12-8.24c-0.35-0.771-2.253-0.19-1.932,0.518
			c1.271,2.797,2.848,5.443,4.12,8.24C11.986,26.827,13.889,26.247,13.568,25.539L13.568,25.539z"/>
	</g>
</g>
<g>
	<g>
		<path fill="#1AAB83" d="M15.333,17.005c0-1.373,0.015-2.774-0.294-4.12c-0.148-0.65-2.086-0.154-1.932,0.518
			c0.309,1.347,0.294,2.747,0.294,4.12C13.402,18.099,15.334,17.74,15.333,17.005L15.333,17.005z"/>
	</g>
</g>
<g>
	<g>
		<path fill="#1AAB83" d="M14.188,9.789c2.448,1.046,3.314,4.113,4.511,6.262c0.367,0.661,2.231,0.021,1.932-0.518
			c-1.301-2.34-2.237-5.545-4.905-6.686C15.142,8.599,13.377,9.442,14.188,9.789L14.188,9.789z"/>
	</g>
</g>
<g>
	<g>
		<path fill="#1AAB83" d="M21.93,6.475c0.043,1.864,0.563,3.632,0.889,5.456c0.137,0.77,2.075,0.289,1.932-0.518
			c-0.304-1.708-0.837-3.394-0.877-5.139C23.852,5.366,21.913,5.744,21.93,6.475L21.93,6.475z"/>
	</g>
</g>
<g>
	<g>
		<path fill="#1AAB83" d="M29.362,4.398c0.289,0.395,0.278,1.225,0.336,1.686c0.121,0.962,0.176,1.936,0.184,2.905
			c0.005,0.599,1.938,0.229,1.933-0.518c-0.007-0.972-0.073-1.94-0.185-2.906c-0.068-0.604-0.096-1.409-0.473-1.921
			C30.77,3.118,28.903,3.773,29.362,4.398L29.362,4.398z"/>
	</g>
</g>
<g>
	<g>
		<path fill="#1AAB83" d="M34.59,3.692c0.954,1.782,0.563,3.977,0.294,5.887c-0.022,0.166,1.854,0.034,1.933-0.519
			c0.269-1.91,0.661-4.104-0.294-5.886C36.287,2.736,34.463,3.454,34.59,3.692L34.59,3.692z"/>
	</g>
</g>
<g>
	<g>
		<path fill="#1AAB83" d="M40.77,4.868c0.247,0.677-0.012,1.637-0.104,2.324c-0.138,1.035-0.323,2.063-0.496,3.094
			c-0.155,0.927,1.814,0.648,1.951-0.169c0.189-1.125,0.383-2.25,0.534-3.382c0.095-0.716,0.303-1.68,0.045-2.385
			C42.397,3.517,40.476,4.064,40.77,4.868L40.77,4.868z"/>
	</g>
</g>
<g>
	<g>
		<path fill="#1AAB83" d="M49.807,3.023c-0.747,2.313-1.698,4.556-2.187,6.943c-0.153,0.747,1.796,0.429,1.934-0.238
			c0.487-2.388,1.438-4.631,2.186-6.942C51.961,2.101,50.02,2.365,49.807,3.023L49.807,3.023z"/>
	</g>
</g>
<g>
	<g>
		<path fill="#1AAB83" d="M58.508,4.35c-1.225,1.53-2.41,3.076-3.311,4.824c-0.207,0.403,1.641,0.235,1.916-0.3
			c0.858-1.667,1.996-3.133,3.164-4.593C60.734,3.711,58.833,3.943,58.508,4.35L58.508,4.35z"/>
	</g>
</g>
<g>
	<g>
		<path fill="#1AAB83" d="M69.948,5.687c-1.134,0.651-2.304,1.465-3.113,2.501C66.089,9.14,67.932,9.32,68.43,8.682
			c0.725-0.927,1.762-1.625,2.772-2.206c0.337-0.194,0.505-0.686,0.124-0.925C70.895,5.28,70.348,5.457,69.948,5.687L69.948,5.687z"
			/>
	</g>
</g>
<g>
	<g>
		<path fill="#1AAB83" d="M77.685,9.446c0.07-0.043,0.144-0.085,0.214-0.129c0.783-0.491,0.097-1.108-0.544-1.107
			c-0.978,0.001-2.302,1.188-3.084,1.649c-1.444,0.854-2.892,1.707-4.331,2.57c-0.349,0.208-0.489,0.718-0.111,0.968
			c0.43,0.285,0.982,0.116,1.383-0.125c1.224-0.731,2.45-1.457,3.679-2.183c0.608-0.361,1.22-0.721,1.83-1.081
			c0.226-0.133,0.45-0.266,0.677-0.398c0.39-0.229,0.313-0.03-0.225-0.029c-0.182-0.369-0.362-0.739-0.545-1.108
			c-0.069,0.044-0.143,0.087-0.214,0.13c-0.347,0.208-0.49,0.718-0.11,0.968C76.732,9.855,77.284,9.686,77.685,9.446L77.685,9.446z"
			/>
	</g>
</g>
<g>
	<g>
		<path fill="#1AAB83" d="M88.335,11.323c-1.725,0.121-3.347,1.167-4.794,2.024c-1.95,1.154-3.804,2.497-5.521,3.972
			c-0.89,0.763,1.015,0.975,1.592,0.479c1.355-1.164,2.834-2.188,4.334-3.155c1.17-0.755,2.743-1.929,4.186-2.031
			C89.171,12.538,89.66,11.229,88.335,11.323L88.335,11.323z"/>
	</g>
</g>
<g>
	<g>
		<path fill="#1AAB83" d="M96.533,16.642c-1.399-0.197-2.99,0.598-4.247,1.106c-1.905,0.769-3.766,1.68-5.557,2.687
			c-1.14,0.641,0.526,1.12,1.237,0.721c1.271-0.714,2.598-1.337,3.928-1.935c1.044-0.469,2.741-1.502,3.928-1.335
			C96.665,18.004,97.834,16.825,96.533,16.642L96.533,16.642z"/>
	</g>
</g>
<g>
	<g>
		<path fill="#1AAB83" d="M103.074,20.766c-1.8,0.606-3.55,1.308-5.253,2.15c-1.188,0.587-0.118,1.522,0.832,1.054
			c1.544-0.763,3.121-1.419,4.753-1.969C104.554,21.615,104.247,20.371,103.074,20.766L103.074,20.766z"/>
	</g>
</g>
<g>
	<g>
		<path fill="#1AAB83" d="M102.837,25.32c-2.438,1.322-5.176,1.93-7.572,3.356c-1.124,0.67,0.531,1.139,1.237,0.719
			c2.248-1.339,4.85-1.875,7.143-3.119C104.809,25.645,103.742,24.829,102.837,25.32L102.837,25.32z"/>
	</g>
</g>
<g>
	<g>
		<path fill="#1AAB83" d="M105.774,32.944c-1.998,0.809-4.133,1.067-6.256,1.334c-1.021,0.128-1.529,1.453-0.205,1.286
			c2.485-0.313,4.943-0.664,7.28-1.608C107.832,33.454,106.723,32.56,105.774,32.944L105.774,32.944z"/>
	</g>
</g>
<g>
	<g>
		<path fill="#1AAB83" d="M108.637,37.674c-2.36,0.021-4.701,0.335-6.979,0.958c-1.143,0.312-0.926,1.129,0.219,0.815
			c1.954-0.533,3.947-0.788,5.973-0.808C108.486,38.635,109.936,37.662,108.637,37.674L108.637,37.674z"/>
	</g>
</g>
<g>
	<g>
		<path fill="#1AAB83" d="M110.117,42.123c-3.252,0.001-6.472,0.089-9.624,0.964c-1.133,0.313-0.938,1.052,0.197,0.735
			c2.818-0.781,5.718-0.802,8.622-0.804C109.905,43.02,111.411,42.122,110.117,42.123L110.117,42.123z"/>
	</g>
</g>
<g>
	<g>
		<path fill="#1AAB83" d="M104.371,49.134c0.005,0,0.011,0,0.018,0.001c-0.209-0.14-0.417-0.279-0.625-0.418c0,0,0,0.001,0,0.002
			c0.266-0.297,0.53-0.594,0.797-0.892c0.505-0.114-0.198,0.014-0.332,0.028c-0.408,0.049-0.816,0.101-1.226,0.156
			c-0.746,0.103-1.547,0.184-2.241,0.492c-0.332,0.146-0.76,0.582-0.468,0.959c0.297,0.383,0.927,0.292,1.308,0.123
			c0.091-0.04,0.074-0.034-0.045,0.016c0.063-0.018,0.127-0.034,0.189-0.05c0.115-0.028,0.233-0.054,0.351-0.073
			c0.385-0.066,0.771-0.118,1.159-0.169c0.543-0.071,1.106-0.097,1.644-0.219c0.416-0.094,0.854-0.428,0.796-0.891
			c0-0.002,0-0.003,0-0.003c-0.032-0.262-0.405-0.407-0.624-0.418c-0.006,0-0.012-0.001-0.018-0.001
			c-0.463-0.02-1.033,0.132-1.262,0.581C103.584,48.774,103.973,49.116,104.371,49.134L104.371,49.134z"/>
	</g>
</g>
<g>
	<g>
		<path fill="#1AAB83" d="M108.049,52.983c-1.962,0-3.924,0-5.886,0c-0.629,0-2.088,0.955-0.789,0.955c1.962,0,3.924,0,5.886,0
			C107.889,53.938,109.348,52.983,108.049,52.983L108.049,52.983z"/>
	</g>
</g>
<g>
	<g>
		<path fill="#1AAB83" d="M106.682,60.44c-3.485-0.916-6.814-2.32-10.301-3.236c-0.451-0.118-2.152,0.605-1.586,0.756
			c3.485,0.916,6.814,2.32,10.301,3.236C105.547,61.314,107.249,60.589,106.682,60.44L106.682,60.44z"/>
	</g>
</g>
<g>
	<g>
		<path fill="#1AAB83" d="M100.4,62.701c-2.585,0.233-5.186-1.121-7.733-1.464c-0.511-0.067-2.258,0.784-1.217,0.925
			c2.707,0.362,5.387,1.732,8.157,1.479c0.436-0.039,0.982-0.139,1.284-0.495C101.176,62.81,100.649,62.678,100.4,62.701
			L100.4,62.701z"/>
	</g>
</g>
<g>
	<g>
		<path fill="#1AAB83" d="M95.505,67.406c-0.139,0.309,0.014,0.288,0.456-0.059c-0.118-0.022-0.233-0.053-0.349-0.086
			c-0.319-0.086-0.626-0.244-0.925-0.383c-0.632-0.293-1.242-0.634-1.863-0.948c-0.581-0.294-2.353,0.538-1.533,0.953
			c1.135,0.574,2.271,1.289,3.532,1.544c1.019,0.205,2.311-0.166,2.615-1.254C97.641,66.453,95.694,66.735,95.505,67.406
			L95.505,67.406z"/>
	</g>
</g>
<g>
	<g>
		<path fill="#1AAB83" d="M96.785,71.827c-3.43-0.599-7.013-0.886-10.004-2.832c-0.52-0.339-2.225,0.439-1.807,0.713
			c3.188,2.073,6.938,2.414,10.596,3.053C96.09,72.851,97.832,72.01,96.785,71.827L96.785,71.827z"/>
	</g>
</g>
<g>
	<g>
		<path fill="#1AAB83" d="M88.938,76.121c-1.57,0.067-3.192-1.623-4.237-2.584c-1.099-1.013-2.104-2.119-3.226-3.106
			c-0.556-0.488-2.371,0.271-1.787,0.785c2.549,2.246,5.222,6.246,9.016,6.081C89.706,77.253,90.268,76.064,88.938,76.121
			L88.938,76.121z"/>
	</g>
</g>
<g>
	<g>
		<path fill="#1AAB83" d="M83.503,79.629c-2.4-0.646-4.226-2.146-5.564-4.214c-0.437-0.672-2.292,0.024-1.777,0.819
			c1.472,2.273,3.579,3.909,6.206,4.616C83.127,81.056,84.655,79.939,83.503,79.629L83.503,79.629z"/>
	</g>
</g>
</svg>
