<?xml version="1.0" encoding="utf-8"?>
<!-- Generator: Adobe Illustrator 15.1.0, SVG Export Plug-In . SVG Version: 6.00 Build 0)  -->
<!DOCTYPE svg PUBLIC "-//W3C//DTD SVG 1.1//EN" "http://www.w3.org/Graphics/SVG/1.1/DTD/svg11.dtd">
<svg version="1.1" id="Ebene_1" xmlns="http://www.w3.org/2000/svg" xmlns:xlink="http://www.w3.org/1999/xlink" x="0px" y="0px"
	 width="195px" height="104.5px" viewBox="15.5 0 195 104.5" enable-background="new 15.5 0 195 104.5" xml:space="preserve">
<g id="Ebene_1_1_">
	<g>
		<path fill="#1DAC84" d="M52.021,13.318c-0.401,1.062-1.32,2.484-2.76,4.274c-2.4-1.998-3.96-3-4.68-3
			c-0.641,0-1.44,0.242-2.4,0.722c-2.561,1.442-4.2,3.688-4.92,6.729c-1.121,4.808-1.8,7.493-2.04,8.052
			c0,1.042,0.12,1.942,0.36,2.703c0.24,0.762,0.36,1.184,0.36,1.263c0,0.401-0.72,1.404-2.16,3.005l1.44,0.724v1.438
			c-1.121-0.159-1.841,0.081-2.16,0.725c1.039,2.083,1.56,3.402,1.56,3.966c0,0.317-0.041,0.642-0.12,0.962
			c-1.041,0.398-1.521,1.802-1.44,4.206c0,0.317,0,0.722,0,1.201c0,0.563-0.12,1.384-0.36,2.464c-0.24,1.082-0.36,1.9-0.36,2.464
			c0,0.803,0.204,1.563,0.617,2.284c-0.069,0.881-0.036,3.806,0.103,8.771c0,3.606-0.24,6.529-0.72,8.771
			c0.319,1.845,1.519,5.37,3.6,10.577c-0.24,0.317-0.36,0.681-0.36,1.082c0,0.72,0.6,1.763,1.8,3.12
			c1.2,1.363,1.878,2.284,2.04,2.768c-0.48,0.239-0.72,0.561-0.72,0.961c0,0.24,0.219,0.66,0.66,1.263
			c0.438,0.603,0.699,1.021,0.78,1.262c4.159-1.521,6.919-2.961,8.28-4.317c0.879-0.879,1.32-2.04,1.32-3.479c0-0.159,0-0.34,0-0.54
			c0-0.196,0-0.34,0-0.42c0-1.681,0.52-3.197,1.56-4.561c2.16,1.761,3.24,3.681,3.24,5.76c0,2.641-1.421,5.04-4.26,7.2
			c-2.841,2.16-5.541,3.24-8.1,3.24c-2-0.081-3.84-1.402-5.52-3.969c-2.321-3.521-3.761-5.483-4.32-5.888
			c-2.082-6.889-3.12-15.422-3.12-25.596c0-7.771,0.6-15.183,1.8-22.229c0.48-2.963,0.7-6.248,0.66-9.854
			c-0.041-3.604,0.58-6.928,1.86-9.976c0.879-2.24,2.599-5.207,5.16-8.894c1.839-1.2,3.879-1.802,6.12-1.802
			C47.541,10.753,49.941,11.608,52.021,13.318z"/>
		<path fill="#1DAC84" d="M76.742,85.633c-1.44,0.96-2.721,3.438-3.84,7.438c-0.96,3.359-3.161,5.439-6.6,6.24
			c-0.561,0.479-1.161,0.723-1.8,0.723c-0.561,0-1.361-0.201-2.4-0.604c-1.041-0.399-1.761-0.641-2.16-0.72
			c-2.48-1.841-3.72-4.361-3.72-7.563c0-0.721,0.079-1.84,0.24-3.357c0.16-1.521,0.24-2.683,0.24-3.479
			c0-0.96-0.161-1.84-0.48-2.641c1.359-1.278,1.746-2.898,1.159-4.859c-0.587-1.96-0.413-3.58,0.521-4.857
			c-0.161-0.48-0.24-0.96-0.24-1.44c0-1.92,1.239-4.278,3.72-7.08c2.479-0.72,5.28-0.96,8.4-0.72c2.479,2.88,4.119,5.76,4.92,8.641
			c1.119,0.881,1.68,1.88,1.68,3c0,0.563-0.18,1.38-0.54,2.46c-0.36,1.079-0.54,1.94-0.54,2.579c0,0.801,0.24,1.563,0.72,2.28
			c-0.479,0.161-0.72,0.561-0.72,1.2c0,0.479,0.039,0.96,0.12,1.438L76.742,85.633z M69.782,80.833c0.318-0.399,0.48-0.84,0.48-1.32
			c0-0.479-0.881-1.839-2.64-4.08c1.68-1.438,2.4-3.479,2.16-6.119c-1.44-1.6-3.321-2.236-5.64-1.921
			c-1.761,2.082-2.64,4.722-2.64,7.921c0,0.563,0.04,1.48,0.12,2.76c0.079,1.28,0.12,2.24,0.12,2.883
			c0,2.237-0.294,4.197-0.883,5.88c-0.131,0.398-0.197,0.801-0.197,1.2c0,0.479,0.12,1.14,0.36,1.979
			c0.24,0.841,0.36,1.461,0.36,1.86c0,0.559-0.24,1.08-0.72,1.56c0.319,0.319,0.66,0.64,1.02,0.96
			c0.36,0.319,0.499,0.643,0.42,0.961c2.319,0.398,4.159-0.24,5.52-1.921c0.079-0.32,0.399-1.241,0.96-2.76
			c0.399-1.2,0.6-2.16,0.6-2.88c0-0.318-0.042-0.643-0.12-0.96c0.071-0.799,0.291-1.563,0.654-2.28
			c0.364-0.72,0.546-1.239,0.546-1.56C70.262,82.435,70.1,81.714,69.782,80.833z"/>
		<path fill="#1DAC84" d="M109.501,86.113c0.16,0.479,0.24,0.923,0.24,1.319c0,0.721-0.381,1.701-1.14,2.94
			c-0.761,1.238-1.181,2.179-1.26,2.817c-2.241,0.642-4.161,0.96-5.76,0.96c-1.601,0-2.801-0.318-3.6-0.96
			c0-0.882-0.621-2.02-1.86-3.42c-1.241-1.396-1.781-2.62-1.62-3.66c0.559-0.156,0.84-0.396,0.84-0.721
			c0-0.239-0.141-0.6-0.42-1.079c-0.281-0.479-0.42-0.841-0.42-1.08c0-0.64,0.24-1.579,0.72-2.817c0.48-1.239,0.72-2.182,0.72-2.82
			c0-0.72-0.201-1.439-0.6-2.16c0-0.559,0-1.199,0-1.92c0-1.278-0.24-3-0.72-5.159c-0.48-2.641-0.761-4.317-0.84-5.04
			c-2.961,0.8-4.641,3.881-5.04,9.239c-0.24,2.961-1.2,6.281-2.88,9.96c0.159,0.563,0.24,1.2,0.24,1.92
			c0,0.721-0.141,1.86-0.42,3.421c-0.281,1.563-0.42,2.741-0.42,3.539c0,1.2,0.199,2.28,0.6,3.24
			c-0.081,0.079-0.461,0.499-1.14,1.26c-0.681,0.76-1.26,1.144-1.74,1.144c-0.24,0-0.44-0.081-0.6-0.24
			c-1.2-0.645-1.602-2.521-1.2-5.643c0.48-3.601,0.399-6-0.24-7.197c-0.081-0.802-0.042-2.28,0.12-4.44
			c0.16-2.559,0.24-4.438,0.24-5.64c0-6.48-1.8-10.239-5.4-11.28c0.081-1.439,1.521-3.078,4.32-4.92
			c1.92,0.72,2.88,2.241,2.88,4.561c0,0.32,0,0.764,0,1.319c0,0.563,0,0.96,0,1.2c0,1.842,0.439,3.281,1.32,4.32
			c0.318,0.077,0.6,0.117,0.84,0.117c0.399,0,0.799-0.276,1.2-0.84l0.84-1.438c-0.401-0.399-0.6-0.88-0.6-1.44
			c0-0.396,0.439-1.599,1.32-3.6c0.559-1.119,1.56-1.899,3-2.34c1.44-0.438,2.839-0.819,4.2-1.144
			c1.759,0.563,2.64,1.521,2.64,2.881c0,0.4-0.081,1.021-0.24,1.859c-0.161,0.84-0.24,1.461-0.24,1.86
			c0,1.118,0.438,2.001,1.32,2.64c0.079,0.642,0.279,2.04,0.6,4.2c0.319,1.761,0.48,3.161,0.48,4.199c0,2.238-0.6,4.198-1.8,5.881
			c0.879,4.238,2.32,6.6,4.32,7.08c0.079-0.159,0.438-1.08,1.08-2.763c0.399-1.039,0.999-1.801,1.8-2.277
			c0.319,0.479,1.039,0.761,2.16,0.84C108.46,84.874,109.18,85.314,109.501,86.113z"/>
		<path fill="#1DAC84" d="M136.5,86.113c0.16,0.479,0.24,0.923,0.24,1.319c0,0.721-0.381,1.701-1.14,2.94
			c-0.761,1.238-1.181,2.179-1.26,2.817c-2.241,0.642-4.161,0.96-5.76,0.96c-1.601,0-2.801-0.318-3.6-0.96
			c0-0.882-0.621-2.02-1.86-3.42c-1.241-1.396-1.781-2.62-1.62-3.66c0.559-0.156,0.84-0.396,0.84-0.721
			c0-0.239-0.141-0.6-0.42-1.079c-0.281-0.479-0.42-0.841-0.42-1.08c0-0.64,0.24-1.579,0.72-2.817c0.48-1.239,0.72-2.182,0.72-2.82
			c0-0.72-0.201-1.439-0.6-2.16c0-0.559,0-1.199,0-1.92c0-1.278-0.24-3-0.72-5.159c-0.48-2.641-0.761-4.317-0.84-5.04
			c-2.961,0.8-4.641,3.881-5.04,9.239c-0.24,2.961-1.2,6.281-2.88,9.96c0.159,0.563,0.24,1.2,0.24,1.92
			c0,0.721-0.141,1.86-0.42,3.421c-0.281,1.563-0.42,2.741-0.42,3.539c0,1.2,0.199,2.28,0.6,3.24
			c-0.081,0.079-0.461,0.499-1.14,1.26c-0.681,0.76-1.26,1.144-1.74,1.144c-0.24,0-0.44-0.081-0.6-0.24
			c-1.2-0.645-1.602-2.521-1.2-5.643c0.48-3.601,0.399-6-0.24-7.197c-0.081-0.802-0.042-2.28,0.12-4.44
			c0.16-2.559,0.24-4.438,0.24-5.64c0-6.48-1.8-10.239-5.4-11.28c0.081-1.439,1.521-3.078,4.32-4.92
			c1.92,0.72,2.88,2.241,2.88,4.561c0,0.32,0,0.764,0,1.319c0,0.563,0,0.96,0,1.2c0,1.842,0.439,3.281,1.32,4.32
			c0.318,0.077,0.6,0.117,0.84,0.117c0.399,0,0.799-0.276,1.2-0.84l0.84-1.438c-0.401-0.399-0.6-0.88-0.6-1.44
			c0-0.396,0.439-1.599,1.32-3.6c0.559-1.119,1.56-1.899,3-2.34c1.44-0.438,2.839-0.819,4.2-1.144
			c1.759,0.563,2.64,1.521,2.64,2.881c0,0.4-0.081,1.021-0.24,1.859c-0.161,0.84-0.24,1.461-0.24,1.86
			c0,1.118,0.438,2.001,1.32,2.64c0.079,0.642,0.279,2.04,0.6,4.2c0.319,1.761,0.48,3.161,0.48,4.199c0,2.238-0.6,4.198-1.8,5.881
			c0.879,4.238,2.32,6.6,4.32,7.08c0.079-0.159,0.438-1.08,1.08-2.763c0.399-1.039,0.999-1.801,1.8-2.277
			c0.319,0.479,1.039,0.761,2.16,0.84C135.459,84.874,136.179,85.314,136.5,86.113z"/>
		<path fill="#1DAC84" d="M160.378,85.753c0.879,0.398,1.32,1.041,1.32,1.92c0,1.842-1.68,3.897-5.04,6.181
			c-3.36,2.279-6.681,3.42-9.96,3.42c-2.561,0-4.56-0.801-6-2.397c0.079-0.723-0.24-1.604-0.96-2.643
			c-0.72-1.039-1.101-1.816-1.14-2.341c-0.041-0.519-0.38-2.259-1.02-5.22c-0.401-2.16-0.521-3.919-0.36-5.28
			c0.079-0.479-0.161-0.96-0.72-1.438c0.559-0.24,0.799-0.919,0.72-2.04c-0.24-0.24-0.36-0.521-0.36-0.84
			c0-0.399,0.399-1.119,1.2-2.16c0.799-1.039,1.2-1.92,1.2-2.643c0.079-3.12,0.12-6.276,0.12-9.479c0.48-3.681,1.839-6.36,4.08-8.04
			c2.88,0.081,5.719,1.722,8.52,4.92c-0.24,1.041,0.04,2.641,0.84,4.8c0.799,2.16,1.2,3.721,1.2,4.681
			c0,2.643-1.28,3.963-3.84,3.963c-0.561,0-1.581-0.159-3.06-0.48c-1.481-0.318-2.58-0.399-3.3-0.24
			c-1.041,0.162-1.841,0.841-2.4,2.04c-1.361,2.563-1.361,5.604,0,9.12c-0.48,0.161-0.72,0.563-0.72,1.2c0,1.121,0,1.641,0,1.561
			c0.96,0.4,1.44,1.199,1.44,2.399c0,0.72-0.24,1.32-0.72,1.8c1.999,3.841,3.918,5.761,5.76,5.761c0.879,0,1.759-0.278,2.64-0.841
			c1.119-0.161,2.76-1.316,4.92-3.479c-0.081-0.399-0.36-0.96-0.84-1.683c-0.48-0.721-0.72-1.317-0.72-1.801
			c0-1.438,0.879-2.159,2.64-2.159C156.937,84.313,158.458,84.793,160.378,85.753z M148.378,66.073
			c-0.24-1.681-0.521-3.357-0.84-5.037c-0.401-2.079-1.521-2.959-3.36-2.644c0.159,0.162,0.24,0.36,0.24,0.604
			c0,0.238-0.162,0.6-0.48,1.077c-0.321,0.479-0.48,0.804-0.48,0.963c0,0.317,0.24,0.6,0.72,0.84c-0.48,0.161-0.72,0.561-0.72,1.197
			v1.563c0.399,0.96,1.12,1.438,2.16,1.438C146.578,66.073,147.497,66.073,148.378,66.073z"/>
		<path fill="#1DAC84" d="M181.137,93.733c-0.561,1.398-1.8,2.939-3.72,4.62c-2.802,2.399-4.32,3.798-4.56,4.199
			c-6.961-2.234-10.603-6.502-10.921-12.806c0.399-0.319,0.6-0.682,0.6-1.078c0-0.397-0.24-0.938-0.72-1.614
			s-0.759-1.139-0.84-1.379c1.519-2.473,2.28-5.982,2.28-10.531c0-0.479,0-1.217,0-2.215c0-0.997,0-1.775,0-2.334
			c0-6.623,2.399-11.13,7.2-13.524c0.318,0,0.857-0.139,1.619-0.418c0.76-0.276,1.3-0.42,1.621-0.42c0.72,0,1.278,0.438,1.68,1.31
			l-0.721,0.714c1.279,0.477,2.479,1.585,3.601,3.328c1.119,1.744,1.68,3.368,1.68,4.872c0,0.793-0.161,1.466-0.479,2.021
			c-0.961,0.079-1.881,0.118-2.76,0.118c-1.121,0-1.881-0.433-2.281-1.299c0.48-0.315,0.699-1.003,0.66-2.066
			c-0.041-1.062,0.14-1.751,0.541-2.063c-0.568-1.34-1.258-2.011-2.068-2.011c-0.488,0-1.298,0.382-2.432,1.139
			c-1.137,0.758-1.987,1.178-2.555,1.257c-1.297,1.276-1.945,2.951-1.945,5.021c0,0.879,0.18,2.274,0.539,4.188
			c0.36,1.914,0.541,3.351,0.541,4.307c0,1.275-0.24,2.396-0.721,3.352c-1.279,0.237-1.92,0.797-1.92,1.675
			c0,0.318,0.16,0.916,0.48,1.794c0.318,0.878,0.479,1.557,0.479,2.032c0,0.64-0.239,1.159-0.72,1.557l0.72,0.716l-0.6,0.722
			c0.879,0.315,1.397,1.193,1.56,2.632c0.16,1.834,0.439,2.986,0.84,3.469c0.48,0.717,1,1.594,1.561,2.631
			c0.318,0.479,0.6,0.719,0.84,0.719c0.318,0,1.238-0.237,2.76-0.721c0.24-0.4,0.9-1.001,1.98-1.8
			c1.08-0.801,1.619-1.521,1.619-2.16c0-0.32-0.119-0.72-0.359-1.2c-0.641-1.198-0.96-1.92-0.96-2.159
			c-0.081-0.316,0.159-1.156,0.72-2.521l0.48-0.96c0.318-0.879,0.639-1.32,0.96-1.32c0.159,0,0.6,0.342,1.319,1.021
			c0.721,0.681,1.44,0.938,2.16,0.777c0.721,0.4,1.08,1.241,1.08,2.521C181.977,91.033,181.695,92.332,181.137,93.733z"/>
		<path fill="#1DAC84" d="M202.736,84.313c1.2,1.04,1.801,2.24,1.801,3.603c0,1.041-0.84,3.12-2.521,6.237
			c-1.28,2.399-3.28,3.603-6,3.603c-1.041,0-2.76-0.281-5.159-0.84c-1.921-2.24-3.041-5.358-3.361-9.36
			c0-0.239-0.041-3.639-0.119-10.199c0.559-0.56,0.799-1.039,0.72-1.438c-0.479-0.159-0.72-0.399-0.72-0.723
			c0-0.076,0.439-0.76,1.32-2.04c-0.082-0.396-0.121-0.84-0.121-1.317c0-0.562,0.14-1.398,0.42-2.521
			c0.279-1.12,0.421-1.921,0.421-2.397c0-0.799-0.24-1.521-0.72-2.16c-0.48,0-1.182,0.18-2.101,0.54
			c-0.921,0.357-1.581,0.54-1.979,0.54c-0.881,0-1.603-0.603-2.16-1.8c0.08-1.2-0.159-1.922-0.721-2.16
			c0.24-1.76,1.899-2.778,4.98-3.063c3.079-0.277,4.62-0.979,4.62-2.101c0-0.799-0.401-1.879-1.2-3.24
			c0.48-0.159,0.721-0.559,0.721-1.199c0-1.12,0-1.639,0-1.561c-0.082-0.399-0.082-1.603,0-3.603
			c0.078-1.519-0.162-2.68-0.721-3.479c-1.041,0.479-2.441,1.438-4.2,2.88c-0.561-0.72-0.84-1.479-0.84-2.279
			c0-0.721,0.279-1.54,0.84-2.46c0.56-0.919,0.8-1.459,0.72-1.62l-0.72-0.721c0.88-0.96,1.999-1.438,3.36-1.438
			c1.359,0,2.561,0.479,3.6,1.438c1.039,0.96,1.52,2.16,1.44,3.604c0.079,2.479,0.12,5,0.12,7.56c0,3.12-0.521,5.479-1.561,7.08
			c0.48,0.081,1.219,0.342,2.221,0.78c0.998,0.438,1.74,0.657,2.22,0.657c0.799,0,1.44-0.479,1.92-1.438
			c1.2-0.078,1.899,0.141,2.101,0.66c0.198,0.521,0.299,0.979,0.299,1.38c0,1.361-1.121,2.601-3.359,3.72
			c-2.801,1.361-4.361,2.241-4.68,2.644c-0.48,2.237-0.961,4.479-1.44,6.72c-0.562,2.64-0.84,4.842-0.84,6.6
			c0,1.921,0.319,3.802,0.96,5.644c-0.081,1.121,0.12,1.841,0.6,2.158c0,1.12-0.041,2.239-0.119,3.358
			c0.078,1.359,0.6,2.319,1.56,2.88c2.159,0.24,3.438-0.521,3.84-2.277c0.159-1.602,0.399-3.222,0.72-4.859
			C199.216,84.654,200.496,83.994,202.736,84.313z"/>
	</g>
</g>
<g id="Ebene_2">
</g>
</svg>
