<?xml version="1.0" encoding="utf-8"?>
<!-- Generator: Adobe Illustrator 15.1.0, SVG Export Plug-In . SVG Version: 6.00 Build 0)  -->
<!DOCTYPE svg PUBLIC "-//W3C//DTD SVG 1.1//EN" "http://www.w3.org/Graphics/SVG/1.1/DTD/svg11.dtd">
<svg version="1.1" id="Ebene_1" xmlns="http://www.w3.org/2000/svg" xmlns:xlink="http://www.w3.org/1999/xlink" x="0px" y="0px"
	 width="163.209px" height="78.996px" viewBox="0 0 163.209 78.996" enable-background="new 0 0 163.209 78.996"
	 xml:space="preserve">
<g id="Ebene_2">
</g>
<g id="Ebene_3">
</g>
<g id="Ebene_1_2_">
	<g>
		<g>
			<path fill="#096D52" d="M502.525,608.384c-0.201,0.527-0.66,1.241-1.383,2.138c-1.197-1-1.979-1.5-2.34-1.5
				c-0.318,0-0.72,0.12-1.2,0.36c-1.278,0.721-2.1,1.843-2.46,3.363c-0.561,2.402-0.897,3.745-1.02,4.024
				c0,0.521,0.06,0.971,0.18,1.354c0.12,0.382,0.182,0.593,0.182,0.632c0,0.199-0.359,0.701-1.079,1.503l0.72,0.357v0.724
				c-0.563-0.08-0.92,0.04-1.08,0.358c0.52,1.041,0.78,1.702,0.78,1.982c0,0.16-0.021,0.319-0.063,0.479
				c-0.521,0.2-0.76,0.9-0.72,2.104c0,0.16,0,0.359,0,0.601c0,0.281-0.06,0.692-0.18,1.232c-0.12,0.541-0.183,0.951-0.183,1.229
				c0,0.4,0.104,0.781,0.312,1.144c-0.035,0.44-0.021,1.902,0.051,4.387c0,1.805-0.12,3.267-0.36,4.388
				c0.159,0.923,0.762,2.687,1.802,5.288c-0.119,0.159-0.182,0.341-0.182,0.541c0,0.358,0.3,0.882,0.9,1.563
				c0.6,0.682,0.938,1.142,1.02,1.382c-0.238,0.12-0.357,0.28-0.357,0.479c0,0.12,0.106,0.33,0.33,0.632
				c0.22,0.301,0.35,0.512,0.39,0.631c2.08-0.761,3.459-1.479,4.14-2.159c0.439-0.438,0.66-1.021,0.66-1.74c0-0.08,0-0.17,0-0.271
				c0-0.1,0-0.169,0-0.21c0-0.841,0.26-1.602,0.78-2.279c1.08,0.88,1.62,1.84,1.62,2.88c0,1.319-0.711,2.521-2.13,3.602
				c-1.421,1.08-2.771,1.619-4.052,1.619c-1-0.039-1.921-0.699-2.761-1.98c-1.161-1.764-1.881-2.743-2.16-2.944
				c-1.041-3.442-1.56-7.711-1.56-12.798c0-3.885,0.3-7.59,0.898-11.115c0.239-1.479,0.352-3.121,0.329-4.926
				c-0.021-1.802,0.29-3.465,0.933-4.986c0.438-1.12,1.299-2.604,2.58-4.444c0.919-0.603,1.938-0.9,3.06-0.9
				C500.285,607.101,501.484,607.527,502.525,608.384z"/>
			<path fill="#096D52" d="M516.146,637.042l-2.101,2.101l-1.38-1.74c0.84-0.601,1.26-1.34,1.26-2.221
				c0-0.319-0.07-0.619-0.21-0.899c-0.141-0.276-0.411-0.42-0.81-0.42c-0.684,0-1,0-0.96,0l-2.82,4.92
				c0.12,0.44,0.18,0.922,0.18,1.439c0,0.562-0.081,1.421-0.238,2.58c-0.159,1.161-0.239,2.021-0.239,2.58
				c0,1.521,0.459,2.72,1.38,3.601c0.12,0.72-0.12,1.299-0.72,1.739c-0.24-0.119-1.143-0.119-2.7,0
				c-1.2,0.08-1.941-0.28-2.222-1.079c0.881-0.36,1.439-1.121,1.682-2.28c0.08-0.396,0.12-1.38,0.12-2.938
				c-0.32-0.439-0.48-0.899-0.48-1.38c0-0.399,0.16-0.979,0.48-1.74c0.317-0.759,0.479-1.339,0.479-1.739
				c0-0.277-0.06-0.54-0.18-0.78l1.08-6.3c-0.161-0.16-0.46-0.897-0.9-2.221c-0.319-0.919-0.84-1.38-1.56-1.38
				c-0.201,0-0.441,0-0.721,0c-0.04-0.112-0.062-0.227-0.062-0.336c0-0.228,0.14-0.47,0.42-0.73c0.44-0.336,0.71-0.53,0.813-0.589
				c0.1-0.057,0.21-0.084,0.329-0.084c0.601,0,1.398,0.5,2.398,1.5c0.16,0.16,0.279,0.96,0.36,2.399
				c0.04,1.161,0.62,1.641,1.739,1.438c0.277-1,1.438-1.46,3.479-1.38c0.521,0.641,1.04,1.28,1.56,1.92
				c0.642,0.8,0.962,1.5,0.962,2.103c0,0.561-0.263,1.077-0.779,1.56L516.146,637.042z"/>
			<path fill="#096D52" d="M528.865,644.601c0.438,0.2,0.66,0.521,0.66,0.96c0,0.92-0.843,1.949-2.521,3.09
				c-1.68,1.143-3.34,1.71-4.98,1.71c-1.278,0-2.277-0.397-3-1.2c0.041-0.357-0.117-0.801-0.479-1.317
				c-0.36-0.521-0.55-0.909-0.57-1.17c-0.02-0.261-0.188-1.13-0.51-2.609c-0.201-1.08-0.261-1.96-0.18-2.641
				c0.04-0.24-0.081-0.479-0.36-0.72c0.279-0.12,0.399-0.459,0.36-1.021c-0.12-0.119-0.183-0.259-0.183-0.42
				c0-0.199,0.2-0.561,0.603-1.08c0.396-0.519,0.6-0.96,0.6-1.319c0.04-1.561,0.063-3.14,0.063-4.737
				c0.237-1.84,0.92-3.183,2.04-4.021c1.438,0.04,2.856,0.86,4.26,2.46c-0.12,0.521,0.02,1.319,0.42,2.399
				c0.397,1.08,0.6,1.857,0.6,2.34c0,1.32-0.641,1.979-1.92,1.979c-0.28,0-0.791-0.078-1.53-0.237
				c-0.738-0.159-1.289-0.199-1.647-0.12c-0.521,0.081-0.921,0.42-1.2,1.021c-0.681,1.28-0.681,2.802,0,4.563
				c-0.24,0.081-0.359,0.28-0.359,0.601c0,0.563,0,0.82,0,0.779c0.479,0.201,0.722,0.602,0.722,1.2c0,0.357-0.12,0.659-0.36,0.897
				c1,1.92,1.959,2.881,2.88,2.881c0.439,0,0.88-0.142,1.32-0.42c0.56-0.081,1.38-0.658,2.46-1.738c-0.041-0.2-0.18-0.48-0.42-0.842
				c-0.24-0.358-0.36-0.658-0.36-0.898c0-0.72,0.439-1.08,1.32-1.08C527.145,643.881,527.904,644.121,528.865,644.601z
				 M522.865,634.761c-0.12-0.84-0.263-1.681-0.42-2.521c-0.201-1.04-0.763-1.479-1.683-1.317c0.08,0.081,0.12,0.181,0.12,0.3
				c0,0.12-0.081,0.301-0.24,0.54c-0.158,0.24-0.237,0.397-0.237,0.479c0,0.16,0.12,0.303,0.357,0.42
				c-0.237,0.081-0.357,0.28-0.357,0.603v0.78c0.198,0.479,0.56,0.72,1.08,0.72C521.965,634.761,522.424,634.761,522.865,634.761z"
				/>
			<path fill="#096D52" d="M546.204,647.129c-1.04,0.953-2.22,1.433-3.54,1.433c-0.682,0-1.36-0.135-2.04-0.402
				c-0.36-0.489-0.78-0.735-1.261-0.735c-0.32,0-0.879,0.188-1.683,0.567c-0.801,0.382-1.397,0.57-1.8,0.57
				c-0.6,0-1.14-0.28-1.62-0.841c-0.356,0.24-0.76,0.358-1.196,0.358c-0.764,0-1.644-0.341-2.644-1.021
				c-0.201-0.721-0.3-1.439-0.3-2.16c0-1.438,0.45-2.63,1.351-3.568c0.899-0.938,2.069-1.409,3.513-1.409
				c0.799,0,1.617,0.159,2.459,0.479c0.119,0.04,0.358,0.271,0.721,0.689s0.68,0.63,0.96,0.63c0.239,0,0.499-0.219,0.78-0.659
				c-0.081-0.32-0.104-1.08-0.063-2.28c0.039-0.96-0.06-1.656-0.3-2.101c0.641-2.039,0.96-4.719,0.96-8.039
				c0-4.479,0.037-7.2,0.109-8.16l0.551-0.84c-0.201-0.24-0.54-1.4-1.021-3.479c-0.359-1.438-1.104-2.341-2.223-2.698
				c-0.08-0.12-0.119-0.263-0.119-0.42c0-0.603,0.398-1.119,1.199-1.563c1.08,0.32,1.82,0.84,2.221,1.563
				c0.239,0.438,0.439,1.221,0.603,2.34c0.159,1.12,0.42,1.979,0.778,2.58c0.158,0.278,0.238,0.561,0.238,0.84
				c0,0.321-0.107,0.761-0.33,1.32c-0.221,0.561-0.33,1-0.33,1.317c0,0.16,0.054,0.44,0.15,0.842c0.1,0.398,0.15,0.738,0.15,1.021
				c0,0.479-0.104,1.11-0.304,1.891c-0.197,0.779-0.3,1.33-0.3,1.649c0,0.439,0.103,0.84,0.3,1.2
				c-0.188,2.561-0.549,6.42-1.079,11.58l0.422,0.3c-0.239,0.12-0.359,0.261-0.359,0.42c0,0.12,0.08,0.301,0.24,0.54
				c0.156,0.24,0.238,0.42,0.238,0.54s-0.119,0.24-0.358,0.357c0.276,0.4,0.42,0.94,0.42,1.62c0,0.684,0.099,1.2,0.3,1.563
				c-0.28,0.239-0.42,0.438-0.42,0.601s0.479,0.3,1.439,0.42c0.438-0.601,1.038-0.84,1.801-0.721L546.204,647.129z M538.164,644.24
				c-0.563,0-1.313-0.237-2.25-0.72c-0.94-0.479-1.65-0.721-2.13-0.721c-0.563,0-1.104,0.239-1.62,0.721c0-0.04,0,0.34,0,1.141
				c0,0.439,0.12,0.763,0.357,0.961c0.278-0.119,0.603-0.182,0.961-0.182s0.908,0.09,1.648,0.271c0.739,0.181,1.25,0.271,1.53,0.271
				C537.543,645.981,538.044,645.401,538.164,644.24z"/>
			<path fill="#096D52" d="M549.563,619.82l-0.72,2.103c-0.041-0.039-0.76-0.183-2.16-0.42c-0.84-0.159-1.157-0.723-0.96-1.683
				c0.521-0.76,1.301-1.141,2.342-1.141C548.904,618.681,549.403,619.061,549.563,619.82z M553.104,648.561
				c0.039,0.159,0.063,0.339,0.063,0.54c0,0.319-0.121,0.771-0.36,1.35c-0.238,0.579-0.381,0.99-0.42,1.229
				c-0.521,0.279-1.041,0.421-1.56,0.421c-1.361,0-2.724-0.841-4.08-2.521c0.438-0.199,0.669-0.722,0.688-1.562
				c0.021-0.841,0.271-1.359,0.75-1.562c-0.641-0.722-0.829-1.852-0.567-3.392c0.26-1.539,0.211-2.63-0.15-3.271
				c0.479-1.079,0.76-2.521,0.841-4.318c0.12-2.8,0.2-4.28,0.239-4.438c-0.2-0.359-0.62-0.642-1.26-0.842
				c-0.644-0.198-1.04-0.52-1.199-0.96c0.438-0.316,0.879-0.64,1.32-0.96c0.6-0.438,1.079-0.66,1.438-0.66
				c0.48,0,0.84,0.32,1.08,0.96l-0.721,0.66c1.04,0.24,1.561,0.762,1.561,1.563c0,0.2-0.051,0.551-0.147,1.051
				c-0.102,0.5-0.15,0.891-0.15,1.17c0,0.32,0.101,0.58,0.301,0.779c-0.641,1.279-0.938,3.021-0.897,5.221
				c0.039,3.84,0.061,5.62,0.061,5.34c-0.479,0.28-0.721,0.603-0.721,0.96c0,0.28,0.17,0.7,0.51,1.263
				c0.34,0.561,0.53,0.979,0.57,1.26c0.52,0,1.021-0.021,1.5-0.063C552.303,647.819,552.744,648.081,553.104,648.561z"/>
			<path fill="#096D52" d="M563.184,643.881c0.603,0.521,0.899,1.119,0.899,1.8c0,0.521-0.42,1.561-1.26,3.12
				c-0.643,1.199-1.644,1.801-3,1.801c-0.521,0-1.38-0.141-2.58-0.421c-0.96-1.12-1.521-2.679-1.684-4.681
				c0-0.119-0.02-1.818-0.059-5.102c0.279-0.278,0.396-0.52,0.356-0.721c-0.237-0.079-0.356-0.199-0.356-0.359
				c0-0.039,0.219-0.38,0.659-1.021c-0.04-0.199-0.063-0.42-0.063-0.659c0-0.28,0.068-0.7,0.209-1.261
				c0.144-0.563,0.211-0.96,0.211-1.2c0-0.398-0.119-0.759-0.357-1.079c-0.239,0-0.594,0.09-1.053,0.271
				c-0.461,0.181-0.791,0.271-0.987,0.271c-0.44,0-0.803-0.301-1.08-0.9c0.041-0.6-0.08-0.96-0.359-1.079
				c0.119-0.88,0.949-1.391,2.49-1.528c1.539-0.143,2.31-0.489,2.31-1.051c0-0.398-0.197-0.938-0.601-1.619
				c0.24-0.079,0.359-0.279,0.359-0.603c0-0.56,0-0.816,0-0.778c-0.039-0.198-0.039-0.802,0-1.802c0.039-0.76-0.08-1.34-0.359-1.737
				c-0.521,0.237-1.221,0.72-2.1,1.438c-0.28-0.357-0.423-0.74-0.423-1.141c0-0.359,0.143-0.771,0.423-1.229
				c0.276-0.46,0.396-0.729,0.356-0.811l-0.356-0.359c0.438-0.479,1-0.721,1.68-0.721s1.279,0.24,1.801,0.721
				c0.521,0.479,0.759,1.08,0.72,1.8c0.039,1.24,0.063,2.5,0.063,3.78c0,1.563-0.26,2.74-0.779,3.54
				c0.24,0.04,0.609,0.17,1.109,0.39c0.5,0.224,0.87,0.33,1.107,0.33c0.399,0,0.723-0.237,0.961-0.72
				c0.602-0.04,0.948,0.07,1.052,0.33c0.1,0.26,0.146,0.49,0.146,0.689c0,0.681-0.561,1.301-1.68,1.857
				c-1.4,0.684-2.18,1.12-2.34,1.319c-0.24,1.121-0.48,2.241-0.722,3.359c-0.278,1.318-0.421,2.421-0.421,3.301
				c0,0.96,0.159,1.897,0.479,2.817c-0.04,0.563,0.061,0.922,0.301,1.08c0,0.563-0.021,1.12-0.061,1.682
				c0.039,0.681,0.301,1.159,0.777,1.438c1.079,0.12,1.723-0.261,1.92-1.141c0.079-0.801,0.2-1.609,0.36-2.431
				C561.422,644.052,562.063,643.722,563.184,643.881z"/>
			<path fill="#096D52" d="M574.223,650.421c0.563,0.8,0.842,1.72,0.842,2.76c0,1.358-0.439,2.71-1.318,4.051
				c-0.881,1.34-1.9,2.329-3.063,2.97c-0.236,0.159-0.46,0.24-0.658,0.24c-0.278,0-0.568-0.201-0.868-0.601
				c-0.303-0.4-0.531-0.603-0.69-0.603c-0.16,0-0.358,0.103-0.6,0.303c0-0.08-0.66-1.08-1.98-3c-0.72-1.04-1.221-2.16-1.5-3.36
				c-0.04-0.16-0.18-0.42-0.42-0.779c-0.239-0.357-0.356-0.66-0.356-0.897c0-0.12,0.02-0.264,0.06-0.42
				c0.399,0,0.699-0.224,0.899-0.66c0.317-0.723,0.5-1.08,0.541-1.08c0.316,0.2,1.197,0.301,2.64,0.301
				c1.159,0,1.897,0.379,2.22,1.14c0.12,0.199,0.181,0.383,0.181,0.54c0,0.359-0.237,0.66-0.721,0.899
				c-0.681,0.32-1.079,0.54-1.199,0.66c-0.278-0.32-0.521-0.44-0.721-0.359c-0.318,0.359-0.479,0.739-0.479,1.142
				c0,0.561,0.407,1.341,1.229,2.341c0.819,1,1.29,1.7,1.41,2.101c0.12,0.039,0.26,0.063,0.42,0.063c0.479,0,0.939-0.264,1.38-0.78
				c0.32-0.44,0.643-0.899,0.96-1.38c0.04-0.32,0.184-1.063,0.421-2.223c0.199-1.041,0.3-1.857,0.3-2.46
				c0-0.641-0.117-1.181-0.357-1.62c-0.04-0.078-0.36-0.381-0.96-0.897c-0.4-0.359-0.54-0.76-0.42-1.199
				c-1.32-0.561-2.46-1.801-3.42-3.721c-1.041-2.079-2.001-3.42-2.881-4.021c-0.2-0.276-0.303-0.601-0.303-0.96
				c0-0.357,0.144-0.931,0.421-1.71c0.278-0.778,0.42-1.351,0.42-1.71c0-0.601-0.278-1.12-0.841-1.561
				c0-0.199,0.052-0.489,0.15-0.87c0.1-0.379,0.148-0.649,0.148-0.813c0-0.316-0.102-0.577-0.302-0.777
				c0.317-0.199,0.676-0.619,1.072-1.263c0.396-0.64,0.734-1.039,1.013-1.197c2.188-0.199,4.15,0.979,5.898,3.54
				c0.238,0.881,0.354,1.68,0.354,2.397c0,1.563-0.579,2.98-1.736,4.26c-0.12,0.04-0.24,0.063-0.36,0.063
				c-0.2,0-0.46-0.119-0.78-0.359c-0.317-0.238-0.52-0.38-0.6-0.42c0.039-0.318,0.38-0.78,1.021-1.38
				c0.521-0.52,0.762-1,0.723-1.438c-0.12-0.842-0.263-1.712-0.42-2.609c-0.161-0.899-0.604-1.55-1.32-1.949
				c-0.399-0.2-0.819-0.301-1.26-0.301c-1.281,0-1.92,0.461-1.92,1.38c0,0.24,0.12,0.479,0.356,0.721
				c-0.039,0.16-0.06,0.32-0.06,0.479c0,0.201,0.039,0.521,0.12,0.96c0.079,0.439,0.12,0.78,0.12,1.021
				c0,0.359-0.063,0.7-0.184,1.021l0.36,0.359c-0.12,0.278-0.18,0.579-0.18,0.898c0,0.72,0.276,1.66,0.84,2.819
				c0.479,0.881,0.96,1.738,1.438,2.58c0.279,0.561,1.239,1.699,2.881,3.42C573.463,647.78,574.143,649.101,574.223,650.421z"/>
		</g>
	</g>
</g>
<g id="Ebene_3_1_">
</g>
<path fill="#086E52" d="M50.747,13.614c-0.201,0.529-0.66,1.242-1.38,2.138c-1.2-1-1.98-1.5-2.34-1.5c-0.321,0-0.72,0.12-1.2,0.36
	c-1.281,0.721-2.1,1.843-2.46,3.365c-0.561,2.403-0.9,3.746-1.02,4.025c0,0.521,0.06,0.971,0.18,1.352
	c0.12,0.381,0.18,0.592,0.18,0.631c0,0.201-0.36,0.702-1.08,1.503l0.72,0.36v0.721c-0.561-0.08-0.92,0.04-1.08,0.361
	c0.52,1.041,0.78,1.702,0.78,1.982c0,0.16-0.021,0.32-0.06,0.481c-0.521,0.2-0.76,0.9-0.72,2.103c0,0.16,0,0.36,0,0.601
	c0,0.281-0.06,0.692-0.18,1.232c-0.12,0.541-0.18,0.951-0.18,1.231c0,0.401,0.102,0.782,0.309,1.142
	c-0.035,0.441-0.018,1.903,0.051,4.387c0,1.803-0.12,3.265-0.36,4.386c0.159,0.923,0.759,2.686,1.8,5.288
	c-0.12,0.161-0.18,0.341-0.18,0.541c0,0.36,0.3,0.882,0.9,1.563c0.6,0.682,0.939,1.142,1.02,1.382c-0.24,0.12-0.36,0.28-0.36,0.48
	c0,0.12,0.109,0.33,0.33,0.631c0.22,0.301,0.35,0.512,0.39,0.631c2.08-0.76,3.459-1.479,4.14-2.159c0.439-0.44,0.66-1.021,0.66-1.74
	c0-0.08,0-0.17,0-0.271c0-0.099,0-0.169,0-0.21c0-0.84,0.26-1.599,0.78-2.279c1.08,0.88,1.62,1.84,1.62,2.88
	c0,1.319-0.711,2.52-2.13,3.6c-1.42,1.08-2.77,1.62-4.05,1.62c-1-0.04-1.92-0.701-2.76-1.982c-1.161-1.763-1.881-2.743-2.16-2.944
	c-1.041-3.444-1.56-7.711-1.56-12.798c0-3.885,0.3-7.59,0.9-11.115c0.24-1.48,0.35-3.123,0.33-4.926
	c-0.021-1.802,0.29-3.465,0.93-4.987c0.439-1.121,1.299-2.604,2.58-4.446c0.919-0.6,1.939-0.9,3.06-0.9
	C48.506,12.332,49.707,12.758,50.747,13.614z"/>
<path fill="#086E52" d="M64.367,42.271l-2.1,2.101l-1.38-1.74c0.84-0.601,1.26-1.34,1.26-2.221c0-0.319-0.07-0.619-0.21-0.899
	c-0.141-0.279-0.411-0.42-0.81-0.42c-0.681,0-1,0-0.96,0l-2.82,4.92c0.12,0.44,0.18,0.921,0.18,1.439c0,0.562-0.081,1.421-0.24,2.58
	c-0.16,1.161-0.24,2.021-0.24,2.58c0,1.521,0.459,2.72,1.38,3.601c0.12,0.72-0.12,1.299-0.72,1.739c-0.24-0.119-1.14-0.119-2.7,0
	c-1.2,0.08-1.941-0.28-2.22-1.079c0.879-0.36,1.44-1.121,1.68-2.28c0.08-0.399,0.12-1.38,0.12-2.94
	c-0.32-0.439-0.48-0.899-0.48-1.38c0-0.399,0.16-0.979,0.48-1.74c0.32-0.759,0.48-1.339,0.48-1.739c0-0.279-0.06-0.54-0.18-0.78
	l1.08-6.3c-0.161-0.16-0.46-0.9-0.9-2.221c-0.32-0.919-0.84-1.38-1.56-1.38c-0.201,0-0.441,0-0.72,0
	c-0.04-0.112-0.06-0.224-0.06-0.336c0-0.225,0.14-0.468,0.42-0.73c0.44-0.336,0.71-0.532,0.81-0.589
	c0.1-0.057,0.21-0.084,0.33-0.084c0.6,0,1.4,0.5,2.4,1.5c0.16,0.16,0.279,0.96,0.36,2.399c0.04,1.161,0.62,1.641,1.74,1.44
	c0.279-1,1.44-1.46,3.48-1.38c0.52,0.64,1.04,1.28,1.56,1.92c0.639,0.8,0.96,1.5,0.96,2.1c0,0.561-0.261,1.08-0.78,1.56
	L64.367,42.271z"/>
<path fill="#086E52" d="M77.087,49.832c0.439,0.2,0.66,0.52,0.66,0.96c0,0.92-0.84,1.949-2.521,3.09c-1.68,1.14-3.34,1.71-4.98,1.71
	c-1.281,0-2.28-0.4-3-1.2c0.04-0.36-0.12-0.801-0.48-1.32s-0.55-0.909-0.57-1.17c-0.021-0.26-0.19-1.13-0.51-2.609
	c-0.201-1.08-0.261-1.96-0.18-2.641c0.04-0.24-0.081-0.479-0.36-0.72c0.279-0.12,0.399-0.459,0.36-1.021
	c-0.12-0.119-0.18-0.259-0.18-0.42c0-0.199,0.2-0.56,0.6-1.08c0.399-0.519,0.6-0.96,0.6-1.319c0.04-1.561,0.06-3.14,0.06-4.74
	c0.24-1.839,0.92-3.18,2.04-4.02c1.44,0.04,2.859,0.86,4.26,2.46c-0.12,0.52,0.02,1.319,0.42,2.399c0.399,1.08,0.6,1.86,0.6,2.34
	c0,1.32-0.641,1.98-1.92,1.98c-0.281,0-0.791-0.08-1.53-0.24c-0.741-0.159-1.29-0.199-1.65-0.12c-0.521,0.081-0.921,0.42-1.2,1.021
	c-0.681,1.28-0.681,2.8,0,4.56c-0.24,0.081-0.36,0.28-0.36,0.601c0,0.561,0,0.82,0,0.779c0.48,0.201,0.72,0.601,0.72,1.2
	c0,0.36-0.12,0.66-0.36,0.9c1,1.92,1.959,2.88,2.88,2.88c0.439,0,0.879-0.141,1.32-0.42c0.56-0.081,1.38-0.66,2.46-1.74
	c-0.041-0.2-0.18-0.48-0.42-0.84c-0.24-0.36-0.36-0.66-0.36-0.9c0-0.72,0.439-1.08,1.32-1.08
	C75.366,49.111,76.126,49.351,77.087,49.832z M71.086,39.991c-0.12-0.84-0.26-1.68-0.42-2.52c-0.201-1.04-0.76-1.479-1.68-1.32
	c0.08,0.081,0.12,0.181,0.12,0.3c0,0.12-0.081,0.301-0.24,0.54c-0.161,0.24-0.24,0.4-0.24,0.48c0,0.16,0.12,0.3,0.36,0.42
	c-0.24,0.081-0.36,0.28-0.36,0.6v0.78c0.2,0.48,0.56,0.72,1.08,0.72C70.187,39.991,70.646,39.991,71.086,39.991z"/>
<path fill="#086E52" d="M94.426,52.359c-1.04,0.954-2.22,1.433-3.54,1.433c-0.681,0-1.36-0.135-2.04-0.402
	c-0.36-0.492-0.78-0.738-1.261-0.738c-0.32,0-0.879,0.19-1.68,0.57s-1.4,0.57-1.8,0.57c-0.6,0-1.14-0.28-1.62-0.841
	c-0.359,0.24-0.76,0.36-1.199,0.36c-0.761,0-1.641-0.34-2.641-1.02c-0.201-0.721-0.3-1.44-0.3-2.16c0-1.44,0.45-2.63,1.351-3.57
	c0.899-0.939,2.069-1.41,3.51-1.41c0.799,0,1.619,0.16,2.459,0.48c0.121,0.04,0.361,0.27,0.721,0.689s0.68,0.63,0.96,0.63
	c0.239,0,0.499-0.219,0.78-0.659c-0.081-0.32-0.101-1.08-0.061-2.28c0.039-0.96-0.06-1.659-0.3-2.101
	c0.64-2.039,0.96-4.719,0.96-8.039c0-4.479,0.037-7.2,0.109-8.16l0.551-0.84c-0.201-0.24-0.54-1.4-1.02-3.48
	c-0.36-1.44-1.102-2.34-2.221-2.7c-0.08-0.12-0.119-0.26-0.119-0.42c0-0.6,0.398-1.119,1.199-1.56c1.08,0.32,1.82,0.84,2.221,1.56
	c0.239,0.44,0.439,1.221,0.6,2.34c0.159,1.12,0.42,1.98,0.779,2.58c0.16,0.28,0.24,0.561,0.24,0.84c0,0.321-0.11,0.761-0.33,1.32
	c-0.221,0.561-0.33,1-0.33,1.32c0,0.16,0.051,0.44,0.15,0.84c0.1,0.4,0.15,0.74,0.15,1.02c0,0.48-0.101,1.11-0.301,1.891
	c-0.2,0.779-0.3,1.33-0.3,1.649c0,0.441,0.1,0.84,0.3,1.2c-0.189,2.561-0.549,6.42-1.08,11.58l0.42,0.3
	c-0.239,0.12-0.359,0.261-0.359,0.42c0,0.12,0.08,0.301,0.24,0.54c0.159,0.24,0.24,0.42,0.24,0.54s-0.121,0.24-0.36,0.36
	c0.279,0.4,0.42,0.94,0.42,1.62c0,0.681,0.099,1.2,0.3,1.56c-0.28,0.24-0.42,0.44-0.42,0.601s0.48,0.3,1.439,0.42
	c0.44-0.601,1.04-0.84,1.801-0.721L94.426,52.359z M86.386,49.471c-0.561,0-1.311-0.24-2.25-0.72c-0.94-0.48-1.65-0.721-2.13-0.721
	c-0.562,0-1.101,0.24-1.62,0.721c0-0.04,0,0.34,0,1.14c0,0.44,0.12,0.761,0.359,0.96c0.279-0.12,0.601-0.18,0.961-0.18
	c0.359,0,0.909,0.09,1.649,0.27c0.739,0.181,1.25,0.271,1.53,0.271C85.765,51.211,86.266,50.631,86.386,49.471z"/>
<path fill="#086E52" d="M97.785,25.051l-0.72,2.1c-0.041-0.039-0.76-0.18-2.16-0.42c-0.84-0.159-1.16-0.72-0.96-1.68
	c0.52-0.76,1.3-1.141,2.34-1.141C97.126,23.911,97.625,24.292,97.785,25.051z M101.325,53.792c0.039,0.159,0.061,0.339,0.061,0.54
	c0,0.319-0.121,0.77-0.36,1.35c-0.24,0.579-0.381,0.99-0.42,1.229c-0.521,0.28-1.041,0.421-1.56,0.421
	c-1.361,0-2.721-0.841-4.08-2.521c0.439-0.2,0.669-0.72,0.689-1.56c0.02-0.841,0.27-1.359,0.75-1.561
	c-0.641-0.72-0.83-1.85-0.57-3.39c0.26-1.539,0.211-2.63-0.15-3.271c0.48-1.08,0.76-2.52,0.841-4.319c0.12-2.8,0.2-4.28,0.239-4.44
	c-0.2-0.36-0.62-0.64-1.26-0.84c-0.641-0.2-1.04-0.52-1.199-0.96c0.439-0.319,0.879-0.64,1.32-0.96c0.6-0.439,1.079-0.66,1.439-0.66
	c0.48,0,0.84,0.32,1.08,0.96l-0.721,0.66c1.04,0.24,1.561,0.76,1.561,1.56c0,0.201-0.051,0.551-0.15,1.051s-0.15,0.891-0.15,1.17
	c0,0.32,0.1,0.58,0.301,0.779c-0.641,1.281-0.94,3.021-0.9,5.221c0.039,3.84,0.061,5.62,0.061,5.34c-0.48,0.28-0.721,0.6-0.721,0.96
	c0,0.28,0.17,0.7,0.51,1.26c0.34,0.561,0.53,0.98,0.57,1.26c0.52,0,1.021-0.021,1.5-0.06
	C100.524,53.05,100.966,53.311,101.325,53.792z"/>
<path fill="#086E52" d="M111.405,49.111c0.6,0.521,0.9,1.12,0.9,1.8c0,0.521-0.42,1.561-1.26,3.12c-0.641,1.2-1.641,1.801-3,1.801
	c-0.521,0-1.381-0.141-2.58-0.421c-0.961-1.12-1.521-2.679-1.681-4.68c0-0.12-0.021-1.819-0.06-5.1
	c0.279-0.279,0.398-0.52,0.359-0.721c-0.24-0.079-0.359-0.199-0.359-0.359c0-0.039,0.219-0.38,0.66-1.021
	c-0.041-0.199-0.061-0.42-0.061-0.659c0-0.28,0.069-0.7,0.21-1.261c0.14-0.56,0.21-0.96,0.21-1.2c0-0.398-0.119-0.759-0.359-1.079
	c-0.24,0-0.591,0.09-1.051,0.27s-0.79,0.271-0.99,0.271c-0.439,0-0.8-0.301-1.08-0.9c0.041-0.6-0.079-0.96-0.359-1.08
	c0.12-0.879,0.949-1.39,2.49-1.53c1.539-0.14,2.311-0.489,2.311-1.05c0-0.399-0.201-0.939-0.601-1.62
	c0.239-0.079,0.36-0.279,0.36-0.6c0-0.56,0-0.819,0-0.78c-0.041-0.199-0.041-0.8,0-1.8c0.039-0.76-0.081-1.34-0.36-1.74
	c-0.521,0.24-1.221,0.72-2.101,1.44c-0.279-0.36-0.42-0.74-0.42-1.141c0-0.359,0.141-0.77,0.42-1.229s0.4-0.729,0.36-0.811
	l-0.36-0.359c0.439-0.48,1-0.721,1.681-0.721c0.68,0,1.279,0.24,1.8,0.721c0.52,0.479,0.76,1.08,0.721,1.8
	c0.039,1.24,0.059,2.5,0.059,3.78c0,1.56-0.26,2.74-0.779,3.54c0.24,0.04,0.609,0.17,1.109,0.39c0.5,0.221,0.871,0.33,1.111,0.33
	c0.398,0,0.719-0.24,0.959-0.72c0.6-0.04,0.95,0.07,1.051,0.33c0.1,0.26,0.149,0.49,0.149,0.689c0,0.681-0.561,1.301-1.68,1.86
	c-1.401,0.681-2.181,1.12-2.341,1.319c-0.239,1.121-0.479,2.241-0.719,3.36c-0.281,1.32-0.42,2.421-0.42,3.3
	c0,0.96,0.158,1.9,0.479,2.82c-0.04,0.561,0.06,0.921,0.3,1.08c0,0.561-0.021,1.12-0.061,1.68c0.04,0.68,0.301,1.16,0.781,1.44
	c1.079,0.12,1.719-0.261,1.92-1.141c0.079-0.8,0.199-1.609,0.359-2.43C109.645,49.282,110.285,48.952,111.405,49.111z"/>
<path fill="#086E52" d="M122.445,55.651c0.56,0.8,0.84,1.72,0.84,2.76c0,1.359-0.44,2.71-1.32,4.051c-0.88,1.34-1.9,2.329-3.06,2.97
	c-0.24,0.159-0.46,0.24-0.66,0.24c-0.28,0-0.57-0.201-0.87-0.601c-0.3-0.4-0.53-0.6-0.689-0.6c-0.161,0-0.36,0.1-0.601,0.3
	c0-0.08-0.66-1.08-1.979-3c-0.72-1.04-1.221-2.16-1.501-3.36c-0.039-0.16-0.18-0.42-0.42-0.779c-0.239-0.36-0.359-0.66-0.359-0.9
	c0-0.12,0.02-0.261,0.061-0.42c0.398,0,0.699-0.221,0.899-0.66c0.319-0.72,0.499-1.08,0.54-1.08c0.319,0.2,1.2,0.301,2.64,0.301
	c1.16,0,1.899,0.379,2.221,1.14c0.12,0.199,0.18,0.38,0.18,0.54c0,0.359-0.24,0.66-0.72,0.899c-0.681,0.32-1.08,0.54-1.2,0.66
	c-0.28-0.32-0.521-0.44-0.72-0.359c-0.321,0.359-0.48,0.739-0.48,1.14c0,0.56,0.41,1.34,1.23,2.34c0.819,1,1.29,1.7,1.409,2.101
	c0.12,0.039,0.26,0.06,0.421,0.06c0.479,0,0.938-0.261,1.38-0.78c0.319-0.44,0.639-0.899,0.96-1.38c0.039-0.32,0.18-1.061,0.42-2.22
	c0.199-1.041,0.3-1.86,0.3-2.46c0-0.641-0.12-1.181-0.36-1.62c-0.04-0.081-0.359-0.381-0.96-0.9c-0.4-0.359-0.54-0.76-0.42-1.199
	c-1.319-0.561-2.46-1.801-3.42-3.721c-1.04-2.079-2.001-3.42-2.88-4.02c-0.201-0.279-0.3-0.601-0.3-0.96
	c0-0.36,0.14-0.931,0.42-1.71c0.279-0.78,0.42-1.351,0.42-1.71c0-0.601-0.28-1.12-0.84-1.561c0-0.199,0.05-0.489,0.149-0.87
	c0.1-0.379,0.15-0.649,0.15-0.81c0-0.319-0.1-0.579-0.3-0.78c0.317-0.199,0.674-0.619,1.071-1.26c0.397-0.64,0.735-1.04,1.014-1.2
	c2.185-0.199,4.15,0.98,5.897,3.54c0.238,0.881,0.357,1.68,0.357,2.4c0,1.56-0.58,2.98-1.74,4.26c-0.12,0.04-0.24,0.06-0.359,0.06
	c-0.201,0-0.461-0.119-0.78-0.359c-0.32-0.24-0.521-0.38-0.601-0.42c0.04-0.32,0.38-0.78,1.021-1.38c0.52-0.52,0.76-1,0.72-1.44
	c-0.12-0.84-0.261-1.71-0.42-2.61c-0.16-0.899-0.6-1.55-1.32-1.949c-0.399-0.2-0.82-0.301-1.26-0.301c-1.28,0-1.92,0.461-1.92,1.38
	c0,0.24,0.12,0.48,0.36,0.721c-0.041,0.16-0.061,0.32-0.061,0.479c0,0.201,0.04,0.521,0.12,0.96c0.08,0.441,0.12,0.78,0.12,1.021
	c0,0.359-0.06,0.7-0.18,1.02l0.359,0.36c-0.119,0.28-0.18,0.58-0.18,0.9c0,0.72,0.279,1.66,0.84,2.819
	c0.48,0.881,0.96,1.74,1.44,2.58c0.279,0.561,1.239,1.701,2.88,3.42C121.685,53.011,122.364,54.332,122.445,55.651z"/>
</svg>
