<?xml version="1.0" encoding="utf-8"?>
<!-- Generator: Adobe Illustrator 15.1.0, SVG Export Plug-In . SVG Version: 6.00 Build 0)  -->
<!DOCTYPE svg PUBLIC "-//W3C//DTD SVG 1.1//EN" "http://www.w3.org/Graphics/SVG/1.1/DTD/svg11.dtd">
<svg version="1.1" id="Ebene_1" xmlns="http://www.w3.org/2000/svg" xmlns:xlink="http://www.w3.org/1999/xlink" x="0px" y="0px"
	 width="517px" height="65px" viewBox="23.5 266.5 517 65" enable-background="new 23.5 266.5 517 65" xml:space="preserve">
<g id="Ebene_2">
</g>
<g id="Ebene_3">
	<path fill="#65BD9F" d="M32.001,281.643c2.354-5.655,17-2,26-4s149,1.5,149,1.5s80-6.5,101-5.5s95,5,104,5S498,274.144,512,277.144
		s23,1,23,11s-3,24-8,27s-6,9-25,10s-164.999-2.501-174.999-1.501s-61,1-67-1s-39,2-46,2s-87-3-100,0s-63.762,1.847-68.762-2.153
		s-12.238-6.847-13.238-14.847S29.646,287.298,32.001,281.643z"/>
	<path fill="#1DAC84" d="M516.511,273.801c-14.297-3.457-92.229,1.499-101.419,1.499c-9.191,0-84.762-4.609-106.207-5.765
		c-21.445-1.15-103.143,6.339-103.143,6.339s-142.972-4.031-152.163-1.729c-9.19,2.307-24.146-1.907-26.552,4.61
		c-2.404,6.519-1.021,20.743,0,29.966c1.021,9.222,8.413,12.501,13.52,17.108c5.107,4.61,56.945,5.94,70.221,2.482
		s94.974,0,102.122,0s40.85-4.61,46.977-2.306c6.127,2.306,58.209,2.306,68.422,1.15c10.212-1.15,158.605,3.111,178.012,1.959
		c19.402-1.15,20.424-8.066,25.529-11.523c5.104-3.458,8.17-19.595,8.17-31.119C539.999,274.952,530.808,277.259,516.511,273.801z
		 M526.999,315.144c-5,3-6,9-25,10S337,322.643,327,323.643s-61,1-67-1s-39,2-46,2s-87-3-100,0s-63.762,1.847-68.762-2.153
		S33,315.643,32,307.643s-2.354-20.345,0-26s17-2,26-4s149,1.5,149,1.5s80-6.5,101-5.5s95,5,104,5s85.999-4.499,99.999-1.499
		s23,1,23,11S531.999,312.144,526.999,315.144z"/>
</g>
</svg>
