<?xml version="1.0" encoding="utf-8"?>
<!-- Generator: Adobe Illustrator 15.1.0, SVG Export Plug-In . SVG Version: 6.00 Build 0)  -->
<!DOCTYPE svg PUBLIC "-//W3C//DTD SVG 1.1//EN" "http://www.w3.org/Graphics/SVG/1.1/DTD/svg11.dtd">
<svg version="1.1" id="Ebene_1" xmlns="http://www.w3.org/2000/svg" xmlns:xlink="http://www.w3.org/1999/xlink" x="0px" y="0px"
	 width="195px" height="104.5px" viewBox="0 0 195 104.5" enable-background="new 0 0 195 104.5" xml:space="preserve">
<g id="Ebene_1_1_">
	<g>
		<path fill="#1DAC84" d="M32.123,6.792c-0.401,1.062-1.32,2.484-2.76,4.274c-2.4-1.998-3.96-3-4.68-3
			c-0.641,0-1.44,0.242-2.4,0.722c-2.561,1.442-4.2,3.688-4.92,6.729c-1.121,4.808-1.8,7.493-2.04,8.052
			c0,1.042,0.12,1.942,0.36,2.703c0.24,0.762,0.36,1.184,0.36,1.263c0,0.401-0.72,1.404-2.16,3.005l1.44,0.724v1.438
			c-1.121-0.159-1.841,0.081-2.16,0.725c1.039,2.083,1.56,3.402,1.56,3.966c0,0.317-0.041,0.642-0.12,0.962
			c-1.041,0.398-1.521,1.802-1.44,4.206c0,0.317,0,0.722,0,1.201c0,0.563-0.12,1.384-0.36,2.464c-0.24,1.082-0.36,1.9-0.36,2.464
			c0,0.804,0.204,1.563,0.617,2.284c-0.069,0.881-0.036,3.807,0.103,8.771c0,3.605-0.24,6.528-0.72,8.771
			c0.319,1.845,1.519,5.37,3.6,10.577c-0.24,0.316-0.36,0.681-0.36,1.082c0,0.72,0.6,1.763,1.8,3.119
			c1.2,1.363,1.878,2.285,2.04,2.769c-0.48,0.239-0.72,0.562-0.72,0.961c0,0.24,0.219,0.66,0.66,1.263
			c0.438,0.604,0.699,1.021,0.78,1.263c4.159-1.521,6.919-2.962,8.28-4.317c0.879-0.879,1.32-2.039,1.32-3.479
			c0-0.159,0-0.34,0-0.541c0-0.195,0-0.34,0-0.42c0-1.68,0.52-3.196,1.56-4.561c2.16,1.762,3.24,3.682,3.24,5.76
			c0,2.642-1.421,5.041-4.26,7.201c-2.841,2.159-5.541,3.239-8.1,3.239c-2-0.081-3.84-1.401-5.52-3.97
			c-2.321-3.52-3.761-5.482-4.32-5.887c-2.082-6.89-3.12-15.422-3.12-25.597c0-7.771,0.6-15.183,1.8-22.229
			c0.48-2.963,0.7-6.248,0.66-9.854c-0.041-3.604,0.58-6.928,1.86-9.976c0.879-2.24,2.599-5.207,5.16-8.894
			c1.839-1.2,3.879-1.802,6.12-1.802C27.643,4.228,30.042,5.083,32.123,6.792z"/>
		<path fill="#1DAC84" d="M56.844,79.107c-1.44,0.961-2.721,3.438-3.84,7.438c-0.96,3.359-3.161,5.439-6.6,6.24
			c-0.561,0.479-1.161,0.724-1.8,0.724c-0.561,0-1.361-0.201-2.4-0.604c-1.041-0.398-1.761-0.641-2.16-0.72
			c-2.48-1.841-3.72-4.36-3.72-7.563c0-0.721,0.079-1.84,0.24-3.356c0.16-1.521,0.24-2.683,0.24-3.479
			c0-0.959-0.161-1.84-0.48-2.641c1.359-1.277,1.746-2.898,1.159-4.859c-0.587-1.959-0.413-3.58,0.521-4.856
			c-0.161-0.479-0.24-0.96-0.24-1.44c0-1.92,1.239-4.277,3.72-7.08c2.479-0.72,5.28-0.959,8.4-0.72
			c2.479,2.88,4.119,5.761,4.92,8.642c1.119,0.881,1.68,1.879,1.68,3c0,0.563-0.18,1.379-0.54,2.459c-0.36,1.08-0.54,1.94-0.54,2.58
			c0,0.801,0.24,1.563,0.72,2.279c-0.479,0.161-0.72,0.561-0.72,1.2c0,0.479,0.039,0.96,0.12,1.438L56.844,79.107z M49.884,74.308
			c0.318-0.399,0.48-0.84,0.48-1.319s-0.881-1.84-2.64-4.08c1.68-1.438,2.4-3.479,2.16-6.119c-1.44-1.601-3.321-2.236-5.64-1.922
			c-1.761,2.082-2.64,4.723-2.64,7.922c0,0.563,0.04,1.479,0.12,2.76c0.079,1.279,0.12,2.24,0.12,2.883
			c0,2.236-0.294,4.197-0.883,5.88c-0.131,0.397-0.197,0.802-0.197,1.2c0,0.479,0.12,1.141,0.36,1.979
			c0.24,0.842,0.36,1.461,0.36,1.86c0,0.56-0.24,1.08-0.72,1.56c0.319,0.319,0.66,0.641,1.02,0.961
			c0.36,0.318,0.499,0.643,0.42,0.961c2.319,0.397,4.159-0.24,5.52-1.922c0.079-0.32,0.399-1.24,0.96-2.76
			c0.399-1.199,0.6-2.16,0.6-2.88c0-0.317-0.042-0.644-0.12-0.96c0.071-0.799,0.291-1.563,0.654-2.279
			c0.364-0.721,0.546-1.24,0.546-1.561C50.364,75.91,50.202,75.188,49.884,74.308z"/>
		<path fill="#1DAC84" d="M89.603,79.588c0.16,0.479,0.24,0.923,0.24,1.318c0,0.721-0.382,1.701-1.14,2.94
			c-0.762,1.237-1.182,2.179-1.261,2.817c-2.241,0.642-4.161,0.959-5.76,0.959c-1.601,0-2.802-0.317-3.6-0.959
			c0-0.883-0.621-2.021-1.86-3.42c-1.241-1.396-1.781-2.621-1.62-3.66c0.559-0.156,0.84-0.396,0.84-0.721
			c0-0.24-0.141-0.601-0.42-1.08c-0.281-0.479-0.42-0.84-0.42-1.08c0-0.64,0.24-1.578,0.72-2.816c0.48-1.239,0.72-2.182,0.72-2.82
			c0-0.72-0.201-1.439-0.6-2.16c0-0.559,0-1.199,0-1.92c0-1.277-0.24-3-0.72-5.158c-0.48-2.642-0.761-4.317-0.84-5.041
			c-2.961,0.801-4.641,3.881-5.04,9.24c-0.24,2.961-1.2,6.28-2.88,9.959c0.159,0.563,0.24,1.2,0.24,1.92
			c0,0.721-0.141,1.86-0.42,3.422c-0.281,1.563-0.42,2.74-0.42,3.539c0,1.199,0.199,2.279,0.6,3.239
			c-0.081,0.079-0.461,0.499-1.14,1.261c-0.681,0.76-1.26,1.144-1.74,1.144c-0.24,0-0.44-0.081-0.6-0.24
			c-1.2-0.646-1.602-2.521-1.2-5.644c0.48-3.6,0.399-6-0.24-7.196c-0.081-0.802-0.042-2.28,0.12-4.44
			c0.16-2.559,0.24-4.438,0.24-5.64c0-6.479-1.8-10.239-5.4-11.28c0.081-1.439,1.521-3.078,4.32-4.92
			c1.92,0.721,2.88,2.241,2.88,4.561c0,0.32,0,0.765,0,1.32c0,0.563,0,0.959,0,1.199c0,1.842,0.439,3.281,1.32,4.32
			c0.318,0.076,0.6,0.117,0.84,0.117c0.399,0,0.799-0.276,1.2-0.84l0.84-1.438c-0.401-0.399-0.6-0.88-0.6-1.44
			c0-0.396,0.439-1.599,1.32-3.6c0.559-1.119,1.56-1.898,3-2.34c1.44-0.438,2.839-0.819,4.2-1.145
			c1.759,0.563,2.64,1.521,2.64,2.881c0,0.4-0.081,1.021-0.24,1.859c-0.161,0.84-0.24,1.461-0.24,1.859
			c0,1.119,0.438,2.002,1.32,2.641c0.078,0.643,0.279,2.04,0.6,4.2c0.319,1.761,0.48,3.161,0.48,4.198c0,2.238-0.6,4.199-1.8,5.882
			c0.878,4.237,2.32,6.601,4.32,7.079c0.079-0.158,0.438-1.079,1.08-2.762c0.398-1.039,0.999-1.801,1.801-2.277
			c0.318,0.479,1.039,0.761,2.159,0.84C88.562,78.349,89.281,78.789,89.603,79.588z"/>
		<path fill="#1DAC84" d="M116.602,79.588c0.16,0.479,0.24,0.923,0.24,1.318c0,0.721-0.381,1.701-1.141,2.94
			c-0.761,1.237-1.181,2.179-1.26,2.817c-2.24,0.642-4.16,0.959-5.76,0.959c-1.602,0-2.801-0.317-3.6-0.959
			c0-0.883-0.621-2.021-1.86-3.42c-1.241-1.396-1.781-2.621-1.62-3.66c0.559-0.156,0.84-0.396,0.84-0.721
			c0-0.24-0.141-0.601-0.42-1.08c-0.281-0.479-0.42-0.84-0.42-1.08c0-0.64,0.24-1.578,0.721-2.816
			c0.479-1.239,0.719-2.182,0.719-2.82c0-0.72-0.2-1.439-0.6-2.16c0-0.559,0-1.199,0-1.92c0-1.277-0.24-3-0.72-5.158
			c-0.479-2.642-0.761-4.317-0.84-5.041c-2.962,0.801-4.642,3.881-5.04,9.24c-0.24,2.961-1.2,6.28-2.881,9.959
			c0.16,0.563,0.24,1.2,0.24,1.92c0,0.721-0.141,1.86-0.42,3.422c-0.281,1.563-0.42,2.74-0.42,3.539c0,1.199,0.199,2.279,0.6,3.239
			c-0.08,0.079-0.461,0.499-1.139,1.261c-0.682,0.76-1.261,1.144-1.74,1.144c-0.24,0-0.44-0.081-0.601-0.24
			c-1.2-0.646-1.603-2.521-1.2-5.644c0.48-3.6,0.399-6-0.24-7.196c-0.08-0.802-0.041-2.28,0.121-4.44
			c0.16-2.559,0.239-4.438,0.239-5.64c0-6.479-1.8-10.239-5.399-11.28c0.08-1.439,1.521-3.078,4.32-4.92
			c1.92,0.721,2.879,2.241,2.879,4.561c0,0.32,0,0.765,0,1.32c0,0.563,0,0.959,0,1.199c0,1.842,0.439,3.281,1.32,4.32
			c0.318,0.076,0.6,0.117,0.84,0.117c0.399,0,0.799-0.276,1.2-0.84l0.84-1.438c-0.401-0.399-0.6-0.88-0.6-1.44
			c0-0.396,0.438-1.599,1.319-3.6c0.56-1.119,1.561-1.898,3-2.34c1.44-0.438,2.84-0.819,4.201-1.145
			c1.758,0.563,2.639,1.521,2.639,2.881c0,0.4-0.08,1.021-0.239,1.859c-0.161,0.84-0.24,1.461-0.24,1.859
			c0,1.119,0.438,2.002,1.32,2.641c0.079,0.643,0.278,2.04,0.6,4.2c0.319,1.761,0.48,3.161,0.48,4.198
			c0,2.238-0.601,4.199-1.8,5.882c0.879,4.237,2.319,6.601,4.319,7.079c0.079-0.158,0.438-1.079,1.08-2.762
			c0.399-1.039,0.999-1.801,1.8-2.277c0.319,0.479,1.039,0.761,2.16,0.84C115.561,78.349,116.281,78.789,116.602,79.588z"/>
		<path fill="#1DAC84" d="M140.479,79.228c0.879,0.397,1.32,1.041,1.32,1.92c0,1.843-1.681,3.897-5.04,6.181
			c-3.36,2.279-6.682,3.42-9.96,3.42c-2.562,0-4.56-0.801-6-2.396c0.079-0.723-0.24-1.604-0.96-2.643
			c-0.721-1.039-1.102-1.816-1.141-2.342c-0.041-0.519-0.38-2.259-1.02-5.22c-0.401-2.159-0.521-3.919-0.36-5.28
			c0.079-0.479-0.161-0.959-0.72-1.438c0.559-0.24,0.799-0.919,0.72-2.04c-0.239-0.24-0.36-0.521-0.36-0.84
			c0-0.399,0.399-1.119,1.201-2.16c0.799-1.039,1.199-1.92,1.199-2.644c0.079-3.119,0.12-6.275,0.12-9.479
			c0.479-3.682,1.839-6.359,4.08-8.04c2.88,0.081,5.719,1.722,8.521,4.92c-0.24,1.041,0.039,2.642,0.84,4.8
			c0.799,2.16,1.199,3.721,1.199,4.682c0,2.643-1.279,3.963-3.84,3.963c-0.561,0-1.58-0.159-3.06-0.48
			c-1.481-0.318-2.58-0.398-3.3-0.24c-1.041,0.162-1.842,0.842-2.4,2.041c-1.361,2.563-1.361,5.604,0,9.119
			c-0.48,0.162-0.72,0.563-0.72,1.2c0,1.121,0,1.642,0,1.562c0.96,0.4,1.44,1.199,1.44,2.398c0,0.721-0.24,1.32-0.721,1.801
			c1.999,3.84,3.918,5.76,5.76,5.76c0.879,0,1.76-0.277,2.641-0.84c1.119-0.162,2.76-1.316,4.92-3.479
			c-0.081-0.399-0.36-0.96-0.84-1.683c-0.48-0.721-0.721-1.317-0.721-1.801c0-1.438,0.879-2.16,2.641-2.16
			C137.039,77.787,138.56,78.268,140.479,79.228z M128.479,59.547c-0.239-1.68-0.521-3.356-0.84-5.036
			c-0.401-2.079-1.521-2.959-3.36-2.644c0.159,0.162,0.24,0.359,0.24,0.604c0,0.238-0.162,0.6-0.48,1.076
			c-0.32,0.48-0.479,0.805-0.479,0.964c0,0.317,0.24,0.601,0.72,0.84c-0.479,0.161-0.72,0.562-0.72,1.196v1.564
			c0.399,0.959,1.12,1.438,2.16,1.438C126.68,59.547,127.599,59.547,128.479,59.547z"/>
		<path fill="#1DAC84" d="M161.238,87.207c-0.561,1.398-1.8,2.939-3.72,4.621c-2.802,2.398-4.319,3.797-4.56,4.199
			c-6.961-2.234-10.604-6.503-10.922-12.807c0.399-0.318,0.601-0.682,0.601-1.078s-0.24-0.938-0.72-1.613
			c-0.48-0.677-0.76-1.14-0.84-1.38c1.519-2.473,2.279-5.981,2.279-10.53c0-0.479,0-1.217,0-2.215s0-1.775,0-2.334
			c0-6.623,2.398-11.131,7.2-13.525c0.317,0,0.856-0.139,1.619-0.418c0.76-0.275,1.3-0.42,1.62-0.42
			c0.721,0,1.279,0.438,1.681,1.311l-0.722,0.714c1.279,0.478,2.479,1.585,3.602,3.328c1.119,1.744,1.68,3.368,1.68,4.872
			c0,0.793-0.16,1.466-0.479,2.021c-0.961,0.078-1.881,0.117-2.76,0.117c-1.121,0-1.881-0.433-2.281-1.299
			c0.48-0.314,0.699-1.003,0.66-2.066c-0.041-1.062,0.14-1.75,0.541-2.063c-0.568-1.34-1.258-2.012-2.068-2.012
			c-0.488,0-1.298,0.383-2.432,1.14c-1.137,0.759-1.987,1.179-2.555,1.257c-1.297,1.276-1.945,2.951-1.945,5.021
			c0,0.879,0.18,2.273,0.539,4.188s0.541,3.352,0.541,4.307c0,1.275-0.24,2.396-0.721,3.353c-1.279,0.237-1.92,0.798-1.92,1.675
			c0,0.318,0.159,0.916,0.479,1.795c0.317,0.877,0.479,1.557,0.479,2.031c0,0.641-0.24,1.159-0.721,1.557l0.721,0.717l-0.601,0.722
			c0.879,0.315,1.397,1.192,1.56,2.632c0.16,1.834,0.439,2.986,0.84,3.469c0.48,0.717,1,1.594,1.562,2.631
			c0.317,0.479,0.601,0.72,0.84,0.72c0.318,0,1.238-0.237,2.761-0.722c0.239-0.399,0.899-1,1.979-1.799
			c1.08-0.802,1.619-1.521,1.619-2.16c0-0.32-0.119-0.721-0.359-1.201c-0.641-1.197-0.96-1.92-0.96-2.158
			c-0.081-0.316,0.159-1.156,0.721-2.521l0.479-0.959c0.317-0.879,0.639-1.32,0.96-1.32c0.159,0,0.6,0.342,1.318,1.021
			c0.722,0.681,1.44,0.938,2.16,0.777c0.722,0.399,1.08,1.241,1.08,2.521C162.078,84.508,161.797,85.807,161.238,87.207z"/>
		<path fill="#1DAC84" d="M182.838,77.787c1.199,1.041,1.801,2.24,1.801,3.604c0,1.041-0.84,3.12-2.521,6.236
			c-1.279,2.4-3.279,3.604-6,3.604c-1.041,0-2.76-0.281-5.158-0.84c-1.922-2.24-3.041-5.357-3.361-9.359
			c0-0.24-0.041-3.64-0.119-10.199c0.559-0.561,0.799-1.039,0.721-1.438c-0.479-0.159-0.721-0.399-0.721-0.724
			c0-0.075,0.439-0.76,1.32-2.039c-0.082-0.396-0.121-0.84-0.121-1.317c0-0.562,0.14-1.397,0.42-2.521
			c0.279-1.121,0.421-1.922,0.421-2.397c0-0.799-0.24-1.521-0.72-2.159c-0.48,0-1.182,0.18-2.102,0.539
			c-0.921,0.357-1.58,0.54-1.979,0.54c-0.881,0-1.604-0.603-2.16-1.8c0.08-1.2-0.159-1.922-0.721-2.16
			c0.24-1.76,1.898-2.777,4.979-3.063c3.079-0.277,4.62-0.979,4.62-2.102c0-0.799-0.4-1.879-1.2-3.24
			c0.48-0.158,0.722-0.559,0.722-1.199c0-1.12,0-1.639,0-1.561c-0.082-0.399-0.082-1.603,0-3.603
			c0.078-1.519-0.162-2.68-0.722-3.479c-1.04,0.479-2.44,1.438-4.2,2.88c-0.561-0.72-0.84-1.479-0.84-2.279
			c0-0.721,0.279-1.54,0.84-2.46c0.561-0.919,0.801-1.459,0.721-1.62l-0.721-0.721c0.881-0.96,2-1.438,3.36-1.438
			c1.358,0,2.562,0.479,3.601,1.438c1.039,0.96,1.52,2.16,1.439,3.604c0.079,2.479,0.12,5,0.12,7.56c0,3.12-0.521,5.479-1.562,7.081
			c0.48,0.08,1.22,0.342,2.222,0.779c0.998,0.438,1.739,0.656,2.22,0.656c0.799,0,1.439-0.479,1.92-1.438
			c1.2-0.078,1.898,0.141,2.102,0.66c0.197,0.521,0.299,0.979,0.299,1.381c0,1.36-1.121,2.6-3.359,3.719
			c-2.801,1.361-4.361,2.242-4.68,2.645c-0.48,2.236-0.961,4.479-1.44,6.721c-0.562,2.639-0.84,4.842-0.84,6.6
			c0,1.92,0.319,3.802,0.96,5.644c-0.081,1.121,0.12,1.841,0.6,2.158c0,1.12-0.041,2.239-0.119,3.358
			c0.078,1.358,0.601,2.318,1.561,2.879c2.159,0.24,3.438-0.521,3.84-2.276c0.159-1.603,0.399-3.222,0.721-4.858
			C179.317,78.129,180.598,77.469,182.838,77.787z"/>
	</g>
</g>
<g id="Ebene_2">
</g>
</svg>
