<?xml version="1.0" encoding="utf-8"?>
<!-- Generator: Adobe Illustrator 15.1.0, SVG Export Plug-In . SVG Version: 6.00 Build 0)  -->
<!DOCTYPE svg PUBLIC "-//W3C//DTD SVG 1.1//EN" "http://www.w3.org/Graphics/SVG/1.1/DTD/svg11.dtd">
<svg version="1.1" id="Ebene_1" xmlns="http://www.w3.org/2000/svg" xmlns:xlink="http://www.w3.org/1999/xlink" x="0px" y="0px"
	 width="504px" height="73px" viewBox="0 0 504 73" enable-background="new 0 0 504 73" xml:space="preserve">
<g id="Ebene_2">
</g>
<g id="Ebene_3">
	<path fill="#65BD9F" d="M18.721,8.629c-10.473,4.615-5.515,25.525-6.515,31.203c-1,5.68-1.485,9.676,0.515,15.354
		c2,5.682,33,9.086,43,9.086s116.764-11.66,150.08-5.338c33.316,6.321,274.305,11.418,282.92,5.338c8.613-6.082,10-22.711,9-26.115
		c-1-3.406,0.258-17.896-6-22.709c-6.258-4.816-26-1.139-26-1.139s-132.934,6.423-159,5.68c-26.066-0.744-87-6.814-92-7.949
		c-5-1.135-79.114-3.153-93-3.406c-13.886-0.252-50.027,6.875-63.027,5.74C45.692,13.234,22.564,6.935,18.721,8.629z"/>
	<path fill="#1DAC84" d="M503.714,38.176c-1.021-3.993,0.265-20.979-6.136-26.627c-6.399-5.646-26.59-1.332-26.59-1.332
		s-135.938,7.529-162.594,6.656c-26.656-0.871-88.969-7.986-94.083-9.317c-5.113-1.332-80.901-3.697-95.102-3.992
		c-14.201-0.297-51.158,8.062-64.452,6.729C41.464,8.96,17.813,1.576,13.883,3.563C3.174,8.972,8.243,33.492,7.221,40.146
		C6.199,46.8,5.702,51.492,7.748,58.148c2.045,6.654,33.746,10.647,43.972,10.647c10.226,0,119.403-13.674,153.472-6.258
		s280.504,13.39,289.315,6.258C503.319,61.666,504.737,42.172,503.714,38.176z M488.721,64.27
		c-8.614,6.08-249.604,0.984-282.92-5.338c-33.317-6.322-140.08,5.338-150.08,5.338s-41-3.406-43-9.084
		c-2-5.682-1.515-9.678-0.515-15.354c1-5.676-3.958-26.59,6.515-31.203c3.844-1.69,26.973,4.604,39.973,5.738
		c13,1.137,49.141-5.99,63.027-5.738c13.886,0.252,88,2.271,93,3.406c5,1.135,65.933,7.205,92,7.947s159-5.679,159-5.679
		s19.742-3.683,26,1.138c6.258,4.813,5,19.303,6,22.709C498.721,41.559,497.334,58.188,488.721,64.27z"/>
</g>
</svg>
